<svg width="29" height="26" viewBox="0 0 29 26" fill="none" xmlns="http://www.w3.org/2000/svg">
<path d="M25.5714 3.0076C24.9011 2.33731 24.1053 1.80568 23.2294 1.44309C22.3536 1.0805 21.4149 0.894054 20.467 0.89441C19.519 0.894766 18.5805 1.08192 17.7049 1.44517C16.8293 1.80842 16.0339 2.34064 15.3641 3.01143L14.4898 3.89639L13.6228 3.01335L13.6172 3.00771C12.9472 2.33774 12.1518 1.80629 11.2765 1.4437C10.4011 1.08112 9.46291 0.894495 8.51543 0.894495C7.56795 0.894495 6.62975 1.08112 5.75439 1.4437C4.87903 1.80629 4.08366 2.33774 3.41369 3.00771L3.0242 3.39721C1.67115 4.75027 0.911011 6.5854 0.911011 8.49891C0.911011 10.4124 1.67115 12.2476 3.0242 13.6006L13.3039 23.8802L14.4648 25.0965L14.4925 25.0688L14.5225 25.0988L15.6102 23.9513L25.9609 13.6005C27.3119 12.2463 28.0706 10.4116 28.0706 8.49875C28.0706 6.58591 27.3119 4.75117 25.9609 3.39704L25.5714 3.0076ZM24.6852 12.325L14.4925 22.518L4.29955 12.325C3.28477 11.3103 2.71466 9.9339 2.71466 8.49877C2.71466 7.06364 3.28477 5.68729 4.29955 4.6725L4.6891 4.28301C5.7034 3.26872 7.07892 2.69866 8.51334 2.69812C9.94777 2.69758 11.3237 3.26661 12.3388 4.28013L14.4859 6.46642L16.6433 4.28301C17.1458 3.78053 17.7423 3.38194 18.3988 3.11C19.0554 2.83806 19.759 2.69809 20.4696 2.69809C21.1802 2.69809 21.8839 2.83806 22.5404 3.11C23.1969 3.38194 23.7934 3.78053 24.2959 4.28301L24.6854 4.67244C25.6987 5.68807 26.2677 7.06415 26.2677 8.49879C26.2676 9.93343 25.6985 11.3095 24.6852 12.325Z" fill="white"/>
</svg>
