<svg width="25" height="32" viewBox="0 0 25 32" fill="none" xmlns="http://www.w3.org/2000/svg">
<path d="M21.8078 21.446L17.2111 18.4661L18.9441 15.2973C19.3481 14.5573 19.56 13.7282 19.5607 12.8857V7.86933C19.5607 5.9993 18.8158 4.20586 17.49 2.88354C16.1642 1.56123 14.3659 0.818359 12.4909 0.818359C10.6159 0.818359 8.8177 1.56123 7.49187 2.88354C6.16603 4.20586 5.42119 5.9993 5.42119 7.86933V12.8857C5.42182 13.7283 5.63378 14.5573 6.03777 15.2973L7.7708 18.4661L3.17402 21.446C2.46755 21.9021 1.88706 22.5276 1.48566 23.2654C1.08426 24.0031 0.874764 24.8294 0.876352 25.6688V31.0368H24.1055V25.6688C24.1071 24.8294 23.8976 24.0031 23.4962 23.2654C23.0948 22.5277 22.5143 21.9021 21.8078 21.446ZM22.0856 29.0223H2.89628V25.6688C2.89533 25.1651 3.02104 24.6693 3.26189 24.2267C3.50274 23.7841 3.85105 23.4087 4.27494 23.1351L10.4395 19.1387L7.81107 14.3327C7.56868 13.8887 7.4415 13.3912 7.44111 12.8857V7.86933C7.44111 6.53359 7.97315 5.25256 8.92017 4.30805C9.86719 3.36354 11.1516 2.83292 12.4909 2.83292C13.8302 2.83292 15.1147 3.36354 16.0617 4.30805C17.0087 5.25256 17.5407 6.53359 17.5407 7.86933V12.8857C17.5404 13.3912 17.4132 13.8887 17.1708 14.3327L14.5424 19.1387L20.7071 23.1351C21.131 23.4088 21.4792 23.7841 21.7201 24.2267C21.9609 24.6694 22.0865 25.1652 22.0856 25.6688V29.0223Z" fill="white"/>
</svg>
