<svg width="27" height="26" viewBox="0 0 27 26" fill="none" xmlns="http://www.w3.org/2000/svg">
<path d="M8.47434 4.93875V6.61094H24.3602V9.9211L22.5051 15.808H7.94822L5.85798 0.756226H0.949463V2.42842H4.40192L6.49216 17.4802H23.7314L26.0324 10.1783V4.93875H8.47434Z" fill="white"/>
<path d="M9.36172 19.1683C8.47504 19.1693 7.62497 19.522 6.998 20.149C6.37102 20.776 6.01834 21.626 6.01733 22.5127C6.01733 23.3997 6.36969 24.2504 6.99688 24.8776C7.62408 25.5048 8.47473 25.8571 9.36172 25.8571C10.2487 25.8571 11.0994 25.5048 11.7266 24.8776C12.3538 24.2504 12.7061 23.3997 12.7061 22.5127C12.7051 21.626 12.3524 20.776 11.7255 20.149C11.0985 19.522 10.2484 19.1693 9.36172 19.1683ZM9.36172 24.1849C9.03099 24.1849 8.70769 24.0868 8.4327 23.9031C8.15771 23.7194 7.94338 23.4582 7.81682 23.1526C7.69025 22.8471 7.65714 22.5109 7.72166 22.1865C7.78618 21.8621 7.94544 21.5642 8.1793 21.3303C8.41316 21.0964 8.71112 20.9372 9.03549 20.8727C9.35987 20.8081 9.69609 20.8413 10.0016 20.9678C10.3072 21.0944 10.5684 21.3087 10.7521 21.5837C10.9358 21.8587 11.0339 22.182 11.0339 22.5127C11.0334 22.9561 10.857 23.3811 10.5436 23.6946C10.2301 24.008 9.80505 24.1844 9.36172 24.1849Z" fill="white"/>
<path d="M21.067 19.1683C20.1804 19.1693 19.3303 19.522 18.7033 20.149C18.0763 20.776 17.7237 21.626 17.7227 22.5127C17.7227 23.3997 18.075 24.2504 18.7022 24.8776C19.3294 25.5048 20.1801 25.8571 21.067 25.8571C21.954 25.8571 22.8047 25.5048 23.4319 24.8776C24.0591 24.2504 24.4114 23.3997 24.4114 22.5127C24.4104 21.626 24.0578 20.776 23.4308 20.149C22.8038 19.522 21.9537 19.1693 21.067 19.1683ZM21.067 24.1849C20.7363 24.1849 20.413 24.0868 20.138 23.9031C19.863 23.7194 19.6487 23.4582 19.5221 23.1526C19.3956 22.8471 19.3625 22.5109 19.427 22.1865C19.4915 21.8621 19.6508 21.5642 19.8846 21.3303C20.1185 21.0964 20.4164 20.9372 20.7408 20.8727C21.0652 20.8081 21.4014 20.8413 21.707 20.9678C22.0125 21.0944 22.2737 21.3087 22.4574 21.5837C22.6412 21.8587 22.7392 22.182 22.7392 22.5127C22.7387 22.9561 22.5624 23.3811 22.2489 23.6946C21.9354 24.008 21.5104 24.1844 21.067 24.1849Z" fill="white"/>
</svg>
