<svg width="25" height="27" viewBox="0 0 25 27" fill="none" xmlns="http://www.w3.org/2000/svg">
<path d="M24.2786 10.7524L13.3227 0.672953C12.9665 0.345277 12.4975 0.167944 12.0136 0.178019C11.5298 0.188095 11.0685 0.3848 10.7263 0.727019L0.650035 10.8033L0.132935 11.3204V26.175H9.84271V16.9065H15.139V26.175H24.8487V11.277L24.2786 10.7524ZM12.0516 1.94306C12.0671 1.94306 12.0575 1.94642 12.0509 1.95299C12.044 1.94642 12.036 1.94306 12.0516 1.94306ZM23.0833 24.4095H16.9044V16.9065C16.9044 16.4383 16.7184 15.9893 16.3873 15.6582C16.0562 15.3271 15.6072 15.1411 15.139 15.1411H9.84271C9.37449 15.1411 8.92545 15.3271 8.59437 15.6582C8.2633 15.9893 8.0773 16.4383 8.0773 16.9065V24.4095H1.89835V12.0516L12.0516 1.97533C12.0523 1.97467 12.0523 1.97406 12.0529 1.9734L23.0833 12.0516V24.4095Z" fill="white"/>
</svg>
