<svg width="77" height="77" viewBox="0 0 77 77" fill="none" xmlns="http://www.w3.org/2000/svg">
<path d="M33.0378 40.8491C39.7398 40.8491 45.1729 35.4063 45.1729 28.6921C45.1729 21.978 39.7398 16.5352 33.0378 16.5352C26.3358 16.5352 20.9027 21.978 20.9027 28.6921C20.9027 35.4063 26.3358 40.8491 33.0378 40.8491Z" stroke="#F8F8F8" stroke-width="5" stroke-linecap="round" stroke-linejoin="round"/>
<path d="M52.5742 15.4969C55.1963 19.3964 56.5971 23.9912 56.5971 28.693C56.5971 33.3947 55.1963 37.9895 52.5742 41.889M61.8314 9.24194C65.6962 14.9899 67.7608 21.7626 67.7608 28.693C67.7608 35.6233 65.6962 42.396 61.8314 48.144M33.0379 47.5354C46.5378 47.5354 57.3064 51.3162 57.3064 55.8254V67.4281H8.76929V55.8254C8.76929 51.3162 19.5364 47.5354 33.0379 47.5354Z" stroke="#F8F8F8" stroke-width="5" stroke-linecap="round" stroke-linejoin="round"/>
</svg>
