<svg width="77" height="77" viewBox="0 0 77 77" fill="none" xmlns="http://www.w3.org/2000/svg">
<path d="M43.0492 62.2943H71.7486V67.0862H43.0492V62.2943ZM43.0492 50.3146H71.7486V55.1065H43.0492V50.3146ZM43.0492 38.335H71.7486V43.1268H43.0492V38.335Z" fill="#F8F8F8"/>
<path d="M33.4827 59.8985H22.7204C18.237 59.9036 13.9144 58.2255 10.6051 55.1951C7.29578 52.1648 5.23999 48.0023 4.84312 43.5284C4.44625 39.0545 5.73711 34.594 8.46114 31.0265C11.1852 27.4591 15.1446 25.0436 19.5587 24.2566C20.6767 18.4001 23.9343 13.1716 28.6949 9.59293C33.4556 6.01423 39.3772 4.34244 45.3026 4.90425C51.228 5.46605 56.7314 8.22108 60.7374 12.631C64.7433 17.0409 66.964 22.7887 66.9654 28.7513H62.1822C62.1791 23.8512 60.3026 19.1383 56.9384 15.5814C53.5741 12.0244 48.9776 9.89347 44.0935 9.62659C39.2095 9.3597 34.4089 10.9771 30.6784 14.1464C26.9479 17.3157 24.5708 21.7961 24.0358 26.6669L23.8206 28.6651L21.8188 28.7993C18.4123 29.025 15.2271 30.5695 12.9373 33.1062C10.6474 35.6428 9.43248 38.9724 9.54963 42.3905C9.66678 45.8085 11.1068 49.0469 13.5649 51.4202C16.0231 53.7935 19.3065 55.1155 22.7204 55.1067H33.4827V59.8985Z" fill="#F8F8F8"/>
</svg>
