<svg width="77" height="77" viewBox="0 0 77 77" fill="none" xmlns="http://www.w3.org/2000/svg">
<path opacity="0.5" d="M38.265 6.37744C31.9582 6.37744 25.7931 8.24761 20.5492 11.7515C15.3053 15.2553 11.2182 20.2354 8.80475 26.0621C6.39126 31.8888 5.75978 38.3003 6.99017 44.4859C8.22055 50.6715 11.2575 56.3533 15.7171 60.8128C20.1766 65.2724 25.8584 68.3093 32.044 69.5397C38.2296 70.7701 44.6411 70.1386 50.4678 67.7252C56.2945 65.3117 61.2746 61.2246 64.7784 55.9807C68.2823 50.7368 70.1525 44.5717 70.1525 38.2649C70.1525 34.0774 69.3277 29.9309 67.7252 26.0621C66.1227 22.1934 63.7738 18.6781 60.8128 15.7171C57.8518 12.756 54.3365 10.4072 50.4678 8.80473C46.599 7.20224 42.4525 6.37744 38.265 6.37744ZM38.265 63.7749C33.2196 63.7749 28.2875 62.2788 24.0924 59.4757C19.8973 56.6727 16.6276 52.6885 14.6968 48.0272C12.766 43.3659 12.2608 38.2366 13.2451 33.2882C14.2294 28.3397 16.659 23.7943 20.2267 20.2266C23.7943 16.659 28.3397 14.2294 33.2882 13.2451C38.2367 12.2608 43.3659 12.766 48.0272 14.6968C52.6885 16.6276 56.6727 19.8972 59.4757 24.0923C62.2788 28.2874 63.7749 33.2195 63.7749 38.2649C63.7749 45.0306 61.0873 51.5192 56.3032 56.3032C51.5192 61.0873 45.0306 63.7749 38.265 63.7749Z" fill="#F8F8F8"/>
<path d="M63.775 38.2649H70.1525C70.1525 34.0774 69.3277 29.9309 67.7252 26.0621C66.1227 22.1934 63.7739 18.6781 60.8129 15.7171C57.8519 12.756 54.3366 10.4072 50.4678 8.80473C46.5991 7.20224 42.4525 6.37744 38.265 6.37744V12.7549C45.0307 12.7549 51.5193 15.4426 56.3033 20.2266C61.0874 25.0107 63.775 31.4993 63.775 38.2649Z" fill="#F8F8F8"/>
</svg>
