<svg width="1006" height="60" viewBox="0 0 1006 60" fill="none" xmlns="http://www.w3.org/2000/svg">
<rect width="1004.56" height="59.0198" transform="translate(0.499512 0.013916)" fill="#403E3E"/>
<path d="M47.581 34.172C47.4492 34.172 47.3255 34.137 47.2101 34.067C47.1029 33.9893 47.0288 33.8961 46.9876 33.7873L45.1575 28.6111C45.0915 28.3702 45.0915 28.1759 45.1575 28.0282C45.2317 27.8727 45.3883 27.795 45.6273 27.795C45.784 27.795 45.9118 27.8378 46.0107 27.9233C46.1179 28.001 46.2044 28.137 46.2704 28.3313L47.8284 32.9246H47.3956L48.8671 28.238C48.9083 28.1059 48.9783 28.001 49.0773 27.9233C49.1762 27.8378 49.3123 27.795 49.4853 27.795C49.6502 27.795 49.7822 27.8378 49.881 27.9233C49.9882 28.001 50.0583 28.1059 50.0912 28.238L51.2906 32.6447H51.1052L52.5643 28.3313C52.6797 27.9737 52.8941 27.795 53.2073 27.795C53.4381 27.795 53.5948 27.8727 53.6772 28.0282C53.7596 28.1759 53.7555 28.3702 53.6649 28.6111L51.8348 33.7873C51.8018 33.8961 51.7317 33.9893 51.6246 34.067C51.5174 34.137 51.3937 34.172 51.2535 34.172C51.1217 34.172 50.998 34.137 50.8826 34.067C50.7672 33.9893 50.693 33.8961 50.6601 33.7873L49.3865 29.3456H49.5101L48.1746 33.7873C48.1416 33.8961 48.0675 33.9893 47.9521 34.067C47.8449 34.137 47.7212 34.172 47.581 34.172ZM57.9557 34.2186C57.2715 34.2186 56.6615 34.0826 56.1256 33.8105C55.598 33.5308 55.1818 33.15 54.8767 32.6681C54.58 32.1784 54.4316 31.6188 54.4316 30.9893C54.4316 30.352 54.5717 29.7925 54.8521 29.3106C55.1406 28.8209 55.5363 28.4401 56.0391 28.168C56.542 27.8883 57.1189 27.7483 57.7703 27.7483C58.4133 27.7483 58.9656 27.8844 59.4272 28.1564C59.8888 28.4206 60.2392 28.7898 60.4783 29.2639C60.7256 29.7303 60.8492 30.2704 60.8492 30.8844C60.8492 31.0321 60.7957 31.1564 60.6885 31.2575C60.5813 31.3507 60.4453 31.3973 60.2804 31.3973H55.2972V30.4647H60.2433L59.7363 30.7911C59.7281 30.4026 59.6457 30.0567 59.489 29.7536C59.3324 29.4427 59.1098 29.1979 58.8213 29.0191C58.5328 28.8403 58.1824 28.751 57.7703 28.751C57.3004 28.751 56.8964 28.8481 56.5584 29.0425C56.2287 29.2367 55.9773 29.5049 55.8041 29.8468C55.631 30.181 55.5445 30.5619 55.5445 30.9893C55.5445 31.4168 55.6475 31.7976 55.8536 32.1318C56.0597 32.4661 56.3441 32.7303 56.7068 32.9246C57.0695 33.1189 57.4859 33.2161 57.9557 33.2161C58.2113 33.2161 58.4709 33.1732 58.7347 33.0878C59.0068 32.9945 59.2252 32.8896 59.3901 32.773C59.5137 32.6876 59.6457 32.6447 59.7858 32.6447C59.9342 32.637 60.0619 32.6758 60.1691 32.7613C60.3092 32.878 60.3834 33.0062 60.3916 33.1461C60.4 33.2859 60.334 33.4065 60.1938 33.5074C59.9135 33.7173 59.5632 33.8883 59.1428 34.0204C58.7306 34.1525 58.3349 34.2186 57.9557 34.2186ZM63.1008 33.9505L62.26 33.251L66.4642 28.0165L67.2927 28.716L63.1008 33.9505ZM62.7299 34.172C62.3424 34.172 62.1487 33.9893 62.1487 33.624C62.1487 33.2588 62.3424 33.0761 62.7299 33.0761H66.9465C67.3339 33.0761 67.5276 33.2588 67.5276 33.624C67.5276 33.9893 67.3339 34.172 66.9465 34.172H62.7299ZM62.6063 28.8909C62.2188 28.8909 62.025 28.7082 62.025 28.3429C62.025 27.9776 62.2188 27.795 62.6063 27.795H66.8228C67.2102 27.795 67.404 27.9776 67.404 28.3429C67.404 28.7082 67.2102 28.8909 66.8228 28.8909H62.6063ZM72.5361 34.2186C71.8931 34.2186 71.316 34.0788 70.8049 33.7989C70.2939 33.5113 69.8899 33.1227 69.5931 32.6331C69.2964 32.1435 69.1439 31.5916 69.1357 30.9777V25.6616C69.1357 25.4828 69.1933 25.339 69.3088 25.2302C69.4324 25.1214 69.5849 25.067 69.7662 25.067C69.9558 25.067 70.1084 25.1214 70.2238 25.2302C70.3392 25.339 70.3969 25.4828 70.3969 25.6616V28.8092C70.6854 28.4829 71.0316 28.2264 71.4356 28.0398C71.8478 27.8455 72.2971 27.7483 72.7834 27.7483C73.3852 27.7483 73.9252 27.8921 74.4033 28.1798C74.8814 28.4595 75.2565 28.8442 75.5285 29.3338C75.8088 29.8157 75.9489 30.3637 75.9489 30.9777C75.9489 31.5916 75.7965 32.1435 75.4914 32.6331C75.1946 33.1227 74.7907 33.5113 74.2797 33.7989C73.7685 34.0788 73.1873 34.2186 72.5361 34.2186ZM72.5361 33.1693C72.9565 33.1693 73.3316 33.0761 73.6613 32.8896C73.991 32.6953 74.2508 32.4311 74.4404 32.0969C74.6383 31.7626 74.7371 31.3896 74.7371 30.9777C74.7371 30.558 74.6383 30.1849 74.4404 29.8585C74.2508 29.5321 73.991 29.2756 73.6613 29.0891C73.3316 28.8948 72.9565 28.7976 72.5361 28.7976C72.1239 28.7976 71.7488 28.8948 71.4109 29.0891C71.0811 29.2756 70.8215 29.5321 70.6318 29.8585C70.4422 30.1849 70.3474 30.558 70.3474 30.9777C70.3474 31.3896 70.4422 31.7626 70.6318 32.0969C70.8215 32.4311 71.0811 32.6953 71.4109 32.8896C71.7488 33.0761 72.1239 33.1693 72.5361 33.1693ZM80.8967 34.2186C80.2289 34.2186 79.6395 34.0826 79.1283 33.8105C78.6172 33.5308 78.2133 33.15 77.9166 32.6681C77.6281 32.1784 77.4838 31.6188 77.4838 30.9893C77.4838 30.352 77.6281 29.7925 77.9166 29.3106C78.2133 28.8209 78.6172 28.4401 79.1283 28.168C79.6395 27.8883 80.2289 27.7483 80.8967 27.7483C81.5561 27.7483 82.1414 27.8883 82.6525 28.168C83.1636 28.4401 83.5634 28.8209 83.852 29.3106C84.1487 29.7925 84.2971 30.352 84.2971 30.9893C84.2971 31.6188 84.1528 32.1784 83.8643 32.6681C83.5758 33.15 83.176 33.5308 82.6649 33.8105C82.1537 34.0826 81.5643 34.2186 80.8967 34.2186ZM80.8967 33.1693C81.3252 33.1693 81.7045 33.0761 82.0342 32.8896C82.3639 32.7031 82.6196 32.4466 82.8008 32.1201C82.9905 31.7938 83.0852 31.4168 83.0852 30.9893C83.0852 30.5619 82.9905 30.1849 82.8008 29.8585C82.6196 29.5242 82.3639 29.2639 82.0342 29.0774C81.7045 28.8909 81.3252 28.7976 80.8967 28.7976C80.468 28.7976 80.0887 28.8909 79.759 29.0774C79.4293 29.2639 79.1696 29.5242 78.9799 29.8585C78.7904 30.1849 78.6955 30.5619 78.6955 30.9893C78.6955 31.4168 78.7904 31.7938 78.9799 32.1201C79.1696 32.4466 79.4293 32.7031 79.759 32.8896C80.0887 33.0761 80.468 33.1693 80.8967 33.1693Z" fill="white"/>
<path d="M47.2102 34.067L46.9238 34.418C46.9342 34.4255 46.945 34.4327 46.9562 34.4395L47.2102 34.067ZM46.9876 33.7872L46.542 33.9273C46.5431 33.9303 46.5442 33.9331 46.5453 33.9361L46.9876 33.7872ZM45.1576 28.611L44.7028 28.7217C44.7055 28.7315 44.7086 28.7414 44.712 28.751L45.1576 28.611ZM45.1576 28.0281L44.7292 27.8464C44.7277 27.8497 44.7262 27.853 44.7246 27.8562L45.1576 28.0281ZM46.0107 27.9232L45.6933 28.2495C45.7033 28.2582 45.7137 28.2664 45.7243 28.2741L46.0107 27.9232ZM47.8285 32.9245V33.3673C47.9784 33.3673 48.1193 33.2998 48.2077 33.1856C48.2962 33.0714 48.3215 32.9243 48.2759 32.7896L47.8285 32.9245ZM47.3957 32.9245L46.9453 32.7988C46.9032 32.9327 46.9307 33.0775 47.0194 33.1894C47.108 33.3014 47.2475 33.3673 47.3957 33.3673V32.9245ZM48.8672 28.2379L49.3175 28.3637L49.3177 28.3629L48.8672 28.2379ZM49.0773 27.9232L49.3781 28.2634C49.3837 28.2588 49.3892 28.2543 49.3947 28.2495L49.0773 27.9232ZM49.8811 27.9232L49.5637 28.2495C49.5737 28.2582 49.584 28.2664 49.5947 28.2741L49.8811 27.9232ZM50.0913 28.2379L49.6341 28.3393C49.6349 28.3422 49.6356 28.3451 49.6364 28.348L50.0913 28.2379ZM51.2907 32.6447V33.0875C51.4359 33.0875 51.5728 33.0243 51.6618 32.9161C51.7508 32.8081 51.7817 32.6671 51.7457 32.5346L51.2907 32.6447ZM51.1053 32.6447L50.6578 32.5102C50.6122 32.6448 50.6376 32.7919 50.726 32.9059C50.8144 33.0201 50.9553 33.0875 51.1053 33.0875V32.6447ZM52.5643 28.3312L53.0118 28.4657C53.0125 28.4639 53.0131 28.462 53.0137 28.4601L52.5643 28.3312ZM53.6772 28.0281L53.2572 28.2261C53.2586 28.2288 53.2601 28.2316 53.2617 28.2344L53.6772 28.0281ZM53.6649 28.611L53.2222 28.4629C53.2213 28.4656 53.2202 28.4683 53.2193 28.471L53.6649 28.611ZM51.8348 33.7872L51.3892 33.6472C51.3871 33.6533 51.3851 33.6594 51.3832 33.6656L51.8348 33.7872ZM51.6246 34.067L51.892 34.4311C51.8984 34.4269 51.9048 34.4224 51.911 34.418L51.6246 34.067ZM50.8827 34.067L50.6097 34.4273C50.6159 34.4315 50.6222 34.4356 50.6287 34.4395L50.8827 34.067ZM50.6601 33.7872L50.2067 33.9028C50.2073 33.9048 50.2078 33.9068 50.2086 33.9089L50.6601 33.7872ZM49.3865 29.3455V28.9027C49.2403 28.9027 49.1024 28.9668 49.0136 29.0763C48.9247 29.1858 48.8949 29.328 48.933 29.4611L49.3865 29.3455ZM49.5101 29.3455L49.962 29.4663C50.0021 29.3327 49.9736 29.1892 49.8848 29.0785C49.7961 28.9677 49.6573 28.9027 49.5101 28.9027V29.3455ZM48.1746 33.7872L48.6262 33.9089L48.6266 33.908L48.1746 33.7872ZM47.9521 34.067L48.2195 34.4311C48.2214 34.4299 48.2232 34.4286 48.2251 34.4273L47.9521 34.067ZM47.5811 33.7291C47.543 33.7291 47.507 33.7205 47.4641 33.6946L46.9562 34.4395C47.1442 34.5534 47.3554 34.6147 47.5811 34.6147V33.7291ZM47.4965 33.716C47.4532 33.6846 47.4377 33.6588 47.43 33.6382L46.5453 33.9361C46.6199 34.1332 46.7528 34.294 46.9238 34.418L47.4965 33.716ZM47.4331 33.6472L45.603 28.471L44.712 28.751L46.542 33.9273L47.4331 33.6472ZM45.6123 28.5004C45.5587 28.3046 45.581 28.2209 45.5904 28.2L44.7246 27.8562C44.6022 28.1307 44.6245 28.4356 44.7028 28.7217L45.6123 28.5004ZM45.5858 28.2098C45.5847 28.2121 45.5806 28.2195 45.5719 28.2282C45.5632 28.237 45.5547 28.2425 45.5494 28.2451C45.5448 28.2473 45.5468 28.2455 45.5594 28.243C45.5722 28.2405 45.5941 28.2377 45.6274 28.2377V27.3521C45.2747 27.3521 44.9048 27.4787 44.7292 27.8464L45.5858 28.2098ZM45.6274 28.2377C45.6603 28.2377 45.6774 28.2422 45.6836 28.2443C45.6888 28.246 45.6909 28.2474 45.6933 28.2495L46.3281 27.5967C46.1283 27.424 45.8806 27.3521 45.6274 27.3521V28.2377ZM45.7243 28.2741C45.7214 28.272 45.7331 28.2797 45.7532 28.3113C45.7735 28.3431 45.7982 28.3928 45.8231 28.4662L46.7177 28.1963C46.6387 27.9635 46.513 27.7288 46.2971 27.5722L45.7243 28.2741ZM45.8231 28.4661L47.3811 33.0594L48.2759 32.7896L46.7177 28.1963L45.8231 28.4661ZM47.8285 32.4817H47.3957V33.3673H47.8285V32.4817ZM47.846 33.0502L49.3175 28.3637L48.4167 28.1123L46.9453 32.7988L47.846 33.0502ZM49.3177 28.3629C49.3364 28.3032 49.3599 28.2776 49.3781 28.2634L48.7766 27.583C48.597 27.7242 48.4804 27.9084 48.4165 28.1131L49.3177 28.3629ZM49.3947 28.2495C49.3923 28.2518 49.3924 28.2501 49.4021 28.2471C49.4134 28.2435 49.4392 28.2377 49.4854 28.2377V27.3521C49.2299 27.3521 48.9684 27.4166 48.76 27.5967L49.3947 28.2495ZM49.4854 28.2377C49.5251 28.2377 49.5466 28.2429 49.5552 28.2458C49.5626 28.2481 49.5637 28.2495 49.5637 28.2495L50.1985 27.5967C49.9941 27.4202 49.7396 27.3521 49.4854 27.3521V28.2377ZM49.5947 28.2741C49.6104 28.2855 49.6242 28.2996 49.6341 28.3393L50.5485 28.1365C50.4925 27.9121 50.3661 27.7163 50.1675 27.5722L49.5947 28.2741ZM49.6364 28.348L50.8358 32.7548L51.7457 32.5346L50.5463 28.1279L49.6364 28.348ZM51.2907 32.2019H51.1053V33.0875H51.2907V32.2019ZM51.5528 32.7793L53.0118 28.4657L52.1168 28.1966L50.6578 32.5102L51.5528 32.7793ZM53.0137 28.4601C53.0555 28.3308 53.1012 28.2788 53.1229 28.2606C53.1358 28.2499 53.1536 28.2377 53.2073 28.2377V27.3521C52.9478 27.3521 52.7019 27.4294 52.5004 27.5974C52.3079 27.758 52.1887 27.9741 52.1151 28.2023L53.0137 28.4601ZM53.2073 28.2377C53.269 28.2377 53.2857 28.2483 53.2792 28.2451C53.2755 28.2432 53.2697 28.2395 53.2638 28.2338C53.2582 28.2283 53.2564 28.2247 53.2572 28.2261L54.0973 27.8301C53.9139 27.4841 53.5624 27.3521 53.2073 27.3521V28.2377ZM53.2617 28.2344C53.2617 28.2344 53.2618 28.2347 53.2621 28.2356C53.2625 28.2365 53.2631 28.2381 53.2638 28.241C53.2651 28.2467 53.2668 28.2577 53.2664 28.2757C53.2657 28.3131 53.2557 28.374 53.2222 28.4629L54.1076 28.7591C54.2189 28.4632 54.2624 28.1257 54.0929 27.8219L53.2617 28.2344ZM53.2193 28.471L51.3892 33.6472L52.2804 33.9273L54.1105 28.751L53.2193 28.471ZM51.3832 33.6656C51.3813 33.6719 51.3763 33.6885 51.3382 33.716L51.911 34.418C52.0873 34.2902 52.2224 34.1202 52.2864 33.9089L51.3832 33.6656ZM51.3573 33.7029C51.3346 33.7177 51.3058 33.7291 51.2536 33.7291V34.6147C51.4817 34.6147 51.7002 34.5562 51.892 34.4311L51.3573 33.7029ZM51.2536 33.7291C51.2155 33.7291 51.1795 33.7205 51.1366 33.6946L50.6287 34.4395C50.8167 34.5534 51.0279 34.6147 51.2536 34.6147V33.7291ZM51.1557 33.7066C51.1315 33.6904 51.1205 33.6785 51.1162 33.6731C51.1124 33.6683 51.112 33.6665 51.1117 33.6656L50.2086 33.9089C50.2757 34.1307 50.4241 34.3024 50.6097 34.4273L51.1557 33.7066ZM51.1135 33.6717L49.8399 29.2299L48.933 29.4611L50.2067 33.9028L51.1135 33.6717ZM49.3865 29.7883H49.5101V28.9027H49.3865V29.7883ZM49.0582 29.2247L47.7228 33.6665L48.6266 33.908L49.962 29.4663L49.0582 29.2247ZM47.723 33.6656C47.7228 33.6665 47.7223 33.6683 47.7186 33.6731C47.7142 33.6785 47.7033 33.6904 47.6791 33.7066L48.2251 34.4273C48.4106 34.3024 48.5591 34.1307 48.6262 33.9089L47.723 33.6656ZM47.6848 33.7029C47.6621 33.7177 47.6333 33.7291 47.5811 33.7291V34.6147C47.8092 34.6147 48.0277 34.5562 48.2195 34.4311L47.6848 33.7029ZM56.1256 33.8105L55.8954 34.1965C55.898 34.1978 55.9004 34.1992 55.903 34.2004L56.1256 33.8105ZM54.8768 32.668L54.469 32.8878C54.4705 32.8901 54.4719 32.8925 54.4734 32.895L54.8768 32.668ZM54.8521 29.3105L54.4415 29.0954C54.441 29.0962 54.4407 29.0969 54.4402 29.0975L54.8521 29.3105ZM56.0391 28.168L56.2729 28.5521C56.2745 28.5512 56.2762 28.5502 56.2778 28.5493L56.0391 28.168ZM59.4272 28.1563L59.1783 28.5318C59.18 28.5328 59.1818 28.5338 59.1834 28.5348L59.4272 28.1563ZM60.4783 29.2638L60.0541 29.454C60.0554 29.4566 60.0568 29.4593 60.0582 29.4619L60.4783 29.2638ZM60.6885 31.2575L61.0071 31.5828C61.0116 31.5788 61.0162 31.5747 61.0206 31.5705L60.6885 31.2575ZM55.2972 31.3973H54.8276C54.8276 31.6418 55.0379 31.8401 55.2972 31.8401V31.3973ZM55.2972 30.4646V30.0218C55.0379 30.0218 54.8276 30.2201 54.8276 30.4646H55.2972ZM60.2434 30.4646L60.5083 30.8304C60.6783 30.7208 60.7529 30.5195 60.6921 30.334C60.6313 30.1484 60.4493 30.0218 60.2434 30.0218V30.4646ZM59.7364 30.7911L59.2668 30.7999C59.2702 30.9625 59.3679 31.1102 59.5213 31.1847C59.6745 31.2592 59.8588 31.2485 60.0013 31.1567L59.7364 30.7911ZM59.4891 29.7536L59.0648 29.9435C59.0654 29.9448 59.0661 29.9462 59.0668 29.9474L59.4891 29.7536ZM56.5584 29.0424L56.314 28.6642C56.3124 28.6651 56.311 28.666 56.3095 28.6669L56.5584 29.0424ZM55.8041 29.8468L56.2263 30.041C56.2268 30.0399 56.2274 30.0387 56.228 30.0375L55.8041 29.8468ZM58.7348 33.0877L58.8874 33.5065C58.89 33.5056 58.8927 33.5047 58.8953 33.5038L58.7348 33.0877ZM59.3901 32.773L59.1124 32.4158C59.111 32.4168 59.1097 32.4177 59.1083 32.4187L59.3901 32.773ZM59.7858 32.6447V33.0875C59.7945 33.0875 59.8032 33.0873 59.8119 33.0868L59.7858 32.6447ZM60.1692 32.7612L60.4799 32.4292C60.4775 32.4272 60.475 32.4253 60.4726 32.4233L60.1692 32.7612ZM60.1938 33.5074L59.9086 33.1557C59.9063 33.1573 59.904 33.159 59.9018 33.1607L60.1938 33.5074ZM59.1428 34.0204L58.9943 33.6003C58.9935 33.6006 58.9925 33.6008 58.9916 33.6011L59.1428 34.0204ZM57.9557 33.7757C57.3395 33.7757 56.8076 33.6538 56.3484 33.4207L55.903 34.2004C56.5155 34.5113 57.2036 34.6613 57.9557 34.6613V33.7757ZM56.3559 33.4246C55.8985 33.182 55.5424 32.8554 55.2801 32.4411L54.4734 32.895C54.8212 33.4443 55.2977 33.8794 55.8954 34.1965L56.3559 33.4246ZM55.2846 32.4483C55.0329 32.0331 54.9013 31.5509 54.9013 30.9892H53.962C53.962 31.6866 54.1272 32.3236 54.469 32.8878L55.2846 32.4483ZM54.9013 30.9892C54.9013 30.4144 55.0272 29.9302 55.2639 29.5234L54.4402 29.0975C54.1164 29.6545 53.962 30.2895 53.962 30.9892H54.9013ZM55.2626 29.5255C55.5107 29.1045 55.8461 28.7829 56.2729 28.5521L55.8054 27.7839C55.2264 28.0971 54.7705 28.5372 54.4415 29.0954L55.2626 29.5255ZM56.2778 28.5493C56.7003 28.3143 57.1931 28.1911 57.7703 28.1911V27.3055C57.045 27.3055 56.3837 27.4621 55.8004 27.7867L56.2778 28.5493ZM57.7703 28.1911C58.3414 28.1911 58.8039 28.3112 59.1783 28.5318L59.6761 27.7808C59.1273 27.4574 58.4852 27.3055 57.7703 27.3055V28.1911ZM59.1834 28.5348C59.5642 28.7528 59.8531 29.0554 60.0541 29.454L60.9024 29.0737C60.6253 28.5242 60.2136 28.0884 59.671 27.7778L59.1834 28.5348ZM60.0582 29.4619C60.2676 29.8567 60.3796 30.3269 60.3796 30.8844H61.3189C61.3189 30.2137 61.1835 29.6037 60.8983 29.0659L60.0582 29.4619ZM60.3796 30.8844C60.3796 30.9189 60.3722 30.9293 60.3563 30.9443L61.0206 31.5705C61.2191 31.3834 61.3189 31.1451 61.3189 30.8844H60.3796ZM60.37 30.932C60.361 30.9398 60.3438 30.9545 60.2805 30.9545V31.8401C60.5468 31.8401 60.8017 31.7615 61.0071 31.5828L60.37 30.932ZM60.2805 30.9545H55.2972V31.8401H60.2805V30.9545ZM55.7669 31.3973V30.4646H54.8276V31.3973H55.7669ZM55.2972 30.9074H60.2434V30.0218H55.2972V30.9074ZM59.9785 30.0989L59.4715 30.4254L60.0013 31.1567L60.5083 30.8304L59.9785 30.0989ZM60.2059 30.7822C60.1965 30.3392 60.102 29.9286 59.9113 29.5596L59.0668 29.9474C59.1894 30.1846 59.2596 30.4657 59.2668 30.7999L60.2059 30.7822ZM59.9133 29.5635C59.7219 29.1838 59.4439 28.8749 59.0793 28.649L58.5633 29.3891C58.7759 29.5207 58.9428 29.7015 59.0648 29.9435L59.9133 29.5635ZM59.0793 28.649C58.7004 28.4142 58.2561 28.3081 57.7703 28.3081V29.1937C58.1088 29.1937 58.3653 29.2664 58.5633 29.3891L59.0793 28.649ZM57.7703 28.3081C57.2304 28.3081 56.7383 28.4202 56.314 28.6642L56.803 29.4205C57.0545 29.2758 57.3704 29.1937 57.7703 29.1937V28.3081ZM56.3095 28.6669C55.9014 28.9073 55.5905 29.2408 55.3802 29.656L56.228 30.0375C56.364 29.7688 56.5561 29.5659 56.8074 29.4179L56.3095 28.6669ZM55.3821 29.6525C55.1734 30.0556 55.0749 30.5046 55.0749 30.9892H56.0142C56.0142 30.619 56.0889 30.3063 56.2263 30.041L55.3821 29.6525ZM55.0749 30.9892C55.0749 31.4864 55.1956 31.9456 55.4477 32.3543L56.2597 31.9092C56.0996 31.6496 56.0142 31.347 56.0142 30.9892H55.0749ZM55.4477 32.3543C55.6962 32.7575 56.0412 33.0772 56.4748 33.3095L56.9389 32.5395C56.6471 32.3832 56.4233 32.1745 56.2597 31.9092L55.4477 32.3543ZM56.4748 33.3095C56.9168 33.5463 57.415 33.6588 57.9557 33.6588V32.7732C57.5567 32.7732 57.2223 32.6913 56.9389 32.5395L56.4748 33.3095ZM57.9557 33.6588C58.2678 33.6588 58.579 33.6065 58.8874 33.5065L58.5821 32.6689C58.3629 32.74 58.1549 32.7732 57.9557 32.7732V33.6588ZM58.8953 33.5038C59.1946 33.4012 59.4586 33.2781 59.6719 33.1272L59.1083 32.4187C58.992 32.501 58.819 32.5877 58.5743 32.6716L58.8953 33.5038ZM59.6679 33.13C59.719 33.0947 59.755 33.0875 59.7858 33.0875V32.2019C59.5363 32.2019 59.3086 32.2802 59.1124 32.4158L59.6679 33.13ZM59.8119 33.0868C59.8346 33.0856 59.8453 33.0885 59.8487 33.0895C59.8517 33.0904 59.8568 33.0921 59.8658 33.0993L60.4726 32.4233C60.2679 32.2601 60.0203 32.1889 59.7597 32.2026L59.8119 33.0868ZM59.8584 33.0933C59.8957 33.1243 59.9114 33.1464 59.9175 33.157C59.9227 33.1659 59.9227 33.1691 59.9228 33.1706L60.8606 33.1215C60.8437 32.8345 60.6886 32.6029 60.4799 32.4292L59.8584 33.0933ZM59.9228 33.1706C59.9227 33.1691 59.9226 33.164 59.9242 33.1567C59.9259 33.1494 59.9285 33.1429 59.931 33.1382C59.9363 33.1287 59.9357 33.1361 59.9086 33.1557L60.4792 33.8592C60.7163 33.6883 60.8792 33.4366 60.8606 33.1215L59.9228 33.1706ZM59.9018 33.1607C59.6733 33.3317 59.3746 33.4808 58.9943 33.6003L59.2913 34.4405C59.7519 34.2957 60.1539 34.1028 60.486 33.8542L59.9018 33.1607ZM58.9916 33.6011C58.621 33.7199 58.2765 33.7757 57.9557 33.7757V34.6613C58.3933 34.6613 58.8402 34.5851 59.294 34.4396L58.9916 33.6011ZM63.1009 33.9504L62.7902 34.2824C62.8882 34.364 63.018 34.4034 63.1481 34.391C63.2782 34.3786 63.3969 34.3156 63.4757 34.2172L63.1009 33.9504ZM62.26 33.251L61.8856 32.9836C61.7373 33.1683 61.765 33.4297 61.9494 33.583L62.26 33.251ZM66.4642 28.0164L66.7776 27.6866C66.6798 27.604 66.5498 27.5637 66.4191 27.5757C66.2885 27.5875 66.169 27.6504 66.0899 27.7492L66.4642 28.0164ZM67.2927 28.7159L67.6676 28.9827C67.8148 28.799 67.788 28.5396 67.6061 28.386L67.2927 28.7159ZM63.4117 33.6184L62.5708 32.9189L61.9494 33.583L62.7902 34.2824L63.4117 33.6184ZM62.6345 33.5182L66.8387 28.2838L66.0899 27.7492L61.8856 32.9836L62.6345 33.5182ZM66.1509 28.3463L66.9794 29.0458L67.6061 28.386L66.7776 27.6866L66.1509 28.3463ZM66.9179 28.4491L62.7261 33.6836L63.4757 34.2172L67.6676 28.9827L66.9179 28.4491ZM62.7299 33.7291C62.6087 33.7291 62.6038 33.7008 62.6261 33.7218C62.6485 33.7428 62.6184 33.7384 62.6184 33.6239H61.6791C61.6791 33.8749 61.746 34.1444 61.9619 34.348C62.178 34.5517 62.4638 34.6147 62.7299 34.6147V33.7291ZM62.6184 33.6239C62.6184 33.5096 62.6485 33.5052 62.6261 33.5262C62.6038 33.5471 62.6087 33.5189 62.7299 33.5189V32.6333C62.4638 32.6333 62.178 32.6963 61.9619 32.8999C61.746 33.1035 61.6791 33.3731 61.6791 33.6239H62.6184ZM62.7299 33.5189H66.9466V32.6333H62.7299V33.5189ZM66.9466 33.5189C67.0679 33.5189 67.0725 33.5471 67.0502 33.5262C67.028 33.5052 67.058 33.5096 67.058 33.6239H67.9973C67.9973 33.3731 67.9305 33.1035 67.7145 32.8999C67.4986 32.6963 67.2126 32.6333 66.9466 32.6333V33.5189ZM67.058 33.6239C67.058 33.7384 67.028 33.7428 67.0502 33.7218C67.0725 33.7008 67.0679 33.7291 66.9466 33.7291V34.6147C67.2126 34.6147 67.4986 34.5517 67.7145 34.348C67.9305 34.1444 67.9973 33.8749 67.9973 33.6239H67.058ZM66.9466 33.7291H62.7299V34.6147H66.9466V33.7291ZM62.6063 28.448C62.4849 28.448 62.4802 28.4197 62.5025 28.4407C62.5248 28.4618 62.4948 28.4572 62.4948 28.3429H61.5554C61.5554 28.5937 61.6223 28.8633 61.8383 29.067C62.0543 29.2706 62.3401 29.3337 62.6063 29.3337V28.448ZM62.4948 28.3429C62.4948 28.2285 62.5248 28.224 62.5025 28.245C62.4802 28.266 62.4849 28.2377 62.6063 28.2377V27.3521C62.3401 27.3521 62.0543 27.4152 61.8383 27.6188C61.6223 27.8225 61.5554 28.092 61.5554 28.3429H62.4948ZM62.6063 28.2377H66.8228V27.3521H62.6063V28.2377ZM66.8228 28.2377C66.9442 28.2377 66.9489 28.266 66.9266 28.245C66.9043 28.224 66.9343 28.2285 66.9343 28.3429H67.8737C67.8737 28.092 67.8069 27.8225 67.5908 27.6188C67.3748 27.4152 67.089 27.3521 66.8228 27.3521V28.2377ZM66.9343 28.3429C66.9343 28.4572 66.9043 28.4618 66.9266 28.4407C66.9489 28.4197 66.9442 28.448 66.8228 28.448V29.3337C67.089 29.3337 67.3748 29.2706 67.5908 29.067C67.8069 28.8633 67.8737 28.5937 67.8737 28.3429H66.9343ZM66.8228 28.448H62.6063V29.3337H66.8228V28.448ZM70.8049 33.7989L70.5643 34.1791C70.5659 34.18 70.5675 34.1809 70.5692 34.1818L70.8049 33.7989ZM69.1357 30.9776H68.666C68.666 30.9795 68.666 30.9814 68.666 30.9832L69.1357 30.9776ZM69.3088 25.2301L68.9884 24.9064C68.9844 24.9099 68.9805 24.9134 68.9766 24.9171L69.3088 25.2301ZM70.3969 28.8092H69.9272C69.9272 28.9956 70.0511 29.1621 70.237 29.2255C70.423 29.289 70.6312 29.2359 70.7577 29.0927L70.3969 28.8092ZM71.4356 28.0398L71.6422 28.4374C71.6433 28.4369 71.6445 28.4364 71.6457 28.4359L71.4356 28.0398ZM74.4033 28.1797L74.1507 28.553C74.1523 28.554 74.1539 28.555 74.1556 28.5559L74.4033 28.1797ZM75.5286 29.3338L75.1126 29.5392C75.1138 29.5418 75.1153 29.5442 75.1168 29.5468L75.5286 29.3338ZM75.4915 32.633L75.0865 32.4088C75.0855 32.4103 75.0846 32.4119 75.0837 32.4134L75.4915 32.633ZM74.2797 33.7989L74.5155 34.1818C74.5171 34.1809 74.5188 34.18 74.5203 34.1791L74.2797 33.7989ZM73.6614 32.8895L73.903 33.2693C73.9055 33.2678 73.9078 33.2665 73.9103 33.265L73.6614 32.8895ZM74.4404 32.0968L74.0303 31.8809C74.0289 31.8833 74.0276 31.8856 74.0262 31.8879L74.4404 32.0968ZM74.4404 29.8584L74.0284 30.0712C74.0298 30.0735 74.0312 30.0758 74.0326 30.0781L74.4404 29.8584ZM73.6614 29.089L73.4124 29.4645C73.4149 29.4659 73.4173 29.4673 73.4197 29.4687L73.6614 29.089ZM71.4109 29.089L71.6526 29.4687C71.6535 29.4682 71.6545 29.4676 71.6554 29.4671L71.4109 29.089ZM71.4109 32.8895L71.162 33.265C71.1658 33.2673 71.1696 33.2695 71.1736 33.2717L71.4109 32.8895ZM72.5362 33.7757C71.9684 33.7757 71.4741 33.6531 71.0408 33.4159L70.5692 34.1818C71.1581 34.5042 71.8178 34.6613 72.5362 34.6613V33.7757ZM71.0456 33.4186C70.6044 33.1703 70.2579 32.8372 70.001 32.4134L69.1854 32.8528C69.522 33.4082 69.9834 33.8523 70.5643 34.1791L71.0456 33.4186ZM70.001 32.4134C69.7472 31.9947 69.6127 31.5177 69.6053 30.9719L68.666 30.9832C68.6752 31.6655 68.8456 32.2922 69.1854 32.8528L70.001 32.4134ZM69.6054 30.9776V25.6615H68.666V30.9776H69.6054ZM69.6054 25.6615C69.6054 25.5796 69.6278 25.5556 69.6409 25.5433L68.9766 24.9171C68.7589 25.1224 68.666 25.3859 68.666 25.6615H69.6054ZM69.6292 25.5538C69.6593 25.5275 69.6945 25.5098 69.7663 25.5098V24.6241C69.4754 24.6241 69.2056 24.7153 68.9884 24.9064L69.6292 25.5538ZM69.7663 25.5098C69.8531 25.5098 69.8786 25.531 69.8917 25.5433L70.5559 24.9171C70.3382 24.7117 70.0587 24.6241 69.7663 24.6241V25.5098ZM69.8917 25.5433C69.9047 25.5556 69.9272 25.5796 69.9272 25.6615H70.8666C70.8666 25.3859 70.7737 25.1224 70.5559 24.9171L69.8917 25.5433ZM69.9272 25.6615V28.8092H70.8666V25.6615H69.9272ZM70.7577 29.0927C71.0041 28.814 71.2977 28.5965 71.6422 28.4374L71.2291 27.6421C70.7656 27.8561 70.3668 28.1515 70.0361 28.5258L70.7577 29.0927ZM71.6457 28.4359C71.989 28.274 72.3658 28.1911 72.7834 28.1911V27.3055C72.2283 27.3055 71.7066 27.417 71.2255 27.6437L71.6457 28.4359ZM72.7834 28.1911C73.3015 28.1911 73.7527 28.3136 74.1507 28.553L74.6559 27.8063C74.0976 27.4705 73.469 27.3055 72.7834 27.3055V28.1911ZM74.1556 28.5559C74.5594 28.7922 74.8777 29.1167 75.1126 29.5392L75.9446 29.1283C75.6353 28.5717 75.2034 28.1268 74.651 27.8034L74.1556 28.5559ZM75.1168 29.5468C75.3548 29.9559 75.4792 30.4292 75.4792 30.9776H76.4186C76.4186 30.2981 76.2629 29.6754 75.9403 29.1209L75.1168 29.5468ZM75.4792 30.9776C75.4792 31.5194 75.3457 31.9926 75.0865 32.4088L75.8964 32.8573C76.2473 32.2942 76.4186 31.6638 76.4186 30.9776H75.4792ZM75.0837 32.4134C74.8268 32.8372 74.4803 33.1703 74.039 33.4186L74.5203 34.1791C75.1013 33.8523 75.5626 33.4082 75.8993 32.8528L75.0837 32.4134ZM74.0438 33.4159C73.6115 33.6526 73.1131 33.7757 72.5362 33.7757V34.6613C73.2616 34.6613 73.9256 34.5047 74.5155 34.1818L74.0438 33.4159ZM72.5362 33.6121C73.0334 33.6121 73.4936 33.5008 73.903 33.2693L73.4197 32.5098C73.1697 32.6513 72.8796 32.7265 72.5362 32.7265V33.6121ZM73.9103 33.265C74.312 33.0284 74.6276 32.7057 74.8546 32.3056L74.0262 31.8879C73.874 32.1564 73.6702 32.3622 73.4124 32.514L73.9103 33.265ZM74.8505 32.3126C75.0904 31.9074 75.2068 31.4591 75.2068 30.9776H74.2675C74.2675 31.3199 74.1861 31.6178 74.0303 31.8809L74.8505 32.3126ZM75.2068 30.9776C75.2068 30.4901 75.0912 30.0396 74.8482 29.6388L74.0326 30.0781C74.1853 30.3301 74.2675 30.6258 74.2675 30.9776H75.2068ZM74.8524 29.6457C74.6239 29.2523 74.3062 28.9373 73.903 28.7093L73.4197 29.4687C73.6761 29.6136 73.8778 29.8117 74.0284 30.0712L74.8524 29.6457ZM73.9103 28.7135C73.4998 28.4716 73.0372 28.3547 72.5362 28.3547V29.2403C72.876 29.2403 73.1634 29.3177 73.4124 29.4645L73.9103 28.7135ZM72.5362 28.3547C72.0415 28.3547 71.5811 28.4725 71.1664 28.711L71.6554 29.4671C71.9167 29.3169 72.2064 29.2403 72.5362 29.2403V28.3547ZM71.1693 28.7093C70.7661 28.9373 70.4485 29.2523 70.22 29.6457L71.0438 30.0712C71.1945 29.8117 71.3963 29.6136 71.6526 29.4687L71.1693 28.7093ZM70.22 29.6457C69.9878 30.0454 69.8778 30.4932 69.8778 30.9776H70.8172C70.8172 30.6226 70.8968 30.3243 71.0438 30.0712L70.22 29.6457ZM69.8778 30.9776C69.8778 31.4559 69.9885 31.9017 70.2177 32.3056L71.046 31.8879C70.8959 31.6234 70.8172 31.3231 70.8172 30.9776H69.8778ZM70.2177 32.3056C70.4447 32.7057 70.7602 33.0284 71.162 33.265L71.6599 32.514C71.402 32.3622 71.1983 32.1564 71.046 31.8879L70.2177 32.3056ZM71.1736 33.2717C71.5874 33.5001 72.0451 33.6121 72.5362 33.6121V32.7265C72.2028 32.7265 71.9103 32.6521 71.6481 32.5074L71.1736 33.2717ZM79.1284 33.8105L78.8926 34.1935C78.8942 34.1944 78.8959 34.1953 78.8975 34.1962L79.1284 33.8105ZM77.9166 32.668L77.506 32.8831C77.5074 32.8856 77.5089 32.888 77.5105 32.8904L77.9166 32.668ZM77.9166 29.3105L77.5088 29.0908C77.5084 29.0914 77.508 29.0921 77.5077 29.0928L77.9166 29.3105ZM79.1284 28.168L79.3593 28.5536C79.361 28.5528 79.3626 28.5519 79.3643 28.551L79.1284 28.168ZM82.6526 28.168L82.4167 28.551C82.4183 28.5519 82.42 28.5528 82.4216 28.5536L82.6526 28.168ZM83.852 29.3105L83.4414 29.5255C83.4428 29.5279 83.4443 29.5304 83.4457 29.5328L83.852 29.3105ZM83.8643 32.668L84.2733 32.8857C84.2739 32.8848 84.2744 32.884 84.2749 32.8831L83.8643 32.668ZM82.6649 33.8105L82.8958 34.1962C82.8974 34.1953 82.899 34.1944 82.9007 34.1935L82.6649 33.8105ZM82.8009 32.12L82.389 31.9074C82.3876 31.9098 82.3862 31.9123 82.3849 31.9146L82.8009 32.12ZM82.8009 29.8584L82.3828 30.0601C82.3847 30.0639 82.3869 30.0675 82.389 30.0712L82.8009 29.8584ZM78.98 29.8584L79.392 30.0712C79.3927 30.0698 79.3934 30.0685 79.3942 30.0673L78.98 29.8584ZM80.8967 33.7757C80.2985 33.7757 79.7907 33.6545 79.3593 33.4249L78.8975 34.1962C79.4883 34.5106 80.1593 34.6613 80.8967 34.6613V33.7757ZM79.3643 33.4276C78.9237 33.1864 78.5785 32.861 78.3228 32.4456L77.5105 32.8904C77.8482 33.4388 78.3108 33.875 78.8926 34.1935L79.3643 33.4276ZM78.3271 32.4529C78.0821 32.0369 77.9535 31.553 77.9535 30.9892H77.0141C77.0141 31.6845 77.1742 32.3199 77.506 32.8831L78.3271 32.4529ZM77.9535 30.9892C77.9535 30.4166 78.0825 29.9341 78.3256 29.5282L77.5077 29.0928C77.1736 29.6506 77.0141 30.2874 77.0141 30.9892H77.9535ZM78.3244 29.5302C78.58 29.1085 78.9234 28.7856 79.3593 28.5536L78.8975 27.7824C78.3111 28.0945 77.8468 28.5332 77.5088 29.0908L78.3244 29.5302ZM79.3643 28.551C79.7947 28.3152 80.3008 28.1911 80.8967 28.1911V27.3055C80.1571 27.3055 79.4843 27.4611 78.8926 27.785L79.3643 28.551ZM80.8967 28.1911C81.4831 28.1911 81.9853 28.3148 82.4167 28.551L82.8884 27.785C82.2976 27.4617 81.6292 27.3055 80.8967 27.3055V28.1911ZM82.4216 28.5536C82.8563 28.785 83.1943 29.1064 83.4414 29.5255L84.2625 29.0954C83.9324 28.5354 83.4709 28.0951 82.8834 27.7824L82.4216 28.5536ZM83.4457 29.5328C83.6953 29.938 83.8275 30.4187 83.8275 30.9892H84.7668C84.7668 30.2853 84.6022 29.6467 84.2582 29.0881L83.4457 29.5328ZM83.8275 30.9892C83.8275 31.553 83.6989 32.0369 83.4537 32.4529L84.2749 32.8831C84.6068 32.3199 84.7668 31.6845 84.7668 30.9892H83.8275ZM83.4554 32.4504C83.2082 32.8631 82.8684 33.1871 82.429 33.4276L82.9007 34.1935C83.4836 33.8744 83.9434 33.4367 84.2733 32.8857L83.4554 32.4504ZM82.4339 33.4249C82.0026 33.6545 81.4948 33.7757 80.8967 33.7757V34.6613C81.634 34.6613 82.305 34.5106 82.8958 34.1962L82.4339 33.4249ZM80.8967 33.6121C81.4004 33.6121 81.8651 33.5016 82.2759 33.2693L81.7926 32.5098C81.544 32.6504 81.2502 32.7265 80.8967 32.7265V33.6121ZM82.2759 33.2693C82.6809 33.0401 82.9963 32.7228 83.217 32.3255L82.3849 31.9146C82.2429 32.1702 82.0471 32.3659 81.7926 32.5098L82.2759 33.2693ZM83.2129 32.3328C83.4456 31.9321 83.5549 31.48 83.5549 30.9892H82.6156C82.6156 31.3535 82.5354 31.6553 82.389 31.9074L83.2129 32.3328ZM83.5549 30.9892C83.5549 30.4986 83.4456 30.0465 83.2129 29.6457L82.389 30.0712C82.5354 30.3232 82.6156 30.625 82.6156 30.9892H83.5549ZM83.219 29.6567C82.9992 29.2515 82.6837 28.9284 82.2759 28.6977L81.7926 29.4571C82.0442 29.5993 82.24 29.7969 82.3828 30.0601L83.219 29.6567ZM82.2759 28.6977C81.8651 28.4652 81.4004 28.3547 80.8967 28.3547V29.2403C81.2502 29.2403 81.544 29.3164 81.7926 29.4571L82.2759 28.6977ZM80.8967 28.3547C80.3929 28.3547 79.9282 28.4652 79.5174 28.6977L80.0007 29.4571C80.2493 29.3164 80.543 29.2403 80.8967 29.2403V28.3547ZM79.5174 28.6977C79.1115 28.9273 78.7936 29.2481 78.5658 29.6496L79.3942 30.0673C79.5456 29.8004 79.7472 29.6005 80.0007 29.4571L79.5174 28.6977ZM78.5681 29.6457C78.3353 30.0465 78.2259 30.4986 78.2259 30.9892H79.1653C79.1653 30.625 79.2456 30.3232 79.392 30.0712L78.5681 29.6457ZM78.2259 30.9892C78.2259 31.48 78.3353 31.9321 78.5681 32.3328L79.392 31.9074C79.2456 31.6553 79.1653 31.3535 79.1653 30.9892H78.2259ZM78.5681 32.3328C78.7966 32.7263 79.1142 33.0412 79.5174 33.2693L80.0007 32.5098C79.7444 32.3648 79.5426 32.1668 79.392 31.9074L78.5681 32.3328ZM79.5174 33.2693C79.9282 33.5016 80.3929 33.6121 80.8967 33.6121V32.7265C80.543 32.7265 80.2493 32.6504 80.0007 32.5098L79.5174 33.2693Z" fill="white"/>
<path d="M30.7133 21.3803C29.5772 22.2936 30.2209 18.0402 35.4384 17.9467C40.6559 17.8533 41.5275 23.7628 41.5431 26.2995C41.564 30.4561 40.4663 40.283 31.5988 40.0337C29.2345 39.9665 26.3239 38.9449 25.7916 32.9976C25.7916 32.9855 25.7916 32.985 25.7916 32.9632C25.7916 32.6353 25.8263 27.3013 24.6589 28.1785C23.4516 29.0836 22.6896 34.4734 22.1468 36.5968C21.7049 38.3186 19.7338 43.6723 14.6886 37.502C14.6886 37.502 14.0483 37.1297 15.6733 39.2417C17.2982 41.3537 22.8062 44.9808 29.4571 43.8576C36.1082 42.7343 39.5006 38.0119 39.5006 38.0119C39.5006 38.0119 40.1583 37.0921 40.8438 35.8917C40.8872 35.818 40.9582 35.7622 41.0428 35.7351C41.1276 35.708 41.2199 35.7115 41.302 35.7451C41.384 35.7786 41.4499 35.8398 41.4868 35.9166C41.5236 35.9935 41.5288 36.0805 41.5014 36.1606C41.491 36.188 41.4793 36.2172 41.4701 36.2492C40.0813 41.1175 34.3563 44.4151 34.3563 44.4151C34.3563 44.4151 26.9711 48.8226 18.9213 45.1808C10.8715 41.539 9.76511 34.3456 9.76511 34.3456C9.76511 34.3456 8.43593 27.9654 11.3639 23.5807C14.2919 19.1961 15.3027 22.8872 15.4314 23.8399C15.7498 26.2995 15.5793 32.6091 16.8353 33.6781C18.0341 34.698 18.1106 32.7927 18.1142 32.6238C18.1142 32.6139 18.1142 32.6074 18.1142 32.5976C18.1594 32.1909 19.2885 22.5444 24.5616 17.3481C25.3792 16.5415 26.6788 15.5445 27.867 20.5506C29.0553 25.5566 29.064 27.4505 29.5407 29.733C29.7773 30.8644 31.3135 35.5786 34.0222 31.5892C35.9087 28.8109 35.8629 26.3978 35.7516 25.2697C35.7483 25.2569 35.7442 25.2442 35.7394 25.232C35.7394 24.7357 34.0674 18.6813 30.7133 21.3803Z" fill="url(#paint0_radial_40_225)"/>
<path d="M64.1434 38.9466C63.9826 38.9466 63.8391 38.9121 63.7129 38.843C63.5888 38.7721 63.4901 38.6761 63.4168 38.5552C63.3456 38.4343 63.3099 38.298 63.3099 38.1465C63.3099 37.9929 63.3446 37.8558 63.4137 37.7349C63.483 37.614 63.5776 37.519 63.6976 37.4499C63.8178 37.379 63.9562 37.3435 64.1128 37.3435C64.2371 37.3435 64.351 37.3665 64.4548 37.4125C64.5607 37.4586 64.6532 37.5277 64.7326 37.6198C64.755 37.6428 64.7631 37.6677 64.757 37.6946C64.7509 37.7195 64.7336 37.7416 64.7051 37.7608C64.6828 37.7762 64.6573 37.7819 64.6288 37.7781C64.6024 37.7723 64.579 37.7579 64.5586 37.7349C64.4406 37.6082 64.292 37.5449 64.1128 37.5449C63.9989 37.5449 63.8982 37.5708 63.8106 37.6226C63.7251 37.6745 63.658 37.7454 63.6091 37.8356C63.5624 37.9259 63.5389 38.0295 63.5389 38.1465C63.5389 38.2616 63.5644 38.3642 63.6152 38.4545C63.6662 38.5447 63.7373 38.6156 63.8289 38.6675C63.9205 38.7193 64.0254 38.7452 64.1434 38.7452C64.2227 38.7452 64.2951 38.7355 64.3601 38.7164C64.4273 38.6952 64.4863 38.6636 64.5372 38.6214C64.5616 38.6022 64.5871 38.5916 64.6135 38.5897C64.6401 38.5879 64.6645 38.5955 64.6868 38.6128C64.7112 38.6339 64.7245 38.6578 64.7265 38.6847C64.7306 38.7116 64.7214 38.7347 64.699 38.7538C64.5505 38.8823 64.3653 38.9466 64.1434 38.9466ZM65.5133 38.9323C65.4319 38.9323 65.3586 38.9111 65.2935 38.8689C65.2304 38.8268 65.1805 38.7682 65.1439 38.6934C65.1094 38.6185 65.092 38.5322 65.092 38.4343V36.7937C65.092 36.761 65.1022 36.7351 65.1225 36.716C65.1449 36.6948 65.1735 36.6843 65.208 36.6843C65.2426 36.6843 65.2701 36.6948 65.2904 36.716C65.3129 36.7351 65.324 36.761 65.324 36.7937V38.4343C65.324 38.5168 65.3414 38.584 65.3759 38.6358C65.4125 38.6876 65.4583 38.7135 65.5133 38.7135H65.5896C65.6201 38.7135 65.6446 38.724 65.6629 38.7452C65.6812 38.7643 65.6904 38.7902 65.6904 38.8229C65.6904 38.8555 65.6772 38.8823 65.6507 38.9035C65.6263 38.9226 65.5937 38.9323 65.553 38.9323H65.5133ZM66.1215 38.9323C66.0849 38.9323 66.0554 38.9226 66.033 38.9035C66.0127 38.8823 66.0025 38.8545 66.0025 38.82V37.4701C66.0025 37.4356 66.0127 37.4087 66.033 37.3895C66.0554 37.3684 66.0849 37.3578 66.1215 37.3578C66.1562 37.3578 66.1836 37.3684 66.2039 37.3895C66.2264 37.4087 66.2375 37.4356 66.2375 37.4701V38.82C66.2375 38.8545 66.2264 38.8823 66.2039 38.9035C66.1836 38.9226 66.1562 38.9323 66.1215 38.9323ZM66.1185 37.0585C66.0737 37.0585 66.035 37.0431 66.0025 37.0124C65.9699 36.9818 65.9536 36.9444 65.9536 36.9002C65.9536 36.8523 65.9699 36.8148 66.0025 36.7879C66.0371 36.7592 66.0768 36.7448 66.1215 36.7448C66.1643 36.7448 66.202 36.7592 66.2345 36.7879C66.2691 36.8148 66.2864 36.8523 66.2864 36.9002C66.2864 36.9444 66.2701 36.9818 66.2375 37.0124C66.205 37.0431 66.1653 37.0585 66.1185 37.0585ZM67.52 38.9466C67.3591 38.9466 67.2156 38.9121 67.0895 38.843C66.9653 38.7721 66.8667 38.6761 66.7934 38.5552C66.7221 38.4343 66.6865 38.298 66.6865 38.1465C66.6865 37.9929 66.7211 37.8558 66.7903 37.7349C66.8595 37.614 66.9541 37.519 67.0743 37.4499C67.1943 37.379 67.3327 37.3435 67.4894 37.3435C67.6136 37.3435 67.7276 37.3665 67.8314 37.4125C67.9372 37.4586 68.0298 37.5277 68.1092 37.6198C68.1315 37.6428 68.1397 37.6677 68.1336 37.6946C68.1275 37.7195 68.1101 37.7416 68.0817 37.7608C68.0593 37.7762 68.0338 37.7819 68.0054 37.7781C67.9788 37.7723 67.9555 37.7579 67.9352 37.7349C67.817 37.6082 67.6685 37.5449 67.4894 37.5449C67.3754 37.5449 67.2747 37.5708 67.1872 37.6226C67.1017 37.6745 67.0346 37.7454 66.9857 37.8356C66.9389 37.9259 66.9155 38.0295 66.9155 38.1465C66.9155 38.2616 66.9409 38.3642 66.9918 38.4545C67.0427 38.5447 67.1139 38.6156 67.2055 38.6675C67.2971 38.7193 67.4019 38.7452 67.52 38.7452C67.5993 38.7452 67.6716 38.7355 67.7367 38.7164C67.8039 38.6952 67.8628 38.6636 67.9138 38.6214C67.9382 38.6022 67.9636 38.5916 67.9901 38.5897C68.0165 38.5879 68.041 38.5955 68.0634 38.6128C68.0878 38.6339 68.101 38.6578 68.1031 38.6847C68.1071 38.7116 68.0979 38.7347 68.0756 38.7538C67.9269 38.8823 67.7418 38.9466 67.52 38.9466ZM68.722 38.4055L68.5785 38.2587L69.6226 37.3694C69.647 37.3482 69.6724 37.3387 69.6989 37.3406C69.7253 37.3406 69.7497 37.3521 69.7722 37.3751C69.7945 37.3981 69.8047 37.423 69.8027 37.4499C69.8027 37.4749 69.7905 37.497 69.7661 37.5161L68.722 38.4055ZM68.6457 38.9323C68.611 38.9323 68.5825 38.9226 68.5602 38.9035C68.5398 38.8823 68.5297 38.8555 68.5297 38.8229V36.7937C68.5297 36.761 68.5398 36.7351 68.5602 36.716C68.5825 36.6948 68.611 36.6843 68.6457 36.6843C68.6802 36.6843 68.7077 36.6948 68.7281 36.716C68.7504 36.7351 68.7617 36.761 68.7617 36.7937V38.8229C68.7617 38.8555 68.7504 38.8823 68.7281 38.9035C68.7077 38.9226 68.6802 38.9323 68.6457 38.9323ZM69.7752 38.9179C69.7487 38.939 69.7212 38.9476 69.6928 38.9438C69.6643 38.9419 69.6398 38.9284 69.6195 38.9035L68.9387 38.1148L69.1036 37.9767L69.7905 38.774C69.8108 38.797 69.82 38.8219 69.818 38.8488C69.8159 38.8737 69.8016 38.8967 69.7752 38.9179ZM71.7023 38.9323C71.5944 38.9323 71.4978 38.9082 71.4123 38.8603C71.3288 38.8124 71.2627 38.747 71.2138 38.6646C71.165 38.5801 71.1406 38.4842 71.1406 38.3767V36.9693C71.1406 36.9366 71.1507 36.9098 71.1711 36.8887C71.1934 36.8675 71.2219 36.857 71.2566 36.857C71.2911 36.857 71.3196 36.8675 71.3421 36.8887C71.3644 36.9098 71.3756 36.9366 71.3756 36.9693V38.3767C71.3756 38.4746 71.4062 38.5552 71.4672 38.6185C71.5283 38.68 71.6066 38.7106 71.7023 38.7106H71.7847C71.8173 38.7106 71.8437 38.7211 71.8641 38.7423C71.8844 38.7634 71.8946 38.7902 71.8946 38.8229C71.8946 38.8555 71.8824 38.8823 71.858 38.9035C71.8336 38.9226 71.803 38.9323 71.7664 38.9323H71.7023ZM70.9421 37.6083C70.9116 37.6083 70.8861 37.5996 70.8658 37.5823C70.8454 37.5632 70.8353 37.5402 70.8353 37.5133C70.8353 37.4845 70.8454 37.4615 70.8658 37.4442C70.8861 37.425 70.9116 37.4154 70.9421 37.4154H71.7206C71.7511 37.4154 71.7765 37.425 71.7969 37.4442C71.8173 37.4615 71.8275 37.4845 71.8275 37.5133C71.8275 37.5402 71.8173 37.5632 71.7969 37.5823C71.7765 37.5996 71.7511 37.6083 71.7206 37.6083H70.9421ZM72.3353 38.2904C72.2987 38.2904 72.2691 38.2799 72.2468 38.2587C72.2263 38.2376 72.2162 38.2108 72.2162 38.1781V36.7966C72.2162 36.762 72.2263 36.7351 72.2468 36.716C72.2691 36.6948 72.2987 36.6843 72.3353 36.6843C72.3698 36.6843 72.3973 36.6948 72.4177 36.716C72.44 36.7351 72.4513 36.762 72.4513 36.7966V38.1781C72.4513 38.2108 72.44 38.2376 72.4177 38.2587C72.3973 38.2799 72.3698 38.2904 72.3353 38.2904ZM73.648 38.9323C73.6134 38.9323 73.5849 38.9217 73.5626 38.9006C73.5401 38.8794 73.529 38.8535 73.529 38.8229V38.0745C73.529 37.9555 73.5046 37.8577 73.4557 37.7809C73.4089 37.7042 73.3437 37.6467 73.2603 37.6083C73.1788 37.5698 73.0863 37.5507 72.9825 37.5507C72.8827 37.5507 72.7922 37.569 72.7108 37.6054C72.6314 37.6418 72.5683 37.6917 72.5215 37.755C72.4747 37.8184 72.4513 37.8903 72.4513 37.9709H72.2834C72.2874 37.85 72.322 37.7425 72.3872 37.6485C72.4523 37.5526 72.5388 37.4777 72.6467 37.424C72.7545 37.3684 72.8746 37.3406 73.0069 37.3406C73.1514 37.3406 73.2806 37.3694 73.3947 37.4269C73.5086 37.4826 73.5981 37.5651 73.6633 37.6745C73.7305 37.7838 73.7641 37.9172 73.7641 38.0745V38.8229C73.7641 38.8535 73.7528 38.8794 73.7305 38.9006C73.708 38.9217 73.6806 38.9323 73.648 38.9323ZM72.3353 38.9323C72.2987 38.9323 72.2691 38.9226 72.2468 38.9035C72.2263 38.8823 72.2162 38.8555 72.2162 38.8229V37.4701C72.2162 37.4356 72.2263 37.4087 72.2468 37.3895C72.2691 37.3684 72.2987 37.3578 72.3353 37.3578C72.3698 37.3578 72.3973 37.3684 72.4177 37.3895C72.44 37.4087 72.4513 37.4356 72.4513 37.4701V38.8229C72.4513 38.8555 72.44 38.8823 72.4177 38.9035C72.3973 38.9226 72.3698 38.9323 72.3353 38.9323ZM74.9783 38.9466C74.8134 38.9466 74.6669 38.9131 74.5387 38.8459C74.4126 38.7768 74.3128 38.6818 74.2395 38.561C74.1683 38.4401 74.1326 38.3019 74.1326 38.1465C74.1326 37.9892 74.1662 37.851 74.2334 37.732C74.3027 37.6111 74.3973 37.5161 74.5173 37.4471C74.6374 37.378 74.7758 37.3435 74.9325 37.3435C75.0872 37.3435 75.2216 37.377 75.3355 37.4442C75.4515 37.5094 75.5411 37.6006 75.6041 37.7176C75.6673 37.8346 75.6988 37.968 75.6988 38.1177C75.6988 38.1484 75.6887 38.1734 75.6682 38.1925C75.6479 38.2098 75.6215 38.2184 75.5889 38.2184H74.2914V38.0342H75.6133L75.482 38.1235C75.4841 38.0122 75.4627 37.9124 75.4179 37.8241C75.3732 37.7359 75.309 37.6668 75.2256 37.6169C75.1442 37.567 75.0465 37.542 74.9325 37.542C74.8165 37.542 74.7148 37.568 74.6272 37.6198C74.5397 37.6716 74.4715 37.7435 74.4227 37.8356C74.3759 37.9259 74.3524 38.0295 74.3524 38.1465C74.3524 38.2635 74.379 38.3671 74.4318 38.4573C74.4868 38.5476 74.5611 38.6185 74.6547 38.6703C74.7484 38.7221 74.8562 38.748 74.9783 38.748C75.0515 38.748 75.1248 38.7365 75.1981 38.7135C75.2735 38.6886 75.3335 38.6578 75.3782 38.6214C75.4006 38.6041 75.4261 38.5955 75.4545 38.5955C75.4831 38.5936 75.5075 38.6003 75.5278 38.6156C75.5543 38.6387 75.5675 38.6636 75.5675 38.6905C75.5696 38.7174 75.5583 38.7404 75.5339 38.7596C75.4667 38.8132 75.3813 38.8584 75.2775 38.8948C75.1737 38.9294 75.074 38.9466 74.9783 38.9466ZM77.2473 38.9323C77.2209 38.9323 77.1975 38.9255 77.1771 38.9121C77.1567 38.8987 77.1425 38.8814 77.1343 38.8603L76.6581 37.5133C76.6459 37.4653 76.6469 37.4279 76.6611 37.401C76.6754 37.3722 76.7039 37.3578 76.7466 37.3578C76.7731 37.3578 76.7965 37.3646 76.8168 37.378C76.8373 37.3914 76.8525 37.4125 76.8626 37.4413L77.287 38.6646H77.2198L77.6136 37.4442C77.6218 37.4193 77.635 37.3991 77.6533 37.3837C77.6737 37.3665 77.6991 37.3578 77.7296 37.3578C77.7602 37.3578 77.7846 37.3655 77.8029 37.3809C77.8233 37.3963 77.8375 37.4173 77.8456 37.4442L78.2211 38.6358H78.1692L78.5844 37.4413C78.6049 37.3856 78.6424 37.3578 78.6974 37.3578C78.7422 37.3578 78.7728 37.3741 78.789 37.4068C78.8053 37.4374 78.8053 37.473 78.789 37.5133L78.3127 38.8603C78.3046 38.8814 78.2904 38.8987 78.27 38.9121C78.2517 38.9255 78.2294 38.9323 78.2028 38.9323C78.1764 38.9323 78.152 38.9255 78.1296 38.9121C78.1092 38.8987 78.096 38.8814 78.0899 38.8603L77.7052 37.6572H77.7418L77.3572 38.8603C77.3491 38.8833 77.3349 38.9016 77.3144 38.915C77.2941 38.9265 77.2717 38.9323 77.2473 38.9323ZM79.7681 38.9466C79.6053 38.9466 79.4598 38.9121 79.3316 38.843C79.2034 38.774 79.1026 38.679 79.0293 38.5581C78.9561 38.4372 78.9194 38.3 78.9194 38.1465C78.9194 37.9911 78.9561 37.8529 79.0293 37.732C79.1026 37.6111 79.2034 37.5161 79.3316 37.4471C79.4598 37.378 79.6053 37.3435 79.7681 37.3435C79.9309 37.3435 80.0754 37.378 80.2016 37.4471C80.3299 37.5161 80.4306 37.6111 80.5039 37.732C80.5771 37.8529 80.6147 37.9911 80.6168 38.1465C80.6168 38.3 80.5791 38.4372 80.5039 38.5581C80.4306 38.679 80.3299 38.774 80.2016 38.843C80.0754 38.9121 79.9309 38.9466 79.7681 38.9466ZM79.7681 38.7452C79.8861 38.7452 79.9919 38.7193 80.0856 38.6675C80.1792 38.6156 80.2525 38.5447 80.3054 38.4545C80.3583 38.3642 80.3848 38.2616 80.3848 38.1465C80.3848 38.0314 80.3583 37.9287 80.3054 37.8385C80.2525 37.7464 80.1792 37.6745 80.0856 37.6226C79.9919 37.5708 79.8861 37.5449 79.7681 37.5449C79.65 37.5449 79.5442 37.5708 79.4506 37.6226C79.3569 37.6745 79.2827 37.7464 79.2278 37.8385C79.1748 37.9287 79.1484 38.0314 79.1484 38.1465C79.1484 38.2616 79.1748 38.3642 79.2278 38.4545C79.2827 38.5447 79.3569 38.6156 79.4506 38.6675C79.5442 38.7193 79.65 38.7452 79.7681 38.7452ZM81.1106 37.9623C81.1167 37.8433 81.1493 37.7368 81.2083 37.6428C81.2693 37.5488 81.3478 37.4749 81.4433 37.4212C81.541 37.3675 81.6489 37.3406 81.7669 37.3406C81.8606 37.3406 81.9329 37.3531 81.9837 37.378C82.0347 37.4029 82.0539 37.4394 82.0417 37.4874C82.0336 37.5161 82.0194 37.5353 81.999 37.5449C81.9806 37.5546 81.9573 37.5583 81.9288 37.5564C81.9023 37.5546 81.8718 37.5526 81.8372 37.5507C81.7233 37.5411 81.6215 37.5526 81.5319 37.5852C81.4444 37.6159 81.3742 37.6639 81.3212 37.7291C81.2704 37.7943 81.2449 37.8721 81.2449 37.9623H81.1106ZM81.1289 38.9323C81.0923 38.9323 81.0638 38.9226 81.0434 38.9035C81.0231 38.8843 81.0129 38.8574 81.0129 38.8229V37.4672C81.0129 37.4327 81.0231 37.4058 81.0434 37.3866C81.0638 37.3675 81.0923 37.3578 81.1289 37.3578C81.1655 37.3578 81.1941 37.3675 81.2144 37.3866C81.2348 37.4058 81.2449 37.4327 81.2449 37.4672V38.8229C81.2449 38.8574 81.2348 38.8843 81.2144 38.9035C81.1941 38.9226 81.1655 38.9323 81.1289 38.9323ZM82.7103 38.9323C82.6289 38.9323 82.5557 38.9111 82.4905 38.8689C82.4274 38.8268 82.3775 38.7682 82.3409 38.6934C82.3064 38.6185 82.289 38.5322 82.289 38.4343V36.7937C82.289 36.761 82.2992 36.7351 82.3195 36.716C82.3419 36.6948 82.3705 36.6843 82.405 36.6843C82.4396 36.6843 82.4671 36.6948 82.4874 36.716C82.5099 36.7351 82.521 36.761 82.521 36.7937V38.4343C82.521 38.5168 82.5384 38.584 82.5729 38.6358C82.6095 38.6876 82.6553 38.7135 82.7103 38.7135H82.7866C82.8171 38.7135 82.8416 38.724 82.8599 38.7452C82.8782 38.7643 82.8874 38.7902 82.8874 38.8229C82.8874 38.8555 82.8742 38.8823 82.8477 38.9035C82.8232 38.9226 82.7907 38.9323 82.75 38.9323H82.7103ZM83.8184 38.9466C83.6576 38.9466 83.5131 38.9121 83.3849 38.843C83.2566 38.7721 83.155 38.6761 83.0796 38.5552C83.0063 38.4343 82.9697 38.2972 82.9697 38.1436C82.9697 37.9921 83.0054 37.8558 83.0765 37.7349C83.1498 37.614 83.2485 37.519 83.3726 37.4499C83.4969 37.379 83.6373 37.3435 83.7939 37.3435C83.9304 37.3435 84.0534 37.3712 84.1633 37.4269C84.2732 37.4806 84.3618 37.5526 84.4289 37.6428V36.7966C84.4289 36.762 84.4402 36.7351 84.4625 36.716C84.485 36.6948 84.5135 36.6843 84.548 36.6843C84.5826 36.6843 84.6112 36.6948 84.6335 36.716C84.6559 36.7351 84.6671 36.762 84.6671 36.7966V38.1551C84.6631 38.3048 84.6234 38.4401 84.548 38.561C84.4747 38.68 84.374 38.774 84.2458 38.843C84.1197 38.9121 83.9771 38.9466 83.8184 38.9466ZM83.8184 38.7452C83.9365 38.7452 84.0412 38.7193 84.1328 38.6675C84.2265 38.6138 84.2998 38.5418 84.3526 38.4516C84.4076 38.3614 84.435 38.2587 84.435 38.1436C84.435 38.0304 84.4076 37.9287 84.3526 37.8385C84.2998 37.7464 84.2265 37.6745 84.1328 37.6226C84.0412 37.5708 83.9365 37.5449 83.8184 37.5449C83.7024 37.5449 83.5976 37.5708 83.5039 37.6226C83.4103 37.6745 83.336 37.7464 83.2811 37.8385C83.2261 37.9287 83.1986 38.0304 83.1986 38.1436C83.1986 38.2587 83.2261 38.3614 83.2811 38.4516C83.336 38.5418 83.4103 38.6138 83.5039 38.6675C83.5976 38.7193 83.7024 38.7452 83.8184 38.7452Z" fill="#FF8DB5"/>
<path d="M990.926 19.7649H969.355V21.6198H990.926V19.7649Z" fill="white"/>
<path d="M990.926 28.1121H969.355V29.967H990.926V28.1121Z" fill="white"/>
<path d="M990.926 36.4591H969.355V38.314H990.926V36.4591Z" fill="white"/>
<defs>
<radialGradient id="paint0_radial_40_225" cx="0" cy="0" r="1" gradientUnits="userSpaceOnUse" gradientTransform="translate(21.2675 19.7387) rotate(76.8933) scale(31.0005 28.0211)">
<stop stop-color="#FF3838"/>
<stop offset="0.479215" stop-color="#CA234B"/>
<stop offset="1" stop-color="#510D57"/>
</radialGradient>
</defs>
</svg>
