<svg width="305" height="128" viewBox="0 0 305 128" fill="none" xmlns="http://www.w3.org/2000/svg">
<path d="M154.386 74.768C153.852 74.768 153.351 74.6184 152.883 74.3193C152.449 73.987 152.149 73.5885 151.982 73.1232L144.57 50.9917C144.302 49.9618 144.302 49.1311 144.57 48.4997C144.87 47.8347 145.504 47.5024 146.472 47.5024C147.107 47.5024 147.625 47.6856 148.025 48.051C148.459 48.3832 148.81 48.965 149.077 49.7956L155.388 69.4346H153.635L159.595 49.3966C159.762 48.832 160.045 48.3832 160.446 48.051C160.846 47.6856 161.398 47.5024 162.099 47.5024C162.766 47.5024 163.301 47.6856 163.701 48.051C164.136 48.3832 164.419 48.832 164.553 49.3966L169.411 68.2381H168.66L174.569 49.7956C175.037 48.2668 175.905 47.5024 177.174 47.5024C178.109 47.5024 178.743 47.8347 179.077 48.4997C179.411 49.1311 179.394 49.9618 179.027 50.9917L171.615 73.1232C171.481 73.5885 171.197 73.987 170.763 74.3193C170.329 74.6184 169.828 74.768 169.26 74.768C168.726 74.768 168.226 74.6184 167.758 74.3193C167.291 73.987 166.99 73.5885 166.857 73.1232L161.698 54.1322H162.199L156.79 73.1232C156.656 73.5885 156.356 73.987 155.888 74.3193C155.454 74.6184 154.953 74.768 154.386 74.768ZM196.406 74.9672C193.635 74.9672 191.164 74.386 188.994 73.2226C186.857 72.0265 185.171 70.3983 183.935 68.3379C182.734 66.2444 182.133 63.8518 182.133 61.16C182.133 58.4351 182.7 56.043 183.836 53.9826C185.004 51.8891 186.607 50.2609 188.643 49.0975C190.68 47.9014 193.017 47.3031 195.655 47.3031C198.26 47.3031 200.497 47.8848 202.366 49.0478C204.236 50.1776 205.655 51.7561 206.624 53.7829C207.625 55.777 208.126 58.0863 208.126 60.7118C208.126 61.3432 207.909 61.8747 207.475 62.3069C207.041 62.7054 206.49 62.9047 205.822 62.9047H185.639V58.917H205.672L203.618 60.3128C203.585 58.6514 203.251 57.1728 202.617 55.8768C201.982 54.5473 201.081 53.5008 199.912 52.7364C198.744 51.972 197.325 51.59 195.655 51.59C193.752 51.59 192.116 52.0051 190.747 52.8362C189.411 53.6669 188.393 54.8133 187.692 56.2754C186.991 57.7043 186.64 59.3325 186.64 61.16C186.64 62.988 187.057 64.6162 187.892 66.0452C188.727 67.4741 189.879 68.6039 191.348 69.4346C192.817 70.2653 194.503 70.6808 196.406 70.6808C197.442 70.6808 198.493 70.4977 199.562 70.1323C200.664 69.7337 201.548 69.285 202.216 68.7866C202.717 68.4212 203.251 68.2381 203.819 68.2381C204.42 68.2049 204.937 68.371 205.371 68.7365C205.939 69.2353 206.239 69.7834 206.273 70.3817C206.306 70.9795 206.039 71.495 205.471 71.9266C204.336 72.824 202.917 73.5549 201.214 74.12C199.545 74.6847 197.942 74.9672 196.406 74.9672ZM217.246 73.8209L213.84 70.8304L230.868 48.4495L234.224 51.4404L217.246 73.8209ZM215.743 74.768C214.174 74.768 213.389 73.987 213.389 72.425C213.389 70.8635 214.174 70.0826 215.743 70.0826H232.822C234.391 70.0826 235.176 70.8635 235.176 72.425C235.176 73.987 234.391 74.768 232.822 74.768H215.743ZM215.243 52.1883C213.673 52.1883 212.888 51.4073 212.888 49.8453C212.888 48.2834 213.673 47.5024 215.243 47.5024H232.321C233.89 47.5024 234.675 48.2834 234.675 49.8453C234.675 51.4073 233.89 52.1883 232.321 52.1883H215.243ZM255.462 74.9672C252.857 74.9672 250.52 74.3694 248.45 73.1729C246.38 71.9432 244.744 70.2818 243.542 68.1884C242.34 66.0949 241.722 63.7354 241.689 61.1103V38.3811C241.689 37.6166 241.922 37.0018 242.39 36.5365C242.891 36.0713 243.508 35.8389 244.243 35.8389C245.011 35.8389 245.629 36.0713 246.096 36.5365C246.564 37.0018 246.797 37.6166 246.797 38.3811V51.839C247.966 50.4436 249.368 49.3469 251.004 48.5494C252.674 47.7187 254.493 47.3031 256.463 47.3031C258.901 47.3031 261.088 47.918 263.024 49.1477C264.961 50.3437 266.48 51.9885 267.582 54.082C268.717 56.1424 269.285 58.4853 269.285 61.1103C269.285 63.7354 268.667 66.0949 267.432 68.1884C266.229 70.2818 264.593 71.9432 262.524 73.1729C260.453 74.3694 258.099 74.9672 255.462 74.9672ZM255.462 70.4811C257.164 70.4811 258.684 70.0826 260.019 69.285C261.355 68.4543 262.407 67.3245 263.175 65.8956C263.976 64.4666 264.377 62.8716 264.377 61.1103C264.377 59.316 263.976 57.7209 263.175 56.3251C262.407 54.9297 261.355 53.833 260.019 53.0355C258.684 52.2048 257.164 51.7893 255.462 51.7893C253.792 51.7893 252.273 52.2048 250.904 53.0355C249.568 53.833 248.517 54.9297 247.749 56.3251C246.981 57.7209 246.597 59.316 246.597 61.1103C246.597 62.8716 246.981 64.4666 247.749 65.8956C248.517 67.3245 249.568 68.4543 250.904 69.285C252.273 70.0826 253.792 70.4811 255.462 70.4811ZM289.325 74.9672C286.62 74.9672 284.233 74.386 282.162 73.2226C280.092 72.0265 278.456 70.3983 277.254 68.3379C276.086 66.2444 275.501 63.8518 275.501 61.16C275.501 58.4351 276.086 56.043 277.254 53.9826C278.456 51.8891 280.092 50.2609 282.162 49.0975C284.233 47.9014 286.62 47.3031 289.325 47.3031C291.995 47.3031 294.366 47.9014 296.437 49.0975C298.506 50.2609 300.126 51.8891 301.295 53.9826C302.496 56.043 303.098 58.4351 303.098 61.16C303.098 63.8518 302.513 66.2444 301.344 68.3379C300.176 70.3983 298.557 72.0265 296.486 73.2226C294.416 74.386 292.029 74.9672 289.325 74.9672ZM289.325 70.4811C291.061 70.4811 292.597 70.0826 293.932 69.285C295.268 68.4875 296.303 67.3908 297.037 65.995C297.805 64.5996 298.189 62.988 298.189 61.16C298.189 59.3325 297.805 57.7209 297.037 56.3251C296.303 54.8961 295.268 53.7829 293.932 52.9858C292.597 52.1883 291.061 51.7893 289.325 51.7893C287.588 51.7893 286.052 52.1883 284.717 52.9858C283.381 53.7829 282.329 54.8961 281.561 56.3251C280.794 57.7209 280.409 59.3325 280.409 61.16C280.409 62.988 280.794 64.5996 281.561 65.995C282.329 67.3908 283.381 68.4875 284.717 69.285C286.052 70.0826 287.588 70.4811 289.325 70.4811Z" fill="white"/>
<path d="M152.883 74.3195L151.723 75.8204C151.766 75.8525 151.81 75.8833 151.855 75.9122L152.883 74.3195ZM151.982 73.1234L150.177 73.7221C150.182 73.7349 150.186 73.7472 150.191 73.76L151.982 73.1234ZM144.57 50.9919L142.728 51.4652C142.739 51.5074 142.751 51.5495 142.765 51.5907L144.57 50.9919ZM144.57 48.4999L142.835 47.7227C142.829 47.7369 142.822 47.7511 142.816 47.7648L144.57 48.4999ZM148.025 48.0512L146.74 49.4465C146.78 49.4835 146.822 49.5185 146.865 49.5516L148.025 48.0512ZM155.388 69.4348V71.3281C155.995 71.3281 156.566 71.0394 156.924 70.5509C157.282 70.0629 157.385 69.4339 157.2 68.8578L155.388 69.4348ZM153.635 69.4348L151.81 68.8971C151.64 69.4698 151.751 70.0889 152.111 70.5675C152.47 71.046 153.035 71.3281 153.635 71.3281V69.4348ZM159.595 49.3968L161.419 49.9345L161.42 49.9312L159.595 49.3968ZM160.446 48.0512L161.664 49.5057C161.687 49.4863 161.709 49.4669 161.732 49.4465L160.446 48.0512ZM163.701 48.0512L162.416 49.4465C162.456 49.4835 162.498 49.5185 162.542 49.5516L163.701 48.0512ZM164.553 49.3968L162.701 49.8304C162.704 49.8427 162.707 49.855 162.71 49.8673L164.553 49.3968ZM169.411 68.2383V70.1315C169.999 70.1315 170.554 69.8613 170.914 69.3988C171.275 68.9369 171.4 68.3343 171.254 67.7678L169.411 68.2383ZM168.66 68.2383L166.847 67.6632C166.663 68.2387 166.766 68.8678 167.124 69.3553C167.482 69.8433 168.053 70.1315 168.66 70.1315V68.2383ZM174.569 49.7958L176.382 50.3709C176.385 50.3629 176.387 50.3548 176.39 50.3468L174.569 49.7958ZM179.077 48.4999L177.376 49.3462C177.382 49.358 177.388 49.3699 177.394 49.3817L179.077 48.4999ZM179.027 50.9919L177.234 50.3586C177.23 50.3704 177.226 50.3818 177.222 50.3932L179.027 50.9919ZM171.615 73.1234L169.81 72.5246C169.801 72.5507 169.793 72.5767 169.786 72.6032L171.615 73.1234ZM170.763 74.3195L171.846 75.8762C171.872 75.8582 171.898 75.8393 171.923 75.8204L170.763 74.3195ZM167.758 74.3195L166.652 75.8601C166.678 75.8781 166.703 75.8956 166.729 75.9122L167.758 74.3195ZM166.857 73.1234L165.02 73.6175C165.023 73.6261 165.025 73.6346 165.028 73.6436L166.857 73.1234ZM161.698 54.1324V52.2391C161.106 52.2391 160.547 52.5132 160.188 52.9813C159.828 53.4494 159.707 54.0576 159.862 54.6266L161.698 54.1324ZM162.199 54.1324L164.029 54.6488C164.192 54.0775 164.076 53.4641 163.717 52.9907C163.357 52.517 162.795 52.2391 162.199 52.2391V54.1324ZM156.79 73.1234L158.619 73.6436L158.62 73.6398L156.79 73.1234ZM155.889 74.3195L156.971 75.8762C156.979 75.871 156.987 75.8658 156.994 75.8601L155.889 74.3195ZM154.386 72.8749C154.232 72.8749 154.086 72.838 153.912 72.7272L151.855 75.9122C152.616 76.3992 153.472 76.6615 154.386 76.6615V72.8749ZM154.043 72.819C153.868 72.6846 153.805 72.5743 153.774 72.4863L150.191 73.76C150.493 74.6025 151.031 75.2902 151.723 75.8204L154.043 72.819ZM153.786 72.5246L146.374 50.3932L142.765 51.5907L150.177 73.7221L153.786 72.5246ZM146.412 50.5191C146.194 49.6818 146.285 49.3239 146.323 49.2345L142.816 47.7648C142.32 48.9382 142.411 50.2422 142.728 51.4652L146.412 50.5191ZM146.304 49.2766C146.3 49.2866 146.283 49.3183 146.248 49.3552C146.213 49.3931 146.178 49.4162 146.157 49.4276C146.138 49.4371 146.146 49.429 146.197 49.4186C146.249 49.4077 146.338 49.3959 146.473 49.3959V45.6093C145.044 45.6093 143.546 46.1508 142.835 47.7227L146.304 49.2766ZM146.473 49.3959C146.606 49.3959 146.675 49.4153 146.7 49.4243C146.721 49.4314 146.73 49.4375 146.74 49.4465L149.311 46.6554C148.501 45.917 147.498 45.6093 146.473 45.6093V49.3959ZM146.865 49.5516C146.853 49.5426 146.901 49.5753 146.982 49.7106C147.065 49.8465 147.164 50.059 147.265 50.3728L150.889 49.2189C150.569 48.2235 150.06 47.22 149.185 46.5503L146.865 49.5516ZM147.265 50.3724L153.576 70.0113L157.2 68.8578L150.889 49.2189L147.265 50.3724ZM155.388 67.5415H153.635V71.3281H155.388V67.5415ZM155.459 69.972L161.419 49.9345L157.77 48.8596L151.81 68.8971L155.459 69.972ZM161.42 49.9312C161.495 49.6761 161.59 49.5663 161.664 49.5057L159.228 46.5967C158.5 47.2002 158.028 47.9878 157.77 48.8629L161.42 49.9312ZM161.732 49.4465C161.722 49.456 161.722 49.4489 161.762 49.4361C161.807 49.4205 161.912 49.3959 162.099 49.3959V45.6093C161.064 45.6093 160.005 45.8853 159.161 46.6554L161.732 49.4465ZM162.099 49.3959C162.259 49.3959 162.347 49.4181 162.382 49.4304C162.412 49.4404 162.416 49.4465 162.416 49.4465L164.987 46.6554C164.159 45.9004 163.128 45.6093 162.099 45.6093V49.3959ZM162.542 49.5516C162.605 49.6004 162.661 49.6605 162.701 49.8304L166.405 48.9633C166.178 48.0039 165.666 47.1666 164.861 46.5503L162.542 49.5516ZM162.71 49.8673L167.568 68.7092L171.254 67.7678L166.396 48.9264L162.71 49.8673ZM169.411 66.345H168.66V70.1315H169.411V66.345ZM170.472 68.8138L176.382 50.3709L172.757 49.2203L166.847 67.6632L170.472 68.8138ZM176.39 50.3468C176.559 49.7939 176.744 49.5715 176.832 49.4939C176.884 49.448 176.956 49.3959 177.174 49.3959V45.6093C176.123 45.6093 175.127 45.9397 174.311 46.6582C173.531 47.345 173.048 48.2689 172.75 49.2444L176.39 50.3468ZM177.174 49.3959C177.423 49.3959 177.491 49.4413 177.465 49.4276C177.45 49.4196 177.426 49.4035 177.403 49.3793C177.38 49.3557 177.373 49.3405 177.376 49.3462L180.779 47.6531C180.036 46.174 178.612 45.6093 177.174 45.6093V49.3959ZM177.394 49.3817C177.394 49.3817 177.394 49.3831 177.396 49.3869C177.397 49.3907 177.4 49.3978 177.403 49.4101C177.408 49.4342 177.415 49.4816 177.413 49.5582C177.41 49.7182 177.37 49.9785 177.234 50.3586L180.82 51.6252C181.271 50.36 181.447 48.9169 180.761 47.6181L177.394 49.3817ZM177.222 50.3932L169.81 72.5246L173.42 73.7221L180.832 51.5907L177.222 50.3932ZM169.786 72.6032C169.778 72.6302 169.758 72.7012 169.603 72.819L171.923 75.8204C172.637 75.2737 173.185 74.5471 173.444 73.6436L169.786 72.6032ZM169.68 72.7627C169.589 72.8261 169.472 72.8749 169.261 72.8749V76.6615C170.185 76.6615 171.07 76.4111 171.846 75.8762L169.68 72.7627ZM169.261 72.8749C169.106 72.8749 168.96 72.838 168.787 72.7272L166.729 75.9122C167.491 76.3992 168.346 76.6615 169.261 76.6615V72.8749ZM168.864 72.7788C168.766 72.7092 168.722 72.6586 168.704 72.6354C168.689 72.615 168.687 72.607 168.686 72.6032L165.028 73.6436C165.3 74.5921 165.901 75.3262 166.652 75.8601L168.864 72.7788ZM168.693 72.6292L163.535 53.6383L159.862 54.6266L165.02 73.6175L168.693 72.6292ZM161.698 56.0257H162.199V52.2391H161.698V56.0257ZM160.369 53.616L154.96 72.607L158.62 73.6398L164.029 54.6488L160.369 53.616ZM154.961 72.6032C154.96 72.607 154.958 72.615 154.943 72.6354C154.925 72.6586 154.881 72.7092 154.783 72.7788L156.994 75.8601C157.746 75.3262 158.347 74.5921 158.619 73.6436L154.961 72.6032ZM154.806 72.7627C154.714 72.8261 154.597 72.8749 154.386 72.8749V76.6615C155.31 76.6615 156.195 76.4111 156.971 75.8762L154.806 72.7627ZM188.994 73.2228L188.061 74.8732C188.072 74.8789 188.082 74.8846 188.092 74.8898L188.994 73.2228ZM183.936 68.3381L182.284 69.2777C182.29 69.2876 182.296 69.298 182.302 69.3084L183.936 68.3381ZM183.836 53.9828L182.173 53.0632C182.171 53.0665 182.169 53.0693 182.167 53.0722L183.836 53.9828ZM188.643 49.0977L189.59 50.7401C189.597 50.7363 189.604 50.7321 189.61 50.7283L188.643 49.0977ZM202.366 49.048L201.358 50.6535C201.365 50.6578 201.372 50.662 201.379 50.6663L202.366 49.048ZM206.624 53.7831L204.905 54.5962C204.911 54.6076 204.916 54.619 204.922 54.6299L206.624 53.7831ZM207.475 62.3071L208.765 63.6982C208.784 63.6811 208.802 63.6636 208.82 63.6456L207.475 62.3071ZM185.639 62.9049H183.736C183.736 63.9505 184.588 64.7982 185.639 64.7982V62.9049ZM185.639 58.9172V57.0239C184.588 57.0239 183.736 57.8716 183.736 58.9172H185.639ZM205.672 58.9172L206.745 60.481C207.434 60.0124 207.736 59.1519 207.49 58.3587C207.243 57.5654 206.506 57.0239 205.672 57.0239V58.9172ZM203.619 60.313L201.717 60.3509C201.73 61.0462 202.126 61.6776 202.747 61.9961C203.368 62.3147 204.115 62.2688 204.691 61.8764L203.619 60.313ZM202.617 55.8771L200.899 56.6893C200.901 56.6949 200.904 56.7006 200.907 56.7058L202.617 55.8771ZM190.747 52.8365L189.757 51.2196C189.751 51.2234 189.745 51.2272 189.739 51.231L190.747 52.8365ZM187.692 56.2756L189.401 57.1063C189.404 57.1015 189.406 57.0963 189.409 57.0911L187.692 56.2756ZM199.562 70.1325L200.18 71.9231C200.191 71.9193 200.201 71.9155 200.212 71.9117L199.562 70.1325ZM202.216 68.7868L201.091 67.2599C201.086 67.2642 201.08 67.268 201.075 67.2722L202.216 68.7868ZM203.819 68.2383V70.1315C203.854 70.1315 203.889 70.1306 203.924 70.1287L203.819 68.2383ZM205.372 68.7367L206.63 67.3172C206.62 67.3087 206.61 67.3001 206.6 67.2916L205.372 68.7367ZM205.471 71.9268L204.316 70.4231C204.307 70.4302 204.298 70.4373 204.289 70.4444L205.471 71.9268ZM201.214 74.1202L200.613 72.324C200.61 72.3254 200.606 72.3263 200.602 72.3277L201.214 74.1202ZM196.406 73.0742C193.91 73.0742 191.756 72.553 189.896 71.5562L188.092 74.8898C190.573 76.2194 193.36 76.8607 196.406 76.8607V73.0742ZM189.927 71.5728C188.074 70.5358 186.632 69.1395 185.569 67.3678L182.302 69.3084C183.711 71.657 185.641 73.5177 188.061 74.8732L189.927 71.5728ZM185.587 67.3986C184.568 65.6236 184.035 63.5619 184.035 61.1602H180.23C180.23 64.1422 180.899 66.8656 182.284 69.2777L185.587 67.3986ZM184.035 61.1602C184.035 58.7028 184.545 56.6325 185.504 54.893L182.167 53.0722C180.856 55.4534 180.23 58.1684 180.23 61.1602H184.035ZM185.498 54.902C186.503 53.102 187.862 51.727 189.59 50.7401L187.697 47.4558C185.352 48.7948 183.505 50.6762 182.173 53.0632L185.498 54.902ZM189.61 50.7283C191.321 49.7234 193.317 49.1966 195.655 49.1966V45.4101C192.718 45.4101 190.039 46.0798 187.677 47.4676L189.61 50.7283ZM195.655 49.1966C197.969 49.1966 199.842 49.7102 201.358 50.6535L203.375 47.4425C201.152 46.0595 198.551 45.4101 195.655 45.4101V49.1966ZM201.379 50.6663C202.921 51.5982 204.091 52.8918 204.905 54.5962L208.342 52.9704C207.219 50.6208 205.551 48.7574 203.354 47.4297L201.379 50.6663ZM204.922 54.6299C205.77 56.3182 206.224 58.3284 206.224 60.712H210.028C210.028 57.8446 209.48 55.2362 208.325 52.9368L204.922 54.6299ZM206.224 60.712C206.224 60.8597 206.194 60.9042 206.13 60.9681L208.82 63.6456C209.624 62.8457 210.028 61.8267 210.028 60.712H206.224ZM206.185 60.9155C206.149 60.9491 206.079 61.0116 205.822 61.0116V64.7982C206.901 64.7982 207.934 64.4621 208.765 63.6982L206.185 60.9155ZM205.822 61.0116H185.639V64.7982H205.822V61.0116ZM187.541 62.9049V58.9172H183.736V62.9049H187.541ZM185.639 60.8105H205.672V57.0239H185.639V60.8105ZM204.599 57.3538L202.546 58.7496L204.691 61.8764L206.745 60.481L204.599 57.3538ZM205.52 60.2751C205.482 58.3809 205.1 56.6254 204.327 55.0478L200.907 56.7058C201.403 57.7202 201.688 58.9219 201.717 60.3509L205.52 60.2751ZM204.335 55.0644C203.56 53.4409 202.434 52.1203 200.957 51.1543L198.867 54.3189C199.728 54.8817 200.405 55.6546 200.899 56.6893L204.335 55.0644ZM200.957 51.1543C199.422 50.1504 197.623 49.6969 195.655 49.6969V53.4835C197.026 53.4835 198.065 53.794 198.867 54.3189L200.957 51.1543ZM195.655 49.6969C193.469 49.6969 191.475 50.1764 189.757 51.2196L191.738 54.4528C192.756 53.8342 194.036 53.4835 195.655 53.4835V49.6969ZM189.739 51.231C188.086 52.259 186.827 53.6846 185.975 55.4601L189.409 57.0911C189.959 55.9424 190.737 55.0748 191.755 54.4419L189.739 51.231ZM185.983 55.4449C185.137 57.1683 184.738 59.0881 184.738 61.1602H188.543C188.543 59.5775 188.845 58.2403 189.401 57.1063L185.983 55.4449ZM184.738 61.1602C184.738 63.2859 185.227 65.2492 186.248 66.9967L189.537 65.0935C188.888 63.9836 188.543 62.69 188.543 61.1602H184.738ZM186.248 66.9967C187.255 68.7206 188.652 70.0875 190.408 71.081L192.288 67.7886C191.106 67.1203 190.2 66.2281 189.537 65.0935L186.248 66.9967ZM190.408 71.081C192.198 72.0934 194.216 72.5743 196.406 72.5743V68.7878C194.79 68.7878 193.436 68.4375 192.288 67.7886L190.408 71.081ZM196.406 72.5743C197.67 72.5743 198.931 72.3505 200.18 71.9231L198.944 68.3419C198.056 68.6458 197.213 68.7878 196.406 68.7878V72.5743ZM200.212 71.9117C201.424 71.4729 202.493 70.9466 203.357 70.3015L201.075 67.2722C200.604 67.6239 199.903 67.9945 198.912 68.3533L200.212 71.9117ZM203.341 70.3133C203.548 70.1623 203.694 70.1315 203.819 70.1315V66.345C202.808 66.345 201.886 66.6801 201.091 67.2599L203.341 70.3133ZM203.924 70.1287C204.017 70.1235 204.06 70.1358 204.074 70.1401C204.086 70.1438 204.106 70.1514 204.143 70.1822L206.6 67.2916C205.771 66.594 204.769 66.2896 203.713 66.3483L203.924 70.1287ZM204.113 70.1566C204.264 70.2892 204.328 70.3833 204.352 70.4288C204.373 70.4667 204.373 70.4804 204.374 70.487L208.172 70.2768C208.104 69.05 207.476 68.0598 206.63 67.3172L204.113 70.1566ZM204.374 70.487C204.373 70.4804 204.373 70.4586 204.379 70.4274C204.386 70.3961 204.397 70.3687 204.407 70.3483C204.428 70.3076 204.426 70.3393 204.316 70.4231L206.627 73.431C207.588 72.7002 208.247 71.6244 208.172 70.2768L204.374 70.487ZM204.289 70.4444C203.363 71.1757 202.153 71.8132 200.613 72.324L201.816 75.9164C203.681 75.2973 205.31 74.4728 206.655 73.4098L204.289 70.4444ZM200.602 72.3277C199.101 72.8356 197.706 73.0742 196.406 73.0742V76.8607C198.179 76.8607 199.989 76.5346 201.827 75.9127L200.602 72.3277ZM217.246 73.8211L215.988 75.2405C216.385 75.5894 216.91 75.7579 217.437 75.7049C217.964 75.6519 218.445 75.3825 218.764 74.9618L217.246 73.8211ZM213.84 70.8306L212.324 69.6876C211.723 70.4771 211.835 71.5946 212.582 72.2501L213.84 70.8306ZM230.868 48.4497L232.138 47.0397C231.742 46.6866 231.215 46.5143 230.686 46.5654C230.157 46.6161 229.673 46.8849 229.352 47.3071L230.868 48.4497ZM234.224 51.4406L235.743 52.5813C236.339 51.7956 236.23 50.6866 235.494 50.0301L234.224 51.4406ZM218.505 72.4016L215.099 69.4107L212.582 72.2501L215.988 75.2405L218.505 72.4016ZM215.357 71.9732L232.385 49.5928L229.352 47.3071L212.324 69.6876L215.357 71.9732ZM229.6 49.8602L232.955 52.8511L235.494 50.0301L232.138 47.0397L229.6 49.8602ZM232.706 50.2999L215.728 72.6804L218.764 74.9618L235.743 52.5813L232.706 50.2999ZM215.744 72.8749C215.252 72.8749 215.233 72.7537 215.323 72.8437C215.413 72.9336 215.292 72.9147 215.292 72.4252H211.487C211.487 73.4983 211.758 74.6503 212.633 75.5212C213.508 76.3921 214.665 76.6615 215.744 76.6615V72.8749ZM215.292 72.4252C215.292 71.9363 215.413 71.9174 215.323 72.0073C215.233 72.0968 215.252 71.9761 215.744 71.9761V68.1895C214.665 68.1895 213.508 68.4588 212.633 69.3297C211.758 70.2002 211.487 71.3527 211.487 72.4252H215.292ZM215.744 71.9761H232.822V68.1895H215.744V71.9761ZM232.822 71.9761C233.313 71.9761 233.332 72.0968 233.242 72.0073C233.152 71.9174 233.274 71.9363 233.274 72.4252H237.078C237.078 71.3527 236.808 70.2002 235.932 69.3297C235.058 68.4588 233.9 68.1895 232.822 68.1895V71.9761ZM233.274 72.4252C233.274 72.9147 233.152 72.9336 233.242 72.8437C233.332 72.7537 233.313 72.8749 232.822 72.8749V76.6615C233.9 76.6615 235.058 76.3921 235.932 75.5212C236.808 74.6503 237.078 73.4983 237.078 72.4252H233.274ZM232.822 72.8749H215.744V76.6615H232.822V72.8749ZM215.243 50.2952C214.751 50.2952 214.732 50.174 214.822 50.264C214.913 50.3539 214.791 50.3345 214.791 49.8455H210.986C210.986 50.9181 211.257 52.0706 212.132 52.9415C213.007 53.812 214.165 54.0818 215.243 54.0818V50.2952ZM214.791 49.8455C214.791 49.3566 214.913 49.3372 214.822 49.4271C214.732 49.5171 214.751 49.3959 215.243 49.3959V45.6093C214.165 45.6093 213.007 45.8791 212.132 46.7496C211.257 47.6205 210.986 48.773 210.986 49.8455H214.791ZM215.243 49.3959H232.321V45.6093H215.243V49.3959ZM232.321 49.3959C232.813 49.3959 232.832 49.5171 232.741 49.4271C232.651 49.3372 232.773 49.3566 232.773 49.8455H236.577C236.577 48.773 236.307 47.6205 235.432 46.7496C234.557 45.8791 233.399 45.6093 232.321 45.6093V49.3959ZM232.773 49.8455C232.773 50.3345 232.651 50.3539 232.741 50.264C232.832 50.174 232.813 50.2952 232.321 50.2952V54.0818C233.399 54.0818 234.557 53.812 235.432 52.9415C236.307 52.0706 236.577 50.9181 236.577 49.8455H232.773ZM232.321 50.2952H215.243V54.0818H232.321V50.2952ZM248.45 73.1731L247.475 74.7989C247.482 74.8027 247.488 74.8065 247.495 74.8103L248.45 73.1731ZM241.689 61.1105H239.787C239.787 61.1186 239.787 61.1266 239.787 61.1347L241.689 61.1105ZM242.39 36.5368L241.092 35.1528C241.076 35.1674 241.06 35.1826 241.045 35.1982L242.39 36.5368ZM246.797 51.8392H244.895C244.895 52.6362 245.397 53.3481 246.149 53.6193C246.903 53.891 247.746 53.6638 248.259 53.0513L246.797 51.8392ZM251.004 48.5496L251.841 50.2498C251.845 50.2474 251.85 50.2455 251.855 50.2431L251.004 48.5496ZM263.025 49.1479L262.001 50.7439C262.008 50.7482 262.014 50.7524 262.021 50.7562L263.025 49.1479ZM267.582 54.0822L265.897 54.9607C265.902 54.9716 265.908 54.982 265.914 54.9929L267.582 54.0822ZM267.432 68.1886L265.791 67.2296C265.788 67.2362 265.784 67.2429 265.78 67.2495L267.432 68.1886ZM262.524 73.1731L263.479 74.8103C263.485 74.8065 263.492 74.8027 263.498 74.7989L262.524 73.1731ZM260.019 69.2852L260.998 70.9087C261.008 70.9026 261.018 70.8969 261.028 70.8908L260.019 69.2852ZM263.175 65.8958L261.514 64.9728C261.508 64.9828 261.503 64.9927 261.497 65.0027L263.175 65.8958ZM263.175 56.3253L261.506 57.235C261.512 57.2449 261.517 57.2549 261.523 57.2648L263.175 56.3253ZM260.019 53.0357L259.011 54.6412C259.021 54.6474 259.031 54.6531 259.041 54.6592L260.019 53.0357ZM250.904 53.0357L251.883 54.6592C251.887 54.6568 251.891 54.6545 251.894 54.6521L250.904 53.0357ZM250.904 69.2852L249.896 70.8908C249.911 70.9002 249.927 70.9097 249.943 70.9191L250.904 69.2852ZM255.462 73.0742C253.162 73.0742 251.16 72.5497 249.405 71.5359L247.495 74.8103C249.88 76.1891 252.552 76.8607 255.462 76.8607V73.0742ZM249.425 71.5472C247.638 70.4856 246.234 69.0614 245.194 67.2495L241.89 69.1281C243.254 71.5028 245.122 73.4017 247.475 74.7989L249.425 71.5472ZM245.194 67.2495C244.166 65.4594 243.621 63.4199 243.591 61.0864L239.787 61.1347C239.824 64.0518 240.514 66.7312 241.89 69.1281L245.194 67.2495ZM243.591 61.1105V38.3813H239.787V61.1105H243.591ZM243.591 38.3813C243.591 38.031 243.682 37.9283 243.735 37.8758L241.045 35.1982C240.163 36.0762 239.787 37.2027 239.787 38.3813H243.591ZM243.688 37.9207C243.81 37.8081 243.952 37.7324 244.243 37.7324V33.9458C243.065 33.9458 241.972 34.3353 241.092 35.1528L243.688 37.9207ZM244.243 37.7324C244.595 37.7324 244.698 37.8232 244.751 37.8758L247.441 35.1982C246.559 34.3202 245.428 33.9458 244.243 33.9458V37.7324ZM244.751 37.8758C244.804 37.9283 244.895 38.031 244.895 38.3813H248.7C248.7 37.2027 248.323 36.0762 247.441 35.1982L244.751 37.8758ZM244.895 38.3813V51.8392H248.7V38.3813H244.895ZM248.259 53.0513C249.256 51.86 250.446 50.9299 251.841 50.2498L250.168 46.8494C248.291 47.7644 246.675 49.0272 245.336 50.6275L248.259 53.0513ZM251.855 50.2431C253.246 49.5511 254.772 49.1966 256.463 49.1966V45.4101C254.215 45.4101 252.102 45.8867 250.153 46.8561L251.855 50.2431ZM256.463 49.1966C258.562 49.1966 260.389 49.7206 262.001 50.7439L264.048 47.5514C261.786 46.1158 259.24 45.4101 256.463 45.4101V49.1966ZM262.021 50.7562C263.657 51.7668 264.946 53.1541 265.897 54.9607L269.267 53.2037C268.014 50.8239 266.265 48.9216 264.028 47.5391L262.021 50.7562ZM265.914 54.9929C266.878 56.7423 267.382 58.7657 267.382 61.1105H271.187C271.187 58.2053 270.556 55.5429 269.25 53.172L265.914 54.9929ZM267.382 61.1105C267.382 63.427 266.842 65.4504 265.791 67.2296L269.072 69.1475C270.493 66.7397 271.187 64.0446 271.187 61.1105H267.382ZM265.78 67.2495C264.74 69.0614 263.336 70.4856 261.549 71.5472L263.498 74.7989C265.851 73.4017 267.72 71.5028 269.083 69.1281L265.78 67.2495ZM261.568 71.5359C259.817 72.5478 257.799 73.0742 255.462 73.0742V76.8607C258.4 76.8607 261.089 76.191 263.479 74.8103L261.568 71.5359ZM255.462 72.3746C257.476 72.3746 259.34 71.8989 260.998 70.9087L259.041 67.6618C258.028 68.2667 256.853 68.588 255.462 68.588V72.3746ZM261.028 70.8908C262.655 69.8788 263.933 68.4991 264.852 66.7885L261.497 65.0027C260.881 66.1505 260.055 67.0303 259.011 67.6797L261.028 70.8908ZM264.836 66.8183C265.807 65.086 266.279 63.1695 266.279 61.1105H262.474C262.474 62.574 262.145 63.8477 261.514 64.9728L264.836 66.8183ZM266.279 61.1105C266.279 59.026 265.811 57.1001 264.827 55.3862L261.523 57.2648C262.141 58.3421 262.474 59.6063 262.474 61.1105H266.279ZM264.843 55.416C263.918 53.7339 262.631 52.3873 260.998 51.4122L259.041 54.6592C260.079 55.2788 260.896 56.1255 261.506 57.235L264.843 55.416ZM261.028 51.4302C259.365 50.396 257.491 49.8962 255.462 49.8962V53.6827C256.838 53.6827 258.002 54.0136 259.011 54.6412L261.028 51.4302ZM255.462 49.8962C253.458 49.8962 251.593 50.3998 249.914 51.4193L251.894 54.6521C252.953 54.0103 254.126 53.6827 255.462 53.6827V49.8962ZM249.926 51.4122C248.292 52.3873 247.006 53.7339 246.08 55.416L249.417 57.235C250.028 56.1255 250.845 55.2788 251.883 54.6592L249.926 51.4122ZM246.08 55.416C245.14 57.1247 244.695 59.0393 244.695 61.1105H248.499C248.499 59.5926 248.822 58.3175 249.417 57.235L246.08 55.416ZM244.695 61.1105C244.695 63.1558 245.143 65.0618 246.071 66.7885L249.426 65.0027C248.818 63.8719 248.499 62.5878 248.499 61.1105H244.695ZM246.071 66.7885C246.991 68.4991 248.269 69.8788 249.896 70.8908L251.913 67.6797C250.868 67.0303 250.043 66.1505 249.426 65.0027L246.071 66.7885ZM249.943 70.9191C251.619 71.8956 253.473 72.3746 255.462 72.3746V68.588C254.112 68.588 252.927 68.27 251.865 67.6513L249.943 70.9191ZM282.162 73.2228L281.207 74.8605C281.214 74.8643 281.221 74.868 281.227 74.8718L282.162 73.2228ZM277.254 68.3381L275.591 69.2578C275.597 69.2682 275.603 69.2786 275.609 69.289L277.254 68.3381ZM277.254 53.9828L275.603 53.0433C275.601 53.0461 275.599 53.049 275.598 53.0518L277.254 53.9828ZM282.162 49.0977L283.098 50.7467C283.105 50.743 283.111 50.7392 283.118 50.7354L282.162 49.0977ZM296.437 49.0977L295.481 50.7354C295.488 50.7392 295.494 50.743 295.501 50.7467L296.437 49.0977ZM301.295 53.9828L299.632 54.902C299.637 54.9124 299.643 54.9228 299.649 54.9333L301.295 53.9828ZM301.345 68.3381L303.001 69.2687C303.003 69.2649 303.005 69.2616 303.008 69.2578L301.345 68.3381ZM296.487 73.2228L297.422 74.8718C297.428 74.868 297.435 74.8643 297.442 74.8605L296.487 73.2228ZM297.037 65.9952L295.369 65.086C295.363 65.0964 295.358 65.1068 295.352 65.1167L297.037 65.9952ZM297.037 56.3253L295.344 57.1877C295.352 57.2038 295.36 57.2194 295.369 57.235L297.037 56.3253ZM281.561 56.3253L283.23 57.235C283.233 57.2293 283.236 57.2236 283.239 57.2184L281.561 56.3253ZM289.325 73.0742C286.902 73.0742 284.845 72.5559 283.098 71.5742L281.227 74.8718C283.62 76.2161 286.338 76.8607 289.325 76.8607V73.0742ZM283.118 71.5856C281.334 70.5547 279.935 69.1631 278.9 67.3872L275.609 69.289C276.977 71.6339 278.851 73.4987 281.207 74.8605L283.118 71.5856ZM278.917 67.4185C277.925 65.6397 277.404 63.5709 277.404 61.1602H273.599C273.599 64.1332 274.247 66.8495 275.591 69.2578L278.917 67.4185ZM277.404 61.1602C277.404 58.7118 277.926 56.649 278.911 54.9134L275.598 53.0518C274.245 55.4369 273.599 58.1594 273.599 61.1602H277.404ZM278.906 54.9219C279.941 53.119 281.332 51.7383 283.098 50.7467L281.227 47.4491C278.852 48.7834 276.971 50.6592 275.603 53.0433L278.906 54.9219ZM283.118 50.7354C284.861 49.7272 286.911 49.1966 289.325 49.1966V45.4101C286.329 45.4101 283.604 46.0756 281.207 47.4605L283.118 50.7354ZM289.325 49.1966C291.7 49.1966 293.734 49.7253 295.481 50.7354L297.392 47.4605C294.999 46.0779 292.291 45.4101 289.325 45.4101V49.1966ZM295.501 50.7467C297.262 51.736 298.631 53.11 299.632 54.902L302.957 53.0632C301.62 50.6686 299.751 48.7863 297.372 47.4491L295.501 50.7467ZM299.649 54.9333C300.66 56.6656 301.195 58.7208 301.195 61.1602H305C305 58.1504 304.333 55.4203 302.94 53.0319L299.649 54.9333ZM301.195 61.1602C301.195 63.5709 300.675 65.6397 299.682 67.4185L303.008 69.2578C304.352 66.8495 305 64.1332 305 61.1602H301.195ZM299.688 67.4076C298.687 69.1721 297.311 70.5575 295.531 71.5856L297.442 74.8605C299.802 73.4959 301.665 71.6249 303.001 69.2687L299.688 67.4076ZM295.551 71.5742C293.804 72.5559 291.747 73.0742 289.325 73.0742V76.8607C292.311 76.8607 295.029 76.2161 297.422 74.8718L295.551 71.5742ZM289.325 72.3746C291.365 72.3746 293.247 71.9022 294.911 70.9087L292.953 67.6618C291.947 68.2629 290.757 68.588 289.325 68.588V72.3746ZM294.911 70.9087C296.551 69.929 297.829 68.5724 298.723 66.8737L295.352 65.1167C294.777 66.2096 293.984 67.0464 292.953 67.6618L294.911 70.9087ZM298.706 66.9049C299.649 65.1915 300.091 63.2585 300.091 61.1602H296.287C296.287 62.7179 295.962 64.0082 295.369 65.086L298.706 66.9049ZM300.091 61.1602C300.091 59.0625 299.649 57.1295 298.706 55.416L295.369 57.235C295.962 58.3128 296.287 59.603 296.287 61.1602H300.091ZM298.731 55.4629C297.841 53.7306 296.563 52.3489 294.911 51.3625L292.953 54.6095C293.973 55.2177 294.765 56.0626 295.344 57.1877L298.731 55.4629ZM294.911 51.3625C293.247 50.3686 291.365 49.8962 289.325 49.8962V53.6827C290.757 53.6827 291.947 54.0079 292.953 54.6095L294.911 51.3625ZM289.325 49.8962C287.284 49.8962 285.402 50.3686 283.738 51.3625L285.696 54.6095C286.702 54.0079 287.892 53.6827 289.325 53.6827V49.8962ZM283.738 51.3625C282.094 52.3442 280.807 53.7159 279.884 55.4326L283.239 57.2184C283.852 56.0773 284.669 55.2225 285.696 54.6095L283.738 51.3625ZM279.893 55.416C278.95 57.1295 278.507 59.0625 278.507 61.1602H282.312C282.312 59.603 282.637 58.3128 283.23 57.235L279.893 55.416ZM278.507 61.1602C278.507 63.2585 278.95 65.1915 279.893 66.9049L283.23 65.086C282.637 64.0082 282.312 62.7179 282.312 61.1602H278.507ZM279.893 66.9049C280.818 68.5871 282.105 69.9337 283.738 70.9087L285.696 67.6618C284.657 67.0417 283.84 66.1949 283.23 65.086L279.893 66.9049ZM283.738 70.9087C285.402 71.9022 287.284 72.3746 289.325 72.3746V68.588C287.892 68.588 286.702 68.2629 285.696 67.6618L283.738 70.9087Z" fill="white"/>
<path d="M86.0659 20.0759C81.4647 23.9807 84.0718 5.79487 105.204 5.39539C126.337 4.99591 129.867 30.2626 129.93 41.1083C130.015 58.8805 125.569 100.896 89.6528 99.8302C80.0764 99.5429 68.2877 95.1751 66.1314 69.7469C66.1314 69.6949 66.1314 69.693 66.1314 69.5997C66.1314 68.1978 66.2722 45.3918 61.5439 49.1424C56.654 53.0123 53.5675 76.0568 51.3689 85.1355C49.5792 92.497 41.5956 115.387 21.1608 89.0058C21.1608 89.0058 18.5674 87.4141 25.149 96.4441C31.7306 105.474 54.0397 120.982 80.9782 116.18C107.917 111.377 121.658 91.186 121.658 91.186C121.658 91.186 124.321 87.2531 127.098 82.1209C127.274 81.8057 127.561 81.5672 127.904 81.4512C128.247 81.3352 128.621 81.3504 128.954 81.4938C129.286 81.6372 129.553 81.899 129.702 82.2274C129.851 82.5559 129.872 82.9279 129.762 83.2706C129.719 83.3875 129.672 83.5125 129.635 83.6493C124.009 104.464 100.821 118.563 100.821 118.563C100.821 118.563 70.9091 137.408 38.3046 121.837C5.70055 106.266 1.21913 75.5101 1.21913 75.5101C1.21913 75.5101 -4.16446 48.2313 7.69467 29.484C19.5543 10.7373 23.6481 26.5187 24.1693 30.5921C25.4591 41.1083 24.7686 68.0856 29.8559 72.6564C34.7111 77.0171 35.0212 68.8708 35.0354 68.1486C35.0354 68.1064 35.0354 68.0785 35.0354 68.0364C35.2185 66.2979 39.7917 25.0533 61.1497 2.83614C64.4612 -0.612935 69.7249 -4.87565 74.5378 16.5283C79.3507 37.9323 79.3859 46.0299 81.3168 55.7888C82.2751 60.6261 88.4971 80.7819 99.4683 63.7249C107.109 51.846 106.924 41.5286 106.473 36.7055C106.459 36.6506 106.443 36.5966 106.423 36.5441C106.423 34.4222 99.6514 8.53633 86.0659 20.0759Z" fill="url(#paint0_radial_902_613)"/>
<path d="M221.469 95.182C220.818 95.182 220.236 95.0344 219.725 94.739C219.223 94.4356 218.823 94.0252 218.526 93.5084C218.238 92.9915 218.093 92.4089 218.093 91.7609C218.093 91.1044 218.233 90.5179 218.513 90.0011C218.794 89.4842 219.177 89.0781 219.663 88.7827C220.15 88.4793 220.711 88.3274 221.345 88.3274C221.848 88.3274 222.31 88.4259 222.73 88.6228C223.159 88.8197 223.534 89.115 223.855 89.5088C223.946 89.6073 223.979 89.7138 223.954 89.8288C223.929 89.9353 223.859 90.0299 223.744 90.1118C223.654 90.1776 223.55 90.2022 223.435 90.1857C223.328 90.1611 223.233 90.0995 223.15 90.0011C222.672 89.4596 222.071 89.1889 221.345 89.1889C220.884 89.1889 220.476 89.2996 220.121 89.5211C219.775 89.7427 219.503 90.046 219.305 90.4318C219.116 90.8175 219.02 91.2606 219.02 91.7609C219.02 92.2531 219.124 92.6919 219.33 93.0776C219.536 93.4634 219.824 93.7668 220.195 93.9883C220.566 94.2098 220.991 94.3206 221.469 94.3206C221.79 94.3206 222.083 94.2794 222.347 94.1975C222.619 94.1071 222.858 93.9717 223.064 93.7914C223.163 93.7095 223.266 93.6641 223.373 93.6561C223.48 93.648 223.579 93.6807 223.67 93.7545C223.769 93.8449 223.822 93.9471 223.83 94.0622C223.847 94.1772 223.81 94.2756 223.719 94.3575C223.118 94.907 222.368 95.182 221.469 95.182ZM227.017 95.1205C226.688 95.1205 226.391 95.0301 226.127 94.8498C225.872 94.6694 225.67 94.419 225.521 94.0991C225.381 93.7791 225.311 93.4099 225.311 92.9915V85.9769C225.311 85.8373 225.352 85.7265 225.435 85.6447C225.525 85.5542 225.641 85.5093 225.781 85.5093C225.921 85.5093 226.032 85.5542 226.115 85.6447C226.205 85.7265 226.251 85.8373 226.251 85.9769V92.9915C226.251 93.3441 226.321 93.6314 226.461 93.8529C226.609 94.0745 226.795 94.1852 227.017 94.1852H227.326C227.45 94.1852 227.549 94.2302 227.623 94.3206C227.697 94.4025 227.734 94.5132 227.734 94.6529C227.734 94.7925 227.681 94.907 227.574 94.9974C227.475 95.0793 227.343 95.1205 227.178 95.1205H227.017ZM229.481 95.1205C229.332 95.1205 229.213 95.0793 229.122 94.9974C229.04 94.907 228.999 94.7882 228.999 94.6405V88.8689C228.999 88.7212 229.04 88.6062 229.122 88.5243C229.213 88.4339 229.332 88.389 229.481 88.389C229.621 88.389 229.732 88.4339 229.815 88.5243C229.906 88.6062 229.951 88.7212 229.951 88.8689V94.6405C229.951 94.7882 229.906 94.907 229.815 94.9974C229.732 95.0793 229.621 95.1205 229.481 95.1205ZM229.468 87.1091C229.287 87.1091 229.13 87.0433 228.999 86.9122C228.867 86.7811 228.801 86.6211 228.801 86.4323C228.801 86.2273 228.867 86.0673 228.999 85.9523C229.139 85.8292 229.3 85.7677 229.481 85.7677C229.654 85.7677 229.807 85.8292 229.938 85.9523C230.079 86.0673 230.149 86.2273 230.149 86.4323C230.149 86.6211 230.082 86.7811 229.951 86.9122C229.819 87.0433 229.658 87.1091 229.468 87.1091ZM235.145 95.182C234.493 95.182 233.912 95.0344 233.402 94.739C232.898 94.4356 232.499 94.0252 232.202 93.5084C231.913 92.9915 231.769 92.4089 231.769 91.7609C231.769 91.1044 231.909 90.5179 232.19 90.0011C232.47 89.4842 232.853 89.0781 233.34 88.7827C233.826 88.4793 234.386 88.3274 235.021 88.3274C235.524 88.3274 235.986 88.4259 236.406 88.6228C236.835 88.8197 237.21 89.115 237.532 89.5088C237.622 89.6073 237.655 89.7138 237.63 89.8288C237.606 89.9353 237.535 90.0299 237.42 90.1118C237.329 90.1776 237.226 90.2022 237.111 90.1857C237.004 90.1611 236.909 90.0995 236.827 90.0011C236.348 89.4596 235.747 89.1889 235.021 89.1889C234.56 89.1889 234.152 89.2996 233.797 89.5211C233.451 89.7427 233.179 90.046 232.981 90.4318C232.791 90.8175 232.697 91.2606 232.697 91.7609C232.697 92.2531 232.799 92.6919 233.006 93.0776C233.212 93.4634 233.5 93.7668 233.871 93.9883C234.242 94.2098 234.667 94.3206 235.145 94.3206C235.467 94.3206 235.759 94.2794 236.023 94.1975C236.295 94.1071 236.534 93.9717 236.74 93.7914C236.839 93.7095 236.942 93.6641 237.049 93.6561C237.156 93.648 237.255 93.6807 237.346 93.7545C237.445 93.8449 237.498 93.9471 237.507 94.0622C237.523 94.1772 237.486 94.2756 237.395 94.3575C236.793 94.907 236.043 95.182 235.145 95.182ZM240.014 92.8684L239.432 92.2408L243.661 88.4382C243.76 88.3478 243.863 88.3071 243.97 88.3151C244.077 88.3151 244.176 88.3643 244.267 88.4628C244.358 88.5612 244.399 88.6677 244.391 88.7827C244.391 88.8892 244.341 88.9839 244.242 89.0658L240.014 92.8684ZM239.704 95.1205C239.564 95.1205 239.449 95.0793 239.358 94.9974C239.275 94.907 239.235 94.7925 239.235 94.6529V85.9769C239.235 85.8373 239.275 85.7265 239.358 85.6447C239.449 85.5542 239.564 85.5093 239.704 85.5093C239.844 85.5093 239.956 85.5542 240.038 85.6447C240.129 85.7265 240.174 85.8373 240.174 85.9769V94.6529C240.174 94.7925 240.129 94.907 240.038 94.9974C239.956 95.0793 239.844 95.1205 239.704 95.1205ZM244.28 95.059C244.172 95.1494 244.061 95.1863 243.946 95.1697C243.83 95.1617 243.731 95.1039 243.649 94.9974L240.891 91.6255L241.559 91.0348L244.341 94.4437C244.424 94.5421 244.461 94.6486 244.453 94.7636C244.444 94.8701 244.387 94.9686 244.28 95.059ZM252.085 95.1205C251.648 95.1205 251.256 95.0178 250.91 94.8128C250.572 94.6079 250.304 94.3286 250.106 93.976C249.909 93.6149 249.81 93.205 249.81 92.7454V86.7276C249.81 86.588 249.851 86.4734 249.933 86.383C250.024 86.2926 250.139 86.2477 250.279 86.2477C250.419 86.2477 250.535 86.2926 250.626 86.383C250.716 86.4734 250.762 86.588 250.762 86.7276V92.7454C250.762 93.1638 250.885 93.5084 251.133 93.7791C251.38 94.0418 251.697 94.1729 252.085 94.1729H252.419C252.55 94.1729 252.657 94.2179 252.74 94.3083C252.822 94.3987 252.864 94.5132 252.864 94.6529C252.864 94.7925 252.814 94.907 252.715 94.9974C252.617 95.0793 252.493 95.1205 252.344 95.1205H252.085ZM249.006 89.4596C248.882 89.4596 248.779 89.4227 248.697 89.3488C248.614 89.267 248.573 89.1685 248.573 89.0535C248.573 88.9304 248.614 88.832 248.697 88.7581C248.779 88.6763 248.882 88.6351 249.006 88.6351H252.159C252.283 88.6351 252.385 88.6763 252.468 88.7581C252.55 88.832 252.592 88.9304 252.592 89.0535C252.592 89.1685 252.55 89.267 252.468 89.3488C252.385 89.4227 252.283 89.4596 252.159 89.4596H249.006ZM254.649 92.3762C254.5 92.3762 254.38 92.3312 254.29 92.2408C254.207 92.1504 254.166 92.0359 254.166 91.8962V85.9892C254.166 85.8416 254.207 85.7265 254.29 85.6447C254.38 85.5542 254.5 85.5093 254.649 85.5093C254.789 85.5093 254.9 85.5542 254.983 85.6447C255.073 85.7265 255.119 85.8416 255.119 85.9892V91.8962C255.119 92.0359 255.073 92.1504 254.983 92.2408C254.9 92.3312 254.789 92.3762 254.649 92.3762ZM259.966 95.1205C259.825 95.1205 259.71 95.0755 259.619 94.9851C259.529 94.8947 259.483 94.784 259.483 94.6529V91.4532C259.483 90.9444 259.385 90.526 259.187 90.198C258.997 89.87 258.733 89.6238 258.395 89.4596C258.065 89.2954 257.69 89.2135 257.27 89.2135C256.866 89.2135 256.499 89.2916 256.17 89.4473C255.848 89.603 255.592 89.8165 255.403 90.0872C255.213 90.358 255.119 90.6656 255.119 91.0102H254.438C254.455 90.4933 254.595 90.0337 254.859 89.6319C255.122 89.2215 255.473 88.9016 255.91 88.672C256.347 88.4339 256.833 88.3151 257.369 88.3151C257.954 88.3151 258.478 88.4382 258.939 88.6843C259.401 88.9224 259.764 89.275 260.028 89.7426C260.3 90.2103 260.436 90.7806 260.436 91.4532V94.6529C260.436 94.784 260.39 94.8947 260.3 94.9851C260.209 95.0755 260.097 95.1205 259.966 95.1205ZM254.649 95.1205C254.5 95.1205 254.38 95.0793 254.29 94.9974C254.207 94.907 254.166 94.7925 254.166 94.6529V88.8689C254.166 88.7212 254.207 88.6062 254.29 88.5243C254.38 88.4339 254.5 88.389 254.649 88.389C254.789 88.389 254.9 88.4339 254.983 88.5243C255.073 88.6062 255.119 88.7212 255.119 88.8689V94.6529C255.119 94.7925 255.073 94.907 254.983 94.9974C254.9 95.0793 254.789 95.1205 254.649 95.1205ZM265.354 95.182C264.686 95.182 264.092 95.0386 263.573 94.7513C263.062 94.456 262.658 94.0498 262.361 93.533C262.073 93.0161 261.928 92.4254 261.928 91.7609C261.928 91.0883 262.064 90.4976 262.336 89.9888C262.617 89.4719 263 89.0658 263.486 88.7705C263.973 88.4751 264.534 88.3274 265.168 88.3274C265.795 88.3274 266.339 88.4708 266.8 88.7581C267.27 89.0369 267.633 89.4269 267.888 89.9272C268.144 90.4275 268.272 90.9979 268.272 91.6378C268.272 91.7689 268.231 91.8759 268.148 91.9578C268.066 92.0316 267.959 92.0685 267.827 92.0685H262.571V91.2809H267.926L267.394 91.6624C267.402 91.1867 267.316 90.7598 267.134 90.3826C266.953 90.0053 266.693 89.71 266.355 89.4965C266.026 89.2831 265.63 89.1765 265.168 89.1765C264.698 89.1765 264.286 89.2873 263.932 89.5088C263.577 89.7303 263.301 90.038 263.103 90.4318C262.914 90.8175 262.819 91.2606 262.819 91.7609C262.819 92.2612 262.926 92.7042 263.14 93.09C263.363 93.4757 263.664 93.7791 264.043 94.0006C264.422 94.2221 264.859 94.3329 265.354 94.3329C265.65 94.3329 265.947 94.2837 266.244 94.1852C266.549 94.0787 266.792 93.9471 266.973 93.7914C267.064 93.7176 267.167 93.6807 267.283 93.6807C267.398 93.6726 267.497 93.701 267.579 93.7668C267.687 93.8653 267.74 93.9718 267.74 94.0868C267.749 94.2018 267.703 94.3002 267.604 94.3821C267.332 94.6117 266.986 94.8048 266.565 94.9605C266.145 95.1082 265.741 95.182 265.354 95.182ZM274.544 95.1205C274.437 95.1205 274.342 95.0916 274.259 95.0344C274.177 94.9771 274.119 94.9032 274.086 94.8128L272.157 89.0535C272.108 88.8485 272.112 88.6886 272.17 88.5735C272.228 88.4505 272.343 88.389 272.516 88.389C272.623 88.389 272.718 88.4178 272.8 88.4751C272.883 88.5324 272.945 88.6228 272.986 88.7458L274.704 93.976H274.432L276.028 88.7581C276.061 88.6517 276.114 88.5655 276.188 88.4997C276.271 88.4259 276.374 88.389 276.497 88.389C276.621 88.389 276.72 88.4216 276.794 88.4874C276.877 88.5532 276.934 88.6431 276.967 88.7581L278.488 93.8529H278.278L279.96 88.7458C280.042 88.5078 280.195 88.389 280.417 88.389C280.599 88.389 280.722 88.4585 280.788 88.5982C280.854 88.7293 280.854 88.8812 280.788 89.0535L278.859 94.8128C278.826 94.9032 278.769 94.9771 278.686 95.0344C278.612 95.0916 278.522 95.1205 278.414 95.1205C278.307 95.1205 278.208 95.0916 278.117 95.0344C278.035 94.9771 277.981 94.9032 277.957 94.8128L276.398 89.6688H276.547L274.989 94.8128C274.956 94.9113 274.899 94.9894 274.816 95.0467C274.733 95.0959 274.643 95.1205 274.544 95.1205ZM284.754 95.182C284.094 95.182 283.505 95.0344 282.986 94.739C282.466 94.4437 282.058 94.0375 281.762 93.5207C281.465 93.0038 281.316 92.4174 281.316 91.7609C281.316 91.0963 281.465 90.5056 281.762 89.9888C282.058 89.4719 282.466 89.0658 282.986 88.7705C283.505 88.4751 284.094 88.3274 284.754 88.3274C285.413 88.3274 285.999 88.4751 286.51 88.7705C287.029 89.0658 287.437 89.4719 287.734 89.9888C288.031 90.5056 288.183 91.0963 288.192 91.7609C288.192 92.4174 288.039 93.0038 287.734 93.5207C287.437 94.0375 287.029 94.4437 286.51 94.739C285.999 95.0344 285.413 95.182 284.754 95.182ZM284.754 94.3206C285.232 94.3206 285.66 94.2098 286.04 93.9883C286.419 93.7668 286.716 93.4634 286.93 93.0776C287.144 92.6919 287.252 92.2531 287.252 91.7609C287.252 91.2686 287.144 90.8299 286.93 90.4441C286.716 90.0503 286.419 89.7427 286.04 89.5211C285.66 89.2996 285.232 89.1889 284.754 89.1889C284.276 89.1889 283.847 89.2996 283.468 89.5211C283.089 89.7427 282.788 90.0503 282.565 90.4441C282.351 90.8299 282.244 91.2686 282.244 91.7609C282.244 92.2531 282.351 92.6919 282.565 93.0776C282.788 93.4634 283.089 93.7668 283.468 93.9883C283.847 94.2098 284.276 94.3206 284.754 94.3206ZM290.191 90.9733C290.216 90.4645 290.348 90.0091 290.587 89.6073C290.834 89.2054 291.152 88.8893 291.539 88.6597C291.935 88.4301 292.372 88.3151 292.85 88.3151C293.229 88.3151 293.522 88.3686 293.728 88.4751C293.934 88.5816 294.012 88.7378 293.963 88.9427C293.93 89.0658 293.872 89.1477 293.79 89.1889C293.715 89.23 293.621 89.2461 293.505 89.2381C293.398 89.23 293.275 89.2215 293.134 89.2135C292.673 89.1723 292.261 89.2215 291.898 89.3611C291.543 89.4923 291.259 89.6977 291.045 89.9765C290.839 90.2552 290.735 90.5875 290.735 90.9733H290.191ZM290.266 95.1205C290.117 95.1205 290.002 95.0793 289.919 94.9974C289.837 94.9155 289.796 94.8005 289.796 94.6529V88.8566C289.796 88.7089 289.837 88.5939 289.919 88.512C290.002 88.4301 290.117 88.389 290.266 88.389C290.414 88.389 290.529 88.4301 290.612 88.512C290.695 88.5939 290.735 88.7089 290.735 88.8566V94.6529C290.735 94.8005 290.695 94.9155 290.612 94.9974C290.529 95.0793 290.414 95.1205 290.266 95.1205ZM296.671 95.1205C296.341 95.1205 296.044 95.0301 295.78 94.8498C295.525 94.6694 295.323 94.419 295.174 94.0991C295.035 93.7791 294.964 93.4099 294.964 92.9915V85.9769C294.964 85.8373 295.006 85.7265 295.088 85.6447C295.179 85.5542 295.294 85.5093 295.434 85.5093C295.574 85.5093 295.686 85.5542 295.768 85.6447C295.859 85.7265 295.904 85.8373 295.904 85.9769V92.9915C295.904 93.3441 295.974 93.6314 296.114 93.8529C296.263 94.0745 296.448 94.1852 296.671 94.1852H296.98C297.103 94.1852 297.202 94.2302 297.277 94.3206C297.351 94.4025 297.388 94.5132 297.388 94.6529C297.388 94.7925 297.335 94.907 297.227 94.9974C297.128 95.0793 296.996 95.1205 296.831 95.1205H296.671ZM301.159 95.182C300.508 95.182 299.922 95.0344 299.403 94.739C298.884 94.4356 298.472 94.0252 298.166 93.5084C297.87 92.9915 297.721 92.4051 297.721 91.7486C297.721 91.1006 297.866 90.5179 298.154 90.0011C298.451 89.4842 298.851 89.0781 299.353 88.7827C299.857 88.4793 300.425 88.3274 301.06 88.3274C301.612 88.3274 302.111 88.4462 302.556 88.6843C303.001 88.9139 303.36 89.2215 303.632 89.6073V85.9892C303.632 85.8416 303.677 85.7265 303.768 85.6447C303.859 85.5542 303.974 85.5093 304.114 85.5093C304.254 85.5093 304.37 85.5542 304.46 85.6447C304.551 85.7265 304.596 85.8416 304.596 85.9892V91.7978C304.58 92.4377 304.419 93.0161 304.114 93.533C303.817 94.0418 303.409 94.4437 302.89 94.739C302.379 95.0344 301.802 95.182 301.159 95.182ZM301.159 94.3206C301.637 94.3206 302.061 94.2098 302.432 93.9883C302.812 93.7588 303.109 93.4511 303.323 93.0653C303.545 92.6796 303.657 92.2408 303.657 91.7486C303.657 91.2644 303.545 90.8299 303.323 90.4441C303.109 90.0503 302.812 89.7427 302.432 89.5211C302.061 89.2996 301.637 89.1889 301.159 89.1889C300.689 89.1889 300.265 89.2996 299.885 89.5211C299.506 89.7427 299.205 90.0503 298.982 90.4441C298.76 90.8299 298.649 91.2644 298.649 91.7486C298.649 92.2408 298.76 92.6796 298.982 93.0653C299.205 93.4511 299.506 93.7588 299.885 93.9883C300.265 94.2098 300.689 94.3206 301.159 94.3206Z" fill="#FF8DB5"/>
<defs>
<radialGradient id="paint0_radial_902_613" cx="0" cy="0" r="1" gradientUnits="userSpaceOnUse" gradientTransform="translate(47.8077 13.057) rotate(77.5618) scale(132.196 113.795)">
<stop stop-color="#FF3838"/>
<stop offset="0.479215" stop-color="#CA234B"/>
<stop offset="1" stop-color="#510D57"/>
</radialGradient>
</defs>
</svg>
