<svg width="211" height="84" viewBox="0 0 211 84" fill="none" xmlns="http://www.w3.org/2000/svg">
<path d="M107.103 48.7672C106.735 48.7672 106.39 48.6696 106.068 48.4745C105.769 48.2578 105.563 47.9978 105.448 47.6944L100.344 33.2591C100.16 32.5874 100.16 32.0456 100.344 31.6337C100.551 31.2 100.988 30.9833 101.654 30.9833C102.091 30.9833 102.448 31.1027 102.723 31.3411C103.022 31.5578 103.264 31.9372 103.448 32.479L107.793 45.2885H106.586L110.689 32.2188C110.804 31.8505 110.999 31.5578 111.275 31.3411C111.551 31.1027 111.931 30.9833 112.413 30.9833C112.873 30.9833 113.241 31.1027 113.517 31.3411C113.816 31.5578 114.011 31.8505 114.103 32.2188L117.448 44.508H116.931L121 32.479C121.322 31.4818 121.92 30.9833 122.793 30.9833C123.437 30.9833 123.873 31.2 124.103 31.6337C124.333 32.0456 124.322 32.5874 124.069 33.2591L118.965 47.6944C118.873 47.9978 118.678 48.2578 118.379 48.4745C118.08 48.6696 117.735 48.7672 117.344 48.7672C116.977 48.7672 116.632 48.6696 116.31 48.4745C115.988 48.2578 115.781 47.9978 115.69 47.6944L112.138 35.3075H112.482L108.758 47.6944C108.666 47.9978 108.459 48.2578 108.138 48.4745C107.839 48.6696 107.494 48.7672 107.103 48.7672ZM136.035 48.8971C134.127 48.8971 132.426 48.518 130.931 47.7592C129.46 46.979 128.299 45.917 127.449 44.5732C126.621 43.2077 126.207 41.6471 126.207 39.8914C126.207 38.1141 126.598 36.5538 127.38 35.21C128.184 33.8445 129.288 32.7825 130.69 32.0236C132.092 31.2435 133.702 30.8533 135.518 30.8533C137.311 30.8533 138.851 31.2327 140.139 31.9912C141.426 32.7281 142.403 33.7577 143.07 35.0797C143.76 36.3803 144.104 37.8866 144.104 39.5991C144.104 40.0109 143.955 40.3576 143.656 40.6394C143.357 40.8994 142.978 41.0294 142.518 41.0294H128.621V38.4284H142.415L141.001 39.3388C140.978 38.2552 140.748 37.2907 140.311 36.4455C139.874 35.5783 139.253 34.8957 138.449 34.3971C137.644 33.8985 136.667 33.6494 135.518 33.6494C134.207 33.6494 133.081 33.9201 132.138 34.4622C131.219 35.004 130.518 35.7518 130.035 36.7054C129.552 37.6374 129.311 38.6994 129.311 39.8914C129.311 41.0837 129.598 42.1457 130.173 43.0777C130.748 44.0098 131.541 44.7467 132.552 45.2885C133.564 45.8303 134.725 46.1013 136.035 46.1013C136.748 46.1013 137.472 45.9819 138.208 45.7435C138.966 45.4836 139.575 45.1909 140.035 44.8659C140.38 44.6275 140.748 44.508 141.139 44.508C141.553 44.4864 141.909 44.5948 142.208 44.8331C142.598 45.1585 142.805 45.516 142.828 45.9062C142.852 46.2962 142.668 46.6324 142.277 46.9139C141.495 47.4992 140.518 47.9759 139.346 48.3445C138.196 48.7128 137.093 48.8971 136.035 48.8971ZM150.384 48.1494L148.039 46.1989L159.763 31.601L162.074 33.5518L150.384 48.1494ZM149.349 48.7672C148.269 48.7672 147.728 48.2578 147.728 47.239C147.728 46.2205 148.269 45.7111 149.349 45.7111H161.108C162.188 45.7111 162.729 46.2205 162.729 47.239C162.729 48.2578 162.188 48.7672 161.108 48.7672H149.349ZM149.004 34.0396C147.924 34.0396 147.383 33.5302 147.383 32.5114C147.383 31.4926 147.924 30.9833 149.004 30.9833H160.763C161.844 30.9833 162.384 31.4926 162.384 32.5114C162.384 33.5302 161.844 34.0396 160.763 34.0396H149.004ZM176.696 48.8971C174.903 48.8971 173.294 48.5072 171.868 47.7268C170.443 46.9247 169.316 45.8411 168.489 44.4756C167.661 43.1101 167.236 41.5712 167.213 39.859V25.0339C167.213 24.5353 167.374 24.1343 167.696 23.8308C168.041 23.5273 168.466 23.3757 168.972 23.3757C169.5 23.3757 169.926 23.5273 170.248 23.8308C170.57 24.1343 170.73 24.5353 170.73 25.0339V33.8118C171.535 32.9016 172.501 32.1863 173.627 31.6661C174.777 31.1243 176.029 30.8533 177.386 30.8533C179.064 30.8533 180.57 31.2543 181.903 32.0564C183.237 32.8365 184.283 33.9093 185.041 35.2748C185.823 36.6187 186.213 38.1468 186.213 39.859C186.213 41.5712 185.788 43.1101 184.938 44.4756C184.11 45.8411 182.984 46.9247 181.558 47.7268C180.133 48.5072 178.512 48.8971 176.696 48.8971ZM176.696 45.9711C177.868 45.9711 178.915 45.7111 179.834 45.1909C180.754 44.6491 181.478 43.9122 182.007 42.9802C182.558 42.0481 182.834 41.0077 182.834 39.859C182.834 38.6886 182.558 37.6482 182.007 36.7378C181.478 35.8277 180.754 35.1124 179.834 34.5922C178.915 34.0504 177.868 33.7793 176.696 33.7793C175.546 33.7793 174.501 34.0504 173.558 34.5922C172.638 35.1124 171.914 35.8277 171.386 36.7378C170.857 37.6482 170.592 38.6886 170.592 39.859C170.592 41.0077 170.857 42.0481 171.386 42.9802C171.914 43.9122 172.638 44.6491 173.558 45.1909C174.501 45.7111 175.546 45.9711 176.696 45.9711ZM200.012 48.8971C198.149 48.8971 196.506 48.518 195.08 47.7592C193.655 46.979 192.528 45.917 191.701 44.5732C190.896 43.2077 190.494 41.6471 190.494 39.8914C190.494 38.1141 190.896 36.5538 191.701 35.21C192.528 33.8445 193.655 32.7825 195.08 32.0236C196.506 31.2435 198.149 30.8533 200.012 30.8533C201.851 30.8533 203.483 31.2435 204.908 32.0236C206.333 32.7825 207.448 33.8445 208.253 35.21C209.081 36.5538 209.495 38.1141 209.495 39.8914C209.495 41.6471 209.092 43.2077 208.288 44.5732C207.483 45.917 206.368 46.979 204.943 47.7592C203.517 48.518 201.873 48.8971 200.012 48.8971ZM200.012 45.9711C201.207 45.9711 202.264 45.7111 203.184 45.1909C204.103 44.6707 204.816 43.9554 205.322 43.045C205.851 42.1349 206.115 41.0837 206.115 39.8914C206.115 38.6994 205.851 37.6482 205.322 36.7378C204.816 35.8058 204.103 35.0797 203.184 34.5598C202.264 34.0396 201.207 33.7793 200.012 33.7793C198.816 33.7793 197.758 34.0396 196.839 34.5598C195.919 35.0797 195.195 35.8058 194.666 36.7378C194.138 37.6482 193.873 38.6994 193.873 39.8914C193.873 41.0837 194.138 42.1349 194.666 43.045C195.195 43.9554 195.919 44.6707 196.839 45.1909C197.758 45.7111 198.816 45.9711 200.012 45.9711Z" fill="white"/>
<path d="M106.068 48.4745L105.27 49.4535C105.299 49.4745 105.329 49.4945 105.36 49.5134L106.068 48.4745ZM105.448 47.6944L104.205 48.0849C104.208 48.0933 104.211 48.1013 104.214 48.1096L105.448 47.6944ZM100.344 33.2592L99.076 33.5679C99.0835 33.5954 99.0921 33.6228 99.1016 33.6497L100.344 33.2592ZM100.344 31.6337L99.1497 31.1268C99.1454 31.1361 99.1412 31.1454 99.1369 31.1543L100.344 31.6337ZM102.723 31.3411L101.838 32.2512C101.866 32.2753 101.895 32.2981 101.925 32.3197L102.723 31.3411ZM107.793 45.2885V46.5234C108.211 46.5234 108.604 46.3351 108.85 46.0165C109.097 45.6982 109.168 45.2879 109.04 44.9122L107.793 45.2885ZM106.586 45.2885L105.33 44.9378C105.212 45.3114 105.289 45.7152 105.536 46.0273C105.784 46.3394 106.173 46.5234 106.586 46.5234V45.2885ZM110.689 32.2188L111.945 32.5695L111.946 32.5673L110.689 32.2188ZM111.276 31.3411L112.114 32.2898C112.13 32.2771 112.145 32.2645 112.161 32.2512L111.276 31.3411ZM113.517 31.3411L112.632 32.2512C112.66 32.2753 112.688 32.2981 112.718 32.3197L113.517 31.3411ZM114.103 32.2188L112.828 32.5016C112.83 32.5096 112.832 32.5176 112.834 32.5256L114.103 32.2188ZM117.448 44.5081V45.743C117.853 45.743 118.235 45.5667 118.483 45.2651C118.731 44.9637 118.817 44.5707 118.717 44.2012L117.448 44.5081ZM116.931 44.5081L115.683 44.133C115.556 44.5084 115.627 44.9187 115.873 45.2366C116.12 45.5549 116.513 45.743 116.931 45.743V44.5081ZM121 32.479L122.248 32.8541C122.25 32.8489 122.251 32.8436 122.253 32.8384L121 32.479ZM124.103 31.6337L122.932 32.1857C122.936 32.1935 122.94 32.2012 122.945 32.2089L124.103 31.6337ZM124.069 33.2592L122.835 32.8461C122.832 32.8538 122.829 32.8612 122.826 32.8686L124.069 33.2592ZM118.965 47.6944L117.723 47.3038C117.717 47.3208 117.711 47.3378 117.706 47.3551L118.965 47.6944ZM118.379 48.4745L119.125 49.4899C119.143 49.4782 119.161 49.4658 119.178 49.4535L118.379 48.4745ZM116.31 48.4745L115.549 49.4794C115.566 49.4911 115.584 49.5026 115.602 49.5134L116.31 48.4745ZM115.69 47.6944L114.425 48.0167C114.427 48.0222 114.428 48.0278 114.43 48.0337L115.69 47.6944ZM112.138 35.3075V34.0727C111.73 34.0727 111.345 34.2514 111.098 34.5567C110.85 34.8621 110.767 35.2588 110.873 35.6298L112.138 35.3075ZM112.482 35.3075L113.743 35.6444C113.855 35.2717 113.775 34.8716 113.527 34.5629C113.28 34.2539 112.893 34.0727 112.482 34.0727V35.3075ZM108.758 47.6944L110.017 48.0337L110.018 48.0312L108.758 47.6944ZM108.138 48.4745L108.883 49.4899C108.888 49.4865 108.894 49.4831 108.899 49.4794L108.138 48.4745ZM107.103 47.5323C106.997 47.5323 106.896 47.5082 106.777 47.436L105.36 49.5134C105.884 49.831 106.473 50.0021 107.103 50.0021V47.5323ZM106.867 47.4959C106.746 47.4082 106.703 47.3363 106.681 47.2788L104.214 48.1096C104.422 48.6591 104.793 49.1077 105.27 49.4535L106.867 47.4959ZM106.69 47.3038L101.587 32.8686L99.1016 33.6497L104.205 48.0849L106.69 47.3038ZM101.612 32.9508C101.463 32.4046 101.525 32.1712 101.551 32.1129L99.1369 31.1543C98.7954 31.9196 98.8576 32.7702 99.076 33.5679L101.612 32.9508ZM101.538 32.1404C101.535 32.1468 101.524 32.1675 101.5 32.1916C101.476 32.2163 101.452 32.2314 101.437 32.2388C101.424 32.245 101.43 32.2398 101.465 32.233C101.5 32.2259 101.562 32.2182 101.654 32.2182V29.7484C100.671 29.7484 99.6392 30.1016 99.1497 31.1268L101.538 32.1404ZM101.654 32.2182C101.746 32.2182 101.794 32.2308 101.811 32.2367C101.826 32.2413 101.832 32.2453 101.838 32.2512L103.609 30.4307C103.051 29.9491 102.361 29.7484 101.654 29.7484V32.2182ZM101.925 32.3197C101.917 32.3139 101.949 32.3352 102.005 32.4235C102.062 32.5121 102.131 32.6507 102.2 32.8554L104.695 32.1027C104.475 31.4535 104.124 30.799 103.522 30.3621L101.925 32.3197ZM102.2 32.8551L106.545 45.6645L109.04 44.9122L104.695 32.1027L102.2 32.8551ZM107.793 44.0536H106.586V46.5234H107.793V44.0536ZM107.842 45.6389L111.945 32.5695L109.433 31.8684L105.33 44.9378L107.842 45.6389ZM111.946 32.5673C111.998 32.4009 112.063 32.3293 112.114 32.2898L110.437 30.3924C109.936 30.786 109.611 31.2997 109.433 31.8705L111.946 32.5673ZM112.161 32.2512C112.154 32.2574 112.154 32.2527 112.181 32.2444C112.213 32.2342 112.285 32.2182 112.413 32.2182V29.7484C111.701 29.7484 110.972 29.9284 110.39 30.4307L112.161 32.2512ZM112.413 32.2182C112.524 32.2182 112.584 32.2327 112.608 32.2407C112.629 32.2472 112.632 32.2512 112.632 32.2512L114.402 30.4307C113.832 29.9382 113.122 29.7484 112.413 29.7484V32.2182ZM112.718 32.3197C112.762 32.3515 112.8 32.3907 112.828 32.5016L115.378 31.936C115.222 31.3102 114.87 30.7641 114.316 30.3621L112.718 32.3197ZM112.834 32.5256L116.179 44.8152L118.717 44.2012L115.372 31.9119L112.834 32.5256ZM117.448 43.2732H116.931V45.743H117.448V43.2732ZM118.179 44.8835L122.248 32.8541L119.752 32.1036L115.683 44.133L118.179 44.8835ZM122.253 32.8384C122.37 32.4778 122.497 32.3327 122.557 32.2821C122.593 32.2521 122.643 32.2182 122.793 32.2182V29.7484C122.069 29.7484 121.384 29.9639 120.822 30.4325C120.285 30.8805 119.952 31.4831 119.747 32.1194L122.253 32.8384ZM122.793 32.2182C122.965 32.2182 123.012 32.2478 122.993 32.2388C122.983 32.2336 122.967 32.2231 122.95 32.2074C122.935 32.1919 122.93 32.182 122.932 32.1857L125.275 31.0814C124.764 30.1167 123.783 29.7484 122.793 29.7484V32.2182ZM122.945 32.2089C122.945 32.2089 122.945 32.2098 122.946 32.2123C122.947 32.2148 122.948 32.2194 122.95 32.2274C122.954 32.2432 122.959 32.274 122.958 32.3241C122.956 32.4284 122.928 32.5982 122.835 32.8461L125.303 33.6722C125.614 32.847 125.735 31.9057 125.263 31.0586L122.945 32.2089ZM122.826 32.8686L117.723 47.3038L120.208 48.0849L125.312 33.6497L122.826 32.8686ZM117.706 47.3551C117.701 47.3727 117.687 47.419 117.581 47.4959L119.178 49.4535C119.669 49.0969 120.046 48.623 120.225 48.0337L117.706 47.3551ZM117.634 47.4591C117.57 47.5005 117.49 47.5323 117.344 47.5323V50.0021C117.981 50.0021 118.59 49.8388 119.125 49.4899L117.634 47.4591ZM117.344 47.5323C117.238 47.5323 117.138 47.5082 117.018 47.436L115.602 49.5134C116.126 49.831 116.715 50.0021 117.344 50.0021V47.5323ZM117.071 47.4696C117.004 47.4242 116.973 47.3912 116.961 47.3761C116.951 47.3628 116.95 47.3576 116.949 47.3551L114.43 48.0337C114.617 48.6523 115.031 49.1312 115.549 49.4794L117.071 47.4696ZM116.954 47.3721L113.402 34.9852L110.873 35.6298L114.425 48.0167L116.954 47.3721ZM112.138 36.5424H112.482V34.0727H112.138V36.5424ZM111.222 34.9707L107.498 47.3576L110.018 48.0312L113.743 35.6444L111.222 34.9707ZM107.499 47.3551C107.498 47.3576 107.497 47.3628 107.486 47.3761C107.474 47.3912 107.444 47.4242 107.376 47.4696L108.899 49.4794C109.416 49.1312 109.83 48.6523 110.017 48.0337L107.499 47.3551ZM107.392 47.4591C107.329 47.5005 107.249 47.5323 107.103 47.5323V50.0021C107.739 50.0021 108.348 49.8388 108.883 49.4899L107.392 47.4591ZM130.931 47.7592L130.289 48.8357C130.296 48.8394 130.303 48.8431 130.311 48.8465L130.931 47.7592ZM127.449 44.5732L126.311 45.186C126.316 45.1925 126.32 45.1993 126.324 45.2061L127.449 44.5732ZM127.38 35.21L126.235 34.6101C126.233 34.6123 126.232 34.6141 126.231 34.616L127.38 35.21ZM130.69 32.0237L131.342 33.0949C131.347 33.0925 131.351 33.0897 131.356 33.0872L130.69 32.0237ZM140.139 31.9913L139.444 33.0384C139.449 33.0412 139.454 33.044 139.459 33.0468L140.139 31.9913ZM143.07 35.0797L141.887 35.6101C141.89 35.6175 141.894 35.6249 141.898 35.632L143.07 35.0797ZM143.656 40.6395L144.544 41.5468C144.557 41.5357 144.57 41.5243 144.582 41.5125L143.656 40.6395ZM128.621 41.0294H127.311C127.311 41.7114 127.898 42.2643 128.621 42.2643V41.0294ZM128.621 38.4284V37.1935C127.898 37.1935 127.311 37.7464 127.311 38.4284H128.621ZM142.415 38.4284L143.153 39.4484C143.628 39.1428 143.836 38.5815 143.666 38.0641C143.497 37.5467 142.989 37.1935 142.415 37.1935V38.4284ZM141.001 39.3388L139.691 39.3635C139.701 39.817 139.973 40.2289 140.401 40.4366C140.828 40.6444 141.342 40.6145 141.74 40.3585L141.001 39.3388ZM140.311 36.4455L139.128 36.9752C139.13 36.979 139.132 36.9827 139.134 36.9861L140.311 36.4455ZM132.138 34.4623L131.457 33.4077C131.452 33.4101 131.448 33.4126 131.444 33.4151L132.138 34.4623ZM130.035 36.7054L131.212 37.2472C131.214 37.2441 131.215 37.2408 131.217 37.2374L130.035 36.7054ZM138.208 45.7436L138.633 46.9115C138.641 46.909 138.648 46.9065 138.655 46.9041L138.208 45.7436ZM140.035 44.8659L139.261 43.8699C139.257 43.8727 139.253 43.8752 139.249 43.878L140.035 44.8659ZM141.139 44.5081V45.743C141.163 45.743 141.187 45.7423 141.211 45.7411L141.139 44.5081ZM142.208 44.8331L143.074 43.9073C143.068 43.9017 143.061 43.8962 143.054 43.8906L142.208 44.8331ZM142.277 46.9139L141.481 45.9331C141.475 45.9378 141.468 45.9424 141.462 45.947L142.277 46.9139ZM139.346 48.3446L138.931 47.1729C138.929 47.1739 138.926 47.1745 138.924 47.1754L139.346 48.3446ZM136.035 47.6623C134.317 47.6623 132.833 47.3224 131.553 46.6722L130.311 48.8465C132.019 49.7137 133.938 50.132 136.035 50.132V47.6623ZM131.573 46.683C130.298 46.0066 129.305 45.0959 128.573 43.9403L126.324 45.2061C127.294 46.738 128.623 47.9515 130.289 48.8357L131.573 46.683ZM128.586 43.9604C127.884 42.8027 127.517 41.4579 127.517 39.8914H124.897C124.897 41.8364 125.358 43.6128 126.311 45.186L128.586 43.9604ZM127.517 39.8914C127.517 38.2886 127.868 36.9382 128.528 35.8037L126.231 34.616C125.328 36.1692 124.897 37.94 124.897 39.8914H127.517ZM128.525 35.8095C129.217 34.6355 130.152 33.7386 131.342 33.0949L130.038 30.9527C128.424 31.8261 127.152 33.0533 126.235 34.6101L128.525 35.8095ZM131.356 33.0872C132.534 32.4318 133.908 32.0882 135.518 32.0882V29.6184C133.495 29.6184 131.651 30.0553 130.024 30.9604L131.356 33.0872ZM135.518 32.0882C137.111 32.0882 138.401 32.4232 139.444 33.0384L140.833 30.9441C139.302 30.042 137.511 29.6184 135.518 29.6184V32.0882ZM139.459 33.0468C140.521 33.6546 141.326 34.4984 141.887 35.6101L144.253 34.5496C143.48 33.0171 142.332 31.8017 140.818 30.9357L139.459 33.0468ZM141.898 35.632C142.482 36.7332 142.795 38.0444 142.795 39.5991H145.414C145.414 37.7288 145.037 36.0275 144.241 34.5277L141.898 35.632ZM142.795 39.5991C142.795 39.6954 142.774 39.7244 142.73 39.7661L144.582 41.5125C145.136 40.9908 145.414 40.3261 145.414 39.5991H142.795ZM142.768 39.7318C142.743 39.7537 142.695 39.7945 142.518 39.7945V42.2643C143.261 42.2643 143.972 42.0451 144.544 41.5468L142.768 39.7318ZM142.518 39.7945H128.621V42.2643H142.518V39.7945ZM129.931 41.0294V38.4284H127.311V41.0294H129.931ZM128.621 39.6633H142.415V37.1935H128.621V39.6633ZM141.676 37.4087L140.262 38.3191L141.74 40.3585L143.153 39.4484L141.676 37.4087ZM142.31 39.3141C142.284 38.0786 142.02 36.9336 141.489 35.9046L139.134 36.9861C139.476 37.6476 139.671 38.4315 139.691 39.3635L142.31 39.3141ZM141.494 35.9154C140.961 34.8565 140.185 33.9952 139.168 33.3651L137.73 35.4292C138.322 35.7962 138.788 36.3004 139.128 36.9752L141.494 35.9154ZM139.168 33.3651C138.112 32.7103 136.873 32.4145 135.518 32.4145V34.8843C136.462 34.8843 137.177 35.0868 137.73 35.4292L139.168 33.3651ZM135.518 32.4145C134.012 32.4145 132.64 32.7272 131.457 33.4077L132.82 35.5165C133.522 35.113 134.403 34.8843 135.518 34.8843V32.4145ZM131.444 33.4151C130.306 34.0856 129.439 35.0155 128.853 36.1735L131.217 37.2374C131.596 36.4881 132.132 35.9222 132.833 35.5094L131.444 33.4151ZM128.858 36.1636C128.276 37.2877 128.001 38.5399 128.001 39.8914H130.621C130.621 38.8591 130.829 37.9869 131.212 37.2472L128.858 36.1636ZM128.001 39.8914C128.001 41.2779 128.338 42.5585 129.041 43.6983L131.305 42.4569C130.859 41.733 130.621 40.8892 130.621 39.8914H128.001ZM129.041 43.6983C129.734 44.8226 130.696 45.7142 131.905 46.3622L133.199 44.2148C132.386 43.7789 131.761 43.1969 131.305 42.4569L129.041 43.6983ZM131.905 46.3622C133.138 47.0226 134.527 47.3363 136.035 47.3363V44.8665C134.922 44.8665 133.99 44.638 133.199 44.2148L131.905 46.3622ZM136.035 47.3363C136.905 47.3363 137.773 47.1902 138.633 46.9115L137.782 44.5757C137.171 44.7739 136.59 44.8665 136.035 44.8665V47.3363ZM138.655 46.9041C139.49 46.6179 140.226 46.2746 140.821 45.8538L139.249 43.878C138.925 44.1073 138.442 44.3491 137.76 44.5831L138.655 46.9041ZM140.81 45.8615C140.952 45.763 141.053 45.743 141.139 45.743V43.2732C140.443 43.2732 139.808 43.4917 139.261 43.8699L140.81 45.8615ZM141.211 45.7411C141.275 45.7377 141.305 45.7457 141.314 45.7485C141.322 45.751 141.337 45.7559 141.362 45.776L143.054 43.8906C142.483 43.4356 141.793 43.2371 141.066 43.2753L141.211 45.7411ZM141.341 45.7593C141.445 45.8458 141.489 45.9072 141.506 45.9368C141.52 45.9615 141.52 45.9705 141.521 45.9748L144.136 45.8377C144.089 45.0375 143.656 44.3917 143.074 43.9073L141.341 45.7593ZM141.521 45.9748C141.52 45.9705 141.52 45.9563 141.525 45.9359C141.529 45.9155 141.536 45.8976 141.544 45.8843C141.558 45.8578 141.557 45.8785 141.481 45.9331L143.072 47.895C143.734 47.4184 144.188 46.7167 144.136 45.8377L141.521 45.9748ZM141.462 45.947C140.825 46.424 139.992 46.8398 138.931 47.1729L139.76 49.5161C141.044 49.1123 142.165 48.5745 143.091 47.8812L141.462 45.947ZM138.924 47.1754C137.89 47.5067 136.93 47.6623 136.035 47.6623V50.132C137.255 50.132 138.502 49.9193 139.767 49.5137L138.924 47.1754ZM150.384 48.1494L149.517 49.0753C149.791 49.3028 150.152 49.4127 150.515 49.3781C150.878 49.3436 151.209 49.1679 151.429 48.8935L150.384 48.1494ZM148.039 46.1989L146.994 45.4534C146.581 45.9683 146.658 46.6972 147.172 47.1248L148.039 46.1989ZM159.763 31.601L160.637 30.6813C160.364 30.451 160.002 30.3387 159.637 30.372C159.273 30.405 158.94 30.5804 158.719 30.8558L159.763 31.601ZM162.074 33.5518L163.119 34.2959C163.529 33.7834 163.455 33.06 162.947 32.6318L162.074 33.5518ZM151.25 47.2236L148.905 45.2728L147.172 47.1248L149.517 49.0753L151.25 47.2236ZM149.083 46.9442L160.807 32.3466L158.719 30.8558L146.994 45.4534L149.083 46.9442ZM158.889 32.521L161.2 34.4718L162.947 32.6318L160.637 30.6813L158.889 32.521ZM161.028 32.8078L149.338 47.4054L151.429 48.8935L163.119 34.2959L161.028 32.8078ZM149.349 47.5323C149.011 47.5323 148.997 47.4533 149.06 47.5119C149.122 47.5706 149.038 47.5582 149.038 47.239H146.418C146.418 47.9389 146.605 48.6903 147.207 49.2584C147.81 49.8264 148.607 50.0021 149.349 50.0021V47.5323ZM149.038 47.239C149.038 46.9201 149.122 46.9078 149.06 46.9664C148.997 47.0248 149.011 46.946 149.349 46.946V44.4763C148.607 44.4763 147.81 44.6519 147.207 45.22C146.605 45.7877 146.418 46.5394 146.418 47.239H149.038ZM149.349 46.946H161.108V44.4763H149.349V46.946ZM161.108 46.946C161.446 46.946 161.46 47.0248 161.397 46.9664C161.335 46.9078 161.419 46.9201 161.419 47.239H164.039C164.039 46.5394 163.852 45.7877 163.25 45.22C162.648 44.6519 161.85 44.4763 161.108 44.4763V46.946ZM161.419 47.239C161.419 47.5582 161.335 47.5706 161.397 47.5119C161.46 47.4533 161.446 47.5323 161.108 47.5323V50.0021C161.85 50.0021 162.648 49.8264 163.25 49.2584C163.852 48.6903 164.039 47.9389 164.039 47.239H161.419ZM161.108 47.5323H149.349V50.0021H161.108V47.5323ZM149.004 32.8047C148.666 32.8047 148.653 32.7257 148.715 32.7844C148.777 32.843 148.693 32.8304 148.693 32.5114H146.074C146.074 33.211 146.26 33.9627 146.862 34.5308C147.465 35.0985 148.262 35.2745 149.004 35.2745V32.8047ZM148.693 32.5114C148.693 32.1925 148.777 32.1799 148.715 32.2385C148.653 32.2972 148.666 32.2182 149.004 32.2182V29.7484C148.262 29.7484 147.465 29.9244 146.862 30.4921C146.26 31.0601 146.074 31.8119 146.074 32.5114H148.693ZM149.004 32.2182H160.763V29.7484H149.004V32.2182ZM160.763 32.2182C161.102 32.2182 161.115 32.2972 161.053 32.2385C160.99 32.1799 161.074 32.1925 161.074 32.5114H163.694C163.694 31.8119 163.507 31.0601 162.905 30.4921C162.302 29.9244 161.505 29.7484 160.763 29.7484V32.2182ZM161.074 32.5114C161.074 32.8304 160.99 32.843 161.053 32.7844C161.115 32.7257 161.102 32.8047 160.763 32.8047V35.2745C161.505 35.2745 162.302 35.0985 162.905 34.5308C163.507 33.9627 163.694 33.211 163.694 32.5114H161.074ZM160.763 32.8047H149.004V35.2745H160.763V32.8047ZM171.868 47.7268L171.197 48.7873C171.202 48.7897 171.206 48.7922 171.211 48.7947L171.868 47.7268ZM167.213 39.859H165.903C165.903 39.8643 165.903 39.8695 165.903 39.8748L167.213 39.859ZM167.696 23.8308L166.802 22.9281C166.791 22.9377 166.78 22.9476 166.77 22.9577L167.696 23.8308ZM170.73 33.8118H169.421C169.421 34.3317 169.766 34.796 170.284 34.9729C170.803 35.1501 171.384 35.0019 171.737 34.6024L170.73 33.8118ZM173.627 31.6662L174.203 32.7751C174.206 32.7736 174.21 32.7723 174.213 32.7708L173.627 31.6662ZM181.903 32.0564L181.199 33.0974C181.203 33.1002 181.208 33.103 181.212 33.1054L181.903 32.0564ZM185.041 35.2748L183.881 35.8478C183.885 35.8549 183.889 35.8617 183.893 35.8688L185.041 35.2748ZM184.938 44.4756L183.808 43.8502C183.806 43.8545 183.803 43.8588 183.801 43.8631L184.938 44.4756ZM181.558 47.7268L182.216 48.7947C182.221 48.7922 182.225 48.7897 182.229 48.7873L181.558 47.7268ZM179.834 45.191L180.508 46.2499C180.515 46.2459 180.521 46.2422 180.528 46.2381L179.834 45.191ZM182.007 42.9802L180.863 42.3782C180.859 42.3847 180.855 42.3912 180.852 42.3976L182.007 42.9802ZM182.007 36.7378L180.858 37.3312C180.862 37.3377 180.866 37.3442 180.87 37.3507L182.007 36.7378ZM179.834 34.5922L179.14 35.6394C179.147 35.6434 179.153 35.6471 179.16 35.6512L179.834 34.5922ZM173.558 34.5922L174.232 35.6512C174.235 35.6496 174.237 35.6481 174.24 35.6465L173.558 34.5922ZM173.558 45.191L172.864 46.2381C172.874 46.2443 172.885 46.2505 172.896 46.2567L173.558 45.191ZM176.696 47.6623C175.113 47.6623 173.734 47.3202 172.526 46.6589L171.211 48.7947C172.853 49.694 174.693 50.132 176.696 50.132V47.6623ZM172.54 46.6663C171.309 45.9739 170.343 45.0449 169.626 43.8631L167.352 45.0885C168.291 46.6373 169.577 47.8759 171.197 48.7873L172.54 46.6663ZM169.626 43.8631C168.919 42.6956 168.543 41.3653 168.523 39.8433L165.903 39.8748C165.929 41.7774 166.404 43.5251 167.352 45.0885L169.626 43.8631ZM168.523 39.859V25.0339H165.903V39.859H168.523ZM168.523 25.0339C168.523 24.8054 168.586 24.7385 168.622 24.7042L166.77 22.9577C166.162 23.5304 165.903 24.2652 165.903 25.0339H168.523ZM168.589 24.7335C168.673 24.66 168.772 24.6106 168.972 24.6106V22.1409C168.161 22.1409 167.408 22.3949 166.802 22.9281L168.589 24.7335ZM168.972 24.6106C169.214 24.6106 169.285 24.6699 169.321 24.7042L171.174 22.9577C170.567 22.3851 169.787 22.1409 168.972 22.1409V24.6106ZM169.321 24.7042C169.358 24.7385 169.421 24.8054 169.421 25.0339H172.04C172.04 24.2652 171.781 23.5304 171.174 22.9577L169.321 24.7042ZM169.421 25.0339V33.8118H172.04V25.0339H169.421ZM171.737 34.6024C172.424 33.8254 173.243 33.2187 174.203 32.7751L173.051 30.5572C171.759 31.154 170.647 31.9777 169.724 33.0215L171.737 34.6024ZM174.213 32.7708C175.17 32.3194 176.221 32.0882 177.386 32.0882V29.6184C175.838 29.6184 174.383 29.9293 173.041 30.5616L174.213 32.7708ZM177.386 32.0882C178.83 32.0882 180.089 32.4299 181.199 33.0974L182.608 31.0151C181.051 30.0787 179.298 29.6184 177.386 29.6184V32.0882ZM181.212 33.1054C182.338 33.7646 183.226 34.6694 183.881 35.8478L186.201 34.7018C185.339 33.1496 184.135 31.9088 182.594 31.007L181.212 33.1054ZM183.893 35.8688C184.557 37.0098 184.904 38.3296 184.904 39.859H187.523C187.523 37.9641 187.089 36.2275 186.19 34.6811L183.893 35.8688ZM184.904 39.859C184.904 41.3699 184.531 42.6897 183.808 43.8502L186.067 45.1011C187.046 43.5306 187.523 41.7728 187.523 39.859H184.904ZM183.801 43.8631C183.084 45.0449 182.118 45.9739 180.887 46.6663L182.229 48.7873C183.85 47.8759 185.136 46.6373 186.075 45.0885L183.801 43.8631ZM180.901 46.6589C179.695 47.319 178.305 47.6623 176.696 47.6623V50.132C178.719 50.132 180.571 49.6952 182.216 48.7947L180.901 46.6589ZM176.696 47.206C178.083 47.206 179.366 46.8957 180.508 46.2499L179.16 44.132C178.463 44.5266 177.654 44.7362 176.696 44.7362V47.206ZM180.528 46.2381C181.649 45.5781 182.529 44.6782 183.162 43.5624L180.852 42.3976C180.427 43.1463 179.859 43.7202 179.14 44.1438L180.528 46.2381ZM183.15 43.5819C183.819 42.452 184.144 41.202 184.144 39.859H181.524C181.524 40.8136 181.298 41.6444 180.863 42.3782L183.15 43.5819ZM184.144 39.859C184.144 38.4994 183.821 37.2432 183.144 36.1253L180.87 37.3507C181.295 38.0533 181.524 38.8779 181.524 39.859H184.144ZM183.155 36.1448C182.518 35.0476 181.632 34.1693 180.508 33.5333L179.16 35.6512C179.875 36.0553 180.438 36.6076 180.858 37.3312L183.155 36.1448ZM180.528 33.545C179.384 32.8705 178.093 32.5445 176.696 32.5445V35.0143C177.644 35.0143 178.445 35.23 179.14 35.6394L180.528 33.545ZM176.696 32.5445C175.317 32.5445 174.033 32.873 172.876 33.538L174.24 35.6465C174.969 35.2279 175.777 35.0143 176.696 35.0143V32.5445ZM172.884 33.5333C171.76 34.1693 170.874 35.0476 170.237 36.1448L172.534 37.3312C172.955 36.6076 173.517 36.0553 174.232 35.6512L172.884 33.5333ZM170.237 36.1448C169.59 37.2593 169.283 38.5081 169.283 39.859H171.902C171.902 38.8689 172.124 38.0373 172.534 37.3312L170.237 36.1448ZM169.283 39.859C169.283 41.193 169.591 42.4362 170.231 43.5624L172.54 42.3976C172.122 41.6601 171.902 40.8225 171.902 39.859H169.283ZM170.231 43.5624C170.864 44.6782 171.743 45.5781 172.864 46.2381L174.252 44.1438C173.533 43.7202 172.965 43.1463 172.54 42.3976L170.231 43.5624ZM172.896 46.2567C174.05 46.8936 175.327 47.206 176.696 47.206V44.7362C175.767 44.7362 174.951 44.5287 174.22 44.1252L172.896 46.2567ZM195.08 47.7592L194.423 48.8274C194.427 48.8299 194.432 48.8323 194.436 48.8348L195.08 47.7592ZM191.701 44.5732L190.556 45.173C190.56 45.1798 190.564 45.1866 190.568 45.1934L191.701 44.5732ZM191.701 35.21L190.564 34.5972C190.562 34.599 190.561 34.6009 190.56 34.6027L191.701 35.21ZM195.08 32.0237L195.724 33.0992C195.729 33.0968 195.733 33.0943 195.738 33.0918L195.08 32.0237ZM204.908 32.0237L204.25 33.0918C204.255 33.0943 204.26 33.0968 204.264 33.0992L204.908 32.0237ZM208.253 35.21L207.108 35.8095C207.112 35.8163 207.116 35.8231 207.12 35.8299L208.253 35.21ZM208.288 44.5732L209.428 45.1802C209.43 45.1777 209.431 45.1755 209.433 45.173L208.288 44.5732ZM204.943 47.7592L205.586 48.8348C205.591 48.8323 205.596 48.8299 205.6 48.8274L204.943 47.7592ZM205.322 43.045L204.173 42.452C204.169 42.4588 204.165 42.4656 204.162 42.472L205.322 43.045ZM205.322 36.7378L204.156 37.3003C204.161 37.3108 204.167 37.321 204.173 37.3312L205.322 36.7378ZM194.666 36.7378L195.815 37.3312C195.817 37.3275 195.819 37.3238 195.822 37.3204L194.666 36.7378ZM200.012 47.6623C198.343 47.6623 196.927 47.3242 195.724 46.6839L194.436 48.8348C196.084 49.7116 197.955 50.132 200.012 50.132V47.6623ZM195.738 46.6913C194.509 46.0189 193.547 45.1113 192.834 43.953L190.568 45.1934C191.51 46.7228 192.8 47.9392 194.423 48.8274L195.738 46.6913ZM192.846 43.9734C192.162 42.8132 191.804 41.4638 191.804 39.8914H189.184C189.184 41.8305 189.63 43.6023 190.556 45.173L192.846 43.9734ZM191.804 39.8914C191.804 38.2944 192.164 36.949 192.841 35.8169L190.56 34.6027C189.629 36.1584 189.184 37.9341 189.184 39.8914H191.804ZM192.838 35.8225C193.551 34.6466 194.508 33.746 195.724 33.0992L194.436 30.9484C192.801 31.8187 191.506 33.0421 190.564 34.5972L192.838 35.8225ZM195.738 33.0918C196.938 32.4343 198.35 32.0882 200.012 32.0882V29.6184C197.949 29.6184 196.073 30.0525 194.423 30.9558L195.738 33.0918ZM200.012 32.0882C201.647 32.0882 203.047 32.433 204.25 33.0918L205.566 30.9558C203.918 30.054 202.054 29.6184 200.012 29.6184V32.0882ZM204.264 33.0992C205.476 33.7445 206.419 34.6407 207.108 35.8095L209.398 34.6101C208.478 33.0483 207.19 31.8205 205.552 30.9484L204.264 33.0992ZM207.12 35.8299C207.816 36.9598 208.185 38.3003 208.185 39.8914H210.804C210.804 37.9283 210.345 36.1476 209.386 34.5898L207.12 35.8299ZM208.185 39.8914C208.185 41.4638 207.826 42.8132 207.143 43.9734L209.433 45.173C210.358 43.6023 210.804 41.8305 210.804 39.8914H208.185ZM207.147 43.9663C206.458 45.1172 205.51 46.0208 204.285 46.6913L205.6 48.8274C207.226 47.9373 208.508 46.717 209.428 45.1802L207.147 43.9663ZM204.299 46.6839C203.096 47.3242 201.68 47.6623 200.012 47.6623V50.132C202.068 50.132 203.939 49.7116 205.586 48.8348L204.299 46.6839ZM200.012 47.206C201.416 47.206 202.712 46.8979 203.858 46.2499L202.51 44.132C201.817 44.5241 200.998 44.7362 200.012 44.7362V47.206ZM203.858 46.2499C204.987 45.6108 205.867 44.726 206.482 43.618L204.162 42.472C203.766 43.1849 203.22 43.7307 202.51 44.132L203.858 46.2499ZM206.471 43.6384C207.12 42.5208 207.425 41.26 207.425 39.8914H204.805C204.805 40.9074 204.582 41.749 204.173 42.452L206.471 43.6384ZM207.425 39.8914C207.425 38.5232 207.12 37.2624 206.471 36.1448L204.173 37.3312C204.582 38.0342 204.805 38.8757 204.805 39.8914H207.425ZM206.488 36.1754C205.875 35.0454 204.995 34.1443 203.858 33.5009L202.51 35.6187C203.212 36.0154 203.758 36.5665 204.156 37.3003L206.488 36.1754ZM203.858 33.5009C202.712 32.8526 201.416 32.5445 200.012 32.5445V35.0143C200.998 35.0143 201.817 35.2263 202.51 35.6187L203.858 33.5009ZM200.012 32.5445C198.607 32.5445 197.311 32.8526 196.165 33.5009L197.513 35.6187C198.206 35.2263 199.025 35.0143 200.012 35.0143V32.5445ZM196.165 33.5009C195.033 34.1412 194.147 35.0359 193.511 36.1556L195.822 37.3204C196.244 36.5761 196.806 36.0185 197.513 35.6187L196.165 33.5009ZM193.518 36.1448C192.869 37.2624 192.563 38.5232 192.563 39.8914H195.183C195.183 38.8757 195.407 38.0342 195.815 37.3312L193.518 36.1448ZM192.563 39.8914C192.563 41.26 192.869 42.5208 193.518 43.6384L195.815 42.452C195.407 41.749 195.183 40.9074 195.183 39.8914H192.563ZM193.518 43.6384C194.155 44.7356 195.041 45.6139 196.165 46.2499L197.513 44.132C196.798 43.7276 196.235 43.1753 195.815 42.452L193.518 43.6384ZM196.165 46.2499C197.311 46.8979 198.607 47.206 200.012 47.206V44.7362C199.025 44.7362 198.206 44.5241 197.513 44.132L196.165 46.2499Z" fill="white"/>
<path d="M60.063 13.0944C56.8949 15.6414 58.69 3.77969 73.2402 3.51913C87.7905 3.25857 90.2211 19.7388 90.2647 26.8128C90.323 38.4047 87.2616 65.8093 62.5326 65.1141C55.939 64.9267 47.8222 62.0778 46.3376 45.4923C46.3376 45.4584 46.3376 45.4571 46.3376 45.3963C46.3376 44.4819 46.4345 29.6067 43.179 32.053C39.8121 34.5772 37.687 49.6079 36.1732 55.5295C34.941 60.331 29.4441 75.2611 15.3742 58.0539C15.3742 58.0539 13.5886 57.0157 18.1202 62.9055C22.6517 68.7952 38.0121 78.9102 56.5599 75.7779C75.108 72.6453 84.5687 59.4759 84.5687 59.4759C84.5687 59.4759 86.4027 56.9107 88.3144 53.5632C88.4356 53.3576 88.6333 53.202 88.8694 53.1264C89.1059 53.0508 89.3632 53.0606 89.5921 53.1542C89.821 53.2477 90.0047 53.4184 90.1075 53.6327C90.2103 53.847 90.2247 54.0896 90.1484 54.3131C90.1193 54.3894 90.0866 54.4709 90.061 54.5601C86.1879 68.1364 70.2224 77.3326 70.2224 77.3326C70.2224 77.3326 49.6271 89.6241 27.1781 79.4681C4.72941 69.312 1.64384 49.2513 1.64384 49.2513C1.64384 49.2513 -2.06289 31.4588 6.10241 19.2309C14.268 7.00336 17.0867 17.2968 17.4456 19.9536C18.3337 26.8128 17.8582 44.4087 21.3609 47.39C24.7039 50.2343 24.9174 44.9209 24.9272 44.4498C24.9272 44.4223 24.9272 44.4041 24.9272 44.3766C25.0533 43.2427 28.202 16.341 42.9075 1.84987C45.1875 -0.399786 48.8118 -3.18013 52.1256 10.7806C55.4394 24.7413 55.4636 30.0229 56.793 36.3881C57.4529 39.5433 61.7369 52.6899 69.2908 41.5645C74.5517 33.8165 74.424 27.0869 74.1135 23.9411C74.1044 23.9053 74.0929 23.8701 74.0795 23.8358C74.0795 22.4518 69.4169 5.56781 60.063 13.0944Z" fill="url(#paint0_radial_902_470)"/>
<path d="M153.291 62.0825C152.843 62.0825 152.443 61.9862 152.091 61.7935C151.744 61.5956 151.469 61.328 151.265 60.9908C151.066 60.6537 150.967 60.2737 150.967 59.851C150.967 59.4228 151.063 59.0403 151.256 58.7032C151.449 58.3661 151.713 58.1012 152.048 57.9086C152.383 57.7107 152.769 57.6116 153.206 57.6116C153.552 57.6116 153.87 57.6758 154.159 57.8042C154.455 57.9326 154.713 58.1253 154.934 58.3821C154.997 58.4464 155.019 58.5158 155.002 58.5908C154.985 58.6603 154.937 58.722 154.858 58.7754C154.795 58.8184 154.724 58.8344 154.645 58.8236C154.571 58.8076 154.506 58.7674 154.449 58.7032C154.12 58.35 153.706 58.1734 153.206 58.1734C152.888 58.1734 152.607 58.2457 152.363 58.3902C152.125 58.5346 151.937 58.7325 151.801 58.9841C151.671 59.2357 151.605 59.5247 151.605 59.851C151.605 60.1721 151.676 60.4583 151.818 60.7099C151.96 60.9615 152.159 61.1594 152.414 61.3039C152.67 61.4484 152.962 61.5206 153.291 61.5206C153.512 61.5206 153.714 61.4937 153.896 61.4403C154.083 61.3814 154.248 61.2931 154.389 61.1754C154.457 61.122 154.528 61.0924 154.602 61.0872C154.676 61.0819 154.744 61.1032 154.806 61.1514C154.875 61.2103 154.912 61.277 154.917 61.352C154.929 61.4271 154.903 61.4913 154.841 61.5447C154.426 61.9031 153.91 62.0825 153.291 62.0825ZM157.111 62.0423C156.884 62.0423 156.68 61.9834 156.498 61.8658C156.323 61.7481 156.183 61.5848 156.081 61.3761C155.985 61.1674 155.936 60.9266 155.936 60.6537V56.0785C155.936 55.9874 155.965 55.9151 156.022 55.8617C156.084 55.8028 156.164 55.7734 156.26 55.7734C156.357 55.7734 156.433 55.8028 156.49 55.8617C156.552 55.9151 156.584 55.9874 156.584 56.0785V60.6537C156.584 60.8837 156.632 61.0711 156.728 61.2156C156.83 61.3601 156.958 61.4323 157.111 61.4323H157.324C157.409 61.4323 157.477 61.4616 157.529 61.5206C157.58 61.574 157.605 61.6462 157.605 61.7373C157.605 61.8284 157.569 61.9031 157.495 61.9621C157.426 62.0155 157.336 62.0423 157.222 62.0423H157.111ZM158.808 62.0423C158.705 62.0423 158.623 62.0155 158.561 61.9621C158.504 61.9031 158.476 61.8256 158.476 61.7293V57.9647C158.476 57.8684 158.504 57.7934 158.561 57.74C158.623 57.681 158.705 57.6517 158.808 57.6517C158.904 57.6517 158.981 57.681 159.037 57.74C159.1 57.7934 159.131 57.8684 159.131 57.9647V61.7293C159.131 61.8256 159.1 61.9031 159.037 61.9621C158.981 62.0155 158.904 62.0423 158.808 62.0423ZM158.799 56.8169C158.674 56.8169 158.566 56.774 158.476 56.6885C158.385 56.603 158.339 56.4986 158.339 56.3754C158.339 56.2418 158.385 56.1374 158.476 56.0624C158.572 55.9821 158.683 55.942 158.808 55.942C158.927 55.942 159.032 55.9821 159.123 56.0624C159.219 56.1374 159.267 56.2418 159.267 56.3754C159.267 56.4986 159.222 56.603 159.131 56.6885C159.04 56.774 158.93 56.8169 158.799 56.8169ZM162.708 62.0825C162.259 62.0825 161.859 61.9862 161.507 61.7935C161.161 61.5956 160.886 61.328 160.681 60.9908C160.483 60.6537 160.383 60.2737 160.383 59.851C160.383 59.4228 160.48 59.0403 160.673 58.7032C160.866 58.3661 161.13 58.1012 161.465 57.9086C161.799 57.7107 162.185 57.6116 162.622 57.6116C162.968 57.6116 163.286 57.6758 163.576 57.8042C163.871 57.9326 164.129 58.1253 164.351 58.3821C164.413 58.4464 164.436 58.5158 164.419 58.5908C164.402 58.6603 164.353 58.722 164.274 58.7754C164.212 58.8184 164.14 58.8344 164.061 58.8236C163.987 58.8076 163.922 58.7674 163.865 58.7032C163.536 58.35 163.122 58.1734 162.622 58.1734C162.304 58.1734 162.023 58.2457 161.78 58.3902C161.541 58.5346 161.354 58.7325 161.218 58.9841C161.087 59.2357 161.022 59.5247 161.022 59.851C161.022 60.1721 161.093 60.4583 161.235 60.7099C161.376 60.9615 161.575 61.1594 161.831 61.3039C162.086 61.4484 162.378 61.5206 162.708 61.5206C162.929 61.5206 163.13 61.4937 163.312 61.4403C163.499 61.3814 163.664 61.2931 163.806 61.1754C163.874 61.122 163.945 61.0924 164.019 61.0872C164.092 61.0819 164.16 61.1032 164.223 61.1514C164.291 61.2103 164.328 61.277 164.334 61.352C164.345 61.4271 164.319 61.4913 164.257 61.5447C163.842 61.9031 163.326 62.0825 162.708 62.0825ZM166.06 60.5734L165.659 60.1641L168.571 57.6838C168.639 57.6248 168.71 57.5983 168.784 57.6035C168.858 57.6035 168.926 57.6356 168.988 57.6999C169.051 57.7641 169.079 57.8335 169.073 57.9086C169.073 57.978 169.039 58.0398 168.971 58.0932L166.06 60.5734ZM165.847 62.0423C165.75 62.0423 165.671 62.0155 165.608 61.9621C165.551 61.9031 165.523 61.8284 165.523 61.7373V56.0785C165.523 55.9874 165.551 55.9151 165.608 55.8617C165.671 55.8028 165.75 55.7734 165.847 55.7734C165.943 55.7734 166.02 55.8028 166.077 55.8617C166.139 55.9151 166.17 55.9874 166.17 56.0785V61.7373C166.17 61.8284 166.139 61.9031 166.077 61.9621C166.02 62.0155 165.943 62.0423 165.847 62.0423ZM168.997 62.0022C168.923 62.0612 168.846 62.0853 168.767 62.0744C168.687 62.0692 168.619 62.0315 168.563 61.9621L166.664 59.7627L167.124 59.3775L169.039 61.6009C169.096 61.6651 169.122 61.7345 169.116 61.8096C169.11 61.879 169.071 61.9432 168.997 62.0022ZM174.371 62.0423C174.07 62.0423 173.801 61.9753 173.562 61.8417C173.329 61.708 173.145 61.5258 173.009 61.2959C172.873 61.0603 172.804 60.7929 172.804 60.4932V56.5681C172.804 56.477 172.833 56.4023 172.89 56.3433C172.952 56.2844 173.031 56.255 173.128 56.255C173.224 56.255 173.304 56.2844 173.366 56.3433C173.429 56.4023 173.46 56.477 173.46 56.5681V60.4932C173.46 60.7661 173.545 60.9908 173.715 61.1674C173.886 61.3388 174.104 61.4243 174.371 61.4243H174.601C174.692 61.4243 174.765 61.4536 174.822 61.5126C174.879 61.5715 174.907 61.6462 174.907 61.7373C174.907 61.8284 174.873 61.9031 174.805 61.9621C174.737 62.0155 174.652 62.0423 174.55 62.0423H174.371ZM172.251 58.35C172.166 58.35 172.095 58.3259 172.038 58.2778C171.981 58.2244 171.953 58.1602 171.953 58.0851C171.953 58.0049 171.981 57.9407 172.038 57.8925C172.095 57.8391 172.166 57.8122 172.251 57.8122H174.422C174.507 57.8122 174.578 57.8391 174.635 57.8925C174.692 57.9407 174.72 58.0049 174.72 58.0851C174.72 58.1602 174.692 58.2244 174.635 58.2778C174.578 58.3259 174.507 58.35 174.422 58.35H172.251ZM176.136 60.2524C176.034 60.2524 175.952 60.223 175.889 60.1641C175.832 60.1051 175.804 60.0304 175.804 59.9393V56.0865C175.804 55.9902 175.832 55.9151 175.889 55.8617C175.952 55.8028 176.034 55.7734 176.136 55.7734C176.233 55.7734 176.309 55.8028 176.366 55.8617C176.428 55.9151 176.46 55.9902 176.46 56.0865V59.9393C176.46 60.0304 176.428 60.1051 176.366 60.1641C176.309 60.223 176.233 60.2524 176.136 60.2524ZM179.797 62.0423C179.701 62.0423 179.621 62.013 179.559 61.954C179.496 61.8951 179.465 61.8228 179.465 61.7373V59.6504C179.465 59.3185 179.397 59.0456 179.261 58.8316C179.13 58.6177 178.948 58.4572 178.716 58.35C178.489 58.2429 178.231 58.1895 177.941 58.1895C177.663 58.1895 177.41 58.2404 177.183 58.342C176.962 58.4436 176.786 58.5828 176.656 58.7594C176.525 58.936 176.46 59.1367 176.46 59.3614H175.992C176.003 59.0243 176.099 58.7245 176.281 58.4624C176.462 58.1947 176.704 57.986 177.005 57.8363C177.305 57.681 177.64 57.6035 178.009 57.6035C178.412 57.6035 178.773 57.6838 179.091 57.8443C179.408 57.9996 179.658 58.2296 179.84 58.5346C180.027 58.8397 180.121 59.2117 180.121 59.6504V61.7373C180.121 61.8228 180.089 61.8951 180.027 61.954C179.964 62.013 179.888 62.0423 179.797 62.0423ZM176.136 62.0423C176.034 62.0423 175.952 62.0155 175.889 61.9621C175.832 61.9031 175.804 61.8284 175.804 61.7373V57.9647C175.804 57.8684 175.832 57.7934 175.889 57.74C175.952 57.681 176.034 57.6517 176.136 57.6517C176.233 57.6517 176.309 57.681 176.366 57.74C176.428 57.7934 176.46 57.8684 176.46 57.9647V61.7373C176.46 61.8284 176.428 61.9031 176.366 61.9621C176.309 62.0155 176.233 62.0423 176.136 62.0423ZM183.507 62.0825C183.047 62.0825 182.638 61.9889 182.281 61.8015C181.929 61.6089 181.651 61.344 181.447 61.0069C181.248 60.6698 181.149 60.2845 181.149 59.851C181.149 59.4123 181.242 59.0271 181.429 58.6952C181.623 58.3581 181.887 58.0932 182.221 57.9005C182.556 57.7079 182.942 57.6116 183.379 57.6116C183.811 57.6116 184.185 57.7051 184.503 57.8925C184.826 58.0743 185.076 58.3287 185.252 58.6551C185.428 58.9814 185.516 59.3534 185.516 59.7708C185.516 59.8563 185.488 59.9261 185.431 59.9795C185.374 60.0276 185.301 60.0517 185.21 60.0517H181.591V59.538H185.278L184.912 59.7868C184.918 59.4766 184.858 59.1981 184.733 58.952C184.608 58.706 184.429 58.5133 184.196 58.3741C183.97 58.2349 183.697 58.1654 183.379 58.1654C183.056 58.1654 182.772 58.2377 182.528 58.3821C182.284 58.5266 182.094 58.7273 181.957 58.9841C181.827 59.2357 181.762 59.5247 181.762 59.851C181.762 60.1774 181.836 60.4663 181.983 60.7179C182.136 60.9695 182.343 61.1674 182.604 61.3119C182.866 61.4564 183.166 61.5286 183.507 61.5286C183.711 61.5286 183.916 61.4965 184.12 61.4323C184.33 61.3628 184.497 61.277 184.622 61.1754C184.685 61.1273 184.756 61.1032 184.835 61.1032C184.915 61.098 184.983 61.1165 185.039 61.1594C185.113 61.2236 185.15 61.2931 185.15 61.3681C185.156 61.4431 185.124 61.5073 185.056 61.5607C184.869 61.7105 184.631 61.8364 184.341 61.938C184.052 62.0343 183.774 62.0825 183.507 62.0825ZM189.835 62.0423C189.761 62.0423 189.696 62.0235 189.639 61.9862C189.582 61.9488 189.542 61.9006 189.519 61.8417L188.191 58.0851C188.157 57.9515 188.16 57.8471 188.2 57.7721C188.24 57.6918 188.319 57.6517 188.438 57.6517C188.512 57.6517 188.577 57.6705 188.634 57.7079C188.691 57.7452 188.734 57.8042 188.762 57.8845L189.945 61.2959H189.758L190.856 57.8925C190.879 57.823 190.916 57.7669 190.967 57.7239C191.024 57.6758 191.095 57.6517 191.18 57.6517C191.265 57.6517 191.333 57.673 191.384 57.7159C191.441 57.7588 191.481 57.8175 191.503 57.8925L192.55 61.2156H192.406L193.564 57.8845C193.62 57.7292 193.725 57.6517 193.879 57.6517C194.004 57.6517 194.089 57.6971 194.134 57.7882C194.179 57.8737 194.179 57.9728 194.134 58.0851L192.806 61.8417C192.783 61.9006 192.744 61.9488 192.687 61.9862C192.636 62.0235 192.573 62.0423 192.499 62.0423C192.426 62.0423 192.358 62.0235 192.295 61.9862C192.238 61.9488 192.201 61.9006 192.184 61.8417L191.112 58.4865H191.214L190.141 61.8417C190.118 61.9059 190.079 61.9568 190.022 61.9942C189.965 62.0263 189.903 62.0423 189.835 62.0423ZM196.865 62.0825C196.41 62.0825 196.005 61.9862 195.647 61.7935C195.289 61.6009 195.009 61.336 194.804 60.9989C194.6 60.6617 194.498 60.2792 194.498 59.851C194.498 59.4176 194.6 59.0323 194.804 58.6952C195.009 58.3581 195.289 58.0932 195.647 57.9005C196.005 57.7079 196.41 57.6116 196.865 57.6116C197.318 57.6116 197.721 57.7079 198.073 57.9005C198.431 58.0932 198.712 58.3581 198.916 58.6952C199.121 59.0323 199.225 59.4176 199.231 59.851C199.231 60.2792 199.126 60.6617 198.916 60.9989C198.712 61.336 198.431 61.6009 198.073 61.7935C197.721 61.9862 197.318 62.0825 196.865 62.0825ZM196.865 61.5206C197.194 61.5206 197.489 61.4484 197.75 61.3039C198.011 61.1594 198.215 60.9615 198.363 60.7099C198.51 60.4583 198.584 60.1721 198.584 59.851C198.584 59.53 198.51 59.2438 198.363 58.9922C198.215 58.7353 198.011 58.5346 197.75 58.3902C197.489 58.2457 197.194 58.1734 196.865 58.1734C196.535 58.1734 196.24 58.2457 195.979 58.3902C195.718 58.5346 195.511 58.7353 195.358 58.9922C195.21 59.2438 195.136 59.53 195.136 59.851C195.136 60.1721 195.21 60.4583 195.358 60.7099C195.511 60.9615 195.718 61.1594 195.979 61.3039C196.24 61.4484 196.535 61.5206 196.865 61.5206ZM200.608 59.3373C200.625 59.0054 200.716 58.7085 200.881 58.4463C201.051 58.1842 201.27 57.978 201.536 57.8283C201.809 57.6786 202.11 57.6035 202.439 57.6035C202.7 57.6035 202.901 57.6384 203.043 57.7079C203.185 57.7773 203.239 57.8792 203.205 58.0129C203.182 58.0932 203.143 58.1466 203.086 58.1734C203.035 58.2003 202.97 58.2108 202.89 58.2055C202.816 58.2003 202.731 58.1947 202.635 58.1895C202.317 58.1626 202.033 58.1947 201.783 58.2858C201.539 58.3713 201.343 58.5053 201.196 58.6871C201.054 58.869 200.983 59.0857 200.983 59.3373H200.608ZM200.659 62.0423C200.557 62.0423 200.478 62.0155 200.421 61.9621C200.364 61.9087 200.336 61.8336 200.336 61.7373V57.9567C200.336 57.8604 200.364 57.7854 200.421 57.732C200.478 57.6786 200.557 57.6517 200.659 57.6517C200.762 57.6517 200.841 57.6786 200.898 57.732C200.955 57.7854 200.983 57.8604 200.983 57.9567V61.7373C200.983 61.8336 200.955 61.9087 200.898 61.9621C200.841 62.0155 200.762 62.0423 200.659 62.0423ZM205.069 62.0423C204.843 62.0423 204.638 61.9834 204.456 61.8658C204.281 61.7481 204.141 61.5848 204.039 61.3761C203.943 61.1674 203.895 60.9266 203.895 60.6537V56.0785C203.895 55.9874 203.923 55.9151 203.98 55.8617C204.042 55.8028 204.122 55.7734 204.218 55.7734C204.315 55.7734 204.391 55.8028 204.448 55.8617C204.51 55.9151 204.542 55.9874 204.542 56.0785V60.6537C204.542 60.8837 204.59 61.0711 204.686 61.2156C204.788 61.3601 204.916 61.4323 205.069 61.4323H205.282C205.367 61.4323 205.436 61.4616 205.487 61.5206C205.538 61.574 205.563 61.6462 205.563 61.7373C205.563 61.8284 205.527 61.9031 205.453 61.9621C205.384 62.0155 205.294 62.0423 205.18 62.0423H205.069ZM208.16 62.0825C207.711 62.0825 207.308 61.9862 206.951 61.7935C206.593 61.5956 206.31 61.328 206.099 60.9908C205.895 60.6537 205.793 60.2712 205.793 59.843C205.793 59.4204 205.892 59.0403 206.091 58.7032C206.295 58.3661 206.57 58.1012 206.917 57.9086C207.263 57.7107 207.655 57.6116 208.091 57.6116C208.472 57.6116 208.815 57.6891 209.122 57.8443C209.428 57.9941 209.675 58.1947 209.862 58.4463V56.0865C209.862 55.9902 209.894 55.9151 209.956 55.8617C210.019 55.8028 210.098 55.7734 210.194 55.7734C210.291 55.7734 210.371 55.8028 210.433 55.8617C210.495 55.9151 210.526 55.9902 210.526 56.0865V59.8751C210.515 60.2925 210.405 60.6698 210.194 61.0069C209.99 61.3388 209.709 61.6009 209.352 61.7935C209 61.9862 208.602 62.0825 208.16 62.0825ZM208.16 61.5206C208.489 61.5206 208.781 61.4484 209.037 61.3039C209.298 61.1541 209.502 60.9535 209.65 60.7019C209.803 60.4503 209.879 60.1641 209.879 59.843C209.879 59.5272 209.803 59.2438 209.65 58.9922C209.502 58.7353 209.298 58.5346 209.037 58.3902C208.781 58.2457 208.489 58.1734 208.16 58.1734C207.836 58.1734 207.544 58.2457 207.283 58.3902C207.022 58.5346 206.814 58.7353 206.661 58.9922C206.508 59.2438 206.431 59.5272 206.431 59.843C206.431 60.1641 206.508 60.4503 206.661 60.7019C206.814 60.9535 207.022 61.1541 207.283 61.3039C207.544 61.4484 207.836 61.5206 208.16 61.5206Z" fill="#FF8DB5"/>
<defs>
<radialGradient id="paint0_radial_902_470" cx="0" cy="0" r="1" gradientUnits="userSpaceOnUse" gradientTransform="translate(33.7212 8.51641) rotate(76.8933) scale(86.4526 78.1438)">
<stop stop-color="#FF3838"/>
<stop offset="0.479215" stop-color="#CA234B"/>
<stop offset="1" stop-color="#510D57"/>
</radialGradient>
</defs>
</svg>
