<svg width="294" height="26" viewBox="0 0 294 26" fill="none" xmlns="http://www.w3.org/2000/svg">
<path d="M12.62 22.81C12.28 22.93 11.72 22.93 11.38 22.81C8.48 21.82 2 17.69 2 10.69C2 7.59998 4.49 5.09998 7.56 5.09998C9.38 5.09998 10.99 5.97998 12 7.33998C12.5138 6.64585 13.183 6.0817 13.954 5.69272C14.725 5.30374 15.5764 5.10074 16.44 5.09998C19.51 5.09998 22 7.59998 22 10.69C22 17.69 15.52 21.82 12.62 22.81Z" stroke="black" stroke-width="1.5" stroke-linecap="round" stroke-linejoin="round"/>
<path d="M48.5 12.65H43.5" stroke="black" stroke-width="1.5" stroke-miterlimit="10" stroke-linecap="round" stroke-linejoin="round"/>
<path d="M50.8199 4H41.1799C39.0499 4 37.3199 5.74 37.3199 7.86V21.95C37.3199 23.75 38.6099 24.51 40.1899 23.64L45.0699 20.93C45.5899 20.64 46.4299 20.64 46.9399 20.93L51.8199 23.64C53.3999 24.52 54.6899 23.76 54.6899 21.95V7.86C54.6799 5.74 52.9499 4 50.8199 4Z" stroke="black" stroke-width="1.5" stroke-linecap="round" stroke-linejoin="round"/>
<path d="M73.68 24.75C73.5812 24.7509 73.4833 24.7322 73.3919 24.6948C73.3005 24.6575 73.2174 24.6022 73.1476 24.5324C73.0778 24.4626 73.0225 24.3795 72.9852 24.2881C72.9478 24.1967 72.9291 24.0988 72.93 24V20.8C70.58 18.89 69.25 16.17 69.25 13.26C69.25 7.74 74.07 3.25 80 3.25C85.93 3.25 90.75 7.74 90.75 13.26C90.75 18.78 85.93 23.27 80 23.27C79.03 23.27 78.07 23.15 77.14 22.91L74.05 24.65C73.94 24.72 73.81 24.75 73.68 24.75ZM80 4.75C74.9 4.75 70.75 8.57 70.75 13.26C70.75 15.82 71.98 18.22 74.14 19.84C74.33 19.98 74.44 20.2 74.44 20.44V22.72L76.68 21.46C76.85 21.36 77.06 21.34 77.25 21.39C78.14 21.64 79.07 21.77 80 21.77C85.1 21.77 89.25 17.95 89.25 13.26C89.25 8.57 85.1 4.75 80 4.75Z" fill="black"/>
<path d="M75.5 16.5C75.25 16.5 75 16.37 74.86 16.15C74.7761 16.0157 74.7367 15.8583 74.7475 15.7003C74.7582 15.5423 74.8186 15.3917 74.92 15.27L78.7 10.77C78.93 10.5 79.31 10.42 79.62 10.59L81.07 11.36L84.3 10.53C84.4538 10.4918 84.6156 10.5032 84.7625 10.5624C84.9094 10.6216 85.0339 10.7257 85.1181 10.8599C85.2024 10.994 85.2421 11.1513 85.2317 11.3093C85.2212 11.4674 85.1612 11.6181 85.06 11.74L81.3 16.24C81.07 16.52 80.66 16.59 80.35 16.41L79.06 15.66L75.66 16.49C75.62 16.49 75.56 16.5 75.5 16.5ZM79.19 14.1C79.32 14.1 79.45 14.13 79.57 14.2L80.57 14.78L82.43 12.55L81.17 12.87C80.9887 12.9154 80.797 12.8941 80.63 12.81L79.46 12.19L77.54 14.47L79 14.11C79.07 14.11 79.13 14.1 79.19 14.1Z" fill="black"/>
<path d="M289.953 15.8259C289.391 15.826 288.837 15.9553 288.333 16.2038C287.83 16.4523 287.39 16.8133 287.048 17.259L279.138 12.7699C279.404 11.9988 279.404 11.1609 279.138 10.3898L287.048 5.90078C287.6 6.61708 288.397 7.10388 289.287 7.26753C290.176 7.43118 291.095 7.26011 291.866 6.78724C292.637 6.31436 293.205 5.57309 293.463 4.70608C293.72 3.83906 293.647 2.90755 293.259 2.09079C292.871 1.27403 292.194 0.629735 291.359 0.281881C290.524 -0.0659718 289.59 -0.0928053 288.737 0.206544C287.884 0.505894 287.171 1.11028 286.737 1.90339C286.302 2.69651 286.176 3.62232 286.383 4.50267L278.339 9.06825C277.836 8.53277 277.183 8.16089 276.466 8.00084C275.748 7.8408 274.999 7.89998 274.316 8.1707C273.633 8.44142 273.047 8.91119 272.634 9.51909C272.221 10.127 272 10.845 272 11.5799C272 12.3148 272.221 13.0328 272.634 13.6407C273.047 14.2486 273.633 14.7184 274.316 14.9891C274.999 15.2598 275.748 15.319 276.466 15.1589C277.183 14.9989 277.836 14.627 278.339 14.0915L286.383 18.6572C286.21 19.3983 286.271 20.175 286.559 20.8796C286.847 21.5841 287.347 22.1817 287.99 22.5892C288.633 22.9968 289.386 23.1942 290.147 23.1541C290.907 23.114 291.635 22.8383 292.232 22.3653C292.828 21.8924 293.262 21.2455 293.475 20.5146C293.687 19.7836 293.666 19.0047 293.416 18.286C293.165 17.5672 292.697 16.9442 292.077 16.5034C291.456 16.0626 290.714 15.8259 289.953 15.8259ZM289.953 1.54375C290.373 1.54375 290.783 1.66826 291.132 1.90154C291.481 2.13483 291.754 2.4664 291.914 2.85433C292.075 3.24226 292.117 3.66913 292.035 4.08096C291.953 4.49279 291.751 4.87108 291.454 5.16799C291.157 5.4649 290.779 5.6671 290.367 5.74902C289.955 5.83093 289.528 5.78889 289.14 5.6282C288.752 5.46751 288.421 5.1954 288.188 4.84627C287.954 4.49714 287.83 4.08667 287.83 3.66678C287.83 3.10391 288.054 2.56427 288.452 2.16626C288.85 1.76825 289.39 1.54438 289.953 1.54375ZM275.671 13.7029C275.251 13.7029 274.84 13.5784 274.491 13.3451C274.142 13.1118 273.87 12.7803 273.709 12.3923C273.549 12.0044 273.507 11.5775 273.588 11.1657C273.67 10.7539 273.873 10.3756 274.169 10.0787C274.466 9.78177 274.845 9.57957 275.256 9.49765C275.668 9.41573 276.095 9.45778 276.483 9.61846C276.871 9.77915 277.203 10.0513 277.436 10.4004C277.669 10.7495 277.794 11.16 277.794 11.5799C277.793 12.1428 277.569 12.6824 277.171 13.0804C276.773 13.4784 276.234 13.7023 275.671 13.7029ZM289.953 21.616C289.533 21.616 289.122 21.4915 288.773 21.2582C288.424 21.025 288.152 20.6934 287.991 20.3054C287.831 19.9175 287.789 19.4906 287.871 19.0788C287.953 18.667 288.155 18.2887 288.452 17.9918C288.749 17.6949 289.127 17.4927 289.539 17.4108C289.951 17.3288 290.377 17.3709 290.765 17.5316C291.153 17.6923 291.485 17.9644 291.718 18.3135C291.951 18.6626 292.076 19.0731 292.076 19.493C292.075 20.0559 291.851 20.5955 291.453 20.9935C291.055 21.3915 290.516 21.6154 289.953 21.616Z" fill="black"/>
</svg>
