<svg width="77" height="77" viewBox="0 0 77 77" fill="none" xmlns="http://www.w3.org/2000/svg">
<path d="M50.3507 49.8356C47.6434 48.7503 46.5624 45.7673 46.5624 45.7673C46.5624 45.7673 45.3427 46.443 45.3427 44.5454C45.3427 42.6478 46.5624 45.7673 47.7821 38.4405C47.7821 38.4405 51.1615 37.4893 50.4847 29.6235H49.6715C49.6715 29.6235 51.7044 21.2137 49.6715 18.3626C47.6386 15.5162 46.8303 13.6186 42.3603 12.2601C37.8904 10.9016 39.5191 11.1724 36.2689 11.3113C33.0163 11.4503 30.309 13.2113 30.309 14.1625C30.309 14.1625 28.2761 14.2967 27.4677 15.1113C26.6546 15.9259 25.3009 19.7211 25.3009 20.6699C25.3009 21.6187 25.9777 28.0014 26.6546 29.3551L25.8486 29.6283C25.1694 37.4941 28.5511 38.4453 28.5511 38.4453C29.7708 45.7721 30.9906 42.6526 30.9906 44.5502C30.9906 46.4478 29.7708 45.7721 29.7708 45.7721C29.7708 45.7721 28.6898 48.755 25.9825 49.8404C23.2752 50.9234 8.24625 56.7551 7.02413 57.977C5.79962 59.1989 5.93834 64.8965 5.93834 64.8965H70.3853C70.3853 64.8965 70.5288 59.2013 69.3043 57.977C68.0846 56.7551 53.0533 50.9234 50.346 49.8404L50.3507 49.8356ZM20.5272 49.4235C20.2881 48.9922 20.1733 48.6808 20.1733 48.6808C20.1733 48.6808 19.1401 49.2558 19.1401 47.6457C19.1401 46.0357 20.1733 48.6808 21.2064 42.4705C21.2064 42.4705 24.0764 41.6679 23.5024 35H22.8088C22.8088 35 23.1532 33.5864 23.378 31.8038C23.368 31.0074 23.3975 30.2109 23.4665 29.4174L23.5574 28.3968C23.5096 27.218 23.3015 26.1446 22.8112 25.4593C21.0893 23.0466 20.4005 21.4342 16.6169 20.2841C12.8286 19.1341 14.2014 19.3641 11.451 19.4815C8.69588 19.6013 6.39992 21.0916 6.39992 21.9014C6.39992 21.9014 4.67795 22.014 3.98917 22.704C3.34343 23.3509 2.30308 26.2069 2.17871 27.2204V27.8912C2.29351 29.4582 2.80053 33.7613 3.30277 34.7748L2.61877 35.0048C2.04478 41.6703 4.91473 42.4753 4.91473 42.4753C5.94312 48.6808 6.97869 46.0405 6.97869 47.6505C6.97869 49.2606 5.94551 48.6808 5.94551 48.6808C5.94551 48.6808 5.02952 51.2157 2.73357 52.1309L2.17871 52.3513V64.8917H3.55389C3.48214 61.8297 3.73805 57.8788 5.33804 56.2807C6.19185 55.4301 8.98287 54.0285 20.532 49.4235H20.5272ZM73.9321 27.7259C73.8364 26.8202 73.6284 26.0128 73.2338 25.4593C71.5166 23.0442 70.8254 21.4342 67.0395 20.2841C63.2535 19.1341 64.6311 19.3641 61.8736 19.4815C59.1232 19.6013 56.8272 21.0916 56.8272 21.9014C56.8272 21.9014 55.1053 22.014 54.4165 22.704C53.7708 23.3557 52.7184 26.2308 52.6036 27.2323H52.6826L52.8739 29.4222C52.9217 29.9733 52.9265 30.4645 52.9385 30.9652C53.1537 32.5609 53.4407 34.1997 53.7277 34.7748L53.0437 35.0024C52.4697 41.6679 55.3397 42.4729 55.3397 42.4729C56.3728 48.6784 57.4036 46.0381 57.4036 47.6481C57.4036 49.2582 56.3752 48.6784 56.3752 48.6784C56.3752 48.6784 56.2461 49.021 55.983 49.493C67.391 54.0453 70.1581 55.4349 71.0024 56.2807C72.6048 57.8812 72.8535 61.8297 72.7841 64.8941H73.9321V52.1836L73.8125 52.1309C71.5166 51.2133 70.5982 48.6808 70.5982 48.6808C70.5982 48.6808 69.5626 49.2558 69.5626 47.6505C69.5626 46.0452 70.5982 48.6808 71.629 42.4753C71.629 42.4753 73.5518 41.9242 73.9321 38.0668V35.1246C73.9321 35.0814 73.9321 35.0455 73.9249 35.0048H73.2314C73.2314 35.0048 73.748 32.8724 73.9321 30.5435V27.7259Z" fill="#F8F8F8"/>
</svg>
