<svg width="119" height="145" viewBox="0 0 119 145" fill="none" xmlns="http://www.w3.org/2000/svg">
<g clip-path="url(#clip0_137_603)">
<path d="M22.6809 104.824C25.2445 103.753 27.6433 102.329 29.9946 100.871C32.3459 99.4132 34.7013 97.8074 36.9848 96.1707C41.6474 92.8212 46.1378 89.2344 50.6431 85.6446C51.9052 84.6399 53.1712 83.6386 54.4279 82.6277C55.0695 82.1124 55.7094 81.5944 56.3478 81.0735C56.996 80.572 57.6188 80.0382 58.2138 79.4742C58.2345 79.4513 58.2465 79.4219 58.2479 79.3911C58.2493 79.3602 58.2398 79.3299 58.2212 79.3053C58.2026 79.2807 58.176 79.2634 58.146 79.2565C58.116 79.2495 58.0845 79.2532 58.057 79.2671C56.8349 79.9802 55.718 80.9173 54.6012 81.7837C53.4843 82.65 52.333 83.5662 51.2067 84.4678C48.9604 86.2656 46.7134 88.0655 44.4574 89.8466C39.9876 93.3561 35.4643 96.7924 30.6923 99.8718C28.0571 101.573 25.3161 103.088 22.6287 104.702C22.5674 104.737 22.6091 104.855 22.6809 104.824Z" fill="#231F20"/>
<path d="M69.7216 82.4442C69.0397 83.358 68.5174 84.4066 67.9667 85.4026C67.3879 86.4479 66.8196 87.4983 66.2616 88.5539C65.1199 90.7147 64.0346 92.9025 63.0534 95.1416C61.0783 99.6589 59.4846 104.389 58.9089 109.303C58.7499 110.643 58.6768 111.991 58.6899 113.34C58.7062 114.683 58.7442 116.122 59.1651 117.405C59.1759 117.438 59.1978 117.466 59.2271 117.484C59.2563 117.503 59.291 117.51 59.3252 117.506C59.3594 117.501 59.391 117.485 59.4144 117.459C59.4378 117.434 59.4516 117.401 59.4535 117.366C59.4542 116.162 59.2805 114.959 59.2358 113.766C59.2066 112.56 59.2485 111.353 59.3612 110.151C59.6035 107.731 60.0682 105.338 60.7496 103.002C62.0943 98.2697 64.1388 93.7662 66.3668 89.3872C66.9608 88.22 67.5676 87.061 68.1871 85.9101C68.7816 84.8029 69.4566 83.703 69.9102 82.5323C69.958 82.4057 69.7777 82.3576 69.6979 82.4449L69.7216 82.4442Z" fill="#231F20"/>
<path d="M31.6148 104.593C33.2281 104.206 34.7527 103.427 36.1777 102.598C37.7243 101.687 39.21 100.675 40.6253 99.5692C43.5861 97.3008 46.3052 94.7553 49.0502 92.2452C50.4869 90.9304 51.9611 89.6517 53.3554 88.2926C53.4357 88.2125 53.3293 88.0637 53.2332 88.1325C51.8635 89.1479 50.5584 90.2478 49.3252 91.4259C47.9895 92.6447 46.663 93.8731 45.3164 95.0796C42.5919 97.5221 39.7852 99.919 36.6539 101.837C35.0218 102.81 33.3143 103.65 31.5481 104.348C31.5146 104.357 31.4858 104.379 31.4681 104.408C31.4505 104.438 31.4453 104.474 31.4539 104.507C31.4624 104.541 31.4839 104.57 31.5137 104.588C31.5434 104.605 31.5789 104.61 31.6125 104.602L31.6148 104.593Z" fill="#231F20"/>
<path d="M60.994 84.7022C60.0436 86.0663 59.1288 87.4471 58.1205 88.7721C57.0839 90.1322 55.9749 91.4375 54.8528 92.7298C52.6209 95.3037 50.2871 97.7913 48.1778 100.471C47.5936 101.213 47.0225 101.967 46.4793 102.741C45.8878 103.518 45.3769 104.353 44.9544 105.234C44.9144 105.322 45.0284 105.443 45.105 105.35C45.6361 104.71 46.0858 103.987 46.5744 103.312C47.0884 102.603 47.6117 101.905 48.1551 101.218C49.2183 99.8819 50.325 98.5854 51.4492 97.303C53.6919 94.7415 56.0082 92.2398 58.0739 89.5296C59.2102 88.0426 60.3296 86.478 61.1039 84.767C61.1125 84.7523 61.115 84.7349 61.1107 84.7185C61.1065 84.7021 61.0959 84.6881 61.0814 84.6795C61.0668 84.6709 61.0494 84.6685 61.033 84.6727C61.0166 84.677 61.0026 84.6876 60.994 84.7022Z" fill="#231F20"/>
<path d="M60.5132 89.9414C59.4397 92.1558 58.2249 94.2902 57.024 96.4258C55.823 98.5614 54.6172 100.759 53.8292 103.104C53.6114 103.745 53.4369 104.399 53.3071 105.062C53.1925 105.66 53.0187 106.364 53.1259 106.969C53.1562 107.147 53.3954 107.107 53.4446 106.967C53.5248 106.693 53.5798 106.413 53.6089 106.13C53.6602 105.832 53.718 105.535 53.7892 105.233C53.9228 104.653 54.0735 104.079 54.2484 103.511C54.6294 102.362 55.0863 101.239 55.6161 100.15C56.6781 97.9346 57.933 95.8087 59.0545 93.6353C59.6835 92.4658 60.2172 91.2475 60.6505 89.9921C60.6711 89.915 60.5554 89.8629 60.5194 89.9359L60.5132 89.9414Z" fill="#231F20"/>
<path d="M24.359 101.923C24.0699 101.539 23.7193 101.206 23.3214 100.938C22.9619 100.705 22.5822 100.506 22.1868 100.342C21.4411 100.029 20.6464 99.8495 19.8386 99.8105C18.2371 99.7604 16.6546 100.174 15.2805 101.001C12.6608 102.529 10.4932 105.498 10.738 108.652C10.815 109.584 11.1051 110.486 11.586 111.287C12.0669 112.088 12.7255 112.767 13.5109 113.272C13.5338 113.286 13.5612 113.291 13.5878 113.286C13.6143 113.281 13.6381 113.267 13.6547 113.245C13.6712 113.224 13.6793 113.197 13.6773 113.17C13.6753 113.143 13.6635 113.118 13.644 113.099C12.4936 111.98 11.4984 110.695 11.2421 109.068C11.0558 107.646 11.3393 106.201 12.0493 104.954C13.4488 102.357 16.2803 100.37 19.2668 100.267C20.1134 100.236 20.9583 100.364 21.7572 100.646C22.6566 100.966 23.4677 101.52 24.2594 102.04C24.3479 102.097 24.42 101.977 24.3637 101.905L24.359 101.923Z" fill="#231F20"/>
<path d="M19.794 105.835C18.8904 105.407 17.8492 105.354 17.0454 106.018C16.2808 106.65 15.8976 107.672 15.7694 108.63C15.6932 109.201 15.734 109.781 15.8891 110.336C15.9184 110.438 16.1008 110.425 16.0773 110.31C15.9516 109.174 16.1078 107.917 16.7262 106.941C17.0017 106.489 17.4117 106.135 17.8984 105.929C18.1873 105.831 18.4927 105.792 18.7967 105.814C19.1008 105.835 19.3975 105.917 19.6696 106.054C19.811 106.116 19.943 105.912 19.7899 105.85L19.794 105.835Z" fill="#231F20"/>
<path d="M59.9385 114.336C60.5691 113.827 61.4173 113.288 62.267 113.396C62.9294 113.483 63.4349 113.982 63.7639 114.532C64.6408 115.997 64.6542 117.96 64.1788 119.557C64.0366 120.045 63.8239 120.509 63.5473 120.936C63.2528 121.345 62.9291 121.732 62.5787 122.094C62.483 122.206 62.5732 122.433 62.7399 122.373C63.6897 122.001 64.3027 121.01 64.6708 120.106C65.0445 119.144 65.201 118.111 65.1291 117.081C65.0397 115.508 64.365 113.224 62.5529 112.899C61.445 112.698 60.4679 113.358 59.7338 114.123C59.7098 114.152 59.6973 114.189 59.6987 114.226C59.7001 114.263 59.7153 114.299 59.7414 114.326C59.7675 114.352 59.8026 114.368 59.8398 114.37C59.8771 114.373 59.9138 114.361 59.9429 114.337L59.9385 114.336Z" fill="#231F20"/>
<path d="M40.2552 109.639C38.8444 110.583 38.377 112.742 38.6611 114.327C38.7424 114.771 38.917 115.193 39.1732 115.565C39.4294 115.936 39.7615 116.249 40.1475 116.482C40.9406 116.917 41.863 117.052 42.7478 116.864C43.7962 116.692 44.7703 116.212 45.5468 115.485C45.5627 115.468 45.5719 115.445 45.5728 115.421C45.5737 115.397 45.5663 115.374 45.5518 115.355C45.5373 115.336 45.5167 115.322 45.4935 115.317C45.4702 115.312 45.4459 115.315 45.4246 115.325C44.0287 116.027 42.3447 116.865 40.7672 116.234C40.3859 116.081 40.0443 115.842 39.7678 115.538C39.4914 115.233 39.2872 114.869 39.1706 114.474C38.978 113.705 38.9791 112.899 39.1738 112.13C39.3599 111.318 39.7134 110.425 40.4027 109.908C40.5525 109.796 40.4159 109.54 40.2523 109.65L40.2552 109.639Z" fill="#231F20"/>
<path d="M46.1243 107.86C46.5788 107.384 46.9621 106.804 47.5887 106.539C47.8041 106.449 48.0367 106.408 48.2696 106.42C48.5024 106.431 48.7298 106.495 48.9351 106.605C49.9497 107.138 50.4869 108.374 50.641 109.457C50.6909 109.828 50.7006 110.204 50.6698 110.577C50.6562 110.769 50.6278 110.955 50.6032 111.145C50.5518 111.324 50.5533 111.515 50.6075 111.694C50.6174 111.711 50.6305 111.726 50.6463 111.739C50.662 111.751 50.6801 111.76 50.6993 111.765C50.7185 111.77 50.7386 111.771 50.7583 111.768C50.7781 111.766 50.7971 111.759 50.8143 111.749C51.1171 111.568 51.1618 111.02 51.2034 110.705C51.2483 110.328 51.247 109.947 51.1997 109.571C51.1241 108.844 50.8993 108.141 50.5396 107.505C49.9535 106.497 48.8255 105.568 47.5948 105.995C47.2051 106.142 46.8527 106.375 46.563 106.674C46.2732 106.974 46.0532 107.335 45.9188 107.73C45.9137 107.756 45.9166 107.782 45.9272 107.806C45.9378 107.83 45.9555 107.849 45.9778 107.863C46.0002 107.876 46.0261 107.882 46.052 107.88C46.0779 107.877 46.1024 107.867 46.1223 107.85L46.1243 107.86Z" fill="#231F20"/>
<path d="M29.8277 110.702C29.9716 110.481 30.0508 110.228 30.1832 109.996C30.3041 109.781 30.4529 109.582 30.6257 109.406C30.95 109.077 31.3547 108.839 31.7994 108.715C32.5633 108.501 33.5051 108.653 33.9533 109.384C34.0858 109.612 34.1748 109.862 34.2157 110.123C34.277 110.467 34.2669 110.814 34.3 111.158C34.3111 111.258 34.4634 111.332 34.5199 111.217C34.6441 110.917 34.7039 110.593 34.6956 110.269C34.6873 109.944 34.6109 109.625 34.4715 109.331C34.2462 108.864 33.8526 108.5 33.3698 108.312C32.3899 107.924 31.2324 108.262 30.4745 108.957C30.0345 109.362 29.5617 110.048 29.6603 110.676C29.6749 110.763 29.7909 110.761 29.8311 110.698L29.8277 110.702Z" fill="#231F20"/>
<path d="M33.3442 112.03C33.7709 111.631 34.366 111.237 34.9777 111.285C35.192 111.305 35.3951 111.39 35.5607 111.528C35.7575 111.707 35.8952 111.942 35.9557 112.202C36.0428 112.621 36.0608 113.052 36.009 113.477C35.9876 113.708 36.3225 113.724 36.3804 113.524C36.6059 112.767 36.5537 111.833 35.9607 111.247C35.7211 111.026 35.4196 110.884 35.0969 110.84C34.7742 110.796 34.4456 110.853 34.1556 111.002C33.7587 111.207 33.4292 111.522 33.2065 111.91C33.1458 112.005 33.2785 112.1 33.3564 112.028L33.3442 112.03Z" fill="#231F20"/>
<path d="M36.1856 109.918C36.2174 109.455 36.2525 108.855 36.6164 108.515C36.7678 108.397 36.9428 108.314 37.1292 108.27C37.3157 108.227 37.5093 108.224 37.6968 108.262C38.76 108.392 39.8103 109.038 40.6084 109.712C41.0444 110.064 41.3835 110.542 41.8336 110.877C41.9204 110.94 42.0753 110.854 42.0622 110.744C41.9781 110.176 41.4965 109.738 41.0836 109.387C40.5818 108.956 40.0272 108.589 39.433 108.298C38.5487 107.868 37.1662 107.372 36.3176 108.142C35.8121 108.598 35.7649 109.332 35.895 109.957C35.9304 110.124 36.166 110.071 36.179 109.917L36.1856 109.918Z" fill="#231F20"/>
<path d="M37.6557 104.052C37.8777 103.167 38.7974 102.846 39.6146 102.82C40.677 102.783 41.7121 103.159 42.5034 103.869C42.976 104.314 43.1968 104.864 43.3969 105.466C43.4316 105.574 43.6222 105.601 43.6333 105.463C43.8242 104.146 42.6291 103.098 41.5257 102.659C40.5079 102.253 39.1362 102.114 38.1669 102.736C37.944 102.877 37.7606 103.072 37.6342 103.303C37.5251 103.533 37.4971 103.794 37.5548 104.042C37.5629 104.091 37.6375 104.085 37.6493 104.041L37.6557 104.052Z" fill="#231F20"/>
<path d="M53.557 111.005C53.7327 110.953 53.917 110.938 54.0986 110.96C54.2802 110.982 54.4554 111.041 54.6136 111.133C54.9004 111.332 55.1247 111.609 55.2605 111.931C55.4348 112.306 55.5532 112.704 55.6119 113.114C55.6556 113.522 55.7245 113.928 55.818 114.328C55.8211 114.357 55.8348 114.384 55.8563 114.403C55.8779 114.423 55.9059 114.434 55.9349 114.434C55.964 114.434 55.9921 114.424 56.0139 114.404C56.0358 114.385 56.0498 114.358 56.0533 114.329C56.3105 113.657 56.1265 112.809 55.8918 112.161C55.6572 111.513 55.2816 110.872 54.614 110.663C54.2398 110.563 53.8422 110.597 53.4903 110.76C53.3391 110.824 53.3905 111.055 53.5591 111.015L53.557 111.005Z" fill="#231F20"/>
<path d="M19.4303 95.6733C19.7609 94.8311 20.1986 93.8615 21.0488 93.4295C21.7065 93.0924 22.4863 93.2248 23.15 93.501C24.9639 94.2611 26.3969 95.9279 27.4141 97.5642C27.9462 98.4649 28.3659 99.4278 28.6636 100.431C28.6734 100.462 28.6937 100.488 28.7209 100.506C28.7482 100.523 28.7807 100.53 28.8127 100.525C28.8446 100.521 28.874 100.505 28.8955 100.481C28.9171 100.457 28.9294 100.426 28.9304 100.394C28.9805 99.4201 28.497 98.415 28.0422 97.5853C27.492 96.5961 26.8072 95.6887 26.0073 94.8889C24.8103 93.6888 22.8268 92.1514 21.0201 92.9188C19.9419 93.3751 19.424 94.531 19.2521 95.6258C19.2456 95.6504 19.2491 95.6765 19.2617 95.6985C19.2744 95.7205 19.2953 95.7365 19.3198 95.743C19.3443 95.7496 19.3704 95.7461 19.3924 95.7333C19.4143 95.7206 19.4303 95.6996 19.4369 95.6751L19.4303 95.6733Z" fill="#231F20"/>
<path d="M64.3816 110.68C65.1247 109.908 65.8262 109.115 66.8994 108.827C67.2859 108.73 67.6879 108.711 68.0816 108.772C68.4752 108.833 68.8525 108.973 69.1909 109.183C70.7651 110.118 71.6712 112.065 71.8468 113.835C71.9088 114.401 71.9029 114.972 71.8291 115.536C71.7397 116.145 71.5553 116.721 71.4159 117.315C71.4074 117.35 71.4119 117.388 71.4285 117.421C71.4452 117.454 71.4729 117.479 71.5068 117.494C71.5407 117.508 71.5785 117.509 71.6135 117.498C71.6485 117.487 71.6784 117.464 71.6978 117.432C72.3761 116.541 72.521 115.229 72.4741 114.142C72.4133 113.045 72.1124 111.974 71.5928 111.007C70.7267 109.387 69.0278 107.94 67.0784 108.315C65.8869 108.543 64.7846 109.496 64.2246 110.553C64.2139 110.574 64.2108 110.599 64.2158 110.622C64.2209 110.645 64.2338 110.666 64.2524 110.68C64.2709 110.695 64.294 110.703 64.3177 110.702C64.3413 110.702 64.3641 110.693 64.3822 110.678L64.3816 110.68Z" fill="#231F20"/>
<path d="M61.6486 123.693C62.7198 122.953 63.6094 124.352 64.0007 125.182C64.6401 126.547 64.957 128.221 64.6759 129.716C64.6102 130.094 64.4881 130.459 64.3138 130.801C64.2338 130.959 64.1399 131.11 64.0331 131.252C63.9158 131.401 63.7714 131.518 63.6624 131.671C63.5533 131.823 63.7283 131.998 63.8807 131.965C64.2323 131.875 64.5484 131.52 64.7546 131.232C64.9758 130.905 65.1374 130.541 65.232 130.158C65.4374 129.288 65.4639 128.387 65.3098 127.507C65.183 126.631 64.9193 125.781 64.5285 124.987C64.2232 124.365 63.8009 123.714 63.1973 123.336C62.9414 123.158 62.631 123.078 62.3211 123.108C62.0112 123.138 61.7219 123.277 61.5043 123.501C61.4039 123.594 61.5352 123.773 61.6508 123.693L61.6486 123.693Z" fill="#231F20"/>
<path d="M15.8976 96.6912C15.0581 96.5971 14.231 96.386 13.3888 96.2842C12.5919 96.1739 11.7838 96.1688 10.9852 96.2689C9.77412 96.4545 8.65729 97.0347 7.80745 97.9198C6.26767 99.4621 5.28069 101.82 5.69359 104.008C5.92232 105.226 6.66438 106.393 7.78443 106.963C7.91094 107.027 8.07001 106.855 7.9463 106.753C7.10717 106.057 6.41664 105.29 6.14089 104.213C5.91096 103.209 5.96546 102.16 6.29826 101.185C6.93527 99.1584 8.53161 97.2274 10.6721 96.7451C11.5223 96.5833 12.3922 96.5548 13.2507 96.6606C14.1353 96.7359 15.013 96.7929 15.8996 96.8428C15.9994 96.8482 15.9947 96.6981 15.8988 96.6867L15.8976 96.6912Z" fill="#231F20"/>
<path d="M8.14876 109.769C6.05872 109.965 5.23943 112.197 5.23123 114.03C5.22443 115.981 6.06532 118.305 8.06887 118.981C9.33977 119.409 10.9373 119.037 11.9637 118.201C12.0689 118.116 11.9569 117.935 11.8353 117.976C10.7519 118.346 9.70059 118.851 8.52712 118.579C7.68484 118.359 6.9638 117.814 6.52116 117.064C6.04711 116.267 5.76694 115.369 5.7033 114.443C5.63966 113.517 5.79434 112.588 6.15483 111.733C6.32763 111.302 6.6025 110.92 6.95568 110.619C7.30886 110.318 7.72973 110.108 8.1819 110.007C8.31376 109.98 8.28427 109.755 8.15052 109.762L8.14876 109.769Z" fill="#231F20"/>
<path d="M62.4738 136.48C62.6053 137.224 62.9504 138.076 63.8015 138.171C64.5429 138.253 65.2944 137.82 65.8749 137.401C66.5718 136.889 67.2104 136.302 67.7792 135.649C68.5605 134.724 69.1337 133.642 69.4598 132.475C69.6687 131.757 69.7956 131.018 69.838 130.271C69.8598 129.88 69.8634 129.487 69.8483 129.093C69.8531 128.705 69.8116 128.319 69.7245 127.941C69.7025 127.864 69.6022 127.887 69.5922 127.96C69.5179 128.592 69.595 129.248 69.5493 129.887C69.5034 130.507 69.4002 131.122 69.2412 131.723C69.0726 132.329 68.8512 132.919 68.5797 133.487C68.343 134.047 68.0382 134.576 67.6723 135.061C67.2078 135.619 66.6971 136.136 66.1457 136.607C65.6009 137.069 64.9616 137.566 64.2522 137.727C63.3493 137.932 62.909 137.189 62.7173 136.415C62.6789 136.259 62.4536 136.326 62.481 136.48L62.4738 136.48Z" fill="#231F20"/>
<path d="M69.8472 115.432C69.9407 115.594 70.1647 115.637 70.3148 115.746C70.4541 115.848 70.5727 115.976 70.6644 116.122C70.8919 116.502 71.0342 116.927 71.0815 117.367C71.1471 117.852 71.1352 118.343 71.0463 118.824C71.0025 119.055 70.942 119.282 70.8652 119.503C70.7827 119.702 70.7269 119.911 70.6994 120.125C70.7002 120.147 70.7066 120.168 70.7179 120.186C70.7292 120.205 70.745 120.22 70.7638 120.231C70.7826 120.242 70.8039 120.247 70.8256 120.247C70.8472 120.248 70.8686 120.242 70.8876 120.232C71.2257 120.05 71.3592 119.585 71.4559 119.24C71.5693 118.809 71.6206 118.364 71.6082 117.919C71.5936 117.152 71.4365 116.248 70.8674 115.688C70.6582 115.483 70.1072 115.102 69.8469 115.416C69.8436 115.418 69.8412 115.422 69.8401 115.426C69.8391 115.43 69.8394 115.434 69.8411 115.438L69.8472 115.432Z" fill="#231F20"/>
<path d="M71.6213 117.834C72.0617 117.955 72.4945 118.102 72.9174 118.274C73.26 118.436 73.5709 118.658 73.8356 118.93C74.2967 119.444 74.5587 120.107 74.574 120.799C74.6431 122.395 73.7487 123.946 72.5143 124.909C71.6608 125.574 70.6606 125.853 69.6068 125.997C69.5838 125.998 69.5623 126.009 69.5467 126.026C69.531 126.043 69.5224 126.065 69.5225 126.088C69.5226 126.111 69.5315 126.133 69.5473 126.15C69.5631 126.167 69.5847 126.177 69.6078 126.179C71.5449 126.388 73.4558 125.115 74.3717 123.465C75.1612 122.042 75.3896 120.117 74.3047 118.779C74.0159 118.421 73.6477 118.135 73.2292 117.944C72.7297 117.705 72.1752 117.603 71.6231 117.65C71.518 117.665 71.5439 117.806 71.6235 117.835L71.6213 117.834Z" fill="#231F20"/>
<path d="M67.9243 129.622C68.9777 130.045 70.1147 129.571 70.9276 128.855C71.809 128.026 72.4963 127.011 72.94 125.885C73.0663 125.588 73.185 125.284 73.2855 124.978C73.4018 124.694 73.4333 124.383 73.3763 124.081C73.3707 124.064 73.3609 124.048 73.3476 124.035C73.3343 124.022 73.318 124.013 73.3003 124.008C73.2825 124.004 73.2638 124.004 73.246 124.008C73.2281 124.012 73.2117 124.021 73.1981 124.034C72.9931 124.274 72.845 124.557 72.765 124.863C72.6511 125.175 72.5263 125.484 72.3844 125.786C72.0898 126.451 71.7241 127.082 71.2936 127.668C70.8994 128.207 70.4032 128.663 69.8333 129.009C69.2525 129.317 68.6026 129.469 67.9464 129.451C67.9259 129.45 67.906 129.457 67.8905 129.47C67.875 129.484 67.865 129.503 67.8625 129.523C67.8601 129.543 67.8653 129.564 67.8771 129.58C67.889 129.597 67.9066 129.609 67.9266 129.613L67.9243 129.622Z" fill="#231F20"/>
<path d="M9.13924 104.561C8.14503 105.357 7.78713 106.857 7.67315 108.062C7.53072 109.43 7.72898 110.811 8.25017 112.082C8.50335 112.678 8.88431 113.432 9.48745 113.732C9.51629 113.748 9.54957 113.754 9.58226 113.749C9.61495 113.745 9.64529 113.73 9.66876 113.707C9.69222 113.683 9.70753 113.653 9.71238 113.62C9.71723 113.588 9.71137 113.554 9.69568 113.525C9.44874 113.02 9.08094 112.58 8.84135 112.065C8.58313 111.5 8.39596 110.905 8.28416 110.294C8.05163 109.029 8.10882 107.727 8.45141 106.487C8.64963 105.845 8.91781 105.228 9.25108 104.646C9.25977 104.631 9.26287 104.614 9.25979 104.598C9.25671 104.581 9.24765 104.566 9.23437 104.556C9.22109 104.546 9.20451 104.541 9.18777 104.542C9.17104 104.543 9.15533 104.55 9.14364 104.563L9.13924 104.561Z" fill="#231F20"/>
<path d="M11.1298 96.3926C11.2245 95.5252 11.3122 94.7103 11.7676 93.9391C12.209 93.2193 12.8213 92.62 13.5498 92.1947C15.0836 91.277 16.8965 90.9468 18.6531 91.2651C19.6055 91.4412 20.5059 91.8299 21.2875 92.4023C21.4016 92.487 21.5349 92.3053 21.4387 92.2064C20.075 90.8981 18.0134 90.5632 16.1984 90.823C14.3835 91.0828 12.5948 91.9683 11.5645 93.526C11.0277 94.3463 10.6757 95.445 10.9144 96.4225C10.9455 96.5536 11.1152 96.5091 11.1298 96.3926Z" fill="#231F20"/>
<path d="M66.1359 69.8057L63.5047 72.0747L73.2029 80.4776L75.0646 77.5429L66.1359 69.8057Z" fill="#565656" stroke="#231F20" stroke-width="0.428588" stroke-linecap="round" stroke-linejoin="round"/>
<path d="M64.7315 73.1356L71.9645 79.4051C66.6472 93.3177 54.0616 93.6826 54.0616 93.6826C51.7806 79.3045 64.7315 73.1356 64.7315 73.1356Z" fill="#FFCE00" stroke="#231F20" stroke-width="0.428588" stroke-linecap="round" stroke-linejoin="round"/>
<path d="M70.8272 78.4222L65.8612 74.1199C63.0923 76.6049 59.0276 81.3253 58.8841 87.7196C58.8847 87.7174 65.6882 86.2779 70.8272 78.4222Z" fill="#F74C00" stroke="#231F20" stroke-width="0.428588" stroke-linecap="round" stroke-linejoin="round"/>
<path d="M63.6362 82.0114C63.6362 82.0114 66.7135 81.0729 69.8571 77.5803L66.8511 74.9745C65.3833 76.7768 63.9559 79.1873 63.6362 82.0114Z" fill="#0054CE" stroke="#231F20" stroke-width="0.428588" stroke-linecap="round" stroke-linejoin="round"/>
<path d="M65.4594 66.1893L63.9677 67.9175L77.222 79.4018L78.7137 77.6736L65.4594 66.1893Z" fill="#282828" stroke="#231F20" stroke-width="0.428588" stroke-linecap="round" stroke-linejoin="round"/>
<path d="M114.742 34.8765C114.742 34.8765 115.592 28.1579 112.34 25.3331C109.089 22.5082 102.564 24.3172 102.564 24.3172C98.298 26.0983 97.2172 26.5822 92.8976 31.5866L64.0663 64.9867L80.1409 78.9134L108.972 45.5133C113.738 39.974 114.208 38.5761 114.742 34.8765Z" fill="#C10065" stroke="#231F20" stroke-width="0.428588" stroke-linecap="round" stroke-linejoin="round"/>
<path d="M114.742 34.8763C115.185 32.0685 116.092 23.0322 115.155 22.2178C114.218 21.4035 104.038 23.7964 102.555 24.3147C107.422 26.7814 111.607 30.4117 114.74 34.8851L114.742 34.8763Z" fill="#666666" stroke="#231F20" stroke-width="0.428588" stroke-linecap="round" stroke-linejoin="round"/>
<path d="M84.8967 40.8633L67.4565 61.064L58.5621 53.3572C58.5621 53.3572 60.9793 50.5565 61.6246 49.8242C62.2699 49.0918 84.8967 40.8633 84.8967 40.8633Z" fill="#444444" stroke="#231F20" stroke-width="0.428588" stroke-linecap="round" stroke-linejoin="round"/>
<path d="M58.1478 55.3957L65.0305 63.8883L67.468 61.0647L58.5735 53.3579L58.1987 53.7916C57.5506 54.5256 58.1478 55.3957 58.1478 55.3957Z" fill="#C10065" stroke="#231F20" stroke-width="0.428588" stroke-linecap="round" stroke-linejoin="round"/>
<path d="M100.948 54.7723L83.5115 74.9764L92.406 82.6832L95.4685 79.1502C96.0902 78.4092 100.948 54.7723 100.948 54.7723Z" fill="#444444" stroke="#231F20" stroke-width="0.428588" stroke-linecap="round" stroke-linejoin="round"/>
<path d="M90.4558 83.3882L81.0763 77.8002L83.5116 74.976L92.4061 82.6828L92.0335 83.1171C91.392 83.8528 90.4558 83.3882 90.4558 83.3882Z" fill="#C10065" stroke="#231F20" stroke-width="0.428588" stroke-linecap="round" stroke-linejoin="round"/>
<path d="M84.8964 40.863C84.8964 40.863 62.3331 49.0566 61.7494 49.6731L62.0028 49.7123C69.2425 50.8332 75.6565 48.8671 79.3824 47.2632L84.8964 40.863Z" fill="#C10065" stroke="#231F20" stroke-width="0.428588" stroke-linecap="round" stroke-linejoin="round"/>
<path d="M100.948 54.7714L95.8361 60.6885C94.7409 64.477 93.4586 71.4225 95.6941 78.834C96.1214 78.23 100.948 54.7714 100.948 54.7714Z" fill="#C10065" stroke="#231F20" stroke-width="0.428588" stroke-linecap="round" stroke-linejoin="round"/>
<path d="M106.655 32.7471L103.065 36.9047C103.393 37.2821 103.643 37.7212 103.8 38.1963L109.301 37.7105C108.954 35.8205 108.03 34.0859 106.655 32.7471Z" fill="#FCB400" stroke="#231F20" stroke-width="0.428588" stroke-linecap="round" stroke-linejoin="round"/>
<path d="M100.855 35.6591C101.347 35.7469 101.817 35.9307 102.238 36.2002L105.831 32.0272C104.31 30.8583 102.464 30.1918 100.547 30.1195L100.855 35.6591Z" fill="#FCB400" stroke="#231F20" stroke-width="0.428588" stroke-linecap="round" stroke-linejoin="round"/>
<path d="M98.074 36.2118C98.5818 35.8814 99.1598 35.6748 99.7614 35.6086L99.4535 30.1471C97.3756 30.3061 95.4109 31.1623 93.8769 32.5774L98.074 36.2118Z" fill="#FCB400" stroke="#231F20" stroke-width="0.428588" stroke-linecap="round" stroke-linejoin="round"/>
<path d="M103.996 39.2788C104.019 39.8849 103.897 40.4879 103.642 41.0382L107.848 44.6748C109.025 42.9512 109.589 40.8813 109.448 38.7989L103.996 39.2788Z" fill="#FCB400" stroke="#231F20" stroke-width="0.428588" stroke-linecap="round" stroke-linejoin="round"/>
<path d="M67.4326 69.0155L74.9343 60.3211C75.6152 59.5319 75.9557 58.5044 75.881 57.4646C75.8062 56.4247 75.3222 55.4577 74.5355 54.7763C73.7488 54.0948 72.7238 53.7548 71.686 53.831C70.6482 53.9072 69.6826 54.3933 69.0017 55.1824L61.4965 63.89L67.4326 69.0155Z" fill="#686868" stroke="#231F20" stroke-width="0.428588" stroke-linecap="round" stroke-linejoin="round"/>
<path d="M81.5914 81.2933L89.0931 72.5989C89.4302 72.2082 89.6874 71.7548 89.8498 71.2647C90.0123 70.7745 90.0768 70.2573 90.0398 69.7424C90.0028 69.2275 89.8649 68.7251 89.634 68.2638C89.4032 67.8026 89.0839 67.3915 88.6943 67.0541C88.3048 66.7167 87.8526 66.4596 87.3637 66.2974C86.8748 66.1352 86.3587 66.0711 85.8448 66.1088C85.331 66.1465 84.8294 66.2853 84.3688 66.5172C83.9083 66.7491 83.4977 67.0695 83.1605 67.4603L75.6594 76.1524L81.5914 81.2933Z" fill="#686868" stroke="#231F20" stroke-width="0.428588" stroke-linecap="round" stroke-linejoin="round"/>
<path d="M60.5585 68.1573L63.3272 70.5488C60.5525 76.7302 55.2845 77.3938 55.2845 77.3938C54.9097 71.3264 60.5585 68.1573 60.5585 68.1573Z" fill="#FFCE00" stroke="#231F20" stroke-width="0.428588" stroke-linecap="round" stroke-linejoin="round"/>
<path d="M62.8819 70.1774L60.9841 68.5306C59.6268 69.8217 57.5685 72.2127 57.1078 75.1149C57.1276 75.1202 60.1783 74.0517 62.8819 70.1774Z" fill="#F74C00" stroke="#231F20" stroke-width="0.428588" stroke-linecap="round" stroke-linejoin="round"/>
<path d="M63.8398 71.0023L59.9423 67.6226L61.1337 66.4502L64.8286 69.6531L63.8398 71.0023Z" fill="#565656" stroke="#231F20" stroke-width="0.428588" stroke-linecap="round" stroke-linejoin="round"/>
<path d="M66.6505 68.3516L65.5283 69.6533C65.489 69.6996 65.441 69.7375 65.387 69.765C65.3329 69.7924 65.274 69.8088 65.2136 69.8131C65.1532 69.8174 65.0926 69.8097 65.0353 69.7903C64.9779 69.7708 64.9251 69.7402 64.8797 69.7L61.0776 66.4047C61.0317 66.3653 60.9942 66.3171 60.9671 66.263C60.94 66.2089 60.924 66.1499 60.92 66.0894C60.9159 66.029 60.9239 65.9684 60.9435 65.911C60.9631 65.8537 60.9938 65.8008 61.034 65.7555L62.1557 64.456L66.6505 68.3516Z" fill="#565656" stroke="#231F20" stroke-width="0.428588" stroke-linecap="round" stroke-linejoin="round"/>
<path d="M74.7231 80.4319L77.4918 82.8234C74.7171 89.0048 69.4497 89.6663 69.4497 89.6663C69.0727 83.5983 74.7231 80.4319 74.7231 80.4319Z" fill="#FFCE00" stroke="#231F20" stroke-width="0.428588" stroke-linecap="round" stroke-linejoin="round"/>
<path d="M77.0574 82.4454L75.1574 80.7981C73.8001 82.0891 71.744 84.4808 71.2811 87.3823C71.2897 87.3941 74.3404 86.3256 77.0574 82.4454Z" fill="#F74C00" stroke="#231F20" stroke-width="0.428588" stroke-linecap="round" stroke-linejoin="round"/>
<path d="M78.0042 83.2763L74.1046 79.896L75.296 78.7237L78.9908 81.9266L78.0042 83.2763Z" fill="#565656" stroke="#231F20" stroke-width="0.428588" stroke-linecap="round" stroke-linejoin="round"/>
<path d="M80.8261 80.6284L79.7017 81.9296C79.6625 81.9756 79.6146 82.0133 79.5608 82.0405C79.507 82.0678 79.4483 82.0841 79.3882 82.0885C79.3281 82.0929 79.2677 82.0853 79.2106 82.0662C79.1534 82.047 79.1007 82.0166 79.0554 81.9768L75.2532 78.6816C75.2071 78.6423 75.1693 78.5942 75.142 78.5401C75.1147 78.486 75.0984 78.427 75.0941 78.3665C75.0899 78.306 75.0977 78.2452 75.1171 78.1877C75.1366 78.1303 75.1673 78.0772 75.2074 78.0318L76.3291 76.7322L80.8261 80.6284Z" fill="#565656" stroke="#231F20" stroke-width="0.428588" stroke-linecap="round" stroke-linejoin="round"/>
<path d="M96.2319 41.7676L93.9361 39.7761C93.8708 39.7194 93.795 39.6761 93.713 39.6488C93.6309 39.6216 93.5443 39.6108 93.4581 39.6172C93.3719 39.6237 93.2877 39.6471 93.2105 39.6862C93.1334 39.7253 93.0646 39.7793 93.0083 39.8451L88.2387 45.3623C88.1246 45.4944 88.0674 45.6664 88.0797 45.8406C88.092 46.0148 88.1728 46.1769 88.3042 46.2913L90.6001 48.2827L96.2319 41.7676Z" fill="#ED9700" stroke="#231F20" stroke-width="0.428588" stroke-linecap="round" stroke-linejoin="round"/>
<path d="M98.4212 43.6653L100.718 45.6546C100.849 45.7691 100.93 45.931 100.943 46.1052C100.955 46.2793 100.899 46.4515 100.785 46.5842L96.0152 52.1035C95.9009 52.2354 95.739 52.3165 95.5652 52.329C95.3914 52.3415 95.2198 52.2845 95.088 52.1703L92.7916 50.1811L98.4212 43.6653Z" fill="#ED9700" stroke="#231F20" stroke-width="0.428588" stroke-linecap="round" stroke-linejoin="round"/>
</g>
<defs>
<clipPath id="clip0_137_603">
<rect width="88.4148" height="125.433" fill="white" transform="translate(32.824 0.106445) rotate(14.9336)"/>
</clipPath>
</defs>
</svg>
