<svg width="1" height="2" viewBox="0 0 1 2" fill="none" xmlns="http://www.w3.org/2000/svg">
<path d="M0.622735 0.989882L0.660381 1.00852L0.719819 1.02718C0.729726 1.02718 0.735673 1.02718 0.741617 1.01267L0.761432 0.987808L0.779263 0.965017V0.950511C0.795047 0.925421 0.808956 0.899095 0.82087 0.871768C0.82087 0.900778 0.836722 0.919432 0.834741 0.915288C0.846426 0.958696 0.868998 0.998043 0.900123 1.02925C0.913992 1.02925 0.900123 1.00232 0.900123 0.902856C0.896196 0.840759 0.896196 0.778454 0.900123 0.716358C0.900123 0.66041 0.900123 0.618973 0.900123 0.618973C0.900123 0.618973 0.900123 0.571308 0.900123 0.548515V0.536083H0.844645C0.835488 0.524846 0.824807 0.51507 0.812943 0.50707C0.79471 0.493739 0.773968 0.484633 0.752102 0.480346C0.730236 0.476058 0.707752 0.476687 0.68614 0.482205C0.634586 0.496489 0.589181 0.52863 0.557347 0.57338C0.527823 0.615429 0.506914 0.663397 0.495926 0.714284C0.484842 0.767701 0.489684 0.823392 0.509797 0.873843C0.53297 0.925397 0.573037 0.966563 0.622735 0.989882ZM0.608864 0.735013C0.613617 0.703384 0.625913 0.673514 0.644612 0.648163C0.663311 0.622813 0.687813 0.602796 0.715859 0.58996C0.723022 0.586586 0.730786 0.584838 0.738642 0.584838C0.746498 0.584838 0.754269 0.586586 0.761432 0.58996L0.787184 0.616899C0.780041 0.669973 0.767418 0.722081 0.749538 0.77231C0.737451 0.808971 0.720796 0.843807 0.700004 0.875917V0.888349H0.682173C0.654577 0.875999 0.632065 0.85381 0.618642 0.825732C0.605218 0.797654 0.601754 0.765511 0.608864 0.735013Z" fill="#BF2026"/>
</svg>
