<svg width="3" height="2" viewBox="0 0 3 2" fill="none" xmlns="http://www.w3.org/2000/svg">
<path d="M0.93811 1.39113C0.938978 1.40132 0.941898 1.41121 0.946678 1.42014C0.951459 1.42907 0.957996 1.43684 0.965852 1.44294C0.999535 1.4678 1.00944 1.5279 1.01935 1.5942C1.02011 1.64114 1.03124 1.68725 1.05186 1.72895C1.07248 1.77064 1.10204 1.80679 1.13823 1.83457C1.16784 1.85212 1.20128 1.8614 1.23531 1.86151C1.27277 1.86218 1.31012 1.85729 1.34627 1.847L2.46177 1.60042C2.48025 1.59802 2.49799 1.59139 2.51374 1.581C2.5295 1.57061 2.54287 1.55673 2.55291 1.54033C2.56028 1.52305 2.5641 1.50433 2.5641 1.48541C2.5641 1.46649 2.56028 1.44778 2.55291 1.4305L2.27552 0.545695C2.27203 0.536862 2.26691 0.528839 2.26045 0.522082C2.25399 0.515326 2.24632 0.509975 2.23787 0.50633C2.22138 0.499192 2.20285 0.499192 2.18636 0.50633C1.75538 0.740528 1.34727 1.01813 0.967829 1.33519C0.959216 1.34162 0.952085 1.34998 0.946944 1.35965C0.941804 1.36933 0.938784 1.38008 0.93811 1.39113ZM2.17249 0.66174L2.43601 1.47194L1.32051 1.71853C1.29388 1.72541 1.26667 1.72957 1.23927 1.73096C1.22554 1.73025 1.21208 1.72673 1.19965 1.7206C1.16597 1.69988 1.15606 1.65222 1.14417 1.57141C1.13771 1.51076 1.12094 1.45182 1.09464 1.39735C1.4325 1.11941 1.79319 0.873255 2.17249 0.66174Z" fill="#963493"/>
</svg>
