<svg width="3" height="4" viewBox="0 0 3 4" fill="none" xmlns="http://www.w3.org/2000/svg">
<path d="M0.81109 3.38666C0.882122 3.50344 0.976821 3.60247 1.08848 3.67675C1.142 3.71335 1.19833 3.74523 1.25689 3.77207C1.31386 3.79803 1.37286 3.81883 1.43324 3.83424C1.55352 3.86662 1.67765 3.88058 1.80176 3.87568C1.86372 3.8725 1.92533 3.86419 1.98603 3.85082L2.07717 3.83009L2.16634 3.79901C2.19555 3.78873 2.22402 3.77626 2.25153 3.76171L2.33475 3.7182C2.36269 3.70246 2.38981 3.68516 2.41599 3.6664C2.44302 3.64822 2.46883 3.62814 2.49325 3.6063L2.53487 3.56071L2.58242 3.50891L2.63393 3.43017C2.65467 3.39917 2.67195 3.3658 2.68545 3.33071C2.70373 3.29392 2.7177 3.25496 2.72706 3.21467C2.73897 3.17205 2.74693 3.12833 2.75084 3.08412C2.75579 3.04007 2.75579 2.99556 2.75084 2.9515C2.7411 2.79801 2.69404 2.64965 2.61412 2.5205C2.58242 2.47077 2.55468 2.43554 2.53685 2.41068C2.51902 2.38581 2.50514 2.3796 2.50911 2.38374L2.44372 2.3195L2.37636 2.26563C2.33644 2.23662 2.29398 2.21165 2.24955 2.19103C2.1995 2.16379 2.14344 2.15092 2.08708 2.15373C2.06132 2.15373 2.07123 2.19103 2.1168 2.24283L2.15643 2.28635L2.20795 2.34644C2.23016 2.3691 2.25008 2.3941 2.26739 2.42104C2.27968 2.4346 2.29094 2.44915 2.30107 2.46455L2.33276 2.51636C2.38224 2.60304 2.41584 2.69861 2.43183 2.79817C2.44473 2.88618 2.43865 2.9761 2.41401 3.06133C2.40125 3.09298 2.38601 3.12348 2.36844 3.1525L2.34465 3.18773L2.32088 3.21674C2.30994 3.23084 2.29729 3.24338 2.28323 3.25404L2.26739 3.26647C2.23541 3.29866 2.2002 3.32715 2.16237 3.35143L2.09698 3.38458C2.07588 3.39788 2.05325 3.40833 2.02962 3.41567L1.97019 3.43639L1.90876 3.45089C1.86691 3.45947 1.82454 3.46501 1.78196 3.46747C1.69653 3.47037 1.61114 3.4606 1.52834 3.43846C1.48804 3.42684 1.44836 3.41301 1.40946 3.39702C1.37192 3.38004 1.33609 3.35921 1.30247 3.33485C1.23605 3.29197 1.17982 3.23387 1.13802 3.16494C1.09788 3.10328 1.07334 3.03199 1.06669 2.95772C1.06274 2.91777 1.06274 2.87749 1.06669 2.83754C1.06669 2.81682 1.06669 2.7961 1.06669 2.77537C1.06669 2.75465 1.06668 2.73393 1.08253 2.71321C1.13227 2.54861 1.23435 2.40676 1.37182 2.31121C1.44145 2.26305 1.51959 2.22994 1.60165 2.21382C1.64626 2.20631 1.69125 2.20147 1.73639 2.19932C1.76922 2.19406 1.80263 2.19406 1.83546 2.19932L1.8513 2.18688L1.87507 2.16202H1.95037C2.00168 2.15959 2.05272 2.15266 2.10293 2.1413C2.25573 2.10192 2.39385 2.01585 2.49971 1.89407C2.60557 1.77229 2.67437 1.62031 2.69734 1.45749C2.70687 1.39243 2.70281 1.32598 2.68545 1.26271C2.66065 1.13661 2.5895 1.02574 2.48731 0.953961C2.46945 0.9418 2.45092 0.930733 2.43183 0.920809L2.38428 0.904232C2.36334 0.900034 2.34182 0.900034 2.32088 0.904232C2.29512 0.904232 2.30304 0.941528 2.34465 0.995403C2.41551 1.07643 2.45811 1.18012 2.46552 1.28965C2.46162 1.38311 2.43128 1.47326 2.37834 1.54867C2.32735 1.62268 2.25916 1.68187 2.18021 1.72065C2.12748 1.74697 2.07017 1.76178 2.01179 1.76417H1.93254C1.83599 1.76578 1.73997 1.74893 1.64921 1.71444C1.57766 1.6879 1.51362 1.64302 1.46296 1.58389C1.42309 1.53496 1.40254 1.47198 1.40549 1.40776C1.40279 1.38991 1.40279 1.37173 1.40549 1.35389V1.3228V1.29587V1.26893L1.41738 1.24199V1.21505L1.43324 1.19019C1.47627 1.11886 1.53212 1.05694 1.59769 1.00784C1.66343 0.959177 1.73845 0.925954 1.81762 0.910448C1.88468 0.895917 1.95447 0.905403 2.01575 0.937384C2.01575 0.937384 2.03557 0.937384 2.03953 0.937384C2.1386 0.900085 2.2238 0.871076 2.25352 0.808912C2.26819 0.776681 2.27303 0.740511 2.26739 0.705305C2.26166 0.668132 2.24812 0.632748 2.22776 0.601698C2.22061 0.590609 2.21112 0.58139 2.20002 0.574759C2.06393 0.501778 1.90864 0.477747 1.75818 0.506381C1.62113 0.531231 1.49114 0.587873 1.37776 0.67215C1.26595 0.753986 1.17151 0.859101 1.10037 0.9809L1.07461 1.02649L1.05282 1.07829L1.03103 1.13009L1.01517 1.18397L1.0013 1.23785V1.29172C0.993901 1.3285 0.99058 1.36604 0.9914 1.40362C0.98759 1.5683 1.0411 1.72883 1.14198 1.85534L1.20736 1.9258C1.17812 1.9415 1.14968 1.95879 1.12216 1.9776C0.908183 2.12437 0.749298 2.34399 0.672406 2.59924C0.672406 2.6324 0.656544 2.66555 0.648618 2.69663C0.640693 2.72771 0.648629 2.76501 0.634759 2.79817C0.626792 2.86699 0.626792 2.93656 0.634759 3.00538C0.662931 3.14561 0.723461 3.2765 0.81109 3.38666Z" fill="#68BC45"/>
</svg>
