<svg width="3" height="3" viewBox="0 0 3 3" fill="none" xmlns="http://www.w3.org/2000/svg">
<path d="M2.35618 1.98521C2.35302 1.91496 2.3417 1.84538 2.32249 1.77799C2.28596 1.64478 2.22395 1.5207 2.14021 1.41329C1.9766 1.19867 1.75812 1.03699 1.51014 0.947062C1.38646 0.901023 1.25691 0.874484 1.12576 0.86832C1.05991 0.860951 0.993485 0.860951 0.927628 0.86832L0.830544 0.889036C0.797652 0.897494 0.765242 0.907876 0.73346 0.920123C0.60329 0.966134 0.490287 1.05387 0.410499 1.17086C0.371304 1.23076 0.344531 1.29858 0.331905 1.36995C0.319279 1.44133 0.321081 1.51468 0.33719 1.58528C0.367836 1.72326 0.436764 1.84868 0.535325 1.94584C0.559663 1.97033 0.585464 1.99316 0.612588 2.01421C0.592775 2.07223 0.569007 2.13439 0.547212 2.19656C0.523287 2.25789 0.506006 2.32184 0.495695 2.3872C0.495281 2.39064 0.495281 2.39412 0.495695 2.39756C0.51749 2.43486 0.539283 2.439 0.555133 2.43486C0.589298 2.43325 0.623189 2.42768 0.656184 2.41828C0.711662 2.40584 0.779029 2.3872 0.830544 2.38098C0.859468 2.37683 0.888799 2.37683 0.917724 2.38098H1.00094H1.01481C1.02126 2.3789 1.02816 2.3789 1.03462 2.38098C1.0908 2.40239 1.14515 2.42873 1.19709 2.45972C1.25257 2.49149 1.31002 2.5205 1.36946 2.54675C1.49017 2.601 1.61757 2.63727 1.74791 2.6545C1.81417 2.66096 1.88099 2.65677 1.94604 2.64207C2.0191 2.62471 2.08706 2.58917 2.14418 2.53846C2.19533 2.4872 2.23638 2.42595 2.26504 2.35819C2.2913 2.2915 2.31057 2.22202 2.32249 2.15098C2.33803 2.09677 2.3493 2.04133 2.35618 1.98521ZM2.14021 2.44314C2.1084 2.48808 2.06611 2.52375 2.01737 2.54675C1.96722 2.56914 1.91339 2.58111 1.85886 2.58198C1.74195 2.57835 1.62656 2.55309 1.51807 2.50738C1.40483 2.46273 1.2949 2.40941 1.18917 2.34783C1.15851 2.33153 1.12671 2.31768 1.09405 2.30639H1.07028H1.05444H1.0267C1.00688 2.30639 0.987071 2.30639 0.967257 2.30639H0.953386H0.91574C0.879113 2.3127 0.843246 2.32311 0.808752 2.33746C0.737423 2.36647 0.672032 2.39756 0.677976 2.39549L0.636363 2.41828C0.645953 2.37004 0.659889 2.32286 0.677976 2.27737C0.69779 2.21728 0.721569 2.15719 0.743364 2.09295V2.05773L0.757235 2.01215L0.739397 1.99764L0.707701 1.9707C0.683523 1.95366 0.660959 1.93422 0.64033 1.91267C0.554722 1.8344 0.493331 1.73125 0.463987 1.61636C0.450093 1.56105 0.446968 1.50338 0.454796 1.44678C0.462625 1.39019 0.481255 1.33582 0.509566 1.2869C0.572827 1.19073 0.663744 1.11815 0.769122 1.07968L0.850352 1.05067L0.935549 1.02994C0.992917 1.01792 1.05145 1.01307 1.10991 1.01545C1.22774 1.01686 1.34467 1.03712 1.45664 1.07553C1.68583 1.15099 1.89123 1.2899 2.05105 1.47753C2.12893 1.56905 2.18945 1.67524 2.22938 1.79042C2.26882 1.90441 2.28304 2.02626 2.27098 2.14683C2.25082 2.25516 2.20596 2.35681 2.14021 2.44314Z" fill="#FDBB11"/>
</svg>
