<svg width="2" height="1" viewBox="0 0 2 1" fill="none" xmlns="http://www.w3.org/2000/svg">
<path d="M1.03103 0.85928C1.04349 0.861445 1.05621 0.861445 1.06868 0.85928C1.1095 0.846501 1.14685 0.823775 1.17765 0.79297C1.1971 0.772355 1.21499 0.750183 1.23115 0.72666C1.23012 0.740454 1.23012 0.754312 1.23115 0.768106C1.25691 0.894506 1.28861 0.97532 1.29257 0.768106C1.29257 0.705941 1.29257 0.63342 1.29257 0.577472C1.29257 0.521524 1.29257 0.533949 1.29257 0.517372V0.494582V0.480075H1.22322C1.20542 0.450604 1.18128 0.425897 1.15273 0.407909C1.12418 0.389921 1.09201 0.379149 1.05877 0.376468C1.03386 0.376307 1.00924 0.382223 0.986891 0.393732C0.964537 0.405241 0.945052 0.422029 0.929981 0.442778C0.903668 0.477598 0.886585 0.519052 0.880447 0.562966C0.878657 0.58226 0.878657 0.601684 0.880447 0.620979C0.877416 0.640189 0.877416 0.659795 0.880447 0.679005C0.8776 0.700314 0.8776 0.721932 0.880447 0.743241C0.879764 0.754281 0.879764 0.76535 0.880447 0.77639C0.884911 0.788516 0.890212 0.800298 0.896301 0.811625C0.91166 0.837634 0.935641 0.856816 0.963666 0.865503C0.974611 0.869876 0.986364 0.871588 0.998035 0.870511C1.00971 0.869434 1.02099 0.86559 1.03103 0.85928ZM1.00924 0.573324C1.0137 0.548076 1.02314 0.524087 1.03697 0.502878C1.04165 0.495228 1.0481 0.488937 1.05572 0.48459C1.06334 0.480243 1.07188 0.477969 1.08056 0.478001C1.10053 0.48219 1.11923 0.491355 1.13509 0.504699C1.15096 0.518044 1.16351 0.535189 1.17171 0.554682H1.18359C1.16625 0.608642 1.13708 0.657595 1.0984 0.697647C1.08039 0.714586 1.05958 0.727931 1.03697 0.737019C1.01716 0.737019 1.01518 0.737019 1.00726 0.737019C0.994872 0.68593 0.995557 0.632333 1.00924 0.581608V0.573324Z" fill="#BF2026"/>
</svg>
