<svg width="3" height="4" viewBox="0 0 3 4" fill="none" xmlns="http://www.w3.org/2000/svg">
<path d="M2.4151 2.33502C2.51346 2.20237 2.58126 2.0478 2.61323 1.8833C2.62813 1.79858 2.63213 1.71217 2.62512 1.62635C2.60524 1.45307 2.53623 1.28997 2.42698 1.15805C2.37489 1.09351 2.31493 1.03639 2.24866 0.988129C2.11885 0.891786 1.97094 0.825405 1.81474 0.79336C1.73925 0.773875 1.6624 0.760709 1.58491 0.753989H1.46801C1.42906 0.751926 1.39006 0.751926 1.35111 0.753989C1.19422 0.768191 1.04077 0.81023 0.897377 0.878312C0.754678 0.950006 0.625222 1.04752 0.514979 1.16634C0.404631 1.28604 0.317203 1.42671 0.257406 1.58077L0.235614 1.63878C0.235614 1.65743 0.223721 1.67816 0.217777 1.69681C0.211833 1.71546 0.194006 1.77555 0.18608 1.81492C0.17098 1.8951 0.159741 1.97601 0.152401 2.05736C0.139574 2.22782 0.168198 2.39891 0.235614 2.55468C0.308264 2.7106 0.424296 2.83989 0.568479 2.92559C0.708525 3.00793 0.864022 3.05743 1.02419 3.07064C1.18153 3.08497 1.34005 3.0688 1.49178 3.02297C1.68992 2.96081 1.64831 2.97739 1.68992 2.96496L1.76918 2.95045C1.79269 2.94429 1.81649 2.93945 1.8405 2.93595C1.89358 2.92663 1.9472 2.92109 2.00099 2.91937C2.11789 2.91937 2.23677 2.92973 2.22687 2.91937C2.29245 2.93096 2.35942 2.93096 2.425 2.91937C2.44026 2.90654 2.45145 2.88918 2.45711 2.86959C2.46277 2.84999 2.46263 2.82906 2.45671 2.80955C2.45671 2.80955 2.45671 2.79919 2.45671 2.79712L2.2447 2.5754L2.23479 2.56504L2.26451 2.52567C2.32197 2.46143 2.36953 2.40133 2.4151 2.33502ZM2.1377 2.39927L2.10006 2.449L2.03468 2.54224L2.01684 2.56504C2.01684 2.56504 2.01684 2.56504 2.01684 2.57747V2.58783L2.05647 2.62927L2.12582 2.70179L2.23479 2.81783C2.13892 2.78637 2.03982 2.7669 1.93957 2.75982C1.88217 2.75604 1.82459 2.75604 1.76719 2.75982L1.67606 2.77639H1.63048H1.60869H1.5968L1.54528 2.79297C1.48033 2.81563 1.41418 2.83432 1.34715 2.84892C1.28184 2.86186 1.21548 2.8681 1.14901 2.86756C1.0127 2.86853 0.8777 2.8396 0.752743 2.78261C0.631001 2.72751 0.527586 2.63593 0.455541 2.51944C0.386311 2.40027 0.350599 2.2631 0.352507 2.12367C0.352949 2.05411 0.35959 1.98474 0.372328 1.91646V1.86258L0.384215 1.81078L0.41394 1.70509C0.457427 1.56968 0.524614 1.44391 0.612075 1.33419C0.633646 1.3065 0.6568 1.2802 0.681417 1.25544L0.760676 1.18291L0.843889 1.12075C0.871628 1.10003 0.905303 1.08552 0.935023 1.06687C1.05902 1.00081 1.19315 0.958026 1.33129 0.940474C1.47007 0.92393 1.61047 0.930228 1.74738 0.959129C1.88285 0.984979 2.01212 1.03849 2.1278 1.11661C2.18391 1.15537 2.23516 1.20131 2.28037 1.25337C2.3243 1.30501 2.36099 1.36292 2.38934 1.42536C2.41674 1.48714 2.43543 1.55275 2.44482 1.62014C2.45492 1.68881 2.45492 1.75869 2.44482 1.82736C2.42092 1.96732 2.36444 2.09897 2.28037 2.2107C2.24074 2.27701 2.18526 2.33711 2.1377 2.39927Z" fill="#B7AE00"/>
</svg>
