<svg width="3" height="5" viewBox="0 0 3 5" fill="none" xmlns="http://www.w3.org/2000/svg">
<path d="M2.09723 0.0655235C2.24808 0.0841871 2.39335 0.136477 2.52323 0.218863C2.57893 0.277061 2.6263 0.343362 2.6639 0.415716C2.71864 0.478449 2.75867 0.553649 2.7808 0.635362C2.80415 0.717796 2.81941 0.802499 2.82637 0.888164C2.83826 0.973118 2.83826 1.06014 2.83826 1.14717V1.14718C2.84222 1.3171 2.85411 1.49116 2.85411 1.66729L2.87789 1.7108L2.89769 1.76261C2.90958 1.79576 2.89968 1.78333 2.88779 1.76261C2.87698 1.74735 2.86707 1.73144 2.85808 1.71495V1.95739C2.85717 2.0533 2.82811 2.14661 2.77485 2.2247C2.74394 2.2619 2.70216 2.2874 2.65598 2.29722C2.63213 2.30187 2.60758 2.30074 2.58423 2.29392C2.56087 2.28709 2.53933 2.27475 2.52125 2.25785C2.48576 2.22404 2.46205 2.17884 2.45387 2.12938C2.44112 2.08264 2.4325 2.03478 2.42812 1.9864C2.41821 1.79374 2.41821 1.60936 2.41821 1.40221V1.40206V1.10367C2.41654 1.05369 2.4119 1.00386 2.40434 0.954474C2.40201 0.9377 2.39871 0.921091 2.39444 0.904741C2.38256 0.881972 2.36871 0.859203 2.35485 0.836433L2.35481 0.83636C2.34685 0.850387 2.34147 0.86585 2.33895 0.881948C2.33372 0.90649 2.3304 0.931439 2.32905 0.956545V1.10781V1.30467V1.31502V1.41656C2.328 1.42828 2.328 1.44007 2.32905 1.45179L2.35877 1.49945C2.35063 1.49205 2.34332 1.4837 2.33698 1.47458V1.6963C2.35481 1.72531 2.34887 1.72117 2.33698 1.70873V2.02577V2.72615C2.35878 2.75724 2.35085 2.75309 2.33698 2.73859V2.97896V2.99346V3.09707C2.35085 3.1095 2.34689 3.1095 2.33698 3.1095V3.28978V3.63375V3.93836C2.35085 4.04818 2.35085 4.158 2.35085 4.26783C2.35012 4.32436 2.34347 4.38065 2.33103 4.43567C2.3212 4.49254 2.29242 4.54393 2.2498 4.58072C2.20181 4.61145 2.14464 4.62252 2.08931 4.6118C2.06165 4.60679 2.0356 4.59471 2.01348 4.57664C1.99135 4.55856 1.97384 4.53505 1.9625 4.50819C1.92018 4.40467 1.89795 4.29338 1.89712 4.1808V3.84511V3.50942V2.83805V2.67021V2.63913C1.88721 2.62876 1.88721 2.61011 1.88721 2.61011C1.88255 2.59925 1.87457 2.59031 1.86454 2.58468C1.8545 2.57906 1.84296 2.57707 1.83173 2.57903H1.81192C1.78013 2.60192 1.7581 2.63685 1.7505 2.67642V2.85256V2.93958V2.95202C1.7505 3.27942 1.73861 3.60889 1.7505 3.93628V3.94665V4.07719C1.75882 4.08593 1.76614 4.09567 1.77229 4.1062L1.7604 4.09377V4.1808C1.7708 4.29473 1.75092 4.40946 1.70295 4.51234C1.68848 4.53802 1.66833 4.55971 1.6442 4.57557C1.62007 4.59143 1.59265 4.60102 1.56425 4.60351C1.50847 4.60868 1.45264 4.59409 1.40575 4.56207C1.36009 4.52867 1.32603 4.48068 1.30866 4.42531C1.29044 4.37186 1.2791 4.31611 1.27497 4.25954V3.92592C1.26903 3.7042 1.28686 3.48249 1.28686 3.26284V2.60597C1.28884 2.48786 1.30073 2.39668 1.30073 2.28064V1.95739C1.30271 1.74396 1.30271 1.52431 1.3146 1.3171C1.32252 1.20935 1.33244 1.10781 1.33244 1.00213C1.33458 0.951024 1.32854 0.899901 1.3146 0.850867C1.31107 0.840381 1.30491 0.831078 1.29677 0.823928C1.28921 0.815771 1.27959 0.810023 1.26903 0.80735C1.25318 0.803206 1.23535 0.830144 1.23535 0.852938C1.22595 0.881171 1.2193 0.91033 1.21553 0.939967C1.22432 0.956076 1.23226 0.972679 1.23931 0.9897L1.2195 0.96069V1.14511V1.45386V1.75847C1.22271 1.85975 1.21606 1.96111 1.19968 2.061C1.19045 2.11163 1.16859 2.15882 1.13629 2.19776C1.1241 2.21228 1.10833 2.22303 1.09071 2.22884C1.07165 2.23374 1.05201 2.23531 1.03259 2.23353L1.03523 2.23713C1.0005 2.24313 0.964853 2.23655 0.934184 2.21848L0.92428 2.22262C0.886294 2.19596 0.857196 2.15757 0.841054 2.1128C0.811505 2.04241 0.792788 1.96758 0.785583 1.89108L0.803408 1.91802C0.809724 1.92807 0.816135 1.93806 0.82264 1.94798C0.818416 1.92419 0.814589 1.90033 0.811159 1.87641C0.809005 1.87448 0.806252 1.87341 0.803408 1.87341C0.800484 1.87341 0.797667 1.87454 0.795487 1.87658C0.794454 1.85932 0.794454 1.84202 0.795487 1.82477C0.792928 1.77509 0.791694 1.72535 0.791785 1.67561C0.788344 1.60685 0.788151 1.53789 0.791222 1.46899L0.781616 1.45593V1.24872C0.781616 1.17826 0.781616 1.06015 0.795487 0.966906V0.950329L0.809358 0.977267C0.81139 0.980968 0.813429 0.984662 0.815472 0.98835C0.816639 0.970599 0.817901 0.952886 0.81928 0.935211C0.819399 0.906561 0.820296 0.877142 0.827061 0.848286C0.835842 0.7629 0.851797 0.678477 0.874746 0.595994C0.89679 0.513652 0.934532 0.436822 0.985701 0.370128C0.984831 0.368553 0.984371 0.366768 0.984371 0.364949C0.984371 0.363131 0.984831 0.361345 0.985701 0.35977C1.00008 0.342972 1.016 0.327702 1.03325 0.314183L1.05901 0.297605H1.07486C1.07823 0.307531 1.0822 0.317221 1.08675 0.326615V0.341119C1.0946 0.356758 1.1032 0.371974 1.11251 0.386706C1.13174 0.417181 1.15291 0.446257 1.1759 0.473736C1.22345 0.531755 1.27894 0.589777 1.33442 0.649869C1.44683 0.781682 1.552 0.920046 1.64945 1.0643L1.94467 1.47873L1.94475 1.47885C2.03983 1.61142 2.12896 1.7357 2.1963 1.84757L2.25772 1.94496C2.26763 1.96568 2.28942 1.98433 2.28942 2.00298V2.01334C2.29695 2.0302 2.30357 2.0475 2.30924 2.06514V1.71288V1.64657L2.2914 1.6217L2.19432 1.47043C2.07742 1.28601 1.92486 1.0415 1.76239 0.799063C1.68313 0.676807 1.59992 0.558694 1.51868 0.448871C1.47708 0.392923 1.43942 0.341121 1.3998 0.291389L1.31064 0.179492L1.29281 0.158772L1.24327 0.181566V0.19814L1.72276 0.846722C1.89513 1.09745 2.03977 1.36476 2.15866 1.55747L2.24187 1.69216L2.26763 1.74189L2.23395 1.69837L2.13686 1.54089C2.01996 1.35025 1.87731 1.08709 1.70691 0.840505L1.23535 0.20436C1.23461 0.198168 1.23461 0.1919 1.23535 0.185708L1.16204 0.22715H1.15014L1.16204 0.243728L1.19572 0.297605C1.21554 0.324543 1.23336 0.353551 1.25318 0.382561L1.38395 0.560765C1.4751 0.680949 1.57812 0.809422 1.67322 0.939967L2.26763 1.81649C2.27774 1.8318 2.287 1.84772 2.29537 1.86414C2.3132 1.89315 2.30132 1.88279 2.28546 1.86414C2.27263 1.85052 2.26072 1.83598 2.2498 1.82063L1.6554 0.93168C1.56822 0.803207 1.46122 0.678878 1.37008 0.558694C1.32451 0.498602 1.28092 0.438509 1.24129 0.382561L1.18384 0.297605L1.15213 0.249944L1.14024 0.231295L1.09467 0.258234L1.11646 0.237512L1.13826 0.218863L1.15808 0.206431C1.17194 0.196925 1.18651 0.188611 1.20166 0.181566C1.22973 0.164989 1.25886 0.150448 1.28884 0.13805L1.38395 0.0986785H1.39781C1.43152 0.0861364 1.46593 0.0757577 1.50085 0.0675977C1.49974 0.0607392 1.49974 0.0537335 1.50085 0.046875H1.51868C1.5176 0.0544304 1.5176 0.0621133 1.51868 0.0696687L1.61378 0.0530912C1.6149 0.0517682 1.61627 0.0507088 1.61781 0.0499831C1.61935 0.0492573 1.62101 0.0488828 1.6227 0.0488828C1.62438 0.0488828 1.62606 0.0492573 1.6276 0.0499831C1.62913 0.0507088 1.63051 0.0517682 1.63162 0.0530912H1.67521C1.76824 0.0469049 1.86155 0.0469049 1.95458 0.0530912L2.09723 0.0655235Z" fill="#534098"/>
</svg>
