<svg width="8" height="6" viewBox="0 0 8 6" fill="none" xmlns="http://www.w3.org/2000/svg">
<path d="M0.868874 1.48495C0.854358 1.49663 0.842675 1.51172 0.834759 1.529C0.826843 1.54628 0.82292 1.56526 0.823307 1.58441C0.801642 1.58269 0.780015 1.58818 0.761511 1.60008C0.743006 1.61199 0.728567 1.62972 0.720273 1.65072C0.718731 1.65471 0.718731 1.65916 0.720273 1.66315L0.749998 1.99677L0.995683 4.72371C0.995683 4.72371 1.07692 5.28318 1.0789 5.26039C1.0789 5.2894 1.08485 5.31634 1.09673 5.3412L1.08088 5.35571C1.07954 5.36114 1.07954 5.36685 1.08088 5.37229C1.07251 5.39412 1.07068 5.4181 1.07563 5.44104C1.08059 5.46398 1.09209 5.48481 1.10862 5.50076C1.11205 5.51968 1.11978 5.53747 1.13116 5.55261C1.14254 5.56776 1.15724 5.57982 1.17401 5.58779C1.17848 5.58953 1.1834 5.58953 1.18787 5.58779L1.50489 5.55878L6.43449 5.08841C6.43449 5.08841 6.96945 5.00345 6.94568 5.00137C7.15966 4.95786 7.29439 4.89984 6.94568 4.88948C6.73764 4.87911 6.44439 4.88948 6.44439 4.88948L1.49102 5.35986L1.36223 5.37229L1.45337 5.2749C1.5564 5.15471 1.65151 5.03038 1.74859 4.91227C1.84568 4.79416 1.94673 4.6719 2.03787 4.55172L2.61642 3.82232L2.71351 3.69799C2.71351 3.69799 3.03449 3.24212 3.01666 3.25663C3.04638 3.20897 3.07412 3.16546 3.09195 3.13023L3.1395 3.15924L3.32575 3.26699L3.56945 3.38717C3.69031 3.44312 3.80919 3.49907 3.80127 3.49078C3.85405 3.51355 3.90835 3.53225 3.96374 3.54673C3.96621 3.55792 3.97107 3.56838 3.97792 3.57734C3.98478 3.58631 3.99347 3.59356 4.00337 3.59854C4.02989 3.61175 4.05985 3.61539 4.08856 3.60889C4.08856 3.60889 4.09847 3.60889 4.10045 3.60889C4.17455 3.53441 4.25332 3.46518 4.33623 3.40168L4.61759 3.19447C4.66515 3.15924 4.71269 3.11573 4.75628 3.0805L4.79789 3.04527C4.8712 3.09915 4.94451 3.15302 5.01583 3.20897L6.43647 4.38595L6.55733 4.48541C6.55733 4.48541 7.00114 4.80866 6.98529 4.79208C7.15371 4.90191 7.28052 4.95786 7.11409 4.76929C7.12966 4.70146 7.13698 4.63184 7.13588 4.56208C7.14578 4.35487 7.13588 4.03783 7.13588 4.03783L6.90208 1.4435L6.87632 1.14305C6.89614 1.10782 6.89614 1.08917 6.87632 1.09953C6.8617 1.0822 6.84336 1.06871 6.82282 1.06016C6.89613 1.02908 6.87434 1.00214 6.64451 0.995927C6.41467 0.98971 6.14322 0.995927 6.14322 0.995927L1.19382 1.44558L0.874824 1.47459L0.868874 1.48495ZM6.93973 4.01918C6.93973 4.01918 7.02294 4.57866 7.02492 4.55586C7.03681 4.61596 7.0487 4.66983 7.06059 4.7092C6.91793 4.54965 6.69998 4.3445 6.69998 4.3445L6.56129 4.22846L5.13472 3.04735C5.07528 2.99969 5.01584 2.95617 4.95838 2.91266L5.43192 2.51273L5.96886 2.05271L6.23635 1.82064L6.39882 1.67559L6.59696 1.48081L6.71385 1.35648V1.45801L6.93973 4.01918ZM1.22948 1.64658L6.10954 1.17413C6.10954 1.17413 6.64451 1.08917 6.62272 1.0871L6.69007 1.0726C6.68283 1.08055 6.67682 1.08964 6.67225 1.09953C6.67071 1.10352 6.67071 1.10798 6.67225 1.11197V1.19485C6.49987 1.31503 6.27598 1.49324 6.27598 1.49324L6.1254 1.62585L5.85791 1.86208L5.31304 2.32624L4.76024 2.79454C4.6691 2.87121 4.57796 2.9541 4.4888 3.02248C4.39964 3.09086 4.30057 3.16546 4.20547 3.22969C4.11437 3.29753 4.02766 3.37159 3.94591 3.45141C3.94591 3.45141 3.94591 3.45141 3.94591 3.46384C3.94591 3.47627 3.88647 3.41826 3.8409 3.38717C3.67248 3.26077 3.4268 3.09707 3.4268 3.09707L3.2564 2.99554L2.95722 2.83184L2.36282 2.46507C1.96655 2.22056 1.57028 1.97604 1.15816 1.74811L1.01748 1.67144L1.22948 1.64658ZM1.07691 1.9201C1.47318 2.14182 1.86945 2.38012 2.25383 2.62048L2.84824 2.98104L3.04637 3.09293C3.02062 3.11573 2.9909 3.14266 2.95326 3.17996C2.79871 3.32501 2.59662 3.5488 2.59662 3.5488L2.48368 3.69178L1.9071 4.4191C1.81001 4.53929 1.70897 4.66154 1.61585 4.78173C1.52272 4.90191 1.4177 5.02624 1.32458 5.13813C1.28829 5.18091 1.24994 5.22171 1.20967 5.26039C1.20967 5.04282 1.20967 4.73614 1.20967 4.73614L0.963987 1.98434L0.952099 1.84965L1.07691 1.9201Z" fill="#F05C22"/>
</svg>
