<svg width="2" height="3" viewBox="0 0 2 3" fill="none" xmlns="http://www.w3.org/2000/svg">
<path d="M0.768529 0.689233C0.80023 0.660223 0.833911 0.635354 0.865613 0.608416C0.865613 0.608416 0.948826 0.531742 1.03601 0.461289C1.0919 0.418863 1.14547 0.37321 1.19649 0.324534C1.33717 0.204349 1.41247 0.104886 1.15291 0.245791C1.07564 0.285162 0.982508 0.336971 0.91118 0.380486L0.786354 0.461289L0.667478 0.558687L0.627849 0.59391C0.557282 0.658084 0.491077 0.727323 0.429714 0.801124C0.428855 0.805917 0.428855 0.810837 0.429714 0.81563C0.429714 0.888155 0.45745 0.915095 0.489152 0.921311C0.481276 0.961033 0.475331 1.00115 0.471327 1.0415C0.464805 1.1109 0.469482 1.18094 0.485185 1.24871C0.493131 1.28853 0.508621 1.32627 0.53074 1.35972C0.55286 1.39317 0.581164 1.42166 0.613978 1.44349C0.652995 1.46488 0.696796 1.47489 0.740787 1.4725C0.775239 1.4681 0.809128 1.45977 0.841838 1.44763L0.919101 1.42069H0.938922V1.43312C0.94215 1.45579 0.94215 1.47884 0.938922 1.50151C0.938922 1.51187 0.938922 1.52016 0.938922 1.53052C0.939823 1.54155 0.939823 1.55264 0.938922 1.56367C0.932564 1.58665 0.92393 1.60887 0.913163 1.62998C0.863005 1.72701 0.801072 1.81686 0.728899 1.89729C0.70116 1.92838 0.673423 1.96152 0.643703 1.9926C0.613983 2.02369 0.572366 2.07964 0.499056 2.1646C0.425746 2.24955 0.352446 2.33658 0.360372 2.33036C0.31635 2.3776 0.283737 2.43514 0.265259 2.49821C0.265259 2.521 0.306873 2.49821 0.41981 2.40082C0.487175 2.34695 0.570383 2.28063 0.633786 2.22468C0.69719 2.16874 0.744754 2.12522 0.744754 2.12522C0.780418 2.08793 0.814092 2.04856 0.847775 2.00919C0.929021 1.9179 0.998918 1.81625 1.05581 1.70665C1.07091 1.67629 1.08288 1.64435 1.09149 1.61134C1.09795 1.59395 1.10259 1.57589 1.10535 1.55746V1.49943C1.10589 1.46393 1.10257 1.42847 1.09544 1.39375C1.09628 1.3841 1.09628 1.3744 1.09544 1.36475C1.09101 1.35127 1.08571 1.33812 1.07959 1.32538C1.0662 1.30064 1.04625 1.28048 1.02213 1.26736C0.997141 1.25379 0.968944 1.24804 0.940905 1.25079C0.920476 1.24878 0.899913 1.24878 0.879484 1.25079L0.798242 1.27979C0.77769 1.28751 0.756448 1.29307 0.734837 1.29637C0.723194 1.29994 0.710818 1.29994 0.699174 1.29637C0.685074 1.28595 0.673092 1.27271 0.663911 1.25741C0.654729 1.24212 0.648537 1.22508 0.645686 1.20727C0.638562 1.15851 0.638562 1.1089 0.645686 1.06014C0.651906 0.976115 0.670618 0.893621 0.701158 0.81563C0.701498 0.811493 0.701498 0.807334 0.701158 0.803198V0.786617L0.758612 0.730678L0.768529 0.689233Z" fill="#3770B7"/>
</svg>
