<svg width="3" height="1" viewBox="0 0 3 1" fill="none" xmlns="http://www.w3.org/2000/svg">
<path d="M0.201889 0.563471C0.199914 0.573728 0.199914 0.584287 0.201889 0.594545C0.201889 0.594545 0.201889 0.594545 0.201889 0.606977H0.211805C0.211805 0.606977 0.22567 0.606977 0.231614 0.606977C0.240396 0.614471 0.250496 0.620105 0.261339 0.623558H0.273227H0.302939H0.330681L0.402007 0.611126L0.54467 0.592471C0.789785 0.570991 1.03586 0.564077 1.28173 0.571755H1.42439L1.67601 0.557248C1.80084 0.557248 1.92368 0.532383 1.91179 0.532383C1.98105 0.526586 2.04845 0.506147 2.10993 0.472296C2.12578 0.451574 2.07426 0.437063 1.91179 0.426702L1.44816 0.385257H1.28173C1.02926 0.377744 0.776592 0.384669 0.524849 0.405986C0.473334 0.405986 0.423809 0.418414 0.372294 0.426702L0.295018 0.439135H0.277181H0.251423L0.209822 0.453641C0.204411 0.456714 0.199683 0.460951 0.195951 0.466073C0.188126 0.479935 0.181488 0.494502 0.17613 0.509593C0.175014 0.517146 0.175014 0.52483 0.17613 0.532383L0.201889 0.563471Z" fill="#B7AE00"/>
</svg>
