<svg width="4" height="4" viewBox="0 0 4 4" fill="none" xmlns="http://www.w3.org/2000/svg">
<path d="M3.4834 1.43373L3.42197 1.32391L3.1545 0.84939L3.04354 0.652534C3.02866 0.647986 3.01285 0.647986 2.99797 0.652534C3.00986 0.627668 2.97816 0.629739 2.85729 0.683615C2.73643 0.73749 2.54821 0.832809 2.54821 0.832809L1.16126 1.6741L0.975014 1.78807C0.970028 1.79945 0.967444 1.81181 0.967444 1.82433C0.967444 1.83685 0.970028 1.84922 0.975014 1.8606C0.96257 1.86703 0.952195 1.87713 0.945156 1.88964C0.938117 1.90215 0.934718 1.91654 0.935385 1.93105C0.935385 1.93105 0.935385 1.93104 0.935385 1.94141L1.04436 2.13619L1.34354 2.66665L1.39506 2.7599C1.39506 2.7599 1.59319 3.07901 1.59319 3.06451L1.63876 3.1246C1.65065 3.16397 1.66651 3.18469 1.68632 3.19091C1.69348 3.20145 1.703 3.21 1.71405 3.21578C1.72511 3.22156 1.73736 3.2244 1.74972 3.22406C1.75293 3.22517 1.75642 3.22517 1.75963 3.22406L1.94588 3.1101L3.33282 2.26673C3.33282 2.26673 3.63794 2.05952 3.62209 2.05952C3.74097 1.96834 3.80834 1.89375 3.5904 1.99321C3.45963 2.04708 3.28131 2.14033 3.28131 2.14033L1.89436 2.98991L1.81709 3.03757C1.81709 3.00649 1.83492 2.9754 1.84285 2.94432C1.87058 2.83657 1.89832 2.7226 1.92606 2.61071L1.9538 2.50503C1.9538 2.50503 2.02513 2.12583 2.01721 2.1424C2.01721 2.10303 2.0172 2.06573 2.02909 2.0388H2.09448C2.15124 2.04205 2.20812 2.04205 2.26487 2.0388C2.30959 2.03695 2.35403 2.03071 2.39762 2.02015C2.40612 2.02193 2.41488 2.02193 2.42338 2.02015C2.4431 2.01902 2.46221 2.0126 2.47886 2.0015C2.50462 1.94141 2.54226 1.87717 2.57595 1.80879C2.58967 1.7853 2.60223 1.7611 2.61359 1.73627V1.72383C2.677 1.72383 2.73644 1.7487 2.81173 1.76527L3.13864 1.84609L3.23969 1.87095C3.23969 1.87095 3.6003 1.93726 3.58643 1.93105C3.70927 1.94762 3.79646 1.94555 3.69343 1.89374C3.68501 1.84665 3.66963 1.80121 3.64785 1.75906C3.57256 1.62437 3.4834 1.43373 3.4834 1.43373ZM1.92606 2.11546C1.87058 2.25015 1.80718 2.44908 1.80718 2.44908L1.77746 2.57134C1.74972 2.68323 1.72198 2.79306 1.69226 2.90702C1.68037 2.95468 1.66848 2.9982 1.65462 3.04171V3.02514C1.60112 2.88838 1.50998 2.70188 1.50998 2.70188L1.44856 2.59206L1.15136 2.06366L1.09587 1.9642H1.21675C1.41488 1.97871 1.59715 1.99735 1.78935 2.01807H1.89436H1.9538C1.9538 2.05537 1.93795 2.08231 1.92606 2.11546ZM2.50858 1.60572L2.47688 1.67617L2.44517 1.74041C2.41149 1.80464 2.37187 1.87095 2.34017 1.94762V1.96005C2.33988 1.96627 2.33988 1.97249 2.34017 1.9787L2.24308 1.95798C2.10637 1.93104 1.91022 1.89996 1.91022 1.89996L1.78935 1.88753C1.59121 1.86888 1.40695 1.84816 1.21278 1.83366H1.13352L1.21675 1.78185L2.58387 0.952997C2.58387 0.952997 2.889 0.745783 2.87315 0.745783L2.92664 0.704337C2.92551 0.7098 2.92551 0.715455 2.92664 0.720918L2.93655 0.739566L2.92268 0.766499C2.84937 0.890827 2.75229 1.07318 2.75229 1.07318L2.70077 1.18715L2.57 1.46482L2.50858 1.60572ZM3.36254 1.48761C3.36254 1.48761 3.56067 1.80671 3.56067 1.79014C3.58247 1.82122 3.60426 1.85023 3.62209 1.87095L3.58445 1.85645C3.45368 1.80257 3.26149 1.74041 3.26149 1.74041L3.14459 1.7114L2.81767 1.63058L2.71068 1.60365H2.65916L2.69086 1.53527L2.81965 1.25553L2.86522 1.15814L2.9306 0.979935C2.95438 0.917771 2.9742 0.857677 2.9841 0.828667L3.03958 0.928132L3.30706 1.40265L3.36254 1.48761Z" fill="#63C094"/>
</svg>
