<svg width="2" height="1" viewBox="0 0 2 1" fill="none" xmlns="http://www.w3.org/2000/svg">
<path d="M0.993301 0.183026C0.98826 0.186767 0.984178 0.191737 0.981414 0.19752V0.209952C0.985886 0.2117 0.9908 0.2117 0.995273 0.209952C0.994236 0.216121 0.994236 0.222438 0.995273 0.228607H1.01311H1.02896L1.06661 0.247262L1.14387 0.288695C1.27068 0.36122 1.38957 0.450324 1.51241 0.537354L1.58176 0.589158L1.70857 0.669974C1.74854 0.696499 1.79025 0.720047 1.83339 0.740432C1.86894 0.763126 1.90886 0.777271 1.95028 0.781865C1.96415 0.781865 1.95029 0.752855 1.86707 0.69069L1.65506 0.506279L1.57383 0.446179C1.45196 0.353846 1.32564 0.268088 1.19539 0.189236L1.11416 0.145716L1.07255 0.125H1.06066H1.04679H1.02103H1.01113L0.987351 0.139507H0.975464L0.993301 0.183026Z" fill="black"/>
</svg>
