<svg width="3" height="3" viewBox="0 0 3 3" fill="none" xmlns="http://www.w3.org/2000/svg">
<path d="M1.19148 1.95679C1.10566 1.9889 1.01754 2.01384 0.927958 2.03139L0.852678 2.04383H0.809082L0.682273 2.06869L0.563397 2.08941C0.460367 2.11014 0.393001 2.135 0.563397 2.14329C0.645222 2.14833 0.727258 2.14833 0.809082 2.14329H0.854649L0.910133 2.13293C1.00681 2.11611 1.10217 2.09186 1.19545 2.0604C1.29173 2.02801 1.38214 1.97898 1.46292 1.91535C1.50645 1.88187 1.54233 1.8387 1.56794 1.78895C1.59557 1.73904 1.61121 1.68287 1.61351 1.62525C1.61555 1.59697 1.61555 1.56857 1.61351 1.54029C1.61031 1.50827 1.59941 1.47762 1.58181 1.45119C1.56377 1.42535 1.54024 1.40424 1.51309 1.3895C1.48593 1.37476 1.45587 1.36679 1.42528 1.36623C1.32541 1.36183 1.22544 1.3716 1.12808 1.39525L1.05873 1.40975H1.02505H1.00325V1.39731C1.06592 1.31924 1.1235 1.23686 1.17563 1.15073C1.19742 1.11343 1.21922 1.07614 1.23903 1.03884L1.32423 1.02226C1.47189 1.00876 1.6204 1.00876 1.76806 1.02226H1.84137C1.84137 1.02226 2.10488 1.02226 2.09299 1.02226C2.19998 1.02226 2.26735 0.995323 2.09299 0.968386C1.99591 0.947664 1.85326 0.929014 1.85326 0.929014H1.76608C1.61312 0.915589 1.45936 0.915589 1.3064 0.929014C1.25303 0.93707 1.20012 0.948138 1.1479 0.962169C1.14047 0.970291 1.13554 0.980562 1.13377 0.99165C1.13201 1.00274 1.13348 1.01413 1.13799 1.02433C1.12412 1.04712 1.11223 1.07199 1.09638 1.09478C1.04695 1.17579 0.993374 1.25396 0.935891 1.32894L0.924004 1.34344C0.91712 1.35095 0.911126 1.35929 0.906166 1.36831C0.906166 1.38903 0.882393 1.40561 0.884374 1.4284C0.884631 1.43874 0.886833 1.44892 0.890856 1.45838C0.894879 1.46783 0.900647 1.47636 0.907823 1.48348C0.914999 1.4906 0.923439 1.49617 0.932675 1.49987C0.941911 1.50358 0.951762 1.50535 0.96165 1.50507H1.01712H1.05477L1.12609 1.49264C1.21306 1.47086 1.30217 1.45973 1.3916 1.45948C1.42722 1.45917 1.46173 1.47243 1.48868 1.49678C1.49875 1.50847 1.5056 1.52279 1.5085 1.53822C1.5085 1.55895 1.5085 1.58174 1.5085 1.60246C1.50928 1.64458 1.50074 1.68631 1.48356 1.72441C1.46637 1.76251 1.44101 1.79595 1.40944 1.82211C1.34569 1.88117 1.2717 1.92689 1.19148 1.95679Z" fill="#52BC88"/>
</svg>
