<svg width="3" height="4" viewBox="0 0 3 4" fill="none" xmlns="http://www.w3.org/2000/svg">
<path d="M2.64665 2.75509C2.51721 2.98069 2.30789 3.14377 2.06414 3.20889L2.10178 3.17988C2.24164 3.08562 2.35244 2.95105 2.42078 2.79239C2.59316 2.37796 2.45249 1.91795 2.27416 1.5491C2.12358 1.23414 1.72533 0.730611 1.34491 1.03936C1.04375 1.28387 0.964491 1.73353 0.984305 2.11273C1.01601 2.65977 1.18244 3.21303 1.5054 3.35601C1.5488 3.38682 1.5953 3.41253 1.64408 3.43268C2.078 3.6026 2.64666 3.26484 2.67043 2.77167C2.67254 2.76837 2.67329 2.76433 2.67255 2.76045C2.67181 2.75656 2.66962 2.75314 2.66647 2.75095C2.66331 2.74875 2.65946 2.74795 2.65574 2.74873C2.65202 2.7495 2.64875 2.75179 2.64665 2.75509Z" fill="#3F61AC"/>
</svg>
