<svg width="3" height="3" viewBox="0 0 3 3" fill="none" xmlns="http://www.w3.org/2000/svg">
<path d="M1.23745 0.85424C1.23745 0.864601 1.23745 0.8646 1.23745 0.866672C1.30166 0.897041 1.36218 0.935301 1.41774 0.980641C1.48115 1.03037 1.54455 1.08632 1.61588 1.14434C1.83184 1.35155 2.03394 1.57742 2.23604 1.80535L2.29351 1.87166L2.21623 1.88409L2.10131 1.90481C2.00422 1.92346 1.90317 1.94833 1.81203 1.97527C1.72089 2.0022 1.6456 2.02707 1.56436 2.05815C1.4287 2.11949 1.29641 2.18867 1.16809 2.26537C1.04578 2.3362 0.92917 2.41727 0.819384 2.50781C0.716406 2.5774 0.630267 2.67103 0.567749 2.78133C0.567749 2.80412 0.585576 2.80827 0.637091 2.79169C0.688606 2.77511 0.773808 2.7316 0.900614 2.66943C1.02742 2.60727 1.23546 2.51817 1.38208 2.46222C1.5287 2.40627 1.63965 2.37519 1.63965 2.37519C1.72485 2.34204 1.81401 2.31303 1.90119 2.28609C1.98837 2.25915 2.07555 2.2405 2.16471 2.22185C2.20038 2.22185 2.23407 2.20735 2.26973 2.2032C2.3054 2.19906 2.32125 2.2032 2.41635 2.18455C2.57089 2.17212 2.72543 2.15969 2.87998 2.1514H2.93745C2.93745 2.1514 2.95924 2.1514 2.9632 2.1514L2.94338 2.13068L2.86809 2.04365L2.71751 1.86959L2.46192 1.58571C2.26378 1.35155 2.05178 1.11947 1.82195 0.901898C1.75458 0.837662 1.68523 0.77757 1.61192 0.717478C1.53097 0.651054 1.44162 0.596663 1.34642 0.555851C1.33396 0.553649 1.32123 0.553649 1.30877 0.555851C1.28253 0.559567 1.25751 0.569778 1.2358 0.585636C1.21409 0.601493 1.19632 0.622539 1.18395 0.647026C1.18021 0.66162 1.17934 0.676856 1.18138 0.691813C1.18342 0.706771 1.18834 0.72114 1.19583 0.734055C1.21286 0.772843 1.22678 0.813043 1.23745 0.85424Z" fill="#87171A"/>
</svg>
