<svg width="23" height="16" viewBox="0 0 23 16" fill="none" xmlns="http://www.w3.org/2000/svg">
<path d="M9.8231 14.2903L9.42683 14.4064L9.02065 14.5121C8.88394 14.5473 8.75119 14.5825 8.62438 14.6095C8.49758 14.6364 8.35294 14.6675 8.21623 14.6923C7.11681 14.898 6.00764 15.0419 4.8935 15.1233C4.33872 15.1627 3.78197 15.1855 3.22719 15.1751C2.68175 15.1744 2.13788 15.114 1.60447 14.9949C1.38248 14.9457 1.17008 14.8574 0.976372 14.7338H0.944676C0.894369 14.7343 0.844882 14.7472 0.800162 14.7713C0.755443 14.7954 0.71673 14.8301 0.687103 14.8726C0.673661 14.9098 0.667938 14.9495 0.67033 14.9892C0.672721 15.0288 0.683173 15.0675 0.700974 15.1026C0.704489 15.1154 0.71221 15.1264 0.722766 15.1337C0.960302 15.2877 1.22082 15.3991 1.49351 15.4632C2.05153 15.5893 2.62064 15.6538 3.19153 15.6559C3.75225 15.6662 4.31098 15.6559 4.86774 15.6062C5.97945 15.5282 7.08653 15.3899 8.18452 15.1917C8.45992 15.1399 8.73534 15.0881 9.01075 15.0177C9.28615 14.9472 9.55363 14.8788 9.8231 14.8105C10.0926 14.7421 10.36 14.6468 10.6275 14.5618L11.0238 14.425C11.1565 14.3794 11.2873 14.3297 11.4201 14.28C11.9471 14.0728 12.4662 13.8656 12.9734 13.6128C13.4807 13.36 13.98 13.0926 14.4634 12.7984C14.9484 12.5037 15.418 12.182 15.8702 11.8349C15.9831 11.7458 16.1 11.6629 16.209 11.5717L16.5399 11.2982C16.6488 11.207 16.7539 11.1096 16.8628 11.0164C16.9718 10.9231 17.0748 10.8237 17.1779 10.7263C17.3899 10.5315 17.59 10.3243 17.7901 10.1212C17.8892 10.0176 17.9882 9.91398 18.0833 9.80416C18.1784 9.69433 18.2815 9.59694 18.3706 9.48091C18.7481 9.04678 19.1046 8.5931 19.4386 8.12158C19.7754 7.65328 20.0825 7.16011 20.3797 6.67108L20.5957 6.29395C20.667 6.16962 20.7324 6.03908 20.7938 5.91061C20.9325 5.65781 21.0593 5.39465 21.1901 5.13563L21.5071 4.45181L21.5982 4.2446L21.6696 4.03739L21.7429 3.83017L21.8182 3.60017L21.9549 3.18574C21.9668 3.26448 21.9806 3.34323 21.9945 3.42197C22.0183 3.54837 22.0421 3.67477 22.0718 3.80117C22.0718 3.80117 22.1629 4.13064 22.2699 4.44561C22.3348 4.64422 22.4109 4.83865 22.4978 5.02788C22.5595 5.20193 22.6561 5.36018 22.7811 5.49203C22.8089 5.50447 22.8227 5.47546 22.8188 5.39258C22.8018 5.24597 22.7759 5.10063 22.7415 4.95742C22.6939 4.70669 22.6345 4.40623 22.5929 4.16793C22.5513 3.92964 22.5235 3.7535 22.5235 3.7535C22.4918 3.61467 22.4641 3.47169 22.4364 3.33908C22.3848 3.05519 22.3452 2.76717 22.3175 2.47914V2.37139V2.21805C22.3056 2.07093 22.3016 1.91759 22.2996 1.75804L22.2858 0.817284V0.666016L22.2541 0.726109L22.1174 0.997559L21.9767 1.27523L21.9073 1.41406L21.8439 1.53632C21.8056 1.61435 21.7626 1.68978 21.7152 1.76218C21.6716 1.82642 21.6299 1.89273 21.5864 1.95282L21.521 2.03985L21.4893 2.08129L21.4219 2.16418C21.0463 2.59486 20.6389 2.99394 20.2034 3.35773L19.9101 3.6126C19.813 3.69963 19.712 3.7846 19.6129 3.89235C19.6057 3.906 19.6004 3.92064 19.5971 3.93585C19.5823 4.00574 19.5907 4.07883 19.6209 4.14307C19.6336 4.1604 19.6498 4.17471 19.6682 4.18507C19.6867 4.19543 19.707 4.2016 19.7279 4.20317C19.7675 4.20317 19.7952 4.22596 19.8269 4.22803H19.8725C19.8863 4.23019 19.9003 4.23019 19.9141 4.22803C19.918 4.2304 19.9225 4.23164 19.927 4.23164C19.9315 4.23164 19.9359 4.2304 19.9399 4.22803C20.0152 4.14929 20.1103 4.06226 20.2054 3.97937L20.4946 3.72657C20.9492 3.34774 21.3746 2.93203 21.7667 2.48329L21.8737 2.3486L21.8895 2.53302C21.8895 2.58689 21.8994 2.64077 21.9054 2.69464C21.8736 2.75266 21.836 2.82312 21.7924 2.90186L21.5943 3.26033C21.5309 3.38259 21.4695 3.50485 21.414 3.61467L21.2158 3.98766L21.1247 4.19487C21.1089 4.2301 21.095 4.26532 21.0791 4.29848L20.9642 4.54714C20.482 5.59866 19.916 6.60584 19.2721 7.55796C18.9472 8.03041 18.6031 8.48628 18.2399 8.92557C17.8713 9.36279 17.485 9.77929 17.0808 10.1689C16.6766 10.5584 16.2486 10.9356 15.8068 11.2857C15.3609 11.6353 14.898 11.9604 14.4198 12.2597C13.463 12.8549 12.4547 13.3544 11.4082 13.7516C10.891 13.9567 10.36 14.1308 9.8231 14.2903Z" fill="#C0D72F"/>
</svg>
