<svg width="1" height="1" viewBox="0 0 1 1" fill="none" xmlns="http://www.w3.org/2000/svg">
<path d="M0.22451 0.651987H0.317628V0.683074C0.331874 0.715022 0.347757 0.746152 0.36519 0.776323C0.390948 0.813621 0.430565 0.834339 0.454341 0.759742C0.466332 0.727082 0.474333 0.692968 0.478128 0.658209V0.641629H0.5871C0.5871 0.641629 0.696068 0.614688 0.692105 0.612616C0.735695 0.593966 0.769378 0.558748 0.692105 0.517305C0.659379 0.496909 0.624017 0.481549 0.5871 0.471711H0.448403C0.448403 0.438557 0.448403 0.405404 0.448403 0.382611C0.448403 0.359817 0.448403 0.330807 0.448403 0.330807C0.399438 0.312693 0.34663 0.309109 0.295836 0.320449C0.295836 0.320449 0.295836 0.347384 0.295836 0.382611C0.295836 0.417837 0.295836 0.446845 0.295836 0.484144H0.212622C0.199959 0.537272 0.20413 0.593268 0.22451 0.643703V0.651987Z" fill="#D62027"/>
</svg>
