<svg width="2" height="4" viewBox="0 0 2 4" fill="none" xmlns="http://www.w3.org/2000/svg">
<path d="M0.944225 0.728353C0.870915 0.662044 0.815437 0.593663 0.74609 0.587447C0.713259 0.58436 0.680564 0.594765 0.654944 0.616457C0.627611 0.638483 0.604723 0.665949 0.587585 0.69727C0.580567 0.706048 0.576403 0.716935 0.575697 0.728353C0.57276 0.85275 0.582718 0.977115 0.60541 1.09927C0.623242 1.21323 0.647024 1.32513 0.672781 1.43288C0.698539 1.53649 0.722308 1.64009 0.752028 1.74163C0.752028 1.74163 0.839216 2.00686 0.934321 2.26174C1.02943 2.51661 1.13246 2.76112 1.12057 2.73833C1.16892 2.88034 1.23993 3.01276 1.33059 3.12996C1.37616 3.1569 1.39003 3.03879 1.33059 2.68445C1.29493 2.47724 1.24341 2.22444 1.2018 2.02551C1.16019 1.82659 1.13246 1.68361 1.13246 1.68361C1.10075 1.56757 1.07103 1.4536 1.04329 1.33756C1.01753 1.23395 0.99772 1.13035 0.979888 1.03089C0.963884 0.937886 0.955927 0.843567 0.956113 0.749074C0.956113 0.749074 0.956113 0.730425 0.944225 0.728353Z" fill="#F0E811"/>
</svg>
