<svg width="2" height="2" viewBox="0 0 2 2" fill="none" xmlns="http://www.w3.org/2000/svg">
<path d="M1.00505 1.26797C1.02227 1.2377 1.03496 1.20485 1.0427 1.17057C1.04562 1.14164 1.04562 1.11248 1.0427 1.08355V1.06283V1.04625C1.04366 1.04147 1.04366 1.03653 1.0427 1.03174C1.03517 0.993261 1.01809 0.957528 0.993167 0.928138C0.981091 0.912307 0.966311 0.898957 0.949577 0.888766L0.921842 0.87426H0.909954C0.890508 0.865711 0.869621 0.861309 0.848527 0.861309C0.827433 0.861309 0.806551 0.865711 0.787105 0.87426C0.768151 0.882692 0.75123 0.895432 0.737572 0.911557C0.703267 0.749434 0.683371 0.584341 0.678134 0.418387C0.675601 0.359985 0.680264 0.301492 0.692005 0.244334C0.658322 0.178025 0.612751 0.196678 0.592937 0.221543C0.580367 0.289792 0.575047 0.359286 0.577083 0.428757C0.591797 0.677215 0.626263 0.92396 0.680117 1.16644C0.678142 1.20302 0.678142 1.23968 0.680117 1.27626C0.686591 1.342 0.700558 1.40669 0.721724 1.46896C0.720978 1.47516 0.720978 1.48143 0.721724 1.48762L0.820791 1.44825V1.43581V1.40265C0.859976 1.40043 0.897462 1.3852 0.927785 1.35915C0.958356 1.33362 0.984492 1.30278 1.00505 1.26797ZM0.919858 1.22445C0.907421 1.25939 0.886202 1.29017 0.858437 1.31355C0.846641 1.32357 0.833216 1.3313 0.818808 1.33636V1.29284L0.789089 1.12707C0.789089 1.10635 0.789089 1.08563 0.789089 1.06491C0.789089 1.01517 0.812867 0.965441 0.828718 0.959225C0.834199 0.956142 0.840326 0.95452 0.846549 0.95452C0.852773 0.95452 0.8589 0.956142 0.864381 0.959225L0.896083 0.973731C0.896083 0.973731 0.911935 0.97372 0.915898 0.988225C0.929566 1.00117 0.939802 1.01759 0.945617 1.03589V1.0504C0.946282 1.05451 0.946282 1.05872 0.945617 1.06283V1.07526C0.947596 1.09386 0.947596 1.11261 0.945617 1.1312C0.9446 1.16108 0.938564 1.19055 0.927785 1.21824L0.919858 1.22445Z" fill="#BF2026"/>
</svg>
