<svg width="2" height="2" viewBox="0 0 2 2" fill="none" xmlns="http://www.w3.org/2000/svg">
<path d="M1.38277 0.29202C1.41844 0.258865 1.43824 0.227783 1.43626 0.200845C1.43397 0.186901 1.42869 0.173683 1.42079 0.162195C1.4129 0.150706 1.4026 0.141248 1.39069 0.134535H1.37881C1.32372 0.132503 1.26884 0.142513 1.21766 0.163921C1.16649 0.185329 1.12015 0.217665 1.0816 0.258865C1.02721 0.313031 0.983459 0.377786 0.952812 0.449498C0.922004 0.518961 0.901944 0.593099 0.893374 0.669144C0.89036 0.707068 0.89036 0.745192 0.893374 0.783116C0.893374 0.801765 0.893374 0.820414 0.893374 0.841136V0.897081C0.90092 0.935919 0.91153 0.974042 0.925082 1.01105L0.948857 1.06492C0.948857 1.0815 0.966682 1.10015 0.97857 1.11673L1.01425 1.16646C1.02852 1.18198 1.04374 1.19652 1.05981 1.20998C1.07642 1.22364 1.09436 1.23544 1.11331 1.2452C1.13294 1.25562 1.15352 1.26395 1.17473 1.27007C1.21679 1.28079 1.2605 1.28227 1.30313 1.27443C1.34576 1.26658 1.38638 1.24958 1.4224 1.22448C1.54637 1.13629 1.63737 1.00598 1.67998 0.855642C1.69434 0.807102 1.70364 0.75708 1.70772 0.706448C1.70921 0.677459 1.70921 0.648404 1.70772 0.619415C1.6983 0.55352 1.67383 0.490968 1.63638 0.437066C1.59767 0.387083 1.54611 0.349703 1.48778 0.329317C1.46617 0.320547 1.4435 0.314964 1.42042 0.312736C1.37069 0.30686 1.32036 0.310373 1.27182 0.3231C1.30357 0.308289 1.33812 0.301203 1.37287 0.302378C1.37287 0.302378 1.38277 0.294092 1.38277 0.29202ZM1.39664 0.399769C1.43183 0.410488 1.46395 0.430073 1.49021 0.456808C1.51646 0.483543 1.53603 0.51661 1.54722 0.553105C1.55041 0.580633 1.55041 0.608462 1.54722 0.635989C1.54722 0.658783 1.54722 0.671219 1.54722 0.671219C1.54575 0.715577 1.53842 0.75951 1.52542 0.801764C1.49426 0.913234 1.42791 1.01037 1.33719 1.07736C1.31972 1.0907 1.29973 1.10001 1.27855 1.10465C1.25737 1.10929 1.23548 1.10917 1.21435 1.1043C1.20412 1.10105 1.19419 1.09689 1.18464 1.09186C1.17469 1.08688 1.16537 1.08061 1.1569 1.07321C1.14782 1.06549 1.13922 1.05719 1.13114 1.04835L1.10935 1.01727C1.0539 0.916551 1.03107 0.79978 1.04428 0.684384C1.0575 0.568989 1.10603 0.46115 1.18265 0.376972L1.2203 0.343823C1.2203 0.343823 1.2203 0.356255 1.252 0.362472C1.2837 0.368688 1.33324 0.376975 1.39664 0.399769Z" fill="#3770B7"/>
</svg>
