<svg width="2" height="3" viewBox="0 0 2 3" fill="none" xmlns="http://www.w3.org/2000/svg">
<path d="M1.11051 2.28836C1.13645 2.27655 1.15998 2.25967 1.17986 2.23863C1.1897 2.23005 1.1978 2.21948 1.20364 2.20755C1.21951 2.18286 1.22905 2.15432 1.23137 2.12466C1.23336 2.10954 1.23336 2.09419 1.23137 2.07907V2.06664C1.23233 2.05838 1.23233 2.05003 1.23137 2.04177C1.23137 2.02312 1.21949 2.00862 1.21354 1.99412C1.18469 1.93652 1.14329 1.88683 1.09268 1.84906C1.03979 1.80904 0.975638 1.78863 0.910395 1.79105C0.877233 1.79413 0.845608 1.80707 0.819255 1.82835C0.7838 1.57804 0.769871 1.32491 0.777642 1.07201C0.780542 1.01094 0.786499 0.950077 0.79548 0.889661C0.757834 0.825425 0.714245 0.852361 0.696412 0.875155C0.67858 0.897948 0.696412 0.875155 0.696412 0.875155C0.686506 0.939391 0.68056 1.00364 0.676598 1.06787C0.669862 1.33536 0.685104 1.60296 0.722165 1.86772L0.743963 2.0625V2.07907C0.745743 2.1159 0.749713 2.15258 0.75585 2.1889V2.21584L0.860862 2.20133V2.15367V2.07701C0.858838 2.0508 0.858838 2.02447 0.860862 1.99826C0.863726 1.97481 0.87263 1.95261 0.88662 1.93403C0.891294 1.92638 0.897738 1.92009 0.905358 1.91574C0.912979 1.91139 0.92153 1.90913 0.93021 1.90916C0.970554 1.91188 1.00966 1.9248 1.04418 1.94681C1.07869 1.96883 1.10757 1.99929 1.12834 2.03556C1.13719 2.05253 1.14385 2.07065 1.14816 2.08944C1.14916 2.097 1.14916 2.10467 1.14816 2.11223C1.1511 2.12377 1.1511 2.13591 1.14816 2.14745C1.14546 2.15784 1.13996 2.16719 1.13231 2.17439C1.11504 2.19716 1.09255 2.21498 1.06692 2.22619C1.02715 2.24466 0.986084 2.2599 0.944081 2.27179C0.903283 2.27798 0.863763 2.29129 0.827176 2.31116C0.817269 2.31116 0.846993 2.33602 0.948041 2.33395C1.00447 2.32967 1.05961 2.3142 1.11051 2.28836Z" fill="#BF2026"/>
</svg>
