<svg width="3" height="4" viewBox="0 0 3 4" fill="none" xmlns="http://www.w3.org/2000/svg">
<path d="M2.79386 1.60534C2.69416 1.57764 2.59182 1.56166 2.48873 1.55769C2.31041 1.53904 2.09246 1.53696 1.92404 1.53489H1.72591L1.97754 1.21785C2.11822 1.03343 2.25692 0.855226 2.24305 0.867659C2.46694 0.55891 2.57988 0.32476 2.11822 0.726755C1.83885 0.960907 1.47626 1.3256 1.47626 1.3256L1.33559 1.48723L1.20481 1.32767C1.20481 1.23443 1.20481 1.14325 1.21868 1.05415C1.23305 0.880841 1.27108 0.710577 1.33162 0.548548C1.33272 0.539605 1.33272 0.530558 1.33162 0.521615C1.29794 0.418008 1.25039 0.366199 1.19689 0.353766C1.17059 0.349066 1.14361 0.350535 1.11791 0.35806C1.09221 0.365585 1.06844 0.378983 1.04829 0.397286C1.04426 0.398953 1.0406 0.401464 1.03753 0.404672C1.03446 0.407879 1.03205 0.411715 1.03045 0.415934C0.967555 0.585091 0.925617 0.761969 0.90564 0.94226C0.856162 0.87656 0.811131 0.80732 0.770897 0.735046C0.764026 0.73075 0.756718 0.727271 0.749105 0.724681C0.705516 0.712248 0.673823 0.737114 0.646084 0.724681C0.618804 0.71722 0.590138 0.71722 0.562858 0.724681C0.546436 0.725379 0.530583 0.731151 0.517291 0.741262L0.501437 0.75991C0.49629 0.769732 0.492299 0.780167 0.489549 0.790991C0.480846 0.824727 0.477501 0.859728 0.479645 0.894598C0.477543 0.899117 0.476453 0.904079 0.476453 0.909105C0.476453 0.91413 0.477543 0.919086 0.479645 0.923605C0.530877 1.01133 0.587113 1.09575 0.648055 1.17641C0.707495 1.25308 0.764957 1.32975 0.824398 1.40228L0.871948 1.46236C0.871948 1.51209 0.871948 1.55976 0.871948 1.60949H0.721364C0.549457 1.61914 0.377075 1.6129 0.206218 1.59083L0.182443 1.6012C0.0972451 1.65922 0.0576172 1.71931 0.0576172 1.77733C0.0605005 1.80541 0.0688419 1.83258 0.0821301 1.85717C0.0954183 1.88176 0.113376 1.90324 0.134893 1.92031C0.140379 1.92721 0.148171 1.93165 0.156685 1.93274C0.347205 1.95802 0.539547 1.96495 0.73128 1.95346C0.782795 1.95346 0.832321 1.95346 0.883836 1.95346C0.884821 1.96795 0.884821 1.98249 0.883836 1.99698V2.00734L0.723347 2.18969L0.352836 2.60411C0.351321 2.61372 0.351321 2.62352 0.352836 2.63312C0.336985 2.8652 0.493515 2.87349 0.578713 2.8507C0.592582 2.8507 0.594558 2.8507 0.598521 2.84034C0.713439 2.71601 0.826382 2.58754 0.939319 2.46114C0.963095 2.69322 0.971019 2.91908 0.974982 2.90043C0.973263 3.02993 0.989274 3.15902 1.02253 3.28378C1.03442 3.30243 1.05424 3.28378 1.07802 3.23405C1.09403 3.19554 1.10792 3.1561 1.11962 3.11593C1.1315 3.06413 1.14339 2.99782 1.15726 2.91908C1.18756 2.72229 1.20544 2.52362 1.21076 2.32437C1.21076 2.24978 1.21076 2.18554 1.21076 2.13167L1.32568 2.00112L1.6427 2.36582L1.81904 2.57303C1.81904 2.57303 2.48675 3.2444 2.46496 3.20918C2.55206 3.30455 2.65557 3.38188 2.77008 3.43711C2.81565 3.43711 2.78197 3.34387 2.60563 3.08899C2.40749 2.78232 2.09048 2.3741 2.09048 2.3741L1.89235 2.13788L1.67242 1.88301L2.06869 1.82085C2.29258 1.78355 2.50855 1.75661 2.48873 1.75454C2.61337 1.74529 2.73578 1.71521 2.85131 1.66543C2.8632 1.64264 2.84934 1.63228 2.79386 1.60534Z" fill="#0060A0"/>
</svg>
