<svg width="2" height="2" viewBox="0 0 2 2" fill="none" xmlns="http://www.w3.org/2000/svg">
<path d="M0.789695 0.469754C0.835124 0.669047 0.862976 0.872275 0.872908 1.07689L0.863004 1.0914C0.828717 1.15529 0.807148 1.22577 0.799599 1.29861C0.792265 1.37876 0.807418 1.4594 0.843195 1.53069L0.859037 1.5597L1.00368 1.5224V1.50997V1.46024C1.00456 1.45336 1.00456 1.44639 1.00368 1.43951H1.04133C1.14557 1.43466 1.24614 1.39792 1.3306 1.33384C1.34989 1.31678 1.36779 1.29806 1.3841 1.27789C1.39818 1.25782 1.4089 1.2354 1.4158 1.21158C1.42218 1.18646 1.42218 1.16003 1.4158 1.13491C1.40776 1.08115 1.38095 1.03241 1.34052 0.99815C1.32637 0.982594 1.30957 0.969942 1.29098 0.96085C1.26437 0.940483 1.23498 0.924418 1.2038 0.913192C1.13982 0.8888 1.06965 0.8888 1.00567 0.913192C0.991486 0.737204 0.96432 0.562624 0.924425 0.391012C0.912537 0.34128 0.900646 0.289477 0.884796 0.239746L0.72629 0.266685V0.399302C0.725188 0.403366 0.725188 0.40767 0.72629 0.411734C0.742857 0.435935 0.76456 0.455794 0.789695 0.469754ZM1.03736 1.13077C1.05215 1.11144 1.07212 1.09717 1.09471 1.08979C1.1173 1.08241 1.14149 1.08225 1.16417 1.08933C1.24343 1.11834 1.27512 1.15563 1.28107 1.17428C1.28701 1.19293 1.28107 1.17428 1.28107 1.17428C1.28107 1.17428 1.28107 1.17428 1.28107 1.18672C1.26818 1.22142 1.24535 1.25109 1.21569 1.27167C1.16296 1.30921 1.10564 1.33918 1.04528 1.36078H1.02944C1.02944 1.29861 1.02944 1.23645 1.02944 1.17635C1.03935 1.15978 1.03736 1.14113 1.03736 1.12455V1.13077Z" fill="#87171A"/>
</svg>
