<svg width="3" height="2" viewBox="0 0 3 2" fill="none" xmlns="http://www.w3.org/2000/svg">
<path d="M1.85025 1.44367L1.87006 1.42295C1.88419 1.40927 1.89682 1.39398 1.9077 1.37736C1.94012 1.33131 1.96552 1.28028 1.98299 1.2261C2.00074 1.17508 2.00752 1.1206 2.00281 1.06654C1.99944 1.03662 1.99209 1.00732 1.98101 0.97951C1.98101 0.969149 1.97111 0.958789 1.96715 0.9505C1.97946 0.942328 1.98858 0.929842 1.9929 0.915274C1.99354 0.911853 1.99354 0.908334 1.9929 0.904913C1.97576 0.833816 1.9409 0.76875 1.89186 0.716351C1.8187 0.627702 1.71944 0.566981 1.6097 0.543727C1.49996 0.520473 1.38595 0.536002 1.28557 0.587876C1.18769 0.641492 1.10604 0.722577 1.04979 0.822029C0.995987 0.926701 0.98116 1.0485 1.00817 1.16393C1.03204 1.27814 1.09039 1.3813 1.17461 1.45818C1.26094 1.53386 1.36912 1.57693 1.48172 1.58043C1.59362 1.58585 1.70416 1.55313 1.79675 1.48719C1.81854 1.47268 1.85025 1.44367 1.85025 1.44367ZM1.65211 1.44367C1.60908 1.45794 1.56446 1.4663 1.51937 1.46854C1.42913 1.47237 1.34035 1.44386 1.26773 1.38772C1.19709 1.32934 1.14637 1.24867 1.1231 1.15771C1.09766 1.06844 1.10472 0.972491 1.1429 0.888339C1.1885 0.800763 1.2573 0.728813 1.34104 0.681125C1.37809 0.656599 1.42021 0.641679 1.46388 0.637608C1.50852 0.630339 1.55397 0.630339 1.59861 0.637608C1.64224 0.647987 1.68426 0.664729 1.72344 0.687341C1.74266 0.69826 1.76062 0.711469 1.77694 0.726709C1.79441 0.742212 1.81095 0.758821 1.82647 0.776441C1.86097 0.813664 1.88615 0.859217 1.89978 0.909058C1.91545 0.920405 1.93288 0.928818 1.9513 0.933923C1.95027 0.947716 1.95027 0.961575 1.9513 0.975368C1.9513 0.991945 1.9513 1.01059 1.9513 1.03339C1.9432 1.09121 1.9229 1.14642 1.89186 1.19501C1.87704 1.22157 1.85978 1.24655 1.84034 1.26961L1.81062 1.30691L1.79476 1.32349L1.76902 1.34628C1.73669 1.38832 1.69525 1.4217 1.64815 1.44367H1.65211Z" fill="#5450A1"/>
</svg>
