<svg width="4" height="5" viewBox="0 0 4 5" fill="none" xmlns="http://www.w3.org/2000/svg">
<path d="M0.290055 2.61458L0.234584 3.02901C0.231376 3.06692 0.231376 3.10506 0.234584 3.14297C0.238742 3.18084 0.238742 3.21908 0.234584 3.25694C0.234584 3.30253 0.234584 3.34397 0.234584 3.38749V3.51596C0.242276 3.56537 0.242276 3.61575 0.234584 3.66516C0.237928 3.73483 0.246542 3.80412 0.260342 3.87237C0.274758 3.93776 0.296705 4.00108 0.325718 4.06094C0.339567 4.07826 0.349099 4.0989 0.35346 4.12102C0.359812 4.14433 0.369145 4.16664 0.381202 4.18733C0.416196 4.24292 0.455274 4.29558 0.498094 4.34482C0.538218 4.3918 0.584202 4.43292 0.634808 4.46707C0.686451 4.50652 0.744055 4.53663 0.805213 4.55617C0.869537 4.57647 0.93618 4.58762 1.00335 4.58933C1.07258 4.59523 1.14215 4.59523 1.21139 4.58933C1.30451 4.58933 1.36989 4.57482 1.40952 4.56861C1.65711 4.5183 1.89032 4.40912 2.09111 4.2495C2.30946 4.07379 2.50819 3.8729 2.68353 3.65065C2.88105 3.41794 3.0606 3.16919 3.22048 2.90675C3.38097 2.64359 3.51965 2.39493 3.63259 2.16078C3.67981 2.06941 3.71513 1.97185 3.73761 1.87068C3.73761 1.8541 3.73761 1.84581 3.72572 1.84788C3.71383 1.84996 3.70986 1.84788 3.70986 1.84788L3.81884 1.4749H3.79506H3.77129C3.77461 1.46781 3.77634 1.46001 3.77634 1.45211C3.77634 1.44421 3.77461 1.43641 3.77129 1.42931C3.77129 1.41688 3.75742 1.40445 3.74949 1.39408L3.73166 1.37958C3.72707 1.37586 3.72363 1.37082 3.72175 1.36508C3.7059 1.31742 3.67816 1.30084 3.64448 1.31742C3.61968 1.32627 3.59727 1.34119 3.5791 1.36094C3.56721 1.35058 3.5573 1.34643 3.55334 1.3485C3.53296 1.35683 3.51032 1.35683 3.48994 1.3485C3.48808 1.3463 3.48579 1.34453 3.48323 1.34332C3.48066 1.34211 3.47789 1.34148 3.47507 1.34148C3.47226 1.34148 3.46949 1.34211 3.46692 1.34332C3.46436 1.34453 3.46207 1.3463 3.46021 1.3485C3.45441 1.35825 3.44975 1.36868 3.44634 1.37958C3.44427 1.39262 3.44427 1.40592 3.44634 1.41896C3.44634 1.43139 3.44634 1.43553 3.44634 1.43139C3.43465 1.42937 3.42268 1.43019 3.41134 1.43378C3.40001 1.43737 3.38962 1.44365 3.38097 1.45211C3.38097 1.46869 3.3552 1.49148 3.33935 1.52049L3.28784 1.61995C3.26604 1.6614 3.24425 1.70491 3.22048 1.74635L3.15311 1.86861C3.13756 1.89863 3.12036 1.9277 3.10159 1.95564C3.04413 2.04681 2.97874 2.16285 2.90345 2.28304C2.82816 2.40322 2.74892 2.53998 2.66372 2.6726C2.57852 2.80522 2.48737 2.93369 2.39623 3.06009C2.31221 3.17736 2.21875 3.2869 2.11686 3.38749C1.93116 3.56707 1.72718 3.7248 1.50859 3.85786C1.46549 3.87619 1.42013 3.88805 1.37386 3.89309L1.24507 3.91174C1.19925 3.91137 1.15354 3.90721 1.10835 3.89931C1.08699 3.89625 1.06677 3.88736 1.04973 3.87354C1.03268 3.85972 1.01942 3.84145 1.01127 3.82057C0.981036 3.75524 0.960972 3.68529 0.951831 3.61335C0.935319 3.48407 0.935319 3.35307 0.951831 3.22379C0.969243 3.08325 0.998415 2.94457 1.03901 2.80936H1.05288C1.08429 2.81916 1.11288 2.83696 1.13609 2.86116C1.16014 2.88566 1.19176 2.90036 1.22526 2.90261C1.23715 2.90261 1.24111 2.91711 1.23913 2.92126C1.23715 2.9254 1.23913 2.92126 1.253 2.92126H1.29658C1.30168 2.92334 1.30734 2.92334 1.31244 2.92126C1.39302 2.92123 1.47316 2.90865 1.5502 2.88395C1.61024 2.85942 1.66584 2.82438 1.71464 2.78035C1.93674 2.57744 2.11968 2.33197 2.25358 2.05717C2.38047 1.77935 2.47685 1.48739 2.54088 1.18687C2.54026 1.16175 2.54875 1.13733 2.56465 1.11849C2.56838 1.04948 2.56838 0.980295 2.56465 0.911279C2.5615 0.847236 2.5481 0.7842 2.52502 0.724788C2.49874 0.607954 2.43685 0.503225 2.34868 0.426399C2.32074 0.387838 2.28079 0.360716 2.23574 0.349731C2.18203 0.30844 2.11597 0.288592 2.04949 0.293779C1.98283 0.293411 1.91635 0.301062 1.85136 0.316576C1.64421 0.398026 1.45437 0.521233 1.29262 0.6792C1.12945 0.840808 0.986345 1.0232 0.866634 1.2221C0.740457 1.43384 0.633019 1.65717 0.545657 1.88933C0.438664 2.11727 0.359402 2.35971 0.290055 2.61458ZM1.19553 2.02195C1.19735 1.9972 1.20713 1.97383 1.22327 1.95564C1.26092 1.88311 1.28668 1.83131 1.30055 1.79608C1.31439 1.76057 1.33027 1.72598 1.3481 1.69247C1.36395 1.65932 1.38772 1.61581 1.41943 1.56193C1.46736 1.47641 1.5203 1.39406 1.57793 1.31535C1.60446 1.26978 1.63569 1.22739 1.67106 1.18895C1.6988 1.15994 1.74041 1.12057 1.79192 1.07498C1.8155 1.05704 1.844 1.04759 1.87315 1.04804C1.88266 1.04962 1.89163 1.05368 1.89925 1.05983C1.90686 1.06599 1.91288 1.07404 1.91675 1.08326C1.92689 1.10256 1.93359 1.12363 1.93655 1.14543C1.94052 1.16455 1.94052 1.18433 1.93655 1.20345C1.9215 1.23687 1.91148 1.27252 1.90684 1.30913C1.9004 1.35141 1.8884 1.39255 1.87118 1.43139C1.80579 1.58473 1.7305 1.74221 1.64729 1.90384C1.56635 2.06151 1.4412 2.1895 1.28866 2.2706H1.26489H1.2411H1.22724C1.21535 2.2561 1.20743 2.24781 1.20347 2.24781C1.20347 2.24781 1.20345 2.2333 1.19157 2.21258C1.18942 2.19886 1.18942 2.18486 1.19157 2.17114C1.19157 2.15456 1.19157 2.15042 1.19157 2.17114C1.18598 2.15365 1.18598 2.13475 1.19157 2.11727C1.1936 2.10215 1.1936 2.0868 1.19157 2.07168C1.19584 2.05339 1.19719 2.03448 1.19553 2.01573V2.02195Z" fill="#B94E9C"/>
</svg>
