<svg width="5" height="3" viewBox="0 0 5 3" fill="none" xmlns="http://www.w3.org/2000/svg">
<path d="M4.09601 0.0957031H4.08016C4.03844 0.109311 3.99743 0.125222 3.95732 0.143365C3.82508 0.161868 3.69539 0.196645 3.57095 0.246972C3.17468 0.377517 2.61 0.605448 2.61 0.605448L2.28308 0.767075L1.20919 1.29754L0.614786 1.58765C0.606459 1.59589 0.599736 1.60574 0.594977 1.61665C0.560732 1.67944 0.550129 1.75334 0.565252 1.82387C0.119449 2.07874 0.519681 1.85288 0.379005 1.93369L0.390893 1.95856L0.432505 2.0518L0.491943 2.18442C0.524675 2.20332 0.55921 2.2186 0.594977 2.23001C0.622404 2.23617 0.650764 2.23617 0.678191 2.23001C0.696352 2.26594 0.723 2.29641 0.755599 2.31854C0.788198 2.34066 0.825663 2.3537 0.864438 2.35641C0.868759 2.35861 0.873503 2.35975 0.878309 2.35975C0.883114 2.35975 0.887858 2.35861 0.892179 2.35641L1.48658 2.06631L2.61595 1.5089L2.8973 1.368C2.8973 1.368 3.86222 0.81681 3.81665 0.829243C3.88996 0.781583 3.95931 0.735998 4.01479 0.694555C4.04054 0.706988 4.06234 0.719415 4.06432 0.715271C4.08384 0.721148 4.10431 0.722775 4.12446 0.720052C4.14461 0.717328 4.16401 0.710312 4.18147 0.699437C4.19892 0.688561 4.21406 0.674057 4.22594 0.656821C4.23783 0.639586 4.24621 0.619987 4.25057 0.599232C4.26777 0.55005 4.27713 0.498251 4.2783 0.445895L4.18121 0.269762C4.15744 0.226247 4.13564 0.180661 4.11979 0.147507L4.09601 0.0957031ZM3.89788 0.561935L3.74136 0.613738C3.34509 0.744283 2.78238 0.972221 2.78238 0.972221L2.74672 0.988795C2.84777 0.930775 3.69777 0.443821 3.65418 0.456254L3.79286 0.363011L3.84438 0.46247L3.89788 0.561935Z" fill="#27B361"/>
</svg>
