<svg width="3" height="2" viewBox="0 0 3 2" fill="none" xmlns="http://www.w3.org/2000/svg">
<path d="M1.94497 0.196772C1.84517 0.262885 1.75044 0.337013 1.66163 0.418489L1.29112 0.930308C1.19602 1.05671 1.09299 1.18311 1.02958 1.27636C0.99392 1.32401 0.964199 1.36339 0.942404 1.38825L0.916646 1.41933L0.906741 1.42969C0.905923 1.43519 0.905923 1.44078 0.906741 1.44627C0.939546 1.51646 0.985339 1.57914 1.04147 1.63069C1.07712 1.66337 1.12004 1.68617 1.1663 1.697C1.1762 1.697 1.17819 1.697 1.18017 1.697C1.18215 1.697 1.39415 1.43384 1.57644 1.17896L1.94298 0.673361C1.94298 0.673361 2.11537 0.327314 2.09952 0.33353C2.15896 0.182264 2.15301 0.0496495 1.94497 0.196772Z" fill="#F0E811"/>
</svg>
