<svg width="2" height="2" viewBox="0 0 2 2" fill="none" xmlns="http://www.w3.org/2000/svg">
<path d="M0.894819 0.671059L0.876993 0.760166C0.863124 0.832691 0.85916 0.840977 0.851235 0.874131C0.823496 0.988099 0.789809 1.10207 0.760088 1.21811C0.746219 1.26991 0.732347 1.32378 0.720459 1.37766C0.748198 1.43775 0.787823 1.41496 0.805655 1.39631C0.817544 1.34243 0.829432 1.29063 0.843302 1.23883C0.875003 1.12486 0.908692 1.01089 0.936431 0.894854L0.950302 0.83476L1.00974 0.905212L1.0989 1.01089L1.15042 1.06684L1.32873 1.24919C1.40403 1.32586 1.46347 1.36937 1.37035 1.21603C1.31685 1.12693 1.22768 1.00882 1.22768 1.00882L1.16825 0.942509L1.07908 0.838902L1.02361 0.772598L0.918594 0.635836L0.904723 0.617188V0.62962L0.894819 0.671059Z" fill="black"/>
</svg>
