<svg width="1" height="1" viewBox="0 0 1 1" fill="none" xmlns="http://www.w3.org/2000/svg">
<path d="M0.644336 0.640659L0.606689 0.676093C0.617256 0.683024 0.628564 0.688625 0.640375 0.692773C0.66273 0.695924 0.685385 0.695924 0.70774 0.692773H0.781049C0.794302 0.685671 0.806905 0.677298 0.818695 0.667759C0.824082 0.664737 0.828585 0.660225 0.831726 0.654718C0.834866 0.64921 0.836527 0.642909 0.836527 0.636486C0.836527 0.630063 0.834866 0.623761 0.831726 0.618254C0.828585 0.612746 0.824082 0.608248 0.818695 0.605225C0.804997 0.59366 0.789605 0.584507 0.773122 0.578125C0.773122 0.578125 0.604707 0.590625 0.679998 0.596879L0.644336 0.640659Z" fill="#BF2026"/>
</svg>
