<svg width="3" height="3" viewBox="0 0 3 3" fill="none" xmlns="http://www.w3.org/2000/svg">
<path d="M1.08702 2.64711C1.22901 2.69075 1.37818 2.70275 1.52489 2.68234C1.66886 2.66345 1.8092 2.62152 1.94098 2.55801C2.21222 2.44054 2.4372 2.23009 2.57897 1.96123C2.71891 1.68456 2.74814 1.36111 2.66021 1.06192C2.61737 0.912983 2.54589 0.774769 2.45015 0.655757C2.35441 0.536745 2.23643 0.439446 2.10345 0.369826C2.07012 0.352818 2.03569 0.338276 2.00042 0.32631L1.97466 0.315952H1.96277H1.95088L1.90333 0.303516L1.85578 0.291084H1.80822H1.78444H1.72104H1.70718C1.65147 0.290422 1.5958 0.29458 1.54074 0.303516C1.48121 0.3117 1.42229 0.324164 1.3644 0.340816C1.34108 0.347217 1.3185 0.356251 1.29704 0.367755C1.2683 0.378429 1.24045 0.391596 1.21381 0.407123L1.11278 0.349103H1.09692C1.07316 0.35294 1.05068 0.36291 1.03153 0.378113C1.02618 0.360386 1.01637 0.344492 1.00313 0.332096C0.98988 0.3197 0.973681 0.31126 0.956241 0.307661H0.944354C0.834943 0.336675 0.731081 0.385031 0.637247 0.450639C0.51057 0.536974 0.407481 0.656208 0.338062 0.796687C0.268587 0.934657 0.228062 1.08654 0.219186 1.2422C0.197247 1.54677 0.266494 1.85094 0.417321 2.1125C0.570664 2.37023 0.808867 2.56038 1.08702 2.64711ZM0.526292 0.796687C0.530053 0.819882 0.538867 0.84186 0.552051 0.860922C0.552051 0.860922 0.552051 0.860923 0.552051 0.871284C0.645193 0.906172 0.736469 0.946292 0.825478 0.991468C1.09141 1.12975 1.34648 1.2898 1.58829 1.47013L1.70718 1.55924L1.92116 1.70429C2.02815 1.77474 2.13118 1.84726 2.11929 1.83897C2.29959 1.95087 2.43037 2.0006 2.18666 1.75609C2.04797 1.60897 1.83002 1.41833 1.83002 1.41833L1.68934 1.31265C1.43907 1.12436 1.17394 0.958682 0.896803 0.817409C0.802686 0.769108 0.706113 0.726218 0.607522 0.688934C0.602426 0.686854 0.596776 0.686854 0.59168 0.688934C0.627579 0.649362 0.667429 0.613934 0.710556 0.583256C0.788625 0.531135 0.874287 0.492642 0.964175 0.469288C0.964175 0.469288 0.964175 0.469288 0.964175 0.456856C0.966578 0.468452 0.970582 0.479621 0.976062 0.490011L1.24156 0.643347C1.41195 0.74281 1.57839 0.850563 1.74086 0.962458L1.85974 1.04949C1.85974 1.04949 1.96673 1.11994 2.06976 1.19454C2.17279 1.26913 2.26789 1.3458 2.26789 1.33752C2.43631 1.46184 2.56509 1.52815 2.3412 1.26085C2.23177 1.13419 2.11392 1.01578 1.98853 0.90651L1.84785 0.802903C1.68141 0.684791 1.51102 0.57704 1.33666 0.473433L1.2792 0.440278C1.37512 0.427605 1.47196 0.424136 1.56848 0.429917H1.58829L1.69331 0.492082C1.75869 0.531452 1.84587 0.587401 1.92711 0.645421C2.09354 0.761461 2.2461 0.894077 2.2461 0.894077L2.34913 0.962458L2.41056 1.00597L2.42244 1.03291C2.46956 1.15541 2.49278 1.28653 2.49073 1.41855C2.48869 1.55057 2.46143 1.68083 2.41056 1.80168C2.31919 2.00258 2.17214 2.17008 1.98853 2.28241C1.9707 2.26169 1.94889 2.23475 1.91917 2.20574C1.80583 2.08463 1.68469 1.97178 1.5566 1.86798L1.41195 1.76852C1.16428 1.60068 0.91463 1.44112 0.680831 1.26499C0.599596 1.20282 0.51837 1.13859 0.443079 1.07228H0.427225C0.410126 1.06994 0.392806 1.06994 0.375708 1.07228C0.410683 0.972194 0.461598 0.879014 0.526292 0.796687ZM0.437129 1.66698C0.39906 1.53263 0.382985 1.39251 0.389579 1.25256C0.460907 1.31472 0.534212 1.37067 0.607522 1.42869C0.851228 1.60897 1.10287 1.77059 1.34657 1.93636L1.46942 2.02132C1.46942 2.02132 1.58037 2.08763 1.68736 2.15808C1.79435 2.22854 1.88549 2.29899 1.88549 2.2907L1.95088 2.33214L1.91125 2.35494C1.79494 2.41334 1.67166 2.45515 1.54471 2.47926H1.49913L1.41195 2.38395C1.34062 2.30728 1.24751 2.22439 1.1742 2.16016L1.0454 2.0524L0.906708 1.9488L0.762073 1.84105C0.682819 1.77681 0.603569 1.71257 0.530259 1.64419H0.514405C0.487106 1.64401 0.460314 1.65191 0.437129 1.66698ZM0.524309 1.90114L0.655073 2.00682L0.801702 2.11871L0.922562 2.20574L1.34657 2.47512L1.38224 2.49584C1.31546 2.49614 1.24891 2.48779 1.1841 2.47098C0.935888 2.40523 0.722375 2.23999 0.589697 2.01096C0.565945 1.97567 0.544112 1.939 0.524309 1.90114Z" fill="#5450A1"/>
</svg>
