<svg width="9" height="10" viewBox="0 0 9 10" fill="none" xmlns="http://www.w3.org/2000/svg">
<path d="M8.391 0.660868C8.5224 0.692117 8.63975 0.769132 8.7238 0.879287C8.73527 0.893832 8.74373 0.910698 8.74867 0.928827C8.7536 0.946956 8.75491 0.96596 8.75249 0.98464C8.75007 1.00332 8.74399 1.02128 8.73462 1.03738C8.72525 1.05348 8.7128 1.06739 8.69805 1.07822C8.61483 1.16318 8.4583 1.09479 8.36914 1.07822C8.36319 1.07615 8.18289 1.08857 8.21063 1.11758C8.23837 1.14659 8.26809 1.17354 8.29781 1.20047C8.33156 1.22852 8.36214 1.26049 8.38896 1.29579C8.39783 1.30701 8.40413 1.32021 8.40736 1.33437C8.4106 1.34853 8.41069 1.36328 8.40763 1.37749C8.40457 1.39169 8.39844 1.40498 8.38971 1.41632C8.38097 1.42766 8.36987 1.43675 8.35725 1.44291C8.25818 1.48642 8.16109 1.43462 8.06005 1.42426C8.06432 1.43385 8.06964 1.44289 8.0759 1.4512L8.1076 1.49471C8.13688 1.52656 8.16403 1.56049 8.18884 1.59625C8.20011 1.61328 8.20787 1.63257 8.21162 1.65291C8.21537 1.67324 8.21503 1.69417 8.21063 1.71436C8.20072 1.81175 8.06599 1.80968 8.0125 1.76824C7.85993 1.65427 7.76285 1.74959 7.64198 1.81797C7.84012 2.38366 7.6301 2.94522 7.44385 3.75128C7.20357 4.89985 7.03939 6.0644 6.95248 7.23662C6.93264 7.69333 6.8184 8.1401 6.61763 8.54621C6.56597 8.62887 6.50904 8.70779 6.44723 8.78244C6.1203 9.19894 5.49618 8.89848 5.75574 8.2126C5.83299 8.03279 5.86111 7.83411 5.83698 7.63861C5.76367 7.05012 5.31192 7.17238 5.16927 7.70078C5.10445 7.97548 5.02439 8.24601 4.92952 8.51099C4.59863 9.3357 3.77242 9.21137 3.89526 8.35558C3.93866 8.14018 3.96188 7.92088 3.9646 7.70078C3.95866 7.52672 3.87147 7.27599 3.67334 7.42518C3.51083 7.5636 3.39831 7.75584 3.35434 7.97015C3.29689 8.17737 3.25528 8.41152 3.19386 8.61874C2.76588 10.1086 1.55132 9.66517 1.84257 8.2271C1.91981 7.8964 2.02252 7.57278 2.14969 7.25941C2.67673 5.82135 2.96006 5.20592 2.96006 3.70154C2.95473 3.31025 2.98191 2.91923 3.0413 2.53286C2.88477 2.47898 2.66483 2.36708 2.53605 2.47898C2.435 2.55565 2.38546 2.76286 2.23686 2.76286C2.21294 2.76353 2.18915 2.75892 2.16705 2.74933C2.14494 2.73974 2.12501 2.72539 2.10856 2.70721C2.09212 2.68903 2.07951 2.66743 2.07157 2.64381C2.06364 2.6202 2.06056 2.5951 2.06251 2.57016C2.08035 2.41267 2.26262 2.20753 2.22894 2.05627C2.22696 2.05005 1.93966 2.20546 1.90598 2.22204C1.76927 2.29042 1.48198 2.30492 1.58897 2.06041C1.64841 1.92572 1.74748 1.8159 1.80097 1.67914C1.90202 1.40976 1.40074 1.67913 1.33733 1.71436C1.19468 1.79725 0.814262 1.96923 0.784542 1.67499C0.754821 1.38074 1.15109 1.08236 1.34922 0.96632C1.5197 0.870855 1.71631 0.839352 1.90631 0.877055C2.0963 0.914758 2.2682 1.01939 2.3934 1.17353C2.57964 1.37246 2.64106 1.63562 2.78966 1.84283C2.87208 1.97074 2.98947 2.06968 3.1265 2.12672C3.38803 1.08651 3.96659 0.479367 4.88593 0.332245C5.96973 0.151969 7.06343 0.562253 7.5548 1.57553C7.77077 1.39318 7.71133 0.871001 8.00061 0.707302C8.12194 0.645992 8.2596 0.629618 8.391 0.660868Z" fill="#F99F00"/>
</svg>
