<svg width="6" height="4" viewBox="0 0 6 4" fill="none" xmlns="http://www.w3.org/2000/svg">
<path d="M5.12916 1.26688C4.8379 1.35805 4.46542 1.49896 4.28115 1.57148C4.2768 1.53838 4.26949 1.50578 4.25935 1.47409C4.23501 1.37974 4.20524 1.28702 4.1702 1.19643L4.11471 1.05966L4.08499 1.012L4.02753 0.916687L3.90866 0.709473L3.7006 0.808938L3.53814 0.877316C3.46944 0.906797 3.40317 0.942144 3.34001 0.982997L3.17159 1.10732L3.36972 1.4658L3.47672 1.65229C3.52031 1.72482 3.56587 1.79942 3.61342 1.87401L1.83021 2.72981C1.83021 2.71945 1.83021 2.70909 1.83021 2.69873C1.82441 2.61133 1.81116 2.52464 1.79059 2.43971C1.77276 2.36097 1.75493 2.30502 1.75493 2.30502C1.71398 2.22489 1.67039 2.14408 1.62416 2.06258L1.5568 1.94862L1.43394 1.96726C1.38 1.9762 1.32822 1.99589 1.28139 2.02528C1.24912 2.04543 1.21801 2.06757 1.18826 2.09159L1.1308 2.14132L1.06938 2.20141L0.948522 2.3216L1.08325 2.63034L1.16448 2.81062C1.1942 2.87071 1.2259 2.93081 1.26355 2.99504L0.952477 3.14424L0.358072 3.42812C0.35007 3.43716 0.342784 3.44686 0.336281 3.45713C0.223344 3.70786 0.397704 3.78867 0.498752 3.80318C0.503074 3.80538 0.507818 3.80652 0.512623 3.80652C0.517429 3.80652 0.522173 3.80538 0.526494 3.80318L1.1209 3.5193L3.9879 2.13717L4.27123 2.00042C4.27123 2.00042 5.24012 1.45751 5.19455 1.46994C5.58884 1.24615 5.81074 1.03894 5.12916 1.26688ZM1.64001 2.83134L1.60633 2.77954C1.58385 2.74206 1.56335 2.70332 1.54491 2.6635C1.57336 2.7118 1.60728 2.75633 1.64595 2.79612L1.66775 2.81891L1.64001 2.83134ZM3.98395 1.7041C3.92847 1.61707 3.87299 1.53004 3.81949 1.44094L3.71844 1.24616L3.76401 1.22751L3.78581 1.26273C3.78581 1.26273 3.86308 1.35391 3.93837 1.4368C3.98351 1.49033 4.03182 1.54085 4.08302 1.58806L4.13255 1.63157L3.98395 1.7041Z" fill="#27B361"/>
</svg>
