<svg width="3" height="2" viewBox="0 0 3 2" fill="none" xmlns="http://www.w3.org/2000/svg">
<path d="M2.3034 0.567499L2.26774 0.540561C2.17063 0.474603 2.05654 0.44134 1.94081 0.445244C1.88435 0.441134 1.82796 0.454079 1.77834 0.482541C1.75852 0.50119 1.77834 0.521913 1.83976 0.548851L1.96261 0.602722C2.02144 0.629107 2.07567 0.665523 2.1231 0.710478C2.14842 0.740173 2.16674 0.775656 2.17659 0.814085C2.18549 0.852204 2.18549 0.892004 2.17659 0.930124C2.15575 1.01423 2.11563 1.09175 2.0597 1.15599C2.01624 1.20736 1.96544 1.2514 1.90911 1.28653C1.88849 1.30108 1.86659 1.31357 1.84373 1.32383C1.77798 1.36624 1.70058 1.38447 1.6238 1.37563C1.57338 1.36162 1.52626 1.33692 1.48536 1.30306C1.44445 1.26919 1.41064 1.22689 1.38603 1.17878C1.3596 1.13235 1.3421 1.08097 1.33452 1.02751C1.33037 0.978892 1.33716 0.929927 1.35434 0.884537C1.39334 0.810261 1.44597 0.744758 1.5092 0.691779C1.57244 0.638799 1.64505 0.599386 1.72287 0.57579C1.72995 0.569253 1.73597 0.561551 1.74069 0.552993C1.79815 0.44317 1.81401 0.360282 1.78429 0.298117C1.76817 0.268143 1.74567 0.242461 1.71853 0.223055C1.69138 0.20365 1.66032 0.191047 1.62777 0.186226C1.61757 0.182065 1.60625 0.182065 1.59606 0.186226C1.47189 0.229945 1.35592 0.295849 1.25329 0.381008C1.14013 0.470639 1.05078 0.589051 0.993732 0.724984C0.951049 0.835254 0.934729 0.954745 0.946182 1.0731C0.95989 1.18588 0.995628 1.29449 1.05119 1.39221C1.10356 1.48423 1.17056 1.56622 1.24932 1.63465C1.33749 1.7095 1.44255 1.75945 1.55444 1.7797C1.6972 1.80114 1.84284 1.77732 1.97252 1.71132C2.03626 1.67731 2.09552 1.63483 2.14885 1.58492C2.26411 1.47883 2.35317 1.34518 2.40842 1.19536C2.4424 1.11691 2.45997 1.03178 2.45997 0.945661C2.45997 0.859541 2.4424 0.774416 2.40842 0.695971C2.38142 0.646647 2.34579 0.603068 2.3034 0.567499Z" fill="#27B361"/>
</svg>
