<svg width="3" height="4" viewBox="0 0 3 4" fill="none" xmlns="http://www.w3.org/2000/svg">
<path d="M2.1332 3.1985C2.14473 3.17117 2.1495 3.14124 2.14707 3.11147C2.14444 3.08981 2.14047 3.06836 2.13518 3.04724L2.12131 2.99129H2.13122L2.15301 2.97264L2.1768 2.95399V2.94363L2.19264 2.92912C2.19264 2.92912 2.18274 2.92912 2.22435 2.9457L2.24812 2.95813H2.25803H2.26991C2.29196 2.97111 2.31616 2.97955 2.34124 2.983C2.3589 2.98423 2.37656 2.98067 2.39253 2.97269C2.40849 2.96471 2.42222 2.95256 2.43239 2.93741C2.43335 2.93124 2.43335 2.92494 2.43239 2.91876L2.44626 2.90219L2.48589 2.85867C2.49951 2.84302 2.51209 2.8264 2.52353 2.80894C2.53362 2.79661 2.54165 2.7826 2.54731 2.7675C2.55413 2.75025 2.55413 2.73087 2.54731 2.71362C2.54188 2.69714 2.53385 2.68173 2.52353 2.66803L2.50371 2.64317L2.47003 2.60172C2.47003 2.58515 2.44625 2.56857 2.44031 2.55821C2.43436 2.54785 2.44031 2.55821 2.44031 2.5437C2.44478 2.52821 2.45008 2.51299 2.45616 2.49812C2.46157 2.48305 2.46819 2.46849 2.47597 2.4546H2.67411C2.6819 2.43715 2.68853 2.41914 2.69393 2.40073L2.70581 2.35928C2.71805 2.3206 2.72797 2.28115 2.73553 2.24117C2.73553 2.22045 2.73553 2.19973 2.73553 2.17901V2.05468H2.69194H2.67213H2.65826C2.64593 2.05211 2.63395 2.04793 2.6226 2.04225C2.59567 2.02966 2.56784 2.01927 2.53938 2.01117H2.52947C2.51913 2.01539 2.50969 2.02173 2.50173 2.02981C2.50173 2.02981 2.50173 2.01324 2.50173 2.00288C2.50047 1.98218 2.50047 1.96141 2.50173 1.94071C2.50173 1.91999 2.50173 1.90549 2.50173 1.90134C2.51106 1.89202 2.52177 1.88433 2.53344 1.87855C2.55847 1.86312 2.58504 1.85061 2.61268 1.84125L2.70978 1.80395V1.78323V1.76665C2.7062 1.74325 2.70022 1.72033 2.69194 1.69827L2.68006 1.66304V1.64647L2.66222 1.59466V1.56358C2.66222 1.55115 2.66223 1.54493 2.64638 1.52007C2.64171 1.50071 2.63052 1.48377 2.61487 1.47235C2.59922 1.46093 2.58016 1.4558 2.56118 1.45791L2.42248 1.50142C2.40663 1.50142 2.38087 1.50142 2.38879 1.50142V1.48691C2.3769 1.45583 2.33134 1.38745 2.33729 1.38952C2.33658 1.38472 2.33658 1.37982 2.33729 1.37502C2.33663 1.36744 2.33663 1.35981 2.33729 1.35222C2.34353 1.33284 2.35149 1.31412 2.36106 1.29628L2.38484 1.24447C2.39577 1.21373 2.39577 1.1799 2.38484 1.14915C2.37944 1.13174 2.36989 1.11605 2.35709 1.10357L2.33134 1.08077L2.28775 1.04762L2.24019 1.01239L2.20849 0.993744C2.19262 0.987196 2.17595 0.983011 2.15896 0.981312C2.14065 0.981752 2.12282 0.987491 2.10744 0.99789L2.0797 1.02068L2.03612 1.05798L1.99649 1.08906H1.98063H1.96875L1.94695 1.0787L1.90139 1.05591C1.88157 1.04555 1.88752 1.05591 1.88752 1.05591C1.88589 1.04562 1.88589 1.03512 1.88752 1.02483C1.8937 0.981551 1.8937 0.937557 1.88752 0.894282C1.8847 0.877945 1.87862 0.862411 1.86968 0.848695C1.85972 0.833683 1.8469 0.820983 1.83203 0.811395C1.80964 0.79968 1.78553 0.791975 1.76071 0.788601C1.7191 0.788601 1.68145 0.788601 1.64579 0.788601C1.62208 0.785961 1.59817 0.785961 1.57446 0.788601C1.55608 0.792783 1.53944 0.802937 1.52691 0.817611C1.51624 0.829489 1.50814 0.843623 1.50313 0.859056C1.49746 0.876349 1.49017 0.893006 1.48134 0.908786L1.45954 0.958518C1.45954 0.970951 1.45954 0.958518 1.44963 0.970951H1.43379H1.40407C1.39092 0.972826 1.37759 0.972826 1.36444 0.970951C1.36444 0.970951 1.36444 0.970951 1.35453 0.970951C1.34463 0.970951 1.31887 0.915002 1.29113 0.879776C1.27337 0.85486 1.24833 0.836674 1.2198 0.827972C1.20102 0.822386 1.18112 0.822386 1.16234 0.827972H1.13461L1.03157 0.867344L0.978072 0.888066L0.934488 0.904644L0.90873 0.915002H0.896842C0.896842 0.915002 0.896842 0.925364 0.896842 0.929509L0.912696 1.06213C0.914274 1.07971 0.917591 1.09707 0.922601 1.11393C0.922601 1.13051 0.922601 1.14294 0.922601 1.1533C0.935771 1.15889 0.948381 1.16583 0.960247 1.17402H0.946376C0.915771 1.18645 0.885984 1.20099 0.857213 1.21754C0.848303 1.22123 0.83838 1.22123 0.829471 1.21754C0.81773 1.21413 0.806425 1.20925 0.795791 1.20303L0.718516 1.15744H0.698707L0.674932 1.14501C0.657077 1.13783 0.637304 1.13783 0.619448 1.14501C0.606894 1.14923 0.595393 1.15631 0.585769 1.16573C0.568918 1.1827 0.553042 1.20069 0.538219 1.21961L0.518398 1.24655C0.506877 1.25953 0.496287 1.27338 0.486702 1.28799C0.475228 1.30391 0.464649 1.32052 0.455005 1.33772C0.447585 1.35251 0.440963 1.36773 0.435185 1.38331L0.42528 1.4061L0.439151 1.42682L0.516427 1.52214C0.528069 1.53748 0.540644 1.55201 0.554073 1.56565C0.542185 1.59674 0.532269 1.64025 0.520381 1.66512C0.508493 1.68998 0.520381 1.66512 0.520381 1.66512H0.476797H0.41933C0.396259 1.663 0.373059 1.663 0.349988 1.66512C0.332563 1.67019 0.316843 1.68024 0.30459 1.69415C0.292338 1.70807 0.284045 1.72528 0.280646 1.74386C0.280646 1.76665 0.280646 1.78737 0.268758 1.80602C0.260747 1.84698 0.256105 1.88857 0.254887 1.93035C0.251747 1.96037 0.257259 1.99068 0.270729 2.01738C0.289521 2.04535 0.317918 2.06465 0.349988 2.07126L0.401505 2.08576C0.417284 2.08933 0.432584 2.09489 0.447072 2.10234C0.449189 2.10907 0.449189 2.11633 0.447072 2.12306C0.448288 2.15709 0.451595 2.19101 0.456976 2.2246L0.379713 2.25982C0.364833 2.26697 0.350852 2.27602 0.3381 2.28676C0.319989 2.29886 0.30555 2.31611 0.296488 2.33649C0.288637 2.36068 0.288637 2.3869 0.296488 2.41109C0.296488 2.42974 0.296489 2.44632 0.310359 2.46082V2.47947V2.49398V2.52506V2.55407L0.322246 2.58308V2.59965V2.61209C0.332842 2.62884 0.348045 2.64184 0.365842 2.64939H0.379713H0.401505H0.445089L0.510477 2.63488C0.524951 2.63299 0.539599 2.63299 0.554073 2.63488C0.554073 2.63488 0.554064 2.63488 0.569915 2.64939C0.580752 2.66462 0.590683 2.68053 0.59964 2.69704L0.587752 2.73434L0.558027 2.8193L0.542185 2.86903L0.528314 2.9084V2.91876L0.544156 2.93327L0.625398 3.00579L0.655111 3.03066L0.68682 3.05967L0.724466 3.09075C0.745292 3.10639 0.770158 3.11506 0.795791 3.11562C0.809484 3.1134 0.822822 3.10922 0.835421 3.10319L0.859196 3.08868L0.896842 3.05967L0.928538 3.0348L0.964201 3.00372H0.982039C1.00376 3.00919 1.0245 3.01829 1.04346 3.03066C1.04403 3.04101 1.04403 3.05139 1.04346 3.06174C1.04346 3.08661 1.04346 3.11147 1.04346 3.1467V3.17156C1.04346 3.17156 1.04346 3.19436 1.04346 3.20886C1.04771 3.22218 1.05497 3.23422 1.06463 3.24396C1.0743 3.2537 1.08607 3.26086 1.09894 3.26481H1.13461H1.1564H1.19404L1.27726 3.27932H1.32284H1.41794C1.42232 3.24998 1.42826 3.22092 1.43576 3.19229L1.44568 3.15084L1.47144 3.06589C1.47185 3.06245 1.47185 3.05896 1.47144 3.05552C1.46607 3.04261 1.4587 3.03071 1.44963 3.0203C1.48128 3.02301 1.5131 3.02301 1.54475 3.0203C1.57249 3.0203 1.57843 3.0203 1.59031 3.04931C1.6022 3.07832 1.61012 3.10319 1.62201 3.1322C1.62842 3.14755 1.63639 3.16213 1.64579 3.17571C1.65618 3.19184 1.67056 3.20473 1.6874 3.21301C1.70439 3.21669 1.72192 3.21669 1.73891 3.21301C1.76478 3.20788 1.78959 3.19806 1.81222 3.184L1.83203 3.17364H1.84392H1.87365C1.89384 3.16798 1.91368 3.16106 1.93308 3.15291C1.94486 3.14871 1.95617 3.14315 1.96677 3.13634C1.97311 3.15246 1.98261 3.16701 1.99466 3.17904C2.00672 3.19107 2.02105 3.20032 2.03675 3.20618C2.05244 3.21204 2.06914 3.21439 2.08576 3.21307C2.10238 3.21174 2.11854 3.20678 2.1332 3.1985ZM2.02423 3.15499L1.97668 3.17156H1.94497H1.92715L1.8994 3.18607C1.88753 3.19314 1.87489 3.1987 1.86176 3.20265C1.86176 3.20265 1.83798 3.17571 1.82014 3.14255C1.81079 3.12339 1.79951 3.10532 1.78647 3.08868C1.77259 3.06912 1.75319 3.05462 1.73099 3.04724C1.6874 3.04724 1.67155 3.04724 1.67551 3.04724C1.64827 3.05425 1.62173 3.06397 1.59625 3.07625C1.57842 3.08661 1.56653 3.09075 1.56257 3.09697C1.55861 3.10318 1.56257 3.09697 1.56257 3.10733C1.56257 3.10733 1.56257 3.10733 1.5487 3.10733C1.54734 3.10331 1.54734 3.09892 1.5487 3.09489H1.53483C1.52808 3.09854 1.52204 3.10346 1.517 3.1094L1.48134 3.24409H1.4437L1.36245 3.22958H1.31887H1.29311V3.20472C1.29311 3.18192 1.29311 3.14877 1.29311 3.11769C1.29465 3.09907 1.29465 3.08035 1.29311 3.06174C1.28828 3.05008 1.28229 3.03897 1.27527 3.02859C1.26825 3.01811 1.25954 3.00899 1.24952 3.00165C1.22215 2.98105 1.19119 2.96626 1.15838 2.95813C1.13908 2.94894 1.11817 2.94401 1.09696 2.94363C1.0832 2.94555 1.06983 2.94974 1.05733 2.95606L1.02959 2.97678L0.999876 3.00165L0.966184 3.03066L0.936471 3.05138H0.924584L0.896842 3.02859L0.867117 3.00165L0.833437 2.97057L0.78787 2.9312V2.89804L0.813629 2.81723C0.819869 2.80242 0.825155 2.78719 0.829471 2.77164C0.839418 2.74499 0.839418 2.71541 0.829471 2.68876C0.81362 2.66182 0.807676 2.65146 0.791825 2.62866C0.774247 2.60001 0.747594 2.57874 0.716533 2.56857C0.700148 2.56555 0.683384 2.56555 0.666999 2.56857H0.631336L0.573881 2.58308H0.540202L0.528314 2.55407L0.508493 2.51262C0.501783 2.49544 0.493835 2.47882 0.484718 2.46289C0.484718 2.44631 0.46887 2.43181 0.462926 2.4173C0.456982 2.4028 0.506513 2.33856 0.496606 2.34271C0.523686 2.32165 0.548887 2.29807 0.571898 2.27225L0.617465 2.24117V2.22874C0.616007 2.20044 0.616007 2.17208 0.617465 2.14378C0.61563 2.11977 0.608877 2.09644 0.597657 2.0754C0.58373 2.05266 0.563765 2.03465 0.540202 2.0236L0.480764 2.00288L0.42528 1.9863H0.411409C0.409861 1.97809 0.409861 1.96964 0.411409 1.96143C0.412396 1.92579 0.417048 1.89036 0.42528 1.85576C0.423789 1.83783 0.423789 1.8198 0.42528 1.80188H0.46491H0.518398C0.540824 1.80356 0.563342 1.80356 0.585769 1.80188C0.603084 1.7982 0.619355 1.7904 0.633319 1.77908C0.645526 1.76646 0.655582 1.75174 0.663044 1.73557C0.678593 1.6964 0.69183 1.65626 0.702674 1.61539C0.707684 1.59711 0.707684 1.57772 0.702674 1.55944C0.697405 1.54183 0.688626 1.52558 0.676915 1.51178C0.664295 1.49795 0.652391 1.48342 0.641252 1.46826L0.591719 1.40817L0.603606 1.38952C0.641252 1.33565 0.66106 1.317 0.684836 1.28384C0.684836 1.28384 0.684837 1.28384 0.710595 1.28384C0.765356 1.31427 0.82699 1.3286 0.888921 1.32529C0.912697 1.31493 0.918632 1.30871 0.916651 1.30871C0.951259 1.2837 0.980314 1.25119 1.00185 1.21339H1.01572C1.03355 1.21339 1.05138 1.18853 1.05535 1.16988C1.05535 1.14916 1.04544 1.13258 1.04148 1.11807C1.0404 1.10567 1.0404 1.09318 1.04148 1.08077V1.03519L1.20197 0.975096H1.22574V0.987528C1.24555 1.01032 1.26141 1.04348 1.29311 1.08077C1.30181 1.09247 1.31257 1.10232 1.32481 1.10978C1.33932 1.12045 1.3566 1.12623 1.37434 1.12636C1.39735 1.12971 1.42069 1.12971 1.4437 1.12636H1.46549C1.479 1.12434 1.49228 1.12087 1.50512 1.116C1.53431 1.10389 1.55826 1.08105 1.57248 1.05176L1.59625 0.99789C1.59625 0.981312 1.61409 0.956446 1.62004 0.941941H1.65767C1.69194 0.938669 1.72643 0.938669 1.76071 0.941941C1.77244 0.943225 1.78385 0.946736 1.79439 0.952302C1.79805 0.984653 1.79805 1.01734 1.79439 1.04969C1.78931 1.07637 1.78931 1.10383 1.79439 1.13051C1.79439 1.16988 1.84789 1.1906 1.85977 1.19681L1.91327 1.22375L1.94102 1.23618H1.95686H1.98262C2.00119 1.23707 2.01965 1.23278 2.03612 1.22375L2.06584 1.2051C2.08254 1.19313 2.09842 1.17998 2.11339 1.16573L2.15301 1.13051L2.16886 1.11807C2.17411 1.11718 2.17947 1.11718 2.18472 1.11807L2.22633 1.14708L2.26991 1.18231L2.28577 1.19474V1.20717L2.26398 1.25898C2.25362 1.27985 2.24435 1.30129 2.23624 1.32321C2.23152 1.33519 2.22819 1.34771 2.22633 1.36051C2.22329 1.37624 2.22329 1.39245 2.22633 1.40817C2.22738 1.42721 2.23281 1.44569 2.24217 1.46205L2.26001 1.49313V1.50556V1.51592L2.27388 1.54493C2.27388 1.5553 2.27388 1.55944 2.29369 1.58223C2.29856 1.59128 2.3051 1.59924 2.31292 1.60564C2.32074 1.61204 2.32968 1.61677 2.33926 1.61953C2.35821 1.62361 2.37777 1.62361 2.39672 1.61953H2.43239L2.54334 1.58431L2.55325 1.6216C2.55325 1.6216 2.55325 1.64232 2.56513 1.65476L2.57504 1.68584V1.70449L2.58693 1.74386L2.5691 1.75422C2.54136 1.76995 2.51485 1.78797 2.48984 1.8081C2.47467 1.82129 2.46133 1.83663 2.45021 1.85368C2.44028 1.87195 2.43549 1.89278 2.43635 1.91378C2.43635 1.94486 2.44626 1.95107 2.44626 1.949L2.46013 1.99252C2.4634 2.00514 2.46876 2.01706 2.47597 2.02774C2.4815 2.04077 2.48813 2.05325 2.49579 2.06504C2.50003 2.08124 2.50671 2.09663 2.5156 2.11063C2.54033 2.11655 2.56428 2.1256 2.58693 2.13757L2.63052 2.15207V2.17279C2.63235 2.19001 2.63235 2.20738 2.63052 2.2246C2.62449 2.25977 2.61588 2.29441 2.60476 2.3282V2.34271H2.42842V2.35307L2.39871 2.39866C2.39871 2.41938 2.37889 2.43803 2.37097 2.45875C2.36261 2.47953 2.35597 2.50102 2.35114 2.52299C2.34897 2.53948 2.34897 2.55622 2.35114 2.57271C2.3548 2.58878 2.36082 2.60416 2.36898 2.6183L2.40266 2.67011L2.44031 2.71569L2.45616 2.73642C2.4467 2.75112 2.4361 2.76498 2.42447 2.77786L2.38879 2.81723L2.36502 2.84624L2.35511 2.86074L2.32341 2.84831H2.30954L2.28577 2.83381L2.26001 2.8193H2.24416H2.2184C2.20111 2.81416 2.18269 2.81502 2.1659 2.82175C2.14911 2.82847 2.13487 2.8407 2.12528 2.8566H2.11339L2.09357 2.87318L2.0381 2.91876L2.01828 2.93741V2.95192C2.01732 2.97055 2.01732 2.98923 2.01828 3.00787L2.03215 3.06381C2.03794 3.08831 2.03794 3.11391 2.03215 3.13841L2.02423 3.15499Z" fill="#5450A1"/>
</svg>
