<svg width="1" height="6" viewBox="0 0 1 6" fill="none" xmlns="http://www.w3.org/2000/svg">
<path d="M0.148807 5.07191L0.0101103 5.69355C0.00786038 5.70448 0.00786038 5.71578 0.0101103 5.72671C0.119084 5.96086 0.275611 5.87383 0.344958 5.80338C0.348716 5.80137 0.351949 5.79843 0.354367 5.79482C0.356785 5.79121 0.358316 5.78703 0.358829 5.78265L0.499503 5.16101C0.73071 4.21332 0.841958 3.23799 0.830391 2.26001C0.830391 2.15641 0.818504 2.0528 0.81256 1.94712V1.89946C0.81256 1.87045 0.798687 1.82693 0.790762 1.7772C0.77293 1.67567 0.753119 1.54098 0.719436 1.40836L0.673863 1.21773C0.658012 1.15764 0.640182 1.10169 0.626312 1.0561C0.616356 1.0085 0.60036 0.962508 0.578756 0.919339C0.54014 0.775524 0.472587 0.641996 0.380621 0.527702C0.33505 0.504908 0.331088 0.61888 0.380621 0.958711C0.380621 1.06025 0.402417 1.16592 0.412324 1.28196C0.42223 1.398 0.430161 1.50161 0.436105 1.59693L0.44997 1.93261C0.44997 2.04658 0.465822 2.16262 0.469784 2.27659C0.479967 3.21902 0.372057 4.15879 0.148807 5.07191Z" fill="#7D7D7E"/>
</svg>
