<svg width="6" height="8" viewBox="0 0 6 8" fill="none" xmlns="http://www.w3.org/2000/svg">
<path d="M0.158993 6.23387C0.141161 6.25045 0.192676 6.27945 0.357128 6.32711C0.555263 6.38721 0.854448 6.45351 0.854448 6.45351L0.933695 6.46595L1.02286 6.48045L2.56831 6.73947C3.19243 6.84515 3.87204 6.94669 4.59325 7.04822L4.74185 7.06687L4.87658 7.08552H4.88649H4.89837V7.05029L4.91026 6.97984L4.95781 6.6483C4.98555 6.45559 5.01329 6.26081 5.04301 6.06395C5.09849 5.66818 5.15793 5.26411 5.21737 4.85382C5.27681 4.44354 5.32436 4.02497 5.37984 3.61054L5.46305 2.97232C5.47692 2.86457 5.49278 2.76511 5.50665 2.65114C5.52052 2.53717 5.54033 2.44392 5.55817 2.32996C5.59185 2.12274 5.6295 1.89688 5.65922 1.67723C5.67309 1.56741 5.68497 1.45758 5.69686 1.34776L5.71469 1.18199C5.72207 1.11868 5.72207 1.05466 5.71469 0.991352C5.70833 0.949823 5.6949 0.909823 5.67506 0.873242C5.66287 0.854569 5.64894 0.837216 5.63346 0.821438C5.61831 0.806538 5.60171 0.793342 5.58392 0.782067C5.52643 0.750686 5.46402 0.730335 5.39966 0.721976C5.28672 0.705399 5.18567 0.697109 5.0866 0.67846C4.88847 0.632873 4.6626 0.605934 4.45654 0.576924L1.96003 0.162496L1.34185 0.0671792L0.95747 0.0112305H0.917841V0.0526726L0.905953 0.131415L0.890111 0.2516L0.868307 0.413226C0.808867 0.827654 0.749437 1.25866 0.693959 1.67309C0.57706 2.50194 0.466104 3.30179 0.359111 4.06434C0.269951 4.70256 0.184745 5.30762 0.10351 5.86503C0.0777521 6.04738 0.0599257 6.17171 0.0599257 6.17999C0.0588008 6.18546 0.0588008 6.19111 0.0599257 6.19657C0.0731333 6.20953 0.0887341 6.21952 0.105771 6.22593C0.122808 6.23235 0.140921 6.23505 0.158993 6.23387ZM5.48089 0.937478C5.51655 0.951983 5.52845 0.962344 5.53637 0.983065C5.54404 1.01993 5.54404 1.05809 5.53637 1.09496L5.51655 1.04108C5.50254 1.00397 5.48599 0.967956 5.46702 0.933332L5.48089 0.937478ZM5.44523 1.8803C5.44523 1.93832 5.42938 1.99634 5.41947 2.05436C5.42039 2.06747 5.42039 2.08063 5.41947 2.09373C5.42046 2.07579 5.42046 2.0578 5.41947 2.03986C5.41658 1.99252 5.41062 1.94544 5.40163 1.89895L5.44523 1.8803ZM5.34021 0.908468L5.30455 0.92919V0.914684V0.902252L5.34021 0.908468ZM5.19558 2.17247C5.19843 2.17828 5.20174 2.18382 5.20548 2.18905L5.21935 2.21599V2.22842L5.38777 2.18491C5.38777 2.22635 5.3739 2.26779 5.36795 2.30923C5.31105 2.28666 5.25281 2.26797 5.19359 2.25329L5.01725 2.20563L5.17378 2.14761L5.19558 2.17247ZM5.16585 0.889819C5.13613 0.902252 5.11038 0.916757 5.09453 0.925045C5.08737 0.909425 5.07943 0.894208 5.07075 0.879458L5.16585 0.889819ZM5.02914 2.20356C4.8627 2.16211 4.70619 2.12896 4.70619 2.12896L4.82903 2.07715V2.05643L4.80327 1.94454L4.73987 1.68138C4.7759 1.77555 4.81691 1.86756 4.86271 1.95697C4.87856 1.99012 4.89837 2.02121 4.91818 2.05436V2.06679V2.0813L4.94791 2.06679C4.96772 2.10409 4.98754 2.14139 5.01131 2.17869L5.02914 2.20356ZM4.8845 0.838016L4.95386 0.852519L4.85676 0.89189L4.75374 0.933332L4.73194 0.883603V0.871168L4.62296 0.912613L4.58333 0.848377L4.56551 0.823509L4.54173 0.790354L4.8845 0.838016ZM4.4288 1.99841L4.4387 2.02121V2.03157L4.55164 1.98391L4.56948 2.0295L4.59919 2.09373L4.61108 2.11653L4.27227 2.06887L4.4288 1.99841ZM4.41294 2.0067V1.97355V1.94661V1.92174L4.44267 1.98391H4.42681L4.41294 2.0067ZM4.26434 0.746841L4.52985 0.786212L4.36142 0.86288L4.33171 0.804861L4.31586 0.779996L4.15537 0.838016V0.827654V0.806932V0.796574L3.95723 0.873242L3.94336 0.852519L3.90176 0.794499L3.80467 0.846303C3.78749 0.8184 3.76898 0.791428 3.74919 0.76549L3.71155 0.717831L3.68976 0.695037L3.67984 0.684676C3.65012 0.697109 3.67984 0.684676 3.67984 0.684676L4.26434 0.746841ZM3.99091 2.03364V2.00463C3.9711 1.92382 3.94733 1.84507 3.92355 1.7684C3.8661 1.58606 3.80268 1.40992 3.75513 1.23379L3.7908 1.32911C3.85024 1.48867 3.89977 1.65237 3.96714 1.81814C3.98294 1.85983 4.0008 1.90063 4.02064 1.94039L4.03649 1.97148V1.98805L4.13753 1.94247C4.15611 1.97753 4.17663 2.01143 4.19896 2.044V2.05643L4.20887 2.07094L4.01073 2.044H3.97704L3.99091 2.03364ZM3.93742 0.838016V0.854593V0.885674L3.91167 0.842158H3.92751L3.93742 0.838016ZM3.60456 1.92174V1.90102L3.59464 1.84508C3.59464 1.80778 3.58078 1.77255 3.57285 1.73525C3.56493 1.69795 3.55502 1.65651 3.54511 1.61921C3.5944 1.73195 3.6493 1.84193 3.70957 1.94868C3.71764 1.96462 3.72692 1.97987 3.73731 1.99427C3.67589 1.98391 3.61446 1.97562 3.55304 1.96319L3.60456 1.92174ZM3.63824 0.637018L3.46586 0.715757C3.46812 0.794229 3.4754 0.872456 3.48766 0.94991C3.48672 0.957476 3.48672 0.965137 3.48766 0.972704C3.45397 0.900179 3.42028 0.827654 3.38264 0.76549C3.36282 0.730263 3.34499 0.692964 3.32122 0.657737L3.28952 0.605934L3.3232 0.59143L3.63824 0.637018ZM3.27168 1.79534V1.7539C3.2728 1.76284 3.2728 1.7719 3.27168 1.78084C3.29323 1.83217 3.3191 1.8814 3.34896 1.92796L3.10724 1.88237L3.27168 1.79534ZM3.32518 0.58314L3.11119 0.668099V0.692966V0.715757H3.09139C3.06363 0.663202 3.03252 0.612665 2.99826 0.564492L2.95467 0.512688L3.32518 0.58314ZM3.12705 0.790354C3.11714 0.769633 3.10526 0.750984 3.09535 0.732334H3.11516L3.12705 0.790354ZM2.94872 0.527195L2.78626 0.618369V0.634944V0.661882C2.76843 0.616295 2.74664 0.57071 2.72484 0.527195L2.69908 0.479533L2.94872 0.527195ZM2.48311 0.448452C2.43358 0.465029 2.46726 0.448452 2.48311 0.448452H2.47321V0.460885V0.523049C2.47226 0.542377 2.47226 0.561742 2.47321 0.581069C2.45537 0.543771 2.43754 0.508543 2.41772 0.473317L2.39395 0.429804L2.48311 0.448452ZM2.43358 1.69174L2.44745 1.71039L2.45735 1.72489L2.63171 1.64822V1.61714C2.63171 1.59849 2.63171 1.57777 2.62181 1.55705C2.6119 1.53633 2.62181 1.51146 2.60992 1.48867C2.63915 1.57371 2.67985 1.65395 2.73078 1.72696L2.75654 1.75805L2.77041 1.77462L2.93683 1.68345V1.61714C2.93683 1.61714 2.93683 1.61714 2.93683 1.60264C2.95604 1.65323 2.97855 1.70239 3.00421 1.74976C3.02895 1.79416 3.05965 1.83463 3.09535 1.86994L3.11318 1.88445H3.08346C2.83183 1.83472 2.5802 1.78706 2.32659 1.74147L2.43358 1.69174ZM2.26715 0.404936L2.19581 0.429804C2.19581 0.450525 2.19581 0.471247 2.19581 0.491969C2.19581 0.510618 2.19581 0.531338 2.19581 0.552059V0.603863C2.1662 0.537231 2.13107 0.473442 2.09081 0.413226L2.05712 0.36971L2.26715 0.404936ZM2.24336 1.72075L2.13637 1.7021L2.21563 1.66066L2.24733 1.71868L2.24336 1.72075ZM1.99569 1.6648L2.00561 1.67723C1.80748 1.64201 1.60934 1.61092 1.41121 1.58398L1.50829 1.54876L1.52018 1.57155L1.60141 1.52804L1.62717 1.56326L1.74209 1.49903C1.75794 1.52597 1.77181 1.5529 1.78964 1.57777L1.80748 1.60471L1.92437 1.55083C1.95805 1.59435 1.97391 1.62336 1.99372 1.65029L1.99569 1.6648ZM1.83323 0.396649H1.84908C1.84908 0.396649 1.84908 0.415299 1.84908 0.423588L1.83323 0.396649ZM1.79954 0.328268L1.9323 0.351061L1.83323 0.396649L1.81936 0.380071L1.7837 0.344845L1.79954 0.328268ZM1.76586 0.328268L1.61131 0.425659C1.5915 0.398721 1.57367 0.373856 1.55187 0.34899L1.52216 0.313764L1.42111 0.371784L1.40724 0.353132L1.31808 0.396649C1.31808 0.375927 1.30025 0.355205 1.28836 0.334484C1.27795 0.312876 1.26602 0.292097 1.25269 0.272319L1.76586 0.328268ZM1.34185 1.56119L1.35374 1.57984H1.31016L1.34185 1.56119ZM1.32006 1.55912L1.34384 1.54461L1.32006 1.55912ZM1.11004 0.216374H1.12193H1.10607H1.11004ZM0.267965 6.19243C0.268765 6.18832 0.268765 6.1841 0.267965 6.17999C0.267965 6.17999 0.285791 6.04945 0.311549 5.86917C0.38684 5.33663 0.468083 4.76058 0.555263 4.15137C0.660274 3.40125 0.769243 2.61177 0.884161 1.79534L0.894065 1.7166H0.905953H0.927757H0.953516H0.995116L1.15759 1.73525C1.46866 1.77255 1.77577 1.81814 2.08287 1.87616C2.38998 1.93418 2.69908 1.99012 3.01016 2.05022C3.32123 2.11031 3.62833 2.16626 3.94138 2.21392L4.64477 2.31338C4.64477 2.31338 5.19756 2.35482 5.17577 2.34653C5.23777 2.35132 5.30002 2.35132 5.36201 2.34653C5.34418 2.45636 5.32635 2.56618 5.3105 2.676C5.28276 2.88322 5.25501 3.09043 5.22727 3.29765C5.17378 3.71207 5.1183 4.1265 5.06678 4.54093C5.01527 4.95536 4.95385 5.34285 4.89837 5.73241C4.8429 6.12197 4.7894 6.4846 4.73788 6.84515L4.63882 6.83272L4.37926 6.79749L3.87402 6.72496C3.54115 6.67523 3.22017 6.62343 2.91306 6.5737L1.23288 6.29603L0.993133 6.25666L0.915869 6.2463C0.915869 6.2463 0.363075 6.19657 0.38487 6.20486C0.325429 6.20486 0.271927 6.20486 0.230319 6.20486C0.241594 6.20006 0.25224 6.1938 0.262015 6.18621L0.267965 6.19243Z" fill="#67BC45"/>
</svg>
