<svg width="6" height="7" viewBox="0 0 6 7" fill="none" xmlns="http://www.w3.org/2000/svg">
<path d="M4.40977 5.49236C4.37411 5.58561 4.32655 5.69957 4.28098 5.79282C4.26913 5.81761 4.25816 5.83942 4.2484 5.85834C4.24617 5.88128 4.24514 5.90437 4.24532 5.92751C4.17854 5.97814 4.19616 5.95963 4.2484 5.85834C4.25297 5.81142 4.26255 5.76511 4.27701 5.7203C4.27107 5.72858 4.30278 5.60841 4.3325 5.47993C4.36222 5.35146 4.39392 5.22091 4.39392 5.22091L4.43156 5.09659C4.4276 5.1028 4.38401 5.01577 4.38401 5.01577L4.36024 4.86657C4.34637 4.83342 4.34637 4.80234 4.34637 4.77333C4.31144 4.78684 4.27569 4.79792 4.23937 4.80649L4.17399 4.81892V4.85414C4.1839 4.92459 4.20172 5.01784 4.20172 5.11109L4.23541 5.47371C4.23541 5.47371 4.22749 5.59389 4.21164 5.68092C4.19579 5.8239 4.14625 5.77832 4.11257 5.69336C4.09843 5.66157 4.08779 5.6282 4.08086 5.5939L4.05312 5.48615C4.05312 5.48615 4.03727 5.30794 4.02142 5.12559C4.01152 5.03649 3.99368 4.94946 3.99368 4.88315C3.99291 4.86797 3.99291 4.85275 3.99368 4.83757H3.97387H3.87679V4.87901C3.89371 4.9678 3.90365 5.0579 3.9065 5.14839V5.40533V5.5193C3.9065 5.5193 3.89066 5.64155 3.87481 5.72651C3.86094 5.86742 3.8114 5.82805 3.77574 5.73895C3.76199 5.70503 3.75202 5.66957 3.74601 5.63327C3.72422 5.57732 3.72422 5.52137 3.72422 5.52137V5.40533V5.15875C3.72105 5.07946 3.71244 5.00052 3.69846 4.92253C3.69274 4.88706 3.68344 4.85233 3.67072 4.81892C3.61921 4.80856 3.5677 4.79405 3.51817 4.77955C3.51926 4.78432 3.51926 4.78928 3.51817 4.79405C3.51817 4.89144 3.53005 4.99712 3.53005 5.09865V5.12559L3.54391 5.29965C3.54391 5.29965 3.56175 5.54002 3.56175 5.79075V5.83427H3.71233H4.01746C4.33447 5.80733 4.21559 5.87571 4.01746 5.93994C3.94004 5.96312 3.86128 5.98112 3.78168 5.99382L3.60535 6.02076H3.5241H3.38739H3.27842C3.09262 6.01077 2.9085 5.97879 2.72958 5.92544C2.68401 5.91301 2.63844 5.8985 2.59485 5.88192L2.46409 5.83012C2.37837 5.79203 2.295 5.74844 2.21444 5.69958C2.13324 5.65147 2.05453 5.5989 1.97865 5.54209C1.90733 5.47786 1.83005 5.42191 1.76467 5.35145C1.4954 5.08423 1.2775 4.76562 1.12271 4.41278C0.971414 4.0567 0.888609 3.67298 0.879009 3.28346V2.99129C0.839433 2.99428 0.799696 2.99428 0.760121 2.99129C0.760121 2.99129 0.668984 2.95606 0.579823 2.92705C0.538914 2.91275 0.497232 2.90099 0.454997 2.89182L0.397543 2.87939C0.395503 2.85803 0.395503 2.83652 0.397543 2.81516C0.353953 2.82137 0.353948 2.77578 0.367818 2.72812C0.372575 2.7036 0.380577 2.67989 0.391593 2.65767L0.419335 2.58308L0.460935 2.51469C0.486693 2.47325 0.522357 2.4173 0.560003 2.36136C0.612574 2.27989 0.675197 2.20604 0.74625 2.14171C0.762823 2.14948 0.777675 2.16077 0.789846 2.17487C0.806292 2.1727 0.822933 2.1727 0.839379 2.17487C0.846193 2.16223 0.856565 2.15209 0.869092 2.14585C0.867111 2.13964 0.94043 2.12514 0.94043 2.12514L1.04148 2.15622C1.05355 2.1132 1.0681 2.07098 1.08506 2.02981L1.12469 1.9345H1.10686C1.11478 1.94278 0.867121 1.88891 0.867121 1.88891L0.668986 1.81431L0.815604 1.55115C0.845985 1.49451 0.877683 1.43856 0.910705 1.38331C0.978425 1.26216 1.06871 1.15647 1.17621 1.07248C1.19571 1.07765 1.21309 1.08928 1.22574 1.10564L1.22641 1.10467C1.22633 1.10222 1.22611 1.09978 1.22574 1.09735V1.08699L1.23536 1.09156L1.24754 1.09735L1.33273 1.12636L1.45954 1.1678C1.48202 1.18809 1.50139 1.21185 1.517 1.23826C1.52245 1.2449 1.5265 1.25266 1.52888 1.26105C1.55068 1.22375 1.57446 1.18853 1.59626 1.1533C1.62843 1.10796 1.66281 1.06439 1.69928 1.02276C1.82971 0.873541 1.97748 0.741972 2.13914 0.631118C2.29872 0.51905 2.46785 0.422635 2.64438 0.343094C2.73355 0.303698 2.82485 0.269791 2.91781 0.241554C2.96338 0.227049 3.01094 0.214618 3.05849 0.204257L3.20114 0.179393C3.38987 0.148692 3.58082 0.135516 3.77177 0.140022C3.96367 0.144816 4.15471 0.168403 4.3424 0.210474C4.52952 0.256247 4.71199 0.320787 4.88727 0.403187C5.06078 0.486932 5.22602 0.588259 5.38063 0.705718L5.41629 0.732657L5.43413 0.747157L5.46979 0.778244L5.54111 0.838332L5.57678 0.871487L5.66 0.962662C5.73192 1.0439 5.79814 1.13047 5.85814 1.22168C6.04636 1.51385 5.9255 1.43097 5.77888 1.28799C5.78482 1.29628 5.69566 1.21132 5.60452 1.12636L5.53319 1.06627V1.46412C5.52262 1.5184 5.50804 1.57175 5.4896 1.62368V1.64232C5.53121 1.60088 5.5748 1.55944 5.61442 1.52421C5.86407 1.29006 5.80464 1.42268 5.68576 1.59881C5.69369 1.59881 5.61839 1.70863 5.54706 1.80602C5.47574 1.90342 5.40638 2.01324 5.40638 2.01324C5.37864 2.05261 5.34893 2.09405 5.32317 2.13342L5.29146 2.18316C5.23789 2.26643 5.19022 2.35369 5.14881 2.44424C5.13641 2.45548 5.12138 2.4631 5.10526 2.46631C5.08914 2.46952 5.0725 2.46822 5.05701 2.46254C5.04153 2.45686 5.02775 2.44701 5.01708 2.43397C5.00641 2.42093 4.99922 2.40517 4.99624 2.3883C5.00021 2.42767 4.99426 2.42767 4.98237 2.42767C4.93181 2.3794 4.88841 2.32353 4.85359 2.26189C4.85557 2.27432 4.79216 2.16865 4.71093 2.07747C4.67393 2.03595 4.63422 1.99717 4.59205 1.96144L4.55044 1.92828L4.53459 1.91585C4.50001 1.88704 4.46361 1.86073 4.42561 1.83711C4.28972 1.75206 4.13744 1.69968 3.97981 1.68377C3.82614 1.6623 3.66978 1.683 3.52609 1.74386C3.44723 1.77791 3.37873 1.83379 3.32795 1.90549L3.35965 1.91792L3.62912 2.0236L4.0135 2.17487C4.0135 2.17487 4.11851 2.23496 4.19578 2.2909H4.24135V2.32406C4.28692 2.3655 4.279 2.39451 4.24135 2.39451V2.40694C4.31268 2.36965 4.32258 2.41938 4.31268 2.47533C4.30117 2.51827 4.28728 2.56048 4.27108 2.60173C4.27108 2.60173 4.21164 2.69497 4.16012 2.78822C4.1382 2.82994 4.11836 2.87282 4.10068 2.91669C4.09448 2.93434 4.08918 2.95232 4.08483 2.97057H4.0135C3.98694 2.97051 3.96066 2.96488 3.93623 2.95399C3.92236 2.97679 3.83914 2.96435 3.72422 2.93534C3.74205 2.94777 3.24869 2.80687 3.24869 2.80687L3.11198 2.75714L3.05651 2.73849L2.76921 2.63696C2.76742 2.65001 2.76742 2.66326 2.76921 2.67632C2.75687 2.71256 2.74824 2.75007 2.74345 2.78822C2.73966 2.8164 2.73966 2.845 2.74345 2.87318L3.00896 2.96642L3.28238 3.06382L3.44287 3.12184C3.44287 3.12184 3.68658 3.22751 3.86292 3.31868H3.90452V3.33941C4.06501 3.42229 4.07294 3.4513 4.00954 3.4513C4.02211 3.46937 4.03273 3.48883 4.04123 3.50932L4.02736 3.5259C4.01356 3.53991 4.00096 3.55517 3.98972 3.57149C3.95999 3.61086 3.92434 3.66888 3.88273 3.72897C3.84112 3.78906 3.80149 3.85123 3.77375 3.89681L3.72025 3.97141C3.6826 4.00639 3.64141 4.03696 3.59741 4.06258C3.57165 4.14754 3.53996 4.13304 3.51618 4.08952C3.51289 4.08953 3.50961 4.08883 3.50659 4.08745C3.50357 4.08608 3.50086 4.08405 3.49862 4.08152C3.49639 4.07899 3.49469 4.076 3.49362 4.07274C3.49255 4.06948 3.49213 4.06602 3.49241 4.06258H3.44484C3.45277 4.0688 3.21898 4.02114 3.21898 4.02114L2.6107 3.80357L2.6325 3.85744C2.6369 3.8662 2.64087 3.87519 2.64438 3.88438V3.90096L2.65627 3.93411L2.68798 3.99835C2.79444 4.19254 2.9519 4.35075 3.1417 4.45422C3.18973 4.48104 3.23937 4.50457 3.29031 4.52467L3.44683 4.58477C3.55135 4.6201 3.65881 4.64508 3.76781 4.65936C3.82037 4.66667 3.8733 4.67082 3.92632 4.67179C3.97714 4.67468 4.02806 4.67468 4.07888 4.67179C4.17604 4.67227 4.27277 4.65832 4.36618 4.63035C4.41613 4.61097 4.46507 4.58884 4.51279 4.56404C4.54251 4.55161 4.55639 4.55161 4.55639 4.56404C4.54735 4.58983 4.53392 4.6137 4.51676 4.6345C4.49241 4.66041 4.46588 4.68399 4.4375 4.70495C4.43552 4.7008 4.45336 4.75883 4.45336 4.82514L4.45342 4.82497C4.48312 4.74836 4.51282 4.67174 4.54846 4.5972C4.59205 4.56819 4.67527 4.55161 4.70301 4.67594V4.69251C4.65942 4.78162 4.62177 4.87694 4.5861 4.97226L4.52073 5.16704L4.47119 5.33281L4.40977 5.49236Z" fill="#6FC070"/>
</svg>
