<svg width="2" height="2" viewBox="0 0 2 2" fill="none" xmlns="http://www.w3.org/2000/svg">
<path d="M1.11118 0.761464C1.05901 0.714212 0.995132 0.683329 0.926914 0.672363C0.926914 0.672363 0.915026 0.672363 0.926914 0.684796C0.960146 0.75531 1.00587 0.818592 1.06165 0.871287C1.08416 0.902686 1.11472 0.926756 1.1498 0.940696C1.18487 0.954635 1.22302 0.957873 1.25979 0.950029C1.26281 0.949222 1.2656 0.947685 1.26795 0.945533C1.27029 0.943382 1.27212 0.940677 1.27328 0.937648C1.27444 0.934618 1.2749 0.931348 1.27462 0.928099C1.27434 0.924849 1.27333 0.921713 1.27167 0.918949C1.23437 0.850908 1.17849 0.796068 1.11118 0.761464Z" fill="black" stroke="#5EBC6D" stroke-width="0.973512" stroke-miterlimit="10"/>
</svg>
