<svg width="8" height="6" viewBox="0 0 8 6" fill="none" xmlns="http://www.w3.org/2000/svg">
<path d="M0.386006 5.37013C0.402807 5.38843 0.423188 5.40271 0.445758 5.41201C0.468328 5.42131 0.49256 5.4254 0.516782 5.424C0.544775 5.41994 0.57062 5.40606 0.59009 5.38463C0.618034 5.34999 0.642592 5.3125 0.663399 5.27274C0.663399 5.27274 0.663399 5.26238 0.663399 5.25823C0.646647 5.10986 0.668555 4.95951 0.726804 4.82308C0.85701 4.4971 1.01068 4.18192 1.18648 3.88026L1.21421 3.83053L1.2479 3.78287L1.32318 3.67512L1.47376 3.4679C1.57679 3.32907 1.69172 3.19853 1.80069 3.05348C2.26032 2.53237 2.79516 2.08979 3.38577 1.74181C3.97344 1.39268 4.60697 1.13575 5.26607 0.97926L5.51373 0.92124L5.76339 0.879798C5.8466 0.869437 5.92982 0.848714 6.01304 0.842498L6.26664 0.819704L6.39147 0.807272H6.42318H6.53612H6.68273L6.81746 0.794839C6.89672 0.784479 7.00371 0.784479 7.10872 0.782407C7.21373 0.780335 7.31874 0.782407 7.39602 0.782407H7.50895C7.85569 0.782407 8.10336 0.734749 7.5367 0.602132L7.40592 0.571048C7.36233 0.560687 7.31478 0.554471 7.26921 0.548254L7.00371 0.508883C6.93802 0.499049 6.87189 0.492824 6.80558 0.490234H6.72434H6.56781H6.36968L6.1022 0.517173C6.01304 0.517173 5.92387 0.531677 5.83471 0.548254L5.56922 0.59177L5.43646 0.614564L5.3057 0.645645C4.60183 0.802787 3.92411 1.06814 3.29462 1.43306C2.66471 1.79893 2.09317 2.26523 1.60057 2.81518C1.48367 2.95815 1.36479 3.09906 1.24987 3.24411L1.08938 3.46997L1.00815 3.58187L0.968523 3.63989L0.956635 3.65647C0.955927 3.66197 0.955927 3.66754 0.956635 3.67304V3.6834L0.93286 3.71241C0.74578 4.03405 0.58219 4.37001 0.443473 4.7174C0.409788 4.8116 0.383931 4.90866 0.366197 5.0075C0.343755 5.11956 0.343755 5.23527 0.366197 5.34733C0.372252 5.35544 0.37887 5.36305 0.386006 5.37013Z" fill="#F16722"/>
</svg>
