<svg width="2" height="2" viewBox="0 0 2 2" fill="none" xmlns="http://www.w3.org/2000/svg">
<path d="M1.2651 0.648308C1.2651 0.648308 1.2651 0.648304 1.2651 0.637943C1.19582 0.552377 1.10082 0.493936 0.995643 0.472174C0.966132 0.466958 0.935991 0.466958 0.90648 0.472174C0.876659 0.47648 0.847811 0.4863 0.821283 0.501181C0.795428 0.513376 0.771405 0.529432 0.749958 0.548843C0.729835 0.567832 0.710649 0.587891 0.692491 0.608936C0.632379 0.691644 0.588608 0.786031 0.563711 0.886602C0.535125 0.982547 0.520426 1.08242 0.520115 1.18292C0.516543 1.29005 0.541229 1.39615 0.591452 1.4896C0.646161 1.58795 0.733641 1.66173 0.837138 1.69681C0.937201 1.72895 1.04418 1.72895 1.14424 1.69681C1.24614 1.66558 1.33574 1.60092 1.39983 1.51239C1.42326 1.47841 1.44257 1.44152 1.4573 1.40256C1.46673 1.37151 1.47336 1.3396 1.47711 1.30725V1.28238C1.47884 1.26101 1.47884 1.23952 1.47711 1.21815C1.46995 1.15699 1.45321 1.09748 1.42758 1.04201C1.39604 0.971238 1.3539 0.906184 1.30275 0.849305C1.27442 0.817272 1.24324 0.788128 1.20963 0.762273C1.22079 0.761742 1.2317 0.758691 1.24162 0.753325C1.25154 0.747959 1.26023 0.740407 1.26709 0.731192C1.27212 0.71795 1.27454 0.703782 1.2742 0.689538C1.27386 0.675294 1.27076 0.66127 1.2651 0.648308ZM1.21954 0.901109C1.26236 0.977147 1.29376 1.05961 1.31265 1.14562C1.3163 1.1752 1.3163 1.20514 1.31265 1.23472V1.26995V1.30103C1.31377 1.31067 1.31377 1.3204 1.31265 1.33004C1.3135 1.34038 1.3135 1.35078 1.31265 1.36112V1.37356C1.31006 1.38016 1.30674 1.38642 1.30275 1.39221C1.2637 1.45537 1.20593 1.50341 1.13829 1.52897C1.07184 1.55827 0.997864 1.56315 0.928417 1.54283C0.85897 1.52251 0.798158 1.47818 0.755896 1.41707C0.716154 1.34999 0.696175 1.27216 0.698441 1.19328C0.697954 1.10776 0.709296 1.02261 0.73212 0.94048C0.751518 0.859702 0.785848 0.783672 0.833171 0.716685C0.843504 0.702111 0.855477 0.688892 0.868834 0.677314C0.880075 0.666484 0.892755 0.65741 0.90648 0.650375C0.931958 0.636125 0.961419 0.631724 0.989693 0.637943C1.05684 0.654486 1.11723 0.69295 1.16208 0.747766C1.16056 0.754582 1.16056 0.761673 1.16208 0.768489C1.15614 0.795427 1.19378 0.836873 1.21954 0.901109Z" fill="#3770B7"/>
</svg>
