<svg width="140" height="144" viewBox="0 0 140 144" fill="none" xmlns="http://www.w3.org/2000/svg">
<path d="M70.8991 1.86429C72.0681 1.86429 73.1876 3.42462 73.9207 4.73421C75.5256 7.59584 77.0472 12.3576 78.4441 18.8849C81.7034 34.1172 82.9001 43.3527 83.8611 50.773C84.4159 55.052 84.8954 58.7466 85.6443 62.7313C86.3585 66.2403 87.4859 69.6432 89.0007 72.862C91.5111 78.0196 94.5049 80.6367 97.9029 80.6367C101.382 80.6367 104.754 77.8932 108.206 72.2487C114.299 62.3024 116.898 51.7345 115.933 40.864L115.921 40.7294L115.892 40.5967C115.892 40.5698 115.878 40.5408 115.872 40.5139C115.699 38.6096 114.287 33.1888 112.079 28.454C108.668 21.1435 104.352 17.281 99.5811 17.281C97.2392 17.281 94.8437 18.2156 92.4483 20.0639C92.873 18.7354 93.5043 17.4892 94.3167 16.3755C96.4962 13.3025 101.78 8.11594 112.846 7.89629C113.011 7.89629 113.171 7.89629 113.338 7.89629C122.133 7.89629 128.693 12.7306 132.836 22.2604C136.939 31.701 137.316 42.7932 137.336 45.9739C137.361 51.2766 137.033 61.8134 134.562 72.7771C131.913 84.5344 127.56 93.656 121.624 99.8931C118.733 102.96 115.29 105.398 111.493 107.067C107.376 108.863 102.731 109.773 97.685 109.773C97.2372 109.773 96.7775 109.773 96.3218 109.752C90.2985 109.562 85.6225 107.68 82.0442 104.008C77.0552 98.8943 74.0217 90.1105 73.0271 77.8994V77.6922C73.0271 73.7904 72.9062 69.8181 72.6724 66.5317C72.0047 57.1366 70.6039 54.6645 69.6093 53.6243C69.329 53.3126 68.9916 53.0631 68.6171 52.8908C68.2427 52.7185 67.8389 52.6269 67.4298 52.6214C66.6329 52.6413 65.8671 52.9488 65.2622 53.4917C61.1548 56.9066 58.6148 69.2399 55.718 85.011C55.0008 88.9149 54.3826 92.2884 53.814 94.7501C53.384 96.6026 52.1377 101.344 49.8196 105.318C47.4261 109.413 44.6364 111.489 41.5256 111.489C39.4294 111.489 37.0894 110.565 34.5731 108.739C31.5555 106.555 28.2744 103.07 24.8189 98.3784L24.6208 98.109L24.3434 97.9287C23.9599 97.6788 23.5191 97.5414 23.0674 97.5309C22.705 97.5282 22.349 97.6308 22.039 97.8273C21.7291 98.0238 21.4774 98.3064 21.3119 98.6436C20.7393 99.8185 20.67 100.944 26.2078 108.928C29.905 114.259 36.7427 120.009 44.5016 124.313C51.4581 128.172 62.6052 132.772 76.2032 132.772C79.9434 132.771 83.6763 132.424 87.3582 131.736C94.2765 130.434 100.967 128.047 107.203 124.655C107.751 125.257 108.497 125.617 109.29 125.662C109.589 125.971 109.944 126.215 110.334 126.379C110.724 126.543 111.142 126.624 111.562 126.618C111.908 126.619 112.251 126.563 112.581 126.454C112.762 126.514 112.947 126.558 113.136 126.584C109.68 129.392 107.255 130.954 107.225 130.973H107.213C107.174 131 103.237 133.578 96.7716 136.118C90.8275 138.452 81.4716 141.234 70.6178 141.234C60.856 141.254 51.2167 138.962 42.4232 134.529C34.7019 130.671 27.9039 125.627 22.1738 119.535C17.5697 114.638 13.6525 109.083 10.5393 103.037C5.18969 92.6531 3.95333 84.2257 3.94144 84.1448V84.0972V84.0537C3.92559 83.9791 2.53865 76.4365 2.68725 66.4881C2.73853 61.0093 3.32273 55.5501 4.43083 50.1949C5.75636 44.0033 7.82686 38.535 10.5889 33.9472C15.3916 25.9716 18.3161 24.7801 19.6298 24.7801C22.6473 24.7801 24.4722 31.4109 24.8387 34.4197C25.235 37.7351 25.447 42.6937 25.6848 47.9487C26.4872 65.8043 27.3709 78.7428 31.4643 82.6052C32.8097 83.8941 34.0678 84.5158 35.2963 84.5158C38.6091 84.5158 39.8672 80.2306 39.9425 76.2272V76.1671C40.0733 74.9052 41.3731 63.094 45.316 48.7195C47.644 40.2383 50.4457 32.4532 53.6376 25.5841C57.5884 17.1049 62.1574 9.99745 67.2237 4.46069C67.933 3.68363 69.6013 1.86637 70.8952 1.86637M70.8952 0.00143999C69.0248 0.00143999 67.3188 1.65915 65.9418 3.17182C43.2217 28.0085 38.3495 74.1198 38.1554 76.0635V76.1899C38.1435 76.8281 37.9334 82.6508 35.2963 82.6508C34.5988 82.6508 33.729 82.2364 32.6492 81.2231C27.2322 76.1194 27.9653 45.9574 26.5942 34.2021C26.2375 31.2721 24.3077 22.9235 19.6159 22.9235C17.0144 22.9235 13.5668 25.4888 9.06719 32.963C-3.55004 53.9227 2.17606 84.4204 2.17606 84.4204C2.17606 84.4204 6.94516 118.806 41.6346 136.224C50.6676 140.781 60.571 143.136 70.5999 143.114C92.2125 143.114 108.148 132.565 108.148 132.565C108.148 132.565 111.887 130.171 116.807 125.882C116.543 125.807 116.307 125.652 116.129 125.436C115.95 125.22 115.837 124.953 115.804 124.67C115.563 124.585 115.351 124.427 115.196 124.216C115.061 124.177 114.934 124.115 114.818 124.034C114.697 124.26 114.518 124.448 114.302 124.575C114.085 124.702 113.839 124.763 113.591 124.753C113.403 124.761 113.216 124.728 113.041 124.657C112.865 124.585 112.706 124.477 112.573 124.338C112.439 124.477 112.28 124.585 112.105 124.656C111.93 124.727 111.742 124.76 111.554 124.753C111.238 124.765 110.927 124.662 110.675 124.46C110.424 124.257 110.249 123.97 110.179 123.646C109.974 123.754 109.747 123.809 109.518 123.806C108.469 123.806 108 122.869 108.107 122.026C101.547 125.85 94.4267 128.51 87.0352 129.9C83.4576 130.571 79.83 130.909 76.1953 130.909C52.5182 130.909 33.735 116.626 27.6364 107.836C22.4591 100.376 22.6176 99.3979 23.0535 99.3979C23.1743 99.4109 23.2907 99.4519 23.3943 99.5181C30.9373 109.738 36.8814 113.341 41.5118 113.341C50.2297 113.341 54.2895 100.558 55.5338 95.1811C57.8718 85.0276 61.1568 59.2667 66.3579 54.9401C66.65 54.6643 67.0231 54.5006 67.4159 54.4759C71.3667 54.4759 71.2399 76.364 71.2399 77.8124V77.9761C73.5343 106.406 86.0762 111.29 96.2643 111.611C96.7399 111.626 97.2154 111.632 97.681 111.632C134.599 111.632 139.206 65.5805 139.117 45.9574C139.052 33.9286 135.352 6.02722 113.336 6.02515H112.811C92.5057 6.42715 88.2755 23.0519 91.2535 23.0519C91.5725 23.0519 91.9747 22.8613 92.4423 22.4303C95.0577 20.095 97.4353 19.1314 99.5752 19.1314C109.266 19.1314 114.1 38.8976 114.1 40.8413C114.121 40.9003 114.138 40.9605 114.152 41.0215C114.631 46.4091 114.83 57.9488 106.7 71.2292C103.344 76.7121 100.405 78.7573 97.897 78.7573C91.6835 78.7573 88.1151 66.2105 87.3958 62.3563C85.3412 51.4465 85.3035 42.3933 80.1837 18.4642C77.075 3.93644 73.7899 -0.0151367 70.8991 -0.0151367L70.8952 0.00143999Z" fill="white"/>
</svg>
