<svg width="3" height="3" viewBox="0 0 3 3" fill="none" xmlns="http://www.w3.org/2000/svg">
<path d="M1.97597 0.601262C1.77783 0.590901 1.54799 0.57847 1.35977 0.563965H1.23098H1.03285H0.834711H0.303711L0.412683 0.66343L0.656391 0.891367L0.717812 0.949386L0.769329 1.00533L0.87434 1.1193L0.925857 1.17525L0.953593 1.21047L0.997183 1.26642L1.0804 1.38039C1.18938 1.5358 1.28844 1.70157 1.38553 1.86942C1.48261 2.03726 1.58366 2.23412 1.7065 2.42061C1.71556 2.4282 1.72556 2.43447 1.73623 2.43926C1.86105 2.48277 1.93436 2.44962 1.96804 2.39989C2.00174 2.35193 2.01917 2.29359 2.01758 2.23411C2.01758 2.21753 2.01758 2.21546 2.01758 2.20925C1.91256 2.0414 1.81944 1.85284 1.70453 1.67049C1.58961 1.48814 1.50639 1.32237 1.37958 1.15245L1.28844 1.02813L1.24089 0.965961L1.229 0.951454V0.941096H1.23891H1.32609L1.51233 0.924522C1.67411 0.911957 1.83494 0.888418 1.9938 0.854063C2.13443 0.835243 2.26957 0.785074 2.39007 0.706943C2.41186 0.621985 2.30685 0.607478 1.97597 0.601262Z" fill="black"/>
</svg>
