<svg width="2" height="3" viewBox="0 0 2 3" fill="none" xmlns="http://www.w3.org/2000/svg">
<path d="M0.920538 1.88809C0.955959 1.9595 1.00288 2.02398 1.05923 2.07873C1.10102 2.129 1.15319 2.16868 1.2118 2.19476C1.23558 2.19476 1.2118 2.14917 1.13254 2.02277C1.08454 1.94884 1.04902 1.86684 1.02754 1.78034C1.02502 1.75 1.02502 1.7195 1.02754 1.68916V1.65394C1.03093 1.60777 1.03822 1.56201 1.04933 1.51718C1.09478 1.36233 1.15589 1.21298 1.23161 1.07167C1.25217 1.03468 1.27536 0.99935 1.30097 0.965986L1.33861 0.926615L1.35842 0.912109L1.38616 0.891392C1.38726 0.887328 1.38726 0.883024 1.38616 0.87896V0.85617C1.3854 0.852762 1.3854 0.849206 1.38616 0.845799C1.38713 0.840319 1.38713 0.83471 1.38616 0.829231C1.39104 0.815887 1.39104 0.801129 1.38616 0.787785L1.37229 0.800218L1.35644 0.81265H1.33861C1.33289 0.810231 1.32649 0.810231 1.32077 0.81265C1.30294 0.81265 1.29502 0.81265 1.28908 0.81265C1.28908 0.81265 1.28908 0.812648 1.28908 0.798143C1.28616 0.788008 1.28616 0.777192 1.28908 0.767056V0.754624L1.30492 0.773279C1.28114 0.744269 1.29106 0.75256 1.28908 0.750488H1.25539L1.22567 0.76913L1.19001 0.798143C1.17002 0.816605 1.15147 0.836695 1.13453 0.858231C1.10239 0.898679 1.07325 0.941627 1.04735 0.986703C0.965207 1.14133 0.898799 1.30455 0.849212 1.47366C0.835505 1.52228 0.826868 1.57229 0.823454 1.62285C0.821218 1.65181 0.821218 1.68093 0.823454 1.70989C0.843988 1.77553 0.877011 1.83615 0.920538 1.88809Z" fill="#D62027"/>
</svg>
