<svg width="1" height="3" viewBox="0 0 1 3" fill="none" xmlns="http://www.w3.org/2000/svg">
<path d="M0.147509 1.71608C0.179027 1.7908 0.220374 1.86055 0.270352 1.9233C0.308366 1.97873 0.36056 2.02181 0.420936 2.04762C0.420936 2.04762 0.420936 2.03519 0.420936 2.00825C0.420936 1.98131 0.383294 1.93988 0.349611 1.87357C0.30915 1.79198 0.277892 1.70575 0.256481 1.61661C0.245956 1.57096 0.238674 1.52456 0.234689 1.47778C0.229843 1.43095 0.229843 1.38371 0.234689 1.33688C0.235731 1.22217 0.264345 1.10958 0.317902 1.00948C0.326668 0.989772 0.337294 0.971039 0.349611 0.953536L0.385274 0.89551C0.393423 0.882226 0.40271 0.869744 0.413015 0.858213C0.442736 0.827131 0.472455 0.806407 0.474437 0.777397C0.47635 0.761886 0.473554 0.746143 0.466443 0.732385C0.459332 0.718627 0.448264 0.707551 0.434807 0.700729C0.432003 0.699414 0.428968 0.69873 0.425895 0.69873C0.422821 0.69873 0.419774 0.699414 0.41697 0.700729C0.395645 0.698664 0.374151 0.701088 0.353735 0.707849C0.333318 0.714611 0.314395 0.725574 0.298094 0.7401C0.275224 0.76134 0.255229 0.785747 0.238656 0.812632L0.20101 0.87272C0.189122 0.891369 0.175252 0.916236 0.163364 0.93903C0.0963164 1.06594 0.0608813 1.20846 0.0603296 1.35346C0.0563875 1.4031 0.0563875 1.453 0.0603296 1.50265C0.0815263 1.57703 0.110776 1.64864 0.147509 1.71608Z" fill="#D62027"/>
</svg>
