<svg width="9" height="10" viewBox="0 0 9 10" fill="none" xmlns="http://www.w3.org/2000/svg">
<path d="M0.296945 6.50149C0.31874 6.52843 0.340528 6.55329 0.364304 6.57816C0.453465 6.67762 0.546591 6.77294 0.639714 6.86412C0.732838 6.95529 0.822006 7.04853 0.907204 7.14593C0.992402 7.24332 1.07958 7.3407 1.16676 7.43602C1.51151 7.82282 1.85429 8.2034 2.19508 8.57777C2.53389 8.94868 2.8727 9.31132 3.20556 9.66151C3.24717 9.70502 3.2868 9.7506 3.33237 9.79412C3.37798 9.84244 3.43003 9.88363 3.48691 9.91638C3.50078 9.91638 3.52059 9.9288 3.53644 9.93709L3.58994 9.94745C3.62526 9.95143 3.66097 9.94791 3.69495 9.93709C3.75434 9.91766 3.80906 9.88517 3.85544 9.84178C4.02385 9.68637 4.18038 9.53718 4.33889 9.38591L4.80649 8.94662L5.25428 8.51146L6.10824 7.69711L7.77257 6.02489L7.90136 5.89642L7.97268 5.82597C8.11534 5.68507 8.258 5.53587 8.39868 5.38046C8.46406 5.30586 8.54331 5.23956 8.6186 5.15253C8.65922 5.10772 8.69087 5.05488 8.71172 4.99712C8.73593 4.93036 8.73593 4.85665 8.71172 4.7899C8.70566 4.77344 8.69837 4.7575 8.68993 4.74223C8.68993 4.72773 8.67408 4.71116 8.66615 4.69873L8.63643 4.65936L8.61067 4.6262C8.57303 4.58061 8.53736 4.53503 8.49972 4.49151C8.42443 4.40034 8.34914 4.3133 8.26989 4.22627L7.79634 3.69788C7.63783 3.52175 7.48328 3.33318 7.3228 3.14876C7.16231 2.96434 6.99785 2.77578 6.82746 2.59343C6.74226 2.50226 6.6531 2.41108 6.5679 2.32198L6.30638 2.04846L6.04879 1.76872L5.92199 1.62574C5.88038 1.57808 5.84076 1.53042 5.79915 1.47862C5.71792 1.37916 5.63668 1.2714 5.54752 1.17816C5.50145 1.12873 5.45249 1.08237 5.4009 1.03933C5.37514 1.01678 5.34799 0.996016 5.31966 0.977158C5.29042 0.955983 5.25923 0.937938 5.22654 0.923286C5.15817 0.894117 5.08336 0.885499 5.01057 0.898415C4.94405 0.913542 4.88086 0.941668 4.82432 0.981306C4.77127 1.01806 4.72093 1.05892 4.67373 1.10356L4.539 1.23203C4.3587 1.40195 4.17642 1.57186 3.9981 1.74799L3.73259 2.01944L3.47502 2.29918C3.32048 2.46496 3.15999 2.62659 2.99554 2.78821H2.95591C2.95065 2.79421 2.9466 2.80125 2.94402 2.80893C2.941 2.81834 2.941 2.82853 2.94402 2.83794L2.42094 3.34355C2.23668 3.52175 2.06034 3.70617 1.88004 3.88023C1.60067 4.15375 1.31139 4.42106 1.034 4.70909C1.02996 4.71484 1.02664 4.72111 1.0241 4.72774C0.952768 4.80234 0.879455 4.87693 0.810107 4.95152L0.292979 5.50479C0.271184 5.52759 0.249386 5.55244 0.227591 5.57316C0.205796 5.59389 0.18401 5.61876 0.162215 5.6457C0.114001 5.69776 0.0768656 5.75991 0.0532433 5.82805C0.0269644 5.90069 0.0187714 5.97912 0.029456 6.05598C0.0474151 6.13186 0.0812507 6.20263 0.128523 6.26319C0.171591 6.31668 0.217221 6.36786 0.265237 6.41653L0.296945 6.50149ZM0.471305 6.50149C0.441584 6.47041 0.413847 6.43725 0.386108 6.4041L0.302883 6.31085L0.396013 6.33365C0.564302 6.38209 0.729704 6.4409 0.891349 6.50978L0.980512 6.545L1.14298 6.5968C1.22422 6.62167 1.30347 6.64447 1.29752 6.64032H1.32725L1.52538 6.85997C1.43622 6.81231 1.35498 6.77294 1.35498 6.77294L1.2361 6.74186C1.05184 6.6714 0.865588 6.6051 0.67736 6.54915C0.611976 6.5305 0.546592 6.51185 0.479226 6.49734L0.471305 6.50149ZM0.776428 6.80194H0.756619L0.613956 6.6569L0.653585 6.66726C0.837851 6.72321 1.02212 6.78537 1.20242 6.85582L1.29356 6.89104L1.45405 6.94285C1.5333 6.96978 1.61256 6.99466 1.60661 6.99051H1.63237C1.70568 7.0734 1.77899 7.15628 1.85031 7.24124C1.76314 7.19565 1.68389 7.16043 1.68389 7.16043L1.57689 7.12106C1.36885 7.04646 1.16279 6.97186 0.964658 6.88068L0.786332 6.78744L0.776428 6.80194ZM1.06174 7.12313L0.978529 7.02989C1.17666 7.11484 1.36093 7.18322 1.55114 7.25367L1.64228 7.28683L1.80276 7.33448C1.88202 7.35935 1.95929 7.3863 1.95335 7.38215H1.97712L2.15743 7.58937C2.04252 7.5272 1.88796 7.45675 1.88796 7.45675L1.78296 7.4153C1.6086 7.34485 1.43622 7.27232 1.26384 7.19565C1.20242 7.16872 1.141 7.14178 1.07958 7.1107L1.06174 7.12313ZM5.88435 2.80479L6.06861 3.00164L6.48667 3.45129C6.7601 3.75175 7.02758 4.05221 7.27921 4.35682C7.34063 4.43349 7.408 4.5143 7.47735 4.58476C7.54213 4.64921 7.60238 4.71847 7.65764 4.79198C7.67976 4.82064 7.69418 4.85494 7.6994 4.89136C7.70463 4.92778 7.70047 4.965 7.68737 4.99919C7.65374 5.07766 7.60521 5.14816 7.54472 5.2064C7.28714 5.45713 7.02956 5.69542 6.78586 5.93579C6.665 6.05805 6.55007 6.18238 6.43516 6.30256C6.32024 6.42275 6.2073 6.53671 6.09239 6.65068C5.86255 6.87654 5.64658 7.10033 5.43259 7.30547L4.10113 8.62957L3.99018 8.75183C3.95273 8.78722 3.91701 8.82456 3.88318 8.86373L3.86931 8.87823L3.84355 8.90517C3.83363 8.89984 3.82291 8.89634 3.81185 8.89481L3.77421 8.91346C3.73962 8.92477 3.70342 8.92968 3.66722 8.92796H3.64938H3.59985C3.56742 8.9187 3.53663 8.90401 3.5087 8.88445L3.41558 8.80985C3.35416 8.75597 3.29473 8.69796 3.23529 8.6358C3.11641 8.51561 3.00941 8.37885 2.88855 8.24623C2.76769 8.11361 2.65079 7.97271 2.52993 7.8318C2.28622 7.55828 2.04052 7.27232 1.78889 6.98222L1.39262 6.54292C1.32724 6.4704 1.25987 6.39788 1.19449 6.32328C1.1291 6.24868 1.05778 6.17823 0.996355 6.10571C0.935086 6.04979 0.897363 5.97087 0.891349 5.88606C0.904667 5.80147 0.942738 5.72328 1.00032 5.66227C1.06204 5.59269 1.12824 5.52761 1.19846 5.46748C1.23412 5.4364 1.27176 5.40118 1.30544 5.36595L1.40649 5.26442C1.6819 4.99504 1.97118 4.73188 2.25253 4.45628C2.53389 4.18069 2.81128 3.89473 3.09659 3.62743L3.52852 3.213L3.95847 2.79857C4.10113 2.65974 4.24378 2.5209 4.38842 2.38414L4.60439 2.17693C4.67572 2.10855 4.74507 2.04017 4.82036 1.96971C4.89566 1.89926 4.965 1.85782 5.0185 1.88683C5.05758 1.90567 5.09313 1.93163 5.1235 1.9635C5.15917 1.99665 5.19286 2.03395 5.22852 2.07332C5.3692 2.22666 5.50591 2.38622 5.6446 2.54163C5.71197 2.6183 5.78131 2.69497 5.84273 2.76749C5.85271 2.78401 5.86721 2.797 5.88435 2.80479ZM1.34112 7.44431L1.24007 7.33241C1.4065 7.40493 1.57293 7.47539 1.73936 7.53962L1.83051 7.57486L1.99099 7.62666L2.14356 7.67017L2.23074 7.68883C2.28028 7.74685 2.33179 7.80279 2.38133 7.85874L2.41699 7.90225L2.38925 7.88568C2.27235 7.82144 2.10195 7.74063 2.10195 7.74063L1.99694 7.69918L1.53132 7.51683L1.34112 7.44431ZM1.59671 7.72405C1.57293 7.69711 1.54915 7.67224 1.52735 7.64531L1.96524 7.8173L2.05638 7.85252C2.05638 7.85252 2.38131 7.95821 2.36943 7.94992C2.40692 7.96145 2.44542 7.96908 2.48435 7.97271C2.54379 8.04316 2.60522 8.10947 2.66267 8.17992C2.55964 8.11776 2.44472 8.05766 2.44472 8.05766L2.33971 8.01208C2.16139 7.93541 1.98307 7.86288 1.80276 7.79243L1.60463 7.72197L1.59671 7.72405ZM1.75918 7.91055C1.9375 7.97893 2.11582 8.05145 2.29216 8.11776L2.38133 8.15506L2.54182 8.21514L2.69042 8.26902L2.76373 8.29181L2.94402 8.49903L2.8291 8.43687L2.72608 8.39128L2.41699 8.26281C2.31396 8.22344 2.21885 8.18406 2.11185 8.13848C2.05287 8.11197 1.99591 8.0808 1.94146 8.04523H1.93156C1.9183 8.04651 1.90547 8.05075 1.89391 8.05766L1.75918 7.91055ZM2.19111 8.38921C2.15545 8.34777 2.11781 8.30839 2.08214 8.26902C2.18319 8.31461 2.28027 8.35397 2.38528 8.39335C2.49029 8.43272 2.58342 8.47417 2.69042 8.51768L2.77957 8.55705L2.93808 8.61714L3.08669 8.66687V8.6793C3.14811 8.74354 3.20953 8.80571 3.27293 8.8658L3.17188 8.81814C2.91629 8.70003 2.66465 8.56534 2.40114 8.45345C2.33773 8.42651 2.27235 8.40165 2.203 8.37885C2.203 8.37885 2.19309 8.37885 2.19111 8.37885V8.38921ZM3.65335 9.80862C3.63243 9.81461 3.61056 9.81604 3.58908 9.81283C3.56761 9.80963 3.547 9.80185 3.52852 9.78998C3.4821 9.76139 3.43947 9.72656 3.40171 9.68637L3.33039 9.61384L3.3819 9.63663C3.48493 9.68222 3.58004 9.7361 3.58004 9.7361C3.58004 9.7361 3.71278 9.78169 3.70882 9.77755C3.69218 9.79332 3.67351 9.80658 3.65335 9.81692V9.80862ZM3.77817 9.73195H3.76827L3.74448 9.70709C3.71204 9.67506 3.67763 9.6453 3.64146 9.61799C3.64146 9.61799 3.53645 9.56204 3.42747 9.51231L3.2749 9.44807L3.2016 9.42113L3.18772 9.44392L3.06093 9.30924H3.07281L3.27095 9.38591L3.3601 9.42942L3.45323 9.47294L3.54239 9.51645C3.54239 9.51645 3.86337 9.64492 3.85148 9.63663H3.87129L3.77817 9.73195ZM3.903 9.61591L3.86337 9.59105C3.75043 9.51645 3.58598 9.42528 3.58598 9.42528L3.48296 9.37555L3.39181 9.33203C3.36011 9.31753 3.32841 9.29888 3.29472 9.28645C3.26104 9.27402 3.16594 9.23257 3.09659 9.20771C3.03634 9.18443 2.97803 9.15601 2.92223 9.12274C2.90835 9.12404 2.89487 9.12827 2.8826 9.13518L2.65871 8.89481C2.68911 8.90617 2.71888 8.91931 2.74787 8.93418C2.81524 8.96527 2.88458 9.00257 2.94601 9.03987L3.05498 9.08959L3.15999 9.13725L3.57806 9.34446L3.66722 9.38798L3.82771 9.45014L3.97829 9.50402H4.00999L3.903 9.61591ZM4.05952 9.46673L4.00999 9.43771L3.73259 9.27608L3.62957 9.22842L3.20953 9.02121L3.10253 8.97148C3.06686 8.9549 3.03319 8.9404 2.99951 8.92175L2.78948 8.81607C2.72566 8.78408 2.65938 8.75774 2.59135 8.73733H2.58143C2.56691 8.74384 2.55451 8.75465 2.54577 8.76842L2.50417 8.72282C2.45265 8.66895 2.40312 8.613 2.3516 8.55705H2.37339C2.62701 8.66273 2.87269 8.79327 3.1263 8.91346C3.18971 8.94454 3.25707 8.97356 3.32444 9.00049L3.5087 9.09167L3.70684 9.18698L3.82771 9.24708C3.82771 9.24708 3.90894 9.28023 3.99018 9.30717C4.04146 9.32555 4.09372 9.34076 4.1467 9.35275H4.18038L4.05952 9.46673ZM4.20812 9.32788L4.14868 9.30094L3.96442 9.20771L3.86734 9.15383L3.81384 9.12897L3.75637 9.09995L3.70486 9.07301C3.74069 9.07193 3.77613 9.06494 3.80987 9.0523C3.82912 9.04599 3.84771 9.03766 3.86535 9.02743H3.88318C3.91686 9.04608 3.96243 9.0668 4.008 9.08752L4.18633 9.16419L4.24379 9.17662L4.2953 9.18905C4.34285 9.18905 4.38248 9.18905 4.32304 9.12482C4.29483 9.09719 4.26432 9.07223 4.2319 9.05022L4.0516 8.97148L3.94262 8.92175L4.01197 8.87408C4.03298 8.88618 4.05484 8.89657 4.07736 8.90517C4.11699 8.92382 4.1685 8.94661 4.22001 8.96526L4.36069 9.02121L4.42211 9.04607L4.48353 9.06058L4.20812 9.32788ZM4.55288 9.00256C4.51325 8.9694 4.46768 8.93832 4.46768 8.93832L4.40229 8.91138L4.25964 8.85752L4.12293 8.79949L4.17246 8.76012L4.34087 8.82228L4.539 8.89481L4.60043 8.90932H4.64601L4.55288 9.00256ZM4.68959 8.86995L4.67572 8.85544C4.64482 8.82701 4.61168 8.80136 4.57665 8.77877L4.37852 8.70211L4.27153 8.66273L4.2854 8.6503L4.32898 8.66687L4.47165 8.71661C4.57468 8.74977 4.66978 8.78706 4.66978 8.78706L4.7312 8.79949H4.75498L4.68959 8.86995ZM4.82036 8.74769C4.78716 8.71857 4.75132 8.69289 4.71336 8.67102L4.64798 8.64823L4.50533 8.5985L4.38248 8.55498L4.40824 8.52804L4.43994 8.49695L4.48749 8.51768L4.62618 8.57156L4.82432 8.6358L4.88376 8.64615H4.92339L4.82036 8.74769ZM4.97292 8.60056L4.95905 8.58607C4.92675 8.55947 4.89228 8.53589 4.85603 8.51561L4.65789 8.4493L4.53505 8.40372L4.60836 8.33741L4.96302 8.45966C4.96302 8.45966 5.07595 8.47831 5.07199 8.47416C5.08442 8.47668 5.0972 8.47668 5.10963 8.47416L4.97292 8.60056ZM5.1235 8.45552C5.1235 8.45552 5.12351 8.42857 5.09181 8.40785C5.06239 8.38335 5.03126 8.36119 4.99868 8.34154L4.70743 8.24001L4.7728 8.17577V8.20064L4.83422 8.21307C4.87912 8.2237 4.92344 8.23684 4.96698 8.25244C5.06011 8.28767 5.16512 8.33118 5.16512 8.33118L5.23446 8.34984L5.1235 8.45552ZM5.29786 8.28768C5.26022 8.25452 5.21068 8.21929 5.21068 8.21929L5.14926 8.19235C5.11162 8.17578 5.06208 8.15505 5.01057 8.1364C4.96203 8.11785 4.91239 8.10262 4.86197 8.09082C4.88376 8.0701 4.90357 8.04938 4.92339 8.02659C4.96301 8.04731 5.01057 8.0701 5.0601 8.09082L5.20276 8.14883L5.26617 8.1737L5.32956 8.18821L5.38901 8.20064L5.29786 8.28768ZM5.43259 8.15921C5.42484 8.15214 5.41756 8.14451 5.4108 8.1364C5.3774 8.10695 5.3416 8.0806 5.30381 8.05766L5.23843 8.03279C5.20078 8.01622 5.14728 7.99758 5.09775 7.97478L5.00858 7.93541C5.03236 7.91054 5.05416 7.88567 5.07794 7.86288L5.12549 7.87738C5.16313 7.88982 5.21465 7.90847 5.26418 7.92919C5.36523 7.97063 5.46232 8.01829 5.46232 8.01829L5.55148 8.04523L5.43259 8.15921ZM5.61092 7.98929C5.57955 7.95957 5.54646 7.93188 5.51185 7.9064C5.51185 7.9064 5.4108 7.85666 5.31372 7.81315C5.26617 7.7945 5.22059 7.77585 5.18096 7.76342L5.24833 7.69297C5.24776 7.70125 5.24776 7.70956 5.24833 7.71784H5.3157C5.36466 7.72865 5.41295 7.74248 5.46034 7.75927L5.60299 7.81522L5.66838 7.84216L5.7298 7.85874L5.61092 7.98929ZM5.80906 7.80279C5.76943 7.77171 5.72386 7.74063 5.72386 7.74063L5.65649 7.71162C5.61686 7.69504 5.56138 7.67225 5.50392 7.6536C5.45133 7.63456 5.39775 7.61864 5.34343 7.60593H5.33353L5.4108 7.53134H5.42467C5.47087 7.56028 5.51924 7.58522 5.56931 7.60593C5.61593 7.62649 5.66355 7.64448 5.71197 7.65981L5.77339 7.6826L5.83678 7.69503C5.85609 7.70116 5.87608 7.70465 5.89623 7.70541L5.80906 7.80279ZM5.94379 7.67432L5.92001 7.65153C5.8868 7.62241 5.85096 7.59674 5.81301 7.57486L5.74962 7.55206C5.70999 7.53755 5.65847 7.51891 5.61092 7.49819C5.57354 7.48267 5.53715 7.46467 5.50195 7.44431L5.57129 7.37593L5.61487 7.39251L5.7615 7.45052L5.9735 7.52513C5.9735 7.52513 6.04285 7.53963 6.0805 7.54377L5.94379 7.67432ZM6.14192 7.49197H6.13003C6.09504 7.464 6.05794 7.43905 6.01908 7.41738L5.80707 7.34278L5.6763 7.29098L5.73772 7.23088L5.77933 7.25782C5.82276 7.28073 5.8678 7.30013 5.91406 7.31584C6.01115 7.35314 6.1122 7.38008 6.1122 7.38008C6.1122 7.38008 6.23108 7.39665 6.22712 7.39251C6.24156 7.39481 6.25625 7.39481 6.2707 7.39251L6.14192 7.49197ZM6.31826 7.32413L6.27467 7.36557C6.27467 7.36557 6.27467 7.34071 6.239 7.31584C6.20783 7.29146 6.17468 7.26997 6.13994 7.25161C6.13994 7.25161 6.04285 7.2226 5.9418 7.18737C5.90042 7.17305 5.86003 7.15574 5.82094 7.13557L5.88435 7.07133C5.8837 7.0803 5.8837 7.08929 5.88435 7.09826C5.90447 7.10159 5.92433 7.10644 5.94379 7.11276C5.98671 7.12347 6.02904 7.13662 6.07059 7.15213C6.16174 7.18322 6.25287 7.22467 6.25287 7.22467C6.25287 7.22467 6.36978 7.25368 6.3678 7.24953H6.3777L6.31826 7.32413ZM6.42724 7.21431C6.42046 7.20429 6.41247 7.19523 6.40346 7.18737C6.37473 7.15949 6.34355 7.13451 6.31033 7.11276C6.31033 7.11276 6.21721 7.06925 6.1122 7.03402C6.06266 7.01744 6.01313 7.00087 5.9735 6.99051L5.9953 6.96979L6.03295 6.93041V6.94285H6.05276C6.06726 6.94154 6.08185 6.94154 6.09635 6.94285C6.14314 6.94477 6.18961 6.95172 6.23504 6.96358C6.28655 6.97601 6.33807 6.99466 6.3777 7.0071L6.44309 7.03196L6.50846 7.04645H6.57187L6.42724 7.21431ZM6.62537 7.0071C6.61704 6.99713 6.60774 6.9881 6.59763 6.98016C6.5621 6.95299 6.52505 6.92807 6.48667 6.90555L6.4193 6.87861C6.37769 6.86411 6.32222 6.84546 6.26278 6.83096C6.22369 6.82054 6.18398 6.81293 6.1439 6.80817L6.22315 6.72735L6.27467 6.75429C6.3244 6.77612 6.37535 6.79481 6.42724 6.81024C6.48271 6.82682 6.53621 6.83925 6.57782 6.84754L6.64518 6.86204H6.76407L6.62537 7.0071ZM6.8235 6.81645C6.81443 6.80888 6.80443 6.80262 6.79378 6.79781C6.75723 6.77487 6.71877 6.75544 6.67886 6.73978L6.58574 6.74186C6.54413 6.74186 6.49262 6.72114 6.43912 6.70456C6.39245 6.69149 6.34676 6.67487 6.30241 6.65483L6.33015 6.62789L6.35986 6.59888C6.37773 6.6098 6.39627 6.61949 6.41535 6.62789C6.46693 6.6491 6.5199 6.66641 6.57385 6.67969L6.72642 6.71699L6.79576 6.7315H6.86313H6.89681L6.8235 6.81645ZM6.97606 6.66104H6.96022C6.92244 6.63666 6.88264 6.61586 6.84133 6.59888L6.77199 6.58437L6.6214 6.54707C6.57279 6.53488 6.52512 6.51895 6.47875 6.49942L6.53819 6.43726L6.59169 6.45797L6.7165 6.49734L6.89086 6.54292H6.94635H6.99588C7.03947 6.54292 7.07514 6.52427 7.01173 6.47661C6.98286 6.4537 6.95162 6.43425 6.91861 6.4186L6.74425 6.37095L6.63131 6.33571L6.69471 6.2694L6.7601 6.29841L6.90078 6.34814C7.00183 6.38337 7.09891 6.40824 7.09891 6.40824H7.16231H7.22968L6.97606 6.66104ZM7.26534 6.36887C7.25499 6.35642 7.24214 6.34651 7.22769 6.33986C7.19381 6.31838 7.15875 6.29902 7.12269 6.28185C7.12269 6.28185 7.02164 6.25697 6.92456 6.22382C6.87502 6.20931 6.82747 6.19067 6.78982 6.17616H6.77595L6.82152 6.1285L6.89285 6.1513L7.04541 6.20103L7.26534 6.27355H7.33667H7.3545L7.26534 6.36887ZM7.41791 6.21346C7.37036 6.18238 7.301 6.14715 7.301 6.14715C7.301 6.14715 7.19203 6.114 7.08108 6.07463L6.92456 6.02283L7.01371 5.93371C7.01371 5.93371 7.01371 5.9503 7.01371 5.95652L7.08504 5.97723C7.12665 5.98967 7.18015 6.00625 7.23364 6.01868L7.44762 6.07048H7.54669L7.41791 6.21346ZM7.60614 6.02283L7.59028 6.01246C7.55335 5.98967 7.51495 5.9696 7.47536 5.95237L7.2594 5.90057L7.11476 5.8612H7.09296L7.12863 5.82805C7.15172 5.82661 7.17489 5.82661 7.19798 5.82805C7.25001 5.82983 7.30175 5.83677 7.35252 5.84876C7.40998 5.84876 7.46545 5.8757 7.50904 5.88813L7.58236 5.90885L7.65369 5.91922H7.69926L7.60614 6.02283ZM7.97665 5.65813L7.85381 5.78245L7.7805 5.85291L7.76663 5.86534L7.74482 5.85291C7.69529 5.82183 7.62198 5.7866 7.62198 5.7866L7.54867 5.76587C7.5031 5.75344 7.44367 5.7348 7.38026 5.72237C7.33777 5.71274 7.29476 5.70581 7.25147 5.70164L7.29902 5.65606L7.35054 5.67264C7.39016 5.68714 7.44169 5.70164 7.4932 5.71614L7.69134 5.77002H7.81219C7.86371 5.77002 7.90136 5.7493 7.82805 5.70164C7.79316 5.67828 7.75674 5.65751 7.71907 5.63947L7.52093 5.58767L7.40205 5.55037L7.46546 5.49029H7.49518L7.63387 5.52551C7.6834 5.53794 7.73096 5.55037 7.76663 5.56281L7.82607 5.57939L7.8855 5.58975H7.94296C7.99051 5.58975 8.03213 5.58974 7.96476 5.52344C7.93246 5.49684 7.89798 5.47327 7.86173 5.45299L7.79832 5.43226L7.65764 5.39496L7.57245 5.37217L7.6418 5.30379H7.68935C7.72898 5.30379 7.78446 5.32658 7.83795 5.34316L7.99052 5.39289L8.05986 5.41568L8.13119 5.42811H8.16883L7.97665 5.65813ZM8.29564 5.32451L8.22234 5.40325H8.20846C8.1713 5.37842 8.13294 5.35561 8.09354 5.33488L8.0242 5.31207C7.98259 5.29757 7.92513 5.27685 7.86767 5.26027C7.82604 5.24614 7.78371 5.23439 7.74087 5.22505C7.76512 5.19688 7.78577 5.16553 7.80229 5.1318H7.82607C7.8821 5.13757 7.9377 5.14727 7.99249 5.16081C8.05391 5.17532 8.11534 5.19396 8.16091 5.20847L8.23621 5.23127H8.31347H8.36895C8.31942 5.29136 8.29564 5.31207 8.27187 5.33901L8.29564 5.32451ZM8.42245 5.18982L8.40065 5.17739C8.35825 5.15157 8.31461 5.12805 8.26989 5.10693L8.19261 5.08414L8.01627 5.03441C7.9607 5.02092 7.90449 5.01054 7.84786 5.00333C7.84992 4.98821 7.84992 4.97286 7.84786 4.95774H7.88352H7.90928L8.00835 4.97846L8.08562 4.99504L8.18072 5.01368L8.34914 5.03234C8.40194 5.03525 8.45485 5.03525 8.50765 5.03234H8.5651C8.5017 5.10486 8.45019 5.15253 8.39868 5.20433L8.42245 5.18982ZM8.64436 4.86035C8.64649 4.90357 8.63385 4.94617 8.6087 4.98054L8.5235 4.95982C8.39868 4.93081 8.22035 4.88315 8.22035 4.88315L8.11138 4.86242L8.03411 4.84584L7.93702 4.82512H7.91126H7.88352C7.86905 4.8271 7.85441 4.8271 7.83994 4.82512C7.83057 4.80309 7.81998 4.78164 7.80823 4.76089L7.88947 4.77954C7.98066 4.79558 8.07258 4.80664 8.16487 4.81269H8.25998H8.64436C8.63975 4.83529 8.63172 4.85697 8.62059 4.87693L8.64436 4.86035ZM8.48783 4.6034L8.54133 4.66971C8.55919 4.69068 8.57574 4.71283 8.59086 4.73602V4.74846H8.56709C8.5017 4.73395 8.42443 4.71945 8.36895 4.71116L8.26196 4.69458H8.15101C8.06267 4.68957 7.97468 4.6792 7.88749 4.6635C7.8257 4.65243 7.76523 4.63437 7.70718 4.60962H7.68935C7.66161 4.57647 7.63189 4.54538 7.60217 4.51223H7.6319C7.75696 4.53683 7.88334 4.55344 8.01033 4.56197H8.10543H8.27187H8.42641H8.47199C8.46581 4.57988 8.46311 4.5989 8.46405 4.61791L8.48783 4.6034ZM8.3749 4.47079L8.40263 4.50187L8.22432 4.46457L8.11732 4.44799H8.00636C7.88478 4.43781 7.76377 4.42121 7.64379 4.39826C7.58038 4.38376 7.51698 4.36718 7.44565 4.34646L7.37036 4.25321V4.22835C7.36947 4.22286 7.36947 4.21726 7.37036 4.21177V4.25529H7.47735L7.78445 4.29052L7.87957 4.30087L8.04599 4.31331H8.20054H8.24413L8.3749 4.47079ZM8.14308 4.20556L8.17874 4.24493C8.05788 4.21177 7.91126 4.18276 7.91126 4.18276L7.80031 4.16825L7.49122 4.13303H7.39017H7.2911H7.2812L7.18014 4.04807H7.31487C7.3862 4.04807 7.45952 4.06465 7.53283 4.07501L7.62595 4.08952L7.79436 4.10402H7.95089C7.98259 4.10402 8.01033 4.10402 8.03411 4.10402C8.05986 4.15582 8.09156 4.18897 8.1193 4.22006L8.14308 4.20556ZM8.00043 4.04807H7.9806L7.67548 3.97348L7.56453 3.9569C7.49122 3.94446 7.41592 3.93411 7.33865 3.92789C7.26138 3.92167 7.20392 3.91753 7.14052 3.91753L7.12466 3.93411L7.03749 3.83257H7.13458L7.43376 3.85951L7.52886 3.86987H7.69529C7.74742 3.87295 7.79969 3.87295 7.85182 3.86987H7.86767L8.00043 4.04807ZM7.7805 3.80149C7.66558 3.77662 7.53877 3.75383 7.53877 3.75383L7.42781 3.74139C7.32875 3.72896 7.22967 3.72067 7.12466 3.71239H7.02362C6.99484 3.71189 6.96623 3.70772 6.93843 3.69995L6.92059 3.71239L6.83341 3.61292L6.89483 3.6295C6.99081 3.65347 7.08807 3.67146 7.18609 3.68337L7.2812 3.69374H7.4496H7.57641H7.66359C7.69133 3.74554 7.72501 3.78077 7.75671 3.81599L7.7805 3.80149ZM7.49518 3.47823C7.54274 3.53004 7.5883 3.58391 7.63387 3.63779H7.60416L7.40602 3.59635L7.301 3.5777L7.19203 3.56319C7.09811 3.55199 7.00485 3.53539 6.91267 3.51346C6.8503 3.49756 6.78878 3.47819 6.72839 3.45544H6.71849L6.69471 3.46788L6.58177 3.34355H6.66697C6.69886 3.34473 6.73064 3.34819 6.76208 3.3539L6.86313 3.37255L7.06127 3.41814L7.15637 3.43886L7.3228 3.46373C7.37522 3.47237 7.42824 3.47653 7.48131 3.47616L7.49518 3.47823ZM7.41791 3.38706L7.18807 3.31868L7.07909 3.29381L6.88096 3.24823L6.77793 3.22957C6.74205 3.22156 6.7056 3.21671 6.66895 3.21507C6.60596 3.21483 6.54307 3.20998 6.48072 3.20057H6.47082C6.42723 3.15084 6.38166 3.10317 6.33807 3.05551H6.40741C6.54215 3.07416 6.67886 3.09696 6.81557 3.12182L6.9087 3.14047C6.9087 3.14047 7.24355 3.18399 7.22968 3.17777H7.26732C7.28516 3.27309 7.34064 3.33733 7.39413 3.40157L7.41791 3.38706ZM7.02164 2.93948L7.17024 3.10732C7.05334 3.07002 6.91662 3.03272 6.91662 3.03272L6.80765 3.012C6.66896 2.98714 6.53225 2.96227 6.39356 2.94569C6.32619 2.93533 6.2608 2.92912 6.19542 2.9229L6.11418 2.83587L6.55206 2.89804L6.64518 2.91254C6.64518 2.91254 6.98201 2.93948 6.96814 2.93326L7.02164 2.93948ZM6.80368 2.69704L6.95427 2.86281C6.82944 2.82758 6.67094 2.79236 6.67094 2.79236L6.55998 2.77785L6.1221 2.71361L6.02303 2.69911H5.99134H5.96558H5.95369L5.89623 2.63694L5.83085 2.56649H5.87048C6.027 2.58514 6.18551 2.61415 6.34204 2.6473L6.43714 2.66595L6.60358 2.68875C6.68679 2.68875 6.76803 2.70533 6.7601 2.70325L6.80368 2.69704ZM6.55602 2.43595L6.67292 2.55613L6.71849 2.60793L6.48072 2.53748L6.37175 2.51469C6.21126 2.48153 6.05275 2.45252 5.8883 2.43387L5.72188 2.41937L5.5911 2.27225H5.63073L6.11616 2.36549L6.20928 2.38414L6.37572 2.40693L6.53026 2.42766L6.55602 2.43595ZM6.45695 2.33441C6.34996 2.29919 6.24099 2.2681 6.24099 2.2681L6.13003 2.24738L5.6446 2.15413L5.44647 2.11684L5.35532 2.0153H5.40288C5.51582 2.02774 5.63073 2.04431 5.74367 2.06503L5.83678 2.08368L6.00124 2.10648L6.15777 2.1272C6.19273 2.12986 6.22782 2.12986 6.26278 2.1272L6.45695 2.33441ZM5.07 0.999955C5.12182 0.994193 5.17413 1.00427 5.22059 1.02896C5.27264 1.05724 5.32122 1.09203 5.36524 1.13257C5.39505 1.15783 5.42349 1.18482 5.45043 1.21338C5.40696 1.18821 5.36196 1.16606 5.3157 1.14707C5.3157 1.14707 5.19087 1.11599 5.06407 1.09113L4.93132 1.06419C4.97176 1.03968 5.01603 1.02284 5.06208 1.01445L5.07 0.999955ZM4.51127 1.42682L4.5727 1.3688C4.64258 1.37487 4.71283 1.37487 4.78272 1.3688C4.79657 1.36776 4.81047 1.36776 4.82432 1.3688H4.86395L4.94914 1.38123L5.1235 1.41438L5.21663 1.43511C5.21663 1.43511 5.29984 1.44753 5.38108 1.46411L5.53563 1.49313C5.66838 1.51592 5.75951 1.51592 5.55345 1.42682C5.49203 1.39781 5.41674 1.36879 5.35532 1.34807L5.25031 1.31492L5.13936 1.29005L4.95905 1.2569L4.86792 1.24239H4.69751L4.78272 1.16365L4.85801 1.17609L5.0284 1.20717L5.27409 1.26311C5.27409 1.26311 5.42467 1.27969 5.41872 1.27555C5.45241 1.27555 5.48015 1.27555 5.48411 1.25897C5.53025 1.30764 5.57389 1.35883 5.61487 1.41231C5.69809 1.51177 5.77933 1.61952 5.86651 1.71484L5.89227 1.74178L5.85859 1.73142C5.73376 1.69205 5.55544 1.64232 5.55544 1.64232L5.44647 1.61952L4.9967 1.52835C4.9214 1.51592 4.84612 1.50141 4.77083 1.49105L4.65591 1.47447H4.54099H4.46371L4.51127 1.42682ZM4.35276 1.57601C4.41838 1.58677 4.48453 1.59369 4.55089 1.59673H4.66185L4.77083 1.61123L4.99274 1.64854L5.43854 1.7397L5.53365 1.76043L5.70008 1.78115C5.75188 1.7897 5.80418 1.79455 5.85661 1.79566H5.95567C6.01511 1.86404 6.07653 1.93242 6.13795 2.00287L6.20731 2.07746L6.17362 2.06296C6.05077 2.0153 5.87048 1.96557 5.87048 1.96557L5.75952 1.94485C5.64262 1.92413 5.5277 1.90548 5.4108 1.89305L5.22654 1.87647C5.19684 1.8483 5.16503 1.82266 5.13143 1.7998C5.10391 1.78177 5.07382 1.76847 5.04227 1.76043C5.00972 1.75216 4.97576 1.75216 4.94321 1.76043C4.91332 1.76675 4.88458 1.77793 4.85801 1.79358L4.68959 1.75214L4.5826 1.72935L4.47363 1.71484L4.40427 1.70241L4.25369 1.6734L4.35276 1.57601ZM4.15462 1.75836C4.15874 1.76677 4.1641 1.77446 4.17048 1.78115C4.23982 1.79773 4.30521 1.81223 4.36861 1.82259L4.43994 1.83295L4.53505 1.84746H4.70148H4.73714C4.70742 1.87233 4.6777 1.89719 4.64996 1.92413C4.6385 1.93267 4.62788 1.94239 4.61826 1.95314C4.56279 1.92413 4.49145 1.89511 4.49145 1.89511L4.07736 1.80187L4.15462 1.75836ZM3.95649 1.95314L3.98423 1.9262L4.47363 2.03603H4.55288L4.45182 2.13342C4.40229 2.10855 4.3488 2.08783 4.3488 2.08783L4.08925 2.02566C4.02783 2.01116 3.96838 1.99665 3.92083 1.98215L3.95649 1.95314ZM3.82374 2.09197L3.88516 2.10855L4.06349 2.15413L4.32106 2.2163H4.36861L4.25171 2.32612C4.24158 2.31316 4.22954 2.30197 4.21604 2.29297C4.17984 2.26709 4.14137 2.24489 4.10113 2.22666L3.88516 2.17279L3.77222 2.1417C3.79402 2.1417 3.81186 2.12305 3.82771 2.10648L3.82374 2.09197ZM3.67911 2.24738L3.7108 2.25774C3.75241 2.27224 3.80789 2.28675 3.86139 2.29918L4.07339 2.35306H4.1368H4.19822H4.21803L4.05357 2.51261H4.03773C3.99824 2.48948 3.95718 2.4694 3.91489 2.45252C3.91489 2.45252 3.79996 2.42766 3.68703 2.39658L3.57409 2.36135L3.67911 2.24738ZM3.48097 2.4546H3.49681C3.54238 2.47324 3.59984 2.4919 3.6573 2.50847C3.71476 2.52505 3.77421 2.53956 3.8178 2.54784L3.88913 2.56442H3.99018L3.92677 2.62659C3.88824 2.60427 3.84855 2.5842 3.80789 2.56649C3.80789 2.56649 3.68901 2.53541 3.56815 2.51054L3.43936 2.48568L3.48097 2.4546ZM3.3284 2.61208H3.38983L3.54833 2.63902L3.77817 2.69289H3.85742L3.78213 2.76542C3.73458 2.73641 3.68109 2.70947 3.68109 2.70947C3.68109 2.70947 3.56022 2.67424 3.43539 2.6473L3.30463 2.62036L3.3284 2.61208ZM3.19764 2.74263H3.24915L3.4136 2.77577C3.53248 2.80271 3.64938 2.83587 3.64938 2.83587H3.70684L3.60777 2.93326C3.55625 2.9001 3.48296 2.86488 3.48296 2.86488C3.37596 2.83173 3.26698 2.7965 3.15206 2.77163L3.19764 2.74263ZM3.04111 2.89596C3.17937 2.92016 3.31578 2.95479 3.44926 2.99957L3.52257 3.012H3.54239L3.41558 3.13426C3.40371 3.12486 3.39027 3.11783 3.37595 3.11353C3.33038 3.08867 3.265 3.06173 3.265 3.06173L3.2016 3.04516L3.05696 3.00371L2.95988 2.9747L3.04111 2.89596ZM2.85486 3.07624H2.88657L3.02724 3.11768L3.17387 3.1612L3.24122 3.17777H3.36407L3.22537 3.31039C3.19052 3.29195 3.15482 3.27536 3.11838 3.26066C3.11838 3.26066 3.00347 3.23786 2.88855 3.21093L2.74589 3.17363L2.85486 3.07624ZM2.64484 3.28345L2.70626 3.30625L2.86675 3.34769L3.09461 3.39742H3.14414L3.1263 3.41192L3.04309 3.49481C3.01104 3.4696 2.9765 3.44807 2.94006 3.43057L2.74192 3.37463C2.69757 3.36195 2.65392 3.34673 2.61116 3.32904L2.64484 3.28345ZM2.50812 3.41607L2.56756 3.44715C2.61366 3.46549 2.66062 3.48139 2.70824 3.49481L2.90638 3.55076H2.9678H2.97969L2.88458 3.64608C2.85472 3.61812 2.82293 3.5925 2.78948 3.56941C2.78948 3.56941 2.69042 3.52382 2.59135 3.48859L2.47048 3.45544L2.50812 3.41607ZM2.32981 3.5922L2.3516 3.56941H2.41501C2.4598 3.57792 2.50411 3.58899 2.54775 3.60256C2.61498 3.62385 2.68111 3.64875 2.74589 3.67716L2.80731 3.69374H2.82713L2.72013 3.79941C2.67852 3.77247 2.63493 3.74968 2.63493 3.74968L2.40707 3.67509L2.27631 3.63157L2.32981 3.5922ZM2.17526 3.74761L2.21687 3.76212L2.37141 3.81185L2.5953 3.88437H2.6389L2.51803 4.00663C2.48363 3.98422 2.4479 3.96415 2.41104 3.94654L2.34565 3.92996L2.20102 3.88852C2.15346 3.87401 2.10591 3.85744 2.07222 3.84293L2.17526 3.74761ZM1.97712 3.94239L2.01675 3.96104C2.06552 3.9842 2.11585 4.00359 2.16734 4.01906L2.31594 4.0605L2.38133 4.07709H2.4467L2.32783 4.19519C2.29859 4.17395 2.26815 4.15457 2.23668 4.13717C2.23668 4.13717 2.13167 4.09987 2.02467 4.06672L1.88599 4.02321L1.97712 3.94239ZM1.77899 4.1351L1.98901 4.19934L2.18715 4.26772H2.24461C2.20697 4.30709 2.16734 4.34439 2.12771 4.38168C2.0861 4.34853 2.02666 4.31123 2.02666 4.31123L1.82852 4.22835L1.7136 4.18483L1.77899 4.1351ZM1.62048 4.28637L1.66011 4.30087L1.79881 4.3506L1.99694 4.43142L2.06232 4.44593H2.07619L1.94938 4.56818C1.93908 4.55598 1.92705 4.54549 1.91372 4.53709C1.87211 4.50601 1.81267 4.47079 1.81267 4.47079L1.74928 4.44799L1.6086 4.39619L1.52735 4.3734L1.62048 4.28637ZM1.42235 4.48322H1.45207C1.49702 4.49098 1.54138 4.50206 1.58482 4.51638L1.71955 4.56403L1.78097 4.58683L1.84438 4.59926H1.9058H1.91967L1.76314 4.74846L1.74134 4.73188C1.70871 4.70577 1.67428 4.68222 1.63832 4.66142L1.44019 4.58683L1.34706 4.55575L1.42235 4.48322ZM1.22421 4.66971V4.65936H1.24601L1.3847 4.70494L1.58284 4.7754C1.58284 4.7754 1.66606 4.79197 1.69578 4.79404L1.57689 4.90802C1.56892 4.89828 1.55957 4.88989 1.54916 4.88315C1.5166 4.85987 1.48286 4.83841 1.44811 4.8189C1.44811 4.8189 1.34904 4.78576 1.24997 4.74846L1.16081 4.71323L1.22421 4.66971ZM1.07561 4.81684H1.08948L1.22421 4.87071L1.42235 4.94116H1.48377H1.54123L1.45603 5.02198C1.44962 5.01098 1.44079 5.00175 1.43027 4.99504C1.4019 4.96884 1.37141 4.94526 1.33914 4.92458L1.15684 4.85206L1.05976 4.81684H1.07561ZM0.962675 4.93288L0.996355 4.94531L1.1192 4.98882L1.29752 5.05928C1.29752 5.05928 1.41442 5.08206 1.41046 5.07792L1.30347 5.1836C1.27361 5.15565 1.24181 5.13002 1.20836 5.10693L1.14694 5.07792L1.01221 5.01991L0.909175 4.98468L0.962675 4.93288ZM0.814074 5.09036H0.845782C0.889379 5.10261 0.932354 5.11713 0.974563 5.13387L1.10336 5.18775L1.16279 5.21469L1.24799 5.23748L1.20242 5.281L1.17666 5.30586C1.141 5.27685 1.10137 5.24991 1.10137 5.24991C1.10137 5.24991 1.00429 5.2064 0.903237 5.17117C0.859684 5.15617 0.815368 5.14372 0.77049 5.13387L0.814074 5.09036ZM0.671423 5.24578C0.692534 5.24432 0.713704 5.24432 0.734815 5.24578C0.778975 5.25591 0.822626 5.26836 0.865591 5.28307C0.960696 5.31415 1.06373 5.35559 1.06373 5.35559L1.10929 5.36802C1.08944 5.38286 1.07088 5.3995 1.05382 5.41775C1.02759 5.40158 1.00046 5.38706 0.972579 5.37425C0.972579 5.37425 0.867568 5.3473 0.774445 5.31415C0.728874 5.29964 0.685283 5.28307 0.649619 5.26857L0.671423 5.24578ZM0.546597 5.37838L0.578293 5.39496C0.626787 5.4165 0.676399 5.43519 0.726894 5.45092C0.831906 5.48614 0.936917 5.51308 0.936917 5.51308H0.964658C0.942863 5.53587 0.921065 5.55866 0.89927 5.5856C0.892925 5.57581 0.884857 5.56737 0.875495 5.56073C0.847122 5.53453 0.816622 5.51097 0.784349 5.49029L0.726894 5.46748C0.684069 5.45058 0.640424 5.43606 0.596131 5.42398C0.570842 5.4158 0.545013 5.40956 0.518855 5.40532L0.546597 5.37838ZM0.405917 5.52966H0.453467C0.492286 5.53171 0.530801 5.53795 0.568389 5.5483C0.611978 5.56073 0.655565 5.57731 0.689248 5.58975L0.742748 5.61046L0.800203 5.62289H0.853703H0.867574C0.843077 5.65766 0.821212 5.69439 0.802186 5.73272L0.788315 5.77209C0.788315 5.77209 0.77247 5.7493 0.744732 5.73272C0.709266 5.70916 0.67218 5.68839 0.633777 5.67056C0.633777 5.67056 0.528765 5.64569 0.435642 5.61461L0.356383 5.58767L0.405917 5.52966ZM0.253349 5.6892C0.299969 5.70857 0.347604 5.72518 0.396013 5.73893C0.501024 5.77209 0.606035 5.79696 0.606035 5.79696H0.732844C0.750911 5.79675 0.768624 5.79176 0.784349 5.78245V5.80939C0.776933 5.84055 0.773602 5.87262 0.774445 5.90471C0.775412 5.91505 0.775412 5.92545 0.774445 5.93579H0.754636C0.693214 5.90885 0.617923 5.87984 0.556501 5.85912L0.453467 5.82182L0.346479 5.79074H0.334591L0.205799 5.7493L0.253349 5.6892ZM0.13844 5.85291C0.193917 5.87363 0.249388 5.89227 0.304866 5.90885H0.318737L0.411867 5.93579L0.578293 5.96895C0.659528 5.98553 0.738788 6.0021 0.732844 5.99795H0.788315C0.799913 6.02438 0.813152 6.05001 0.827945 6.07463C0.849218 6.10957 0.873776 6.14219 0.901254 6.17202C0.790298 6.12021 0.667456 6.06841 0.667456 6.06841L0.558484 6.03319L0.283074 5.94409L0.120602 5.89642C0.127923 5.88622 0.135864 5.87654 0.144378 5.86742L0.13844 5.85291ZM0.13844 6.09742C0.130087 6.07826 0.124089 6.05806 0.120602 6.03732L0.263266 6.07877C0.356389 6.10571 0.447522 6.13471 0.538664 6.16579L0.62981 6.19481L0.792282 6.2404C0.873517 6.26112 0.950794 6.28392 0.94485 6.27977L1.00627 6.2922L1.03797 6.3295L1.21233 6.52013L1.02806 6.42896L0.923046 6.38751C0.757699 6.31593 0.588306 6.25503 0.415821 6.20516C0.348455 6.18859 0.28109 6.17202 0.217686 6.16166H0.207782L0.193911 6.17409C0.173602 6.15753 0.154408 6.13953 0.136456 6.12021L0.13844 6.09742Z" fill="#F05822"/>
</svg>
