<svg width="15" height="12" viewBox="0 0 15 12" fill="none" xmlns="http://www.w3.org/2000/svg">
<path d="M1.46451 3.10978C1.4518 3.10825 1.43896 3.11106 1.42789 3.11778C1.41682 3.1245 1.40812 3.13477 1.40309 3.14708C1.29808 3.20924 1.19307 3.27762 1.09004 3.35429C1.07705 3.35277 1.06396 3.35609 1.05309 3.36368C1.04221 3.37126 1.03425 3.38261 1.03059 3.39574C0.919369 3.47588 0.813461 3.5638 0.713582 3.6589C0.452722 3.88861 0.256219 4.18793 0.144936 4.52505C0.0976464 4.68092 0.0788205 4.84471 0.0894526 5.00786C0.0855796 5.02279 0.0855796 5.03852 0.0894526 5.05345C0.153106 5.44629 0.27266 5.82695 0.444122 6.18276L1.52593 8.87655C1.78945 9.52927 2.04703 10.3042 2.58794 10.7726C3.02905 11.1178 3.57112 11.2921 4.1215 11.2657C4.1376 11.2671 4.15366 11.2627 4.16707 11.2533C4.60106 11.2095 5.02605 11.0963 5.4272 10.9176C6.65366 10.4431 8.34771 10.0556 9.05505 8.77086C9.2176 8.4721 9.3036 8.13449 9.3047 7.79075C11.1711 7.55038 14.906 6.22006 13.844 3.51592C13.7429 3.26204 13.6053 3.02584 13.4358 2.81553C13.2065 2.32013 12.8653 1.89053 12.4418 1.56382C12.0182 1.23711 11.525 1.0231 11.0047 0.940249C9.592 0.733035 8.17533 1.56189 7.16088 2.52751C7.0784 2.45883 6.98945 2.39911 6.89539 2.3493C6.40005 1.66342 5.70658 1.48108 4.98933 1.56811C4.97526 1.56272 4.95981 1.56272 4.94574 1.56811C4.77319 1.59274 4.60242 1.62943 4.43456 1.67793C4.42139 1.67814 4.40847 1.6817 4.39691 1.68829C4.18027 1.75593 3.96785 1.83759 3.7609 1.9328C2.98421 2.30164 2.20751 2.67463 1.46451 3.10978ZM3.82232 2.1483L4.13141 2.00533L4.92395 2.37002C4.81695 2.40318 4.70996 2.43634 4.60495 2.47571L3.82232 2.1483ZM3.35472 2.37624L3.65786 2.22912L4.42267 2.5503C4.25228 2.61868 4.08583 2.69535 3.9194 2.77409L3.22198 2.43426L3.35472 2.37624ZM3.06346 2.51714L3.7609 2.84869L3.64994 2.90671L2.96836 2.56688L3.06346 2.51714ZM2.80588 2.64355L3.49936 2.98752L3.1863 3.15537L2.53841 2.77824L2.80588 2.64355ZM2.39376 2.85076L3.04762 3.23204L2.75437 3.39574C2.7504 3.39002 2.74488 3.38569 2.73853 3.3833L2.08864 3.01032L2.39376 2.85076ZM1.94599 3.08698L2.61964 3.47241L2.34819 3.61331C2.34444 3.60873 2.33968 3.60518 2.33432 3.60295L1.6884 3.23204L1.94599 3.08698ZM1.54972 3.31078L2.20554 3.68584L1.94599 3.81638H1.93607L1.30799 3.47033L1.54972 3.31078ZM1.18514 3.54907L1.81124 3.89305C1.73463 3.93587 1.66133 3.98146 1.59132 4.02981L0.957284 3.72521C1.02663 3.66304 1.10193 3.60502 1.18514 3.54907ZM0.590739 4.12099C0.669066 4.01341 0.757335 3.91415 0.854262 3.82467L1.47244 4.12305C1.37112 4.20247 1.2799 4.29508 1.201 4.39865L0.590739 4.12099ZM0.519414 4.23909L1.11382 4.51469C1.06464 4.59704 1.02537 4.68543 0.996913 4.77785L0.392605 4.5064C0.423193 4.41355 0.462349 4.32402 0.509509 4.23909H0.519414ZM0.321279 4.86074C0.328104 4.79082 0.340026 4.72154 0.356942 4.65352L0.971155 4.92083C0.949008 5.02367 0.935744 5.1284 0.931525 5.23373V5.26273L0.325234 5.01822C0.315572 4.96422 0.310279 4.90945 0.309391 4.85452L0.321279 4.86074ZM0.339104 5.16949L0.933509 5.41193C0.938221 5.55581 0.952794 5.69916 0.977105 5.84086C0.978079 5.84912 0.978079 5.85747 0.977105 5.86573L0.475818 5.69581C0.406881 5.52486 0.357018 5.34617 0.327217 5.16327L0.339104 5.16949ZM0.537239 5.86158L0.996913 6.01906C1.00188 6.02806 1.00865 6.03583 1.01673 6.04186C1.04249 6.14961 1.0722 6.24907 1.10589 6.36097L0.709615 6.26358C0.648194 6.12682 0.590742 5.99213 0.531301 5.85537L0.537239 5.86158ZM0.917667 6.72152C0.880021 6.6262 0.834443 6.52674 0.786891 6.42521L1.1574 6.51638C1.20297 6.65107 1.25449 6.78783 1.30997 6.92044L0.935492 6.76503L0.917667 6.72152ZM1.00682 6.94531L1.29412 7.06342C1.30514 7.06917 1.31764 7.07107 1.32977 7.06884C1.3419 7.0666 1.35301 7.06034 1.36149 7.05099L1.5398 7.46542L1.14353 7.30587L1.00682 6.94531ZM1.22477 7.48407L1.62104 7.64777C1.67454 7.77417 1.72605 7.8985 1.77558 8.02283L1.39517 7.90471C1.33176 7.75966 1.27628 7.61461 1.21882 7.47785L1.22477 7.48407ZM1.56953 8.34194L1.46055 8.06841L1.837 8.18445C1.87069 8.27563 1.90437 8.3668 1.93805 8.46212L1.61311 8.34194C1.59803 8.3331 1.58022 8.33086 1.56358 8.33572L1.56953 8.34194ZM1.67058 8.59059C1.65671 8.55951 1.64482 8.52843 1.63293 8.49735L1.99552 8.63204C2.03515 8.75222 2.07674 8.87447 2.12033 8.9988L1.78351 8.88069L1.67058 8.59059ZM1.84889 9.04854L2.17582 9.16665C2.21743 9.28476 2.26101 9.40494 2.30658 9.52305L1.98957 9.39458C1.93409 9.27233 1.88852 9.15836 1.84295 9.04232L1.84889 9.04854ZM2.21545 9.87739C2.16393 9.78 2.1144 9.67018 2.06685 9.57693L2.3799 9.70126C2.41953 9.79865 2.46311 9.8919 2.5067 9.98514L2.21545 9.87739ZM2.53642 10.3747C2.45826 10.2764 2.38676 10.1726 2.32244 10.0639L2.56417 10.153H2.5919C2.70581 10.3721 2.84561 10.5754 3.00799 10.7581C2.82591 10.6613 2.66369 10.5283 2.53047 10.3664L2.53642 10.3747ZM13.3942 3.17194C13.8975 4.0008 13.9153 5.07624 13.2139 5.84086C12.3758 6.76089 11.0661 7.2064 9.90704 7.46334C9.70891 7.50893 9.51077 7.54623 9.31264 7.57524C9.29974 7.38994 9.27123 7.20619 9.22744 7.02613C10.5629 6.71116 13.6538 5.76419 12.6809 3.7107C11.7457 1.73595 9.19375 2.80103 7.99107 3.82052C7.93559 3.70448 7.8821 3.58844 7.82861 3.47241C7.79096 3.38952 7.75133 3.31077 7.70972 3.2341C8.58548 2.6539 9.47511 2.09236 10.5133 1.96389C10.5228 1.97172 10.5336 1.97751 10.5453 1.98092C10.5569 1.98433 10.5691 1.9853 10.581 1.98376C10.593 1.98221 10.6046 1.9782 10.6151 1.97194C10.6256 1.96569 10.6347 1.95731 10.6421 1.94731C10.7075 1.94731 10.7749 1.93487 10.8402 1.9328C11.4297 1.90705 12.0151 2.0458 12.5363 2.3348C12.8815 2.53302 13.1743 2.81783 13.3883 3.16365L13.3942 3.17194ZM9.17394 6.84378C9.1749 6.83206 9.1749 6.82027 9.17394 6.80855C9.14224 6.69665 9.10855 6.58683 9.07289 6.47494L9.19375 6.43142C9.27799 6.5523 9.37285 6.66468 9.47708 6.76711L9.19176 6.83963L9.17394 6.84378ZM9.37207 6.36719L9.6356 6.25736C9.69107 6.32782 9.74853 6.3962 9.80599 6.46458C9.84972 6.52203 9.89668 6.57669 9.94666 6.62827C9.84759 6.66143 9.74853 6.69044 9.65739 6.71738C9.57364 6.58427 9.47299 6.46367 9.3582 6.3589L9.37207 6.36719ZM9.92288 6.31331L9.80996 6.18276C9.92091 6.13303 10.0319 6.08123 10.1408 6.02528C10.2062 6.10402 10.2795 6.17655 10.339 6.25115C10.3984 6.32574 10.444 6.3734 10.5014 6.42935C10.3687 6.48115 10.2399 6.52674 10.1052 6.57025C10.0531 6.47018 9.98472 6.38042 9.90307 6.30502L9.92288 6.31331ZM10.4717 6.12267C10.4162 6.06465 10.3608 6.00041 10.3033 5.94239C10.4083 5.88645 10.5014 5.83257 10.6144 5.77248C10.7372 5.92581 10.872 6.07294 11.0107 6.21384C10.9037 6.26565 10.7947 6.31331 10.6857 6.3589C10.6161 6.2712 10.5399 6.18944 10.4578 6.11438L10.4717 6.12267ZM11.8745 4.84624C11.9141 4.80686 11.9597 4.76956 11.9993 4.73019L12.0885 4.63073C12.1301 4.67217 12.1737 4.70947 12.2153 4.74884L12.4867 5.00165C12.4396 5.09287 12.3838 5.17895 12.3203 5.25859C12.1768 5.10723 12.0232 4.96666 11.8606 4.83795L11.8745 4.84624ZM12.2193 5.38706C12.1647 5.44615 12.1071 5.50217 12.0469 5.5549C11.98 5.46211 11.9021 5.37856 11.8151 5.30624C11.7418 5.23579 11.6685 5.16327 11.5932 5.09903C11.6506 5.05137 11.7061 5.00372 11.7596 4.95398C11.8986 5.10617 12.0476 5.24811 12.2054 5.37877L12.2193 5.38706ZM12.3223 4.60793L12.1935 4.49189C12.3431 4.28424 12.4301 4.03459 12.4432 3.77494C12.5388 3.92988 12.5995 4.1055 12.6208 4.28856C12.6421 4.47162 12.6233 4.65734 12.566 4.83173C12.4788 4.74677 12.3897 4.67425 12.3084 4.59965L12.3223 4.60793ZM11.7279 4.68046C11.4679 4.90009 11.1938 5.10086 10.9076 5.28138C10.3033 5.67047 9.66427 5.99733 8.99958 6.25736C8.72298 5.47074 8.40482 4.70078 8.04655 3.95107C9.12242 3.39988 10.8204 2.27263 11.9518 3.17608C11.9523 3.18102 11.9538 3.18579 11.9562 3.19007C11.9586 3.19436 11.9618 3.19807 11.9657 3.20096C12.564 3.60502 12.1143 4.32612 11.718 4.67217L11.7279 4.68046ZM11.4545 5.20264C11.5218 5.27516 11.5912 5.34562 11.6526 5.40985C11.7309 5.50041 11.8179 5.58235 11.9122 5.65437C11.8389 5.71239 11.7616 5.77041 11.6803 5.82635C11.5349 5.66533 11.3815 5.51247 11.2207 5.36841C11.29 5.30832 11.3713 5.25237 11.4446 5.19435L11.4545 5.20264ZM11.5357 5.92582C11.422 5.99758 11.305 6.06327 11.185 6.12267C11.0522 5.9714 10.9136 5.81807 10.7669 5.67716C10.8759 5.61085 10.9829 5.54247 11.0899 5.46995C11.2276 5.62706 11.3731 5.77647 11.5258 5.91753L11.5357 5.92582ZM7.78501 2.95851C7.72954 2.99995 7.67604 3.04554 7.62452 3.08906C7.5373 2.94307 7.43498 2.80756 7.3194 2.68499L7.41053 2.62075C7.51894 2.74552 7.64135 2.85614 7.77511 2.95022L7.78501 2.95851ZM7.54527 2.52129L7.80482 2.33273L8.02278 2.51093C8.08024 2.55652 8.13967 2.61039 8.20307 2.65391C8.10203 2.72022 8.00494 2.79067 7.90786 2.86112C7.8483 2.78933 7.78191 2.72407 7.70972 2.66634C7.6483 2.61039 7.59282 2.56066 7.53536 2.513L7.54527 2.52129ZM12.9385 2.33687C12.6907 2.15203 12.4183 2.00612 12.1301 1.90379C12.0132 1.76703 11.8725 1.64892 11.7338 1.52459L11.4882 1.27801C12.056 1.47378 12.5567 1.83895 12.9286 2.32858L12.9385 2.33687ZM10.8165 1.13917C10.9369 1.15196 11.0566 1.17132 11.1751 1.19719C11.2999 1.33603 11.4307 1.46657 11.5714 1.59919C11.6348 1.65928 11.6962 1.72559 11.7576 1.7919C11.6863 1.77532 11.613 1.76082 11.5397 1.75046C11.2444 1.53288 10.9453 1.32152 10.6263 1.12881C10.6718 1.12467 10.7392 1.12467 10.8066 1.13088L10.8165 1.13917ZM10.333 1.13917C10.5866 1.34639 10.8581 1.53495 11.1256 1.71523C10.9305 1.70829 10.7351 1.71591 10.5411 1.73802C10.3429 1.55568 10.121 1.36918 9.90109 1.20548C10.04 1.17037 10.181 1.14476 10.3231 1.12881L10.333 1.13917ZM9.70296 1.26143C9.88551 1.44421 10.078 1.6158 10.2795 1.77532C10.1408 1.80019 10.0021 1.83334 9.86344 1.87271C9.66531 1.71937 9.46717 1.57225 9.25319 1.42927C9.39588 1.35978 9.54283 1.30025 9.69305 1.25107L9.70296 1.26143ZM9.08279 1.51009C9.26772 1.65652 9.45397 1.79949 9.64153 1.93902C9.50945 1.98184 9.37735 2.0295 9.24527 2.08199C9.08478 1.94938 8.92428 1.80847 8.75785 1.68207C8.86088 1.6054 8.96788 1.5536 9.07289 1.49972L9.08279 1.51009ZM8.60529 1.78154C8.75191 1.91623 8.9124 2.04263 9.06892 2.16488L8.83711 2.27885C8.76112 2.20828 8.6796 2.14451 8.59341 2.08821C8.52208 2.03433 8.44876 1.98254 8.37545 1.93073C8.44282 1.86857 8.51614 1.81262 8.59539 1.77117L8.60529 1.78154ZM8.21496 2.01983C8.29818 2.09029 8.38537 2.15659 8.47255 2.22705C8.55973 2.2975 8.58944 2.32237 8.65086 2.36588C8.54783 2.42183 8.45272 2.48192 8.34969 2.54408C8.27982 2.47505 8.20425 2.41265 8.12383 2.35759C8.06439 2.30993 8.00296 2.26434 7.94153 2.21876L8.21496 2.01983ZM7.40658 3.17608C7.8121 3.93212 8.16566 4.71738 8.46461 5.5259C8.57953 5.80564 8.7103 6.10817 8.82125 6.41692C8.82334 6.42633 8.82668 6.4354 8.83117 6.44385C9.05032 6.96946 9.12972 7.54719 9.061 8.11607C8.82324 9.41945 7.35903 9.93541 6.31684 10.3229C5.7046 10.5508 5.03887 10.899 4.39691 11.0005C3.31312 11.1725 2.84156 10.2048 2.50274 9.30962C2.12431 8.31085 1.6686 7.3328 1.31394 6.32367C1.23892 6.11655 1.18124 5.90301 1.14156 5.68545C0.981071 4.77578 1.89248 4.05882 2.58397 3.74178C3.52908 3.31078 4.47022 2.68706 5.49656 2.4612C6.25145 2.2975 6.98059 2.45705 7.40658 3.17816V3.17608ZM6.53478 2.21461C6.41501 2.18651 6.29291 2.17055 6.17021 2.16695C6.16497 2.15985 6.15818 2.15416 6.1504 2.15038L5.28257 1.71523C5.74368 1.71954 6.18801 1.89674 6.53478 2.21461ZM5.01708 1.73595L5.88886 2.17317H5.87896C5.79376 2.17317 5.71054 2.19597 5.62534 2.2084C5.62253 2.20171 5.61844 2.19569 5.61333 2.1907C5.60822 2.18571 5.6022 2.18186 5.59563 2.17938L4.706 1.79604C4.80656 1.77007 4.90842 1.75001 5.01113 1.73595H5.01708ZM4.5039 1.86235L5.39947 2.24777C5.30833 2.26435 5.22115 2.28921 5.13199 2.312L4.30973 1.9328C4.36917 1.90793 4.43257 1.88307 4.49795 1.86235H4.5039Z" fill="#D8C800"/>
</svg>
