<svg width="4" height="4" viewBox="0 0 4 4" fill="none" xmlns="http://www.w3.org/2000/svg">
<path d="M1.45638 1.44533V1.45776L1.47025 1.48055L1.43062 1.49091L1.39099 1.50542L1.37316 1.51785H1.36326L1.34344 1.53443L1.32363 1.55515C1.27784 1.60885 1.2494 1.67629 1.24239 1.74786C1.2326 1.81239 1.2326 1.87812 1.24239 1.94264C1.26459 2.06915 1.32097 2.18635 1.40486 2.2804L1.44052 2.31563L1.47421 2.34464C1.49799 2.36329 1.52177 2.38193 1.54752 2.39851C1.57373 2.41658 1.60161 2.43185 1.63074 2.4441C1.6656 2.46021 1.70365 2.46731 1.74169 2.46482C1.7657 2.46215 1.78877 2.45363 1.80906 2.43996C1.82863 2.42778 1.84497 2.41069 1.85661 2.39023C1.87659 2.35782 1.88882 2.32086 1.89228 2.28247C1.9002 2.2192 1.9002 2.15511 1.89228 2.09184C1.88135 1.99559 1.86213 1.90057 1.83482 1.80795C1.88176 1.83857 1.93076 1.86558 1.98144 1.88877C2.03792 1.91766 2.09907 1.93523 2.16174 1.94057C2.18919 1.94214 2.21669 1.93863 2.24298 1.93021H2.26477L2.28656 1.91571L2.30043 1.90534L2.3143 1.89498L2.36185 1.8494C2.37838 1.83486 2.39304 1.81814 2.40545 1.79967L2.42724 1.77273L2.44705 1.74371C2.45879 1.72367 2.46938 1.70292 2.47876 1.68155C2.49833 1.63585 2.5091 1.58656 2.51046 1.5365C2.51036 1.44044 2.48275 1.34662 2.4312 1.26712C2.38621 1.18954 2.33008 1.11965 2.26477 1.05991C2.2034 1.00372 2.13706 0.953762 2.06664 0.910716C1.99492 0.865708 1.91845 0.829552 1.83878 0.802967H1.80708H1.7734H1.71198C1.67235 0.802967 1.63073 0.802963 1.59111 0.792602C1.50717 0.791308 1.42337 0.80035 1.34145 0.819541C1.25837 0.838563 1.17876 0.871448 1.10567 0.916932C1.03061 0.963548 0.963623 1.0231 0.907539 1.09307C0.803544 1.23234 0.735338 1.39711 0.709404 1.57173C0.657511 1.91161 0.70807 2.25996 0.854051 2.56843C0.925932 2.72744 1.02925 2.86869 1.15719 2.98286C1.2251 3.03874 1.30237 3.08091 1.38505 3.10719C1.46961 3.13088 1.55775 3.13721 1.64461 3.12583C1.80882 3.09847 1.96478 3.03181 2.10031 2.93105C2.23255 2.83564 2.35535 2.72666 2.46687 2.60573C2.57726 2.48594 2.67985 2.35856 2.77398 2.22445C2.82153 2.15814 2.86909 2.09184 2.91267 2.01724L2.96815 1.92814L3.0157 1.84732C3.0157 1.84732 3.05929 1.76029 3.09694 1.67326C3.13458 1.58623 3.16628 1.4992 3.16231 1.50749C3.18299 1.45859 3.19315 1.40554 3.19204 1.35208C3.19204 1.33343 3.16034 1.36452 3.09892 1.4702C3.06128 1.53029 3.0157 1.60488 2.97805 1.66083L2.91267 1.76029L2.86511 1.8411L2.85322 1.86183L2.81955 1.91363C2.79973 1.94886 2.77595 1.98201 2.75416 2.01516C2.66496 2.1506 2.56768 2.28003 2.4629 2.40266C2.35986 2.52499 2.24646 2.63734 2.12409 2.73835C2.00634 2.83788 1.87199 2.91376 1.72782 2.96213C1.65865 2.98455 1.58603 2.99299 1.51384 2.987C1.44404 2.97988 1.3765 2.95727 1.31571 2.9207C1.18967 2.83804 1.08652 2.7223 1.01652 2.585C0.99671 2.54978 0.978872 2.51455 0.96104 2.47933L0.937264 2.42338L0.917456 2.3695C0.890338 2.29407 0.869132 2.21646 0.854051 2.13743C0.824046 1.98059 0.816702 1.81994 0.832259 1.66083C0.846635 1.50484 0.896942 1.35482 0.978877 1.22361C1.06011 1.09613 1.18247 1.00346 1.32363 0.962519C1.39505 0.940763 1.46918 0.930288 1.54356 0.931438H1.65649H1.71395H1.76745C1.83667 0.951792 1.90322 0.98102 1.96558 1.01846C2.03551 1.05678 2.10185 1.10188 2.16372 1.15316C2.22196 1.20122 2.27334 1.25774 2.31629 1.321C2.33563 1.35147 2.35158 1.38414 2.36384 1.41839C2.37452 1.45042 2.38053 1.48395 2.38166 1.51785C2.38152 1.55052 2.37548 1.58286 2.36384 1.61317C2.35056 1.64562 2.33251 1.67568 2.31034 1.70228L2.29448 1.723L2.27467 1.74165C2.26295 1.7557 2.24964 1.76822 2.23504 1.77894L2.21524 1.79759H2.20533H2.16967C2.12297 1.79244 2.07742 1.77913 2.03493 1.75822C1.98813 1.73438 1.9425 1.7081 1.89821 1.67948C1.85098 1.64991 1.80594 1.61667 1.76348 1.58002C1.73945 1.51977 1.71097 1.46158 1.67829 1.40596C1.66026 1.37531 1.63826 1.34741 1.61291 1.32307C1.60295 1.31359 1.59157 1.3059 1.57922 1.30028C1.57071 1.2986 1.56197 1.2986 1.55346 1.30028H1.52176C1.50999 1.30256 1.49862 1.30676 1.48808 1.31271L1.46826 1.33343L1.45439 1.35208V1.36866C1.45439 1.31893 1.45439 1.43704 1.45439 1.42461L1.45638 1.44533ZM1.60101 1.62353L1.65848 1.67741C1.6744 1.71525 1.68828 1.75399 1.70008 1.79345C1.73342 1.89794 1.75731 2.00547 1.77142 2.11463C1.77835 2.16548 1.77835 2.21711 1.77142 2.26797C1.77031 2.28764 1.76488 2.30679 1.75556 2.32392C1.75354 2.32758 1.75066 2.33065 1.74719 2.33282C1.74373 2.335 1.73979 2.33621 1.73575 2.33635C1.71869 2.33708 1.7017 2.33352 1.68622 2.32599C1.66494 2.31585 1.64441 2.30408 1.6248 2.29076L1.56338 2.24518L1.53365 2.21824C1.52415 2.21105 1.5155 2.20271 1.50789 2.19337C1.44089 2.11855 1.39613 2.02495 1.3791 1.924C1.37047 1.87467 1.37047 1.82412 1.3791 1.7748C1.3828 1.73159 1.39867 1.69049 1.42468 1.65669L1.43458 1.64632H1.45439H1.4762C1.50898 1.64041 1.54248 1.64041 1.57526 1.64632L1.60101 1.62353Z" fill="#63C094"/>
</svg>
