<svg width="2" height="6" viewBox="0 0 2 6" fill="none" xmlns="http://www.w3.org/2000/svg">
<path d="M1.13977 0.586384C1.14296 0.577363 1.14424 0.567725 1.14351 0.558136C1.14278 0.548548 1.14007 0.539238 1.13556 0.530856C1.13105 0.522474 1.12484 0.515215 1.11738 0.50959C1.10992 0.503964 1.10138 0.500104 1.09235 0.498276C1.08332 0.496449 1.07402 0.496702 1.06509 0.49901C1.05616 0.501318 1.04782 0.505628 1.04065 0.511645C1.03347 0.517661 1.02763 0.525235 1.02353 0.533847C1.01944 0.542459 1.01718 0.551905 1.01692 0.56152C0.738341 2.14804 1.03579 3.78618 1.85108 5.15545C1.85658 5.16465 1.86415 5.17229 1.87313 5.17771C1.88211 5.18313 1.89223 5.18615 1.90259 5.18653C1.91508 5.186 1.92728 5.18245 1.93825 5.17618C1.952 5.16645 1.96171 5.15162 1.96539 5.13469C1.96907 5.11775 1.96645 5.09999 1.95806 5.085C1.15899 3.74442 0.867174 2.14017 1.13977 0.586384Z" fill="#963493"/>
</svg>
