<svg width="2" height="5" viewBox="0 0 2 5" fill="none" xmlns="http://www.w3.org/2000/svg">
<path d="M1.61302 4.90401C1.61276 4.91262 1.61415 4.9212 1.61712 4.92923C1.62009 4.93727 1.62457 4.94459 1.6303 4.95078C1.63603 4.95696 1.64289 4.96188 1.65047 4.96524C1.65806 4.9686 1.66621 4.97032 1.67445 4.97032C1.69094 4.97089 1.70699 4.96472 1.7192 4.95311C1.73141 4.9415 1.73881 4.92538 1.73983 4.90816C1.77732 3.43771 1.36042 1.99381 0.551021 0.790813C0.546509 0.783001 0.540506 0.776248 0.533384 0.770976C0.526261 0.765703 0.518171 0.762022 0.509626 0.760168C0.501082 0.758315 0.492263 0.758331 0.483723 0.760206C0.475183 0.762082 0.467106 0.765779 0.459996 0.77107C0.452886 0.776362 0.446894 0.783129 0.4424 0.790952C0.437907 0.798776 0.435007 0.807488 0.433881 0.816538C0.432754 0.825588 0.433424 0.83478 0.435852 0.843546C0.43828 0.852312 0.442416 0.860462 0.447994 0.867481C1.2428 2.04619 1.6515 3.46225 1.61302 4.90401Z" fill="#963493"/>
</svg>
