<svg width="2" height="3" viewBox="0 0 2 3" fill="none" xmlns="http://www.w3.org/2000/svg">
<path d="M1.34342 0.708002C1.2285 0.842691 1.07792 1.0437 1.07792 1.0437L0.994709 1.17423C0.840163 1.41253 0.685616 1.65083 0.546922 1.90363C0.496965 1.98789 0.455784 2.0775 0.424079 2.17093C0.422117 2.17698 0.422117 2.18354 0.424079 2.18959C0.445874 2.26004 0.481535 2.25797 0.507293 2.25382C0.532736 2.24922 0.55742 2.24085 0.580602 2.22896C0.610821 2.14796 0.647263 2.06965 0.689573 1.99481C0.824305 1.75029 0.976875 1.51408 1.12944 1.27578L1.20076 1.16595C1.20076 1.16595 1.43059 0.751516 1.41672 0.772238C1.49598 0.594034 1.52768 0.47385 1.34342 0.708002Z" fill="#3770B7"/>
</svg>
