<svg width="1" height="2" viewBox="0 0 1 2" fill="none" xmlns="http://www.w3.org/2000/svg">
<path d="M0.417163 0.436758C0.412265 0.440661 0.408214 0.445606 0.405275 0.451265L0.351775 0.519646L0.30027 0.598385C0.241729 0.699102 0.203309 0.811183 0.187332 0.927858C0.182348 0.978145 0.182348 1.02884 0.187332 1.07912C0.187332 1.07912 0.187332 1.11228 0.19922 1.16201C0.212061 1.22049 0.230647 1.27744 0.254691 1.33192C0.285943 1.4087 0.330256 1.4789 0.385467 1.53914C0.428824 1.59031 0.484116 1.62886 0.545956 1.65103C0.557844 1.65103 0.557844 1.63653 0.545956 1.61166C0.534067 1.5868 0.502359 1.54743 0.464713 1.48319C0.417994 1.40726 0.385082 1.32296 0.367629 1.23453C0.359391 1.19013 0.35475 1.14507 0.353758 1.09984C0.35079 1.05362 0.35079 1.00724 0.353758 0.96101C0.367182 0.86753 0.398889 0.777948 0.446888 0.69785L0.488489 0.63154L0.536051 0.569375L0.492455 0.521717C0.508135 0.528192 0.522322 0.538081 0.534068 0.550727L0.54991 0.536223L0.583602 0.50721L0.571714 0.482346H0.585585C0.593931 0.485345 0.602985 0.485345 0.611331 0.482346C0.612469 0.4741 0.612469 0.465727 0.611331 0.457481C0.613379 0.44793 0.613379 0.438023 0.611331 0.428471C0.6082 0.420099 0.603117 0.412679 0.596541 0.406888C0.589966 0.401098 0.582107 0.397119 0.573685 0.395316C0.565339 0.392316 0.556285 0.392316 0.547939 0.395316H0.534068H0.520197H0.496422H0.482551L0.436984 0.436758H0.417163Z" fill="#87171A"/>
</svg>
