<svg width="14" height="16" viewBox="0 0 14 16" fill="none" xmlns="http://www.w3.org/2000/svg">
<path d="M12.807 6.61487C12.6953 6.54511 12.5754 6.49077 12.4503 6.45324C12.3904 6.43663 12.3295 6.42417 12.2681 6.41594C12.232 6.38504 12.1857 6.37016 12.1393 6.37449C12.0471 6.36317 11.954 6.36317 11.8619 6.37449C11.8619 6.37449 11.6479 6.46981 11.4339 6.57135C11.3269 6.62108 11.2199 6.67496 11.1367 6.7164L11.0891 6.74127C11.0891 6.7164 11.0753 6.69361 11.0654 6.6646C10.9445 6.25017 10.7285 5.65547 10.7285 5.65547L10.576 5.30941L10.3006 4.68777C10.2193 4.50749 10.1322 4.33551 10.0648 4.16767L10.6592 3.87342L10.6889 3.84855L10.9623 4.45155L11.0733 4.69606L11.206 4.9903C11.206 4.9903 11.7351 6.00151 11.7232 5.95386C11.955 6.35171 12.1551 6.57549 11.9213 5.87097C11.7965 5.45654 11.5766 4.86391 11.5766 4.86391L11.422 4.522L11.313 4.27749L11.0356 3.65585L11.0079 3.63512C10.975 3.61739 10.9395 3.60549 10.9029 3.5999C10.9207 3.53566 10.9029 3.48178 10.7642 3.47971C10.7642 3.46935 10.7781 3.46314 10.7761 3.46314C10.8494 3.37196 10.8732 3.25592 10.6849 3.25592C10.5983 3.25002 10.5112 3.25419 10.4254 3.26836L9.66258 3.65378C9.64673 3.58747 9.62494 3.50666 9.59323 3.40098C9.47039 2.97412 9.23263 2.39599 9.23263 2.39599L9.06619 2.05823L8.76107 1.43658C8.67983 1.2646 8.59859 1.09261 8.5233 0.920624L9.15932 0.605654C9.15932 0.605654 9.20488 0.568355 9.25045 0.526912L9.51794 1.11541L9.74579 1.61893L9.87855 1.91317C9.87855 1.91317 10.4076 2.92438 10.3957 2.87673C10.6255 3.2725 10.8256 3.49836 10.5938 2.79383C10.469 2.37941 10.2491 1.78678 10.2491 1.78678L10.0945 1.4428L9.86863 0.94134L9.58927 0.319698C9.58116 0.311257 9.57179 0.304263 9.56153 0.298982C9.50988 0.268156 9.45027 0.255102 9.39113 0.261678C9.3733 0.23474 9.33368 0.216095 9.25839 0.214023C9.17169 0.208119 9.08464 0.212288 8.99883 0.226455L8.20629 0.618087C8.20629 0.618087 8.20629 0.632591 8.20629 0.636735C8.21442 0.683304 8.22635 0.729059 8.24195 0.773497C8.20763 0.791992 8.17845 0.819459 8.15728 0.853226C8.1361 0.886993 8.12363 0.925917 8.12108 0.966211C8.11898 0.97073 8.11789 0.975686 8.11789 0.980711C8.11789 0.985737 8.11898 0.990699 8.12108 0.995218L8.20431 1.18171C8.05571 1.16513 8.00617 1.30189 7.9923 1.38892C7.98913 1.39831 7.98913 1.40855 7.9923 1.41794L8.27167 2.03958L9.72201 5.24517L9.86071 5.53528C9.86071 5.53528 10.3897 6.54649 10.3778 6.49883C10.4294 6.58586 10.4789 6.66667 10.5225 6.72883C10.4531 6.74127 10.358 6.76613 10.2312 6.80343C9.82306 6.91325 9.25839 7.13083 9.25839 7.13083L7.14032 8.13581C6.74405 8.31816 6.35241 8.49568 5.96539 8.66835L5.6662 8.7989C5.56317 8.84449 5.46806 8.89215 5.36503 8.94188C5.1669 9.03927 4.97867 9.1491 4.78847 9.23198C4.59967 9.32403 4.4058 9.40429 4.20792 9.47235C4.19942 9.48076 4.19148 9.48976 4.18414 9.49929C4.14094 9.55836 4.12108 9.63254 4.12867 9.7065C4.10464 9.59282 4.0742 9.48073 4.03753 9.37081C3.91072 8.95639 3.69277 8.36376 3.69277 8.36376L3.53625 8.01977L2.18497 5.0276L1.94919 4.49921L2.3732 4.29199C2.7556 4.09721 3.13601 3.90035 3.51841 3.71593C3.71655 3.62269 3.9028 3.53152 4.09301 3.45071C4.28322 3.36989 4.48928 3.28286 4.68741 3.19376C5.08368 3.01349 5.46806 2.8187 5.85046 2.61978L6.42109 2.31517L6.79557 2.10796C6.79557 2.10796 7.73671 1.51325 7.69312 1.52776C8.05967 1.27496 8.27563 1.05738 7.60395 1.32055C7.20768 1.4656 6.65886 1.71839 6.65886 1.71839L6.30816 1.91111L5.73356 2.21778C5.34918 2.42499 4.96083 2.61563 4.56853 2.79591C4.37039 2.88501 4.17226 2.96997 3.97412 3.05285C3.77599 3.13574 3.57785 3.23313 3.37972 3.32845C2.98345 3.51909 2.58718 3.72216 2.20676 3.91901L1.61236 4.21533C1.60387 4.22342 1.59712 4.23331 1.59255 4.24434C1.57279 4.27741 1.56055 4.31478 1.55677 4.35357C1.55299 4.39237 1.55777 4.43156 1.57075 4.46812L1.52121 4.35623C1.51421 4.34687 1.50545 4.33912 1.49547 4.33344H1.47961C1.48966 4.31527 1.49383 4.29419 1.4915 4.27334C1.4915 4.2319 1.44196 4.20497 1.33695 4.20289C1.23951 4.19881 1.14193 4.20505 1.0457 4.22154C0.893133 4.28992 0.74057 4.3583 0.588006 4.42875L0.358163 4.54065L0.24127 4.60282L0.177865 4.64219L0.136253 4.67327C0.123703 4.68195 0.112371 4.69241 0.102573 4.70435L0.078798 4.73336C0.0511879 4.77748 0.0386232 4.83004 0.0431352 4.88255V4.91779L0.0570061 4.94679C0.0634497 4.96147 0.0714224 4.97537 0.0807813 4.98823L0.0966233 5.00481C0.107374 5.01792 0.120088 5.02911 0.134269 5.03796C0.146743 5.04524 0.160064 5.05082 0.173899 5.05454L0.441388 5.64511L0.68509 6.18801L0.817837 6.48225C0.817837 6.48225 1.34884 7.49345 1.33695 7.44579C1.40497 7.57893 1.49107 7.70107 1.59255 7.80841C1.6037 7.82871 1.61628 7.84811 1.6302 7.86644C1.62933 7.87262 1.62933 7.87891 1.6302 7.88509C1.64089 7.94751 1.65955 8.00814 1.68567 8.06537C1.63875 8.11012 1.60914 8.1713 1.60245 8.23735C1.59928 8.24673 1.59928 8.25697 1.60245 8.26636L1.88182 8.888L2.00269 9.15738L2.13742 9.45163C2.13742 9.45163 2.66644 10.4628 2.65455 10.4152C2.71426 10.5164 2.78046 10.6134 2.85268 10.7053V10.7156C2.86409 10.8064 2.89454 10.8934 2.94185 10.9705L2.90024 11.0368C2.84017 11.1385 2.79288 11.2478 2.75956 11.3621C2.72859 11.4742 2.70999 11.5896 2.70408 11.7061C2.69161 11.9308 2.71369 12.156 2.76947 12.3733L2.7972 12.477C2.80495 12.5065 2.81422 12.5355 2.82494 12.564L2.85862 12.6531L2.89825 12.7401C2.90627 12.7574 2.91555 12.774 2.92599 12.7898C2.94779 12.8189 2.97156 12.8644 3.01119 12.9142C3.10113 13.0335 3.2138 13.1319 3.34205 13.2033C3.4703 13.2746 3.61132 13.3173 3.75618 13.3286C3.80943 13.3362 3.86342 13.3362 3.91667 13.3286C4.07586 13.3305 4.23167 13.2805 4.36247 13.1856C4.36421 13.1839 4.36559 13.1818 4.36653 13.1795C4.36748 13.1772 4.36797 13.1747 4.36797 13.1722C4.36797 13.1696 4.36748 13.1671 4.36653 13.1648C4.36559 13.1625 4.36421 13.1604 4.36247 13.1587C4.40456 13.118 4.43303 13.0642 4.4437 13.0053C4.4458 13.0008 4.44691 12.9959 4.44691 12.9908C4.44691 12.9858 4.4458 12.9809 4.4437 12.9763L4.38625 12.8189L4.36049 12.7505L4.33473 12.6697L4.2852 12.506L4.1148 12.537C4.08647 12.54 4.05793 12.54 4.02961 12.537H4.00186C3.9633 12.5318 3.92542 12.5221 3.88893 12.508C3.79106 12.469 3.70249 12.4082 3.62937 12.3298C3.5949 12.2926 3.56435 12.2516 3.53824 12.2076L3.50256 12.1309L3.47681 12.0542C3.4469 11.9537 3.44343 11.8465 3.46679 11.7441C3.49015 11.6416 3.53947 11.5476 3.60956 11.472C3.68308 11.3867 3.77109 11.3164 3.86912 11.2648C3.95953 11.2141 4.05984 11.1857 4.16235 11.1819C4.258 11.1831 4.35112 11.2141 4.42984 11.271C4.5144 11.3312 4.58265 11.4133 4.62798 11.5093C4.67804 11.6038 4.7061 11.7094 4.70988 11.8174C4.71367 11.9254 4.69308 12.0328 4.64977 12.1309V12.1495V12.1599L4.6359 12.1806L4.5824 12.2677L4.52891 12.3526L4.51702 12.3733V12.3837L4.54872 12.4251L4.67751 12.5826L4.76666 12.6862C4.85582 12.7836 4.94895 12.8935 5.04009 12.9991L5.10746 13.0799V13.0696L5.11935 13.0468L5.14511 13.0033C5.17879 12.9453 5.21445 12.8872 5.24616 12.8292L5.34522 12.6552L5.369 12.6075L5.38682 12.5681L5.4106 12.5142C5.44058 12.4425 5.46704 12.3692 5.48986 12.2946C5.53594 12.1404 5.55802 11.9795 5.55525 11.818C5.54741 11.488 5.42807 11.1716 5.21841 10.9249C5.08605 10.7573 4.92157 10.6206 4.73558 10.5235C4.5496 10.4264 4.34623 10.3711 4.13858 10.3613C4.16434 10.2929 4.13858 10.2349 3.99593 10.2349C3.9425 10.2307 3.88886 10.2307 3.83544 10.2349C3.86318 10.2121 3.83544 10.0816 3.74627 9.78109C3.62145 9.36667 3.40152 8.77404 3.40152 8.77404L3.24697 8.43005L3.16177 8.23942L2.88241 7.61778C2.8743 7.60934 2.86493 7.60234 2.85467 7.59706C2.81603 7.57525 2.77357 7.56186 2.72984 7.55769C2.71795 7.52246 2.67832 7.49552 2.59907 7.48931C2.66893 7.44229 2.73518 7.38963 2.7972 7.33182C2.80273 7.32327 2.80941 7.3156 2.81702 7.30903L3.20339 8.1669L3.33613 8.46114C3.33613 8.46114 3.86713 9.47235 3.85525 9.42469C4.03159 9.7293 4.19009 9.93236 4.15047 9.69199C4.15417 9.70708 4.15949 9.72168 4.16632 9.73551C4.20205 9.7906 4.25668 9.82917 4.31889 9.84326C4.32328 9.84519 4.32798 9.8462 4.33275 9.8462C4.33751 9.8462 4.34223 9.84519 4.34662 9.84326C4.5601 9.76935 4.76919 9.68217 4.97273 9.58218L5.4106 9.36252C5.41215 9.4279 5.42701 9.49219 5.4542 9.55109C5.4174 9.57817 5.38693 9.61359 5.36503 9.6547C5.36503 9.6547 5.36503 9.6547 5.36503 9.6692C5.36503 9.68371 6.11596 11.2254 6.11596 11.2254C6.11596 11.2254 6.3993 11.6626 6.39732 11.6398C6.42599 11.6766 6.45782 11.7106 6.49242 11.7413C6.50524 11.8556 6.56081 11.9599 6.64697 12.0314H6.65688C6.66572 12.067 6.67905 12.1011 6.6965 12.133C6.67358 12.1332 6.65097 12.1385 6.63014 12.1485C6.60931 12.1585 6.59073 12.173 6.57563 12.191C6.57563 12.191 6.57563 12.191 6.57563 12.2055C6.62731 12.3831 6.6936 12.5558 6.77377 12.7215C6.87085 12.9535 6.9719 13.1794 6.9719 13.1794C7.02868 13.26 7.09022 13.3368 7.15617 13.4094C7.02848 13.4713 6.90413 13.5405 6.78367 13.6166C6.65796 13.6958 6.54717 13.7983 6.45676 13.9192C6.43159 13.9531 6.40906 13.9892 6.38939 14.0269L6.36166 14.087L6.33985 14.1575C6.31559 14.2427 6.30751 14.3321 6.31608 14.4206C6.32757 14.5859 6.38016 14.7452 6.46864 14.8827C6.55774 15.0295 6.68875 15.1434 6.84312 15.208C6.91875 15.239 6.99972 15.2531 7.08087 15.2495C7.15739 15.243 7.23238 15.2234 7.3028 15.1915C7.40926 15.1404 7.5125 15.0822 7.61189 15.0174C7.61868 15.008 7.62402 14.9975 7.62773 14.9863C7.65331 14.9204 7.65681 14.8474 7.63764 14.7791C7.65925 14.7834 7.68142 14.7834 7.70302 14.7791C7.77039 14.7604 7.87738 14.7169 8.04184 14.6589C8.23997 14.5947 8.4817 14.5222 8.67785 14.4517C8.794 14.4102 8.90778 14.3618 9.01864 14.3067C9.07808 14.2714 9.13554 14.2362 9.193 14.1948L9.27819 14.1367L9.31981 14.1036L9.3416 14.087L9.37924 14.0559C9.50416 13.9588 9.60477 13.8316 9.67248 13.685C9.69602 13.6277 9.71074 13.5669 9.71608 13.5047L9.72995 13.5151C9.76928 13.5391 9.81035 13.5599 9.85279 13.5773C9.89311 13.5896 9.93414 13.5993 9.97563 13.6063C10.1083 13.6213 10.2425 13.6114 10.3719 13.5773C10.4888 13.5503 10.5978 13.513 10.7028 13.4799C10.7118 13.472 10.7198 13.463 10.7266 13.4529C10.7519 13.4212 10.7693 13.3834 10.7772 13.3429C10.7852 13.3024 10.7834 13.2605 10.7721 13.2209C10.7938 13.2194 10.8152 13.2145 10.8355 13.2063C10.8989 13.1815 11.004 13.1359 11.1664 13.0737C11.3646 13.0053 11.6023 12.9328 11.7985 12.8562C11.9144 12.8111 12.0276 12.7585 12.1373 12.6987C12.1978 12.6618 12.256 12.6209 12.3116 12.5764C12.3407 12.5547 12.3685 12.5312 12.3949 12.506L12.4365 12.4707L12.4563 12.4521L12.488 12.4189C12.602 12.3142 12.6863 12.1787 12.7317 12.0273C12.7571 11.8594 12.7226 11.6875 12.6346 11.5445C12.5989 11.4678 12.5514 11.3978 12.4939 11.3373C12.4402 11.2799 12.3788 11.2311 12.3116 11.1922C12.1697 11.1108 12.0055 11.0823 11.846 11.1114C11.7146 11.1398 11.5878 11.1879 11.4696 11.2544L11.3091 11.3311C11.325 11.2933 11.3299 11.2515 11.3229 11.2109C11.3163 11.1206 11.299 11.0315 11.2714 10.9456L11.1961 10.8317L11.0337 10.5851C10.9782 10.4939 10.9287 10.4048 10.895 10.3364C10.8743 10.2985 10.8565 10.259 10.8415 10.2183H10.8236C10.7322 10.2317 10.6441 10.2633 10.5641 10.3116C10.5201 10.2931 10.4722 10.2874 10.4254 10.295C10.3179 10.2979 10.2106 10.3083 10.1044 10.3261L9.94194 10.3965C9.84485 10.438 9.71211 10.4918 9.57738 10.5561C9.44946 10.6161 9.32567 10.6854 9.20687 10.7633L9.17319 10.7861C9.15932 10.7674 9.15138 10.7571 9.1494 10.7592H9.1395L10.2193 10.2245C10.2193 10.2245 10.5423 9.99038 10.5245 9.98831C10.6453 9.87434 10.6988 9.74794 10.4353 9.78109C10.3116 9.79193 10.189 9.81341 10.0688 9.84533L9.06817 10.3302C8.90174 9.96552 8.35291 8.74917 8.35291 8.74917C8.35291 8.74917 8.17062 8.44664 8.09731 8.33474L9.12959 7.82499L9.32773 7.68201C9.3515 7.72346 9.38717 7.78355 9.4268 7.86022C9.50407 8.00112 9.59521 8.19384 9.68437 8.3907C9.77353 8.58755 9.86071 8.79269 9.93204 8.94188C10.0034 9.09107 10.0529 9.19467 10.0529 9.19467L10.1005 9.26513L10.2094 9.41432C10.2591 9.48502 10.3156 9.55028 10.3778 9.6091C10.4551 9.68577 10.5383 9.7355 10.576 9.72514C10.6136 9.71478 10.6176 9.64641 10.5581 9.48478C10.5284 9.38532 10.4908 9.27757 10.4611 9.18018L10.4095 9.0227C10.4095 9.0227 10.36 8.92944 10.2907 8.78232C10.2213 8.6352 10.1341 8.4342 10.043 8.22906C9.95185 8.02392 9.84486 7.81464 9.77155 7.66337C9.69824 7.51211 9.62493 7.40642 9.62096 7.40021H9.61106L9.86863 7.26138C10.1084 7.1329 10.3422 7.00857 10.3204 7.01272C10.4222 6.95697 10.5201 6.89396 10.6136 6.82414C10.679 6.8946 10.7127 6.88632 10.6869 6.74541C10.6869 6.74541 10.6869 6.7309 10.6869 6.72676C10.6642 6.61996 10.6351 6.51476 10.5997 6.41179C10.5542 6.25431 10.4947 6.07611 10.4373 5.91241C10.578 6.18386 10.891 6.78893 10.8811 6.74127C10.9306 6.8283 10.9782 6.90496 11.0218 6.96712C10.9012 7.12025 10.8149 7.29969 10.7693 7.49224C10.7237 7.6848 10.72 7.88559 10.7583 8.07987C10.7692 8.14669 10.7851 8.21249 10.8058 8.27672L10.8335 8.35546C10.8356 8.36488 10.839 8.37395 10.8435 8.3824L10.887 8.48601L10.9366 8.5834L10.994 8.67871C10.994 8.67871 10.994 8.6953 11.0257 8.72431C11.0574 8.75332 11.0773 8.79061 11.1189 8.83412C11.2141 8.9408 11.3228 9.03351 11.4418 9.10972C11.6011 9.2164 11.7799 9.28699 11.9669 9.31694C12.1245 9.35371 12.2894 9.33095 12.4325 9.2527C12.4444 9.2382 12.4325 9.22576 12.4127 9.21333C12.4506 9.19499 12.4829 9.1658 12.5056 9.12914C12.5284 9.09248 12.5409 9.04984 12.5415 9.00611C12.5436 9.00196 12.5446 8.99734 12.5446 8.99265C12.5446 8.98795 12.5436 8.98333 12.5415 8.97918L12.3433 8.55232L12.3255 8.51502C12.3243 8.50783 12.3208 8.50127 12.3156 8.49636H12.2978L12.2185 8.51502C12.167 8.51502 12.1115 8.53988 12.058 8.54817H12.0184H11.9352C11.8657 8.54201 11.8004 8.51047 11.7509 8.45907C11.6977 8.401 11.6595 8.32968 11.64 8.25185C11.5974 8.06541 11.6119 7.86969 11.6816 7.69237C11.711 7.60735 11.7566 7.52941 11.8155 7.46319C11.8744 7.39697 11.9454 7.34384 12.0243 7.30696C12.0435 7.2982 12.0634 7.29127 12.0838 7.28624C12.1032 7.2799 12.1231 7.27505 12.1432 7.27173C12.182 7.26649 12.2213 7.26649 12.2601 7.27173C12.344 7.28335 12.4248 7.31222 12.4979 7.35669C12.571 7.39679 12.6344 7.45388 12.6832 7.52356C12.7319 7.59324 12.7648 7.67366 12.7792 7.75868C12.787 7.78501 12.787 7.81318 12.7792 7.8395C12.7646 7.874 12.7452 7.90611 12.7218 7.93482C12.6696 8.00064 12.6305 8.07673 12.6069 8.1586C12.5956 8.20533 12.5903 8.2534 12.591 8.30158C12.5915 8.35162 12.5995 8.40128 12.6148 8.44871C12.6399 8.52361 12.6767 8.59364 12.7238 8.65592C12.7831 8.73611 12.8494 8.81034 12.9219 8.87764L13.0428 8.98953L13.1042 9.04549L13.1161 9.02891L13.1418 8.99576L13.2449 8.86314C13.2785 8.81962 13.3063 8.77197 13.338 8.72638C13.3851 8.66231 13.425 8.59278 13.4569 8.51917C13.4831 8.45645 13.5056 8.39208 13.5242 8.32645C13.5636 8.19233 13.581 8.05221 13.5757 7.91202C13.5752 7.77483 13.5545 7.63856 13.5143 7.50796C13.4766 7.37914 13.4234 7.25588 13.3558 7.14119C13.215 6.92302 13.027 6.74269 12.807 6.61487ZM4.96282 11.3145C4.92649 11.2402 4.88192 11.1707 4.83007 11.1073C4.8578 11.1363 4.88357 11.1653 4.90932 11.1964C5.06036 11.3705 5.14681 11.5954 5.15303 11.8304C5.15406 11.9492 5.13734 12.0673 5.10349 12.1806C5.08566 12.2387 5.06386 12.2967 5.04009 12.3547L5.0183 12.4044L4.97075 12.3506L4.98462 12.3195C5.05806 12.1623 5.09441 11.9891 5.09061 11.8142C5.08682 11.6393 5.043 11.468 4.96282 11.3145ZM3.94836 12.939H4.00385L4.0613 13.0924L3.92856 13.0758C3.82904 13.0564 3.73197 13.0251 3.63927 12.9826C3.55534 12.9416 3.47942 12.8847 3.41538 12.8147C3.36792 12.7636 3.32666 12.7065 3.29254 12.6448L3.25688 12.5681C3.22091 12.5022 3.19105 12.4328 3.16771 12.3609L3.18158 12.3879C3.22303 12.464 3.27438 12.5337 3.33415 12.5951C3.44551 12.7165 3.5807 12.8112 3.73042 12.8727C3.80008 12.9044 3.87331 12.9267 3.94836 12.939ZM4.02564 10.7778C3.98377 10.7814 3.9425 10.7904 3.9028 10.8047L3.78392 10.8441C3.74826 10.8586 3.71457 10.8773 3.6789 10.8938C3.53805 10.9691 3.41123 11.0702 3.30443 11.1922C3.23259 11.2768 3.17378 11.3726 3.13008 11.4761C3.14507 11.42 3.16428 11.3653 3.18753 11.3124C3.26406 11.1585 3.38089 11.0306 3.52436 10.9436C3.66995 10.8474 3.83604 10.7904 4.00781 10.7778H4.02564ZM3.53229 9.88678C3.60032 10.0273 3.69231 10.1537 3.80373 10.2598C3.74825 10.2598 3.70665 10.2743 3.70665 10.2743L2.94779 10.6472C2.92489 10.5398 2.89578 10.434 2.86061 10.3302C2.73578 9.91579 2.51585 9.32316 2.51585 9.32316L2.36131 8.98125L2.24044 8.7098L1.98684 8.15032L2.50595 7.89338L2.53567 7.86436L2.79523 8.43628L2.88043 8.62898L3.01516 8.92322C3.01516 8.92322 3.54417 9.92407 3.53229 9.88678ZM1.43998 5.14364L1.65991 5.64924L1.7887 5.94556L2.04627 6.44909C2.17704 6.69774 2.30781 6.94019 2.30186 6.91532C2.3514 7.00235 2.40094 7.07695 2.44453 7.13911H2.41679L1.97098 7.32561C1.85805 7.37327 1.74709 7.42507 1.66189 7.46444L1.5866 7.49966C1.57471 7.45408 1.56085 7.40642 1.54302 7.35048C1.41621 6.93605 1.19826 6.34342 1.19826 6.34342L1.04173 5.99944L0.798028 5.45861L0.548376 4.89498L0.746511 4.79552L1.19033 4.58831L1.43998 5.14364ZM2.712 7.13704H2.69813H2.59115C2.5663 7.03606 2.53654 6.93646 2.50198 6.83865C2.45047 6.66459 2.38311 6.4636 2.32367 6.28747L2.712 7.13704ZM6.56969 11.5611C6.5404 11.3989 6.50067 11.239 6.45081 11.0824L5.75338 9.63191L6.75594 9.13666C6.75594 9.13666 6.9184 9.01854 7.00757 8.94809L7.07692 9.13459C7.14032 9.29829 7.23146 9.50964 7.33053 9.71271C7.42959 9.91578 7.52867 10.1147 7.6099 10.2618L7.73671 10.5063L7.88927 10.7136C7.93474 10.7857 7.98436 10.8549 8.03787 10.9208C8.06453 10.9549 8.09441 10.9861 8.12703 11.014H8.03589C7.91094 11.0262 7.78707 11.0483 7.66537 11.0803L6.58158 11.6149C6.57885 11.5967 6.57487 11.5787 6.56969 11.5611ZM7.29091 13.0426C7.29091 13.0426 7.18986 12.8147 7.09277 12.5868C7.04522 12.4728 6.99965 12.3568 6.96795 12.2739L6.94614 12.2097H6.96398L7.34836 12.0273L7.9071 11.7724C7.9071 11.7724 8.10524 11.6295 8.18252 11.5756C8.18457 11.5951 8.18787 11.6145 8.19242 11.6336L8.58869 12.5184C8.4916 12.5391 8.41631 12.5598 8.41631 12.5598L7.29685 13.111C7.29487 13.0675 7.28496 13.0426 7.28496 13.0426H7.29091ZM9.29008 13.4923C9.26616 13.5745 9.21838 13.6469 9.15337 13.6995C9.12083 13.7314 9.08642 13.7612 9.05033 13.7886L8.97901 13.8404C8.93146 13.8736 8.88391 13.9067 8.83239 13.9378C8.83239 13.9378 8.78088 13.9751 8.69766 14.0269C8.61444 14.0787 8.49953 14.145 8.37867 14.2072C8.1409 14.3315 7.90115 14.4683 7.92493 14.4621C7.78891 14.5343 7.6719 14.6403 7.58414 14.7708V14.7584C7.56144 14.7351 7.53446 14.7168 7.50484 14.7047C7.47521 14.6926 7.44356 14.6869 7.41177 14.6879C7.40749 14.6856 7.40273 14.6843 7.3979 14.6843C7.39306 14.6843 7.3883 14.6856 7.38403 14.6879C7.29969 14.7429 7.21237 14.7928 7.12249 14.8371C7.09379 14.8515 7.06297 14.8606 7.03134 14.8641C7.00433 14.8639 6.97754 14.859 6.95209 14.8496C6.87571 14.8089 6.8105 14.7486 6.76265 14.6743C6.7148 14.5999 6.68589 14.5141 6.67867 14.4248C6.66886 14.3461 6.68875 14.2666 6.73414 14.203C6.79226 14.1197 6.86568 14.0492 6.95011 13.9958C7.13041 13.8694 7.34638 13.7886 7.58018 13.6498C7.81398 13.5109 8.00616 13.4115 8.22015 13.3017C8.32714 13.2457 8.43414 13.1939 8.54311 13.1462C8.64111 13.0987 8.7433 13.0612 8.84824 13.0344C8.88313 13.0234 8.9198 13.0202 8.95595 13.0248C8.99209 13.0294 9.02694 13.0419 9.05827 13.0613C9.0927 13.0861 9.12398 13.1153 9.15139 13.1483C9.18474 13.1885 9.21585 13.2307 9.24451 13.2747C9.26585 13.3058 9.28089 13.3412 9.28873 13.3786C9.29656 13.416 9.29702 13.4547 9.29008 13.4923ZM8.15873 11.3083V11.3373H8.12108C8.07622 11.3342 8.03121 11.3342 7.98635 11.3373C8.03544 11.3033 8.08183 11.2651 8.12505 11.2233C8.14239 11.2076 8.15831 11.1903 8.1726 11.1715C8.15906 11.2156 8.15433 11.2622 8.15873 11.3083ZM11.5964 11.6481C11.6876 11.5991 11.7824 11.5576 11.8797 11.5238C11.9493 11.5009 12.0244 11.5046 12.0917 11.5341C12.1639 11.5645 12.2259 11.6164 12.27 11.6833C12.3117 11.7442 12.3301 11.8192 12.3217 11.8936C12.3133 11.9679 12.2786 12.0363 12.2245 12.0853C12.1947 12.1164 12.1452 12.1682 12.1313 12.1786L12.0699 12.2345C12.0243 12.2697 11.9808 12.305 11.9312 12.336C11.9312 12.336 11.8837 12.3754 11.8024 12.4293C11.7212 12.4832 11.6043 12.5515 11.4894 12.6158C11.3341 12.6937 11.1833 12.7809 11.0376 12.8769C10.9049 12.9522 10.7925 13.0612 10.7107 13.1939C10.6741 13.1475 10.624 13.1148 10.5681 13.1007C10.5522 13.1007 10.5502 13.1007 10.5403 13.1007C10.4373 13.1338 10.3422 13.167 10.2451 13.1898C10.1623 13.2116 10.0766 13.2193 9.99147 13.2126C9.96439 13.212 9.93794 13.2038 9.91492 13.1889C9.89191 13.1739 9.87318 13.1528 9.86071 13.1276C9.82947 13.0503 9.81395 12.967 9.81514 12.8831C9.82404 12.8062 9.85513 12.7339 9.90429 12.6759C9.96689 12.5983 10.0381 12.5287 10.1163 12.4687C10.29 12.3316 10.475 12.2109 10.6691 12.1081C10.8672 11.9983 11.0654 11.9009 11.2774 11.8035L11.5964 11.6481ZM9.54567 11.4409C9.49218 11.3248 9.43671 11.2088 9.3951 11.1218L9.42086 11.1052C9.52341 11.0399 9.62997 10.9817 9.73985 10.9311C9.86269 10.8731 9.9895 10.8192 10.0846 10.7778L10.2471 10.7094L10.3917 10.6079C10.4395 10.5779 10.4834 10.5417 10.5225 10.5001L10.5363 10.4856L10.5542 10.5209C10.6015 10.617 10.6538 10.7103 10.7107 10.8006L10.8771 11.0555L10.9524 11.1674L11.0515 11.2544C11.0805 11.2842 11.1132 11.31 11.1486 11.3311H11.1605C11.0368 11.343 10.9142 11.3652 10.7939 11.3974L9.74777 11.9113C9.74777 11.8823 9.72202 11.8367 9.69824 11.7807C9.66257 11.6916 9.60115 11.5673 9.54567 11.4492V11.4409ZM7.86153 8.38033C7.89123 8.55348 7.93161 8.72445 7.9824 8.89215L8.75116 10.5996C8.75832 10.6014 8.76579 10.6014 8.77295 10.5996C8.82226 10.6058 8.87225 10.6008 8.91957 10.5851C8.93419 10.6241 8.95349 10.661 8.97703 10.6949C8.96019 10.7325 8.9514 10.7735 8.95127 10.8151C8.94431 10.9212 8.95098 11.0279 8.97109 11.1321C8.97109 11.1321 8.99882 11.1922 9.03845 11.2834L9.19101 11.6066C9.24649 11.7227 9.29603 11.8387 9.32971 11.9258C9.3496 11.9744 9.36681 12.0242 9.38123 12.075H9.39905C9.46653 12.0732 9.53335 12.0606 9.59719 12.0377C9.6058 12.1278 9.64034 12.213 9.69626 12.2822C9.66257 12.3174 9.63286 12.3506 9.60116 12.3899C9.49747 12.5149 9.43374 12.6707 9.41887 12.8354V12.8582C9.38981 12.8244 9.3587 12.7926 9.32574 12.7629C9.25739 12.7044 9.17859 12.6608 9.09393 12.6344C9.04684 12.6201 8.99829 12.6118 8.9493 12.6096C9.01072 12.5412 9.03251 12.479 8.9691 12.4562L8.98496 12.4417C8.98496 12.4417 8.98496 12.4417 8.98496 12.4293L8.54114 11.4471C8.47967 11.3603 8.41351 11.2773 8.343 11.1984C8.28554 11.1404 8.22411 11.1052 8.18449 11.1321C8.20222 11.1094 8.21138 11.0806 8.21025 11.0513C8.24591 11.041 8.25582 10.9726 8.21025 10.8089C8.17427 10.6413 8.12727 10.4765 8.06958 10.3157L7.9388 10.0691C7.86153 9.91993 7.76048 9.72308 7.66339 9.52415C7.5663 9.32522 7.47913 9.12423 7.41969 8.96882C7.36025 8.81341 7.32657 8.70772 7.32459 8.70358C7.32261 8.69943 7.30873 8.70358 7.30477 8.70358C7.25006 8.68993 7.19305 8.68993 7.13834 8.70358C7.11655 8.67871 7.06304 8.66628 6.95803 8.68079L6.85104 8.69322C6.97983 8.63313 7.1106 8.57511 7.24731 8.51295L7.82785 8.23735C7.835 8.28867 7.84626 8.33928 7.86153 8.38862V8.38033ZM9.28216 3.28286C9.3134 3.3501 9.34985 3.41455 9.39113 3.47557C9.45705 3.61653 9.54627 3.7442 9.65466 3.8527C9.65712 3.85369 9.65975 3.85415 9.66239 3.85405C9.66504 3.85396 9.66764 3.85332 9.67004 3.85216C9.67244 3.851 9.67459 3.84936 9.67637 3.84731C9.67816 3.84527 9.67953 3.84288 9.68041 3.84027C9.68648 3.85673 9.69376 3.87266 9.70221 3.88792V3.90658C9.70975 3.95486 9.72237 4.00211 9.73985 4.04748C9.71286 4.07531 9.6925 4.10937 9.68041 4.14694L9.28216 3.28286ZM12.0402 8.98746H12.0798L12.0957 9.02477L12.1591 9.1636C12.1086 9.15024 12.059 9.13364 12.0105 9.11387C11.9147 9.07408 11.823 9.02408 11.737 8.96467H11.7271C11.776 8.98207 11.8265 8.99388 11.8777 8.99989C11.9134 9.00191 11.9491 9.00191 11.9847 8.99989L12.0402 8.98746ZM12.1155 6.88425C12.0781 6.88878 12.0411 6.89569 12.0045 6.90496C11.9694 6.91243 11.935 6.92283 11.9015 6.93605C11.7661 6.98685 11.6435 7.06902 11.5429 7.17641C11.4463 7.28006 11.369 7.40164 11.315 7.5349C11.2063 7.79588 11.1812 8.08667 11.2437 8.36376C11.2437 8.36376 11.2179 8.31403 11.206 8.28709L11.1902 8.24772C11.1891 8.24086 11.1891 8.23385 11.1902 8.22699L11.1684 8.16483C11.1079 7.97456 11.1024 7.76986 11.1526 7.57633C11.1803 7.48263 11.2203 7.39338 11.2714 7.31111C11.3283 7.22812 11.3948 7.15293 11.4696 7.08731C11.6165 6.95499 11.7954 6.86754 11.9867 6.83452C12.1757 6.80649 12.3685 6.83899 12.5395 6.92775C12.6281 6.97214 12.7107 7.02859 12.7852 7.09561L12.7436 7.06452C12.6236 6.98251 12.4887 6.92747 12.3473 6.90289C12.2705 6.88624 12.1919 6.87998 12.1135 6.88425H12.1155ZM13.1775 7.87472C13.1963 8.07385 13.1562 8.27423 13.0626 8.44871C13.0487 8.47979 13.0626 8.46736 13.0507 8.4715L13.0368 8.45286L13.017 8.42592C13.0056 8.4096 12.9957 8.39227 12.9873 8.37411C12.9763 8.35372 12.9695 8.33112 12.9675 8.30781C12.9667 8.28428 12.9745 8.26134 12.9893 8.24357C13.0277 8.19245 13.0634 8.13918 13.0963 8.08401C13.1416 8.00072 13.1648 7.9063 13.1636 7.81049C13.1657 7.78082 13.1657 7.75105 13.1636 7.72139C13.1718 7.77205 13.1757 7.82335 13.1755 7.87472H13.1775Z" fill="#27B361"/>
</svg>
