<svg width="1" height="3" viewBox="0 0 1 3" fill="none" xmlns="http://www.w3.org/2000/svg">
<path d="M0.501746 1.12987C0.519356 1.114 0.539823 1.10199 0.56194 1.09452C0.584057 1.08704 0.607382 1.08427 0.630539 1.08636C0.655636 1.06426 0.667522 1.04353 0.666201 1.02419C0.664656 1.01508 0.661185 1.00644 0.656043 0.998916C0.650902 0.991388 0.64422 0.985162 0.636482 0.980678C0.564055 0.97785 0.493281 1.00375 0.438348 1.0532C0.356548 1.13896 0.303685 1.25026 0.287763 1.37024C0.269395 1.48034 0.262749 1.59222 0.267949 1.70385C0.267949 1.73494 0.267949 1.76602 0.267949 1.7971C0.276078 1.85095 0.287329 1.90423 0.301634 1.95665C0.31321 2.00697 0.330501 2.05567 0.353145 2.1017C0.369128 2.14431 0.397556 2.18057 0.434381 2.20531C0.450232 2.20531 0.434382 2.17838 0.410606 2.08306C0.391778 1.98959 0.380513 1.89463 0.376926 1.79918C0.374886 1.76536 0.374886 1.73144 0.376926 1.69763C0.369963 1.59503 0.375958 1.49192 0.394758 1.39096C0.401791 1.29394 0.439419 1.2021 0.501746 1.12987Z" fill="#BF2026"/>
</svg>
