<svg width="2" height="1" viewBox="0 0 2 1" fill="none" xmlns="http://www.w3.org/2000/svg">
<path d="M0.77493 0.204359C0.77493 0.204359 0.77493 0.233371 0.77493 0.270669C0.77493 0.307968 0.77493 0.3204 0.77493 0.347338H0.759088L0.547082 0.376351C0.545178 0.409475 0.545178 0.442685 0.547082 0.475809C0.549753 0.497347 0.557215 0.517937 0.568874 0.53591L0.767009 0.506897C0.767009 0.556628 0.767009 0.591849 0.767009 0.591849C0.776833 0.628744 0.789421 0.664776 0.804655 0.699604C0.828431 0.743119 0.866081 0.770057 0.895801 0.699604C0.910825 0.665108 0.922119 0.628964 0.929481 0.591849C0.929481 0.591849 0.929481 0.55041 0.929481 0.49239H0.977031C0.977031 0.49239 1.09592 0.450943 1.09195 0.448871C1.13752 0.426077 1.17319 0.386714 1.09195 0.35356C1.05225 0.337957 1.01107 0.326835 0.96911 0.320399H0.937402C0.936415 0.307296 0.936415 0.294131 0.937402 0.281028C0.937402 0.247873 0.937402 0.225086 0.937402 0.223014C0.886617 0.198516 0.829586 0.191964 0.77493 0.204359Z" fill="#D62027"/>
</svg>
