<svg width="6" height="7" viewBox="0 0 6 7" fill="none" xmlns="http://www.w3.org/2000/svg">
<path d="M2.72784 1.31925L2.20279 1.27781C2.09381 1.26745 2.08192 1.43322 2.17703 1.46431C2.13145 1.49327 2.08952 1.52807 2.0522 1.56791C2.02829 1.58982 2.00578 1.61335 1.98483 1.63837H1.61829C1.59359 1.63837 1.5699 1.64862 1.55244 1.66689C1.53497 1.68515 1.52516 1.70993 1.52516 1.73576C1.52516 1.76159 1.53497 1.78636 1.55244 1.80462C1.5699 1.82289 1.59359 1.83315 1.61829 1.83315H1.85802C1.80893 1.91894 1.76716 2.00907 1.7332 2.10252L1.70745 2.16262C1.63027 2.171 1.55227 2.16397 1.47761 2.14189C1.4542 2.1353 1.42925 2.1385 1.40807 2.15084C1.38689 2.16317 1.37114 2.18366 1.36417 2.20795C1.35721 2.23223 1.35957 2.2584 1.37076 2.28089C1.38195 2.30338 1.40109 2.32042 1.42411 2.32839C1.49448 2.3484 1.56716 2.35817 1.64008 2.3574C1.59649 2.48587 1.55289 2.61849 1.51129 2.77183C1.50575 2.78811 1.50113 2.80471 1.49743 2.82156L1.34883 2.85264C1.22994 2.8775 1.27551 3.05985 1.39043 3.0412L1.44194 3.03084C1.41817 3.11995 1.39637 3.20904 1.37457 3.30436L1.36268 3.36031L1.09124 3.44942C0.976322 3.48671 1.01992 3.67528 1.13484 3.63798L1.3191 3.57789C1.28542 3.75402 1.25768 3.92186 1.23589 4.08763C1.23589 4.10421 1.23589 4.12079 1.23589 4.13944L0.998123 4.23061C0.887167 4.27205 0.930751 4.46062 1.04171 4.41918L1.19427 4.33629C1.19427 4.35908 1.19427 4.37981 1.19427 4.4026V4.4544C1.18437 4.5518 1.17842 4.65126 1.17644 4.75072V4.79009L0.837634 4.93721C0.726679 4.9828 0.815842 5.15479 0.926797 5.10713L1.19031 4.99316C1.20148 5.12092 1.23366 5.2457 1.28542 5.362L0.972364 5.51948C0.86339 5.57543 0.952551 5.74535 1.05954 5.69147L1.38449 5.52985L1.39638 5.54642C1.44138 5.608 1.49402 5.66305 1.5529 5.71012C1.43996 5.77643 1.32504 5.84481 1.21408 5.91734C1.10313 5.98986 1.20022 6.15149 1.30325 6.08725C1.44392 6.00022 1.58658 5.91526 1.72924 5.83238C1.74905 5.84274 1.76688 5.85517 1.7867 5.86346C1.90708 5.92496 2.03624 5.96555 2.16909 5.98365C2.09975 6.04995 2.02842 6.11626 1.97096 6.19086C1.9135 6.26546 2.01257 6.42501 2.09777 6.33591C2.18297 6.2468 2.32167 6.11212 2.43857 6.00851C2.47751 6.01061 2.51652 6.01061 2.55546 6.00851H2.61886C2.81093 5.97492 2.99279 5.89472 3.14986 5.77436H3.16572L3.0191 5.92563C2.9339 6.01266 3.05873 6.15563 3.14393 6.06653C3.36756 5.8712 3.57746 5.6593 3.77201 5.43246C3.84353 5.32406 3.89464 5.20239 3.92259 5.07397C3.96063 4.90626 3.98711 4.73591 4.00184 4.56423C4.0593 4.04412 4.14054 3.52816 4.24159 3.04742C4.25348 2.99562 4.26537 2.94174 4.27923 2.88787C4.36047 2.54182 4.45558 2.14811 4.19602 1.82693C3.85523 1.40421 3.19543 1.35448 2.72784 1.31925ZM2.81303 1.63215C2.81303 1.63215 2.82493 1.63215 2.83087 1.61972H2.87247C2.15126 1.87666 1.8818 3.03706 1.78868 3.75816C1.72418 4.13699 1.69433 4.52138 1.69952 4.90613C1.62974 4.46561 1.64321 4.01506 1.73915 3.57996C1.86793 2.83192 2.02644 1.91603 2.81303 1.64251V1.63215ZM1.85605 5.69147C1.79535 5.66449 1.7381 5.62968 1.68564 5.58787C1.62841 5.5449 1.57765 5.49321 1.53506 5.43452C1.4985 5.38848 1.46787 5.33763 1.44393 5.28326C1.39767 5.17961 1.37012 5.06791 1.36268 4.95379C1.35877 4.88962 1.35877 4.82525 1.36268 4.76108C1.36268 4.66783 1.36269 4.57666 1.37854 4.48549V4.42954C1.37854 4.39431 1.37854 4.35909 1.39043 4.31764C1.40231 4.2762 1.40628 4.17674 1.41817 4.11043C1.43996 3.93222 1.46969 3.75195 1.50931 3.55924C1.52318 3.48879 1.53705 3.41626 1.55488 3.33959C1.57271 3.26292 1.60243 3.13238 1.63017 3.03084C1.64801 2.96246 1.66781 2.89408 1.68763 2.82363C1.73122 2.66615 1.77679 2.52524 1.82632 2.38641C1.83421 2.35601 1.84414 2.32624 1.85605 2.29731L1.90162 2.17919C1.93901 2.0788 1.98546 1.98236 2.04031 1.89117C2.07893 1.82574 2.1263 1.76643 2.18098 1.71503C2.21566 1.67847 2.255 1.64709 2.29789 1.62179C2.31752 1.60912 2.33806 1.59803 2.35931 1.58863H2.47225C1.86199 1.99063 1.69159 2.79255 1.56082 3.52608C1.43005 4.25962 1.36269 5.11541 1.88378 5.69976C1.87408 5.69906 1.86464 5.69624 1.85605 5.69147V5.69147ZM4.03553 2.99769C3.92945 3.50555 3.8481 4.01872 3.79182 4.53522C3.77584 4.70546 3.73017 4.87121 3.65709 5.02424C3.55855 5.22161 3.40613 5.38389 3.21921 5.49048C2.91408 5.67282 2.48017 5.76192 2.18098 5.51534C1.8818 5.26876 1.91549 5.24389 1.90162 4.8937C1.88932 4.4725 1.91786 4.05108 1.98681 3.63591C2.04185 3.13273 2.2 2.64788 2.45045 2.21442C2.76549 1.74197 3.24299 1.7544 3.71851 1.8808C4.31291 2.02378 4.15243 2.48173 4.04544 2.9894L4.03553 2.99769Z" stroke="#EC1E24" stroke-width="0.973512" stroke-miterlimit="10"/>
</svg>
