<svg width="2" height="2" viewBox="0 0 2 2" fill="none" xmlns="http://www.w3.org/2000/svg">
<path d="M0.952582 0.986749C0.907595 0.939085 0.857766 0.896703 0.803981 0.860352H0.794071C0.720761 0.860352 0.732651 0.926661 0.740576 0.951526C0.786549 0.984047 0.829649 1.02081 0.869363 1.06136C0.918802 1.11249 0.961455 1.17033 0.996172 1.23333C1.03165 1.29332 1.05711 1.35919 1.07146 1.42812C1.07342 1.45363 1.07342 1.47927 1.07146 1.50478V1.5483C1.06895 1.57884 1.06229 1.60884 1.05165 1.6374V1.66227L1.03976 1.683C1.02985 1.69543 1.02391 1.70786 1.01598 1.71822L0.992205 1.74723C0.977058 1.76781 0.959785 1.78657 0.940694 1.80317C0.929015 1.8134 0.919555 1.82611 0.912953 1.84047C0.912953 1.84047 0.912952 1.85083 0.936728 1.84047C0.949839 1.83741 0.9625 1.83255 0.974374 1.82598C0.99446 1.81814 1.0132 1.80693 1.02985 1.79282C1.08646 1.753 1.13166 1.69785 1.16062 1.63326C1.17053 1.6001 1.17846 1.57317 1.18242 1.55245V1.51929C1.18636 1.48003 1.18636 1.44044 1.18242 1.40118C1.14342 1.24368 1.06393 1.10036 0.952582 0.986749Z" fill="#BF2026"/>
</svg>
