<svg width="20" height="20" viewBox="0 0 20 20" fill="none" xmlns="http://www.w3.org/2000/svg">
<path d="M9.45534 9.57848L9.10464 9.91417C8.89743 9.54181 8.61083 9.22449 8.26717 8.98693C7.92351 8.74936 7.53206 8.59795 7.12329 8.54448C6.13262 8.41187 5.29847 8.95891 4.58122 9.63028C3.59055 10.5524 2.57015 11.4952 1.65081 12.4857C1.03065 13.1591 0.489741 13.9963 0.62051 14.9723C0.733447 15.8011 1.25058 16.5326 1.77167 17.1501C2.29277 17.7676 2.90897 18.5612 3.57272 19.0461C4.3078 19.5849 5.09637 19.3258 5.77597 18.8244C6.85581 18.0287 7.84252 17.0589 8.85895 16.1762C9.38731 15.7189 9.91567 15.2644 10.444 14.8127C10.763 14.5475 11.1078 14.2512 11.2584 13.8409C11.613 12.8628 10.7393 11.976 10.2677 11.2466C10.2621 11.2368 10.2555 11.2278 10.2479 11.2196L11.4367 10.0074C11.436 10.009 11.4356 10.0108 11.4356 10.0126C11.4356 10.0144 11.436 10.0162 11.4367 10.0178C11.9221 10.8156 12.8573 11.8661 13.8837 11.5677C14.3473 11.433 14.694 11.0124 15.0209 10.6746L16.7764 8.86567L18.4467 7.14371C18.8727 6.70442 19.3581 6.27134 19.6355 5.69322C19.9882 4.95139 19.7821 3.85108 18.8786 3.72468C18.8611 3.72149 18.8431 3.72285 18.8261 3.72863C18.8092 3.73441 18.7939 3.74444 18.7815 3.75784C18.7589 3.74705 18.7336 3.74385 18.7091 3.74867C18.6846 3.7535 18.6622 3.7661 18.6448 3.78478C18.4784 3.96298 18.1257 4.22821 18.0326 4.46444C17.9732 4.61363 18.0524 4.85607 17.993 5.01355C17.9031 5.19993 17.7801 5.36663 17.6304 5.50466C16.9607 6.21747 16.2078 6.86191 15.5024 7.53535C14.9813 8.03059 14.4761 8.52169 13.9966 9.05838C13.8183 9.26559 13.5429 9.651 13.2853 9.72767C12.8494 9.85615 12.5819 9.38784 12.3243 9.10603C12.7206 8.71233 12.7008 8.44087 12.2847 8.06996C12.0014 7.81923 11.6903 7.84824 11.3574 7.97257C11.3119 7.98915 11.2683 8.01402 11.2247 8.03266L11.2088 8.00573C11.0028 7.82533 10.8138 7.62481 10.6441 7.40688C10.3687 6.96344 10.5827 6.50757 10.868 6.12837C11.2643 5.60826 11.7359 5.14203 12.1678 4.65508C12.9227 3.8055 14.6782 1.43704 15.8333 3.02637C15.8435 3.0422 15.857 3.05537 15.8728 3.06486C15.8886 3.07436 15.9063 3.07991 15.9245 3.08112C15.9427 3.08232 15.9609 3.07913 15.9777 3.07179C15.9945 3.06446 16.0095 3.05317 16.0215 3.0388L16.8676 1.96336C16.8784 1.94951 16.8862 1.93334 16.8905 1.91598C16.8947 1.89862 16.8952 1.8805 16.892 1.86291C16.8888 1.84532 16.8819 1.82868 16.8719 1.81417C16.8618 1.79966 16.8489 1.78764 16.8339 1.77895C16.5565 0.863059 15.5361 0.548096 14.7158 0.836124C13.4913 1.2692 12.5126 2.60987 11.613 3.51333C11.0761 4.05208 10.5292 4.58255 10.0022 5.13167C9.63564 5.51294 9.26117 5.94602 9.12049 6.48063C8.8748 7.41517 9.51676 8.2606 10.2023 8.79936C9.94077 9.06666 9.69112 9.35469 9.45534 9.57848ZM11.082 13.6337C10.973 14.104 10.5391 14.4252 10.1983 14.7091C9.82585 15.0199 9.4593 15.3307 9.09275 15.6561L6.74287 17.693C6.11677 18.2359 5.33017 19.1228 4.45045 19.1145C3.63216 19.1145 3.00011 18.1344 2.4691 17.5687C1.9381 17.003 1.43682 16.4373 1.10792 15.7431C0.160835 13.7435 2.19964 12.2681 3.436 11.0704C4.25232 10.2789 5.1142 9.16406 6.22772 8.85116C6.74479 8.72165 7.28821 8.77313 7.77461 8.99771C8.26101 9.2223 8.66351 9.60758 8.92037 10.0944L8.76781 10.2395C8.23087 9.50595 7.50569 8.75998 6.55068 9.13297C6.05138 9.32775 5.65313 9.73182 5.25488 10.0862L3.68764 11.4931C3.61829 11.5553 3.68764 11.6796 3.76689 11.6175C4.53367 10.9295 5.27667 10.1525 6.10884 9.54533C6.57446 9.20964 7.09952 9.05423 7.63052 9.31739C8.04943 9.56328 8.40449 9.91257 8.66478 10.3348L8.57958 10.4177C8.20114 9.97633 7.76128 9.53704 7.1748 9.48316C6.46548 9.41685 5.82155 9.95354 5.29451 10.3763C4.57477 10.9698 3.90645 11.6285 3.29731 12.3448C2.8099 12.9001 2.20559 13.4078 1.95792 14.1413C1.72412 14.8293 1.93018 15.4447 2.29871 16.0311C2.66724 16.6175 3.09125 17.2288 3.6599 17.5604C4.20279 17.8733 4.77143 17.7904 5.29451 17.4692C6.17225 16.9304 6.94893 16.1244 7.74147 15.4551L9.12842 14.2905C9.45336 14.0149 9.82981 13.7476 10.0577 13.3705C10.4381 12.7489 10.0339 12.2951 9.67526 11.8019L9.74858 11.7252C10.1686 12.1106 10.7194 12.6639 10.4321 13.3083C10.2201 13.787 9.67527 14.1227 9.29683 14.4459C9.22749 14.5081 9.30673 14.6324 9.37806 14.5723C9.81396 14.1952 10.5134 13.7725 10.6362 13.1426C10.7591 12.5126 10.2637 12.0008 9.84368 11.6195L10.0696 11.3895C10.4837 12.0153 11.2762 12.7924 11.0781 13.6337H11.082ZM6.84392 13.012C6.99847 13.4638 7.44823 13.5487 7.85243 13.4265C8.48844 13.2192 9.04124 12.5271 9.51082 11.9863C9.73075 12.2619 10.024 12.5831 9.98039 12.9478C9.92095 13.4575 9.24532 13.8761 8.90452 14.1641L6.87959 15.8654C6.24555 16.402 5.50651 17.2661 4.7001 17.4754C3.80652 17.7054 3.16852 16.8538 2.71876 16.1907C2.12435 15.3452 1.88461 14.5122 2.53251 13.6026C2.99278 13.0089 3.48914 12.4469 4.01852 11.92C4.62625 11.2473 5.30489 10.6488 6.04147 10.1359C6.51303 9.82092 7.03215 9.5847 7.58693 9.84994C7.91118 10.0321 8.19692 10.2809 8.42702 10.5814C8.06641 10.9295 7.70779 11.2756 7.35313 11.6278C6.99847 11.9801 6.64777 12.4629 6.83996 13.0141L6.84392 13.012ZM13.3824 9.95147C13.9768 9.6365 14.3929 8.9154 14.8763 8.44917C15.8075 7.55607 16.7685 6.69199 17.6819 5.77817C17.9399 5.56015 18.1376 5.27401 18.2545 4.94932C18.2803 4.85607 18.2545 4.67165 18.2803 4.59291C18.2861 4.57937 18.2927 4.56622 18.3001 4.55354C18.6963 4.7048 18.4625 5.17518 18.3001 5.38239C18.1911 5.51916 18.0583 5.63934 17.9375 5.76574L17.1291 6.60496C17.0637 6.67127 17.1727 6.76866 17.2361 6.70235C17.5214 6.40604 19.3958 4.83742 18.3734 4.41263C18.5027 4.24569 18.6459 4.09106 18.8014 3.95055H18.8212C19.5305 4.05001 19.691 4.89337 19.4493 5.486C19.267 5.92737 18.9163 6.27756 18.5973 6.61118C17.8761 7.36129 17.1489 8.10312 16.4178 8.84909C15.6867 9.59506 15.0309 10.4488 14.2383 11.0621C13.2278 11.8392 12.148 10.7161 11.6229 9.85408C11.6129 9.83786 11.5993 9.82437 11.5833 9.81471L11.8112 9.58055C12.358 10.0095 12.9029 10.973 13.6875 10.5337C14.064 10.3265 14.3453 9.8893 14.6267 9.56605L15.7184 8.30826C15.7798 8.23781 15.6708 8.14042 15.6094 8.21087C15.0546 8.84909 14.5236 9.52875 13.9371 10.1338C13.1089 10.9855 12.5502 9.98669 11.9142 9.47487L12.1262 9.2573C12.4729 9.64686 12.8335 10.2416 13.3824 9.95354V9.95147ZM9.4811 6.22162C9.89718 5.35546 10.8086 4.67372 11.4624 4.01686C12.2292 3.24602 12.9683 2.41509 13.7905 1.70849C14.5652 1.04334 16.2018 0.448631 16.6159 1.88255L16.0988 2.53942C15.8981 2.3027 15.6455 2.12053 15.3626 2.00859C15.0797 1.89665 14.775 1.85829 14.4748 1.89682C14.1745 1.93536 13.8878 2.04963 13.6391 2.22979C13.3905 2.40996 13.1875 2.65062 13.0475 2.93106C13.002 3.01601 13.1327 3.08232 13.1763 2.99737C13.3067 2.73705 13.496 2.51402 13.7277 2.3477C13.9593 2.18138 14.2264 2.07682 14.5055 2.04311C14.7846 2.0094 15.0674 2.04757 15.3293 2.1543C15.5911 2.26103 15.824 2.43308 16.0077 2.65546L15.9264 2.757C14.6901 1.28992 12.9544 3.39107 12.1341 4.31732C11.7378 4.76076 11.3416 5.19798 10.9453 5.64349C10.6798 5.94602 10.3886 6.28171 10.2875 6.68992C10.125 7.33643 10.5847 7.72599 10.979 8.14042C10.9017 8.18808 10.8264 8.2461 10.7511 8.30205C10.7511 8.30205 10.7511 8.30204 10.7511 8.29168C10.2499 7.78194 9.76047 7.18102 10.1567 6.42676C10.45 5.86313 10.8918 5.35546 11.2584 4.84157C11.3119 4.7649 11.2049 4.66751 11.1494 4.74418C10.872 5.13374 10.5926 5.52123 10.3172 5.91287C10.1306 6.1427 9.98802 6.40791 9.89718 6.69406C9.7248 7.38409 10.2122 7.93735 10.6481 8.38493C10.5589 8.45746 10.4698 8.53412 10.3846 8.61494C9.65347 8.0596 9.01746 7.18309 9.4811 6.2154V6.22162ZM10.4262 8.94026C10.4604 8.94086 10.4935 8.92762 10.5186 8.90329C10.5437 8.87897 10.5589 8.84544 10.5609 8.80972C10.7301 8.6441 10.9138 8.49562 11.1098 8.36628C11.2897 8.24525 11.4924 8.16609 11.7042 8.1342C12.0251 8.06167 12.2233 8.2606 12.2986 8.73719C12.2411 8.87395 12.045 9.01279 11.9439 9.1164L9.45534 11.6776C9.43511 11.6905 9.41813 11.7082 9.4058 11.7294C8.99368 12.1438 8.59345 12.6743 8.11 13.0058C7.62655 13.3373 6.94695 13.1674 7.05196 12.5023C7.1015 12.1894 7.31746 11.9946 7.52352 11.7915C7.96735 11.3522 8.41315 10.9212 8.85895 10.4923C8.86758 10.4891 8.87553 10.4842 8.88233 10.4778C8.88913 10.4714 8.89465 10.4636 8.89858 10.455L9.80603 9.58263C10.0042 9.38163 10.2122 9.14748 10.4262 8.94026Z" fill="#EC1E29"/>
</svg>
