<svg width="13" height="15" viewBox="0 0 13 15" fill="none" xmlns="http://www.w3.org/2000/svg">
<path d="M11.5891 12.4414C11.7202 12.167 11.834 11.8839 11.9299 11.5939C12.0945 11.1813 12.2071 10.748 12.2647 10.305C12.3024 9.988 12.3578 9.11977 11.9021 9.0431C11.6499 9.03241 11.4033 9.12284 11.2126 9.2959C10.9372 9.50312 10.6658 9.71033 10.4062 9.91754C10.2893 9.84502 10.1031 9.72691 9.91485 9.61294C10.113 9.33113 10.3111 9.04103 10.4815 8.74886C11.3711 7.37089 12.0805 5.76705 12.1815 4.09276C12.2251 3.39444 12.1082 2.64226 11.6624 2.09936C11.5771 1.99435 11.4777 1.9029 11.3672 1.82791C11.4385 1.71808 11.5019 1.59997 11.5653 1.486L11.6188 1.50465C12.0151 1.62898 12.3341 1.23527 12.3063 0.84364C12.2891 0.734715 12.2428 0.633112 12.1727 0.550598C12.1025 0.468084 12.0115 0.408036 11.9101 0.377408C11.8298 0.342229 11.7407 0.335676 11.6565 0.35876C11.4929 0.399352 11.3508 0.504864 11.2602 0.653003C11.1891 0.761591 11.1601 0.894416 11.1793 1.0245C11.1984 1.15458 11.2642 1.27218 11.3632 1.35339C11.2978 1.47357 11.2285 1.59375 11.1552 1.70772C10.8294 1.56443 10.4746 1.50818 10.1229 1.54402C8.40506 1.69115 6.97453 3.27426 6.01358 4.62737C5.65012 5.14202 5.32615 5.68593 5.04469 6.254C5.00507 6.3286 4.96545 6.40527 4.9278 6.48194C4.72967 6.34518 4.49982 6.20841 4.37103 6.12553C4.43443 5.78363 4.48397 5.43551 4.52161 5.08946C4.57796 4.83518 4.54046 4.56803 4.41661 4.34142C4.13724 3.956 3.42594 4.41601 3.17827 4.59836C2.83163 4.85988 2.51864 5.16701 2.24703 5.51217C2.04823 5.73759 1.86295 5.97565 1.69226 6.22499C1.23385 6.86394 0.897493 7.58929 0.701583 8.36137C0.676776 8.48211 0.6763 8.60693 0.70018 8.72787C0.724059 8.84882 0.771773 8.96323 0.840279 9.06382C0.773824 9.24471 0.778094 9.44568 0.852167 9.6233C0.97501 9.86989 1.30985 10.0502 1.53771 10.1641C1.79173 10.3159 2.07303 10.4112 2.36394 10.4439C2.45282 10.4388 2.53857 10.4078 2.61142 10.3543C2.68428 10.3008 2.74131 10.2271 2.77605 10.1413C2.82163 10.136 2.8663 10.1241 2.90881 10.1061C3.12975 9.9986 3.3028 9.80649 3.39226 9.56943C3.60822 9.45753 3.82617 9.35185 4.04412 9.24617C4.02253 9.49739 4.06135 9.75026 4.15705 9.98178C3.80041 10.2408 3.56265 10.5413 3.73899 11.0178C3.91533 11.4944 4.48595 11.8467 4.89411 12.0974C5.36171 12.3938 5.83525 12.7398 6.39201 12.8103C6.94877 12.8807 7.06369 12.4829 7.1687 12.0125C7.44213 11.9708 7.70145 11.859 7.9236 11.6872C7.93945 11.94 7.95133 12.1907 7.95728 12.4414C7.80013 12.6359 7.7194 12.8854 7.7314 13.1397C7.73045 13.157 7.73045 13.1743 7.7314 13.1915C7.68191 13.2521 7.64521 13.3229 7.6237 13.3993C7.60219 13.4757 7.59635 13.556 7.60658 13.635C7.65611 13.9396 8.00284 14.1944 8.22277 14.3581C8.45624 14.5561 8.72594 14.7021 9.01531 14.7871C9.11237 14.7997 9.21088 14.785 9.30072 14.7445C9.39056 14.7041 9.46849 14.6394 9.5265 14.5571C9.64986 14.578 9.77611 14.5703 9.8963 14.5345C10.0165 14.4986 10.1277 14.4356 10.222 14.3499C10.7914 13.8122 11.2557 13.1641 11.5891 12.4414ZM10.2021 10.104C9.63732 10.5991 9.10138 11.1291 8.59725 11.6913C8.49596 11.3913 8.42944 11.0796 8.39911 10.763C8.38573 10.6236 8.39852 10.4828 8.43676 10.3486C8.61706 10.1413 8.90039 9.83673 9.01531 9.72691C9.13023 9.61709 9.24713 9.54249 9.38979 9.61915C9.58 9.73105 9.95052 9.95484 10.2021 10.104ZM10.2021 8.73435C10.1521 8.73417 10.1039 8.71419 10.0674 8.67841C10.0365 8.6354 10.0166 8.58483 10.0096 8.5315C10.0027 8.47818 10.009 8.42389 10.0278 8.3738C10.0484 8.31181 10.0874 8.2583 10.139 8.22104C10.1907 8.18378 10.2523 8.16471 10.3151 8.16659C10.3509 8.16404 10.3869 8.16894 10.4209 8.18104C10.4549 8.19313 10.4863 8.21217 10.5132 8.23704C10.4201 8.40488 10.3091 8.57065 10.2002 8.73435H10.2021ZM11.4484 0.849856C11.4781 0.765745 11.537 0.696423 11.6134 0.655713C11.6898 0.615004 11.778 0.605898 11.8605 0.63021C11.9127 0.652621 11.9585 0.688862 11.9932 0.735369C12.0279 0.781877 12.0505 0.837046 12.0587 0.895443C12.0646 0.944104 12.0602 0.993543 12.0457 1.04019C12.0312 1.08684 12.0069 1.12954 11.9747 1.16521C11.9425 1.20088 11.9031 1.22863 11.8594 1.24645C11.8157 1.26428 11.7688 1.27175 11.722 1.26831C11.6752 1.26487 11.6297 1.25061 11.5888 1.22656C11.548 1.20252 11.5127 1.16928 11.4855 1.12925C11.4584 1.08922 11.4401 1.0434 11.432 0.995082C11.4239 0.946767 11.4261 0.897166 11.4385 0.849856H11.4484ZM10.4577 1.7989C11.5772 1.82376 11.92 2.73965 11.9358 3.75085C11.8805 3.75602 11.8248 3.75602 11.7694 3.75085C11.6297 3.73816 11.4924 3.70539 11.3612 3.65346C11.1046 3.56031 10.8561 3.44455 10.6182 3.30742C10.321 3.14143 10.0562 2.91862 9.83757 2.65055C9.67326 2.45071 9.54806 2.21908 9.46905 1.96881C9.78347 1.85344 10.1146 1.79595 10.4478 1.7989H10.4577ZM5.94225 5.21378C6.00539 5.28041 6.05051 5.36335 6.07301 5.45415C6.08207 5.50469 6.07883 5.55679 6.06359 5.60567C6.04836 5.65455 6.02162 5.69865 5.98583 5.73389C5.93379 5.7852 5.8684 5.81927 5.79789 5.8318C5.72738 5.84434 5.6549 5.83479 5.58956 5.80435C5.7025 5.60335 5.81941 5.40649 5.94225 5.21378ZM5.54598 5.86444C5.62916 5.9027 5.72162 5.91309 5.81068 5.89417C5.89973 5.87524 5.98099 5.82794 6.04329 5.75876C6.07828 5.71619 6.10406 5.66621 6.11886 5.61225C6.13366 5.55828 6.13712 5.50161 6.12903 5.44612C6.12094 5.39062 6.10148 5.33761 6.07197 5.29072C6.04247 5.24382 6.00362 5.20415 5.95809 5.17441C6.52579 4.26555 7.23035 3.45874 8.04446 2.78524C8.45201 2.44672 8.90803 2.17749 9.39574 1.98746C9.43813 2.18663 9.51978 2.37435 9.63547 2.53865C9.84718 2.85839 10.1239 3.12516 10.4459 3.31985C10.721 3.49607 11.0132 3.64125 11.3176 3.75292C11.506 3.83337 11.7088 3.87014 11.9121 3.86068C11.8953 4.53221 11.7873 5.19784 11.5911 5.8375C11.3338 6.66103 10.9791 7.44766 10.535 8.17902C10.481 8.1368 10.4176 8.1097 10.3507 8.10028C10.2722 8.08556 10.1911 8.09778 10.1197 8.13512C10.0483 8.17245 9.99037 8.23292 9.95448 8.30749C9.92114 8.37174 9.90518 8.44428 9.90832 8.5173C9.91146 8.59032 9.93359 8.66107 9.97231 8.72192C10.0094 8.77573 10.0646 8.81277 10.1269 8.82553C9.97429 9.05139 9.81578 9.27518 9.65133 9.49276C9.57802 9.45131 9.50867 9.41609 9.45319 9.38708C9.37674 9.34907 9.29117 9.33587 9.20748 9.34916C9.1238 9.36245 9.04582 9.40164 8.98361 9.46168C8.93606 9.4969 8.86473 9.56321 8.78548 9.64402C8.68864 9.66106 8.59028 9.66662 8.49224 9.6606C8.29761 9.63147 8.10886 9.56917 7.9335 9.47618C8.09421 9.2468 8.16829 8.96346 8.14154 8.68048C8.12004 8.46285 8.04045 8.25595 7.91187 8.08337C7.78329 7.91079 7.61091 7.7795 7.41439 7.7045C7.29695 7.64807 7.16916 7.61907 7.03991 7.61954C6.60798 7.59053 6.22954 7.94486 6.01358 8.30334C5.85934 8.17347 5.71735 8.02845 5.58956 7.87027C5.4878 7.73901 5.41962 7.58285 5.39143 7.41647C5.40851 7.35399 5.4211 7.29027 5.42908 7.22583C5.45114 7.14037 5.448 7.04993 5.42007 6.96636C5.39214 6.8828 5.34072 6.81 5.27255 6.75753C5.23293 6.72437 5.18736 6.68915 5.13584 6.65392C5.2785 6.37418 5.41323 6.11724 5.5539 5.86444H5.54598ZM7.16672 9.53627C7.02047 9.52842 6.87814 9.48407 6.75164 9.40693C6.62513 9.32978 6.51812 9.22208 6.43956 9.09284C6.22557 8.67841 6.43956 8.22461 6.7546 7.93658C6.9045 7.88452 7.06405 7.87032 7.22021 7.89514C7.26057 7.90399 7.3003 7.91576 7.3391 7.93036C7.50399 7.98988 7.64702 8.10172 7.74825 8.2503C7.84947 8.39888 7.90384 8.57678 7.90378 8.75922C7.90749 8.89854 7.88005 9.03684 7.82364 9.16311C7.76722 9.28938 7.6834 9.40013 7.57883 9.48654C7.44942 9.53484 7.31124 9.55184 7.17464 9.53627H7.16672ZM7.32523 9.63988C7.1579 9.70417 6.97527 9.7107 6.80413 9.65853C6.33851 9.51762 6.01159 9.00788 6.18 8.51471C6.23736 8.35258 6.3352 8.20947 6.46335 8.10028C6.36467 8.25709 6.30484 8.43712 6.28928 8.62414C6.27371 8.81116 6.30289 8.99929 6.37418 9.17157C6.46258 9.30799 6.58032 9.42085 6.71796 9.5011C6.85559 9.58134 7.00928 9.62675 7.16672 9.63366C7.2219 9.64101 7.27761 9.64309 7.33315 9.63988H7.32523ZM5.11602 6.94609C5.24877 7.03934 5.24878 7.15331 5.19924 7.34187C5.15962 7.50143 5.03677 7.90964 4.94563 8.17073C4.85615 8.25477 4.75534 8.32459 4.64644 8.37794C4.35562 8.51021 4.04792 8.59747 3.73304 8.63696C3.9741 7.90771 4.1726 7.16382 4.32745 6.40941C4.57115 6.57311 4.93572 6.80933 5.12395 6.94402L5.11602 6.94609ZM1.01067 8.84832C1.12114 8.43434 1.26497 8.0309 1.44062 7.64234C1.62885 7.22791 1.86661 6.8342 2.08059 6.42806C2.08059 6.42806 2.08059 6.4177 2.08059 6.42806C1.55342 7.08085 1.17172 7.84812 0.963122 8.67426C0.935351 8.48008 0.958631 8.28167 1.03048 8.10028C1.09983 7.89306 1.17513 7.70864 1.26032 7.52007C1.54882 6.94889 1.88566 6.40589 2.26684 5.89759C2.66614 5.41413 3.1191 4.98215 3.61614 4.61079L3.75483 4.54034C3.98863 4.43466 4.27395 4.39115 4.31358 4.72062C4.32449 4.98083 4.3025 5.2414 4.24819 5.4956C4.11795 6.38264 3.91917 7.25719 3.65378 8.11064C3.53688 8.49813 3.41405 8.88354 3.27733 9.26275C3.21054 9.47792 3.09655 9.67378 2.94447 9.83466C2.78002 9.98593 2.50263 9.89061 2.32629 9.83466C2.17006 9.7782 2.01834 9.70891 1.87255 9.62745C1.93794 9.31455 1.99342 9.0058 2.04691 8.68669C1.98342 8.84346 1.93303 9.0057 1.89633 9.17157C1.8567 9.30833 1.825 9.44509 1.79528 9.586L1.71008 9.53627C1.81704 9.13948 1.89977 8.73599 1.95775 8.32822C1.8156 8.70127 1.70553 9.08683 1.62885 9.48032C1.58724 9.45339 1.54762 9.42438 1.50799 9.39537C1.63876 8.91877 1.79133 8.45047 1.90426 7.97181C1.70693 8.40446 1.54647 8.85448 1.42477 9.31662L1.32768 9.23374C1.49808 8.64732 1.71207 8.07956 1.89831 7.49936C1.6049 8.01598 1.38467 8.57436 1.24447 9.15707C1.21655 9.13033 1.19008 9.10197 1.16521 9.07211C1.35262 8.3635 1.6089 7.6768 1.93002 7.02276C1.53277 7.60642 1.24747 8.26508 1.08992 8.96229C1.06185 8.92669 1.03791 8.88774 1.01859 8.84625L1.01067 8.84832ZM2.40752 10.3278C2.18957 10.3734 1.88048 10.2014 1.68631 10.1206C1.41721 10.0075 1.1746 9.83507 0.97501 9.61501C0.935184 9.55071 0.908921 9.47827 0.897988 9.40252C0.887055 9.32677 0.891701 9.24945 0.911605 9.17572C1.23117 9.53463 1.62491 9.81245 2.06277 9.988C2.24557 10.077 2.44095 10.1344 2.64132 10.1579C2.61628 10.2002 2.5834 10.2369 2.54461 10.2657C2.50582 10.2945 2.46189 10.315 2.41544 10.3258L2.40752 10.3278ZM4.47605 8.78823C4.16101 8.94364 3.84201 9.08662 3.52896 9.24617C3.59038 9.08247 3.64784 8.91463 3.70332 8.74679C4.07593 8.70072 4.43875 8.59081 4.77722 8.42146C4.81565 8.39902 4.8527 8.37411 4.88817 8.34686L4.86835 8.39245C4.7873 8.56939 4.64804 8.70989 4.47605 8.78823ZM5.3518 7.60918C5.3806 7.68112 5.41507 7.75043 5.45483 7.8164C5.59399 8.03521 5.76749 8.22787 5.96801 8.38624C5.65694 9.03896 6.1919 9.73727 6.79423 9.92169C6.98926 9.97502 7.19487 9.96839 7.38639 9.9026C7.57792 9.83681 7.74724 9.71466 7.87406 9.55078C8.1183 9.68596 8.39028 9.75707 8.6666 9.75799C8.44073 9.988 8.18513 10.2677 8.11182 10.3651C7.9992 10.5041 7.92276 10.6711 7.88991 10.85C7.88894 10.8562 7.88894 10.8625 7.88991 10.8687C7.6667 10.9157 7.43609 10.9079 7.21626 10.8459C6.88453 10.7537 6.56651 10.6143 6.27115 10.4314C5.95111 10.2354 5.65447 10.0003 5.38746 9.73105C5.23788 9.58447 5.10492 9.42039 4.99119 9.24203C4.92448 9.11769 4.86559 8.98895 4.81486 8.85661C4.9326 8.74648 5.02476 8.6097 5.08432 8.45669C5.1398 8.3365 5.26859 7.93658 5.35577 7.60918H5.3518ZM3.96486 10.5102C4.0484 10.3856 4.14622 10.2722 4.25612 10.1724C4.29435 10.245 4.33807 10.3143 4.38688 10.3796C4.29064 10.4571 4.20758 10.551 4.1412 10.6573C4.07725 10.7404 4.01835 10.8276 3.96486 10.9184C3.93054 10.8549 3.91234 10.7833 3.912 10.7104C3.91165 10.6375 3.92916 10.5657 3.96287 10.5019L3.96486 10.5102ZM4.13526 11.1816C4.09544 11.1382 4.05961 11.091 4.02826 11.0406C4.0856 10.951 4.13851 10.8583 4.18677 10.763C4.2629 10.654 4.34633 10.5508 4.43642 10.4542C4.49206 10.5301 4.5516 10.6027 4.61474 10.6718C4.53441 10.7327 4.46413 10.8069 4.40671 10.8915C4.32044 10.9958 4.24536 11.1098 4.18281 11.2313L4.13526 11.1816ZM4.26206 11.3142C4.3215 11.2313 4.36509 11.1318 4.41661 11.051C4.48992 10.937 4.58898 10.8438 4.67022 10.7298C4.74365 10.8087 4.82104 10.8834 4.90204 10.9536C4.78629 11.0282 4.68647 11.127 4.60879 11.2437C4.54872 11.3177 4.49749 11.3992 4.45624 11.4862C4.38689 11.424 4.32348 11.366 4.26008 11.3059L4.26206 11.3142ZM4.54342 11.5545C4.57893 11.4825 4.61932 11.4133 4.66428 11.3473C4.75251 11.2261 4.85062 11.1131 4.95751 11.0096C5.04073 11.08 5.12593 11.1484 5.20915 11.2168C5.12851 11.268 5.05791 11.3348 5.00111 11.4136C4.91381 11.5106 4.83736 11.6177 4.77325 11.7327C4.69201 11.6581 4.61673 11.596 4.54144 11.5463L4.54342 11.5545ZM5.04271 11.8944L4.86637 11.7825C4.90996 11.7162 4.94563 11.6436 4.98526 11.5856C5.06742 11.4624 5.16319 11.3497 5.27057 11.2499C5.37756 11.3307 5.48654 11.4033 5.59155 11.4716C5.53345 11.5452 5.47921 11.622 5.42908 11.7017C5.35867 11.8044 5.28328 11.9033 5.2032 11.998L5.04271 11.8944ZM5.60542 12.2549C5.49843 12.1907 5.39144 12.1223 5.28642 12.0477C5.34379 11.982 5.39738 11.9128 5.44691 11.8405C5.52528 11.7363 5.59178 11.623 5.64505 11.5027C5.73619 11.5608 5.82931 11.6188 5.9264 11.6706C5.89073 11.7576 5.86101 11.8467 5.82336 11.9317C5.78598 12.012 5.74225 12.089 5.6926 12.1617C5.66517 12.1925 5.63535 12.2209 5.60344 12.2466L5.60542 12.2549ZM5.70647 12.3129C5.77691 12.2338 5.83508 12.1436 5.87885 12.0456C5.93726 11.9424 5.97626 11.8285 5.99375 11.7099C6.08292 11.7555 6.17406 11.799 6.26718 11.8363C6.26621 11.8467 6.26621 11.8571 6.26718 11.8674C6.25546 11.9509 6.23758 12.0334 6.21369 12.114C6.16484 12.2399 6.09803 12.3572 6.01556 12.4621C5.90866 12.4169 5.80475 12.3643 5.70449 12.3047L5.70647 12.3129ZM6.17803 12.5202L6.11858 12.4994C6.20245 12.4117 6.26261 12.3023 6.29294 12.1824C6.32981 12.0852 6.35123 11.9823 6.35635 11.8778C6.45032 11.9135 6.54626 11.9432 6.64364 11.9669C6.62328 12.0694 6.59681 12.1704 6.56438 12.2694C6.51799 12.3724 6.4664 12.4727 6.40985 12.5699C6.33071 12.5545 6.25261 12.5337 6.17605 12.5077L6.17803 12.5202ZM6.80215 12.4725C6.76796 12.5153 6.72354 12.5478 6.67342 12.5667C6.62329 12.5856 6.56925 12.5903 6.51683 12.5802C6.57046 12.5065 6.6132 12.4248 6.64364 12.3378C6.69234 12.2273 6.71801 12.1072 6.71894 11.9855C6.79026 12 6.86357 12.0125 6.9349 12.0208C6.91179 12.1736 6.86635 12.3217 6.80017 12.4601L6.80215 12.4725ZM7.71555 11.5463C7.56447 11.6387 7.40173 11.7084 7.2321 11.7535C6.76054 11.8716 6.19388 11.5462 5.80355 11.31C5.33119 11.0314 4.91367 10.6615 4.57313 10.2201L4.52558 10.1538C4.36529 9.85463 4.2897 9.51397 4.30764 9.17157C4.30764 9.17157 4.30764 9.15707 4.30764 9.14878C4.46319 9.09176 4.61155 9.01522 4.74947 8.92084C4.78359 9.03253 4.83014 9.13964 4.88817 9.23996C4.99843 9.42972 5.13162 9.60384 5.28444 9.75799C5.57807 10.065 5.91157 10.3273 6.27512 10.5371C6.59513 10.7368 6.94362 10.8816 7.30739 10.966C7.50144 11.0191 7.70408 11.0283 7.90179 10.993C7.89928 11.1281 7.90658 11.2631 7.9236 11.3971C7.84434 11.4385 7.77896 11.4882 7.71358 11.5338L7.71555 11.5463ZM8.12569 11.0925C8.11282 10.8944 8.16837 10.6981 8.28222 10.5392L8.32779 10.4791C8.26439 10.8935 8.39912 11.3763 8.52592 11.7825C8.40902 11.913 8.29411 12.0436 8.18315 12.1783C8.16928 11.8032 8.14154 11.4426 8.1237 11.08L8.12569 11.0925ZM8.97569 14.6607C8.75274 14.5753 8.54309 14.4559 8.35355 14.3063C8.11424 14.156 7.91093 13.9505 7.75914 13.7054C7.7323 13.6483 7.72123 13.5845 7.72718 13.5212C7.73313 13.4578 7.75586 13.3975 7.79282 13.3469C7.90712 13.5543 8.06169 13.7343 8.24656 13.8753C8.58767 14.1819 8.98664 14.4099 9.41753 14.5446C9.35692 14.5979 9.28496 14.6351 9.20771 14.6531C9.13047 14.6711 9.05021 14.6695 8.97371 14.6482L8.97569 14.6607ZM9.87919 14.2815C10.4773 13.7006 10.9454 12.9888 11.2503 12.1969C11.0244 12.5575 10.8183 12.9325 10.5746 13.2848C10.3186 13.6579 10.0293 14.0048 9.71077 14.3208C9.66723 14.3239 9.62354 14.3239 9.58 14.3208C10.0947 13.8476 10.5172 13.2749 10.8243 12.6341C10.4145 13.2343 9.94713 13.7891 9.42942 14.2898L9.32045 14.2566C9.74572 13.8537 10.1134 13.3889 10.4122 12.8766C10.0159 13.32 9.61963 13.7842 9.22336 14.2172L9.10844 14.1654C9.44481 13.8292 9.7512 13.4616 10.0238 13.0672C9.67709 13.405 9.35215 13.7655 9.01334 14.1033C8.96975 14.0805 8.92616 14.0577 8.88455 14.0328C9.17978 13.7765 9.45294 13.4936 9.70086 13.1874C9.38409 13.4319 9.08233 13.6969 8.79737 13.981L8.71614 13.9292C8.81719 13.838 8.91427 13.7448 9.00937 13.6474C9.13528 13.534 9.25131 13.4092 9.35611 13.2744C9.11637 13.4816 8.87662 13.6702 8.6448 13.8774C8.51024 13.7793 8.38306 13.6705 8.26438 13.5521C8.12965 13.4174 7.91963 13.206 7.97115 12.9822C8.03405 12.7665 8.14547 12.5697 8.29609 12.4083C8.55169 12.1016 8.82115 11.8094 9.08863 11.5193C9.6854 10.8749 10.3308 10.2818 11.0185 9.74556C11.2074 9.57543 11.4173 9.43256 11.6426 9.32077C11.9398 9.20265 12.0389 9.48861 12.0567 9.75384C12.0567 9.80565 12.0567 9.85953 12.0567 9.9134C11.979 10.5461 11.8287 11.1667 11.6089 11.7617C11.3588 12.3524 11.0584 12.9183 10.7113 13.4526C10.5925 13.6184 10.4637 13.78 10.3289 13.9375C10.2093 14.0881 10.0533 14.2025 9.8772 14.269L9.87919 14.2815Z" fill="#EC1E24"/>
</svg>
