<svg width="3" height="10" viewBox="0 0 3 10" fill="none" xmlns="http://www.w3.org/2000/svg">
<path d="M0.19817 0.688383C0.19817 0.688383 0.243735 0.719466 0.303176 0.773342L0.332901 0.802355C0.360076 0.825564 0.385884 0.850472 0.410176 0.876949C0.435934 0.903887 0.461692 0.928755 0.485468 0.957765C0.586768 1.07315 0.679492 1.19646 0.76285 1.32661C0.944904 1.60922 1.1065 1.90567 1.2463 2.21348C1.55163 2.87828 1.76256 3.58612 1.87241 4.31463C1.97662 5.04236 1.97261 5.78257 1.86052 6.50903C1.75705 7.14026 1.58074 7.75604 1.33546 8.34287C1.30772 8.40711 1.28197 8.46927 1.25423 8.53144C1.22649 8.5936 1.20271 8.65162 1.17497 8.70964L1.01647 9.0329L0.976839 9.14686L0.959001 9.17794L0.90353 9.29813V9.25254C0.895179 9.15507 0.873145 9.05942 0.838142 8.96866C0.816483 8.9145 0.784069 8.86576 0.743041 8.82568C0.677657 8.82568 0.685576 8.87334 0.687558 8.89199C0.689539 8.91064 0.687558 8.89199 0.687558 8.89199C0.719649 8.92356 0.745266 8.96163 0.76285 9.00389C0.793121 9.08412 0.811824 9.16862 0.818333 9.25461L0.832204 9.38931V9.46597C0.822298 9.49913 0.822298 9.51571 0.832204 9.50535V9.553H0.846075L0.901547 9.51778L0.929288 9.5012L0.953064 9.48462L0.980805 9.46597L1.03628 9.4266L1.14328 9.34579L1.25027 9.26705L1.29188 9.23804L1.32556 9.21317C1.32556 9.21317 1.37708 9.17587 1.42859 9.14479C1.48011 9.11371 1.53359 9.08677 1.52963 9.08677C1.56123 9.07284 1.59063 9.05398 1.61681 9.03082C1.61681 9.02046 1.59502 9.01632 1.51379 9.03082C1.4359 9.0516 1.36071 9.08222 1.2899 9.122L1.21064 9.1738L1.10166 9.25669L0.994676 9.3375L0.941176 9.3748L0.917401 9.39137C0.968916 9.31885 1.02042 9.23804 1.02042 9.23804L1.03826 9.20488L1.06005 9.16551C1.07544 9.13946 1.08934 9.11248 1.10166 9.0847C1.1294 9.02875 1.15714 8.9728 1.18488 8.91271L1.27404 8.73451C1.30376 8.67235 1.32952 8.60603 1.35725 8.5418C1.6184 7.94674 1.80872 7.32042 1.92393 6.67687C2.05546 5.93288 2.07084 5.17152 1.9695 4.42238C1.9695 4.37473 1.96949 4.32499 1.94968 4.27941L1.92393 4.13643L1.87241 3.85255L1.80504 3.57487C1.78126 3.48163 1.75947 3.38838 1.72975 3.29928L1.64654 3.02783L1.62673 2.96152L1.60097 2.89521L1.55341 2.76467C1.51972 2.67764 1.48802 2.59061 1.45632 2.50565C1.42462 2.4207 1.38301 2.33781 1.34537 2.257C1.20314 1.94065 1.03961 1.63527 0.85598 1.34318C0.768839 1.20727 0.672844 1.0778 0.568682 0.955691C0.518872 0.896704 0.465956 0.840669 0.410176 0.787848L0.358659 0.740187C0.322849 0.707387 0.28513 0.676936 0.245721 0.649012C0.184299 0.620002 0.184301 0.66559 0.19817 0.688383Z" fill="#201D5A"/>
</svg>
