<svg width="1" height="2" viewBox="0 0 1 2" fill="none" xmlns="http://www.w3.org/2000/svg">
<path d="M0.562708 0.901469C0.482251 0.889055 0.408209 0.848409 0.352746 0.786201C0.297284 0.723993 0.263696 0.643917 0.257476 0.559112C0.251256 0.474306 0.272781 0.389809 0.318523 0.319482C0.364264 0.249156 0.431502 0.197173 0.509208 0.172071C0.590443 0.140989 0.552797 0.00630559 0.471562 0.0353156C0.367286 0.0706182 0.277149 0.141089 0.215271 0.2357C0.153392 0.330311 0.123272 0.443717 0.129615 0.558151C0.135958 0.672584 0.178411 0.781581 0.250329 0.86808C0.322247 0.954579 0.419567 1.01369 0.527045 1.03616C0.612243 1.05481 0.647906 0.918046 0.562708 0.901469Z" fill="#EF5023"/>
</svg>
