<svg width="2" height="2" viewBox="0 0 2 2" fill="none" xmlns="http://www.w3.org/2000/svg">
<path d="M0.632812 0.905942C0.631931 0.907885 0.63147 0.910014 0.63147 0.912165C0.63147 0.914315 0.631931 0.916432 0.632812 0.918374C0.635851 1.02181 0.652519 1.12432 0.682346 1.22299C0.700178 1.28722 0.71801 1.35353 0.731879 1.41569C0.701568 1.46361 0.680064 1.51702 0.668475 1.57318C0.658519 1.62124 0.659998 1.67113 0.67278 1.71846C0.685562 1.76579 0.709255 1.80911 0.741784 1.84463L0.755655 1.85706L0.880481 1.82597V1.7949C0.880481 1.78247 0.880478 1.77003 0.890385 1.7576C0.906874 1.75887 0.923429 1.75887 0.939919 1.7576C0.993362 1.76377 1.04745 1.7585 1.09888 1.74211C1.15032 1.72572 1.19803 1.69856 1.2391 1.66228C1.27851 1.62655 1.30449 1.57735 1.31241 1.52345C1.31445 1.50001 1.31445 1.47643 1.31241 1.45299C1.29117 1.38452 1.25038 1.32449 1.19552 1.281C1.14547 1.23608 1.08113 1.21242 1.01521 1.21469C0.955006 1.21543 0.896381 1.23491 0.846801 1.27064C0.846801 1.23749 0.828968 1.20434 0.821043 1.17326C0.797183 1.09034 0.78255 1.0048 0.777447 0.918374C0.747726 0.883148 0.718006 0.860363 0.690267 0.862435C0.678308 0.865071 0.667018 0.870305 0.657119 0.877802C0.647221 0.885298 0.638938 0.894882 0.632812 0.905942ZM0.943885 1.4219C0.966826 1.40147 0.995972 1.39025 1.02611 1.39025C1.05624 1.39025 1.0854 1.40147 1.10834 1.4219C1.13161 1.44078 1.15056 1.46486 1.16381 1.49236C1.16381 1.49236 1.16381 1.50479 1.16381 1.51308C1.16381 1.52137 1.15192 1.56281 1.11428 1.59182C1.0639 1.6272 1.00735 1.65185 0.947852 1.66435H0.910206C0.910206 1.64156 0.910206 1.62084 0.910206 1.60012C0.908544 1.54924 0.902571 1.49861 0.892368 1.44884C0.908531 1.43945 0.925873 1.43249 0.943885 1.42813V1.4219Z" fill="#D62027"/>
</svg>
