<svg width="3" height="13" viewBox="0 0 3 13" fill="none" xmlns="http://www.w3.org/2000/svg">
<path d="M0.563026 0.399726C0.634354 0.468107 0.711632 0.532343 0.778998 0.60694L0.977133 0.824513C1.54891 1.49199 1.9569 2.29488 2.16594 3.16396C2.27403 3.59982 2.34367 4.04512 2.37398 4.49428C2.4037 4.94616 2.4037 5.39965 2.37398 5.85153C2.34458 6.30577 2.28834 6.75767 2.20557 7.20464C2.12566 7.65255 2.02381 8.09589 1.90044 8.53288C1.77627 8.97079 1.63163 9.40111 1.46652 9.82383L1.4051 9.98131L1.36944 10.0683L1.33576 10.1512L1.26641 10.317L1.20895 10.4703C1.17328 10.5615 1.12772 10.6775 1.07818 10.8019C0.98506 11.0422 0.88005 11.2722 0.893919 11.2557C0.853793 11.3496 0.818729 11.4457 0.788902 11.5437L0.640301 11.6515L0.471891 11.7675H0.460004V11.4567L0.475846 10.835L0.4917 10.201C0.489956 10.1894 0.485148 10.1787 0.477829 10.1699C0.325265 9.96266 0.19054 10.0828 0.137043 10.1699C0.133714 10.173 0.131091 10.1768 0.129376 10.1811C0.127661 10.1854 0.126901 10.1901 0.127139 10.1947L0.111285 10.8288L0.0716553 12.3953V12.472L0.13506 12.4327L0.261869 12.3498L0.501604 12.1944L0.616526 12.1198L0.672009 12.0825L0.709656 12.0576L0.836453 11.9685C1.00289 11.8504 1.16932 11.7281 1.33179 11.6038L1.56757 11.4214C1.56757 11.4214 1.7657 11.2453 1.94997 11.0692C2.13423 10.893 2.3185 10.719 2.30067 10.7294C2.59391 10.4268 2.75242 10.1885 2.18575 10.5553C2.01535 10.6589 1.81524 10.7936 1.65872 10.9013L1.38529 11.0878L1.11781 11.295L1.09998 11.3075C1.14555 11.2412 1.1931 11.1707 1.23867 11.1003L1.4051 10.8226C1.5002 10.6506 1.56955 10.5201 1.56955 10.5201C1.59531 10.4641 1.61909 10.4061 1.64286 10.3481L1.73599 10.1243C1.91194 9.6844 2.06667 9.23557 2.19962 8.77947C2.33465 8.32375 2.44707 7.86105 2.53645 7.3932C2.6243 6.92485 2.68648 6.45163 2.7227 5.97586C2.75836 5.49806 2.76234 5.01824 2.73459 4.53987C2.7041 4.05879 2.63182 3.58161 2.51863 3.11423C2.40488 2.64465 2.2407 2.19003 2.02923 1.75905C1.81642 1.32709 1.54993 0.926458 1.23669 0.567569L1.01676 0.333416C0.943452 0.254675 0.86222 0.186294 0.784948 0.11377H0.753239C0.505571 0.11377 0.513501 0.296115 0.535296 0.389362C0.539016 0.39295 0.543385 0.39572 0.548151 0.3975C0.552917 0.39928 0.557974 0.400038 0.563026 0.399726Z" fill="#70BE44"/>
</svg>
