<svg width="2" height="2" viewBox="0 0 2 2" fill="none" xmlns="http://www.w3.org/2000/svg">
<path d="M0.298326 1.2796C0.316227 1.32983 0.339492 1.37779 0.367675 1.42258C0.425854 1.51128 0.505048 1.58268 0.597512 1.62979C0.647611 1.65611 0.702482 1.67101 0.758496 1.67351C0.81451 1.67601 0.870388 1.66606 0.92245 1.6443L0.960096 1.62357L0.993781 1.59871C1.01557 1.5817 1.0361 1.56299 1.0552 1.54276C1.07228 1.52237 1.08816 1.50092 1.10275 1.47852L1.12653 1.44537L1.14437 1.40599C1.19242 1.30372 1.20367 1.18677 1.17607 1.07652C1.17607 1.05166 1.15823 1.01644 1.15427 1.00815L1.13446 0.966702C1.12154 0.939511 1.10698 0.913209 1.09087 0.887959L1.077 0.869311L1.04926 0.832014C1.01143 0.788929 0.968867 0.750677 0.92245 0.718049L0.900658 0.701468L0.910562 0.689036C0.915925 0.676668 0.918701 0.663244 0.918701 0.649664C0.918701 0.636084 0.915925 0.622661 0.910562 0.610293C0.910562 0.610293 0.910562 0.610294 0.910562 0.597861C0.862847 0.566886 0.809585 0.546435 0.75404 0.537767C0.724451 0.533635 0.694466 0.533635 0.664877 0.537767C0.636276 0.543521 0.608372 0.552555 0.581664 0.564706C0.572811 0.569764 0.564213 0.575301 0.555905 0.581286C0.470908 0.632882 0.402074 0.709189 0.35777 0.800933C0.313556 0.898035 0.290546 1.0042 0.290405 1.11175C0.290405 1.13869 0.290405 1.16563 0.290405 1.19256C0.290405 1.2195 0.290401 1.24644 0.298326 1.2796ZM0.480613 0.883817C0.509979 0.814547 0.560036 0.757105 0.62327 0.720116C0.644677 0.708555 0.668535 0.702855 0.692619 0.703542C0.757056 0.750267 0.816212 0.804489 0.868955 0.865169C0.891004 0.888738 0.910908 0.914404 0.9284 0.941837L0.948208 0.972918L0.985854 1.03094L0.999725 1.06202V1.0786C0.999725 1.0786 0.999725 1.08896 0.999725 1.09932C1.02547 1.17006 1.02547 1.24823 0.999725 1.31897C0.993001 1.33614 0.985054 1.35277 0.97595 1.3687L0.942264 1.41843L0.904618 1.45987L0.863012 1.48889C0.83384 1.50384 0.802259 1.51297 0.769888 1.51582C0.735582 1.51474 0.701858 1.50628 0.670821 1.49095C0.601873 1.45729 0.54255 1.40534 0.498753 1.34027C0.454955 1.2752 0.428207 1.19928 0.421169 1.12004C0.422921 1.03751 0.443291 0.956566 0.480613 0.883817Z" fill="#ED222B"/>
</svg>
