<svg width="1" height="2" viewBox="0 0 1 2" fill="none" xmlns="http://www.w3.org/2000/svg">
<path d="M0.684329 1.03003C0.694236 1.0176 0.664516 1.00931 0.573374 0.976155L0.488177 0.943006H0.466386H0.450531L0.460442 0.911919C0.468726 0.873883 0.472056 0.83485 0.470346 0.79588C0.469941 0.75596 0.464616 0.71626 0.454498 0.677766C0.450337 0.659216 0.444356 0.641172 0.43666 0.623901C0.426092 0.597005 0.409023 0.573438 0.387127 0.555517C0.376504 0.54711 0.364214 0.541294 0.351162 0.538506C0.338109 0.535719 0.324626 0.536025 0.311702 0.539404C0.298777 0.542784 0.286743 0.549151 0.27648 0.558034C0.266217 0.566917 0.257987 0.578094 0.252397 0.59074C0.251671 0.596933 0.251671 0.603202 0.252397 0.609395C0.249527 0.620242 0.249527 0.631696 0.252397 0.642544C0.255376 0.648771 0.259402 0.654389 0.264284 0.659124C0.273193 0.662817 0.283117 0.662817 0.292026 0.659124C0.309858 0.659124 0.327689 0.659124 0.333633 0.659124L0.34552 0.694347C0.352524 0.724219 0.356508 0.754779 0.357408 0.785522C0.359295 0.811732 0.359295 0.838054 0.357408 0.864264C0.358115 0.878068 0.358115 0.891905 0.357408 0.905709C0.348933 0.935911 0.339015 0.965648 0.327689 0.99481V1.00724H0.353447L0.402981 1.02175H0.426756H0.440627H0.468363H0.513936H0.555543C0.597136 1.03572 0.641412 1.03856 0.684329 1.03003Z" fill="#BF2026"/>
</svg>
