<svg width="5" height="5" viewBox="0 0 5 5" fill="none" xmlns="http://www.w3.org/2000/svg">
<path d="M4.01536 1.09781C3.61909 1.13511 3.06828 1.24285 3.06828 1.24285L3.14357 1.13719C3.29415 0.929972 3.44672 0.722751 3.42888 0.7414C3.52176 0.63091 3.59491 0.503875 3.64485 0.366343C3.64485 0.314539 3.5438 0.366342 3.2882 0.585989C2.97911 0.851223 2.58879 1.27602 2.58879 1.27602L2.48774 1.40241L2.3114 1.45422C2.25592 1.29673 2.20045 1.14132 2.14101 0.985911C2.06373 0.778697 1.98448 0.588061 1.89928 0.391208C1.89185 0.382865 1.88314 0.375869 1.87352 0.370491C1.64963 0.252379 1.57632 0.424365 1.56245 0.523828C1.56037 0.527983 1.55928 0.532605 1.55928 0.537297C1.55928 0.541989 1.56037 0.546611 1.56245 0.550767C1.64567 0.741403 1.72294 0.93411 1.79823 1.13096C1.85173 1.27187 1.90523 1.41485 1.95476 1.55782L1.32271 1.09781L0.825389 0.73519C0.8149 0.733295 0.804177 0.733295 0.793687 0.73519C0.767868 0.736172 0.742401 0.74177 0.718395 0.751758L0.66094 0.778697C0.630136 0.793539 0.604017 0.817263 0.585648 0.847081C0.551965 0.900957 0.585648 0.98799 0.597536 1.0315C0.598202 1.03583 0.599796 1.03993 0.602198 1.04352C0.6046 1.04711 0.607749 1.05009 0.611407 1.05222L1.11466 1.41899L1.50103 1.7008C1.2494 1.77954 0.995785 1.86244 0.744153 1.95361C0.647067 1.98884 0.546023 2.02613 0.450918 2.06965C0.344689 2.11197 0.242524 2.16469 0.145789 2.22712C0.135866 2.23803 0.127823 2.25066 0.122013 2.26443C0.113356 2.28294 0.106709 2.30239 0.102199 2.32244C0.0954469 2.34024 0.0920841 2.35925 0.0922944 2.3784C0.09243 2.40599 0.102306 2.43255 0.12003 2.45299C0.142865 2.48086 0.174503 2.49924 0.209193 2.50479C0.23339 2.50811 0.257256 2.51366 0.280519 2.52137C0.294954 2.5352 0.312799 2.54453 0.332036 2.54831C0.341943 2.54831 0.343921 2.54831 0.347884 2.54831C0.425091 2.50065 0.505943 2.45975 0.589609 2.42605C0.680751 2.38668 0.771891 2.35146 0.866996 2.31623C1.20184 2.19398 1.54264 2.08414 1.88739 1.98054L1.98448 2.05099C1.72096 2.38875 1.4614 2.72652 1.20184 3.06635L0.819446 3.5533C0.818076 3.5643 0.818076 3.57544 0.819446 3.58645C0.819446 3.84754 0.995789 3.8434 1.08891 3.81231C1.09759 3.81032 1.1053 3.80518 1.1107 3.79781L1.49509 3.29843C1.73681 2.98208 1.9792 2.66642 2.22224 2.35146C2.22224 2.36803 2.22224 2.38668 2.23809 2.40326L2.32131 2.69335C2.32131 2.69335 2.4065 2.94409 2.48378 3.19482C2.56105 3.44555 2.63436 3.69006 2.63436 3.66726C2.76711 4.08169 2.90382 4.33242 2.8325 3.63204C2.81664 3.42482 2.78098 3.17409 2.7473 2.97724C2.71362 2.78038 2.68389 2.63534 2.68389 2.63534L2.65418 2.53381L2.97911 2.7721L3.21489 2.95031L3.64287 3.23833C3.85289 3.3813 4.05499 3.52429 4.03914 3.50772C4.15034 3.59853 4.27568 3.66862 4.40965 3.71493C4.43342 3.71493 4.43541 3.68591 4.39974 3.62789C4.33365 3.52946 4.25795 3.43849 4.17387 3.35644C3.94928 3.11746 3.7132 2.89062 3.46653 2.67678L3.18914 2.46957C2.96722 2.30173 2.74334 2.13802 2.51945 1.97225C2.56502 1.9163 2.6086 1.85828 2.65418 1.80026L2.69777 1.7464L2.83646 1.70702L3.11781 1.63034L3.60126 1.46665C3.841 1.38584 4.0748 1.30709 4.05301 1.30916C4.18972 1.27277 4.31829 1.20871 4.43144 1.12061C4.45522 1.06673 4.34823 1.0543 4.01536 1.09781Z" fill="#BC202D"/>
</svg>
