<svg width="10" height="13" viewBox="0 0 10 13" fill="none" xmlns="http://www.w3.org/2000/svg">
<path d="M1.08225 9.27484C1.04513 9.32159 1.01507 9.374 0.993088 9.43025C0.948327 9.53661 0.926022 9.65182 0.927701 9.76801C0.928272 9.81326 0.932917 9.85836 0.941571 9.9027C0.940771 9.91581 0.940771 9.92896 0.941571 9.94207V9.9545V9.9773C0.941571 9.98973 0.953459 10.0105 0.965347 10.0353C0.97843 10.0644 0.992981 10.0928 1.00894 10.1203L1.02875 10.1555C1.08582 10.2439 1.15229 10.3252 1.22689 10.3979C1.3866 10.5391 1.5639 10.6569 1.75393 10.7481C1.94738 10.8434 2.14583 10.9271 2.34833 10.9989L2.66336 11.1066L2.82187 11.1605L2.97444 11.2164C3.38458 11.3843 3.78679 11.6454 4.23061 11.8671C4.45788 11.9862 4.69623 12.0806 4.94191 12.1489C5.00532 12.1655 5.0707 12.1758 5.14005 12.1883C5.20939 12.2007 5.2728 12.2028 5.33818 12.2069H5.49074C5.50919 12.2088 5.52777 12.2088 5.54622 12.2069C5.61794 12.195 5.68787 12.1734 5.75427 12.1427C6.00035 12.0027 6.20572 11.7958 6.34867 11.5438C6.49796 11.3023 6.62722 11.0479 6.73503 10.7834C6.84599 10.5202 6.94505 10.2487 7.0461 9.97937C7.07186 9.91306 7.09762 9.84468 7.12536 9.77215L7.20858 9.56494C7.26405 9.42818 7.31953 9.29349 7.37699 9.15051L8.76394 5.79364L9.12057 4.93371C9.23747 4.64361 9.36428 4.3618 9.47127 4.05926C9.5281 3.90646 9.57057 3.74823 9.59808 3.58682C9.62675 3.41506 9.6145 3.23855 9.56242 3.07292C9.50412 2.90967 9.40404 2.76631 9.27314 2.65849L9.17407 2.58183C9.14156 2.55846 9.10783 2.53701 9.07302 2.51759C9.0017 2.472 8.93433 2.43884 8.87489 2.40362C8.332 2.11766 7.7792 1.86072 7.24225 1.57476C6.97808 1.43662 6.7139 1.28674 6.44972 1.12511C6.18634 0.955431 5.90064 0.826979 5.6017 0.743837C5.44671 0.705427 5.2869 0.692834 5.12816 0.706534C4.96638 0.723199 4.81011 0.776973 4.67047 0.864019C4.53623 0.953555 4.41817 1.0672 4.32175 1.1997C4.27816 1.26809 4.23259 1.33439 4.19296 1.40692L4.08399 1.61413C3.81256 2.15136 3.57174 2.70489 3.36278 3.27185C3.15276 3.82925 2.96651 4.37837 2.7446 4.90677L2.14028 6.45258C1.79355 7.29387 1.46266 8.08957 1.14961 8.82726C1.08621 8.98267 1.04262 9.08835 1.03866 9.09456C1.03469 9.10078 1.03866 9.10907 1.03866 9.11114C1.07234 9.23339 1.15556 9.20646 1.19518 9.17745C1.19518 9.17745 1.24075 9.06763 1.30614 8.91429C1.59542 8.21183 1.91045 7.45343 2.24134 6.65358C2.43947 6.15627 2.65742 5.64652 2.87339 5.12641C3.08935 4.60631 3.28353 4.05926 3.4876 3.51222C3.68866 2.95676 3.91681 2.41246 4.17117 1.88144L4.27222 1.67423L4.37921 1.47945C4.41686 1.41935 4.45252 1.35719 4.49413 1.30124C4.53622 1.24557 4.58261 1.19359 4.63282 1.14583C4.68187 1.09786 4.73567 1.05548 4.79331 1.01943C4.85087 0.984656 4.91202 0.956849 4.97559 0.936545C5.10332 0.8932 5.23846 0.879064 5.37186 0.8951C5.65054 0.934021 5.91954 1.02827 6.1644 1.17277C6.22979 1.20799 6.29121 1.24736 6.36254 1.28466L6.56067 1.40278C6.68946 1.47945 6.82221 1.55611 6.95694 1.62864C7.48596 1.91874 8.03282 2.17362 8.5658 2.44714C8.69855 2.51552 8.83526 2.5839 8.96207 2.65435C9.08481 2.71983 9.19549 2.80752 9.28899 2.91337C9.37614 3.0174 9.43076 3.14683 9.44552 3.28428C9.45745 3.42777 9.4447 3.57234 9.40787 3.71114C9.3242 4.00354 9.21954 4.28893 9.09482 4.56487L8.74412 5.41444C8.27652 6.54168 7.81883 7.64821 7.37501 8.72987L7.04412 9.52557C6.99062 9.65611 6.93515 9.79288 6.88561 9.9255L6.73701 10.3192C6.63795 10.5782 6.53888 10.831 6.41604 11.0693C6.30486 11.3051 6.16355 11.524 5.99599 11.72C5.91608 11.8096 5.8223 11.8846 5.7186 11.9417C5.66981 11.9687 5.61786 11.9889 5.56405 12.0018H5.4848H5.39762C5.16348 11.9967 4.93204 11.9483 4.71406 11.8588C4.29106 11.67 3.87773 11.4584 3.47572 11.2247C3.27827 11.1177 3.07285 11.0277 2.8615 10.9553C2.66336 10.887 2.46523 10.8227 2.26709 10.7481C2.08462 10.6794 1.90659 10.5984 1.73411 10.5057C1.57525 10.4222 1.42904 10.3147 1.30019 10.1866C1.271 10.1569 1.24385 10.125 1.21896 10.0913C1.20707 10.0747 1.1932 10.0581 1.1833 10.0415L1.16546 10.0146L1.15555 9.99801L1.13971 9.96693C1.12907 9.94794 1.12043 9.92779 1.11395 9.90685C1.08306 9.83696 1.06427 9.76188 1.05847 9.68513C1.05469 9.60961 1.05868 9.53389 1.07036 9.45926C1.08951 9.39193 1.10017 9.32227 1.10206 9.25205C1.11593 9.24583 1.09611 9.2479 1.08225 9.27484Z" fill="#056E38"/>
</svg>
