<svg width="1" height="1" viewBox="0 0 1 1" fill="none" xmlns="http://www.w3.org/2000/svg">
<path d="M0.607042 0.985106C0.63848 0.974631 0.666129 0.954387 0.686301 0.92708L0.704126 0.902215L0.716013 0.873215C0.722247 0.852331 0.726234 0.830786 0.727901 0.808979C0.732972 0.782302 0.732972 0.754839 0.727901 0.728162C0.727901 0.692936 0.702151 0.670134 0.686301 0.668062C0.683891 0.666607 0.68115 0.665849 0.678367 0.665849C0.675585 0.665849 0.672856 0.666607 0.670446 0.668062C0.671218 0.658409 0.671218 0.648715 0.670446 0.639062C0.643396 0.63724 0.616255 0.63724 0.589204 0.639062H0.543637C0.51986 0.644958 0.497119 0.654739 0.476266 0.668062C0.454207 0.682844 0.436412 0.703622 0.424761 0.728162C0.41517 0.755303 0.411121 0.784238 0.412874 0.813114C0.416868 0.841149 0.424882 0.868397 0.436649 0.893931C0.450879 0.916001 0.469034 0.935 0.490137 0.949883C0.506007 0.964281 0.524695 0.974886 0.544883 0.98097C0.565071 0.987053 0.586279 0.988465 0.607042 0.985106ZM0.559491 0.813114H0.581283H0.559491Z" fill="black"/>
</svg>
