<svg width="9" height="9" viewBox="0 0 9 9" fill="none" xmlns="http://www.w3.org/2000/svg">
<path d="M1.64511 6.77933C2.03346 7.10406 2.46369 7.36984 2.92308 7.56882C3.40494 7.77392 3.91868 7.88489 4.43881 7.89621C4.33672 8.00374 4.26476 8.13848 4.23077 8.28578C4.20139 8.41444 4.21981 8.54996 4.28229 8.66498C4.29684 8.69465 4.31553 8.72188 4.33776 8.74579C4.3572 8.77162 4.37986 8.79462 4.40513 8.81417C4.45282 8.85295 4.5064 8.88307 4.56363 8.90328C4.64827 8.93032 4.73681 8.94154 4.82517 8.93643C4.89856 8.9329 4.97151 8.92249 5.04312 8.90535C5.17167 8.87483 5.29759 8.83325 5.41958 8.78102C5.6493 8.68309 5.87297 8.57028 6.08927 8.44326C6.30326 8.31893 6.50932 8.18424 6.71142 8.04955C6.91352 7.91486 7.10768 7.80297 7.31969 7.67449L7.64859 7.46728C7.83521 7.33045 8.01508 7.18383 8.18752 7.02799C8.30659 6.9222 8.41726 6.80647 8.51841 6.68194C8.56242 6.63402 8.60037 6.5804 8.63134 6.52238C8.66502 6.47058 8.69276 6.41671 8.71852 6.36905V6.23229C8.68207 6.16959 8.6291 6.11923 8.56596 6.08724C8.52 6.06506 8.46995 6.05374 8.41934 6.05408C8.37028 6.04799 8.32081 6.0613 8.28064 6.09138C8.26677 6.1121 8.28064 6.13282 8.34206 6.16183C8.39784 6.18704 8.44733 6.22532 8.48671 6.27373L8.43123 6.33382C8.23612 6.50958 8.02511 6.66504 7.80116 6.79798C7.60303 6.92438 7.44055 7.00519 7.44055 7.00519C7.31771 7.08601 7.19487 7.16475 7.07004 7.24142C6.87191 7.36575 6.6599 7.48593 6.4479 7.62476C6.23589 7.7636 6.05163 7.88378 5.85349 8.00189C5.65557 8.11963 5.45038 8.22347 5.23927 8.31271C5.14177 8.35528 5.04103 8.38925 4.93811 8.41425C4.86313 8.43218 4.78524 8.43218 4.71026 8.41425C4.69242 8.41425 4.69441 8.41425 4.69044 8.39974C4.68648 8.38524 4.69044 8.39974 4.69044 8.38109C4.71686 8.29962 4.76498 8.22773 4.82914 8.17388C4.83077 8.1622 4.83077 8.15034 4.82914 8.13865C4.8397 8.04987 4.8302 7.95974 4.8014 7.87549C5.15809 7.85049 5.51063 7.78092 5.85151 7.66828C6.82217 7.37511 7.66362 6.7349 8.22913 5.8593C8.51285 5.41149 8.69016 4.89926 8.74626 4.36528L8.76211 4.15807C8.76309 4.14151 8.76309 4.1249 8.76211 4.10834V3.91356C8.76211 3.8286 8.76211 3.74364 8.75022 3.65869C8.75022 3.65869 8.75022 3.63382 8.75022 3.59445C8.75022 3.55508 8.73239 3.49706 8.7205 3.42868C8.70862 3.3603 8.69277 3.28363 8.67295 3.20074C8.65419 3.11456 8.63104 3.02948 8.6036 2.94587C8.54347 2.73181 8.46523 2.52377 8.36981 2.32423C8.30042 2.14312 8.1935 1.98035 8.05675 1.84763C8.02703 1.84763 8.01316 1.86836 8.02307 1.95539C8.04658 2.10636 8.07833 2.25579 8.11817 2.40297C8.17569 2.67187 8.22 2.94368 8.25092 3.21732C8.26281 3.33958 8.27272 3.44318 8.2747 3.51985C8.27668 3.59652 8.2747 3.63796 8.2747 3.63796L8.28659 3.8659C8.28659 3.9032 8.28659 3.94257 8.28659 3.97987V4.12699C8.28765 4.14216 8.28765 4.1574 8.28659 4.17258C8.27424 4.40446 8.23567 4.63399 8.17167 4.85638C8.10601 5.07841 8.01626 5.29185 7.90419 5.49253C7.41746 6.30259 6.66968 6.90382 5.79603 7.18754C5.36178 7.33153 4.90819 7.4015 4.45268 7.39476C3.99799 7.38652 3.5484 7.29318 3.12518 7.11916C2.69847 6.93842 2.29826 6.69566 1.93637 6.39806C1.57455 6.10663 1.26297 5.75273 1.01504 5.35163C0.882423 5.13874 0.779667 4.90706 0.709915 4.66367C0.702717 4.65263 0.693234 4.64343 0.682173 4.63674C0.654152 4.61702 0.62428 4.60036 0.593016 4.587C0.826815 4.47718 1.05863 4.36114 1.29045 4.2451C2.13648 3.81824 2.96468 3.3603 3.78298 2.88785L5.00746 2.17296L6.04964 1.55132L6.6064 1.17626C6.87983 0.989767 7.14929 0.807419 7.12155 0.81778C7.56141 0.496598 7.81503 0.225149 7.00862 0.567052C6.52715 0.757689 5.87132 1.08509 5.87132 1.08509L4.83508 1.70673L3.59476 2.42991C2.76655 2.90857 1.93241 3.37066 1.08241 3.79959C0.846629 3.9177 0.610849 4.03582 0.371106 4.14771C0.361236 4.1576 0.352583 4.16874 0.345348 4.18086C0.242317 4.40258 0.323552 4.51655 0.4246 4.56836L0.38101 4.58286C0.316602 4.62575 0.271018 4.69353 0.254201 4.77143C0.25039 4.78425 0.25039 4.79798 0.254201 4.8108C0.336577 5.09786 0.45731 5.37133 0.612825 5.62308C0.891735 6.06692 1.24081 6.45792 1.64511 6.77933Z" fill="#E87624"/>
</svg>
