<svg width="1" height="1" viewBox="0 0 1 1" fill="none" xmlns="http://www.w3.org/2000/svg">
<path d="M0.175471 0.542447L0.145752 0.577683C0.164653 0.607804 0.191489 0.631545 0.223021 0.646054L0.24878 0.61498L0.306241 0.550744H0.316145L0.355774 0.606696C0.373322 0.62122 0.391864 0.634367 0.411252 0.646054C0.438991 0.658487 0.466728 0.646066 0.458802 0.606696C0.455376 0.584152 0.450075 0.561963 0.442954 0.540386L0.391437 0.469927C0.404877 0.446622 0.416796 0.422396 0.427106 0.397407C0.437013 0.364253 0.427104 0.333169 0.381533 0.355962C0.360971 0.363015 0.34107 0.372034 0.322089 0.382901L0.30228 0.358036C0.271594 0.373068 0.24552 0.396738 0.226988 0.426408L0.24878 0.453347L0.230948 0.472001L0.175471 0.542447Z" fill="black"/>
</svg>
