<svg width="4" height="2" viewBox="0 0 4 2" fill="none" xmlns="http://www.w3.org/2000/svg">
<path d="M3.66475 1.57513C3.40123 1.38657 3.01882 1.13584 3.01882 1.13584L2.77512 1.00322C2.33921 0.755719 1.88698 0.541058 1.42186 0.360862C1.26268 0.301042 1.10065 0.249857 0.936426 0.20752H0.910668C0.882395 0.214786 0.856626 0.230155 0.836246 0.251899C0.815867 0.273643 0.801692 0.300902 0.795311 0.33061C0.78893 0.360318 0.790595 0.3913 0.800124 0.420071C0.809653 0.448842 0.826662 0.474261 0.849246 0.493476C0.853327 0.498623 0.858889 0.50226 0.865101 0.503841C1.01993 0.543991 1.17269 0.5924 1.32279 0.648887C1.77441 0.822739 2.21344 1.03049 2.63643 1.27053L2.84645 1.38243L3.22291 1.55856C3.40916 1.64559 3.5954 1.7264 3.58153 1.71604C3.89855 1.84451 4.11847 1.87767 3.66475 1.57513Z" fill="#092544"/>
</svg>
