<svg width="2" height="3" viewBox="0 0 2 3" fill="none" xmlns="http://www.w3.org/2000/svg">
<path d="M1.5355 1.23311L1.66428 1.1668C1.69202 1.11085 1.65437 1.09013 1.6306 1.08599C1.58284 1.10682 1.53649 1.13105 1.4919 1.15852C1.26544 1.30246 1.06436 1.4861 0.897497 1.70141L0.883627 1.72006L0.863818 1.6952C0.855641 1.68483 0.848351 1.67374 0.842026 1.66204C0.824929 1.63064 0.817973 1.5943 0.822205 1.55844C0.843984 1.47727 0.888917 1.40499 0.950998 1.35122C1.08381 1.23299 1.22562 1.12627 1.37501 1.03211L1.49983 0.943011C1.51569 0.880846 1.47209 0.872559 1.44832 0.872559L1.32746 0.959588C1.17611 1.05515 1.03232 1.16324 0.897497 1.28284C0.822509 1.34684 0.767351 1.43265 0.738992 1.52943C0.727744 1.58389 0.734018 1.6407 0.75683 1.69105C0.764904 1.71049 0.775573 1.72863 0.788526 1.74493C0.797319 1.75893 0.807268 1.7721 0.818251 1.7843H0.830138L0.780605 1.8589C0.74494 1.91277 0.711254 1.96665 0.715217 1.9625C0.66172 2.05368 0.637945 2.12206 0.752863 1.99773C0.804378 1.94385 0.869761 1.87133 0.899481 1.83818L0.927222 1.85683C0.962108 1.87781 0.998548 1.89582 1.03619 1.9107C1.13526 1.948 1.20065 1.95629 1.06195 1.86719C1.02629 1.83818 0.982699 1.80709 0.950998 1.77601L0.968835 1.75529C1.12723 1.54807 1.31899 1.37136 1.5355 1.23311Z" fill="#534098"/>
</svg>
