<svg width="4" height="7" viewBox="0 0 4 7" fill="none" xmlns="http://www.w3.org/2000/svg">
<path d="M3.04875 2.85744C3.07253 2.85744 3.06857 2.82222 3.02299 2.77041C2.97742 2.71861 2.89421 2.6378 2.77334 2.51554C2.62669 2.36158 2.49403 2.19371 2.37707 2.01408C2.32556 1.93119 2.28594 1.86074 2.2582 1.80687C2.24717 1.78746 2.23724 1.7674 2.22847 1.74677L2.21658 1.72398C2.19677 1.68875 2.17696 1.65353 2.16111 1.6183C2.1339 1.56727 2.10943 1.51469 2.0878 1.46082V1.44217V1.42974V1.40694L2.066 1.34063L2.02242 1.21009L2.0026 1.14586C2.0026 1.12306 1.98873 1.09819 1.98279 1.0754L1.94514 0.930351L1.86985 0.652685L1.85202 0.584304C1.85277 0.573957 1.85277 0.563569 1.85202 0.553223L1.83815 0.580158L1.78069 0.698272L1.66578 0.936567C1.5885 1.09612 1.50925 1.25153 1.43198 1.40694L1.31111 1.64938L1.1962 1.88768C1.11893 2.04724 1.04561 2.20886 0.976259 2.37463C0.954464 2.42851 0.932668 2.48031 0.912855 2.53626C0.893041 2.59221 0.873232 2.64401 0.8554 2.69996C0.814289 2.81977 0.787023 2.94429 0.77417 3.07087C0.776069 3.08524 0.780078 3.09922 0.786058 3.11231C0.802425 3.14359 0.823882 3.17164 0.849462 3.1952C0.867168 3.21206 0.888107 3.22477 0.910883 3.2325C0.945387 3.2393 0.981066 3.23344 1.01192 3.21592C1.03915 3.20199 1.06504 3.18534 1.0892 3.16619L1.11892 3.14547L1.14468 3.1206C1.15459 3.1206 1.15459 3.1206 1.15459 3.10403C1.16642 3.01009 1.18767 2.91772 1.21799 2.82843C1.23384 2.7787 1.24969 2.73104 1.26951 2.68131C1.28932 2.63158 1.30715 2.58392 1.32894 2.53419C1.44584 2.24616 1.58652 1.96021 1.72521 1.67632L1.75889 1.60794L1.81635 1.73641C1.84211 1.78822 1.86589 1.84002 1.89362 1.88768L1.91938 1.9312L1.99467 2.04309C2.003 2.05184 2.01031 2.06157 2.01647 2.0721C1.98068 2.17633 1.95155 2.28294 1.92929 2.39121C1.87804 2.61596 1.83902 2.84357 1.81239 3.07294C1.78862 3.28016 1.78267 3.43971 1.78267 3.43971C1.78267 3.56611 1.78267 3.69459 1.79654 3.82099C1.8205 4.18995 1.88703 4.55453 1.99467 4.90679C2.09883 5.27292 2.27801 5.61091 2.51974 5.89727C2.67754 6.07859 2.86467 6.2294 3.07253 6.34278C3.08435 6.34469 3.09637 6.34469 3.10819 6.34278C3.2449 6.31377 3.28849 6.24746 3.30633 6.18115C3.31332 6.11994 3.30079 6.05802 3.27066 6.00502C3.27066 5.99052 3.27066 5.99052 3.25481 5.98638C3.08665 5.89439 2.93565 5.77156 2.80901 5.62375C2.60296 5.38109 2.45073 5.09381 2.3632 4.78246C2.27031 4.46022 2.21314 4.12787 2.19281 3.79198C2.19281 3.68837 2.19281 3.58476 2.18092 3.48323C2.18092 3.48323 2.15913 3.2097 2.15516 2.94033C2.1512 2.67095 2.15516 2.40364 2.15516 2.42644C2.15516 2.35184 2.15516 2.28139 2.15516 2.21922L2.27008 2.34769C2.39339 2.47737 2.53031 2.59207 2.67824 2.6896C2.78752 2.77503 2.91441 2.83251 3.04875 2.85744Z" fill="#F16722"/>
</svg>
