<svg width="7" height="5" viewBox="0 0 7 5" fill="none" xmlns="http://www.w3.org/2000/svg">
<path d="M6.1216 0.432235C6.21279 0.490557 6.30077 0.554206 6.38512 0.622875C6.63873 0.834233 6.52777 0.807293 6.38314 0.70783L6.43069 0.751347C6.46656 0.799066 6.49777 0.850438 6.52382 0.904686V0.886035C6.58128 0.722335 6.60505 0.672606 6.6209 0.693327C6.63643 0.76704 6.63643 0.843405 6.6209 0.917119C6.62486 0.906758 6.60307 1.03938 6.57335 1.16992C6.54363 1.30046 6.50598 1.43308 6.50598 1.43308L6.47428 1.52218L6.40296 1.71904L6.25039 2.11896L6.1751 2.32617L6.10575 2.53339C6.10377 2.56447 6.08593 2.53339 6.07206 2.53339L6.03046 2.50231L5.94724 2.44014L5.88383 2.39248L5.84223 2.36347L5.75902 2.3096C5.70157 2.27438 5.64215 2.2433 5.58272 2.21223L5.58268 2.21221C5.46411 2.15327 5.34078 2.10542 5.21415 2.06923C4.95626 1.99555 4.68815 1.96891 4.42161 1.99049C4.1576 2.01563 3.89927 2.08562 3.6568 2.1977C3.41698 2.31837 3.19265 2.47014 2.98909 2.64943C2.7804 2.82589 2.59042 3.02527 2.42242 3.24413C2.24546 3.4535 2.11489 3.70114 2.04002 3.96938C2.0321 4.00046 2.02219 4.04812 2.02219 4.06263V4.07713C2.01527 4.13493 2.01527 4.1934 2.02219 4.25119C2.02844 4.26917 2.02972 4.28862 2.02586 4.30732C2.02201 4.32601 2.01318 4.34319 2.0004 4.35687C1.99587 4.36198 1.9905 4.36619 1.98454 4.3693C1.87376 4.39794 1.75878 4.40427 1.64574 4.38795C1.44356 4.35385 1.24465 4.30115 1.05133 4.23047L0.888862 4.17452L0.736294 4.10821C0.647134 4.06884 0.540139 4.02326 0.448997 3.98596L0.351912 3.94866C0.337681 3.95058 0.323222 3.94853 0.309997 3.9427C0.296772 3.93688 0.285252 3.9275 0.27662 3.91551C0.262751 3.90929 0.276619 3.90722 0.262749 3.89686C0.248891 3.8865 0.248891 3.87822 0.248891 3.8658V3.86577C0.247766 3.86031 0.247766 3.85466 0.248891 3.8492L0.249174 3.84831C0.280793 3.7491 0.314371 3.64375 0.349929 3.54252C0.560495 2.8823 0.874526 2.26328 1.27918 1.71075C1.48588 1.43759 1.72115 1.18946 1.98059 0.970993L2.10937 0.869457C2.11692 0.852266 2.12851 0.837358 2.14306 0.826124C2.15761 0.81489 2.17466 0.807699 2.19259 0.805221L2.39073 0.666388C2.53239 0.574869 2.67928 0.492519 2.83058 0.419803C3.75067 -0.026161 4.80005 -0.0825923 5.75902 0.262321L5.84223 0.293402L5.88582 0.30998L5.97101 0.349351L6.1216 0.432235Z" fill="#5450A1"/>
</svg>
