<svg width="1" height="3" viewBox="0 0 1 3" fill="none" xmlns="http://www.w3.org/2000/svg">
<path d="M0.183755 1.56358C0.209085 1.64395 0.241588 1.72165 0.280839 1.79566C0.316104 1.8645 0.359365 1.92853 0.409632 1.98629C0.448167 2.04036 0.499335 2.08318 0.558233 2.11063C0.582009 2.11063 0.558224 2.0671 0.486895 1.93656C0.444774 1.85429 0.409641 1.76831 0.38189 1.67962C0.367978 1.6341 0.356721 1.58774 0.348198 1.54079C0.335625 1.49471 0.327016 1.44756 0.322452 1.39988C0.309046 1.28426 0.327603 1.16705 0.37594 1.06212C0.393083 1.02533 0.412955 0.98999 0.435378 0.956442C0.451351 0.935125 0.465291 0.912218 0.476991 0.888057L0.498783 0.854909C0.486895 0.81761 0.514634 0.798952 0.498783 0.76787C0.492891 0.750091 0.480959 0.735203 0.465248 0.726032C0.449538 0.716862 0.431148 0.714052 0.413586 0.71814C0.405306 0.718482 0.397485 0.722198 0.391794 0.728498C0.368251 0.750901 0.348788 0.77758 0.33434 0.807241L0.302631 0.859044C0.271364 0.901358 0.244784 0.947244 0.223385 0.995813C0.163862 1.12893 0.140548 1.27662 0.156013 1.42267C0.162434 1.4702 0.171701 1.51726 0.183755 1.56358Z" fill="#D62027"/>
</svg>
