<svg width="2" height="2" viewBox="0 0 2 2" fill="none" xmlns="http://www.w3.org/2000/svg">
<path d="M1.1307 1.15384C1.10248 1.11795 1.07203 1.08403 1.03956 1.05231L0.841421 0.909334L0.708674 0.809862L0.66509 0.776714L0.649236 0.762207H0.633382H0.621494C0.621494 0.762207 0.621494 0.762205 0.621494 0.772565C0.621494 0.782926 0.621494 0.789146 0.621494 0.789146C0.620635 0.793241 0.620635 0.797483 0.621494 0.801578C0.621494 0.801578 0.621494 0.816078 0.621494 0.822295C0.621494 0.822295 0.722543 0.901042 0.819629 0.971495L1.01776 1.1124C1.01776 1.1124 1.14457 1.18285 1.14259 1.17664C1.15844 1.22637 1.20203 1.22844 1.1307 1.15384Z" fill="black"/>
</svg>
