<svg width="9" height="13" viewBox="0 0 9 13" fill="none" xmlns="http://www.w3.org/2000/svg">
<path d="M1.42845 2.0022C1.33622 2.12928 1.25153 2.26214 1.17484 2.40005C1.09316 2.53315 1.0197 2.67158 0.954915 2.81448C0.826631 3.11146 0.739873 3.4262 0.69733 3.74902C0.620623 4.38659 0.671749 5.03388 0.847431 5.64965C1.02311 6.26542 1.3195 6.83617 1.71773 7.32553C2.12174 7.82825 2.66308 8.18977 3.26913 8.3616C3.34464 8.38334 3.4214 8.39995 3.49896 8.41134C3.53859 8.41134 3.57624 8.42584 3.61586 8.42999H3.73276L3.84966 8.44035H3.98241L4.18054 8.82576L4.3985 9.22776C4.50549 9.41839 4.6105 9.60696 4.74127 9.79967C4.75119 9.80701 4.76181 9.81326 4.77296 9.81832H4.81259L4.79477 9.82868C4.67496 9.93248 4.59885 10.0813 4.58276 10.2431C4.57981 10.2831 4.57981 10.3233 4.58276 10.3633C4.58552 10.4043 4.59351 10.4447 4.60654 10.4835C4.61843 10.5187 4.6323 10.556 4.64617 10.5912C4.66611 10.627 4.68793 10.6616 4.71154 10.6948C4.74091 10.731 4.7734 10.7643 4.80863 10.7943C4.84677 10.8192 4.8865 10.8413 4.92752 10.8606H4.95327C4.94606 10.8678 4.9412 10.8773 4.9394 10.8875C4.90872 10.9688 4.90872 11.0591 4.9394 11.1403C4.96647 11.2435 5.00786 11.3419 5.06224 11.4325C5.08099 11.4627 5.1022 11.4911 5.12565 11.5175C5.14699 11.5467 5.1716 11.5731 5.19896 11.5962L5.28415 11.6646C5.31506 11.6822 5.3468 11.6981 5.37926 11.7123C5.43353 11.738 5.49083 11.7561 5.54966 11.7661C5.60414 11.7753 5.65902 11.7815 5.7141 11.7848C5.76562 11.7848 5.81912 11.7848 5.87064 11.7848L5.97366 11.7703C5.97366 11.7703 5.97366 11.7806 5.97366 11.7869C5.96988 11.799 5.96988 11.812 5.97366 11.8241C6.01118 11.9721 6.09399 12.1031 6.20944 12.1971C6.31347 12.2793 6.43197 12.3391 6.55816 12.3733C6.81861 12.4389 7.09024 12.4389 7.3507 12.3733C7.45922 12.3464 7.5653 12.3096 7.66772 12.2634C7.7237 12.2344 7.77795 12.2019 7.83018 12.1661C7.94653 12.0893 8.04969 11.9927 8.13532 11.8801C8.22017 11.7685 8.28282 11.6403 8.31958 11.503C8.33613 11.4487 8.34416 11.3921 8.34336 11.3351C8.35445 11.1912 8.32483 11.0471 8.25816 10.9207C8.29779 10.8875 8.33741 10.8544 8.37505 10.8171C8.47582 10.7205 8.55672 10.6035 8.61282 10.4731C8.63936 10.4191 8.65425 10.3597 8.65641 10.2991C8.66947 10.1823 8.6473 10.0642 8.59301 9.9613C8.57106 9.91374 8.53759 9.87302 8.49592 9.84318C8.51772 9.7976 8.52564 9.76859 8.52168 9.7748C8.56552 9.66186 8.56552 9.53549 8.52168 9.42254C8.50341 9.36531 8.46615 9.3168 8.41667 9.28578C8.39091 9.28578 8.38496 9.3065 8.39289 9.37281C8.408 9.47625 8.38765 9.58194 8.33543 9.6712C8.21327 9.82498 8.05862 9.94699 7.88368 10.0276C7.71923 10.1126 7.59045 10.1623 7.59045 10.1623C7.4894 10.2141 7.39231 10.2638 7.28334 10.3073C6.99803 10.4317 6.70478 10.5353 6.40559 10.6389L6.17774 10.7218L6.06679 10.7674L5.95979 10.8067C5.81848 10.8588 5.67423 10.9017 5.52786 10.9352L5.39114 10.9601H5.32774H5.3119C5.30264 10.9558 5.29397 10.9502 5.28614 10.9435C5.28067 10.9321 5.27604 10.9204 5.27227 10.9083C5.37209 10.8955 5.47037 10.8719 5.5655 10.8378C5.68438 10.7984 5.79534 10.7508 5.90233 10.7031C6.00933 10.6555 6.10047 10.6099 6.21539 10.5643C6.64138 10.3799 7.06142 10.183 7.47552 9.9613C7.56667 9.91364 7.65582 9.86391 7.74499 9.8121C7.74499 9.8121 7.97482 9.66498 8.18881 9.49092C8.28875 9.41146 8.3822 9.32343 8.46818 9.22776C8.50651 9.18686 8.53859 9.14004 8.56328 9.08892C8.58026 9.05874 8.59421 9.0268 8.6049 8.99361C8.61801 8.95718 8.62471 8.91857 8.6247 8.87964C8.62469 8.8469 8.61817 8.81452 8.60555 8.78455C8.59293 8.75459 8.57448 8.7277 8.5514 8.70558C8.53013 8.68178 8.50379 8.66356 8.47453 8.6524C8.44527 8.64124 8.41391 8.63745 8.38299 8.64134C8.35723 8.6517 8.36912 8.67657 8.41073 8.72423C8.43471 8.75133 8.45055 8.78519 8.45629 8.82162C8.45881 8.84358 8.45538 8.86584 8.44639 8.88585C8.43331 8.91062 8.41732 8.93359 8.39883 8.95424C8.24877 9.09031 8.08142 9.20398 7.90152 9.292C7.73509 9.3811 7.60629 9.44326 7.60629 9.44326C7.50722 9.50128 7.40816 9.55723 7.30513 9.6111C6.90886 9.81832 6.48881 10.0255 6.07074 10.1996C5.9697 10.241 5.8528 10.2949 5.75373 10.3405C5.65467 10.3861 5.5556 10.4296 5.45059 10.4628C5.36069 10.496 5.2665 10.5148 5.17122 10.5187H5.11575H5.07215L5.03847 10.5001C5.03847 10.4897 5.02262 10.4855 5.01469 10.4731L4.9929 10.44C4.98849 10.4251 4.98319 10.4106 4.97705 10.3964C4.97107 10.3685 4.97107 10.3395 4.97705 10.3115C4.98317 10.2537 5.01096 10.2008 5.05432 10.1644C5.05528 10.1561 5.05528 10.1478 5.05432 10.1395C5.06711 10.0646 5.06096 9.98741 5.03649 9.91571L5.19896 9.86183C5.39709 9.80381 5.62297 9.73958 5.80922 9.68777L6.13415 9.60074L6.64137 9.42254C6.78205 9.37074 6.92075 9.31686 7.05945 9.25884C7.19814 9.20082 7.32693 9.16145 7.46562 9.11172C7.60991 9.06111 7.75146 9.00231 7.88963 8.93559C7.9644 8.90124 8.03658 8.86106 8.10559 8.8154C8.14444 8.78908 8.18151 8.76 8.21655 8.72837C8.24312 8.70492 8.26647 8.67772 8.2859 8.64756C8.30814 8.61948 8.32617 8.58804 8.33939 8.55431C8.35864 8.48178 8.35864 8.40513 8.33939 8.33259C8.32701 8.28765 8.31247 8.24338 8.29581 8.19998C8.2641 8.11916 8.23042 8.04664 8.19674 7.97619C8.12739 7.83321 8.05408 7.69852 7.98473 7.56176C7.95105 7.49545 7.91539 7.42914 7.88567 7.35454C7.87018 7.3257 7.85629 7.29594 7.84405 7.26544V7.25301L7.86189 7.20742C7.87285 7.17903 7.88542 7.15136 7.89954 7.12454C7.9319 7.06786 7.96833 7.01382 8.00851 6.96291C8.38497 6.45199 8.64343 5.857 8.76373 5.22438C8.88402 4.59175 8.86289 3.93861 8.70198 3.31594C8.54925 2.69045 8.25809 2.11125 7.85199 1.62507C7.44262 1.1397 6.92455 0.768056 6.34417 0.543415C6.27284 0.514519 6.20009 0.489618 6.12623 0.468818L5.90828 0.40251L5.68637 0.350706C5.6125 0.332203 5.53778 0.317679 5.46248 0.307191L5.2366 0.274038C5.16131 0.274038 5.08404 0.274038 5.00874 0.257461C4.93284 0.253373 4.8568 0.253373 4.7809 0.257461H4.55105C3.93658 0.279836 3.33519 0.449318 2.79316 0.752868C2.25113 1.05642 1.78291 1.48595 1.42449 2.00842L1.42845 2.0022ZM6.34022 11.7413C6.33463 11.7351 6.32788 11.7301 6.3204 11.7268H6.30455H6.33823L6.35012 11.7889C6.34512 11.7749 6.3418 11.7603 6.34022 11.7454V11.7413ZM8.17098 11.103C8.16939 11.1309 8.16608 11.1586 8.16108 11.1859L8.09965 11.159L8.06201 11.1424H8.03228L7.99662 11.13L8.06399 11.0865C8.09966 11.0637 8.13928 11.0347 8.18088 11.0036C8.17692 11.0264 8.17494 11.0616 8.17098 11.1072V11.103ZM5.59523 11.3331C5.75705 11.2957 5.91652 11.248 6.07273 11.1901L6.18765 11.1466L6.29662 11.103L6.51458 11.0243C6.81376 10.9207 7.10898 10.8171 7.41609 10.6824C7.51119 10.641 7.61422 10.5974 7.69942 10.5519L7.84802 10.4607C7.9571 10.3928 8.06169 10.3174 8.16108 10.2348C8.26439 10.1506 8.35578 10.0516 8.43252 9.94057L8.44836 9.91778C8.44755 9.92258 8.44755 9.92749 8.44836 9.93229C8.47194 10.0379 8.47194 10.1478 8.44836 10.2535C8.36897 10.4278 8.23465 10.5683 8.06795 10.6513C7.99067 10.6969 7.91934 10.7321 7.86981 10.757L7.78858 10.7922C7.69149 10.844 7.59044 10.8896 7.48543 10.9331C7.32296 10.9994 7.15652 11.0554 6.98811 11.1051L6.46504 11.2585C6.29933 11.3127 6.13059 11.3563 5.95979 11.389C5.81856 11.4264 5.67002 11.4207 5.53182 11.3724C5.51707 11.3676 5.50306 11.3607 5.49021 11.3517C5.53182 11.3496 5.56947 11.3455 5.60513 11.3372L5.59523 11.3331ZM6.48088 9.04334L6.2986 9.10965L6.21341 9.13866L6.10245 9.17803C6.10319 9.16492 6.10319 9.15177 6.10245 9.13866C6.10454 9.1345 6.10562 9.12988 6.10562 9.12519C6.10562 9.1205 6.10454 9.11587 6.10245 9.11172C6.01329 8.91694 5.93008 8.72008 5.8429 8.51908C5.68332 8.13284 5.50273 7.75648 5.30199 7.39184C5.09714 7.00514 4.81621 6.66826 4.47775 6.40343L4.34103 6.31019L4.20828 6.23351L3.94675 6.08639C3.78333 5.99835 3.62868 5.89354 3.48509 5.7735C3.4292 5.72746 3.38328 5.66955 3.35036 5.60358C3.34014 5.58236 3.33472 5.55896 3.3345 5.5352C3.33549 5.51155 3.34088 5.48832 3.35036 5.46682C3.43571 5.32837 3.55468 5.21611 3.69511 5.14149C3.74192 5.11469 3.791 5.0925 3.84173 5.07519C3.83008 5.12979 3.82214 5.18519 3.81795 5.24096C3.81499 5.30032 3.81499 5.3598 3.81795 5.41916V5.46268V5.51655C3.82106 5.55444 3.8277 5.59191 3.83777 5.62845C3.86159 5.71696 3.91066 5.79575 3.97844 5.85431C4.05026 5.91655 4.14077 5.95031 4.23404 5.94963C4.38316 5.94587 4.52513 5.88203 4.63031 5.77143C4.68607 5.71614 4.73007 5.64918 4.75943 5.57492C4.78879 5.50065 4.80285 5.42075 4.80071 5.34042C4.78929 5.19264 4.73306 5.05254 4.64022 4.9405C4.59977 4.89097 4.55463 4.84584 4.50549 4.80581C4.56172 4.79061 4.61993 4.78501 4.67786 4.78923C4.75599 4.79437 4.83319 4.80969 4.90769 4.83482C4.89802 4.94221 4.90404 5.05051 4.92553 5.156C4.93423 5.19181 4.94481 5.22709 4.95723 5.26168C4.97535 5.30939 5.00005 5.35407 5.03054 5.3943C5.06054 5.43376 5.09844 5.4659 5.14156 5.48845C5.18469 5.511 5.23199 5.52342 5.28019 5.52484C5.32576 5.52484 5.37133 5.49998 5.41889 5.48755C5.44281 5.48111 5.46558 5.47061 5.48626 5.45646C5.50607 5.4461 5.52191 5.43367 5.54173 5.42124C5.62088 5.35975 5.67528 5.26962 5.6943 5.16843C5.70212 5.06771 5.67772 4.96712 5.62494 4.88248C5.58734 4.82361 5.54198 4.7706 5.49021 4.725C5.44497 4.68458 5.39732 4.64721 5.34756 4.6131C5.36201 4.57958 5.38066 4.54822 5.40303 4.51985C5.43738 4.47071 5.48673 4.4353 5.54294 4.41947C5.59914 4.40365 5.65882 4.40835 5.71212 4.43282C5.78258 4.46708 5.84435 4.51819 5.89243 4.58202C5.88436 4.59749 5.87709 4.6134 5.87064 4.62968C5.84768 4.69651 5.83302 4.76615 5.82704 4.83689C5.82704 4.85554 5.82704 4.87833 5.82704 4.89905C5.82533 4.9225 5.82533 4.94606 5.82704 4.96951C5.83295 4.9973 5.84158 5.02438 5.8528 5.05032C5.88154 5.11646 5.93223 5.16946 5.99546 5.19952C6.02401 5.21229 6.05395 5.22133 6.08462 5.22645C6.11033 5.22852 6.13617 5.22852 6.16189 5.22645L6.22331 5.21609H6.23718L6.2788 5.20159C6.30632 5.18874 6.33122 5.17045 6.3521 5.14771C6.38289 5.1133 6.40472 5.07121 6.41551 5.02546C6.42486 4.97551 6.42486 4.92414 6.41551 4.87419C6.39848 4.76451 6.36363 4.65869 6.31248 4.5613C6.33031 4.53643 6.34616 4.51157 6.36598 4.48877C6.40857 4.43331 6.46373 4.38986 6.52646 4.36237C6.54599 4.35436 6.56694 4.35083 6.58789 4.35201C6.60838 4.35386 6.62811 4.36098 6.64534 4.37273C6.69955 4.41671 6.7447 4.47168 6.77809 4.53436C6.81232 4.59752 6.83008 4.66897 6.8296 4.74157C6.81941 4.91361 6.76833 5.08027 6.681 5.22645C6.5855 5.39813 6.48098 5.56416 6.36795 5.72377C6.2415 5.897 6.12759 6.07986 6.02716 6.27081C6.01527 6.29775 6.00339 6.32883 5.9915 6.35991C5.96208 6.455 5.94672 6.55422 5.94593 6.65416C5.94536 6.76954 5.95531 6.88472 5.97564 6.99813C5.97564 7.05408 5.99546 7.10796 6.00537 7.15976C6.01528 7.21157 6.02915 7.26751 6.04301 7.31932L6.07471 7.44364V7.46644L6.10245 7.55969C6.12028 7.62185 6.14009 7.68401 6.15792 7.74411C6.15792 7.74411 6.25897 8.00727 6.35606 8.25593C6.45315 8.50458 6.55419 8.74495 6.55419 8.72216C6.59778 8.81748 6.63543 8.90243 6.66713 8.96874L6.48088 9.04334ZM4.20432 5.38808C4.20262 5.28571 4.21599 5.18367 4.24395 5.08555C4.27345 5.09981 4.3003 5.11946 4.32321 5.14357C4.37236 5.19126 4.41149 5.24912 4.43812 5.31348C4.44629 5.3351 4.4493 5.35848 4.44688 5.38159C4.44447 5.4047 4.43669 5.42684 4.42424 5.4461C4.39654 5.49496 4.35293 5.53174 4.3014 5.54971C4.28313 5.55392 4.2642 5.55392 4.24593 5.54971C4.23404 5.54971 4.23404 5.54971 4.23008 5.54971C4.21919 5.53617 4.21231 5.51961 4.21027 5.50205C4.21027 5.48962 4.21027 5.47097 4.21027 5.45646L4.20432 5.38808ZM5.31783 5.08348L5.32972 5.09798V5.11041C5.33368 5.13114 5.33369 5.11248 5.31783 5.08348ZM2.82926 1.18164C3.29951 0.886401 3.82818 0.707772 4.37471 0.659456C4.92443 0.607928 5.47849 0.669884 6.00537 0.841804C6.53074 1.00261 7.01037 1.29575 7.40222 1.69553C7.79189 2.09842 8.08633 2.59082 8.26213 3.13359C8.44006 3.678 8.50027 4.25691 8.43846 4.8286C8.37733 5.39901 8.19305 5.94744 7.89954 6.43244C7.86387 6.48839 7.82821 6.5547 7.79056 6.60235L7.65187 6.78263C7.59988 6.85412 7.55538 6.93123 7.51912 7.01264C7.50129 7.05408 7.48741 7.09138 7.47156 7.1349C7.44621 7.20079 7.44204 7.27352 7.45967 7.34211L7.47552 7.39391L7.4894 7.42914L7.51515 7.48716L7.56865 7.59491L7.67168 7.80213C7.74102 7.93474 7.81037 8.06321 7.86981 8.19169C7.89864 8.25241 7.92444 8.31466 7.94709 8.37818L7.95897 8.41755C7.9506 8.42685 7.94129 8.43518 7.93123 8.44242C7.90769 8.46039 7.88322 8.477 7.85792 8.49215C7.80641 8.52323 7.74697 8.55431 7.68555 8.58332C7.5627 8.63927 7.43193 8.689 7.28928 8.73873C7.14662 8.78846 7.01982 8.82991 6.8732 8.89L6.83159 8.90658C6.82313 8.82239 6.81056 8.7387 6.79394 8.65585C6.7563 8.44863 6.69488 8.19583 6.64732 7.99898L6.56213 7.65915L6.5225 7.48716L6.49674 7.39806L6.48287 7.35247V7.33175L6.45117 7.20328C6.3994 7.02021 6.37205 6.83055 6.36993 6.63965V6.57749C6.37088 6.56093 6.37088 6.54432 6.36993 6.52776C6.37709 6.48972 6.3905 6.45326 6.40956 6.42001C6.45356 6.33475 6.50252 6.2524 6.55618 6.17342C6.66713 6.00558 6.78998 5.83566 6.9049 5.65331C7.03136 5.46232 7.13017 5.25285 7.19813 5.03167C7.23442 4.90554 7.24655 4.77315 7.23381 4.64211C7.2187 4.50584 7.17024 4.37595 7.09313 4.26498C7.01935 4.14104 6.91068 4.04404 6.78205 3.98731C6.70527 3.95878 6.62313 3.94955 6.54231 3.96038C6.47225 3.97272 6.40504 3.99873 6.34417 4.03705C6.25813 4.08786 6.18162 4.15456 6.11831 4.2339L6.0965 4.21111C5.99664 4.11645 5.87405 4.05199 5.74185 4.02461C5.59885 3.99863 5.45166 4.02575 5.32577 4.10128C5.20867 4.17342 5.11379 4.27912 5.05234 4.40589C5.04427 4.42136 5.03699 4.43727 5.03054 4.45355C4.98298 4.43904 4.93742 4.42661 4.88789 4.41625C4.7705 4.39157 4.65011 4.38667 4.53125 4.40174C4.39989 4.41819 4.27455 4.46877 4.16667 4.54887C4.13092 4.57662 4.09775 4.60784 4.0676 4.64211C4.03329 4.63999 3.9989 4.63999 3.96458 4.64211C3.84537 4.65727 3.72908 4.69151 3.61982 4.74364C3.51488 4.79335 3.41635 4.8567 3.32658 4.93221C3.22969 5.00923 3.1448 5.1015 3.07495 5.20573C3.03581 5.26941 3.00702 5.33943 2.98975 5.41295C2.97195 5.49409 2.97195 5.57839 2.98975 5.65953C3.02768 5.7959 3.10107 5.91857 3.20176 6.01387C3.36681 6.1701 3.55065 6.30315 3.74861 6.40965C3.92495 6.51533 4.1112 6.6065 4.2598 6.71218C4.56267 6.94264 4.81357 7.23971 4.99487 7.58248C5.19194 7.9397 5.36923 8.30845 5.52587 8.68693C5.61107 8.89414 5.69627 9.08685 5.78741 9.28578C5.79552 9.29478 5.80488 9.30246 5.81516 9.30857L5.57541 9.41632C5.42101 9.48381 5.2708 9.56132 5.12565 9.6484L5.05036 9.69606C5.0601 9.66528 5.06544 9.63316 5.06621 9.60074C5.06621 9.58624 5.06621 9.58417 5.06621 9.57588C4.95526 9.41218 4.84826 9.22362 4.74523 9.0392C4.6006 8.7781 4.46586 8.52323 4.32321 8.24971C4.28754 8.18547 4.25583 8.11709 4.21819 8.05493H3.98637C3.92041 8.05987 3.8542 8.05987 3.78824 8.05493C3.65458 8.04598 3.52195 8.02448 3.39197 7.99069C2.86832 7.84995 2.3974 7.54738 2.04069 7.12246C1.67523 6.69174 1.40169 6.18456 1.23825 5.63467C1.06751 5.08647 1.00746 4.50717 1.0619 3.93344C1.09179 3.64905 1.15844 3.37022 1.26004 3.10458C1.28455 3.03955 1.31232 2.97591 1.34325 2.91394C1.37132 2.84877 1.40376 2.78576 1.44034 2.72538C1.50709 2.59896 1.58052 2.47651 1.66027 2.35861C1.96616 1.88441 2.36455 1.48329 2.82926 1.18164Z" fill="#E0E21A"/>
</svg>
