<svg width="2" height="2" viewBox="0 0 2 2" fill="none" xmlns="http://www.w3.org/2000/svg">
<path d="M1.56319 0.276275C1.47601 0.31979 1.36505 0.377818 1.29174 0.42755C1.21843 0.477281 1.15106 0.514576 1.15106 0.514576L1.01435 0.618183C0.909339 0.701069 0.816218 0.788101 0.707243 0.879275C0.598269 0.970449 0.556662 1.02225 0.485333 1.09685C0.483991 1.10228 0.483991 1.10799 0.485333 1.11343C0.473445 1.2419 0.562605 1.24604 0.608176 1.23568C0.610034 1.2366 0.612058 1.23708 0.614114 1.23708C0.61617 1.23708 0.618206 1.2366 0.620064 1.23568C0.687429 1.16522 0.758759 1.09477 0.832069 1.02846C0.905379 0.962154 1.0302 0.858555 1.12927 0.777742L1.24221 0.690703L1.44034 0.527008C1.53743 0.448267 1.63848 0.371602 1.62263 0.375746C1.76925 0.232768 1.85841 0.120864 1.56319 0.276275Z" fill="#ECE721"/>
</svg>
