<svg width="4" height="3" viewBox="0 0 4 3" fill="none" xmlns="http://www.w3.org/2000/svg">
<path d="M0.784572 1.59256L0.669663 1.82671C0.663151 1.83781 0.657831 1.84962 0.653809 1.86194L0.683522 1.88681L0.740988 1.93861L0.847977 2.02979C0.929212 2.09817 1.00846 2.16655 1.09366 2.237C1.26056 2.37522 1.44047 2.49533 1.63061 2.59548C1.73511 2.65121 1.8475 2.68898 1.96348 2.70737C2.09961 2.7321 2.23973 2.70646 2.35975 2.63485C2.46683 2.56737 2.55713 2.47435 2.62327 2.3634C2.68506 2.26834 2.73876 2.16781 2.78376 2.06294C2.8749 1.85573 2.94623 1.66095 3.01954 1.46202L3.13643 1.14705L3.18993 1.00201L3.21569 0.931554V0.912899L3.19984 0.902541L3.16616 0.883892L3.02944 0.811366L2.96604 0.778211L2.93038 0.761637L2.8115 0.703617L2.74413 0.674604L2.60741 0.616584C2.60741 0.616584 2.40928 0.548204 2.19926 0.500545C2.0688 0.46837 1.93641 0.445527 1.80299 0.432167C1.68915 0.409867 1.57196 0.414821 1.46022 0.446667C1.42852 0.475677 1.50579 0.51298 1.7594 0.60001C1.908 0.655958 2.08434 0.724335 2.22303 0.784427C2.36173 0.844519 2.45881 0.892183 2.45881 0.892183C2.50438 0.90876 2.546 0.927405 2.58959 0.946054L2.65496 0.975067L2.68667 0.987499L2.73422 1.01029L2.80158 1.04344L2.83527 1.06003L2.75205 1.28589C2.67874 1.4931 2.60543 1.68995 2.52222 1.88059C2.48291 1.97266 2.4379 2.06195 2.38749 2.1479C2.34709 2.22821 2.29107 2.29879 2.22303 2.35511C2.16606 2.39903 2.09511 2.41832 2.0249 2.40898C1.93962 2.39849 1.8566 2.37329 1.77921 2.33439C1.60314 2.24421 1.43647 2.13518 1.28189 2.00906C1.20066 1.94483 1.12141 1.87852 1.04216 1.81221L1.02035 1.79356L1.04017 1.75419L1.31162 1.16985C1.38159 1.02095 1.45965 0.876352 1.54542 0.736772C1.54632 0.727818 1.54632 0.718788 1.54542 0.709833C1.53551 0.608298 1.49786 0.558565 1.45229 0.539916C1.40782 0.521025 1.35807 0.521025 1.3136 0.539916C1.30171 0.539916 1.30171 0.539918 1.29576 0.554423C1.20361 0.704071 1.11959 0.859035 1.04413 1.01858L0.784572 1.59256Z" fill="#48739B"/>
</svg>
