<svg width="4" height="3" viewBox="0 0 4 3" fill="none" xmlns="http://www.w3.org/2000/svg">
<path d="M1.10533 2.48847C1.1043 2.49463 1.1043 2.50094 1.10533 2.50711C1.12317 2.57549 1.15883 2.59206 1.18656 2.59413C1.20421 2.59409 1.22168 2.59058 1.23808 2.58378C1.28131 2.57252 1.32369 2.55799 1.36489 2.54027C1.45801 2.50297 1.56302 2.44909 1.64426 2.41801C1.67719 2.40461 1.71095 2.39354 1.74531 2.38486L1.78692 2.37449C1.81209 2.36586 1.83794 2.35963 1.86418 2.35585H1.90579H1.9256H1.99297C2.16931 2.33098 2.34961 2.31648 2.5319 2.29161C2.7193 2.27136 2.90401 2.22966 3.08272 2.16727C3.17653 2.13395 3.26578 2.08798 3.34822 2.03052C3.43385 1.96892 3.50607 1.88914 3.56021 1.79637C3.61214 1.70166 3.64391 1.59634 3.65334 1.48762C3.6604 1.38456 3.65641 1.281 3.64146 1.17887C3.61017 0.97522 3.53347 0.78213 3.41756 0.615242C3.35969 0.533788 3.29323 0.459411 3.21943 0.393521C3.14347 0.330205 3.06187 0.274694 2.97573 0.227753C2.63344 0.0481984 2.24873 -0.0237755 1.86815 0.0205385C1.67921 0.0398122 1.49343 0.0843855 1.31536 0.153159C1.13529 0.224068 0.96836 0.327127 0.822003 0.457757C0.667679 0.589247 0.551108 0.762799 0.485172 0.959225C0.422991 1.16292 0.431408 1.38302 0.508947 1.58087C0.587911 1.77246 0.714469 1.93845 0.875492 2.06161C0.953991 2.12181 1.03834 2.17321 1.12713 2.21494L1.19251 2.24602L1.22619 2.25845L1.17666 2.34962C1.15013 2.39429 1.12631 2.44067 1.10533 2.48847ZM1.19845 2.03052C1.12287 1.99512 1.05113 1.95136 0.984463 1.89997C0.851065 1.80068 0.745122 1.66629 0.677357 1.51041C0.612122 1.35864 0.600197 1.18766 0.643677 1.0276C0.693536 0.866804 0.7847 0.723439 0.9072 0.613168C1.03203 0.495025 1.17637 0.401647 1.33318 0.337582C1.4912 0.270016 1.6571 0.224718 1.82654 0.202888C1.99624 0.180102 2.16803 0.180102 2.33773 0.202888C2.42266 0.213956 2.50675 0.231267 2.58936 0.254691C2.66997 0.278188 2.74879 0.30797 2.82514 0.343792C2.97586 0.415749 3.11076 0.519451 3.22141 0.648403C3.32974 0.778421 3.40594 0.934238 3.44332 1.1022C3.45282 1.14448 3.45943 1.18741 3.46313 1.23067V1.29491V1.35915C3.46465 1.4415 3.45258 1.52351 3.42747 1.60158C3.39765 1.67677 3.35344 1.74479 3.29756 1.80145C3.24168 1.85811 3.17531 1.90222 3.10252 1.93106C2.94555 2.00054 2.78023 2.04724 2.61115 2.06989C2.43878 2.09683 2.26244 2.11133 2.08412 2.13412L1.94741 2.15071L1.88202 2.16106H1.83842L1.74729 2.18178C1.74729 2.18178 1.7136 2.18179 1.66605 2.21287C1.60995 2.23854 1.55566 2.26831 1.50358 2.30197L1.31931 2.43044L1.35696 2.36206L1.36687 2.34549L1.38073 2.31855C1.39262 2.29576 1.40253 2.27296 1.41244 2.25016L1.44018 2.188L1.45404 2.15692V2.14035L1.33318 2.09475H1.30149L1.27374 2.0844L1.24402 2.07196L1.19845 2.03052Z" fill="#B7AE00"/>
</svg>
