<svg width="4" height="7" viewBox="0 0 4 7" fill="none" xmlns="http://www.w3.org/2000/svg">
<path d="M1.20515 0.523019C1.20515 0.523019 1.19128 0.523022 1.1893 0.512661C1.16758 0.503183 1.14384 0.499911 1.12051 0.503188C1.09719 0.506465 1.07511 0.516173 1.05655 0.53131C1.05199 0.530166 1.04724 0.530166 1.04268 0.53131C1.02336 0.531939 1.00443 0.53711 0.987283 0.546436C0.970133 0.555762 0.955203 0.569001 0.943615 0.585181C0.941944 0.589858 0.941944 0.595011 0.943615 0.599688C0.917857 0.738521 0.907959 0.866993 0.890126 0.993393L0.636508 2.734L0.396761 4.3026C0.396761 4.3026 0.335347 4.95947 0.343273 4.92424C0.340383 4.98084 0.340383 5.03756 0.343273 5.09416L0.317514 5.10867C0.317514 5.10867 0.317514 5.11903 0.317514 5.1211C0.313873 5.1601 0.321802 5.19932 0.340237 5.23343C0.358673 5.26755 0.386711 5.29488 0.420536 5.31173C0.470295 5.28335 0.518584 5.25223 0.565183 5.21849C0.646418 5.16254 0.749444 5.08173 0.84653 5.01128L1.11797 4.80406L1.24478 4.71289L1.2864 4.67352C1.32466 4.75924 1.35838 4.84709 1.38743 4.93668C1.47858 5.22056 1.55784 5.51273 1.63313 5.8049L1.67672 5.98518L1.77182 6.29393C1.81739 6.44727 1.86296 6.59854 1.86296 6.58403C1.87485 6.62133 1.88674 6.65656 1.89863 6.68764C1.87917 6.70182 1.86266 6.71995 1.85006 6.74095C1.83746 6.76196 1.82905 6.78541 1.82532 6.80989C1.82783 6.82993 1.8349 6.84903 1.84594 6.86562C1.85697 6.8822 1.87164 6.89578 1.88872 6.90521C1.89153 6.90653 1.89456 6.90721 1.89763 6.90721C1.90071 6.90721 1.90374 6.90653 1.90655 6.90521C2.04213 6.90088 2.17607 6.87287 2.30282 6.82233L2.50095 6.76223L2.67136 6.70629C2.67136 6.70629 3.26576 6.47628 3.24 6.48042C3.4738 6.37475 3.61249 6.27321 3.21028 6.35403H3.19047C3.19594 6.34196 3.20058 6.32949 3.20434 6.31672C3.20434 6.31672 3.20434 6.31673 3.20434 6.30222L3.08942 5.93131L3.01412 5.67229L2.80212 4.99677L2.74665 4.81857C2.74665 4.81857 2.51483 4.19693 2.51879 4.23422C2.50096 4.19278 2.48511 4.15548 2.46925 4.12233V4.10989L2.49105 4.12233C2.59011 4.18864 2.73476 4.26116 2.73476 4.26116L2.87939 4.30882L3.20434 4.4145C3.3252 4.4518 3.44805 4.48496 3.53919 4.50775C3.57881 4.51811 3.61447 4.53262 3.65211 4.5409C3.67444 4.54439 3.69715 4.54439 3.71948 4.5409C3.72405 4.54197 3.72879 4.54197 3.73336 4.5409C3.74537 4.52464 3.75389 4.50584 3.75834 4.48582C3.76278 4.46579 3.76305 4.445 3.75911 4.42486C3.75987 4.41797 3.75987 4.41103 3.75911 4.40414C3.75911 4.40414 3.75911 4.40414 3.75911 4.39171C3.74921 4.3627 3.7393 4.3399 3.73534 4.3254C3.73138 4.31089 3.73534 4.3254 3.73534 4.3254C3.71949 4.29225 3.69769 4.25287 3.66995 4.20521C3.55107 3.98556 3.36483 3.68511 3.36483 3.68511L2.96856 3.12149C2.79684 2.87283 2.62578 2.62279 2.45538 2.37137L1.42905 0.842131L1.20515 0.523019ZM2.71891 6.40376L2.75457 6.33745V6.32501L2.81004 6.22555C2.83756 6.17933 2.86269 6.1316 2.88533 6.08257L2.98045 6.38718L2.99233 6.39961C2.85562 6.42655 2.72484 6.45763 2.66342 6.47213L2.71891 6.40376ZM3.37275 4.05809C3.46587 4.16999 3.55107 4.26531 3.54512 4.26531C3.46389 4.24458 3.3668 4.21765 3.26971 4.18656H3.25584L3.37275 4.05809ZM3.10527 4.07467L3.19442 4.15548L3.01214 4.09539C3.01214 4.09539 3.01214 4.0726 3.02601 4.06017C3.03988 4.04773 3.02601 4.0498 3.02601 4.04358L3.0379 4.01665L3.10527 4.07467ZM2.73476 4.02079V4.01043V3.99178C2.73716 3.98113 2.74048 3.97073 2.74466 3.9607C2.74466 3.98557 2.74466 4.01044 2.76051 4.0353L2.73476 4.02079ZM2.95667 3.51519V3.5297V3.57529L2.93883 3.55249C2.93883 3.52555 2.93883 3.49654 2.93883 3.46753L2.95667 3.51519ZM0.438373 5.02993C0.438373 5.0092 0.452238 4.98434 0.458182 4.9574C0.464126 4.93046 0.48394 4.87037 0.495828 4.82479L0.662267 4.86208C0.586975 4.93046 0.509702 4.98848 0.438373 5.02993ZM0.755384 4.78956V4.75019H0.79898L0.755384 4.78956ZM1.38942 4.40828C1.27846 4.44973 1.13383 4.52432 1.13383 4.52432L1.00504 4.61757L0.971356 4.64244C0.993151 4.55541 1.01296 4.4663 1.02881 4.3772L1.2111 4.41243L1.22695 4.3772V4.35648C1.24478 4.31504 1.26658 4.27152 1.28045 4.22801C1.31648 4.12912 1.34692 4.02811 1.37159 3.92548C1.39933 3.80529 1.42112 3.68511 1.43697 3.56492L1.41914 3.86124L1.3914 4.32125V4.37099V4.40414H1.40924L1.38942 4.40828ZM2.709 5.81734V5.75518V5.70751H2.7407L2.72683 5.76553L2.709 5.81734ZM2.76844 5.66607H2.74665V5.69716H2.71494V5.42363L2.76844 5.66607ZM2.08686 6.18825V6.34574V6.40997C2.50096 6.54052 2.20177 6.4452 2.29489 6.47421L2.32065 6.42862L2.36622 6.33537C2.41775 6.21706 2.45952 6.09436 2.49105 5.96861C2.49105 6.01419 2.49105 6.05978 2.5069 6.09915C2.52237 6.20342 2.54421 6.30655 2.57229 6.4079L2.59805 6.50529V6.52187L2.44151 6.57367L2.24338 6.63584C2.16254 6.66445 2.07975 6.68662 1.99571 6.70215C1.99571 6.67106 1.99571 6.63583 1.99571 6.59439C1.9759 6.34159 1.9125 5.98725 1.9125 5.98725L1.86098 5.78004C1.78569 5.48372 1.70445 5.18948 1.61331 4.89731C1.57368 4.76262 1.5083 4.64036 1.47858 4.53676C1.50295 4.51074 1.52185 4.47969 1.53406 4.44558L1.63313 4.4663V4.4373L1.67077 4.32333V4.31089C1.67077 4.45801 1.67077 4.60721 1.68662 4.7564C1.70247 4.9056 1.7104 5.04443 1.72823 5.18741C1.72823 5.19984 1.72823 5.21228 1.72823 5.22471V5.24543L1.8808 5.26408C1.8808 5.29102 1.8808 5.31795 1.8808 5.34489C1.87969 5.53195 1.89628 5.71866 1.93033 5.9023L1.94618 5.97068V6.0059V6.02248V6.03698H2.07497C2.0928 6.06599 2.08884 6.12402 2.08686 6.18204V6.18825ZM2.3583 5.52102C2.35922 5.53413 2.35922 5.54729 2.3583 5.56039C2.35928 5.54245 2.35928 5.52446 2.3583 5.50652V5.52102ZM2.52077 4.87244L2.57823 5.05065H2.49501C2.47124 4.89731 2.45142 4.7419 2.43161 4.58648V4.5036C2.47718 4.68595 2.52077 4.86623 2.52077 4.86623V4.87244ZM2.11063 5.37183C2.10964 5.35319 2.10964 5.33452 2.11063 5.31588C2.11552 5.00234 2.14001 4.68947 2.18394 4.37927V4.39171C2.18394 4.42901 2.18394 4.46838 2.19781 4.50775C2.17205 4.79992 2.15224 5.08794 2.11063 5.36561V5.37183ZM2.44548 4.09332L2.45935 4.10368L2.44548 4.09332ZM2.51482 3.95863V3.99386C2.59209 4.01043 2.41774 3.97521 2.54653 3.99386H2.52869C2.48476 3.98538 2.43938 3.99268 2.39991 4.01458C2.37812 3.98971 2.36424 4.01458 2.3682 4.07052C2.3682 4.0353 2.35829 4.00007 2.35235 3.96484H2.39V3.95448V3.9234C2.40585 3.9234 2.40188 3.9234 2.39 3.9234L2.43953 3.76592L2.50095 3.57529C2.50095 3.6043 2.50095 3.63538 2.50095 3.66646C2.50095 3.72862 2.50095 3.79286 2.50095 3.85917L2.51482 3.95863ZM2.73871 3.20851L2.7942 3.28933H2.72881C2.67928 3.21888 2.63173 3.14842 2.58418 3.08211L2.55048 3.01788L2.53464 2.9868L2.43359 2.8231C2.43359 2.79616 2.43359 2.76715 2.43359 2.74021L2.73871 3.20851ZM2.18989 2.40452L2.16215 2.36101L2.18989 2.40452ZM1.91448 2.34443L1.93033 2.37966L1.94419 2.41074L1.97193 2.4729L1.99373 2.51849L2.04921 2.62003V2.63039C2.04921 2.64697 2.04921 2.66354 2.04921 2.68012C2.02498 2.88656 2.02498 3.09532 2.04921 3.30176C2.02345 3.48618 2.00562 3.6706 1.98581 3.85295C1.96401 4.06017 1.94023 4.28188 1.90655 4.49117C1.88673 3.95656 1.90655 3.41573 1.9224 2.87075C1.9224 2.71741 1.9224 2.56201 1.9224 2.40659C1.9224 2.38173 1.9224 2.35479 1.9224 2.32993L1.91448 2.34443ZM0.569137 4.60099L0.557249 4.66523L0.535458 4.7937V4.82685H0.509699C0.541401 4.70874 0.571128 4.58856 0.590941 4.49946L0.569137 4.60099ZM1.75795 1.95901L1.80154 2.07091H1.67473V2.08334C1.67473 2.08334 1.67473 2.07298 1.67473 2.06883L1.66284 1.95901C1.66284 1.91342 1.66285 1.86784 1.64502 1.82225L1.6351 1.75387V1.72072V1.70828H1.42508C1.42008 1.64712 1.41214 1.58626 1.40131 1.52593C1.39427 1.47358 1.38435 1.42169 1.37159 1.37052L1.35177 1.29386V1.27728V1.25656V1.23584V1.22133H1.13383C1.11005 1.34359 1.09024 1.46584 1.07241 1.59017H1.03278L1.11204 1.02655C1.11204 0.958168 1.12987 0.889787 1.13779 0.819334L1.24677 0.980961L1.75002 1.73107C1.67077 1.65648 1.65095 1.68963 1.75795 1.9528V1.95901Z" fill="#B286BB"/>
</svg>
