<svg width="10" height="11" viewBox="0 0 10 11" fill="none" xmlns="http://www.w3.org/2000/svg">
<path d="M9.87982 9.66278H9.86199L9.75103 9.68557L9.64007 9.70008L9.52912 9.71458H9.41618C8.86577 9.74133 8.31455 9.6848 7.77959 9.54674C7.23639 9.41532 6.70582 9.23221 6.19451 8.99969C5.1659 8.565 4.25202 7.87856 3.5296 6.998C2.81673 6.10411 2.29759 5.05925 2.00793 3.93538C1.85856 3.37395 1.75255 2.80089 1.69091 2.22172L1.67109 2.00414V1.91711V1.90053V1.83008L1.66119 1.68918C1.66119 1.68918 1.66119 1.63944 1.64534 1.56277C1.62948 1.4861 1.62751 1.38664 1.6176 1.28511C1.59977 1.07789 1.58392 0.88726 1.58194 0.905909V0.852031L1.5958 0.87068C1.66515 0.953565 1.7345 1.03852 1.80582 1.11727C1.87715 1.19601 1.91282 1.2333 1.96631 1.29132C1.96631 1.29132 2.11888 1.43223 2.27739 1.55656C2.37636 1.63646 2.47955 1.71049 2.58648 1.77828C2.67487 1.84549 2.77634 1.89147 2.88368 1.91297C2.90349 1.91297 2.89953 1.89017 2.86981 1.84873C2.81311 1.77978 2.75222 1.71472 2.68753 1.65395C2.58053 1.54205 2.45372 1.40736 2.35664 1.29754C2.25955 1.18772 2.19021 1.10691 2.19021 1.10691C2.12878 1.04474 2.06934 0.980503 2.01189 0.916267C1.95443 0.852031 1.87715 0.76086 1.81375 0.680046L1.71864 0.557791L1.67109 0.495623C1.65524 0.472829 1.64534 0.46247 1.61166 0.412738L1.48089 0.230389L1.34417 0.0356069L1.32634 0.0107422V0.0252487L1.30653 0.0811942L1.26888 0.197234C1.24312 0.275975 1.21539 0.352643 1.18963 0.429313L1.16981 0.485264L1.15198 0.53292L1.13019 0.586797L1.08858 0.696621C1.05886 0.767073 1.02716 0.837526 0.995454 0.903835C0.934711 1.03922 0.856734 1.16538 0.763639 1.27889C0.762706 1.28646 0.762706 1.29412 0.763639 1.30169C0.763639 1.38872 0.77949 1.44881 0.819117 1.47782C0.838869 1.49123 0.861382 1.49954 0.884807 1.50206C0.908232 1.50458 0.931897 1.50124 0.953847 1.49232C0.960226 1.49487 0.967282 1.49487 0.973662 1.49232C1.08559 1.35811 1.17896 1.20815 1.25105 1.04681C1.28671 0.970144 1.3204 0.895545 1.3521 0.818876C1.36795 0.781578 1.38182 0.742209 1.39767 0.704911L1.42144 0.636527L1.43135 0.648959L1.4789 0.713201C1.46834 0.761551 1.45843 0.830623 1.44918 0.920415C1.42937 1.07997 1.41352 1.27267 1.40758 1.42601C1.40758 1.50475 1.40758 1.57107 1.40758 1.61873V1.69539L1.41748 1.84044V1.91297V1.96892C1.41748 1.96892 1.41748 1.99378 1.41748 2.01036V2.06631C1.44324 2.36884 1.48287 2.67137 1.53042 2.97183C1.57797 3.27229 1.63939 3.57068 1.71667 3.86493C1.99727 5.0462 2.51833 6.15023 3.24428 7.10161C3.99302 8.04855 4.95222 8.78919 6.03799 9.25871C6.57024 9.50389 7.12265 9.69809 7.68845 9.83891C8.25877 9.9879 8.84678 10.0493 9.43401 10.0213C9.47364 10.0213 9.51525 10.0213 9.55488 10.0109L9.67574 9.99639C9.71536 9.99639 9.75698 9.9964 9.7966 9.97982L9.91549 9.95702L9.93728 9.94045C9.9605 9.92271 9.9783 9.8983 9.98852 9.87019C9.99874 9.84208 10.0009 9.81147 9.99487 9.78208C9.98878 9.75268 9.97468 9.72576 9.95426 9.70459C9.93384 9.68341 9.90797 9.66889 9.87982 9.66278Z" fill="url(#paint0_linear_134_364)"/>
<defs>
<linearGradient id="paint0_linear_134_364" x1="0.729956" y1="5.01289" x2="9.99077" y2="5.01289" gradientUnits="userSpaceOnUse">
<stop stop-color="#A71F63"/>
<stop offset="1" stop-color="#49486D"/>
</linearGradient>
</defs>
</svg>
