<svg width="2" height="1" viewBox="0 0 2 1" fill="none" xmlns="http://www.w3.org/2000/svg">
<path d="M1.23229 0.48895V0.416418V0.39985H1.19464C1.17189 0.375775 1.14417 0.357461 1.1136 0.346326C1.08303 0.335191 1.05044 0.33152 1.01831 0.335601C0.978321 0.342897 0.940572 0.36005 0.908185 0.385634C0.875797 0.411218 0.849703 0.444501 0.832058 0.482728L0.818187 0.509667C0.81744 0.52347 0.81744 0.537309 0.818187 0.551112C0.815527 0.579646 0.822541 0.608254 0.838002 0.631928C0.850529 0.65214 0.866797 0.669512 0.885855 0.683036C0.904912 0.696561 0.92637 0.705963 0.948957 0.710671C0.988409 0.721183 1.02975 0.721181 1.06921 0.710683C1.10866 0.700186 1.14497 0.679521 1.17483 0.650571C1.185 0.696156 1.19757 0.741126 1.21247 0.785265C1.25408 0.907521 1.29767 0.977974 1.27192 0.785265C1.27192 0.714812 1.26003 0.646422 1.25606 0.594619L1.23229 0.48895ZM1.08369 0.571828C1.06728 0.587979 1.04721 0.599506 1.02537 0.605306C1.00354 0.611106 0.980648 0.610996 0.958861 0.60499C0.94156 0.600645 0.925776 0.591311 0.913294 0.578051C0.913294 0.578051 0.913294 0.578049 0.913294 0.563544V0.546964C0.922674 0.524387 0.937112 0.50451 0.95539 0.489001C0.973668 0.473492 0.995248 0.462809 1.01831 0.457863C1.03606 0.456437 1.05388 0.459674 1.07014 0.467273C1.0864 0.474871 1.1006 0.486596 1.11143 0.501383C1.10809 0.528157 1.09622 0.552968 1.07774 0.571828H1.08369Z" fill="#BF2026"/>
</svg>
