<svg width="7" height="4" viewBox="0 0 7 4" fill="none" xmlns="http://www.w3.org/2000/svg">
<path d="M1.28672 0.425789L1.045 0.349121H1.01924C0.832996 0.432007 0.898371 0.568765 0.947905 0.630929C0.947905 0.630929 0.947908 0.641289 0.963759 0.643362C1.04103 0.668227 1.11831 0.68895 1.1936 0.715888L1.42343 0.796704C2.16248 1.07437 2.88369 1.41834 3.60292 1.7789L4.67879 2.31765L5.52681 2.73208L5.92308 2.88749C6.12121 2.96209 6.30151 3.03462 6.28764 3.02426C6.6106 3.12786 6.83053 3.15272 6.36293 2.87091C6.09149 2.69478 5.6972 2.45648 5.6972 2.45648L4.87295 2.04206L3.77728 1.49294C3.04418 1.13032 2.30711 0.771835 1.53439 0.481735L1.28672 0.425789Z" fill="#092544"/>
</svg>
