<svg width="3" height="3" viewBox="0 0 3 3" fill="none" xmlns="http://www.w3.org/2000/svg">
<path d="M2.35792 0.706658C2.33217 0.609267 2.2648 0.636205 2.2331 0.654854L2.18753 0.764677L2.13601 0.870352C2.06102 1.0165 1.97348 1.15521 1.87447 1.28478L1.83881 1.33244L1.79918 1.3801C1.77342 1.41119 1.74965 1.44434 1.72191 1.47542C1.69417 1.5065 1.61492 1.59767 1.55746 1.65362C1.44651 1.77173 1.32564 1.88363 1.20478 1.99138L1.11166 2.0722L1.01853 2.14887L0.951172 2.20481L0.897672 2.24832L0.850121 2.29184L0.747087 2.38302C0.673778 2.44933 0.600465 2.51356 0.608391 2.50942C0.535081 2.57987 0.483574 2.63996 0.505369 2.64618L0.368655 2.65654L0.422143 2.57365C0.521521 2.41774 0.60961 2.25428 0.685666 2.08463C0.720119 2.00767 0.750549 1.92881 0.776812 1.8484C0.776812 1.8484 0.776812 1.8484 0.776812 1.83597C0.74313 1.74065 0.677742 1.76966 0.650003 1.79246C0.622264 1.81525 0.650003 1.79246 0.650003 1.79246C0.624246 1.86705 0.596508 1.94165 0.564807 2.01418C0.495521 2.1704 0.414695 2.32074 0.323076 2.46383L0.287413 2.51771L0.247784 2.58194L0.103149 2.78916V2.80159H0.146745H0.208167H0.332993H0.428093H0.491498L0.604436 2.79123L0.802571 2.75808C0.899657 2.73943 1.0007 2.7187 0.986835 2.7187C1.14336 2.67726 1.24045 2.6296 0.986835 2.63582C0.909562 2.63582 0.818414 2.63582 0.745104 2.63582H0.618307H0.546969C0.592209 2.61989 0.635455 2.59833 0.675762 2.57158C0.743128 2.53429 0.824362 2.48455 0.885784 2.44311L0.994756 2.37059L1.10968 2.27734C1.17506 2.22346 1.24045 2.16958 1.30781 2.11364C1.37518 2.05769 1.43462 1.99967 1.50595 1.94373C1.57728 1.88778 1.62879 1.82561 1.68624 1.76344C1.80604 1.64228 1.91791 1.51282 2.02109 1.37595C2.12661 1.23857 2.22012 1.09155 2.30047 0.936662L2.35594 0.822697L2.40547 0.704583C2.40547 0.704583 2.35991 0.70873 2.35792 0.706658Z" fill="#0A1624"/>
</svg>
