<svg width="8" height="8" viewBox="0 0 8 8" fill="none" xmlns="http://www.w3.org/2000/svg">
<path d="M7.38508 5.7773C7.42273 5.7773 7.36329 5.68612 7.27611 5.57008C7.29394 5.58251 6.93136 5.17016 6.93136 5.17016L3.7612 1.97699L3.53334 1.74698C3.53334 1.75734 3.61854 1.66617 3.7176 1.57499L3.91574 1.38643L4.02274 1.26832L4.0584 1.22481C4.09407 1.18336 4.12972 1.13778 4.16341 1.09219C4.19172 1.05046 4.22215 1.01034 4.25455 0.972004C4.25455 0.972004 4.22087 0.957497 4.18323 0.930559C4.16913 0.920236 4.15381 0.911878 4.13765 0.905694C4.13917 0.882331 4.14384 0.85931 4.15152 0.837313C4.15152 0.837313 4.12774 0.847673 4.12378 0.849746L4.10595 0.872539C4.09842 0.850149 4.08461 0.830655 4.06632 0.816594H4.05444C3.95417 0.823823 3.85354 0.823823 3.75327 0.816594L3.2718 0.797942L2.80024 0.771006C2.48322 0.748213 2.1682 0.721273 1.85316 0.688119L1.6788 0.671541C1.6788 0.671541 1.38754 0.659108 1.18148 0.671541C0.975421 0.683974 0.935794 0.692264 0.983346 0.721274C0.951645 0.721274 0.929852 0.766861 0.89815 0.808303C0.89815 0.808303 0.89815 0.808304 0.89815 0.818665C0.901483 0.867643 0.901483 0.916809 0.89815 0.965788V1.00723C0.897069 1.0224 0.897069 1.03764 0.89815 1.05282V1.13777C0.92787 1.53977 0.96948 1.93555 1.01109 2.3334L1.07449 2.9281L1.10222 3.22442L1.12006 3.43163C1.12006 3.43163 1.16563 3.73209 1.20724 3.94345C1.2647 4.30193 1.30036 4.15067 1.31224 3.92895C1.31224 3.93931 1.31224 3.80462 1.31224 3.66579C1.31224 3.52695 1.31224 3.38812 1.31224 3.38812L1.29442 3.1809L1.26469 2.88873L1.20327 2.30232C1.16166 1.91483 1.12204 1.52319 1.0943 1.13777V1.05696C1.09346 1.04454 1.09346 1.03208 1.0943 1.01966V0.97822C1.09986 0.916884 1.09986 0.855136 1.0943 0.7938C1.09537 0.788331 1.09537 0.782692 1.0943 0.777223L1.07845 0.760645C1.11213 0.771006 1.15572 0.783439 1.20327 0.7938C1.24725 0.807716 1.29235 0.817426 1.338 0.82281C1.33691 0.827577 1.33691 0.832546 1.338 0.837313C1.34067 0.942461 1.3367 1.04768 1.32612 1.15228V1.26625C1.32612 1.30562 1.32612 1.34706 1.32612 1.38229C1.32612 1.45688 1.32612 1.53148 1.32612 1.60608C1.32612 1.75527 1.33603 1.90654 1.34395 2.05366C1.35782 2.35205 1.38159 2.64836 1.39942 2.94468L1.41131 3.12703C1.41131 3.12703 1.45094 3.42956 1.4866 3.64092C1.4866 3.71137 1.50642 3.7611 1.51435 3.79633L1.445 3.8875C1.445 3.8875 1.38358 4.00354 1.34792 4.09472C1.28055 4.23977 1.34792 4.22319 1.43113 4.1631C1.46128 4.14134 1.48917 4.11634 1.51435 4.0885L1.59954 4.00562L1.67483 3.90823C1.71842 3.85021 1.77787 3.77147 1.83929 3.70101C1.90071 3.63056 1.96609 3.56011 2.0176 3.51038L2.04733 3.48344C2.04633 3.49446 2.04633 3.50557 2.04733 3.51659C2.04681 3.52211 2.04681 3.52766 2.04733 3.53317L2.27519 3.76318L5.39977 6.90661C5.39977 6.90661 5.62366 7.10347 5.79604 7.22987C5.84493 7.27176 5.8981 7.30789 5.95455 7.33762C5.95455 7.33762 5.95455 7.33762 5.95455 7.35005C5.95455 7.36249 5.95455 7.39564 5.95455 7.39357C6.01312 7.34922 6.06518 7.29616 6.10909 7.23608C6.10909 7.23608 6.18439 7.14284 6.27355 7.04752C6.36271 6.9522 6.4598 6.85274 6.4598 6.85274L6.56282 6.74084C6.76095 6.53363 6.95909 6.33678 7.17308 6.14821C7.25233 6.07776 7.33356 6.00731 7.41678 5.941C7.41678 5.941 7.41678 5.941 7.41678 5.92856C7.429 5.9034 7.43253 5.87458 7.42675 5.84701C7.42098 5.81944 7.40625 5.79481 7.38508 5.7773ZM1.7105 1.07561L1.69069 1.26625C1.69069 1.29733 1.69069 1.33048 1.68078 1.36571C1.67088 1.40094 1.68078 1.43824 1.68078 1.46725C1.68078 1.59365 1.68078 1.72626 1.68078 1.85474C1.68078 2.11375 1.68078 2.3707 1.69267 2.62764V2.81206C1.69267 2.81206 1.71446 3.1146 1.73626 3.32803C1.73626 3.36325 1.73626 3.39226 1.73626 3.4192C1.70654 3.45028 1.67682 3.48344 1.64908 3.51866C1.61112 3.56079 1.57541 3.60507 1.54209 3.65128C1.54209 3.62918 1.54209 3.60431 1.54209 3.57668C1.54734 3.48974 1.54734 3.40254 1.54209 3.31559V3.04622V2.88873C1.52227 2.59242 1.50048 2.2961 1.48463 2.00186C1.47671 1.85405 1.47076 1.70692 1.4668 1.56049C1.4668 1.48589 1.4668 1.41337 1.4668 1.33877V1.23309V1.12534C1.4759 1.02271 1.47987 0.919656 1.47868 0.816594L1.66493 0.849746H1.70059C1.71027 0.92458 1.71358 1.00017 1.7105 1.07561ZM2.08498 0.868397C2.08397 0.966555 2.07402 1.06439 2.05525 1.16057L2.04336 1.24138C2.04159 1.27036 2.04159 1.29943 2.04336 1.32841L2.03148 1.49004L2.01365 1.81122C2.01365 2.01843 1.99383 2.24015 1.98591 2.45358V2.64007C1.98591 2.64007 1.98591 2.94468 2.02157 3.16018C2.02334 3.19142 2.02664 3.22255 2.03148 3.25343C2.01362 3.23477 1.99194 3.22059 1.96807 3.21199C1.96807 3.21199 1.92646 3.24721 1.869 3.30109C1.869 3.27208 1.88288 3.16225 1.89081 3.04829L1.90665 2.77062V2.63179C1.90665 2.37277 1.90665 2.11582 1.90665 1.86095C1.90665 1.73248 1.90665 1.60608 1.90665 1.47553C1.90665 1.34499 1.92647 1.23309 1.93836 1.0984C1.93836 1.04246 1.93836 0.984435 1.93836 0.924343V0.868397H2.08498ZM2.38614 1.12327C2.35642 1.6413 2.30689 2.15934 2.2633 2.67945L2.24943 2.86387C2.24943 2.86387 2.24943 3.17054 2.25934 3.38605C2.25934 3.40677 2.25934 3.42542 2.25934 3.44407L2.14046 3.32388C2.14046 3.32388 2.14046 3.32388 2.12857 3.32388C2.11287 3.3207 2.09671 3.3207 2.08101 3.32388C2.09295 3.27055 2.10222 3.2166 2.10875 3.16226C2.10875 3.16226 2.12262 3.03793 2.13451 2.90117L2.16027 2.62557V2.46809C2.16027 2.26088 2.1781 2.04123 2.18801 1.8278L2.20782 1.50869V1.34913C2.20782 1.32219 2.20782 1.29733 2.20782 1.27661L2.21971 1.19994C2.23866 1.09811 2.24992 0.994872 2.25339 0.891191H2.37426L2.38614 1.12327ZM2.71306 0.916056C2.69523 1.01345 2.68136 1.10876 2.66948 1.2103C2.60805 1.76149 2.59022 2.31889 2.56446 2.86801V3.05243C2.56446 3.05243 2.56446 3.35704 2.5823 3.57047C2.58148 3.64021 2.5888 3.70979 2.60409 3.77768L2.38019 3.55182L2.34651 3.51866C2.35813 3.47434 2.3674 3.42937 2.37426 3.38398C2.37426 3.39641 2.39209 3.26379 2.4119 3.12703L2.44955 2.85143L2.46144 2.69395C2.50503 2.17592 2.55456 1.65788 2.58626 1.13156L2.59617 0.909839H2.68136L2.71306 0.916056ZM3.35304 0.953353L3.3253 0.974075L3.3154 0.986508C3.30153 1.08804 3.27577 1.19372 3.25199 1.30354L3.23415 1.38229V1.40301V1.41751V1.43202V1.47346C3.23415 1.52941 3.21831 1.58536 3.21236 1.63923C3.20047 1.75113 3.19056 1.86303 3.18264 1.97285C3.16679 2.19457 3.15887 2.41628 3.15293 2.638L3.12915 3.82948C3.12915 3.82948 3.12915 4.10715 3.15293 4.31851L2.61796 3.80876C2.65554 3.74174 2.67791 3.6666 2.68335 3.58912C2.68335 3.58912 2.70316 3.46686 2.71901 3.3301L2.75071 3.05243V2.89288C2.77646 2.33961 2.79628 1.7905 2.85771 1.24553C2.85771 1.14606 2.88346 1.03831 2.90129 0.942994H3.00036C3.00036 0.942994 3.00036 0.953353 2.99045 0.957498L2.96469 1.28283C2.91912 1.85474 2.86364 2.43908 2.826 3.01928L2.81609 3.20577C2.81609 3.20577 2.8161 3.51245 2.84384 3.72795C2.8795 4.09265 2.92308 3.93516 2.95082 3.72795C2.95082 3.73831 2.96271 3.60569 2.97857 3.46893C2.99442 3.33217 3.00828 3.19334 3.00828 3.19334V3.03585C3.04592 2.45773 3.1014 1.88375 3.14698 1.29526L3.17472 0.959569H3.21236L3.35304 0.953353ZM3.71365 1.31805C3.72356 1.26625 3.73544 1.19994 3.74931 1.13156C3.76318 1.06318 3.7711 1.01966 3.77903 0.972004C3.85234 0.972004 3.92366 0.972004 3.99895 0.972004C3.97356 1.00795 3.94645 1.04253 3.91772 1.07561L3.88404 1.11705C3.8464 1.16057 3.80676 1.20616 3.76515 1.24967L3.71365 1.31805ZM3.37484 1.80293L3.38672 1.66824C3.38672 1.61437 3.40059 1.56256 3.40851 1.51076V1.47139C3.40851 1.47139 3.40851 1.47139 3.40851 1.45896V1.44031L3.42635 1.35949C3.45211 1.24967 3.47588 1.15228 3.49371 1.02588C3.49538 1.02049 3.49538 1.01469 3.49371 1.0093C3.48828 0.995156 3.48094 0.981898 3.47192 0.96993H3.57891C3.57891 1.01137 3.56306 1.05696 3.55315 1.10255C3.54324 1.14813 3.52542 1.24552 3.51552 1.30976L3.49966 1.40094C3.5023 1.45703 3.51094 1.51263 3.52542 1.56671L3.44616 1.6786C3.42021 1.71864 3.3964 1.76015 3.37484 1.80293ZM3.50362 2.35619L3.43229 3.80669V3.99319C3.43229 3.99319 3.43229 4.29986 3.46795 4.51329C3.47193 4.57196 3.48054 4.63017 3.49371 4.68735L3.23614 4.42833C3.24191 4.40651 3.24654 4.38438 3.25001 4.36203C3.25001 4.37446 3.26982 4.23977 3.28369 4.10093C3.29756 3.9621 3.30945 3.82327 3.30945 3.82327L3.33322 2.63386C3.33322 2.42664 3.34908 2.20493 3.36493 1.9915C3.36493 1.9542 3.36493 1.91897 3.36493 1.88167L3.38871 1.86924V1.88374C3.38736 1.88918 3.38736 1.89489 3.38871 1.90032L3.50957 2.02051L3.50362 2.35619ZM3.7929 2.63179C3.78101 2.76233 3.76912 2.89909 3.76714 3.03585C3.76516 3.17262 3.76714 3.30316 3.76714 3.43785C3.76714 3.70516 3.78498 3.97039 3.79686 4.23563V4.42005C3.79686 4.42005 3.83054 4.72258 3.86422 4.93394C3.87011 4.99126 3.88005 5.04806 3.89395 5.10385L3.51155 4.71843C3.53569 4.65196 3.55037 4.58215 3.55513 4.51122C3.55513 4.52158 3.56702 4.38896 3.58089 4.2522L3.60467 3.97661V3.81705L3.67402 2.36655V2.20285L3.78893 2.31682C3.80676 2.42457 3.80677 2.52818 3.7929 2.63179ZM4.13963 2.63179C4.11986 2.63899 4.10166 2.65026 4.08613 2.66494V2.67945C4.07013 2.79471 4.06284 2.91111 4.06434 3.02757C4.08217 3.52281 4.08811 4.01183 4.1 4.50293V4.68942C4.1 4.68942 4.12577 4.99403 4.15945 5.20539C4.1669 5.26193 4.17748 5.31797 4.19115 5.37323L3.94942 5.13079C3.97164 5.06403 3.98432 4.99421 3.98706 4.92357C3.98706 4.93601 3.98706 4.80132 3.99895 4.66249V4.38275V4.22526C3.98508 3.96003 3.9732 3.69687 3.96726 3.43371C3.96726 3.30109 3.96726 3.17055 3.96726 3.03793C3.96726 2.90531 3.97914 2.78305 3.99103 2.65044C3.99103 2.6007 4.00094 2.5489 4.0049 2.4971L4.13963 2.63179ZM4.43287 2.92603C4.42249 2.93368 4.41257 2.94198 4.40316 2.9509C4.40213 2.95567 4.40213 2.96063 4.40316 2.9654C4.38929 3.0773 4.37937 3.18919 4.37145 3.30109C4.34894 3.84467 4.35622 4.38915 4.39325 4.93187V5.11629C4.39325 5.11629 4.42694 5.41674 4.45666 5.63018C4.45666 5.63018 4.45666 5.64468 4.45666 5.6509L4.21889 5.4126C4.24086 5.34221 4.25353 5.269 4.25654 5.19502C4.25654 5.21782 4.28031 4.65627 4.28031 4.65627V4.49671C4.26842 4.00769 4.26247 3.51245 4.24662 3.02549C4.24625 2.93481 4.25088 2.84417 4.26049 2.75404L4.43287 2.92603ZM4.6746 3.52695C4.65727 3.68167 4.64999 3.83744 4.65281 3.99319L4.66469 4.44698C4.66469 4.75159 4.68846 5.05412 4.7063 5.35665L4.71621 5.54107C4.71621 5.54107 4.74394 5.77315 4.7796 5.97208L4.54779 5.74C4.54779 5.70477 4.55968 5.6654 4.56364 5.62188C4.56364 5.63225 4.56365 5.49756 4.57751 5.35873V5.07899V4.9215C4.54027 4.38709 4.53365 3.85083 4.55769 3.31559C4.55769 3.23271 4.56959 3.15189 4.57751 3.07108L4.70234 3.19541C4.6964 3.32388 4.68451 3.43163 4.6746 3.54146V3.52695ZM4.90641 3.74453C4.92623 4.34752 4.98566 4.94637 5.03916 5.54315L5.057 5.72757C5.057 5.72757 5.10455 6.02803 5.14814 6.23939C5.16003 6.29741 5.16993 6.34092 5.17786 6.37407L4.89849 6.09226C4.89849 6.07568 4.89849 6.05911 4.89849 6.04253C4.89849 6.06533 4.89849 5.50377 4.89849 5.50377V5.34422C4.88264 5.04376 4.86679 4.74123 4.85688 4.44077L4.84499 3.98697C4.84325 3.83945 4.8512 3.69198 4.86877 3.5456C4.86877 3.48965 4.86877 3.43371 4.88264 3.37776L4.90443 3.40055C4.89849 3.53524 4.90245 3.64714 4.90641 3.75903V3.74453ZM5.18182 3.74453C5.18182 3.85642 5.18183 3.96832 5.19768 4.08022C5.23334 4.70186 5.29873 5.3235 5.33439 5.92442V6.10884C5.33439 6.10884 5.36808 6.39272 5.3978 6.60201L5.22344 6.42795C5.23668 6.35975 5.24331 6.29033 5.24324 6.22074C5.24324 6.22074 5.24324 6.09641 5.24324 5.95964V5.67991L5.22739 5.52242C5.17389 4.92357 5.11446 4.32887 5.09464 3.73417C5.09464 3.68651 5.09464 3.63885 5.09464 3.59119L5.20957 3.70515C5.20192 3.71247 5.19525 3.72084 5.18974 3.73002C5.18601 3.73407 5.18333 3.73905 5.18194 3.74449C5.18056 3.74993 5.18051 3.75565 5.18182 3.7611V3.74453ZM5.49091 4.2377C5.49091 4.29572 5.49091 4.35374 5.49091 4.40968C5.50806 4.71663 5.54114 5.02237 5.58998 5.32557C5.60187 5.40017 5.6098 5.47269 5.61772 5.54729L5.64546 5.77108C5.66264 5.92027 5.67848 6.06947 5.69301 6.21866L5.70689 6.40101C5.70689 6.40101 5.75048 6.70147 5.79407 6.91283C5.8026 6.98394 5.8199 7.05359 5.84557 7.12004L5.82179 7.08896C5.83765 7.08896 5.58602 6.81337 5.5028 6.72012L5.51469 6.62895C5.51469 6.62895 5.51469 6.50462 5.52658 6.36579C5.53846 6.22695 5.52658 6.08605 5.52658 6.08605L5.51667 5.92649C5.48101 5.30485 5.41562 4.69357 5.38194 4.08022C5.38194 4.01805 5.38194 3.95589 5.38194 3.89165L5.5345 4.04499C5.52164 4.05785 5.50972 4.07171 5.49883 4.08643C5.49774 4.0912 5.49774 4.09617 5.49883 4.10093C5.49927 4.15217 5.49662 4.20339 5.49091 4.25427V4.2377ZM6.3528 4.9443C6.3528 5.05619 6.36667 5.16809 6.38054 5.27998C6.39441 5.39188 6.4063 5.50377 6.42215 5.6136L6.44989 5.79802C6.44989 5.79802 6.51923 6.09641 6.57867 6.30155C6.57867 6.30155 6.57867 6.31813 6.57867 6.32849C6.52121 6.38443 6.46574 6.44245 6.41224 6.50047V6.46318C6.41224 6.47561 6.41224 6.33885 6.40233 6.20209C6.39242 6.06532 6.3845 5.92442 6.3845 5.92442L6.36468 5.76694C6.33298 5.50999 6.30326 5.25305 6.27949 4.9961C6.27949 4.92358 6.27948 4.85105 6.26561 4.77645L6.38054 4.89456C6.37039 4.90475 6.3611 4.91585 6.3528 4.92772C6.34982 4.93855 6.34982 4.95004 6.3528 4.96088V4.9443ZM6.62622 5.58044C6.64604 5.78766 6.67972 5.99487 6.67972 5.99487C6.69791 6.0547 6.71907 6.11349 6.74313 6.171L6.68171 6.22902C6.68171 6.18136 6.66981 6.09641 6.66188 6.01145L6.63415 5.73585L6.61235 5.58044C6.5965 5.47062 6.58264 5.36287 6.57075 5.25304C6.57075 5.18881 6.55886 5.1225 6.5549 5.05619L6.62622 5.12872C6.62622 5.12872 6.62622 5.18881 6.62622 5.2717C6.62622 5.35458 6.61632 5.48927 6.62622 5.59702V5.58044ZM7.05815 5.52864H7.03835C7.03835 5.52864 7.03835 5.51206 7.03835 5.50377L7.05815 5.52864ZM6.92937 5.97622L6.94126 5.99073L6.86795 6.05704C6.86795 6.00523 6.86795 5.9555 6.86795 5.9555C6.86795 5.9555 6.83625 5.74829 6.81842 5.55558C6.81842 5.46648 6.80455 5.37945 6.80455 5.30899L6.81842 5.3235L6.87587 5.37323L6.83624 5.38981C6.83624 5.38981 6.83624 5.41882 6.84813 5.46026C6.86002 5.5017 6.86002 5.55972 6.86399 5.61567C6.86399 5.72964 6.88182 5.84568 6.88182 5.84568C6.89292 5.89626 6.90885 5.94555 6.92937 5.9928V5.97622ZM7.06014 5.81045C7.06014 5.82081 7.07599 5.83946 7.08986 5.86018L7.05023 5.89334L7.06212 5.8291L7.06014 5.81045ZM7.29196 5.71099H7.28008H7.26224L7.2444 5.72549C7.2444 5.70891 7.2444 5.69027 7.2444 5.66955L7.29196 5.71099ZM5.9288 7.22158C5.907 7.1856 5.88317 7.151 5.85746 7.11797C5.88322 7.13662 5.89709 7.02887 5.90105 6.89004C5.90535 6.80307 5.90535 6.71592 5.90105 6.62895C5.90105 6.49011 5.90105 6.34921 5.90105 6.34921L5.88718 6.18965C5.87529 6.04046 5.85945 5.88919 5.84162 5.73793L5.81387 5.51414C5.81387 5.43954 5.79604 5.36287 5.78613 5.28827C5.73698 4.99556 5.7039 4.70014 5.68706 4.40347C5.68706 4.34959 5.68706 4.29572 5.68706 4.24391C5.68706 4.22526 5.68706 4.20454 5.68706 4.18382L5.80792 4.30608C5.80792 4.31644 5.79009 4.3268 5.78217 4.33923C5.78107 4.344 5.78107 4.34897 5.78217 4.35374C5.79802 4.4532 5.80397 4.56095 5.81387 4.67699C5.84954 5.06034 5.89511 5.44161 5.93473 5.82081L5.95455 6.00316C5.95455 6.00316 6.00408 6.30362 6.04767 6.51291C6.11107 6.87139 6.14476 6.72012 6.15269 6.4984C6.15269 6.4984 6.15269 6.37407 6.15269 6.23524V5.95757L6.13485 5.79802C6.09522 5.41674 6.04966 5.03754 6.01399 4.65627C6.01399 4.60032 6.01399 4.5423 6.00012 4.48428L6.13882 4.62311C6.12369 4.63476 6.11032 4.64873 6.09919 4.66456C6.09809 4.66932 6.09809 4.6743 6.09919 4.67906C6.09919 4.79303 6.11306 4.90285 6.12098 5.01475C6.14476 5.27584 6.17448 5.53486 6.20816 5.7918L6.22995 5.97622C6.22995 5.97622 6.28742 6.27461 6.33894 6.4839C6.33894 6.52327 6.35677 6.55849 6.36271 6.58543L6.29137 6.66625C6.29137 6.66625 6.24383 6.72634 6.18439 6.8113C6.11923 6.90546 6.05967 7.00372 6.00606 7.10554C5.95851 7.16978 5.94068 7.20707 5.9288 7.23816V7.22158Z" fill="url(#paint0_linear_134_329)"/>
<defs>
<linearGradient id="paint0_linear_134_329" x1="2.35396" y1="5.23921" x2="5.46446" y2="2.16148" gradientUnits="userSpaceOnUse">
<stop stop-color="#A71F63"/>
<stop offset="1" stop-color="#A31E23"/>
</linearGradient>
</defs>
</svg>
