<svg width="5" height="7" viewBox="0 0 5 7" fill="none" xmlns="http://www.w3.org/2000/svg">
<path d="M4.36062 2.17387C4.3681 2.14967 4.37738 2.12611 4.38836 2.10342C4.40345 2.08085 4.42 2.05939 4.43789 2.03918C4.46365 2.01017 4.52904 1.92729 4.63603 1.79674C4.65148 1.77696 4.66354 1.75452 4.67169 1.73043C4.67169 1.71593 4.70141 1.69936 4.74302 1.68278C4.78462 1.6662 4.81038 1.64962 4.81633 1.63511C4.82358 1.59095 4.83907 1.54871 4.8619 1.51079C4.88361 1.47578 4.89967 1.43728 4.90945 1.39682C4.89162 1.39682 4.88369 1.38439 4.88963 1.36988C4.89558 1.35538 4.88964 1.34295 4.86586 1.33259C4.87973 1.31808 4.88369 1.30357 4.87576 1.29114C4.87089 1.28544 4.86821 1.27807 4.86821 1.27042C4.86821 1.26278 4.87089 1.25539 4.87576 1.2497C4.89466 1.21567 4.9049 1.17715 4.90549 1.1378C4.90549 1.09429 4.90549 1.05285 4.90549 1.01141C4.90946 0.997905 4.90946 0.983463 4.90549 0.969962C4.85992 0.969962 4.84604 0.953377 4.86388 0.9368C4.88171 0.920223 4.88766 0.905726 4.8837 0.893293L4.8302 0.905726C4.81632 0.912053 4.80164 0.91624 4.78661 0.918158H4.66971C4.63183 0.921238 4.59486 0.931777 4.56074 0.949233C4.52111 0.969954 4.50526 0.949243 4.50922 0.9078C4.51318 0.866357 4.4577 0.824909 4.38439 0.876713C4.37802 0.884723 4.36963 0.890707 4.36018 0.894002C4.35073 0.897297 4.34059 0.897765 4.33089 0.895355C4.30282 0.893846 4.27503 0.901849 4.25165 0.918158C4.23794 0.926886 4.2253 0.937316 4.214 0.949233C4.2035 0.961125 4.18959 0.969134 4.17437 0.972036C4.14415 0.974979 4.11566 0.988062 4.09314 1.00933C4.07233 1.02921 4.0505 1.04788 4.02775 1.06527C3.90049 1.15623 3.78696 1.26658 3.69092 1.39267C3.59582 1.517 3.50666 1.63512 3.42344 1.74909L3.27683 1.9563C3.26098 1.9791 3.25503 1.98945 3.25899 1.98945C3.26295 1.98945 3.25899 1.99982 3.25899 2.02054C3.22223 2.09179 3.18189 2.16096 3.13813 2.22775L2.96377 2.50956C2.89839 2.62146 2.83697 2.72921 2.78149 2.83281C2.72601 2.93642 2.66459 3.04003 2.59524 3.14571C2.53584 3.30326 2.46218 3.45452 2.3753 3.59743C2.34228 3.66374 2.31455 3.71555 2.29209 3.75285L2.24454 3.84609C2.2309 3.87798 2.21569 3.90909 2.19897 3.93933C2.17718 3.97663 2.15141 4.03259 2.11773 4.10511C2.08405 4.17764 2.04047 4.25223 2.0266 4.28124L1.99489 4.3517C1.98498 4.37035 1.97508 4.39314 1.96121 4.42422C1.94734 4.4553 1.91563 4.51124 1.87006 4.60034L1.76506 4.80756C1.73137 4.87387 1.69174 4.94018 1.64815 5.01477C1.63165 5.04738 1.61171 5.07797 1.58871 5.10595L1.52531 5.19091C1.50153 5.22821 1.47775 5.2655 1.45794 5.3028C1.43531 5.34149 1.40726 5.37642 1.37473 5.40641C1.3652 5.42484 1.35074 5.43996 1.33312 5.44993C1.32372 5.45643 1.31269 5.4599 1.30142 5.4599C1.29014 5.4599 1.27912 5.45643 1.26971 5.44993C1.25113 5.42499 1.23825 5.39592 1.23207 5.36496C1.23202 5.26383 1.23798 5.1628 1.24991 5.06244C1.26377 4.96298 1.27368 4.86558 1.28358 4.76819L1.34303 4.00979C1.354 3.92171 1.37055 3.83449 1.39256 3.7487C1.41436 3.66374 1.43021 3.57879 1.44408 3.4959C1.45795 3.41302 1.48568 3.27417 1.49955 3.16228C1.51342 3.05038 1.52531 2.9385 1.53918 2.82246C1.55354 2.71538 1.56016 2.60732 1.55899 2.4992C1.55715 2.39061 1.54588 2.28241 1.52531 2.17595C1.50748 2.13865 1.48965 2.10342 1.47776 2.07234C1.4614 2.03687 1.43321 2.00887 1.3985 1.9936C1.37246 1.96273 1.33891 1.93982 1.30142 1.92729C1.25923 1.91108 1.21624 1.89724 1.17263 1.88584C1.12084 1.85987 1.06349 1.84845 1.0062 1.8527C0.947079 1.8547 0.888159 1.86092 0.829855 1.87134C0.756277 1.88224 0.685153 1.90681 0.619832 1.94387C0.556429 1.98117 0.495009 2.0226 0.435568 2.06405C0.411529 2.08726 0.396685 2.11905 0.393962 2.15315C0.365727 2.20756 0.343775 2.2653 0.328574 2.32514C0.312777 2.38128 0.312777 2.44099 0.328574 2.49713C0.328574 2.50956 0.328574 2.52199 0.328574 2.5282C0.321787 2.53874 0.315825 2.54983 0.310742 2.56136C0.296873 2.67326 0.28697 2.76858 0.277063 2.87633C0.267156 2.98409 0.263194 3.08355 0.259232 3.19959C0.2458 3.31997 0.238521 3.44102 0.237434 3.56221C0.237434 3.68861 0.237436 3.81501 0.221585 3.94555C0.209697 4.03466 0.20375 4.12375 0.199787 4.21285C0.195825 4.30196 0.199787 4.38899 0.199787 4.4781C0.199787 4.5672 0.183936 4.62729 0.174029 4.69982C0.162221 4.76817 0.156914 4.83758 0.158181 4.90703C0.15265 5.01372 0.138735 5.11975 0.116574 5.22406C0.095911 5.32413 0.0859382 5.4263 0.0868492 5.52867C0.104179 5.75715 0.154967 5.98147 0.237434 6.19382C0.252006 6.24908 0.270551 6.30312 0.292911 6.35545C0.31587 6.40974 0.346602 6.46004 0.384051 6.50464C0.44525 6.56878 0.520878 6.61581 0.603984 6.64141C0.756023 6.69604 0.917663 6.71513 1.07752 6.69735C1.2761 6.69012 1.46745 6.61761 1.62438 6.49014L1.87006 6.30365C1.94737 6.24166 2.01901 6.17229 2.08405 6.09644C2.08614 6.09266 2.08723 6.08837 2.08723 6.084C2.08723 6.07964 2.08614 6.07535 2.08405 6.07157C2.08212 6.06737 2.08111 6.06277 2.08111 6.0581C2.08111 6.05344 2.08212 6.04884 2.08405 6.04463L2.26633 5.83742L2.29804 5.76283C2.34099 5.72862 2.37902 5.68814 2.41098 5.64264C2.44104 5.59936 2.46882 5.55439 2.49419 5.50794C2.57146 5.37947 2.63487 5.27794 2.68044 5.20334C2.72601 5.12875 2.76563 5.05829 2.8013 4.99613C2.83696 4.93397 2.87461 4.85937 2.91424 4.78892L3.08463 4.48845C3.12624 4.42007 3.15002 4.38278 3.152 4.37656C3.15398 4.37035 3.152 4.37656 3.152 4.37656C3.152 4.37656 3.14011 4.37656 3.13813 4.37656C3.15088 4.33823 3.16749 4.30141 3.18766 4.26673C3.24116 4.17141 3.28277 4.09061 3.31447 4.02844C3.34455 3.96932 3.37762 3.9119 3.41354 3.85645C3.44722 3.80258 3.47892 3.74663 3.51261 3.68861C3.54629 3.63059 3.58195 3.55185 3.62752 3.45653C3.6962 3.31839 3.75169 3.21478 3.79396 3.14571L3.90888 2.9385C3.94454 2.87426 3.98812 2.80795 4.03766 2.73128C4.08719 2.65461 4.15456 2.55929 4.23579 2.43082C4.28462 2.34922 4.3264 2.26324 4.36062 2.17387Z" fill="#334C9F"/>
</svg>
