<svg width="3" height="3" viewBox="0 0 3 3" fill="none" xmlns="http://www.w3.org/2000/svg">
<path d="M1.49822 1.18117C1.47608 1.23405 1.46468 1.29122 1.46476 1.34902C1.4455 1.4166 1.4455 1.48865 1.46476 1.55623C1.46829 1.56223 1.47322 1.56718 1.47908 1.57061C1.48493 1.57404 1.49152 1.57585 1.49822 1.57585C1.50493 1.57585 1.51152 1.57404 1.51737 1.57061C1.52323 1.56718 1.52816 1.56223 1.53169 1.55623C1.55133 1.50059 1.55543 1.44019 1.5435 1.38217C1.54555 1.31615 1.53414 1.25044 1.51003 1.18946C1.50918 1.18692 1.50757 1.18474 1.50544 1.18324C1.50331 1.18175 1.50078 1.18102 1.49822 1.18117Z" fill="black" stroke="#5EBC6D" stroke-width="0.973512" stroke-miterlimit="10"/>
</svg>
