<svg width="9" height="15" viewBox="0 0 9 15" fill="none" xmlns="http://www.w3.org/2000/svg">
<path d="M8.33067 3.79836C7.9526 2.40392 7.21505 1.14511 6.19873 0.15968C6.1863 0.147739 6.17005 0.141113 6.15317 0.141113C6.13629 0.141113 6.12002 0.147739 6.10759 0.15968L5.79454 0.437346L5.69745 0.526446L5.42007 0.775106C5.36063 0.741952 5.28732 0.824837 5.34477 0.878713C6.14457 1.64757 6.77645 2.58773 7.19735 3.63511C7.61826 4.68249 7.81829 5.81247 7.78381 6.94802C7.74519 8.01423 7.48587 9.05899 7.02373 10.0102C6.5616 10.9615 5.90765 11.7965 5.10701 12.4578C4.66545 12.8194 4.17969 13.1177 3.66261 13.3447C3.40081 13.4585 3.13208 13.5541 2.85819 13.6307C2.5273 13.7198 2.19642 13.7218 1.86751 13.7778L1.83977 13.3924C1.83969 13.378 1.83519 13.3641 1.82693 13.3527C1.81866 13.3413 1.80708 13.333 1.79392 13.329C1.78077 13.3251 1.76673 13.3257 1.75392 13.3307C1.74111 13.3358 1.73022 13.3451 1.72286 13.3571C1.61688 13.5574 1.48337 13.7403 1.3266 13.9C1.24932 13.9767 1.09082 14.1943 0.983826 14.215C0.91646 14.215 0.93033 14.3228 0.983826 14.3414C1.30368 14.4597 1.60088 14.6365 1.86156 14.8636C1.89921 14.8967 1.97253 14.8781 1.96856 14.8159L1.93884 14.3456C1.93884 14.3456 1.93884 14.3456 1.93884 14.3352C3.0234 14.2216 4.07043 13.8581 5.00467 13.2709C5.9389 12.6837 6.73714 11.8873 7.34198 10.939C7.99138 9.89461 8.41612 8.71521 8.58683 7.48232C8.75753 6.24942 8.67013 4.99246 8.33067 3.79836ZM5.27939 12.9303C4.27995 13.6513 3.12008 14.0916 1.9111 14.2088C1.902 14.2092 1.89311 14.2117 1.88501 14.216C1.87691 14.2204 1.8698 14.2265 1.86416 14.2339C1.85852 14.2414 1.85448 14.2501 1.85232 14.2593C1.85017 14.2686 1.84994 14.2782 1.85166 14.2875C1.84417 14.2874 1.83676 14.2891 1.82993 14.2923C1.8231 14.2955 1.81702 14.3002 1.81211 14.3061C1.80721 14.312 1.8036 14.319 1.80153 14.3265C1.79946 14.3341 1.79899 14.342 1.80014 14.3497C1.80014 14.4595 1.81401 14.5693 1.82193 14.6812C1.61161 14.5125 1.38116 14.3732 1.13639 14.2668C1.21861 14.1914 1.29667 14.1111 1.37019 14.0265C1.50002 13.8979 1.61506 13.754 1.71296 13.5975C1.71296 13.6742 1.71296 13.7509 1.72881 13.8275C1.72999 13.8399 1.73429 13.8517 1.74126 13.8618C1.74823 13.8719 1.75762 13.8799 1.76849 13.8849C1.77936 13.89 1.79132 13.8919 1.80314 13.8906C1.81496 13.8892 1.82623 13.8846 1.8358 13.8773C1.84293 13.8862 1.85218 13.893 1.86261 13.897C1.87305 13.901 1.8843 13.902 1.89525 13.9C2.21623 13.8462 2.52928 13.8482 2.84828 13.7633C3.11137 13.6944 3.36955 13.6064 3.621 13.5001C4.0826 13.3051 4.52135 13.0555 4.9287 12.7562C5.75194 12.1432 6.43977 11.3525 6.94571 10.4375C7.4762 9.46126 7.79676 8.37578 7.88505 7.25671C7.97333 6.13763 7.82722 5.01188 7.45689 3.95791C7.05138 2.77507 6.38319 1.70979 5.50725 0.8497L5.78463 0.601047C7.2262 1.93209 8.10998 3.80221 8.24547 5.80834C8.24547 5.89537 8.37821 5.89537 8.37425 5.80834C8.23932 3.77003 7.34421 1.86872 5.88172 0.514014L6.14128 0.281935C7.01194 1.12703 7.67174 2.18202 8.06318 3.35492C8.46669 4.54368 8.61683 5.81031 8.50304 7.06612C8.40546 8.22985 8.0665 9.35736 7.50977 10.3701C6.95304 11.3829 6.19191 12.2565 5.27939 12.9303Z" fill="#004E50"/>
</svg>
