<svg width="1" height="1" viewBox="0 0 1 1" fill="none" xmlns="http://www.w3.org/2000/svg">
<path d="M0.160282 0.569608L0.176136 0.58204L0.207832 0.600689C0.239249 0.619386 0.274719 0.629376 0.310866 0.629702C0.346626 0.631372 0.381984 0.621219 0.411917 0.600689C0.423481 0.604794 0.436015 0.604794 0.44758 0.600689C0.459612 0.590489 0.47027 0.578638 0.479276 0.565459C0.490132 0.552566 0.49884 0.537858 0.505034 0.521946C0.513932 0.503281 0.518567 0.482708 0.518567 0.461852C0.518567 0.440996 0.513932 0.42043 0.505034 0.401765C0.49488 0.382158 0.481047 0.364897 0.464365 0.351011C0.447683 0.337125 0.428498 0.326898 0.40795 0.320948C0.371501 0.311637 0.333444 0.311637 0.296995 0.320948C0.261454 0.32919 0.228175 0.345793 0.199681 0.369489C0.171187 0.393185 0.148224 0.423353 0.13254 0.45771L0.108765 0.519878C0.108765 0.542672 0.144431 0.54267 0.160282 0.569608ZM0.338608 0.407981C0.359989 0.401698 0.382603 0.401698 0.403984 0.407981C0.420171 0.412187 0.434294 0.422521 0.443613 0.436988C0.445847 0.442566 0.446999 0.448558 0.446999 0.454605C0.446999 0.460653 0.445847 0.466639 0.443613 0.472217C0.43974 0.481399 0.434374 0.489811 0.427759 0.497082L0.405967 0.519878C0.388985 0.528495 0.370362 0.532968 0.351487 0.532968C0.332612 0.532968 0.313977 0.528495 0.296995 0.519878C0.281816 0.514257 0.26772 0.50583 0.255382 0.495007L0.23954 0.482575C0.23954 0.482575 0.23954 0.482578 0.23954 0.472217C0.263132 0.437936 0.298757 0.414836 0.338608 0.407981Z" fill="black"/>
</svg>
