<svg width="2" height="2" viewBox="0 0 2 2" fill="none" xmlns="http://www.w3.org/2000/svg">
<path d="M0.912446 1.13105C0.954054 0.988075 0.815359 0.787079 0.738086 0.679328C0.735571 0.675496 0.731999 0.672558 0.727843 0.670911C0.723687 0.669265 0.719143 0.668987 0.714831 0.670114C0.710519 0.671242 0.706644 0.673724 0.703717 0.677222C0.700791 0.680721 0.698958 0.685067 0.698463 0.689686C0.692874 0.767525 0.702304 0.845747 0.726198 0.919697C0.739019 1.0043 0.767992 1.08534 0.811395 1.15799C0.818928 1.16554 0.828181 1.17097 0.838272 1.17374C0.848363 1.17652 0.858962 1.17657 0.869073 1.17387C0.879185 1.17118 0.888471 1.16582 0.896059 1.15833C0.903648 1.15084 0.909289 1.14145 0.912446 1.13105Z" fill="black" stroke="#5EBC6D" stroke-width="0.973512" stroke-miterlimit="10"/>
</svg>
