<svg width="1" height="3" viewBox="0 0 1 3" fill="none" xmlns="http://www.w3.org/2000/svg">
<path d="M0.822441 0.852539L0.774885 0.873255L0.731295 0.902268C0.702821 0.92228 0.676864 0.945942 0.654026 0.972714C0.584029 1.06286 0.538211 1.17085 0.521273 1.28561C0.505442 1.3955 0.505442 1.50727 0.521273 1.61716L0.537127 1.71041L0.552975 1.76014C0.563196 1.79651 0.576458 1.83188 0.592604 1.86582C0.611308 1.91323 0.63596 1.95782 0.665913 1.99843C0.689202 2.03746 0.722968 2.06845 0.762997 2.08753C0.762997 2.08753 0.762997 2.08753 0.762997 2.06059C0.762997 2.03365 0.737239 2.01501 0.719407 1.96943C0.696475 1.91235 0.677924 1.85344 0.66393 1.79329C0.657794 1.77167 0.653811 1.74945 0.652042 1.72698V1.70004L0.634211 1.60058C0.619343 1.50242 0.619343 1.40242 0.634211 1.30426C0.647015 1.21008 0.683992 1.12128 0.741205 1.04732C0.758923 1.02838 0.778146 1.01105 0.798666 0.995517L0.830362 0.972714L0.866031 0.95822C0.899714 0.891912 0.866027 0.862893 0.830362 0.858749L0.822441 0.852539Z" fill="#BF2026"/>
</svg>
