<svg width="38" height="17" viewBox="0 0 38 17" fill="none" xmlns="http://www.w3.org/2000/svg">
<path d="M18.7756 0.396871C16.1004 0.884063 13.5124 1.79744 11.1019 3.10516C10.4916 3.43808 9.8926 3.80002 9.3048 4.19096C9.01156 4.38367 8.72228 4.58881 8.43697 4.7981C8.15166 5.00738 7.87426 5.22289 7.59687 5.44461C7.41855 5.58758 7.24023 5.7347 7.06389 5.8839C6.42092 6.14061 5.79131 6.43249 5.17765 6.75834C4.55608 7.09123 3.95992 7.47363 3.39444 7.90216C2.83502 8.32679 2.32088 8.81308 1.86088 9.35266C1.62941 9.61658 1.41745 9.89851 1.22684 10.196C1.02999 10.4951 0.868335 10.8179 0.745377 11.1575C0.617962 11.505 0.558012 11.8755 0.569034 12.2474C0.58617 12.627 0.692318 12.9963 0.878124 13.3229C1.06002 13.6415 1.29252 13.9253 1.56565 14.1621C1.82969 14.3923 2.11512 14.5943 2.41764 14.7651C3.00662 15.097 3.6259 15.3663 4.26622 15.5691C5.50723 15.956 6.77712 16.2333 8.06249 16.3979C9.32461 16.5741 10.5729 16.6756 11.8013 16.7253C12.4182 16.7488 13.0291 16.7571 13.634 16.7502C13.9372 16.7502 14.2284 16.7378 14.5395 16.7233L14.9893 16.6943C15.2627 16.7212 15.5381 16.7398 15.8115 16.7647C16.188 16.7854 16.5645 16.8165 16.9409 16.8269C19.9731 16.9351 23.0076 16.7066 25.9937 16.1451C26.7426 16.0104 27.4876 15.8468 28.2267 15.6955C28.9657 15.5442 29.7147 15.3826 30.4557 15.2002C31.1967 15.0179 31.9377 14.8148 32.6649 14.5786C33.3997 14.3405 34.1158 14.0433 34.8067 13.6897C35.1547 13.5079 35.4898 13.3001 35.8093 13.068C36.1358 12.8322 36.4321 12.5536 36.691 12.2392C36.8229 12.0828 36.9391 11.9127 37.0377 11.7315C37.3311 11.1827 37.451 10.551 37.3805 9.92665C37.2766 9.12774 36.9935 8.36586 36.5543 7.70324C36.1341 7.04064 35.6333 6.43811 35.0643 5.91084C34.484 5.38488 33.8414 4.93916 33.1523 4.58467C32.4629 4.23299 31.743 3.9506 31.0025 3.74131C30.2678 3.53298 29.5204 3.37652 28.7656 3.273C28.0166 3.16318 27.2637 3.09065 26.5148 3.04092C23.5483 2.83239 20.5695 2.92678 17.6205 3.32273C16.1675 3.51199 14.7304 3.7641 13.3091 4.07907L12.7801 4.19718L12.253 4.32358L11.2069 4.57638C10.5075 4.74837 9.81994 4.94315 9.13241 5.15243L8.75795 5.27262L9.00562 5.09027C9.56832 4.67584 10.1508 4.307 10.7472 3.95888C13.0989 2.59436 15.6388 1.6199 18.2763 1.07032C20.7836 0.522933 23.3664 0.468825 25.8926 0.910761C26.4941 1.0271 27.0894 1.1765 27.6758 1.35834C28.2454 1.53179 28.8006 1.75284 29.3362 2.01936C29.592 2.14704 29.8372 2.29675 30.0693 2.46694L30.1129 2.49802L30.1486 2.52496C30.2917 2.64044 30.4243 2.76945 30.5448 2.91038C30.6241 3.01605 30.6736 3.07822 30.6756 3.08651C30.6871 3.0954 30.6998 3.10239 30.7133 3.10723C30.7717 3.13175 30.8349 3.14135 30.8976 3.13522C30.9603 3.1291 31.0208 3.10743 31.0739 3.07201C31.1048 3.03879 31.1285 2.99906 31.1436 2.95546C31.1586 2.91186 31.1646 2.8654 31.161 2.8192C31.1659 2.80514 31.1659 2.78975 31.161 2.77569C31.161 2.76533 31.0957 2.68659 30.9926 2.5519C30.8475 2.38256 30.6869 2.22848 30.5131 2.09188L30.4735 2.05873L30.4537 2.04215L30.4062 2.00693L30.208 1.87016L30.0099 1.74169C29.4714 1.43035 28.9054 1.17428 28.3198 0.977071C27.7273 0.772319 27.1248 0.600776 26.5148 0.463178C23.9622 -0.0699305 21.3362 -0.0924285 18.7756 0.396871ZM10.2677 16.083C8.98447 15.9877 7.70762 15.814 6.44374 15.5629C5.80408 15.4348 5.17119 15.2723 4.54758 15.0759C3.92567 14.8842 3.32312 14.6295 2.74852 14.3154C2.46771 14.1609 2.20223 13.9777 1.95598 13.7684C1.71956 13.5713 1.51833 13.3321 1.36157 13.0618C1.21347 12.8046 1.13028 12.5123 1.11984 12.2122C1.11585 11.9034 1.1711 11.5969 1.28231 11.3108C1.53535 10.6949 1.89469 10.133 2.34234 9.65312C2.79513 9.13943 3.29705 8.67561 3.84024 8.26893C4.40386 7.86033 4.99445 7.49402 5.6076 7.17277L5.75026 7.10232C5.31686 7.54591 4.92476 8.03159 4.57928 8.55282C4.14876 9.17341 3.86557 9.89219 3.75306 10.6498C3.70785 11.0412 3.73134 11.438 3.8224 11.8206L3.86203 11.9656L3.88184 12.0382C3.88184 12.061 3.89968 12.0837 3.90958 12.1065C3.9444 12.2006 3.9841 12.2926 4.02847 12.3821C4.07404 12.4692 4.11564 12.5583 4.16914 12.6412C4.22264 12.724 4.27217 12.809 4.32963 12.8877C4.55722 13.2034 4.82371 13.4863 5.12217 13.729C5.416 13.9712 5.7281 14.1881 6.05539 14.3776C6.38085 14.5677 6.71622 14.7385 7.05993 14.8894C7.40337 15.0414 7.75141 15.1795 8.10409 15.3038C9.15859 15.6642 10.2349 15.9508 11.3258 16.1617C10.983 16.1265 10.6244 16.1037 10.2677 16.083ZM11.6765 5.04261L12.7405 4.78566C13.0971 4.70071 13.4537 4.62404 13.8104 4.5453C14.5276 4.3961 15.2469 4.25313 15.974 4.13087C18.9137 3.62778 21.8927 3.41962 24.8703 3.50923C25.6192 3.54445 26.3761 3.57968 27.125 3.64184C27.874 3.70401 28.6229 3.79725 29.36 3.93194C30.0984 4.06176 30.8268 4.24735 31.5395 4.48727C32.2405 4.72824 32.9136 5.05002 33.5466 5.44668C33.7041 5.54202 33.8569 5.64576 34.0043 5.7575C34.0776 5.81345 34.1549 5.86525 34.2282 5.9212L34.4382 6.10147L34.6502 6.27968C34.7195 6.34184 34.7829 6.40815 34.8483 6.47239C34.9791 6.605 35.1119 6.72933 35.2446 6.87024C35.7415 7.41022 36.1564 8.02656 36.475 8.69786C36.7966 9.33298 36.9114 10.0605 36.8019 10.77C36.7361 11.1116 36.6009 11.4346 36.4057 11.717C36.1966 12.0084 35.9476 12.2661 35.6666 12.4816C35.0698 12.9324 34.4198 13.3008 33.7328 13.5778C33.0319 13.8694 32.3154 14.1185 31.587 14.3237C30.1248 14.7485 28.615 15.0428 27.1191 15.3598C26.3721 15.5194 25.6232 15.6499 24.8722 15.7742C24.1213 15.8986 23.3664 15.9959 22.6115 16.0726C21.8566 16.1493 21.1017 16.2073 20.3468 16.2508C19.9136 16.2702 19.4803 16.284 19.0471 16.2923C20.1309 16.1472 21.1929 15.9773 22.2172 15.7659C23.2852 15.5463 24.3234 15.2852 25.318 14.9723C26.288 14.669 27.2378 14.2994 28.1613 13.8658C29.0306 13.4542 29.864 12.964 30.6518 12.4008C30.85 12.2682 31.0243 12.119 31.2066 11.9864C31.2997 11.9159 31.3869 11.8413 31.4741 11.7667L31.6068 11.6527L31.6346 11.6279L31.6861 11.5844L31.7772 11.5056L31.9437 11.3481C31.9437 11.3481 32.227 11.056 32.4786 10.7472C32.6094 10.6001 32.7223 10.4385 32.8075 10.3328C32.8537 10.279 32.8949 10.2207 32.9304 10.1587C33.2791 9.60546 33.4198 9.22005 32.7005 9.95151C32.5876 10.051 32.4648 10.1587 32.3439 10.2727C32.223 10.3867 32.0962 10.4799 31.9912 10.5814C31.9377 10.6291 31.8862 10.6726 31.8426 10.7141L31.7198 10.8114L31.6108 10.9026L31.4483 11.0539C31.3988 11.1036 31.3314 11.1575 31.2502 11.2238L31.1333 11.3233C30.7696 11.6341 30.39 11.924 29.996 12.1915C29.1607 12.7502 28.2803 13.2314 27.3648 13.6296C25.3505 14.4732 23.2515 15.0759 21.1077 15.4261C19.9843 15.6333 18.8272 15.7846 17.6443 15.9131C17.0499 15.9773 16.4555 16.0374 15.8492 16.0871L15.025 16.1534C14.5435 16.1078 14.066 16.054 13.5904 15.9835C13.2219 15.9359 12.8554 15.8716 12.4868 15.8053C12.1183 15.739 11.7537 15.6727 11.3892 15.5981C10.662 15.4468 9.94081 15.279 9.23743 15.0718C8.53842 14.8714 7.85327 14.6215 7.18674 14.3237C6.53359 14.0365 5.92362 13.6519 5.37579 13.182C5.12197 12.9587 4.89863 12.7 4.71203 12.4132C4.5285 12.1412 4.40346 11.8309 4.34548 11.5035C4.24798 10.836 4.35989 10.1533 4.66448 9.55781C4.97231 8.9319 5.36542 8.35605 5.83149 7.84829C6.30068 7.32427 6.80452 6.83542 7.3393 6.38536H7.35118L7.54932 6.30869C8.89752 5.79413 10.2761 5.37122 11.6765 5.04261Z" fill="#F37B20"/>
</svg>
