<svg width="6" height="6" viewBox="0 0 6 6" fill="none" xmlns="http://www.w3.org/2000/svg">
<path d="M0.418205 2.46069C0.395579 2.79847 0.43872 3.13755 0.545014 3.45739C0.653598 3.77203 0.822112 4.06036 1.04035 4.3049C1.4568 4.78696 2.01417 5.11121 2.62543 5.227C2.91853 5.2802 3.2191 5.26748 3.50713 5.1897C3.78129 5.11231 4.04067 4.98614 4.27391 4.81672C4.70463 4.50799 5.04159 4.07649 5.24478 3.57343C5.42017 3.14801 5.46851 2.67707 5.38346 2.2224C5.37356 2.17681 5.36564 2.13122 5.35573 2.08771V2.07528V2.05663V2.01726C5.35573 2.01726 5.33591 1.95095 5.31214 1.88671C5.28836 1.82247 5.26459 1.76238 5.26657 1.7686C5.22892 1.68571 5.19326 1.63184 5.20515 1.71472V1.70022C5.18035 1.63833 5.1519 1.57813 5.11995 1.51994C5.08825 1.46192 5.06249 1.39976 5.02682 1.34174L5.00305 1.30236C4.87049 1.08161 4.71208 0.87904 4.53148 0.699371C4.1034 0.272813 3.5376 0.0302039 2.94641 0.0197089C2.31573 0.0120217 1.70561 0.254082 1.23849 0.697303C0.999848 0.922266 0.807693 1.19586 0.673807 1.50129C0.53072 1.80105 0.443946 2.12674 0.418205 2.46069ZM5.08626 1.69607L5.12986 1.80383L5.17939 1.92194H5.15165H5.11797C5.11797 1.90329 5.11797 1.87635 5.1041 1.83283C5.09023 1.78932 5.07834 1.70229 5.06843 1.65049L5.08626 1.69607ZM4.89804 1.34381C4.89804 1.38732 4.91586 1.43291 4.92577 1.47642L4.94163 1.53652L4.96145 1.61112C4.96145 1.61112 4.98324 1.67535 5.00701 1.73959C5.02091 1.77979 5.03678 1.81921 5.05456 1.8577C5.0652 1.88528 5.07848 1.91165 5.09419 1.93644L4.9337 1.97581C4.9388 1.94148 4.9388 1.90653 4.9337 1.8722C4.9337 1.76652 4.90001 1.6194 4.90001 1.6194L4.8802 1.5303C4.8485 1.40597 4.81482 1.28165 4.78114 1.15732C4.8237 1.21693 4.86275 1.27921 4.89804 1.34381ZM4.6266 0.960463L4.6682 1.10137C4.71047 1.25332 4.7501 1.40459 4.78709 1.55517L4.80491 1.62977L4.84454 1.76031C4.86237 1.82455 4.8802 1.88671 4.8802 1.88049C4.88954 1.91487 4.90356 1.94767 4.92182 1.97788L4.82473 2.01311L4.76528 2.0359C4.76528 2.0359 4.76528 2.02347 4.76528 2.01311C4.74943 1.89086 4.7316 1.76445 4.7316 1.76445L4.71378 1.67742C4.68802 1.53652 4.66424 1.39354 4.63254 1.26299C4.61668 1.19254 4.59688 1.12209 4.57508 1.05578C4.55329 0.989471 4.52356 0.919018 4.49781 0.848565L4.47403 0.790545C4.52757 0.844483 4.57849 0.901194 4.6266 0.960463ZM4.36109 0.682796C4.35314 0.69141 4.34765 0.702174 4.34524 0.713877C4.36101 0.767377 4.37953 0.81995 4.40072 0.871362C4.42648 0.939743 4.45422 1.00398 4.47601 1.06821C4.49781 1.13245 4.51563 1.2029 4.53148 1.27543C4.56319 1.41426 4.58697 1.55516 4.61273 1.68985L4.62857 1.76653C4.62857 1.76653 4.64443 1.83283 4.66424 1.89707C4.67543 1.93876 4.68932 1.97962 4.70584 2.01933V2.04419L4.59489 2.08563C4.59489 1.9841 4.56518 1.8577 4.56518 1.8577L4.54139 1.76238L4.49781 1.59039C4.46808 1.4785 4.43638 1.36453 4.40468 1.25264C4.33929 1.02884 4.27193 0.805055 4.20654 0.581264L4.19465 0.541892C4.25607 0.591624 4.30958 0.637209 4.36109 0.682796ZM3.86972 0.475582C3.8779 0.511543 3.88849 0.546859 3.90142 0.581264C3.93906 0.689015 3.99256 0.788478 4.03021 0.879652C4.06786 0.970827 4.09559 1.08686 4.12531 1.18633C4.15503 1.28579 4.18475 1.39354 4.21249 1.49922L4.28183 1.75824L4.32543 1.88671C4.34722 1.95095 4.37099 2.01311 4.36901 2.00689C4.41062 2.10843 4.45223 2.16852 4.42053 1.99446C4.40468 1.89085 4.37496 1.74373 4.37496 1.74373L4.30561 1.48886L4.21844 1.16975C4.18674 1.062 4.15702 0.962533 4.11937 0.848565C4.08173 0.734597 4.02426 0.641355 3.9886 0.548109C3.97042 0.502541 3.95906 0.454316 3.95492 0.40513C3.94748 0.398261 3.93953 0.392026 3.93114 0.386482L4.07379 0.47144L4.12134 0.626851C4.18871 0.846498 4.25409 1.06407 4.31948 1.28372C4.35118 1.39354 4.38289 1.50544 4.41261 1.61526L4.45421 1.78103L4.47997 1.88464L4.51761 2.01311L4.54932 2.12086H4.53347L4.33533 2.19546C4.31552 2.09392 4.28382 1.94887 4.28382 1.94887L4.21249 1.70229C4.18475 1.60076 4.15701 1.49508 4.12531 1.39769C4.09361 1.3003 4.06389 1.19047 4.02228 1.09308C3.98067 0.995692 3.93511 0.898296 3.89548 0.802978C3.87508 0.755709 3.85721 0.707287 3.84198 0.657932C3.83427 0.650798 3.82481 0.646052 3.81466 0.644222C3.80451 0.642392 3.79408 0.643547 3.78452 0.647567C3.81623 0.583331 3.84 0.5336 3.86972 0.479724V0.475582ZM3.81424 0.834065C3.85386 0.931456 3.89944 1.0247 3.93906 1.11795C3.97869 1.21119 4.00841 1.31065 4.03813 1.40805C4.06785 1.50544 4.09559 1.61526 4.12333 1.70643L4.19465 1.95716L4.24222 2.08563C4.26599 2.1478 4.28977 2.20789 4.28977 2.20375L3.99256 2.31979C3.99372 2.29839 3.99372 2.27695 3.99256 2.25555C3.97473 2.15194 3.94105 2.00689 3.94105 2.00689L3.91727 1.92194L3.81027 1.5531C3.79046 1.48886 3.77461 1.43084 3.75083 1.3666C3.72706 1.30236 3.7013 1.24642 3.68149 1.1884C3.66437 1.14423 3.65497 1.0972 3.65375 1.04956C3.64377 1.03444 3.62905 1.02345 3.61214 1.01848C3.63591 0.960462 3.66365 0.902445 3.68941 0.846497L3.73102 0.985327C3.822 1.23799 3.89614 1.49694 3.95293 1.76031L3.97077 1.83491L4.01237 1.96545C4.02374 2.00641 4.03765 2.04655 4.05399 2.08563C4.09361 2.18924 4.13324 2.24933 4.10352 2.0732C4.08965 1.96959 4.06389 1.82455 4.06389 1.82455L4.04408 1.73544C3.98403 1.46822 3.90792 1.20523 3.81622 0.94803C3.79862 0.898437 3.78342 0.847949 3.77065 0.796762C3.76416 0.790863 3.75661 0.786364 3.74845 0.78352C3.74029 0.780675 3.73168 0.779544 3.7231 0.780187L3.77065 0.684871C3.78267 0.736957 3.79789 0.788175 3.81622 0.838207L3.81424 0.834065ZM3.0217 2.64926C3.02382 2.63486 3.02449 2.62028 3.02368 2.60574C3.02368 2.60574 3.02368 2.55808 3.00189 2.51249C2.99454 2.48253 2.98924 2.45207 2.98604 2.42132H2.95631L3.03359 2.25141C3.03359 2.28871 3.04745 2.33222 3.05736 2.37781C3.07255 2.4478 3.09107 2.51695 3.11285 2.58502L3.14059 2.64304C3.03954 2.68034 2.94245 2.72178 2.8414 2.7653L2.78393 2.79223L2.88895 2.57259L2.90678 2.52907L2.92858 2.62232C2.93732 2.63963 2.94724 2.65625 2.95829 2.67205C2.98405 2.68656 3.00783 2.69277 3.02368 2.6534L3.0217 2.64926ZM3.15841 2.34672C3.15841 2.29492 3.1386 2.24312 3.13265 2.20375C3.12671 2.16438 3.13265 2.13744 3.13265 2.13537H3.10888L3.14059 2.0732C3.14059 2.0732 3.14059 2.08771 3.14059 2.096C3.15446 2.15816 3.16832 2.22032 3.18417 2.28249L3.20596 2.35916C3.20596 2.35916 3.22777 2.42546 3.25154 2.48763C3.27532 2.54979 3.28522 2.57051 3.29513 2.59124L3.22182 2.60574C3.22182 2.57466 3.21191 2.54772 3.21191 2.54772C3.21191 2.54772 3.17427 2.45447 3.15247 2.35087L3.15841 2.34672ZM3.28919 2.33222L3.26738 2.24726C3.25153 2.18717 3.23767 2.12501 3.2238 2.06492C3.20993 2.00482 3.20597 1.96752 3.19804 1.91986L3.23965 1.83283C3.23965 1.84941 3.23964 1.86599 3.25351 1.88049C3.27531 1.95923 3.30108 2.0359 3.32683 2.11257L3.35061 2.1851L3.40211 2.30943C3.42589 2.37159 3.44968 2.43169 3.44968 2.42754C3.46355 2.4607 3.47742 2.4897 3.48732 2.50835L3.34069 2.56223C3.30701 2.43997 3.28324 2.33637 3.28324 2.33637L3.28919 2.33222ZM3.49921 2.41304C3.48336 2.30943 3.44373 2.16438 3.44373 2.16438L3.414 2.07942C3.38824 2.00275 3.36447 1.92815 3.34268 1.85148C3.32088 1.77481 3.31493 1.75202 3.30305 1.70229C3.29116 1.65256 3.33277 1.64427 3.34664 1.61319C3.34664 1.6422 3.36844 1.67121 3.37637 1.69814C3.40807 1.79346 3.4358 1.89293 3.46552 1.99032L3.48732 2.06492C3.48732 2.06492 3.50911 2.12915 3.53289 2.19339L3.58242 2.30943C3.63196 2.41096 3.67555 2.46484 3.63196 2.29492L3.57846 2.04834L3.55468 1.96131C3.52496 1.86392 3.49722 1.76445 3.46552 1.66499C3.44621 1.61888 3.43096 1.57102 3.41995 1.52201L3.40014 1.50751L3.45363 1.38318C3.46552 1.41426 3.47939 1.44534 3.49326 1.47642C3.56403 1.65354 3.62489 1.83482 3.67554 2.01933L3.69735 2.09185L3.74093 2.22033C3.76074 2.28456 3.78254 2.34465 3.78056 2.34051L3.8083 2.40682L3.50911 2.51249C3.50703 2.48023 3.50172 2.44828 3.49326 2.41718L3.49921 2.41304ZM3.83208 2.31564C3.82019 2.21204 3.79046 2.06492 3.79046 2.06492L3.7647 1.97788C3.71241 1.7907 3.65023 1.60668 3.57846 1.42669C3.55864 1.37489 3.53685 1.32516 3.51505 1.27543L3.58044 1.12209C3.58734 1.15998 3.59661 1.19736 3.60818 1.23399C3.62998 1.29822 3.65771 1.35624 3.67951 1.41426C3.7013 1.47228 3.71715 1.53444 3.73696 1.59454L3.84396 1.96338L3.86575 2.0359C3.86575 2.0359 3.88755 2.10014 3.91132 2.16438C3.92522 2.20458 3.94109 2.244 3.95887 2.28249C3.96755 2.30316 3.97748 2.32323 3.9886 2.34258L3.85783 2.39024C3.83208 2.36952 3.83009 2.3488 3.82613 2.31979L3.83208 2.31564ZM1.19886 0.829917C1.63326 0.3737 2.21994 0.111488 2.83545 0.0984512C3.12686 0.0919703 3.41676 0.144028 3.68941 0.251794C3.74489 0.274587 3.80037 0.29945 3.85387 0.326388C3.83604 0.35747 3.81424 0.390625 3.79641 0.423779C3.60157 0.78907 3.42628 1.1654 3.27135 1.55102C3.18417 1.73752 3.09105 1.92194 3.00189 2.10843C2.95632 2.20168 2.91272 2.29492 2.86913 2.39231L2.8196 2.51249C2.8196 2.51249 2.79583 2.5788 2.77601 2.64304C2.7562 2.70728 2.74035 2.77359 2.74233 2.76737V2.80881L2.71459 2.82125C2.68685 2.87927 2.72846 2.89999 2.75224 2.90206L2.89094 2.83782C2.99793 2.79016 3.10492 2.74665 3.21191 2.70521C3.22578 2.71764 3.23569 2.71764 3.23767 2.70521L3.33872 2.6679C3.35655 2.69484 3.36843 2.69692 3.36447 2.65755C3.57251 2.58088 3.78452 2.50835 3.99455 2.43168L4.35317 2.29285H4.36308L4.54734 2.2224L4.59291 2.20582C4.60876 2.2369 4.61866 2.24104 4.61866 2.19546L4.8168 2.11879L4.93569 2.07735L5.05456 2.02761C5.093 2.01308 5.1307 1.99648 5.1675 1.97788L5.21704 1.95302H5.24279L5.25865 2.02969V2.06698L5.27054 2.1105V2.12915C5.27054 2.17888 5.29232 2.23069 5.29827 2.28249C5.30421 2.33429 5.31412 2.38817 5.31809 2.44412C5.32507 2.4984 5.32904 2.55306 5.32997 2.60782C5.33679 2.84275 5.30667 3.07725 5.24081 3.30198C5.0864 3.81171 4.7922 4.26277 4.39477 4.59914C4.18004 4.78317 3.93769 4.92881 3.67752 5.03015C3.40671 5.13497 3.11745 5.17737 2.82951 5.15447C2.22105 5.09022 1.65192 4.81017 1.21669 4.36085C0.992115 4.13475 0.810583 3.86614 0.681728 3.56929C0.555586 3.26682 0.492111 2.93985 0.495481 2.60988C0.494188 2.27913 0.55407 1.95124 0.671823 1.64427C0.791475 1.3402 0.968732 1.0646 1.19292 0.834065L1.19886 0.829917Z" fill="#84C780"/>
</svg>
