<svg width="8" height="15" viewBox="0 0 8 15" fill="none" xmlns="http://www.w3.org/2000/svg">
<path d="M6.80745 10.8565C6.47989 10.4154 6.0951 10.0241 5.66421 9.69406C5.83482 9.57852 5.98948 9.43909 6.12389 9.27963C6.46625 8.82198 6.6729 8.26944 6.71829 7.6903C6.79729 6.65655 6.73053 5.61626 6.52016 4.60282C6.20116 3.00312 6.112 0.433666 3.51049 0.682323C1.47763 0.877104 0.934732 2.03336 0.881236 5.36329C0.878189 6.02265 0.927896 6.68113 1.02984 7.33182C1.08399 7.92581 1.25034 8.50265 1.51924 9.0289C1.79488 9.50429 2.22114 9.86357 2.72389 10.0443C2.4481 10.4263 2.22099 10.8442 2.04825 11.2875C1.93532 11.5797 1.6282 12.2842 1.98286 12.5308C2.0817 12.591 2.19652 12.616 2.31011 12.6022C2.4237 12.5884 2.52994 12.5364 2.61293 12.4542C2.45839 13.1172 2.47424 13.6415 2.86457 13.7368C3.40944 13.8715 3.57983 13.1421 3.70466 12.7297L3.82354 12.334C3.80769 12.8748 3.89288 13.6146 4.34661 13.9337C4.80034 14.2528 4.96678 13.4094 4.99452 13.1421C5.01393 12.948 5.0232 12.7529 5.02226 12.5578C5.27983 13.1317 5.61666 13.4902 6.05652 13.225C6.43892 12.9888 6.28041 12.2718 6.17144 11.8532C6.45081 12.1475 6.91643 12.535 7.20372 12.2345C7.51083 11.8719 6.99965 11.101 6.80745 10.8565ZM3.66701 8.49222C3.61946 8.49222 3.57587 8.49222 3.53228 8.49222C3.28523 8.49901 3.03849 8.46972 2.79918 8.40519C2.57743 8.34432 2.37472 8.22399 2.21105 8.0561C2.04739 7.8882 1.92844 7.67855 1.86597 7.44786C1.79962 7.19966 1.7591 6.94469 1.74511 6.68739C1.74511 6.60036 1.72925 6.50918 1.72331 6.41594C1.67032 5.75497 1.6876 5.08989 1.77483 4.4329C1.79359 4.10898 1.85356 3.78913 1.95315 3.48179C2.37914 2.224 4.28321 2.04579 5.19265 2.75861C5.74148 3.18754 6.21503 6.14034 6.13379 6.83244C5.9733 8.18554 4.85384 8.50051 3.66701 8.49015V8.49222Z" fill="#3F61AC"/>
</svg>
