<svg width="10" height="10" viewBox="0 0 10 10" fill="none" xmlns="http://www.w3.org/2000/svg">
<path d="M8.35261 1.19621C8.24034 1.27447 8.14678 1.37869 8.07918 1.50081C7.94993 1.44319 7.81762 1.39338 7.68291 1.35162C7.68291 1.29982 7.68291 1.24801 7.68291 1.20035C7.6889 1.14078 7.6834 1.08056 7.66672 1.02325C7.65004 0.965948 7.62253 0.912721 7.58583 0.866736C7.58583 0.866736 7.57394 0.866736 7.56997 0.866736C7.51615 0.973075 7.47681 1.08676 7.45308 1.2045C7.45308 1.22936 7.43921 1.2563 7.43326 1.28531C7.19734 1.23353 6.95707 1.20646 6.71601 1.2045C6.71601 1.18377 6.70611 1.16513 6.70214 1.14441C6.67495 1.00316 6.63652 0.864531 6.58723 0.72998C6.58723 0.72998 6.57336 0.72998 6.5694 0.72998C6.51021 0.866469 6.48175 1.01533 6.48618 1.16513V1.219C6.26731 1.22944 6.04945 1.25645 5.83431 1.29982C5.82242 1.26874 5.81054 1.23765 5.80063 1.20864C5.75413 1.06871 5.67753 0.941815 5.57674 0.83773C5.57544 0.836005 5.57379 0.834609 5.5719 0.833651C5.57001 0.832692 5.56794 0.832196 5.56584 0.832196C5.56375 0.832196 5.56167 0.832692 5.55978 0.833651C5.5579 0.834609 5.55625 0.836005 5.55495 0.83773C5.54157 0.975822 5.54556 1.11515 5.56683 1.25216L5.57872 1.34333C5.29704 1.41666 5.02089 1.51154 4.7525 1.62721C4.73071 1.57748 4.70494 1.52982 4.68315 1.48838C4.61111 1.36207 4.51781 1.25045 4.40775 1.15891C4.40775 1.15891 4.38793 1.15891 4.3919 1.15891C4.42558 1.29153 4.43747 1.42829 4.47709 1.57334C4.49096 1.62307 4.50286 1.68109 4.51871 1.73704C4.27263 1.86021 4.03378 1.9986 3.80343 2.15147C3.67861 1.97119 3.51416 1.7619 3.46463 1.83235C3.41509 1.90281 3.46462 2.03957 3.49831 2.11209C3.53199 2.18462 3.5518 2.2385 3.58152 2.30066C3.35666 2.45841 3.14097 2.63001 2.9356 2.81455L2.73746 3.00934L2.40857 2.71095C2.40748 2.70924 2.40601 2.70783 2.40429 2.70686C2.40256 2.70589 2.40062 2.70538 2.39866 2.70538C2.3967 2.70538 2.39477 2.70589 2.39304 2.70686C2.39131 2.70783 2.38984 2.70924 2.38876 2.71095C2.39417 2.83582 2.43332 2.95653 2.50168 3.05906L2.56312 3.16475C2.33484 3.40654 2.12546 3.66708 1.937 3.94387C1.83336 3.87021 1.724 3.80574 1.61008 3.75115C1.61008 3.75115 1.59819 3.75115 1.61008 3.75115C1.646 3.90292 1.71367 4.04447 1.80821 4.16558C1.62949 4.45322 1.47567 4.75696 1.34855 5.07318C1.23053 5.01274 1.10147 4.97954 0.970105 4.9758C0.970105 4.9758 0.958217 4.97579 0.970105 4.98823C1.0541 5.10504 1.1591 5.20359 1.2792 5.27833C1.15633 5.62332 1.07254 5.98217 1.02954 6.34755H1.00379C0.867072 6.34755 0.728386 6.35999 0.591673 6.36413C0.591673 6.36413 0.579785 6.37656 0.591673 6.3807C0.726869 6.4642 0.867189 6.53827 1.01172 6.60242C0.997255 6.85194 1.00455 7.10233 1.03351 7.35047C0.976051 7.35047 0.92057 7.36705 0.869055 7.37534C0.766209 7.38724 0.667988 7.42647 0.58374 7.4893C0.58374 7.4893 0.58374 7.50381 0.58374 7.50381C0.739979 7.54011 0.899259 7.56023 1.05927 7.5639C1.09681 7.78672 1.1525 8.00579 1.22571 8.2187L1.12267 8.23942C1.01079 8.24971 0.904144 8.2936 0.815567 8.36582C0.815567 8.36582 0.815567 8.36581 0.815567 8.37617C0.929599 8.41296 1.04935 8.42633 1.16824 8.41554C1.20977 8.41941 1.25154 8.41941 1.29307 8.41554C1.31684 8.47564 1.34062 8.53366 1.36638 8.59168C1.37877 8.62321 1.39789 8.65136 1.42227 8.67398C1.44665 8.6966 1.47565 8.71311 1.50706 8.72223C4.97243 10.9477 10.9145 5.86682 8.74491 1.9256C8.7333 1.90523 8.71933 1.88644 8.70331 1.86966C8.69057 1.85258 8.67515 1.83786 8.65773 1.82614C8.55795 1.75085 8.45408 1.68166 8.34666 1.61892C8.37187 1.48186 8.39039 1.34353 8.40214 1.2045C8.40319 1.19763 8.40159 1.1906 8.39769 1.18497C8.39379 1.17933 8.38791 1.17555 8.38134 1.17445C8.37477 1.17335 8.36806 1.17503 8.36267 1.17911C8.35728 1.18319 8.35366 1.18934 8.35261 1.19621ZM5.22407 8.22284C5.03064 8.30988 4.8321 8.38394 4.62966 8.44456C4.88129 7.56597 4.43152 6.54234 3.75786 5.97457C3.2863 5.57672 2.4799 5.25761 1.85379 5.42752C1.96224 5.16206 2.09008 4.90574 2.23619 4.66083C3.95204 3.49835 6.61299 6.66873 5.22407 8.22284ZM2.28572 6.51747C2.41959 6.51053 2.55251 6.5442 2.66851 6.61441C2.78451 6.68463 2.87864 6.7884 2.93957 6.91324C3.10996 7.21578 2.93957 7.57425 2.74143 7.7939C2.71519 7.82054 2.6874 7.84546 2.65822 7.86851C2.56428 7.92486 2.45889 7.95705 2.35072 7.96245C2.24256 7.96786 2.13471 7.94631 2.03607 7.89958C1.35053 7.55354 1.54668 6.60657 2.28572 6.51747ZM6.17313 7.69444C6.58723 6.02015 4.58805 3.55016 2.88409 3.78639C3.0332 3.60973 3.19267 3.44294 3.36159 3.287C4.76241 1.97326 6.57336 1.54848 8.31496 2.25093C9.11345 4.30442 7.9286 6.48224 6.17313 7.69444Z" fill="#A4852F"/>
</svg>
