<svg width="18" height="9" viewBox="0 0 18 9" fill="none" xmlns="http://www.w3.org/2000/svg">
<path d="M17.3896 2.18379H17.3777C17.3777 2.1983 17.3579 2.20866 17.3064 2.21695C17.3007 2.21045 17.2975 2.20194 17.2975 2.19312C17.2975 2.18429 17.3007 2.17578 17.3064 2.16928C17.3113 2.15898 17.3138 2.14763 17.3138 2.13613C17.3138 2.12463 17.3113 2.11328 17.3064 2.10297C17.3132 2.09532 17.3179 2.08589 17.32 2.07568C17.3221 2.06546 17.3215 2.05485 17.3183 2.04495C17.3183 2.02216 17.2866 2.00558 17.239 1.99937C17.22 2.02967 17.2066 2.0634 17.1994 2.09883C17.134 2.08226 17.1162 2.05532 17.1459 2.02009C17.1524 2.0137 17.1575 2.00599 17.1611 1.99744C17.1646 1.98889 17.1664 1.97967 17.1664 1.97036C17.1664 1.96105 17.1646 1.95183 17.1611 1.94328C17.1575 1.93473 17.1524 1.92702 17.1459 1.92063L17.0964 1.96414C17.0751 1.9849 17.0502 2.00109 17.0231 2.01181C17.0283 2.00236 17.031 1.99163 17.031 1.98072C17.031 1.96981 17.0283 1.95909 17.0231 1.94964C16.9993 1.96 16.9914 1.98486 16.9953 2.02009C16.9993 2.05532 16.9953 2.07811 16.9656 2.08226C16.9359 2.0864 16.9379 2.10505 16.9002 2.10712C16.8739 2.11376 16.8461 2.10929 16.8229 2.09469V2.05532C16.7615 2.09262 16.7437 2.12163 16.7675 2.14649C16.7912 2.17136 16.7675 2.20037 16.712 2.23559C16.712 2.20866 16.7239 2.19622 16.712 2.20037C16.7001 2.20451 16.6981 2.20037 16.6902 2.16722C16.6823 2.13406 16.6625 2.16722 16.6347 2.13406C16.607 2.10091 16.5991 2.10712 16.6109 2.11956C16.5812 2.1382 16.5872 2.16307 16.6327 2.1983H16.6189L16.5158 2.30812C16.4564 2.4138 16.3831 2.53191 16.2939 2.6666C16.2165 2.78044 16.1463 2.8995 16.0839 3.02301C16.0245 3.09346 15.9729 3.1577 15.9313 3.21572L15.8045 3.38563C15.7579 3.44276 15.7047 3.49358 15.646 3.5369C15.5727 3.59383 15.4959 3.64574 15.4162 3.69231L15.1329 3.82078C15.0615 3.85186 14.9961 3.87673 14.9347 3.89745C14.9009 3.91272 14.8645 3.92048 14.8277 3.92025C14.8277 3.92025 14.8277 3.89331 14.8515 3.86015C14.8753 3.827 14.8852 3.7897 14.903 3.75447C14.918 3.71909 14.9359 3.68512 14.9565 3.65294L14.9922 3.59699C15.1481 3.26224 15.2409 2.89922 15.2656 2.52777C15.2758 2.30939 15.2705 2.09053 15.2497 1.87297C15.2127 1.73598 15.1622 1.60336 15.0992 1.47719C15.0261 1.33789 14.9278 1.21474 14.8099 1.11457C14.7435 1.05291 14.6661 1.00571 14.582 0.975736C14.4902 0.94519 14.397 0.919595 14.3027 0.899061C14.2528 0.884899 14.2017 0.875882 14.1501 0.872129C14.0944 0.860792 14.0368 0.865808 13.9837 0.886629C13.8804 0.890131 13.7776 0.903308 13.6766 0.926H13.6647C13.647 0.948041 13.6224 0.962747 13.5953 0.967445L13.5062 0.981952C13.4551 0.987383 13.4057 1.00435 13.3615 1.03168L13.2466 1.09592L13.0802 1.19331C13.035 1.21903 12.9925 1.24958 12.9534 1.28448L12.2599 1.86675C12.248 1.88886 12.2361 1.90958 12.2242 1.92892C12.2058 1.95153 12.1837 1.97049 12.1588 1.98487C12.1179 2.00863 12.0863 2.04681 12.0697 2.09262C12.0491 2.14046 12.0194 2.18346 11.9825 2.21902C11.9711 2.25004 11.9502 2.27626 11.9231 2.29361C11.8891 2.32131 11.8579 2.35255 11.8299 2.38686C11.7091 2.563 11.5981 2.74327 11.4971 2.92561C11.4432 3.0312 11.3949 3.13981 11.3524 3.25094L11.3366 3.27374C11.3027 3.35034 11.265 3.42503 11.2237 3.49753C11.2222 3.50113 11.2214 3.50501 11.2214 3.50892C11.2214 3.51284 11.2222 3.51672 11.2237 3.52032V3.53068L11.0632 3.827C11.0117 3.92922 10.9582 4.02661 10.9027 4.11917C10.8492 4.21449 10.8036 4.2953 10.7679 4.36161L10.2944 5.062L10.1537 5.26921C10.0923 5.35417 10.0269 5.44327 9.95559 5.53651C9.88426 5.62976 9.80897 5.71679 9.73368 5.79761C9.67999 5.85885 9.61945 5.91311 9.55337 5.95923C9.49576 6.00744 9.42773 6.04018 9.35524 6.05455C9.33485 6.0559 9.31443 6.05273 9.2953 6.04523C9.27618 6.03773 9.25879 6.02606 9.24428 6.01103C9.21683 5.97652 9.20084 5.93362 9.19871 5.88878C9.19376 5.84265 9.19376 5.79608 9.19871 5.74995C9.21461 5.44871 9.26381 5.1504 9.34533 4.86099C9.42062 4.61441 9.50582 4.36369 9.59697 4.10881C9.6221 4.01124 9.65388 3.91568 9.69207 3.82286C9.72971 3.73168 9.77529 3.61564 9.83076 3.49753C9.88624 3.37942 9.92587 3.24473 9.97343 3.0831C10.0206 2.92639 10.0315 2.76019 10.0051 2.59822L9.96946 2.46975C9.92694 2.36912 9.8583 2.28298 9.77133 2.22109C9.67839 2.15578 9.58104 2.09761 9.48006 2.04703C9.40496 2.00917 9.32122 1.9941 9.23834 2.00352C9.12937 2.00352 9.04021 2.00352 8.9669 2.00352C8.90023 1.99974 8.8334 2.00673 8.76876 2.02424C8.72716 2.03667 8.67564 2.05532 8.61026 2.08018C8.55501 2.09723 8.50182 2.12087 8.45174 2.15064L8.17833 2.34334C8.10814 2.3922 8.04188 2.44695 7.98019 2.50704C7.90292 2.58164 7.82366 2.66453 7.74044 2.7557C7.65723 2.84688 7.57995 2.9422 7.5007 3.0458C7.43 3.13821 7.36387 3.23435 7.30256 3.33383L7.27087 3.38563L7.22133 3.46852C7.2035 3.4996 7.18567 3.52654 7.16982 3.54933C7.16081 3.56517 7.14778 3.57808 7.13217 3.58663C7.12897 3.57583 7.12897 3.56427 7.13217 3.55347C7.12878 3.52943 7.12878 3.505 7.13217 3.48095C7.13319 3.44622 7.13649 3.4116 7.14207 3.37735C7.14207 3.37735 7.14208 3.32968 7.15793 3.25716C7.17378 3.18463 7.18171 3.10175 7.19954 3.01472C7.21737 2.92769 7.22925 2.84688 7.23916 2.77228C7.24748 2.73272 7.25278 2.69253 7.25501 2.6521C7.21075 2.53306 7.12874 2.43352 7.0227 2.37015C6.91666 2.30678 6.79303 2.28342 6.67249 2.30397L6.49814 2.31641C6.44484 2.32013 6.39256 2.33344 6.3436 2.35578C6.26904 2.38697 6.20284 2.43665 6.15072 2.50054C6.0986 2.56444 6.06212 2.64063 6.04441 2.72255C6.0468 2.78636 6.03876 2.85013 6.02064 2.91111C5.99822 2.97897 5.97969 3.04816 5.96515 3.11833C5.96119 3.2106 5.9526 3.30259 5.93939 3.39392C5.92354 3.48717 5.90572 3.57834 5.88392 3.6633C5.84628 3.85394 5.82052 4.01557 5.80071 4.14818C5.7809 4.2808 5.769 4.4072 5.75711 4.52946C5.74523 4.65171 5.73136 4.78018 5.71353 4.91487L5.69569 4.94596C5.6422 5.04128 5.59861 5.12209 5.56295 5.1884L5.08742 5.88878L4.94674 6.09599C4.8873 6.18095 4.81993 6.27005 4.7486 6.3633C4.67727 6.45654 4.60198 6.54357 4.52669 6.62439C4.47239 6.68576 4.41119 6.74004 4.34441 6.78602C4.28707 6.83468 4.21893 6.86746 4.14628 6.88133C4.12588 6.88282 4.10541 6.87971 4.08627 6.8722C4.06713 6.86469 4.04975 6.85297 4.03532 6.83782C4.00787 6.80331 3.99188 6.7604 3.98976 6.71556C3.98375 6.6695 3.98375 6.6228 3.98976 6.57673C4.00623 6.2754 4.0561 5.97708 4.13836 5.68778C4.21365 5.44188 4.29687 5.19116 4.38801 4.9356C4.41314 4.83803 4.44492 4.74246 4.48311 4.64964L4.62181 4.32431C4.67697 4.18893 4.72525 4.05059 4.76644 3.90988C4.81257 3.75076 4.82208 3.58248 4.79418 3.41879L4.7605 3.29031C4.7178 3.18981 4.6492 3.10371 4.56237 3.04166C4.46985 2.9768 4.3732 2.91864 4.27309 2.86759C4.19724 2.82988 4.1129 2.81482 4.02938 2.82408C3.92041 2.82408 3.83124 2.82408 3.75991 2.82408C3.69325 2.82053 3.62645 2.82752 3.56178 2.8448C3.52017 2.85724 3.46866 2.87588 3.40526 2.90075C3.34927 2.91747 3.29539 2.94112 3.24477 2.9712L2.97134 3.16392C2.90163 3.21345 2.83542 3.26816 2.7732 3.32761C2.69527 3.40221 2.61602 3.4851 2.53544 3.57627C2.45421 3.66744 2.37298 3.76276 2.29372 3.86637C2.22295 3.95872 2.15682 4.05487 2.09559 4.1544C2.08338 4.16976 2.07274 4.18643 2.06388 4.20413C2.04803 4.23107 2.03218 4.26008 2.01236 4.28909C1.99255 4.3181 1.97671 4.3471 1.96086 4.3699C1.94501 4.39269 1.93311 4.40513 1.92518 4.4072C1.92258 4.39702 1.92258 4.38629 1.92518 4.37611C1.92282 4.35131 1.92282 4.32632 1.92518 4.30152C1.92518 4.27458 1.92519 4.23935 1.93708 4.19791C1.93796 4.15747 1.94259 4.11722 1.95094 4.07773C1.96283 4.00313 1.9767 3.92232 1.99255 3.83529C2.0084 3.74826 2.02228 3.66537 2.03417 3.59284C2.04131 3.55315 2.04595 3.513 2.04804 3.47266C2.00384 3.35402 1.92213 3.25478 1.81651 3.19144C1.71089 3.12811 1.58772 3.1045 1.46749 3.12454L1.29116 3.13698C1.23794 3.1412 1.18573 3.1545 1.13661 3.17635C1.06232 3.20799 0.996376 3.25781 0.944316 3.32163C0.892255 3.38545 0.855596 3.46141 0.837424 3.54311C0.840787 3.60697 0.832724 3.67092 0.813649 3.73168C0.791232 3.79954 0.772713 3.86873 0.758178 3.93889C0.755201 4.03124 0.746597 4.12329 0.732419 4.21449C0.719189 4.30521 0.701327 4.39514 0.678919 4.48387C0.640613 4.67451 0.612877 4.83613 0.595706 4.96875C0.577873 5.10137 0.563998 5.22777 0.55211 5.35003C0.540222 5.47228 0.524377 5.60075 0.508526 5.73544C0.492675 5.87013 0.464931 6.03797 0.429267 6.23482L0.29652 7.15693C0.282651 7.23567 0.270762 7.31026 0.258874 7.38486C0.247293 7.45811 0.242646 7.53238 0.245003 7.60658C0.246118 7.63603 0.239984 7.66529 0.227178 7.69155C0.21529 7.71434 0.21529 7.73092 0.227178 7.74335C0.247735 7.7861 0.260502 7.83247 0.264824 7.8801C0.264824 7.89461 0.26482 7.92155 0.298503 7.96092C0.319526 7.99352 0.344878 8.02282 0.373796 8.04795C0.425311 8.07281 0.449082 8.09354 0.443138 8.10805C0.437194 8.12255 0.443144 8.14327 0.486734 8.17228C0.599198 8.24861 0.734895 8.27817 0.867149 8.25516C1.00425 8.23264 1.13764 8.19009 1.26342 8.12876C1.3189 8.10804 1.34069 8.07903 1.32881 8.04795C1.31692 8.01687 1.3288 7.97957 1.38428 7.93606C1.40067 7.91238 1.42343 7.89434 1.44967 7.88425C1.4675 7.88425 1.4774 7.85316 1.47938 7.79929C1.48136 7.74541 1.46551 7.70398 1.47938 7.68947C1.50157 7.66088 1.51286 7.62471 1.51109 7.58794C1.50755 7.51042 1.51086 7.43273 1.52099 7.35586C1.52952 7.27809 1.55241 7.20279 1.58836 7.13414C1.58836 7.08648 1.58836 7.04711 1.58836 7.01603C1.58597 6.98984 1.58597 6.96347 1.58836 6.93728C1.59321 6.91194 1.59982 6.88701 1.60817 6.86269C1.62161 6.82465 1.63818 6.7879 1.6577 6.75286C1.66585 6.72636 1.67246 6.69937 1.67751 6.67204L1.7013 6.58709C1.72736 6.52113 1.74275 6.45111 1.74687 6.37988C1.75396 6.30603 1.77772 6.23501 1.81621 6.17266C1.85851 6.03095 1.91015 5.89248 1.97076 5.75823C2.04053 5.60649 2.12203 5.46096 2.21446 5.32309L2.32542 5.15317C2.37693 5.0765 2.43043 4.99776 2.48789 4.91695C2.54535 4.83613 2.60281 4.75947 2.66027 4.68901C2.71773 4.61856 2.75735 4.56883 2.78509 4.53567C2.9291 4.35447 3.09116 4.18984 3.26854 4.04458C3.38346 3.96169 3.46668 3.92646 3.49243 3.94097C3.51819 3.95547 3.53405 4.00935 3.50829 4.09845C3.47864 4.19865 3.44016 4.29577 3.39337 4.38855C3.26914 4.61257 3.16564 4.84848 3.08428 5.09307C3.00322 5.34981 2.9429 5.61321 2.90397 5.8805C2.87425 6.04212 2.85246 6.19338 2.83264 6.33843C2.81343 6.48261 2.81011 6.62862 2.82274 6.77359C2.82507 6.85004 2.83638 6.92589 2.85642 6.99944C2.87603 7.0754 2.90465 7.14849 2.94161 7.21702C2.98045 7.3031 3.0283 7.38442 3.08428 7.45947C3.15107 7.54099 3.24035 7.59889 3.33987 7.62524L3.50234 7.69155C3.59082 7.73022 3.68582 7.74994 3.78172 7.74956C3.88125 7.74761 3.98055 7.73861 4.07892 7.72262C4.13833 7.71279 4.19718 7.69964 4.25525 7.68325L4.46527 7.62938C4.53271 7.61214 4.59892 7.58998 4.66341 7.56307C4.71395 7.54097 4.76239 7.51391 4.80805 7.48226C4.88731 7.41595 4.96062 7.35586 5.02996 7.30406C5.10395 7.24911 5.17475 7.1896 5.24197 7.12584C5.25613 7.1094 5.26936 7.0921 5.28159 7.07404C5.29483 7.05424 5.31348 7.03908 5.33509 7.03053L5.41434 6.9808C5.41434 6.9808 5.41434 6.98079 5.42425 6.97043C5.43423 6.99346 5.4409 7.0179 5.44406 7.04296C5.44406 7.05747 5.44406 7.08441 5.47972 7.12378C5.50029 7.15674 5.5257 7.18611 5.55501 7.21081C5.60653 7.23567 5.62833 7.25639 5.62437 7.27089C5.6204 7.2854 5.62436 7.30612 5.66795 7.33513C5.77973 7.41132 5.91478 7.44091 6.04639 7.41802C6.18317 7.39512 6.31642 7.3533 6.44266 7.29368C6.49814 7.27089 6.51796 7.24396 6.50607 7.21081C6.49418 7.17765 6.50606 7.14242 6.56154 7.0989C6.57874 7.07607 6.60125 7.05823 6.62693 7.0471C6.64476 7.0471 6.65466 7.01602 6.65862 6.96215C6.66259 6.90827 6.64277 6.86684 6.65862 6.85233C6.67447 6.83783 6.68835 6.80673 6.69033 6.75078C6.68847 6.67322 6.69244 6.59562 6.70222 6.51871C6.71075 6.44094 6.73362 6.36564 6.76958 6.29699C6.76958 6.24933 6.76958 6.20997 6.76958 6.17888C6.76832 6.15265 6.76832 6.12637 6.76958 6.10014C6.76958 6.07942 6.78147 6.05455 6.7894 6.02554C6.80449 5.9879 6.82169 5.95123 6.84092 5.91572C6.85022 5.88971 6.85621 5.86254 6.85874 5.8349L6.88252 5.74995C6.90857 5.68399 6.92397 5.61397 6.92808 5.54274C6.93521 5.46921 6.95826 5.39835 6.99546 5.33552C7.03933 5.19411 7.0916 5.05569 7.15198 4.92109C7.22061 4.7698 7.30149 4.62491 7.39371 4.48801C7.41748 4.44864 7.45711 4.39062 7.50665 4.31603C7.55618 4.24143 7.61166 4.16061 7.66912 4.0798C7.72658 3.99899 7.78403 3.92231 7.83951 3.85186L7.96434 3.69853C8.10896 3.51722 8.2717 3.35258 8.44977 3.20743C8.56271 3.12454 8.638 3.08932 8.67366 3.10382C8.70933 3.11833 8.71328 3.1722 8.68951 3.26131C8.65996 3.36187 8.62081 3.45906 8.57261 3.55141C8.44979 3.7759 8.34698 4.01173 8.26549 4.25593C8.18373 4.51259 8.12276 4.77599 8.08321 5.04334C8.05547 5.20497 8.0317 5.35624 8.01189 5.50129C7.99601 5.64586 7.99601 5.79186 8.01189 5.93644C8.01355 6.0128 8.02419 6.08866 8.04358 6.1623C8.064 6.23798 8.09259 6.31097 8.12879 6.37988C8.16831 6.46602 8.21681 6.54733 8.27343 6.62231C8.33909 6.70422 8.42787 6.76225 8.52703 6.78808L8.69149 6.85439C8.7799 6.89329 8.87495 6.91303 8.97087 6.91242C9.07039 6.91029 9.16968 6.90129 9.26807 6.88548C9.32686 6.87584 9.38506 6.86269 9.44242 6.84611L9.65244 6.79223C9.72004 6.77558 9.78629 6.75341 9.85057 6.72592C9.90112 6.70382 9.94955 6.67677 9.99522 6.64512C10.0745 6.57881 10.1498 6.51871 10.2191 6.4669C10.2927 6.41145 10.3635 6.35197 10.4311 6.2887C10.4446 6.27221 10.4572 6.25491 10.4688 6.2369C10.4832 6.21751 10.5024 6.20249 10.5242 6.19338L10.6035 6.14365C10.6154 6.1346 10.6247 6.12225 10.6303 6.10797C10.6359 6.09369 10.6376 6.07805 10.6352 6.06283C10.6352 6.04833 10.661 6.02968 10.7006 6.01103C10.8175 5.88256 10.9225 5.75202 11.0216 5.6194L11.0433 5.71058C11.043 5.74652 11.0496 5.78216 11.0629 5.8153C11.0762 5.84844 11.0958 5.87839 11.1206 5.90329C11.1295 5.93439 11.1443 5.96329 11.1642 5.98824L11.2316 6.06906C11.2613 6.11879 11.295 6.16645 11.3287 6.21203C11.3716 6.26452 11.4303 6.30029 11.4951 6.31357C11.5528 6.34978 11.6138 6.37964 11.6774 6.40267C11.7467 6.4296 11.8141 6.45447 11.8755 6.47726C11.9774 6.48987 12.08 6.4961 12.1826 6.49592C12.2874 6.49604 12.3921 6.48773 12.4957 6.47105C12.6027 6.4558 12.7073 6.42584 12.8068 6.38195L13.094 6.24312C13.2382 6.17365 13.3756 6.08968 13.5042 5.99239C13.6144 5.90968 13.7184 5.81823 13.8153 5.71886C13.91 5.66049 13.995 5.58629 14.0669 5.49922C14.1123 5.4254 14.164 5.35604 14.2214 5.292L14.2749 5.19668C14.2783 5.18805 14.2783 5.17837 14.2749 5.16974C14.2749 5.16974 14.2749 5.15525 14.2749 5.14281C14.295 5.10912 14.3168 5.0766 14.3403 5.04542C14.3591 5.01605 14.375 4.98482 14.3879 4.95217C14.3885 4.94528 14.3885 4.93834 14.3879 4.93145C14.3879 4.93145 14.3879 4.93145 14.3879 4.9128L14.4612 4.84028C14.4843 4.8171 14.5117 4.79908 14.5416 4.78732C14.5716 4.77557 14.6036 4.77031 14.6355 4.77189C14.7043 4.77131 14.7721 4.7543 14.8337 4.72216C15.0092 4.67654 15.1819 4.6198 15.3508 4.55225C15.5489 4.47765 15.6678 4.42378 15.7471 4.39269C15.9305 4.33021 16.1021 4.23485 16.2543 4.11088C16.4069 3.98862 16.5218 3.89331 16.601 3.82493C16.6877 3.75673 16.7644 3.67576 16.8289 3.58456C16.8784 3.50789 16.9319 3.425 16.9874 3.33383C17.0041 3.3216 17.0155 3.30299 17.0191 3.28202C17.0287 3.25302 17.0413 3.22522 17.0567 3.19914C17.1015 3.12757 17.1387 3.05114 17.1677 2.9712C17.1935 2.90282 17.2252 2.82201 17.2628 2.72669C17.2829 2.68921 17.2945 2.64736 17.2965 2.60444C17.2951 2.56323 17.3077 2.52284 17.3321 2.49047C17.3193 2.44306 17.3193 2.39283 17.3321 2.34542C17.3506 2.2943 17.3698 2.24043 17.3896 2.18379ZM13.4269 4.76361C13.4149 4.79107 13.3996 4.81683 13.3813 4.84028L13.3397 4.8838L13.2922 4.9273C13.2744 4.94388 13.2486 4.9729 13.2149 5.01227C13.1962 5.04163 13.1802 5.07286 13.1674 5.1055C13.1691 5.11299 13.1691 5.12082 13.1674 5.12831C13.1591 5.13596 13.1497 5.14224 13.1396 5.14695C13.1094 5.17181 13.0821 5.20033 13.0584 5.23191L12.9415 5.34795L12.8404 5.46192C12.8126 5.48612 12.7828 5.50762 12.7513 5.52616C12.7253 5.54072 12.7034 5.56215 12.6879 5.58832C12.6562 5.61696 12.6166 5.63437 12.5749 5.63805C12.5214 5.63805 12.4877 5.66085 12.4759 5.68364C12.4685 5.69089 12.4598 5.69634 12.4501 5.69956C12.4405 5.70279 12.4304 5.70372 12.4204 5.70228C12.3921 5.70015 12.3637 5.70439 12.3372 5.71471L12.2401 5.64012C12.2274 5.59087 12.2088 5.54351 12.1846 5.49922C12.1616 5.45649 12.143 5.41134 12.1291 5.36452C12.1245 5.24759 12.1112 5.13121 12.0895 5.0164C12.0699 4.89871 12.074 4.77804 12.1014 4.66207C12.1014 4.61234 12.1014 4.57504 12.1113 4.54603C12.1097 4.52396 12.1097 4.50179 12.1113 4.47972C12.1142 4.46398 12.1142 4.44781 12.1113 4.43207C12.1078 4.41221 12.1078 4.39183 12.1113 4.37197C12.1198 4.29935 12.1413 4.22905 12.1747 4.16476C12.2045 4.09803 12.241 4.03482 12.2837 3.97619C12.2837 3.96376 12.2837 3.9534 12.2837 3.94719C12.2857 3.94043 12.2857 3.93321 12.2837 3.92646C12.3312 4.00106 12.3689 4.06529 12.4006 4.1171C12.4307 4.16844 12.4659 4.21635 12.5056 4.26007C12.5484 4.30618 12.5948 4.34846 12.6443 4.38648C12.7143 4.43759 12.7885 4.48197 12.8662 4.51909C12.9546 4.56865 13.0504 4.60227 13.1495 4.61856C13.2644 4.64135 13.3615 4.66415 13.4368 4.68487C13.4374 4.6966 13.4374 4.70836 13.4368 4.72009C13.4391 4.72689 13.4399 4.73412 13.4392 4.74127C13.4385 4.74843 13.4363 4.75534 13.4329 4.76153L13.4269 4.76361ZM14.1818 2.64795C14.156 2.77228 14.1263 2.90697 14.0907 3.05202C14.055 3.19707 14.0114 3.34626 13.9619 3.49339C13.9228 3.62371 13.8668 3.74781 13.7954 3.86223C13.7736 3.88405 13.7584 3.91218 13.7518 3.94304C13.7415 3.9748 13.7269 4.00482 13.7083 4.03214C13.5872 4.03428 13.4677 4.0035 13.3614 3.94285C13.2551 3.88219 13.1657 3.79372 13.102 3.68609C13.0623 3.60321 13.0346 3.53897 13.0168 3.49131C12.9989 3.44365 12.9871 3.40221 12.9791 3.3732C12.9712 3.34549 12.9659 3.31704 12.9633 3.28824C12.9576 3.25395 12.9462 3.22097 12.9296 3.19085C12.9437 3.14398 12.9471 3.0943 12.9395 3.0458C12.9296 3.02715 12.9395 2.97742 12.9712 2.89868C12.9794 2.84561 12.9926 2.79354 13.0108 2.74327C13.0346 2.66867 13.0504 2.61272 13.0584 2.5775C13.0945 2.47136 13.1519 2.37455 13.2268 2.29361C13.3447 2.14577 13.4776 2.01169 13.6231 1.89369C13.6682 1.85311 13.721 1.8229 13.778 1.80505C13.835 1.7872 13.8949 1.7821 13.9539 1.79009C14.0011 1.7897 14.0472 1.80492 14.0857 1.83357C14.1241 1.86223 14.1529 1.90285 14.1679 1.94964L14.1957 2.05739C14.2029 2.08389 14.2081 2.11089 14.2115 2.1382C14.2115 2.16514 14.2115 2.19622 14.2115 2.23352C14.2124 2.28278 14.2164 2.33193 14.2234 2.38065C14.2162 2.46968 14.2043 2.55823 14.1877 2.64588L14.1818 2.64795Z" fill="#334C9F"/>
</svg>
