<svg width="1" height="1" viewBox="0 0 1 1" fill="none" xmlns="http://www.w3.org/2000/svg">
<path d="M0.406359 0.542575H0.51533C0.51533 0.565369 0.527218 0.581946 0.527218 0.581946C0.543612 0.609092 0.562177 0.634738 0.582702 0.658615C0.612422 0.687625 0.654031 0.700054 0.669881 0.629602C0.677648 0.599121 0.682299 0.567861 0.683752 0.536353H0.731303C0.762884 0.524773 0.793383 0.510204 0.822437 0.492833C0.860083 0.465895 0.875934 0.426535 0.810549 0.399597C0.782056 0.385225 0.752172 0.374102 0.721398 0.366436H0.648089C0.646898 0.354034 0.646898 0.34154 0.648089 0.329139C0.63422 0.298056 0.630252 0.271124 0.618364 0.244186C0.610435 0.22373 0.597441 0.20585 0.580718 0.192383C0.580718 0.192383 0.568829 0.192382 0.55496 0.204815C0.54109 0.217248 0.541091 0.215173 0.531185 0.227606C0.522431 0.240505 0.515121 0.254412 0.509393 0.269051C0.502827 0.302548 0.502827 0.337087 0.509393 0.370584H0.430134C0.416083 0.422754 0.416083 0.477973 0.430134 0.530143C0.430134 0.530143 0.404377 0.542575 0.406359 0.542575Z" fill="#D62027"/>
</svg>
