<svg width="2" height="3" viewBox="0 0 2 3" fill="none" xmlns="http://www.w3.org/2000/svg">
<path d="M1.73558 1.1852C1.73534 1.13953 1.72866 1.09415 1.71575 1.05052C1.7093 1.02364 1.6993 0.997833 1.68604 0.973844L1.65433 0.932402L1.61669 0.897176C1.58726 0.878475 1.55427 0.866745 1.52004 0.862807C1.48581 0.858869 1.45117 0.862819 1.41855 0.874382C1.36184 0.898446 1.31491 0.942405 1.28581 0.998712C1.28502 1.00698 1.28502 1.01531 1.28581 1.02358C1.25002 1.01436 1.21262 1.01436 1.17683 1.02358C1.13049 1.03477 1.08715 1.05672 1.05003 1.08781C0.991815 1.13563 0.942176 1.19386 0.903407 1.2598C0.821124 1.39298 0.763952 1.54138 0.734986 1.69702C0.71793 1.77722 0.711932 1.85956 0.71716 1.94154C0.722722 2.03694 0.755114 2.12849 0.810278 2.2047C0.841535 2.24354 0.879897 2.27546 0.923107 2.29859C0.966317 2.32172 1.01351 2.33559 1.06191 2.33939C1.08371 2.33939 1.1055 2.33939 1.12532 2.33939H1.16098H1.20458C1.2527 2.32442 1.29726 2.299 1.33534 2.26479C1.41115 2.19263 1.4742 2.10705 1.52159 2.01199C1.5571 2.04402 1.59639 2.07118 1.63849 2.0928C1.71333 2.14417 1.8006 2.1722 1.89011 2.17362C1.90398 2.17362 1.89012 2.15289 1.87031 2.12388C1.85049 2.09487 1.78708 2.05757 1.71575 1.99127C1.67151 1.9512 1.63104 1.90679 1.5949 1.85865C1.65207 1.7258 1.69526 1.58684 1.72369 1.44422C1.73616 1.35854 1.74014 1.27174 1.73558 1.1852ZM1.19664 2.06172C1.18198 2.07757 1.16447 2.09025 1.14513 2.09902H1.12928H1.09164C1.04982 2.09939 1.00943 2.08309 0.9787 2.05343C0.952532 2.00625 0.935867 1.95397 0.929734 1.8998C0.923601 1.84564 0.92813 1.79073 0.943037 1.73846C0.966639 1.61006 1.01372 1.48764 1.08172 1.37791C1.10647 1.33414 1.13872 1.29551 1.17683 1.26395C1.1881 1.25423 1.20082 1.24653 1.21448 1.24115C1.2099 1.29631 1.2099 1.35177 1.21448 1.40692C1.21289 1.42969 1.21289 1.45254 1.21448 1.47531V1.53125C1.22196 1.5701 1.23256 1.60823 1.24618 1.64522C1.26984 1.70511 1.29975 1.76209 1.33534 1.81514C1.30233 1.90472 1.25547 1.98802 1.19664 2.06172ZM1.50178 1.34683C1.49134 1.41677 1.47678 1.48598 1.45818 1.55404C1.45818 1.54161 1.45818 1.53332 1.45818 1.53332C1.4574 1.51745 1.4574 1.50154 1.45818 1.48566V1.45251C1.45695 1.44636 1.45695 1.44001 1.45818 1.43386C1.45715 1.41799 1.45715 1.40207 1.45818 1.3862V1.32611C1.45896 1.26611 1.469 1.20663 1.48791 1.14998C1.49188 1.1324 1.50086 1.1165 1.51367 1.10439C1.5222 1.12467 1.5269 1.14648 1.52752 1.16863C1.52618 1.22893 1.51754 1.28881 1.50178 1.34683Z" fill="#848936"/>
</svg>
