<svg width="1" height="1" viewBox="0 0 1 1" fill="none" xmlns="http://www.w3.org/2000/svg">
<path d="M0.860706 0.652038C0.884482 0.633388 0.89637 0.606453 0.860706 0.589876C0.840314 0.581172 0.819042 0.57491 0.797302 0.571221H0.769566C0.769566 0.513201 0.769566 0.461404 0.769566 0.461404C0.736132 0.449714 0.699966 0.449714 0.666532 0.461404C0.666532 0.461404 0.666532 0.527714 0.666532 0.59195L0.581335 0.606457C0.563503 0.637539 0.591245 0.656187 0.59719 0.670692C0.603134 0.685197 0.59719 0.705919 0.59719 0.710064H0.628886H0.666532V0.726632C0.674227 0.751424 0.683496 0.775661 0.694274 0.799164C0.712106 0.830246 0.737861 0.842679 0.753712 0.799164C0.762212 0.776309 0.768841 0.752734 0.773526 0.728706C0.774045 0.719043 0.774045 0.709355 0.773526 0.699693H0.807212C0.826297 0.685412 0.844191 0.669473 0.860706 0.652038Z" fill="#BF2026"/>
</svg>
