<svg width="6" height="8" viewBox="0 0 6 8" fill="none" xmlns="http://www.w3.org/2000/svg">
<path d="M5.57783 2.63236C5.36582 2.40028 5.04089 2.09567 5.04089 2.09567L4.84276 1.92576L3.93926 1.17979L3.56677 0.873111H3.54299C3.50889 0.872034 3.47501 0.87912 3.44392 0.89383C3.44392 0.831666 3.38646 0.862751 3.19229 1.06789C2.99812 1.27303 2.69894 1.61079 2.69894 1.61079L0.640312 4.39782L0.360947 4.77702C0.360153 4.78529 0.360153 4.79362 0.360947 4.80189C0.36001 4.82922 0.364246 4.85647 0.373428 4.88208C0.382609 4.90769 0.396546 4.93114 0.414436 4.95108C0.395967 4.97485 0.384156 5.0035 0.380309 5.03386C0.376462 5.06422 0.380732 5.0951 0.392644 5.12307C0.391042 5.12917 0.391042 5.13562 0.392644 5.14172L0.765138 5.4484L1.76968 6.27726L1.948 6.42438C1.948 6.42438 2.60581 6.90304 2.58203 6.87817C2.63156 6.90926 2.67912 6.94034 2.72073 6.96313C2.77422 7.03359 2.82177 7.0626 2.86735 7.06052C2.88977 7.07557 2.91525 7.0849 2.94174 7.08778C2.96824 7.09066 2.99501 7.087 3.01991 7.0771C3.02317 7.07687 3.02631 7.0758 3.02908 7.074C3.03184 7.07219 3.03414 7.0697 3.03577 7.06674L3.31513 6.68961L5.36979 3.90465C5.36979 3.90465 5.80371 3.23535 5.77993 3.25814C5.9424 2.9784 6.01373 2.77326 5.66105 3.14625C5.44905 3.35346 5.16967 3.68915 5.16967 3.68915L3.09124 6.50312L2.97632 6.65853C2.97632 6.58808 2.96047 6.51969 2.95056 6.45131C2.94065 6.38293 2.93471 6.32906 2.92877 6.26896C2.92282 6.20887 2.91292 6.14464 2.90499 6.08454L2.85347 5.71156L2.82178 5.47948C2.82178 5.47948 2.66525 4.66305 2.66327 4.69828C2.64346 4.61332 2.62165 4.53873 2.60382 4.49107L2.73261 4.43926C2.84716 4.39845 2.95959 4.35142 3.06945 4.29836C3.15584 4.26103 3.23765 4.21303 3.31315 4.15538C3.33249 4.16174 3.35324 4.16174 3.37259 4.15538C3.41072 4.13898 3.44368 4.11169 3.4677 4.07664C3.4677 4.07664 3.4677 4.06628 3.4677 4.06006C3.4729 3.90402 3.48612 3.74839 3.50732 3.59383C3.50732 3.53789 3.50732 3.47779 3.5192 3.41977V3.38869C3.58063 3.37626 3.64007 3.36382 3.69951 3.35554C3.75895 3.34725 3.84613 3.33481 3.92341 3.32445L4.63273 3.22913L4.85266 3.19805C4.85266 3.19805 5.61746 3.04471 5.58576 3.04264C5.83937 2.97841 6.01175 2.90381 5.76804 2.88309C5.71502 2.79145 5.6511 2.7072 5.57783 2.63236ZM2.50674 4.7045C2.50674 5.01946 2.53845 5.46705 2.53845 5.46705L2.57411 5.73643L2.62563 6.10734C2.62563 6.16743 2.64346 6.22959 2.64742 6.29176L2.67119 6.4824C2.68506 6.58393 2.69893 6.68961 2.70487 6.78078C2.69731 6.7708 2.68866 6.76176 2.67911 6.75385C2.46513 6.52177 2.14218 6.21716 2.14218 6.21716L1.94404 6.04517L0.939498 5.21632L0.741363 5.05884L0.985065 4.97595C1.38133 4.85369 1.76373 4.7418 2.15802 4.62783L2.37002 4.56566L2.50872 4.51594C2.50476 4.56359 2.50476 4.62369 2.50674 4.70243V4.7045ZM3.27352 2.88102L3.25569 3.21463V3.38247C3.25569 3.43428 3.25569 3.48401 3.24381 3.53788C3.22994 3.69537 3.20417 3.85699 3.20219 4.03934L3.21408 4.06421C3.22107 4.07591 3.22976 4.08639 3.23984 4.09529C3.19031 4.09529 3.12294 4.11394 3.0417 4.13259C2.74847 4.18646 2.33436 4.27557 2.33436 4.27557L2.08868 4.34809C1.69241 4.46206 1.29614 4.57188 0.909773 4.69828L0.747301 4.75008L0.872127 4.58224L2.90896 1.82215C2.90896 1.82215 3.34287 1.15285 3.31712 1.17564C3.34287 1.13213 3.36664 1.08861 3.38646 1.05132C3.38646 1.06375 3.38646 1.07618 3.38646 1.08654C3.38823 1.09401 3.39243 1.10061 3.39834 1.10519L3.43204 1.13213C3.43204 1.15285 3.43204 1.17357 3.43204 1.19844C3.38647 1.50718 3.33891 1.94855 3.33891 1.94855L3.32702 2.21793L3.27352 2.88102ZM5.57783 2.86651C5.27666 2.86651 4.85068 2.8893 4.85068 2.8893L4.59509 2.92453L3.88774 3.01985C3.81245 3.03021 3.7332 3.0385 3.65395 3.053L3.54299 3.07165V2.91003L3.57865 2.24487V2.01071C3.57865 2.01071 3.57865 1.8035 3.57865 1.59629C3.57865 1.45538 3.56676 1.31655 3.5628 1.25024L3.74905 1.40358L4.65254 2.14955L4.83087 2.2946C4.83087 2.2946 5.48867 2.77534 5.46489 2.7484C5.53424 2.79399 5.59962 2.83336 5.65114 2.86029L5.57783 2.86651Z" fill="#8B3D1E"/>
</svg>
