<svg width="3" height="2" viewBox="0 0 3 2" fill="none" xmlns="http://www.w3.org/2000/svg">
<path d="M2.17886 1.45773C2.0679 1.34998 1.92921 1.22357 1.81627 1.12411L1.67163 1.00393L1.61417 0.958343L1.75485 0.807075H1.81033C1.81033 0.807075 2.07186 0.713828 2.05998 0.709684C2.16301 0.65788 2.22244 0.581209 2.03818 0.545983L1.94506 0.529409C1.94222 0.508368 1.93506 0.488221 1.92406 0.470352C1.91307 0.452482 1.89851 0.437311 1.88137 0.42589C1.86424 0.414469 1.84494 0.407064 1.82481 0.404187C1.80468 0.40131 1.78419 0.403027 1.76475 0.409221C1.75286 0.409221 1.75088 0.409221 1.74692 0.409221L1.6221 0.533551L1.42397 0.56878C1.40217 0.475533 1.38235 0.413367 1.38235 0.411295H1.36848C1.32342 0.403808 1.27733 0.407197 1.23372 0.421204C1.1901 0.435211 1.15013 0.459468 1.11685 0.492112C1.11685 0.492112 1.11685 0.492109 1.11685 0.50247C1.11685 0.51283 1.1327 0.554272 1.15252 0.630941L1.08713 0.645448C1.03364 0.61851 0.98014 0.591573 0.924662 0.56878C0.768946 0.501303 0.605931 0.453985 0.439236 0.427876C0.430125 0.429685 0.421399 0.433192 0.413477 0.438234C0.326298 0.492109 0.312424 0.550129 0.322331 0.599861C0.332099 0.644604 0.355798 0.684687 0.389702 0.713826C0.389702 0.713826 0.389698 0.713826 0.403567 0.713826C0.546006 0.734911 0.68521 0.775316 0.817668 0.834014L0.871168 0.858878C0.882898 0.900072 0.901697 0.938688 0.926646 0.972843L1.04354 0.943837L1.17233 1.01843L0.930606 1.33962C0.811725 1.49917 0.694827 1.65458 0.708696 1.64215C0.636087 1.7265 0.578991 1.82415 0.54028 1.93018C0.54028 1.96955 0.617556 1.93017 0.815691 1.76233C0.934572 1.66079 1.0693 1.53025 1.1763 1.42664L1.27734 1.32511C1.28923 1.41421 1.29517 1.47223 1.29517 1.47223L1.3348 1.61936C1.34439 1.66692 1.35832 1.71341 1.37641 1.75819C1.41802 1.8763 1.48736 1.95297 1.53095 1.74783C1.55411 1.65128 1.56935 1.55284 1.57653 1.45358C1.57653 1.45358 1.57653 1.37277 1.55275 1.24637L1.76475 1.37899C1.9292 1.48467 2.09168 1.5862 2.07979 1.57584C2.1709 1.63941 2.27333 1.6831 2.38095 1.70431C2.4186 1.70431 2.36907 1.63593 2.17886 1.45773Z" fill="url(#paint0_linear_134_281)"/>
<defs>
<linearGradient id="paint0_linear_134_281" x1="0.312425" y1="1.17177" x2="2.39284" y2="1.17177" gradientUnits="userSpaceOnUse">
<stop stop-color="#A71F63"/>
<stop offset="1" stop-color="#49486D"/>
</linearGradient>
</defs>
</svg>
