<svg width="6" height="8" viewBox="0 0 6 8" fill="none" xmlns="http://www.w3.org/2000/svg">
<path d="M0.401377 7.86211C0.418327 7.86618 0.435937 7.86618 0.452888 7.86211H0.53809C0.53809 7.86211 0.551957 7.86211 0.553939 7.87247C0.55592 7.88283 0.553939 7.87247 0.553939 7.8849H0.563843C0.57375 7.8849 0.577716 7.8849 0.579697 7.8849C0.581678 7.8849 0.660933 7.81859 0.710467 7.78129C0.76 7.74399 0.821423 7.70048 0.884826 7.64453L1.18797 7.41452C1.68529 7.04983 2.2044 6.71414 2.73342 6.39503C2.72312 6.46258 2.73649 6.53175 2.77107 6.58981C2.79967 6.6212 2.8353 6.64465 2.87473 6.65803C2.91416 6.67142 2.95617 6.67432 2.99694 6.66648C3.01162 6.66609 3.02568 6.6602 3.03657 6.6499C3.2522 6.47508 3.40846 6.23248 3.48237 5.95781C3.6171 5.87907 3.7558 5.8024 3.89251 5.7278L4.22538 5.54545L4.50475 5.37139C4.50906 5.44436 4.54032 5.51271 4.59193 5.56203C4.62733 5.58479 4.66757 5.59803 4.70906 5.60056C4.75055 5.60309 4.792 5.59484 4.82969 5.57653C4.8434 5.57158 4.85521 5.56213 4.86337 5.5496C4.97964 5.40367 5.04897 5.22313 5.0615 5.03363C5.1543 4.98006 5.24426 4.92126 5.33097 4.8575C5.78272 4.5529 6.04228 4.29181 5.22596 4.60263L5.02783 4.67308C5.0183 4.62529 5.00573 4.57821 4.99018 4.53217C4.87876 4.19072 4.67838 3.88858 4.41162 3.6598C4.37801 3.62939 4.34224 3.60168 4.30463 3.57692C4.26698 3.55205 4.22736 3.52511 4.1917 3.50646C4.11992 3.46459 4.04581 3.42722 3.96978 3.39457C3.82316 3.32826 3.67456 3.27646 3.5319 3.2288C3.2599 3.15024 2.99476 3.04764 2.73937 2.92212C2.626 2.86066 2.52077 2.78404 2.42631 2.69419C2.37937 2.65067 2.33626 2.60282 2.29752 2.55121L2.24007 2.47661L2.19449 2.3958C2.14599 2.30547 2.11186 2.20749 2.09344 2.1057V2.05804C2.08462 2.01647 2.07932 1.97418 2.0776 1.93164C2.06821 1.79251 2.07957 1.65269 2.11128 1.51721C2.16269 1.32092 2.22487 1.12789 2.29752 0.939082C2.38293 0.773204 2.44246 0.594127 2.47387 0.408615C2.46396 0.34645 2.34111 0.408614 2.0776 0.789888C1.90114 1.02978 1.76696 1.30063 1.68133 1.58973C1.66151 1.65812 1.65161 1.72857 1.63774 1.79695C1.62387 1.86533 1.62585 1.91506 1.62189 1.96065C1.61987 1.99792 1.61987 2.03527 1.62189 2.07254V2.11399C1.63276 2.20667 1.65132 2.29819 1.67737 2.38751C1.70553 2.47537 1.74204 2.56006 1.78634 2.64031C1.96043 2.95173 2.21715 3.20365 2.52538 3.36556C2.80578 3.50561 3.09753 3.61934 3.39717 3.70539C3.53587 3.75305 3.6706 3.79864 3.79344 3.85666C3.85454 3.88259 3.91408 3.91235 3.97176 3.94576C3.999 3.95969 4.02488 3.97634 4.04904 3.99549C4.07517 4.01158 4.09973 4.03032 4.12235 4.05144C4.31716 4.2193 4.46389 4.44016 4.54635 4.68966C4.56387 4.74413 4.57583 4.80039 4.58202 4.8575C4.29869 4.97561 4.07281 5.07922 4.07281 5.07922L3.67654 5.28643L3.53983 5.3631V5.31337C3.51427 5.1343 3.43761 4.96747 3.3199 4.83471C3.20252 4.71691 3.06112 4.62848 2.90634 4.57608C2.75156 4.52367 2.58744 4.50866 2.42631 4.53217C1.85767 4.59019 1.40196 4.84093 1.03937 4.67723C0.953526 4.64736 0.875508 4.59698 0.811511 4.5301L0.783776 4.50109L0.75009 4.46587L0.712444 4.41199C0.643145 4.30154 0.594102 4.17858 0.567809 4.04937C0.530679 3.84868 0.504222 3.64598 0.488557 3.44223C0.492783 3.25238 0.465975 3.06317 0.409298 2.88275C0.369671 2.83302 0.298344 2.95942 0.225034 3.41529C0.169249 3.71261 0.165894 4.01809 0.21513 4.31667C0.21513 4.35397 0.228996 4.3892 0.236922 4.42235C0.244847 4.4555 0.258717 4.48866 0.268624 4.51767C0.286048 4.57303 0.30861 4.62647 0.335989 4.67723C0.352182 4.71281 0.371414 4.74679 0.39345 4.77876L0.419208 4.81399C0.480638 4.89199 0.551199 4.9616 0.629231 5.0212C0.707976 5.07424 0.792436 5.11737 0.88086 5.14967C0.917145 5.16428 0.954189 5.17673 0.991815 5.18697L1.10277 5.20976C1.1778 5.22553 1.2541 5.23386 1.33063 5.23463C1.47267 5.23137 1.61403 5.21332 1.75265 5.18076C1.98748 5.11729 2.22565 5.06817 2.46594 5.03363C2.56543 5.02431 2.66571 5.0313 2.76314 5.05435C2.80521 5.06759 2.84575 5.08565 2.88401 5.10823C2.89443 5.1118 2.90441 5.11667 2.91372 5.12274L2.93354 5.14138C2.94941 5.15033 2.96299 5.16312 2.97316 5.17868C3.01971 5.24411 3.05228 5.31921 3.06869 5.39893C3.08509 5.47865 3.08495 5.56112 3.06827 5.64077C2.32775 6.05795 1.61005 6.51799 0.918506 7.01874L0.754057 7.141L0.672821 7.20316L0.633191 7.23425C0.615244 7.24622 0.598042 7.25937 0.58168 7.27362C0.542053 7.30677 0.492518 7.34614 0.43704 7.38551C0.381562 7.42488 0.328065 7.46633 0.256736 7.53471C0.243749 7.5529 0.233709 7.5732 0.227017 7.5948C0.227017 7.61345 0.227016 7.62381 0.213146 7.6466C0.211357 7.6659 0.211357 7.68533 0.213146 7.70462C0.215259 7.72887 0.222722 7.75228 0.234944 7.773C0.25541 7.80414 0.286689 7.82571 0.322124 7.8331C0.348055 7.84416 0.374506 7.85385 0.401377 7.86211Z" fill="#E87624"/>
</svg>
