<svg width="5" height="6" viewBox="0 0 5 6" fill="none" xmlns="http://www.w3.org/2000/svg">
<path d="M1.53888 1.11433C1.21872 1.27976 0.920909 1.48879 0.653214 1.73597C0.50343 1.87621 0.370378 2.03484 0.256944 2.20842C0.148036 2.40009 0.0728776 2.61064 0.0350342 2.83006V2.85907V2.94403C0.0350342 3.00619 0.0350342 3.06836 0.0350342 3.13052C0.0350342 3.19269 0.0350356 3.25485 0.0489051 3.31702C0.0627745 3.37918 0.0667459 3.4372 0.0825967 3.49729C0.139197 3.72544 0.232305 3.94193 0.357995 4.13758C0.544887 4.42538 0.768927 4.68478 1.02374 4.90842L1.20997 5.07212L1.22384 5.08455L1.70729 4.82139V4.77166V4.69291L1.69145 4.53336V4.46913L1.81825 4.56444C2.15126 4.79689 2.50257 4.99931 2.86837 5.16951C3.04867 5.25654 3.23095 5.33321 3.41521 5.4078L3.60344 5.48033L3.87093 5.57565C4.04925 5.63574 4.23153 5.70205 4.40589 5.758C4.38805 5.56322 4.37221 5.36843 4.3524 5.17779C4.3524 5.0804 4.33456 4.98716 4.32069 4.8877C4.32069 4.84004 4.30484 4.79031 4.29691 4.74057L4.28304 4.66183C4.24144 4.45462 4.19587 4.2474 4.13643 4.04019C4.02105 3.64192 3.8787 3.25276 3.71044 2.87565C3.68072 2.80934 3.64902 2.74718 3.61731 2.68294L3.65694 2.72231L3.72629 2.79069L3.76195 2.82592L3.77979 2.84457L3.79564 2.86529L4.0552 3.17611L4.36824 3.55117L4.46731 3.66928L4.51487 3.7273L4.54063 3.75631L4.55252 3.77081L4.53071 3.66513L4.47127 3.38333L4.42571 3.16368L4.394 3.01448L4.28701 2.52131C4.24227 2.33526 4.17572 2.15569 4.08888 1.9867C3.98318 1.77292 3.85704 1.57089 3.71241 1.3837C3.6288 1.27311 3.53811 1.16858 3.44097 1.07082C3.30519 0.931878 3.15424 0.810163 2.99121 0.708191C2.81156 0.590871 2.60784 0.51985 2.39681 0.500977C2.37378 0.505167 2.35164 0.513584 2.33142 0.525841C2.2904 0.54753 2.25431 0.578176 2.22559 0.615713C2.19688 0.65325 2.17621 0.696799 2.16498 0.743414C2.15583 0.782203 2.15583 0.822738 2.16498 0.861527C2.13427 0.859856 2.1035 0.863352 2.07385 0.871885C1.8872 0.930888 1.70768 1.01224 1.53888 1.11433ZM0.639355 3.34188C0.630193 3.30501 0.622908 3.26766 0.617551 3.22998C0.615658 3.19202 0.615658 3.15398 0.617551 3.11602C0.615632 3.07805 0.615632 3.04001 0.617551 3.00205V2.95024V2.93367C0.617551 2.90673 0.617554 2.88187 0.633405 2.857L0.738422 3.20304L0.637372 3.36053C0.637094 3.35424 0.637765 3.34795 0.639355 3.34188ZM0.83749 3.78946C0.791113 3.71647 0.750674 3.63953 0.716618 3.55945L0.766152 3.48278L0.811731 3.41233L0.904849 3.72523C0.930606 3.81433 0.952404 3.89722 0.970236 3.97803C0.918721 3.91172 0.875131 3.8537 0.833523 3.78946H0.83749ZM3.37955 3.74388C3.43701 3.90136 3.49051 4.06091 3.53608 4.22254C3.58165 4.38417 3.63118 4.59138 3.66685 4.7758L3.67873 4.84626L3.59949 4.81517C3.42711 4.74472 3.25473 4.67219 3.08631 4.59138L2.99715 4.54787C3.02291 4.48156 3.04867 4.41318 3.07839 4.34065C3.10811 4.26813 3.16557 4.15623 3.21312 4.06506L3.27454 3.94902L3.37757 3.7418L3.37955 3.74388ZM3.22897 3.72523C3.17943 3.79775 3.14575 3.85162 3.14575 3.85162L3.07046 3.99254C3.02093 4.08578 2.97535 4.17903 2.93176 4.27642C2.90204 4.34065 2.87629 4.40696 2.84855 4.48363C2.66627 4.38831 2.48794 4.27642 2.31557 4.17281C2.33286 4.16907 2.34912 4.16127 2.36312 4.15001C2.39284 4.06091 2.42455 3.97388 2.45823 3.88685C2.55928 3.61748 2.67419 3.35224 2.79902 3.09115L2.85648 2.97096L2.94563 2.76375C3.01102 2.8943 3.07442 3.02484 3.14377 3.15746C3.20915 3.30665 3.27057 3.45792 3.32803 3.60919L3.22897 3.72523ZM2.30566 1.11433L2.31953 1.1309C2.31953 1.14541 2.3334 1.14541 2.34133 1.14541C2.45904 1.15809 2.57232 1.19924 2.67221 1.2656C2.7941 1.34221 2.90713 1.4333 3.00904 1.53705L3.22897 1.78985H3.19925C3.12862 1.77339 3.05718 1.76093 2.98526 1.75255H2.93375C2.37104 2.70987 2.7792 2.01778 2.6524 2.23328V2.25401L2.69797 2.33275C2.75146 2.42392 2.79902 2.51717 2.84855 2.61041C2.7693 2.73267 2.69797 2.85493 2.69797 2.85493L2.63061 2.99583C2.5038 3.26106 2.3869 3.53045 2.28189 3.80397C2.2482 3.89307 2.21651 3.98217 2.18679 4.07335C2.18574 4.0756 2.18519 4.07809 2.18519 4.0806C2.18519 4.08311 2.18574 4.08559 2.18679 4.08785C2.18568 4.09192 2.18568 4.09622 2.18679 4.10028L2.09167 4.03605L1.9827 3.95523C1.90239 3.89685 1.82623 3.83244 1.75484 3.76252L1.61814 3.63613C1.61814 3.61126 1.63398 3.58432 1.64587 3.55738C1.7439 3.30644 1.86188 3.06453 1.99856 2.8342C2.13131 2.59798 2.27396 2.36797 2.4186 2.13797L2.48993 2.02607C2.48993 2.02607 2.72175 1.61164 2.70788 1.62407C2.7911 1.45001 2.82279 1.32776 2.63456 1.56813C2.51964 1.70696 2.36708 1.9121 2.36708 1.9121L2.28387 2.04472C2.13725 2.27473 1.99459 2.50681 1.85788 2.74718C1.71641 2.98533 1.59446 3.23557 1.49331 3.49522C1.49306 3.50005 1.49306 3.50489 1.49331 3.50972L1.27141 3.25278L1.04553 2.99169L1.49331 2.2913C1.62012 2.09445 1.74891 1.89967 1.88958 1.70489L2.08772 1.41686L2.19867 1.25731L2.30566 1.11433ZM2.17687 0.942344C2.18827 0.962473 2.20084 0.98185 2.21452 1.00036L2.09564 1.13919L1.99459 1.28217L1.79645 1.57849C1.66172 1.7857 1.52897 1.97634 1.40019 2.17734L0.962303 2.86322L0.764169 2.62699L0.740393 2.59798V2.58348C0.748098 2.56337 0.757379 2.54397 0.768135 2.52546L0.79786 2.45915L0.845411 2.37626C0.937337 2.22337 1.04352 2.08038 1.16242 1.9494C1.42396 1.65101 1.74296 1.40029 1.70928 1.41479C1.88327 1.27602 2.04208 1.11758 2.18282 0.942344H2.17687Z" fill="#8E3994"/>
</svg>
