<svg width="4" height="5" viewBox="0 0 4 5" fill="none" xmlns="http://www.w3.org/2000/svg">
<path d="M2.81786 0.887891C2.17789 0.732481 1.27241 0.403009 0.616586 0.562564C0.043977 0.701397 0.594782 1.85351 0.69385 2.14153C0.834525 2.55596 1.18325 4.09141 1.70236 4.18051C1.82732 4.19262 1.95301 4.16776 2.06511 4.10878C2.17721 4.04979 2.27121 3.95905 2.33639 3.8469C2.3681 3.81375 2.40178 3.77852 2.43348 3.73915C2.90625 3.13734 3.29944 2.47174 3.60247 1.76025C3.86599 1.18005 3.21215 0.98321 2.81786 0.887891ZM3.22403 1.75818C3.15469 1.91359 3.06354 2.06279 2.98429 2.21198C2.73636 2.70293 2.44587 3.16906 2.11646 3.60446C2.09371 3.64767 2.06029 3.68369 2.01969 3.70878C1.97909 3.73387 1.93279 3.7471 1.88563 3.7471C1.83847 3.7471 1.79218 3.73387 1.75158 3.70878C1.71098 3.68369 1.67756 3.64767 1.65481 3.60446C1.65481 3.58582 1.63301 3.56923 1.62112 3.54644C1.37947 3.00248 1.1723 2.44249 1.00096 1.87008C0.925665 1.64422 0.854337 1.41421 0.790934 1.18421C0.679978 0.786355 1.1872 0.964556 1.38534 0.999782C1.86482 1.08267 2.34233 1.18835 2.82182 1.27331C3.06354 1.32304 3.43406 1.31267 3.22403 1.75818Z" fill="#009898"/>
</svg>
