<svg width="3" height="5" viewBox="0 0 3 5" fill="none" xmlns="http://www.w3.org/2000/svg">
<path d="M2.11513 2.01621L2.10125 1.98928L2.07748 1.94576C2.03191 1.86702 1.98238 1.79242 1.93086 1.71576L1.6178 1.27439C1.51477 1.12519 1.41967 0.976001 1.29881 0.835095C1.17747 0.703542 1.06304 0.565196 0.956042 0.420667C0.945891 0.403574 0.937268 0.38554 0.930283 0.366792C0.930283 0.366792 0.912454 0.366792 0.908491 0.366792C0.90387 0.362717 0.898484 0.359691 0.892685 0.357907C0.886887 0.356124 0.880794 0.355621 0.8748 0.356431C0.861865 0.362947 0.849863 0.371315 0.839137 0.381295C0.814406 0.405312 0.791862 0.431673 0.771778 0.460038L0.738098 0.520129C0.670678 0.686918 0.633707 0.865437 0.629114 1.04645L0.617227 1.31583C0.617227 1.40493 0.607322 1.49818 0.607322 1.58935C0.604686 1.68342 0.607993 1.77756 0.617227 1.87117C0.62436 1.96973 0.647131 2.06637 0.684598 2.15712C0.706331 2.20955 0.742996 2.25369 0.789603 2.28352C0.815067 2.29844 0.843376 2.30729 0.87249 2.30944C0.901604 2.31159 0.93081 2.30698 0.958025 2.29596C0.983836 2.28273 1.00681 2.26415 1.02554 2.24136C1.04427 2.21856 1.05838 2.19201 1.067 2.16334C1.08353 2.11388 1.09353 2.06229 1.09672 2.01C1.09672 1.91054 1.09672 1.80279 1.09672 1.71576C1.09672 1.62873 1.09672 1.5189 1.09672 1.42151C1.09672 1.32412 1.09672 1.2143 1.09672 1.12312V1.05267C1.10663 1.05267 1.10861 1.05267 1.09672 1.03195C1.08483 1.01123 1.09672 0.996721 1.09672 0.980144C1.09997 0.958433 1.10459 0.936973 1.11058 0.915908L1.12247 0.886898C1.12954 0.904068 1.13421 0.922211 1.13634 0.940773C1.14039 0.98903 1.14039 1.03757 1.13634 1.08583C1.13634 1.18322 1.12049 1.29304 1.11653 1.38836C1.10662 1.59557 1.10662 1.80278 1.10464 2.01C1.10464 2.11361 1.10464 2.21721 1.10464 2.32082C1.10464 2.42443 1.09275 2.52804 1.09077 2.63579C1.09077 2.843 1.09077 3.05021 1.09077 3.26986C1.09077 3.48951 1.07294 3.69465 1.07888 3.91223C1.07888 4.01583 1.07888 4.11944 1.07888 4.23548C1.08319 4.29304 1.09315 4.34997 1.10861 4.40539C1.12534 4.46511 1.15839 4.51841 1.20371 4.55873C1.25265 4.59806 1.31239 4.61986 1.3741 4.6209C1.40667 4.62315 1.43927 4.61695 1.469 4.60285C1.49873 4.58875 1.52466 4.56719 1.5445 4.54009C1.5783 4.49066 1.6013 4.43407 1.61187 4.37431C1.62132 4.31752 1.62596 4.25997 1.62574 4.20233C1.59602 3.76718 1.60394 3.33617 1.6079 2.90102V2.66687C1.61454 2.64884 1.62391 2.63205 1.63564 2.61714C1.64557 2.60612 1.65776 2.59761 1.67131 2.59227C1.67131 2.59227 1.68122 2.59227 1.68914 2.61092C1.70205 2.65731 1.7074 2.70565 1.70498 2.7539C1.70498 2.97354 1.70498 3.1849 1.70498 3.40455C1.70498 3.5123 1.70498 3.62213 1.70498 3.72988C1.70498 3.83763 1.70498 3.93709 1.70498 4.05106C1.70119 4.16245 1.71118 4.27389 1.73471 4.3826C1.74557 4.44199 1.76928 4.49799 1.80405 4.5463C1.82469 4.57267 1.85124 4.59331 1.88133 4.60639C1.91031 4.61823 1.94144 4.62318 1.97247 4.6209C2.00294 4.62145 2.03322 4.61582 2.06164 4.60432C2.09276 4.59319 2.12023 4.57307 2.14088 4.5463C2.17576 4.49695 2.19825 4.43925 2.20627 4.37846C2.21908 4.26974 2.21908 4.15978 2.20627 4.05106C2.20627 3.94538 2.20627 3.84384 2.20627 3.73609V3.42113C2.20627 3.0067 2.19439 2.59227 2.19637 2.17784C2.19637 1.97063 2.19636 1.77377 2.20627 1.57485V1.48782C2.20627 1.48782 2.22014 1.48782 2.20627 1.4671V1.27646V1.12727C2.20627 1.07961 2.20627 1.03195 2.20627 0.984289V0.913837V0.89726C2.20627 0.89726 2.20627 0.897258 2.20627 0.911763V0.946989V1.01537C2.20627 1.06303 2.20627 1.11069 2.20627 1.15628C2.20627 1.34691 2.20627 1.53341 2.20627 1.72197C2.20431 1.81627 2.21028 1.91057 2.22411 2.00378C2.23181 2.05228 2.24307 2.10008 2.25779 2.14676C2.27727 2.20012 2.31457 2.24428 2.36279 2.27109C2.38779 2.2825 2.41478 2.28839 2.44205 2.28839C2.46933 2.28839 2.49631 2.2825 2.52131 2.27109C2.56956 2.25101 2.61048 2.21547 2.6382 2.16955C2.68343 2.08538 2.7073 1.99051 2.70755 1.89396C2.70755 1.84216 2.70755 1.78828 2.70755 1.73855C2.72142 1.75513 2.72736 1.75513 2.70755 1.70539C2.70755 1.6826 2.70755 1.66188 2.70755 1.64116C2.70755 1.55413 2.70755 1.46917 2.70755 1.38421C2.70755 1.2143 2.69566 1.04853 2.68972 0.884827C2.68442 0.802136 2.67114 0.720214 2.65009 0.640313C2.63074 0.5585 2.59569 0.481656 2.54706 0.41445C2.45111 0.289365 2.32538 0.192887 2.1825 0.13471C2.11871 0.106814 2.0523 0.0859788 1.98436 0.0725451C1.91875 0.0608054 1.85263 0.0525075 1.78623 0.0476805C1.65455 0.0322836 1.52164 0.0322836 1.38996 0.0476805L1.29486 0.0684031L1.24928 0.0808355H1.2255H1.20965H1.19381L1.16011 0.0932678C1.16011 0.0932678 1.10464 0.120205 1.05114 0.151288C1.01711 0.168662 0.985184 0.190227 0.956042 0.215523C0.92687 0.23452 0.903492 0.261841 0.88867 0.294266C0.88867 0.304627 0.906508 0.294266 0.956042 0.271472L0.9818 0.312914C1.16408 0.590581 1.37807 0.833022 1.56432 1.10654L2.02201 1.77999L2.08343 1.85873L2.09333 1.87117V1.9582L2.11513 2.01621ZM2.11513 2.8948L2.08937 2.86165C2.04974 2.81399 2.00813 2.76633 1.96652 2.72075C1.88133 2.6275 1.79415 2.53839 1.70895 2.44722C1.53856 2.26694 1.40581 2.04937 1.23145 1.86702L1.19974 1.83801C1.19974 1.80486 1.19974 1.7717 1.19974 1.74062C1.35231 1.9209 1.48308 2.11982 1.63961 2.3001L2.03588 2.74354C2.03588 2.74354 2.10919 2.81814 2.1072 2.81399C2.11315 2.843 2.11513 2.86994 2.11513 2.8948ZM1.22749 0.994651C1.32655 1.13556 1.42562 1.2806 1.52072 1.41944L2.05767 2.17577L2.11314 2.24415V2.36848L2.07748 2.32082L2.04975 2.28559C2.0121 2.23379 1.97446 2.18199 1.93879 2.12604C1.86747 2.01829 1.80009 1.90639 1.72282 1.80278C1.56431 1.59557 1.41968 1.38836 1.25523 1.18114L1.22749 1.14799C1.23063 1.09693 1.23063 1.04571 1.22749 0.994651ZM1.22749 1.20186C1.38599 1.40908 1.52865 1.61629 1.68319 1.82351C1.76047 1.92504 1.82585 2.03072 1.89718 2.14054C1.93086 2.19442 1.96851 2.2483 2.00615 2.29803L2.04578 2.34983L2.08145 2.38713L2.11117 2.41614C2.11117 2.44308 2.11117 2.46794 2.11117 2.49488L2.08541 2.45551L1.70498 1.97063C1.54648 1.76341 1.39194 1.5707 1.24532 1.36142L1.21758 1.31998C1.21758 1.29511 1.21758 1.26817 1.21758 1.24124C1.21662 1.22952 1.21662 1.21773 1.21758 1.20601L1.22749 1.20186ZM1.66734 1.97684L2.0537 2.46794L2.10919 2.53218V2.62957L2.0874 2.59642L1.96851 2.43893C1.88925 2.33533 1.80604 2.23172 1.72481 2.13225C1.55837 1.92504 1.39194 1.73026 1.23937 1.51061L1.20569 1.46295V1.36142C1.36024 1.58106 1.51478 1.77999 1.66932 1.97684H1.66734ZM1.20965 1.5417C1.36221 1.74891 1.52667 1.95612 1.68914 2.14676C1.77038 2.24622 1.84962 2.35397 1.92888 2.44722C1.9685 2.49695 2.00615 2.54876 2.0438 2.60056L2.08145 2.65236L2.11117 2.68966V2.78498L2.06361 2.72282L1.66734 2.28352C1.50883 2.10325 1.37411 1.90018 1.21758 1.71368L1.19182 1.68467C1.19182 1.63701 1.19182 1.58728 1.19182 1.53962L1.20965 1.5417ZM0.870845 2.23586C0.853812 2.23678 0.836798 2.23373 0.821033 2.22692C0.805269 2.22011 0.791145 2.20972 0.779699 2.19649C0.738829 2.14221 0.711593 2.0781 0.700452 2.01C0.738098 2.06387 0.779701 2.11568 0.819328 2.16955L0.837166 2.19235L0.868862 2.23172L0.870845 2.23586ZM0.948121 2.18613C0.93803 2.20635 0.921054 2.22187 0.900558 2.22965L0.868862 2.1737L0.84707 2.14469C0.801499 2.08459 0.753946 2.0245 0.710356 1.96027L0.686581 1.92297C0.678926 1.86873 0.674293 1.81407 0.67271 1.75927C0.728188 1.85459 0.787627 1.94576 0.845087 2.03901L0.860941 2.06387L0.918395 2.14676C0.942172 2.17992 0.96199 2.20064 0.936233 2.1364C0.910475 2.07216 0.892637 2.0473 0.892637 2.0473L0.8748 2.01829C0.815359 1.9209 0.751963 1.82558 0.696485 1.72612L0.670727 1.67845V1.59143C0.710354 1.6453 0.748005 1.70332 0.787632 1.75927L0.904525 1.93747L0.965946 2.01621L0.987738 2.03694C0.98423 2.0887 0.97146 2.1393 0.950092 2.18613H0.948121ZM0.997654 1.92504C0.997654 1.95405 0.997654 1.98513 0.997654 2.01621V2.00378C0.979822 1.96856 0.950092 1.91882 0.950092 1.91882L0.833199 1.74062L0.700452 1.54791L0.686581 1.52926V1.38836V1.40079C0.730171 1.46295 0.77178 1.52926 0.811407 1.59764L0.868862 1.69918L0.916412 1.78621L0.969912 1.87117C0.97705 1.88338 0.98649 1.89396 0.997654 1.90225V1.92504ZM0.997654 1.88567C0.997654 1.88567 0.997645 1.87324 0.987738 1.8608C0.977831 1.84837 0.950092 1.7717 0.950092 1.7717L0.904525 1.68467L0.845087 1.58107C0.80507 1.5096 0.761411 1.44043 0.714311 1.37385L0.680631 1.32619V1.2288C0.716296 1.29096 0.751957 1.35106 0.789603 1.41115L0.89462 1.58107L0.954058 1.66188C0.979816 1.69503 1.00162 1.71368 0.971896 1.65152C0.942176 1.58935 0.9283 1.56242 0.9283 1.56242L0.910474 1.53341C0.841127 1.42773 0.773761 1.32619 0.71234 1.20808L0.682615 1.1542V1.13348V1.06096C0.722242 1.13555 0.765836 1.20808 0.811407 1.2806L0.936233 1.48782L0.989721 1.56449C1.00161 1.67846 0.999625 1.78206 0.999625 1.88567H0.997654ZM0.997654 1.52304L0.977833 1.47953L0.851024 1.27232C0.805453 1.19565 0.757902 1.11898 0.716294 1.04024L0.694502 1.00087C0.694502 0.976001 0.694502 0.949061 0.694502 0.924195C0.732148 0.988432 0.773755 1.0506 0.817345 1.11069L0.880749 1.20394L0.93425 1.2806L0.991704 1.35935C1.00557 1.41529 1.00359 1.46917 1.00359 1.52304H0.997654ZM0.736115 0.762569C0.736115 0.781218 0.755921 0.799868 0.765828 0.818517C0.81338 0.899331 0.870847 0.973928 0.922362 1.04853L0.940187 1.07339L0.995671 1.14592C0.995671 1.20394 0.995671 1.25781 0.995671 1.31169C0.983783 1.28682 0.971896 1.2661 0.971896 1.2661L0.918395 1.18736L0.851024 1.09411C0.80647 1.03319 0.76545 0.969532 0.728182 0.903476C0.720168 0.890107 0.712894 0.876271 0.70639 0.862034C0.71671 0.785015 0.734642 0.70932 0.75989 0.636168L0.785649 0.667252C0.853014 0.75221 0.916417 0.847528 0.983783 0.938702L0.999625 0.963567C0.999625 0.982216 0.999625 1.00086 0.999625 1.02159C0.999625 1.04231 0.999625 1.06717 0.999625 1.08997L0.97585 1.04853L0.956042 1.01952C0.902545 0.942846 0.847062 0.87032 0.801491 0.791579C0.7897 0.774831 0.779739 0.756762 0.771778 0.737704C0.748001 0.737704 0.742053 0.737703 0.742053 0.756353C0.742053 0.775002 0.742053 0.760497 0.742053 0.762569H0.736115ZM1.08285 0.812301C1.07204 0.817221 1.06227 0.824331 1.05411 0.833223C1.04594 0.842115 1.03956 0.852612 1.0353 0.864105C1.0353 0.880682 1.0353 0.891043 1.01945 0.903476C1.02031 0.908269 1.02031 0.913186 1.01945 0.917979C0.958024 0.822661 0.896603 0.731487 0.821311 0.640313C0.807245 0.628733 0.795183 0.614716 0.785649 0.598871C0.795018 0.576163 0.805596 0.554024 0.817345 0.532561V0.522203V0.532561C0.89858 0.636168 0.983778 0.729415 1.06501 0.83095L1.08285 0.812301ZM1.14031 0.812301C1.05313 0.700406 0.956041 0.594726 0.868862 0.484903L0.856974 0.468325C0.865861 0.461107 0.873848 0.452755 0.880749 0.44346C0.889409 0.435733 0.898693 0.428798 0.908491 0.422738C0.909559 0.428207 0.909559 0.433846 0.908491 0.439315C1.01355 0.584895 1.12737 0.723319 1.24928 0.853743C1.35825 0.992577 1.4593 1.13763 1.56233 1.28268L1.86944 1.71783C1.92095 1.79035 1.97049 1.86495 2.01606 1.94162L2.0537 2.00585L2.0973 2.08045V2.19856L2.07551 2.15919L1.54648 1.4153C1.43156 1.25988 1.32854 1.09826 1.21758 0.940773C1.21296 0.932695 1.20765 0.925066 1.20173 0.917979C1.19608 0.901675 1.18947 0.885758 1.18192 0.870321C1.18192 0.870321 1.17002 0.853745 1.1621 0.845456L1.14823 0.835095L1.14031 0.812301ZM1.46723 3.92051L1.37014 3.80447C1.30673 3.72573 1.24334 3.64699 1.1839 3.56411L1.16606 3.54131C1.16606 3.50816 1.16606 3.47293 1.16606 3.4377C1.20785 3.51518 1.25697 3.58807 1.31268 3.65528C1.34042 3.69258 1.37212 3.72781 1.40184 3.76303L1.47515 3.84799L1.5227 3.89565C1.5227 3.9288 1.5227 3.95989 1.5227 3.99304L1.46723 3.92051ZM1.53064 4.04691V4.16503C1.53121 4.1609 1.53121 4.15672 1.53064 4.15259C1.50686 4.11944 1.4692 4.07592 1.4692 4.07592L1.40581 4.01169L1.33052 3.93295C1.28141 3.88084 1.23635 3.82471 1.19579 3.7651C1.18473 3.74859 1.17479 3.73128 1.16606 3.7133C1.16606 3.676 1.16606 3.6387 1.16606 3.60141L1.34042 3.82519L1.43751 3.93916L1.5128 4.02827L1.53064 4.04691ZM1.25126 2.67723C1.27504 2.71038 1.29881 2.74561 1.3206 2.78291L1.38996 2.89273C1.40138 2.91152 1.41395 2.92952 1.4276 2.94661L1.44147 2.96526L1.45336 2.97976C1.47636 3.00483 1.50085 3.02836 1.52667 3.05021V3.16833C1.50884 3.1331 1.48704 3.0958 1.48704 3.0958L1.42959 3.00877L1.35429 2.90102C1.32854 2.86579 1.30079 2.83057 1.27305 2.79741C1.24531 2.76426 1.21361 2.73318 1.18587 2.70002V2.68552C1.18587 2.65236 1.18587 2.61921 1.18587 2.58605C1.2037 2.62542 1.22947 2.65444 1.25126 2.67723ZM1.18192 2.52182V2.47623C1.18295 2.46036 1.18295 2.44444 1.18192 2.42857L1.20371 2.45137C1.25919 2.52182 1.3107 2.59434 1.36222 2.65858L1.49893 2.86579L1.52667 2.90102C1.52667 2.93832 1.52667 2.97562 1.52667 3.01291L1.48307 2.95489C1.47486 2.94605 1.46756 2.93633 1.46128 2.92588C1.44741 2.90931 1.43552 2.89066 1.42364 2.87408L1.35429 2.76219L1.28099 2.65029C1.25325 2.61506 1.22352 2.58191 1.19974 2.54876C1.19213 2.543 1.18485 2.53677 1.17795 2.53011L1.18192 2.52182ZM1.24532 2.82021L1.32259 2.91967L1.39589 3.02535L1.45336 3.11238C1.45336 3.11238 1.51875 3.19734 1.51677 3.19112V3.20355C1.51677 3.23878 1.51677 3.274 1.51677 3.3113L1.46327 3.23049L1.32457 3.0585C1.27504 2.99427 1.22551 2.93003 1.17993 2.85129L1.16805 2.83471C1.16805 2.81813 1.16805 2.80156 1.16805 2.78498C1.16805 2.7684 1.16805 2.75183 1.16805 2.73525C1.19975 2.77876 1.22353 2.80156 1.24532 2.82849V2.82021ZM1.52469 3.49987C1.52534 3.49367 1.52534 3.48742 1.52469 3.48122C1.50487 3.44599 1.47119 3.39833 1.47119 3.39833L1.33844 3.23049C1.29089 3.1704 1.24135 3.10823 1.19776 3.044L1.18587 3.02949V2.90724C1.22748 2.96526 1.26909 3.0212 1.31268 3.07715L1.4494 3.24914L1.51874 3.32374L1.53459 3.33824L1.52469 3.49987ZM1.52469 3.82934L1.45336 3.74645L1.36222 3.63663C1.30188 3.5637 1.24877 3.48455 1.20371 3.40041L1.18587 3.36311C1.18587 3.32788 1.18587 3.29266 1.18587 3.25743L1.41175 3.55789L1.47714 3.63249C1.50488 3.66357 1.52866 3.68015 1.49299 3.62005C1.45733 3.55996 1.44346 3.53717 1.44346 3.53717L1.42165 3.51023L1.20371 3.21806L1.18587 3.19526V3.09166C1.2255 3.14553 1.26514 3.19941 1.30674 3.25121L1.43949 3.41906L1.50685 3.49158C1.51439 3.50159 1.52304 3.51063 1.53261 3.51852C1.53261 3.62834 1.53261 3.73817 1.53261 3.85006L1.52469 3.82934ZM1.53856 2.84715L1.40581 2.63993C1.35231 2.56326 1.3008 2.48866 1.24334 2.41821L1.20371 2.36848C1.20371 2.33118 1.20371 2.29595 1.20371 2.25866L1.22352 2.27938C1.27759 2.33061 1.3249 2.38915 1.3642 2.45344L1.42562 2.54876L1.47714 2.63164L1.53856 2.71245C1.53063 2.77462 1.52865 2.81399 1.52865 2.85543L1.53856 2.84715ZM1.39589 4.54837C1.35273 4.5483 1.3106 4.53457 1.27504 4.509C1.24261 4.47816 1.21868 4.43881 1.20569 4.39503C1.19748 4.36447 1.19151 4.3333 1.18786 4.30179L1.20371 4.31422C1.25483 4.36077 1.30314 4.41059 1.34834 4.46341L1.36817 4.48621L1.42959 4.54423L1.39589 4.54837ZM1.45138 4.53594L1.39788 4.46341L1.3741 4.43648C1.32753 4.38297 1.27791 4.33245 1.2255 4.28521C1.21204 4.27389 1.19743 4.26416 1.18192 4.2562C1.18192 4.23133 1.18192 4.20854 1.18192 4.18368L1.21361 4.20647C1.2882 4.26993 1.35478 4.34304 1.41175 4.42404L1.42959 4.44684L1.49101 4.51522C1.47696 4.52847 1.45991 4.53774 1.44147 4.54216L1.45138 4.53594ZM1.49695 4.49657L1.45138 4.42819L1.42959 4.39918C1.37206 4.3168 1.30557 4.2417 1.23145 4.17539C1.21426 4.16153 1.19565 4.14972 1.17597 4.14016V4.06971C1.26246 4.14855 1.34143 4.23599 1.41175 4.3308L1.42959 4.35359L1.46723 4.39089L1.50488 4.42197H1.51677C1.51123 4.4511 1.50119 4.4791 1.48704 4.50486L1.49695 4.49657ZM1.54648 4.36395C1.54648 4.3826 1.54648 4.39918 1.53261 4.41783L1.47317 4.34323L1.45138 4.31629C1.37973 4.2188 1.29873 4.12923 1.20965 4.04899C1.20054 4.0409 1.19057 4.03395 1.17993 4.02827C1.17993 3.99511 1.17993 3.95988 1.17993 3.92673V3.92051L1.42562 4.17746L1.44543 4.20025C1.44543 4.20025 1.52072 4.27071 1.51874 4.26656C1.52868 4.27506 1.53929 4.28269 1.55045 4.28935C1.54252 4.32251 1.54054 4.34737 1.53657 4.37224L1.54648 4.36395ZM1.54648 4.25206C1.5227 4.2189 1.48506 4.17539 1.48506 4.17539L1.46128 4.15052L1.21758 3.89357C1.20533 3.88145 1.19407 3.86828 1.1839 3.8542V3.78168C1.22515 3.84133 1.27085 3.89745 1.3206 3.94952L1.39392 4.02827L1.4593 4.09457C1.4593 4.09457 1.53459 4.16295 1.53261 4.15881C1.54045 4.16667 1.54909 4.17362 1.55837 4.17953C1.56035 4.2092 1.56035 4.23897 1.55837 4.26863C1.54874 4.26487 1.53879 4.26209 1.52865 4.26034L1.54648 4.25206ZM1.5663 2.62128C1.55739 2.63875 1.55136 2.65766 1.54846 2.67723L1.51677 2.61714L1.46525 2.53632L1.40184 2.43686C1.36008 2.36897 1.31014 2.30699 1.25324 2.25244L1.21163 2.211C1.21163 2.19028 1.21163 2.17163 1.21163 2.15091C1.21163 2.13018 1.21163 2.0846 1.21163 2.05144C1.21163 2.06387 1.23343 2.07424 1.24334 2.0846C1.30608 2.14926 1.36434 2.21851 1.4177 2.29181L1.56432 2.49902L1.61583 2.55497C1.58859 2.57458 1.56562 2.6 1.54846 2.62957L1.5663 2.62128ZM1.81 3.63456V3.5351L1.83378 3.55374C1.88466 3.60143 1.93171 3.65341 1.97446 3.70915L2.09532 3.86457L2.13098 3.90187L2.14683 3.91844C2.14683 3.94331 2.14683 3.96817 2.14683 3.99304C2.14576 3.9999 2.14576 4.0069 2.14683 4.01376L2.0973 3.9661L2.07154 3.94331C1.99135 3.87431 1.91525 3.80027 1.84368 3.72159L1.80604 3.676C1.80076 3.66526 1.79613 3.65419 1.79216 3.64285L1.81 3.63456ZM1.81 2.92381C1.84963 2.97147 1.89124 3.01913 1.93284 3.06472L2.05965 3.20148L2.13296 3.26986V3.35275L2.09333 3.30716L2.06956 3.28436C1.99014 3.21371 1.91534 3.13756 1.84566 3.05643L1.81 3.01499V2.92381ZM2.08937 3.17869L2.06559 3.15382C1.98436 3.06679 1.90313 2.97976 1.82784 2.88651L1.81 2.86579V2.81192C1.81 2.78912 1.81 2.76633 1.81 2.74146C1.84765 2.78912 1.88727 2.83471 1.92888 2.8803L2.00814 2.96319L2.07748 3.03157L2.129 3.07508V3.23464C2.09729 3.21391 2.07551 3.18698 2.07551 3.18698L2.08937 3.17869ZM1.81792 3.08337C1.88925 3.16418 1.96653 3.23878 2.0438 3.31338L2.06559 3.33203L2.13495 3.38797C2.13495 3.44185 2.13495 3.49365 2.13495 3.54753C2.12761 3.53734 2.11967 3.52765 2.11117 3.51852L2.0874 3.49572C2.0044 3.41872 1.92814 3.33411 1.85954 3.24292C1.84783 3.22645 1.83724 3.20914 1.82784 3.19112C1.82477 3.18948 1.82137 3.18863 1.81792 3.18863C1.81448 3.18863 1.81109 3.18948 1.80802 3.19112C1.80802 3.15175 1.80802 3.11238 1.80802 3.07301L1.81792 3.08337ZM1.83179 3.26365C1.90142 3.35779 1.97973 3.44455 2.06559 3.52266L2.08541 3.54338L2.1389 3.59312C2.1389 3.63249 2.1389 3.67186 2.1389 3.71123C2.11512 3.67807 2.08145 3.63663 2.08145 3.63663L2.05965 3.61176L1.84566 3.37761L1.80405 3.33203C1.80405 3.2968 1.80405 3.26157 1.80405 3.22427C1.80716 3.2406 1.81181 3.25656 1.81792 3.27193L1.83179 3.26365ZM1.82189 3.40455L2.03588 3.63663L2.05569 3.65943C2.05569 3.65943 2.12899 3.73195 2.12701 3.72781H2.14088V3.86249L2.11909 3.83348L2.09928 3.80655C2.02422 3.70312 1.9414 3.60612 1.85161 3.51645C1.83704 3.50171 1.82111 3.48853 1.80405 3.47708V3.37554L1.82189 3.40455ZM1.92888 4.53594C1.89822 4.51653 1.87508 4.48645 1.8635 4.45098L1.92294 4.50279L1.94473 4.52143L1.98833 4.54837C1.9638 4.55324 1.93846 4.55109 1.91501 4.54216L1.92888 4.53594ZM2.04777 4.53594H2.02795L1.97049 4.48621L1.94473 4.46549C1.91648 4.44284 1.88998 4.41789 1.86547 4.39089C1.85442 4.38005 1.84506 4.36747 1.83774 4.35359C1.83774 4.32665 1.83774 4.30179 1.82387 4.27485C1.81 4.24791 1.82387 4.24998 1.82387 4.23755C1.8777 4.28241 1.92927 4.33013 1.97841 4.38053L2.00022 4.40125C2.00022 4.40125 2.07946 4.46756 2.07748 4.46341L2.10324 4.48207C2.09666 4.49683 2.08703 4.50989 2.07504 4.52028C2.06304 4.53067 2.04899 4.53815 2.0339 4.54216L2.04777 4.53594ZM2.12701 4.45098C2.12251 4.46176 2.11722 4.47215 2.11117 4.48207L2.09333 4.4572L2.02993 4.38467L2.00615 4.35981C1.95634 4.30939 1.9041 4.26167 1.84963 4.21683L1.81594 4.18989C1.81594 4.15881 1.81594 4.12773 1.81594 4.09457C1.88185 4.16733 1.9513 4.23649 2.02399 4.30179L2.04578 4.32251C2.04578 4.32251 2.12504 4.38882 2.12306 4.38467C2.12864 4.39088 2.13538 4.39581 2.14287 4.39918C2.13492 4.42152 2.12497 4.44303 2.11314 4.46341L2.12701 4.45098ZM2.14485 4.38467V4.37017L2.08145 4.29765L2.05569 4.27485C1.98238 4.2044 1.90709 4.13395 1.83973 4.06764C1.83973 4.06764 1.82784 4.05313 1.82387 4.04484V3.9661C1.8919 4.04346 1.96399 4.11679 2.03983 4.18575L2.06164 4.2044L2.14088 4.26242L2.16268 4.27485C2.15479 4.31631 2.14421 4.35716 2.13098 4.39711L2.14485 4.38467ZM2.14485 4.24584L2.07748 4.17746L2.0537 4.15467C1.9787 4.08691 1.90789 4.01424 1.8417 3.93709L1.80802 3.89772V3.86249V3.87286C1.86152 3.93088 1.91898 3.98268 1.97644 4.03448L1.99823 4.05313L2.07748 4.11322C2.11116 4.13601 2.13692 4.14845 2.09135 4.09665C2.04578 4.04484 2.02597 4.02827 2.02597 4.02827L2.00022 4.00547C1.94276 3.95367 1.88529 3.90186 1.83378 3.84592C1.82189 3.83141 1.81 3.81898 1.8001 3.80447C1.79019 3.78997 1.8001 3.75474 1.8001 3.72988V3.74231C1.872 3.82341 1.94947 3.8989 2.03191 3.96817L2.0537 3.98889L2.13098 4.04484V4.14845V4.25413L2.14485 4.24584ZM2.48168 2.22136C2.46598 2.21632 2.45139 2.20804 2.4388 2.19701C2.42621 2.18597 2.41586 2.17241 2.40837 2.15712C2.40006 2.14085 2.39405 2.1234 2.39054 2.10532L2.42026 2.14883L2.44007 2.17163L2.48564 2.22136H2.48168ZM2.64613 2.11982C2.63464 2.14658 2.61709 2.17 2.595 2.18805C2.5729 2.20611 2.54693 2.21825 2.51933 2.22343L2.46979 2.15091L2.44799 2.12397C2.41755 2.08623 2.39099 2.04526 2.36874 2.00171C2.36874 1.96649 2.35884 1.92919 2.35686 1.89189C2.3912 1.94576 2.42686 1.99757 2.46384 2.0473L2.48168 2.07216L2.51734 2.10946L2.55301 2.14262C2.58669 2.16955 2.61047 2.18199 2.56886 2.13018L2.51338 2.05144L2.49159 2.02451C2.44463 1.96378 2.40223 1.89935 2.36478 1.83179C2.36074 1.82604 2.35741 1.81977 2.35487 1.81315C2.35487 1.7717 2.35487 1.73233 2.35487 1.69089C2.40649 1.7764 2.46624 1.85623 2.5332 1.92919L2.55301 1.95198L2.62235 2.02243C2.65009 2.05351 2.67387 2.07009 2.6382 2.01C2.62132 1.98189 2.6028 1.9549 2.58273 1.92919L2.56093 1.90432C2.48748 1.82786 2.42419 1.74144 2.37271 1.64737C2.36593 1.63326 2.35997 1.61873 2.35487 1.60386C2.35487 1.56449 2.35487 1.52719 2.35487 1.48782C2.39041 1.54894 2.42945 1.60776 2.47178 1.66395L2.54509 1.76549L2.60452 1.84837L2.66396 1.92711C2.66888 1.93492 2.6749 1.9419 2.6818 1.94783C2.67782 2.01176 2.66236 2.07432 2.63622 2.13225L2.64613 2.11982ZM2.68575 1.87117C2.68575 1.88774 2.68575 1.90432 2.68575 1.9209C2.67214 1.89102 2.65693 1.86196 2.64019 1.83387L2.58075 1.75098L2.50546 1.64945C2.45635 1.583 2.41072 1.51382 2.36874 1.44223L2.35884 1.41737C2.35884 1.38007 2.35884 1.3407 2.35884 1.3034C2.38063 1.33655 2.40638 1.36763 2.4262 1.40079L2.49752 1.50854L2.62632 1.71576L2.68575 1.79657C2.67585 1.82765 2.67585 1.84837 2.67585 1.8836L2.68575 1.87117ZM2.68575 1.74269L2.65406 1.68467L2.52527 1.47746L2.45394 1.36556C2.42818 1.32619 2.39846 1.29511 2.37865 1.25781C2.36893 1.24179 2.36159 1.22432 2.35686 1.20601V1.17078C2.35686 1.12519 2.35686 1.07961 2.35686 1.03195L2.56688 1.38214C2.60651 1.45052 2.64415 1.5189 2.6818 1.58935L2.69369 1.61215C2.67189 1.67017 2.67387 1.71368 2.67387 1.75513L2.68575 1.74269ZM2.47375 0.418596C2.50006 0.444473 2.52395 0.472919 2.54509 0.503551C2.56637 0.533444 2.58368 0.566204 2.59659 0.600942C2.62014 0.667963 2.63674 0.737432 2.64613 0.808156L2.63424 0.783291L2.58075 0.681755L2.50941 0.542922C2.47632 0.475226 2.43858 0.410127 2.39649 0.34814C2.42046 0.373804 2.44233 0.401532 2.46186 0.431028L2.47375 0.418596ZM2.30137 0.283904C2.30614 0.28994 2.31146 0.295491 2.31723 0.300482C2.37692 0.380863 2.42931 0.466884 2.47375 0.557429L2.5431 0.692117L2.59857 0.797795L2.65207 0.876537C2.65207 0.932485 2.65207 0.990504 2.66198 1.0506L2.63622 1.01123L2.61245 0.978073L2.54112 0.86825C2.49357 0.793653 2.448 0.719053 2.40441 0.642384C2.31723 0.495262 2.23203 0.348141 2.13098 0.209307C2.18633 0.232995 2.23941 0.262136 2.28948 0.296337L2.30137 0.283904ZM2.07352 0.19273L2.09333 0.219669C2.19351 0.359893 2.28612 0.505861 2.37073 0.656891C2.41432 0.731488 2.4579 0.806085 2.50546 0.880682L2.57678 0.988434L2.60651 1.03195L2.66595 1.09826V1.27853V1.26196L2.36279 0.77293L2.17655 0.470399C2.11116 0.370936 2.04181 0.277689 1.97841 0.178226L2.07352 0.19273ZM1.89917 0.161649H1.92492L1.94672 0.194804C2.00814 0.294267 2.07947 0.387513 2.14485 0.482831L2.32911 0.779146L2.63424 1.27439L2.67783 1.33448C2.67783 1.40079 2.67783 1.46503 2.67783 1.5417C2.65009 1.49196 2.62434 1.44223 2.59462 1.39457L2.34892 0.980144L2.33308 0.953205C2.32933 0.920177 2.32269 0.887581 2.31326 0.855818C2.3071 0.836697 2.29843 0.818563 2.2875 0.80194C2.28654 0.797934 2.28456 0.794277 2.28177 0.791357C2.27898 0.788438 2.27549 0.786365 2.27166 0.785362C2.27166 0.785362 2.26175 0.785362 2.25184 0.785362H2.23005C2.11117 0.578148 1.99427 0.370934 1.85755 0.16372L1.89917 0.161649ZM1.81199 0.161649C1.81661 0.169727 1.82192 0.177355 1.82784 0.184443C1.96455 0.379224 2.08144 0.598871 2.20032 0.806085C2.19216 0.814485 2.18547 0.8243 2.18051 0.835095L2.16863 0.866176V0.903476C2.16801 0.91106 2.16801 0.918685 2.16863 0.92627V0.909692L2.12306 0.824734L2.04578 0.702478L1.93483 0.520129C1.8635 0.399944 1.78622 0.27976 1.70498 0.16372L1.81199 0.161649ZM1.64159 0.161649L1.65743 0.186514C1.73669 0.300481 1.81198 0.414451 1.88331 0.534635L1.99228 0.712839L2.07352 0.841311C2.07352 0.841311 2.13495 0.926269 2.13495 0.922124C2.14116 0.930746 2.14849 0.938418 2.15674 0.944918C2.15674 0.969784 2.15674 0.996721 2.15674 1.02159C2.15769 1.03331 2.15769 1.04509 2.15674 1.05681C2.15071 1.04298 2.14342 1.0298 2.13495 1.01744L2.03588 0.85996C1.98436 0.777074 1.93482 0.694188 1.88133 0.613374C1.82783 0.532561 1.77236 0.453819 1.71292 0.37715C1.65348 0.300481 1.58017 0.238317 1.53064 0.169936C1.55045 0.161647 1.59008 0.161649 1.6297 0.161649H1.64159ZM1.48307 0.161649C1.48307 0.161649 1.48307 0.161647 1.48307 0.176152C1.53988 0.252818 1.60143 0.3255 1.66734 0.393728C1.7248 0.468325 1.7783 0.544994 1.83179 0.623736C1.88529 0.702477 1.93284 0.783291 1.98238 0.864105L2.05767 0.984289L2.0874 1.02988C2.0874 1.02988 2.12305 1.07754 2.14088 1.09826V1.22673L2.12701 1.20394L2.10125 1.16871C2.06757 1.12105 2.03587 1.07339 2.00417 1.02366L1.81594 0.725272C1.75465 0.623783 1.68852 0.525578 1.6178 0.431028C1.55044 0.341926 1.46525 0.271474 1.40383 0.182372L1.48307 0.161649ZM1.30079 0.198946L1.37212 0.180297C1.43552 0.27976 1.52469 0.352285 1.59206 0.439315C1.65942 0.526345 1.72481 0.627881 1.79019 0.725272L1.97446 1.01952C2.00418 1.06925 2.03786 1.11691 2.06956 1.16456L2.10522 1.21222L2.14882 1.26403V1.31998C2.14783 1.33446 2.14783 1.349 2.14882 1.36349L2.03786 1.19565C1.96455 1.07961 1.89321 0.963566 1.81792 0.849598C1.74129 0.736461 1.65791 0.628495 1.56827 0.526345C1.48109 0.422738 1.38995 0.319131 1.3107 0.215523L1.30079 0.198946ZM1.21361 0.23003H1.24532H1.25721L1.2691 0.248678C1.34835 0.358502 1.43949 0.455894 1.52469 0.557429C1.61243 0.655994 1.69384 0.760518 1.76839 0.870321C1.84368 0.980144 1.91303 1.09619 1.98436 1.20808C2.02003 1.2661 2.05569 1.32205 2.09333 1.37592L2.13098 1.4298V1.44016C2.13098 1.49611 2.13098 1.55413 2.13098 1.61008L1.73471 1.00087C1.57171 0.746525 1.39646 0.501005 1.20965 0.265256L1.19579 0.248678L1.21361 0.23003ZM1.17003 0.244533L1.19381 0.271472C1.37807 0.50148 1.54648 0.743919 1.70895 0.992576L2.10522 1.61422C2.11576 1.62681 2.12568 1.63995 2.13495 1.65359C2.13495 1.69503 2.13495 1.73648 2.13495 1.77792V1.76341L2.09135 1.67638L2.06559 1.63701L1.94672 1.4298C1.86746 1.29511 1.7882 1.16042 1.70498 1.02988C1.62177 0.899332 1.52667 0.772932 1.43552 0.648603C1.34438 0.524275 1.25126 0.395802 1.15616 0.275617L1.14229 0.252824L1.17003 0.244533ZM2.0874 1.81107L1.63763 1.15006C1.45336 0.86825 1.22749 0.619592 1.04322 0.339853L1.02143 0.304627L1.09474 0.273543L1.11455 0.304627C1.20767 0.424811 1.29683 0.549141 1.38797 0.671397C1.47912 0.793653 1.57224 0.913836 1.6515 1.04231C1.73075 1.17078 1.81199 1.3034 1.88926 1.43601L2.00814 1.63287L2.0438 1.69296L2.10324 1.77377L2.12701 1.80071C2.12701 1.82765 2.12701 1.85666 2.12701 1.88567L2.0874 1.81107ZM2.12701 3.03157L2.10522 3.0067L2.03786 2.93832L1.9586 2.85543C1.90511 2.79949 1.85359 2.74147 1.80604 2.68137C1.80784 2.66624 1.80784 2.65092 1.80604 2.63579C1.80101 2.59727 1.78183 2.56233 1.75255 2.5384C1.73309 2.52533 1.71027 2.51882 1.68716 2.51975C1.67031 2.52271 1.65416 2.52904 1.63961 2.5384L1.59998 2.4783L1.45138 2.27109C1.3959 2.19777 1.33565 2.12853 1.27107 2.06387C1.25696 2.05178 1.24372 2.03863 1.23145 2.02451H1.2156C1.2156 1.97685 1.2156 1.92919 1.2156 1.8836C1.38401 2.05973 1.51478 2.27316 1.68518 2.45344L1.93681 2.72075C1.97842 2.76633 2.01804 2.81192 2.05767 2.85958L2.09532 2.90724L2.12504 2.94039L2.12701 3.03157Z" fill="#534098"/>
</svg>
