<svg width="2" height="1" viewBox="0 0 2 1" fill="none" xmlns="http://www.w3.org/2000/svg">
<path d="M0.712987 0.613147C0.74668 0.641055 0.785635 0.661203 0.827292 0.672273C0.868949 0.683343 0.912373 0.685084 0.954718 0.677383C0.992205 0.670563 1.02794 0.65576 1.05972 0.633876C1.06582 0.694777 1.08624 0.753141 1.11916 0.80378C1.14096 0.816213 1.14096 0.766487 1.1469 0.615221V0.528195V0.517836C1.1739 0.468111 1.19076 0.413076 1.19644 0.356203C1.19449 0.326931 1.19052 0.297848 1.18455 0.269177V0.248448L1.09142 0.258819C1.09627 0.246675 1.09877 0.233633 1.09877 0.220472C1.09877 0.207311 1.09627 0.194282 1.09142 0.182138C1.09142 0.182138 1.09142 0.182138 1.09142 0.169706C1.04577 0.122194 0.985275 0.0935088 0.921026 0.0889017C0.855579 0.0847588 0.79089 0.105343 0.738746 0.146915C0.704971 0.17474 0.677005 0.209498 0.65656 0.249055C0.636115 0.288612 0.623628 0.332126 0.61987 0.37692C0.616499 0.421183 0.623169 0.465655 0.639352 0.506707C0.655535 0.547758 0.680768 0.584229 0.712987 0.613147ZM0.829892 0.271251C0.849699 0.253317 0.875018 0.24344 0.901218 0.24344C0.927417 0.24344 0.952736 0.253317 0.972543 0.271251H0.984431H1.03V0.323055C1.03099 0.343072 1.03099 0.363125 1.03 0.383142C1.03 0.399719 1.03001 0.420439 1.01416 0.432872C1.00617 0.450924 0.994023 0.466619 0.978808 0.478554C0.963592 0.490488 0.945783 0.498293 0.926976 0.501256C0.887165 0.507113 0.846724 0.496722 0.814038 0.472243C0.799667 0.46076 0.788439 0.445525 0.781483 0.428066C0.774527 0.410606 0.772085 0.391542 0.774408 0.372784C0.779555 0.332676 0.799464 0.296251 0.829892 0.271251Z" fill="#D62027"/>
</svg>
