<svg width="12" height="14" viewBox="0 0 12 14" fill="none" xmlns="http://www.w3.org/2000/svg">
<path d="M9.85097 8.20804C10.6178 8.0402 10.9585 7.01656 11.0219 6.29131C11.1091 5.3029 10.8912 4.30412 10.693 3.54365C10.5748 3.03664 10.3916 2.54871 10.1482 2.09315C9.80738 1.50052 9.23675 0.974192 8.54724 0.95347C8.27717 0.937567 8.01105 1.02689 7.80027 1.2042C7.7864 1.21663 7.77451 1.23114 7.76064 1.24564L2.01473 5.82508C2.00685 5.83023 2.00059 5.83769 1.99671 5.84653C1.99284 5.85537 1.99153 5.8652 1.99294 5.87481C1.93419 5.90494 1.87728 5.93885 1.82254 5.97634C1.37872 6.18355 0.936879 6.44257 0.671378 6.8798C0.541805 7.10181 0.460448 7.35088 0.433058 7.6094C0.405668 7.86792 0.432917 8.12959 0.512873 8.37588C0.589264 8.60741 0.714909 8.81778 0.880337 8.99115C1.04576 9.16452 1.24666 9.29635 1.46788 9.37672C1.68795 9.45975 1.92189 9.495 2.15541 9.48033C2.36345 9.4679 2.56951 9.34771 2.76566 9.48033C2.89435 9.59709 2.98909 9.7493 3.03909 9.91962C3.11973 10.0909 3.18987 10.2674 3.24911 10.448C3.48988 11.1678 3.55792 11.9384 3.44725 12.6922C3.42163 12.8818 3.3839 13.0694 3.33431 13.2537C3.30063 13.3801 3.15599 13.5997 3.35413 13.6122C3.55226 13.6246 3.73454 13.577 3.92079 13.5852C4.31706 13.6039 4.72918 13.6495 5.08781 13.4402C5.19449 13.3838 5.28428 13.2977 5.34736 13.1915C5.41187 13.0648 5.49326 12.9483 5.58909 12.8455C5.77098 12.6772 5.92555 12.4792 6.04678 12.2591C6.18547 11.9524 6.10027 11.5587 6.02895 11.2417V11.2002C5.85062 10.3714 5.55144 9.36844 4.83023 8.75094C6.3047 8.43983 7.80093 8.25479 9.30411 8.19768C9.48576 8.21778 9.66874 8.22125 9.85097 8.20804ZM8.9871 1.16276C9.43323 1.35931 9.80409 1.70561 10.0412 2.14703C10.2781 2.59367 10.4561 3.07185 10.5702 3.56851C10.7802 4.36421 10.9823 5.30704 10.8971 6.2623C10.8789 6.73368 10.7272 7.18877 10.4612 7.56982C10.3649 7.69575 10.2482 7.80305 10.1165 7.88685C9.99775 7.90638 9.87636 7.8979 9.76118 7.86205C9.64599 7.8262 9.53992 7.76388 9.45073 7.67964C9.2548 7.49168 9.09654 7.26488 8.98512 7.01241C8.83486 6.71323 8.70252 6.40458 8.58885 6.08824L8.68989 6.04887C8.93162 6.75754 9.30015 7.24242 9.78756 7.48693H9.81332C9.82553 7.48693 9.83751 7.48346 9.84798 7.47689C9.85845 7.47032 9.86701 7.4609 9.87276 7.44964C9.87646 7.44175 9.87862 7.43318 9.87913 7.42442C9.87963 7.41565 9.87847 7.40688 9.8757 7.39859C9.87294 7.3903 9.86863 7.38267 9.86302 7.37613C9.85741 7.3696 9.85062 7.3643 9.84304 7.36053C9.38337 7.13053 9.03663 6.66843 8.80679 5.98877C8.87028 5.95764 8.93183 5.92235 8.99106 5.8831C9.20703 6.42185 9.48243 6.76168 9.82917 6.91917H9.85097C9.86377 6.91962 9.87641 6.91612 9.88733 6.90913C9.89825 6.90213 9.90696 6.89193 9.91239 6.8798C9.91846 6.86353 9.91835 6.84546 9.91209 6.82928C9.90582 6.8131 9.89388 6.80003 9.8787 6.79276C9.55773 6.64979 9.30213 6.32654 9.09805 5.80643C9.16378 5.75506 9.22601 5.69897 9.2843 5.63858C9.40549 5.92395 9.55988 6.1926 9.74397 6.43843C9.74969 6.44611 9.75687 6.45247 9.76505 6.45711C9.77324 6.46175 9.78225 6.46456 9.79152 6.46537C9.80653 6.46537 9.82113 6.46028 9.83314 6.45086C9.84585 6.43957 9.85395 6.42363 9.85579 6.40629C9.85763 6.38896 9.85307 6.37155 9.84304 6.35761C9.65445 6.10338 9.49795 5.82481 9.37742 5.52876C9.50214 5.38053 9.59895 5.20899 9.66274 5.02315C9.74977 4.77099 9.76976 4.49886 9.72056 4.23575C9.67136 3.97265 9.55482 3.72843 9.38337 3.52914C9.29988 3.43701 9.20291 3.35937 9.09608 3.29914C9.10096 3.24878 9.10957 3.1989 9.12183 3.14994C9.12183 3.12508 9.1357 3.09607 9.14561 3.05255C9.14917 3.03552 9.14617 3.01772 9.13727 3.00298C9.12837 2.98824 9.11428 2.97776 9.09805 2.97381C9.08998 2.97167 9.08157 2.97128 9.07335 2.97265C9.06512 2.97402 9.05725 2.97712 9.05021 2.98178C9.04316 2.98643 9.0371 2.99253 9.03238 2.99971C9.02766 3.00689 9.02439 3.01499 9.02276 3.02354L9.00097 3.11886C8.99106 3.15823 8.98314 3.18931 8.97521 3.23697C8.90225 3.20496 8.82664 3.18 8.74934 3.16237C8.77905 2.8818 8.83209 2.60446 8.90784 2.33352C8.91281 2.31676 8.91121 2.29862 8.90341 2.28309C8.89561 2.26755 8.88225 2.25588 8.86624 2.25063C8.85817 2.2481 8.8497 2.24727 8.84133 2.2482C8.83296 2.24913 8.82485 2.2518 8.81747 2.25605C8.81009 2.26029 8.80359 2.26603 8.79836 2.27292C8.79312 2.27982 8.78926 2.28774 8.78699 2.29622C8.7095 2.57328 8.65514 2.85684 8.62451 3.14373C8.52514 3.1313 8.4247 3.1313 8.32533 3.14373C8.33243 2.61177 8.49185 2.09424 8.78302 1.658C8.793 1.64426 8.79736 1.62693 8.79513 1.60984C8.7929 1.59274 8.78427 1.57726 8.77113 1.56682C8.75799 1.55638 8.74143 1.55182 8.72508 1.55416C8.70873 1.55649 8.69394 1.56552 8.68395 1.57925C8.36959 2.04416 8.20008 2.59919 8.19852 3.16859C8.16158 3.17813 8.12519 3.18989 8.08955 3.20381C8.08955 3.06083 8.08955 2.91786 8.09946 2.77488C8.12521 2.27135 8.26192 1.40105 8.86227 1.09645L8.9871 1.16276ZM8.55715 5.98463C8.55715 5.98463 8.55714 5.98463 8.54724 5.98463C8.26193 5.14724 8.10933 4.26673 8.09549 3.37788C8.26567 3.30635 8.45081 3.28276 8.63243 3.30949C8.63754 3.31687 8.64405 3.32308 8.65155 3.32771C8.65905 3.33235 8.66738 3.33532 8.67602 3.33643C8.68893 3.33676 8.70155 3.33236 8.71169 3.324C8.93298 3.37009 9.13552 3.48577 9.29223 3.65554C9.44768 3.83678 9.55334 4.05864 9.59799 4.29759C9.64264 4.53655 9.62462 4.78368 9.54584 5.01279C9.44273 5.29984 9.26074 5.54857 9.02276 5.72769C9.01188 5.72357 8.99996 5.72357 8.98908 5.72769C8.97989 5.73144 8.97179 5.73761 8.96554 5.74559C8.95929 5.75358 8.95512 5.76311 8.95342 5.77327C8.88346 5.82029 8.81065 5.86251 8.73547 5.89967C8.72459 5.89556 8.71267 5.89556 8.70178 5.89967C8.68734 5.90433 8.67525 5.91476 8.6681 5.92868L8.55715 5.98463ZM7.84584 1.33682L7.99445 1.2187C8.16224 1.12022 8.35305 1.07285 8.54526 1.08194L8.67999 1.09437C8.13512 1.47772 8.00633 2.31072 7.98058 2.80597C7.97067 2.96966 7.96869 3.13336 7.96869 3.29706C7.95541 3.30567 7.94564 3.3191 7.94125 3.33478C7.93687 3.35046 7.93817 3.36728 7.94491 3.38202C7.95088 3.39337 7.95981 3.40271 7.97066 3.40896C7.99306 4.69524 8.30244 5.95826 8.87416 7.09737C8.99271 7.36554 9.16187 7.60589 9.37148 7.80397C9.50515 7.92255 9.6665 8.00192 9.83908 8.03398C9.71605 8.07721 9.58626 8.09549 9.45668 8.08785C9.45197 8.07867 9.44472 8.07119 9.43589 8.06639C9.42705 8.06158 9.41703 8.05967 9.40714 8.06091H9.316C8.86029 7.94487 8.55715 7.4745 8.36892 7.13052C7.5803 5.68682 7.26181 4.01412 7.46146 2.3646C7.49713 2.01855 7.58233 1.59791 7.84584 1.33682ZM0.816019 8.4712C0.987839 8.78722 1.24965 9.0393 1.56497 9.19231C1.76235 9.28518 1.97484 9.33792 2.19108 9.34772C1.8317 9.39105 1.4696 9.29524 1.17317 9.07839C0.876746 8.86153 0.666525 8.53865 0.582221 8.17074C0.528166 7.92816 0.528658 7.67578 0.583666 7.43343C0.638675 7.19109 0.746695 6.9654 0.899232 6.77412C1.05276 6.59371 1.23429 6.44169 1.43618 6.32446C1.2383 6.54656 1.09866 6.81837 1.03082 7.11353C0.962975 7.40869 0.969227 7.71718 1.04897 8.00907C1.12871 8.30096 1.27923 8.56634 1.48594 8.77947C1.69264 8.99259 1.94852 9.14622 2.22872 9.22546C1.96442 9.21922 1.70621 9.14126 1.4794 8.99923C1.25258 8.85719 1.06496 8.65596 0.934901 8.41525C0.930786 8.40758 0.925252 8.40084 0.918624 8.39543C0.911995 8.39002 0.904401 8.38604 0.896288 8.38372C0.888174 8.38141 0.879702 8.38081 0.871363 8.38195C0.863025 8.3831 0.85499 8.38596 0.847721 8.39038C0.833972 8.39755 0.82318 8.4097 0.817349 8.42456C0.811518 8.43943 0.811045 8.456 0.816019 8.4712ZM2.59923 9.16537C2.26116 9.14418 1.93847 9.0103 1.67844 8.78335C1.41842 8.5564 1.23475 8.24832 1.15433 7.90425C1.07391 7.56018 1.10097 7.19823 1.23157 6.87142C1.36216 6.54462 1.5894 6.27014 1.88 6.08824L1.987 6.03851C1.74703 6.54451 1.68321 7.12217 1.80652 7.67208C1.92984 8.22198 2.23258 8.70973 2.66264 9.0514C2.40994 8.93892 2.18359 8.77044 1.99921 8.55758C1.81483 8.34472 1.67681 8.09255 1.59469 7.81848C1.59007 7.80182 1.57939 7.78772 1.56494 7.77919C1.5505 7.77067 1.53344 7.76841 1.51742 7.77289C1.50931 7.77527 1.50174 7.77932 1.49514 7.78479C1.48855 7.79026 1.48306 7.79706 1.479 7.80477C1.47495 7.81249 1.47239 7.82097 1.47151 7.82973C1.47062 7.83848 1.47141 7.84734 1.47383 7.85577C1.56177 8.14529 1.70835 8.41158 1.90358 8.6365C2.09882 8.86142 2.33812 9.03969 2.60518 9.15915L2.59923 9.16537ZM3.61368 12.1099C3.62134 11.756 3.59211 11.4024 3.5265 11.0552C3.46165 10.706 3.35998 10.3655 3.22336 10.0398C3.15444 9.87665 3.07705 9.71755 2.99154 9.56322C2.9539 9.49691 2.8786 9.4306 2.86473 9.356C2.86282 9.33948 2.86282 9.32279 2.86473 9.30627C2.86473 9.22339 2.97173 9.29177 3.00937 9.19231C3.23721 9.48468 3.41181 9.81829 3.52452 10.1766C3.52828 10.1895 3.53586 10.2009 3.54618 10.2091C3.5565 10.2173 3.56903 10.2219 3.58198 10.2222C3.5891 10.2243 3.59666 10.2243 3.60378 10.2222C3.61168 10.2196 3.619 10.2154 3.62531 10.2098C3.63162 10.2042 3.63677 10.1973 3.64047 10.1895C3.64418 10.1818 3.64634 10.1734 3.64685 10.1647C3.64735 10.1561 3.64618 10.1474 3.6434 10.1393C3.53329 9.78485 3.36501 9.45319 3.14609 9.15915L3.29666 9.11771C3.29896 9.12739 3.30299 9.13653 3.30855 9.14465C3.47302 9.33839 3.59177 9.56975 3.65529 9.82017C3.65871 9.83407 3.66636 9.84643 3.67708 9.85539C3.6878 9.86436 3.70101 9.86945 3.71473 9.86989H3.73256C3.74052 9.86799 3.74802 9.8644 3.75459 9.85933C3.76115 9.85426 3.76665 9.84783 3.77074 9.84045C3.77483 9.83306 3.77742 9.82487 3.77835 9.81639C3.77929 9.80791 3.77854 9.79932 3.77615 9.79115C3.71155 9.53124 3.59091 9.29024 3.42347 9.08663C3.59189 9.04104 3.7603 8.9996 3.9307 8.95815C3.93481 8.96536 3.94018 8.97169 3.94655 8.9768C4.3219 9.28115 4.60254 9.69506 4.75296 10.1662C4.90237 10.6435 5.00721 11.1348 5.06601 11.6333C5.12347 12.0166 5.16112 12.3855 5.00261 12.6694C4.92559 12.7961 4.82314 12.9038 4.70237 12.985C4.5816 13.0662 4.4454 13.119 4.30319 13.1397C4.0318 13.1801 3.75629 13.1801 3.4849 13.1397C3.55821 13.146 3.61764 12.2011 3.61963 12.1037L3.61368 12.1099ZM5.16904 13.1812C5.06654 13.295 4.93534 13.3762 4.7906 13.4153C4.33886 13.5459 3.86135 13.4153 3.40366 13.463C3.42347 13.4008 3.43933 13.3387 3.45518 13.2744C3.58595 13.2869 3.71671 13.2993 3.85145 13.3034C4.01269 13.3104 4.17416 13.2986 4.33291 13.2682C4.49409 13.2442 4.64839 13.184 4.7852 13.0917C4.92202 12.9994 5.03809 12.8773 5.12545 12.7336C5.30377 12.4041 5.26414 12.0104 5.2047 11.6022C5.14552 11.0949 5.03799 10.5951 4.88373 10.1103C4.73004 9.64174 4.45581 9.22661 4.09119 8.91049L4.19224 8.88563C4.19644 8.89912 4.2048 8.91078 4.21601 8.91878C5.13536 9.57565 5.40482 10.7506 5.42464 11.8529C5.4286 12.2674 5.47021 12.8331 5.17498 13.175L5.16904 13.1812ZM5.68221 10.4252C5.76939 10.6987 5.83675 10.9723 5.89223 11.2271V11.2665C5.95762 11.5628 6.03886 11.9337 5.91997 12.199C5.85054 12.3328 5.76239 12.455 5.65843 12.5616C5.78267 12.1278 5.80174 11.6685 5.71391 11.2251C5.71277 11.2164 5.7099 11.2081 5.70549 11.2007C5.70108 11.1933 5.69522 11.187 5.6883 11.1821C5.68139 11.1772 5.67357 11.1739 5.66535 11.1724C5.65713 11.1708 5.6487 11.1712 5.6406 11.1733C5.63226 11.1747 5.62429 11.178 5.6172 11.1828C5.61011 11.1876 5.60404 11.1939 5.59939 11.2013C5.59474 11.2087 5.5916 11.217 5.59017 11.2258C5.58874 11.2345 5.58904 11.2434 5.59107 11.252C5.67824 11.695 5.65435 12.154 5.52172 12.5844C5.53548 12.3831 5.53945 12.1811 5.53361 11.9793C5.53739 11.5118 5.48615 11.0455 5.38105 10.591H5.39293C5.45137 10.5921 5.50897 10.5764 5.55937 10.5454C5.61217 10.5158 5.65659 10.4722 5.68815 10.419L5.68221 10.4252ZM5.62475 10.2574C5.61632 10.2625 5.60898 10.2694 5.60319 10.2776C5.59739 10.2858 5.59327 10.2951 5.59107 10.305C5.58722 10.3321 5.57732 10.3579 5.56217 10.3802C5.54703 10.4025 5.52706 10.4208 5.50389 10.4335C5.48184 10.4476 5.45707 10.4564 5.43137 10.4593C5.40567 10.4622 5.37968 10.459 5.35529 10.4501C5.19545 9.81161 4.83459 9.24807 4.33093 8.8504L4.65785 8.77995C5.11177 9.16123 5.4498 9.67242 5.63069 10.2512L5.62475 10.2574ZM8.65027 8.10443L8.29759 8.12722C8.05389 8.14587 7.81018 8.16659 7.56647 8.19146C6.7277 8.27434 5.89421 8.39798 5.06601 8.56237C4.65389 8.6425 4.24243 8.73367 3.83163 8.8359C3.62621 8.87095 3.42403 8.92433 3.22732 8.99545C3.10447 9.05347 2.94993 9.1405 2.83105 9.00996C3.08466 8.94365 3.33629 8.86491 3.58991 8.80274C4.73916 8.45298 5.91416 8.20346 7.10284 8.05677C7.11109 8.05626 7.11916 8.05401 7.12656 8.05015C7.13396 8.04629 7.14054 8.04091 7.1459 8.03433C7.15127 8.02776 7.15531 8.02011 7.15778 8.01186C7.16026 8.00361 7.16111 7.99492 7.16029 7.98632C7.15955 7.9776 7.15716 7.96912 7.15327 7.96137C7.14937 7.95361 7.14404 7.94674 7.13759 7.94116C7.13115 7.93557 7.12371 7.93137 7.1157 7.92881C7.10769 7.92625 7.09928 7.92537 7.09095 7.92623C5.41274 8.08578 2.77359 8.88356 2.74783 8.89184C2.73549 8.89516 2.72485 8.90333 2.71811 8.91464C2.66858 8.8732 2.61905 8.83175 2.57546 8.78824C3.79605 8.32872 5.06323 8.01792 6.35191 7.86199C6.36673 7.85804 6.37969 7.84862 6.3884 7.83547C6.39711 7.82231 6.40098 7.80631 6.39929 7.79041C6.3976 7.7745 6.39047 7.75978 6.37921 7.74894C6.36796 7.7381 6.35333 7.73189 6.33804 7.73144C5.02787 7.88985 3.73987 8.20766 2.50016 8.67841L2.48035 8.69085C2.43344 8.63942 2.38913 8.58547 2.3476 8.52922C2.55564 8.46705 4.01589 8.03191 4.8441 7.90758C4.85239 7.90657 4.86039 7.90382 4.86763 7.89948C4.87487 7.89513 4.88118 7.88929 4.88618 7.88231C4.89119 7.87533 4.89478 7.86735 4.89674 7.85887C4.89871 7.85039 4.899 7.84158 4.8976 7.83298C4.89514 7.81571 4.88628 7.80015 4.87292 7.78968C4.85957 7.7792 4.8428 7.77466 4.82627 7.77703C3.92871 7.91794 2.30203 8.41318 2.28618 8.41732L2.26834 8.42769C2.01513 8.04347 1.87953 7.58784 1.87953 7.1212C1.87953 6.65455 2.01513 6.19893 2.26834 5.81471C2.27493 5.80504 2.2784 5.79343 2.27825 5.78156L7.5209 1.59998C7.4225 1.83628 7.36031 2.08733 7.33664 2.34388C7.13202 4.02414 7.45612 5.7284 8.25995 7.1989C8.43365 7.55706 8.69475 7.86087 9.01682 8.07956C8.94549 8.04226 8.73349 8.09407 8.65622 8.09822L8.65027 8.10443Z" fill="#AD4699"/>
</svg>
