<svg width="3" height="2" viewBox="0 0 3 2" fill="none" xmlns="http://www.w3.org/2000/svg">
<path d="M2.24757 1.5991C2.40013 1.63848 2.51505 1.5991 2.35852 1.41468C2.2891 1.31904 2.21364 1.22835 2.13264 1.14323L1.98404 1.02719C1.88894 0.960885 1.75817 0.873855 1.62344 0.790969C1.49595 0.712656 1.36356 0.643428 1.22717 0.583755C1.15862 0.553271 1.08769 0.529007 1.01516 0.51123C1.01516 0.51123 1.00327 0.51123 1.00129 0.523663C0.964912 0.574767 0.938942 0.633128 0.92497 0.69514C0.910998 0.757153 0.909326 0.821501 0.92006 0.884215L0.965627 0.896649C1.00467 0.908919 1.04304 0.923446 1.08055 0.940164C1.19913 0.992261 1.3143 1.05248 1.4253 1.12044C1.54814 1.19711 1.67099 1.27999 1.76412 1.34216L1.91865 1.44991L2.08708 1.52451C2.13792 1.5552 2.19171 1.5802 2.24757 1.5991Z" fill="#F0E811"/>
</svg>
