<svg width="12" height="8" viewBox="0 0 12 8" fill="none" xmlns="http://www.w3.org/2000/svg">
<path d="M1.69679 7.13121C1.87139 7.18206 2.04963 7.2181 2.22978 7.23896C2.40612 7.26175 2.56661 7.2804 2.74691 7.28662C3.44517 7.32925 4.14546 7.2551 4.82138 7.06697C5.48991 6.88047 6.13502 6.612 6.74329 6.26713C7.34743 5.92666 7.92394 5.5351 8.46706 5.09636L8.86333 4.76482L9.2596 4.41878C9.51718 4.17841 9.76286 3.94633 10.0125 3.70596C10.2622 3.46559 10.5098 3.21486 10.7417 2.94341C10.986 2.67007 11.1957 2.36504 11.3658 2.03581C11.4083 1.94652 11.4454 1.85447 11.4767 1.76022L11.4985 1.68562L11.5104 1.64832V1.63796V1.60273C11.5104 1.55715 11.5282 1.50742 11.5342 1.45769C11.5373 1.40731 11.5373 1.35679 11.5342 1.30642C11.5342 1.25506 11.5302 1.20378 11.5223 1.15308L11.5064 1.07848C11.5064 1.05362 11.4886 1.02254 11.4767 0.989383C11.4655 0.948474 11.4488 0.909415 11.4272 0.873343C11.4021 0.826047 11.3715 0.782195 11.3361 0.742797C11.2952 0.698782 11.2484 0.661101 11.1974 0.6309C11.0987 0.57426 10.9888 0.542341 10.8764 0.537654C10.7082 0.536181 10.5408 0.563479 10.381 0.618468C10.321 0.634711 10.2627 0.656916 10.2067 0.684778C10.0298 0.744994 9.86756 0.844685 9.73116 0.97695C9.71729 1.00803 9.74503 1.02461 9.83023 1.02254C9.97593 1.0089 10.1208 0.986761 10.2641 0.956228C10.3913 0.935248 10.5198 0.923478 10.6485 0.921002C10.7516 0.915438 10.8545 0.936802 10.9477 0.983166C10.9883 1.01061 11.0179 1.05261 11.0309 1.10128C11.0309 1.14894 11.0448 1.18002 11.0448 1.18002C11.0564 1.2365 11.061 1.2943 11.0587 1.35201C11.0587 1.38102 11.0587 1.41417 11.0488 1.44318L11.0389 1.49084V1.51571C11.0364 1.52928 11.0324 1.54249 11.027 1.55508L11.0111 1.60895C10.8923 1.91271 10.7248 2.19303 10.5158 2.43781C10.3004 2.70327 10.0702 2.95513 9.82626 3.19207C9.7054 3.31225 9.58058 3.43244 9.45377 3.55262L9.25564 3.7329L9.06741 3.90903C8.94258 4.02921 8.8138 4.14318 8.68501 4.25508C8.55622 4.36697 8.42347 4.47887 8.28874 4.58869C7.7615 5.02352 7.20235 5.41429 6.61648 5.75738C6.03479 6.09802 5.41705 6.36645 4.77581 6.55722C4.14059 6.74309 3.48116 6.82213 2.8222 6.79138L2.57651 6.77687L2.32488 6.74994C2.16593 6.73261 2.00835 6.70353 1.85332 6.6629C1.72429 6.63477 1.60344 6.57513 1.50064 6.48884C1.46967 6.45834 1.44709 6.41969 1.43526 6.37695C1.43343 6.3535 1.43343 6.32994 1.43526 6.3065V6.27748C1.43618 6.26507 1.43618 6.2526 1.43526 6.24019C1.48347 6.10106 1.5538 5.97146 1.6433 5.85684C1.74153 5.72247 1.8467 5.59381 1.95833 5.47142C2.07325 5.34502 2.18817 5.22691 2.31696 5.09429L2.47348 4.92438C2.37982 5.08576 2.3166 5.26443 2.28724 5.4507L2.27733 5.5398V5.63305C2.27546 5.66479 2.27546 5.69663 2.27733 5.72837L2.30309 5.82369C2.33635 5.95402 2.40521 6.07138 2.50123 6.16145C2.67476 6.30738 2.88725 6.39352 3.1095 6.40803C3.47743 6.43269 3.84681 6.39916 4.20518 6.30857C4.5539 6.2319 4.88875 6.12829 5.22161 6.02054C5.55448 5.91279 5.88338 5.7636 6.21229 5.60611C6.54119 5.44863 6.84434 5.28493 7.14748 5.10258C7.45063 4.92023 7.74189 4.71302 8.02919 4.49545L8.29667 4.28823L8.47697 4.13075C8.47697 4.13075 8.7286 3.88624 8.95051 3.621C9.09574 3.45978 9.22826 3.28654 9.34678 3.10297C9.41711 3.0017 9.48004 2.89503 9.53501 2.78386C9.57077 2.72534 9.59189 2.65836 9.59643 2.58908C9.59643 2.55592 9.56077 2.56006 9.49142 2.6098C9.37531 2.70352 9.26418 2.80383 9.15855 2.91026C8.97032 3.08639 8.73454 3.28739 8.5483 3.44487L8.31252 3.6355C8.25506 3.68316 8.21741 3.70803 8.21741 3.70803L8.04305 3.8593C8.01461 3.88579 7.98485 3.91069 7.95389 3.93389L7.84095 4.02507C7.5706 4.2405 7.2888 4.43975 6.9969 4.62185C6.41142 4.98578 5.79203 5.28641 5.1483 5.51908C4.82534 5.62891 4.49248 5.7263 4.15763 5.80711C3.84175 5.89009 3.51619 5.92567 3.19073 5.91279C3.06253 5.91003 2.93763 5.86984 2.83012 5.79675C2.79389 5.7641 2.76669 5.72189 2.75136 5.67451C2.73603 5.62713 2.73312 5.57632 2.74294 5.52737C2.76698 5.38387 2.8189 5.24705 2.89551 5.12537C2.98046 4.98552 3.07871 4.85501 3.18875 4.73581C3.35499 4.55206 3.5435 4.39184 3.74947 4.25922C3.75825 4.24897 3.76498 4.237 3.76929 4.22399C3.79204 4.1743 3.80251 4.11942 3.79974 4.0644C3.79697 4.00937 3.78105 3.95595 3.75343 3.90903C3.72602 3.8795 3.69299 3.85631 3.65647 3.84096C3.61995 3.82561 3.58076 3.81845 3.54143 3.81993C3.53055 3.81581 3.51863 3.81581 3.50775 3.81993C3.43254 3.86695 3.35979 3.91813 3.2898 3.97326C3.28658 3.95933 3.28123 3.94603 3.27395 3.93389C3.25031 3.90188 3.2204 3.87553 3.18623 3.85659C3.15206 3.83765 3.11442 3.82656 3.07582 3.82407C3.06987 3.82139 3.06347 3.82001 3.05699 3.82001C3.05052 3.82001 3.04411 3.82139 3.03817 3.82407C2.77827 3.95567 2.54015 4.12985 2.33281 4.34003C2.20402 4.46436 2.0792 4.60319 1.96824 4.72338C1.85729 4.84356 1.72652 4.96996 1.60962 5.10051C1.49272 5.23105 1.37384 5.36989 1.26288 5.51494C1.14131 5.67505 1.04437 5.85402 0.975586 6.04541C0.934355 6.16988 0.925472 6.30358 0.94984 6.43282C0.974208 6.56207 1.03096 6.68223 1.11428 6.78102C1.27007 6.95675 1.47319 7.07886 1.69679 7.13121Z" fill="#E87624"/>
</svg>
