<svg width="4" height="5" viewBox="0 0 4 5" fill="none" xmlns="http://www.w3.org/2000/svg">
<path d="M2.59808 4.53974C2.64761 4.51902 2.69715 4.4983 2.7447 4.47343C2.79225 4.44857 2.83584 4.41748 2.87943 4.38433C2.96332 4.32462 3.04044 4.2551 3.10927 4.17712C3.23899 4.01965 3.33553 3.83537 3.3926 3.63628C3.44565 3.45167 3.46843 3.259 3.45996 3.06644C3.44968 2.72848 3.34725 2.40064 3.16474 2.12154C3.15531 2.10552 3.14472 2.09029 3.13305 2.07596L3.10927 2.0428L3.09738 2.02623L3.0736 1.99722C3.01235 1.93535 2.94605 1.87918 2.87546 1.82938C2.78432 1.77343 2.7229 1.75271 2.84178 1.86875L2.94085 1.98686L2.97651 2.03244L2.9884 2.0511L3.01218 2.07804L3.03793 2.11119V2.12362C3.06082 2.15264 3.08199 2.18309 3.10134 2.21479C3.14348 2.2807 3.18058 2.34999 3.21229 2.42201C3.28053 2.5764 3.3266 2.7405 3.34901 2.90897C3.37515 3.09199 3.3718 3.27829 3.3391 3.46015C3.30566 3.65434 3.23416 3.83918 3.12908 4.00305C3.01748 4.17559 2.86802 4.31769 2.69318 4.41748C2.50975 4.51623 2.3049 4.56337 2.09878 4.55425C1.88382 4.53645 1.67601 4.46542 1.49249 4.34703C1.30198 4.22579 1.13083 4.07405 0.985261 3.89737C0.835732 3.71792 0.707348 3.52035 0.602862 3.30889C0.495368 3.09695 0.414769 2.87126 0.363115 2.63752C0.306202 2.40617 0.293409 2.16535 0.325469 1.92884C0.35387 1.69556 0.441442 1.4745 0.579087 1.28855L0.634559 1.22432L0.69598 1.16836C0.715523 1.14819 0.737507 1.13077 0.761368 1.11656C0.785144 1.10206 0.804965 1.0834 0.830722 1.07097C0.926169 1.01622 1.02907 0.977086 1.13585 0.954927C1.35061 0.916971 1.5702 0.920492 1.78375 0.965298C2.19353 1.05487 2.58215 1.22885 2.92698 1.47711C3.08886 1.58866 3.23896 1.71785 3.37477 1.86253C3.43903 1.93057 3.49862 2.00329 3.55309 2.08011L3.59866 2.15056L3.62838 2.19821L3.64819 2.23552L3.668 2.27074C3.72546 2.29561 3.74131 2.25416 3.74329 2.2293C3.74528 2.20443 3.74329 2.2293 3.74329 2.2293L3.72348 2.192L3.70368 2.15056L3.67197 2.1029L3.64226 2.05731C3.6165 2.01794 3.58677 1.97856 3.55705 1.93919L3.46393 1.8273C3.32681 1.679 3.17617 1.54506 3.01416 1.42738C2.6663 1.1736 2.27573 0.990814 1.863 0.88863C1.64299 0.834654 1.41555 0.822013 1.19132 0.85132C0.956395 0.881493 0.736937 0.989727 0.565216 1.16008C0.403668 1.34401 0.294539 1.57154 0.250177 1.81694C0.224827 1.93809 0.212203 2.06177 0.212531 2.18578C0.214389 2.30888 0.226332 2.43158 0.248206 2.55255C0.343423 3.03249 0.547252 3.48157 0.84261 3.86215C0.983976 4.04947 1.15009 4.21482 1.33596 4.35324C1.52006 4.49072 1.73017 4.58541 1.95216 4.63092C2.17139 4.66039 2.39417 4.62894 2.59808 4.53974Z" fill="#4FC7EB"/>
</svg>
