<svg width="1" height="1" viewBox="0 0 1 1" fill="none" xmlns="http://www.w3.org/2000/svg">
<path d="M0.897365 0.301714C0.868606 0.256537 0.828977 0.220084 0.782455 0.196033C0.728478 0.170324 0.669271 0.158929 0.610079 0.162872C0.535768 0.167154 0.463372 0.189186 0.39846 0.227259C0.333549 0.265333 0.277843 0.318449 0.235601 0.382531C0.224027 0.399813 0.214696 0.418619 0.207859 0.43847C0.197731 0.458513 0.19103 0.480251 0.188051 0.502706C0.178039 0.546291 0.178039 0.59174 0.188051 0.635326C0.210953 0.714138 0.25579 0.784024 0.316843 0.836064C0.377896 0.888104 0.45239 0.919931 0.53082 0.927492C0.572707 0.929727 0.614572 0.922671 0.653663 0.906776C0.69513 0.890432 0.731941 0.863336 0.760651 0.828033C0.764799 0.820791 0.769435 0.813872 0.774522 0.807317C0.785362 0.872 0.814334 0.931851 0.857747 0.979296C0.881524 0.989656 0.871617 0.93993 0.857747 0.790736C0.852769 0.69618 0.852769 0.60141 0.857747 0.506854V0.415679C0.87546 0.396716 0.886009 0.371687 0.88746 0.345221C0.888585 0.339758 0.888585 0.334116 0.88746 0.328653L0.873589 0.309998L0.897365 0.301714ZM0.723005 0.399099C0.724175 0.510289 0.696814 0.619778 0.643758 0.716142C0.633406 0.729982 0.619731 0.740699 0.604129 0.747217C0.585186 0.751412 0.565617 0.751412 0.546674 0.747217C0.502805 0.743534 0.461176 0.725397 0.427786 0.695413C0.392625 0.665891 0.366458 0.626287 0.352494 0.581448C0.347033 0.562156 0.345981 0.541788 0.349422 0.521993C0.352864 0.502198 0.360709 0.48353 0.372315 0.467483C0.401001 0.426548 0.437805 0.392575 0.48021 0.367898C0.522615 0.34322 0.569617 0.328421 0.618 0.324505C0.649815 0.323041 0.681557 0.328696 0.711117 0.341085H0.724988L0.723005 0.399099Z" fill="#D62027"/>
</svg>
