<svg width="20" height="29" viewBox="0 0 20 29" fill="none" xmlns="http://www.w3.org/2000/svg">
<path d="M16.6128 4.71569C14.5443 11.5786 10.6271 18.4188 4.93472 25.0993C4.89708 25.06 4.85746 25.0185 4.81783 24.9812C4.5771 24.472 4.21299 24.0376 3.76177 23.7214C3.63537 23.4109 3.46358 23.1229 3.25256 22.8676C8.81817 17.5277 11.6594 13.197 11.7942 12.9898C11.8992 12.8281 14.0747 9.44017 16.6128 4.71569ZM17.4608 0.98584C17.2911 0.986236 17.1226 1.01492 16.9615 1.0708C16.5969 1.20166 16.2914 1.4688 16.1036 1.82091C13.1494 7.55867 10.3161 11.9557 10.3161 11.9557C10.3161 11.9557 6.84871 17.2894 0.0130615 23.3878C0.0606139 23.3878 0.108162 23.3878 0.157696 23.3878C0.445882 23.3816 0.729111 23.4668 0.970056 23.6323C1.7943 23.6986 2.22424 24.372 2.2599 25.0828C2.52441 25.1307 2.76915 25.2603 2.96264 25.4549C3.15613 25.6495 3.28954 25.9002 3.34569 26.1748C4.12634 26.6099 4.27494 27.7703 3.79743 28.4873C3.88611 28.6221 3.95304 28.7712 3.99557 28.9287C10.0902 22.331 16.2066 13.6487 18.8062 3.547C18.8444 3.4066 18.8894 3.26829 18.9409 3.13257C19.0163 2.88907 19.0355 2.63035 18.9969 2.3776C18.9583 2.12484 18.863 1.88525 18.7188 1.67843C18.5746 1.47162 18.3856 1.30348 18.1673 1.18777C17.949 1.07207 17.7075 1.0121 17.4628 1.01278L17.4608 0.98584Z" fill="black"/>
</svg>
