<svg width="6" height="7" viewBox="0 0 6 7" fill="none" xmlns="http://www.w3.org/2000/svg">
<path d="M5.16845 6.49811L4.65527 6.13133L4.45714 5.9925L4.38383 5.93655L4.23325 5.83915L4.06682 5.72726C3.85679 5.58014 3.65074 5.42473 3.4526 5.26103C3.05515 4.93543 2.69124 4.56737 2.36682 4.1628C2.04509 3.76115 1.77468 3.31745 1.56239 2.84285C1.45945 2.6048 1.37207 2.35972 1.30085 2.1093C1.23117 1.85857 1.17821 1.60308 1.14235 1.34468C1.13046 1.24314 1.11461 1.13747 1.10867 1.03801L1.09678 0.88467V0.731333C1.09236 0.721171 1.08705 0.711456 1.08092 0.70232C0.914491 0.509611 0.785705 0.627727 0.736171 0.718901C0.732962 0.727567 0.732962 0.737174 0.736171 0.74584V0.909535L0.750042 1.07323C0.750042 1.18305 0.773817 1.29081 0.785705 1.40063C0.86147 1.9451 1.00951 2.47585 1.22556 2.97753C1.33476 3.22669 1.45919 3.46826 1.59805 3.70072C1.73863 3.9317 1.89212 4.1538 2.05773 4.36586C2.22476 4.58012 2.40338 4.78422 2.59269 4.97715C2.77789 5.16773 2.97232 5.34824 3.17521 5.51797C3.37334 5.68789 3.58534 5.84952 3.80131 6.00079L3.88057 6.05674L3.93605 6.09404L4.01133 6.14377C4.06087 6.17899 4.11239 6.21214 4.1639 6.2453L4.30656 6.32404C4.39572 6.36963 4.5047 6.43179 4.62556 6.48774C4.76949 6.56584 4.91768 6.63503 5.06938 6.69495C5.19839 6.7593 5.33866 6.79527 5.4815 6.80063C5.52707 6.7654 5.4498 6.68667 5.16845 6.49811Z" fill="#6150A0"/>
</svg>
