<svg width="5" height="5" viewBox="0 0 5 5" fill="none" xmlns="http://www.w3.org/2000/svg">
<path d="M2.34373 4.7074L2.4428 4.7219H2.54385C2.60984 4.72588 2.67599 4.72588 2.74198 4.7219C2.87725 4.71057 3.01049 4.68061 3.13825 4.6328C3.26472 4.58181 3.3835 4.51202 3.49093 4.42559C3.5974 4.33776 3.69205 4.2353 3.77229 4.12098C3.85145 4.00922 3.91794 3.88823 3.97042 3.76043C4.02535 3.63403 4.06782 3.50212 4.09722 3.36673C4.12976 3.23084 4.15033 3.09211 4.15865 2.9523C4.16956 2.81439 4.16956 2.67578 4.15865 2.53787L4.14675 2.43633L4.13091 2.33272C4.13186 2.31616 4.13186 2.29955 4.13091 2.28299V2.25191V2.24154V2.19596C4.13091 2.16488 4.11506 2.1338 4.10714 2.10479L4.07741 2.02397L4.05562 1.97009C4.06725 1.97531 4.07982 1.97788 4.09248 1.97762C4.10514 1.97736 4.11759 1.9743 4.12902 1.96861C4.14046 1.96293 4.1506 1.95475 4.15879 1.94465C4.16697 1.93454 4.173 1.92274 4.17648 1.91001C4.17648 1.91001 4.17648 1.91001 4.17648 1.89757C4.15974 1.7903 4.13591 1.68436 4.10515 1.58053C4.02498 1.30995 3.87805 1.06624 3.67916 0.873936C3.62898 0.826359 3.57605 0.782066 3.52065 0.741316C3.46366 0.703557 3.40479 0.668973 3.34431 0.637709C3.28417 0.606686 3.22192 0.580366 3.15806 0.558967C3.09309 0.537493 3.02692 0.520193 2.95993 0.507163C2.82952 0.480153 2.69639 0.470416 2.56366 0.478163C2.42997 0.482644 2.29712 0.502088 2.16739 0.536176C1.90953 0.604101 1.66621 0.722197 1.45014 0.884294C1.23265 1.04433 1.04693 1.24701 0.903287 1.48107C0.884233 1.51026 0.867034 1.54071 0.851782 1.57225C0.833684 1.60166 0.817148 1.6321 0.802249 1.66342C0.776491 1.72559 0.742801 1.78567 0.721007 1.85405C0.671644 1.98735 0.638365 2.12657 0.621939 2.26848C0.590386 2.54736 0.616746 2.83008 0.699215 3.09734C0.779032 3.36112 0.901689 3.60856 1.0618 3.82881C1.22108 4.04896 1.41464 4.23949 1.63441 4.39243C1.84908 4.54453 2.09 4.65151 2.34373 4.7074ZM1.24409 3.79772C1.16478 3.69819 1.09322 3.59218 1.0301 3.48069C0.969152 3.36775 0.916819 3.24997 0.873574 3.12843C0.788317 2.88681 0.753192 2.62899 0.77054 2.37209C0.779361 2.24514 0.80332 2.11984 0.841866 1.99911C0.861218 1.93885 0.884392 1.88002 0.91122 1.82298C0.92509 1.79397 0.93698 1.76288 0.95085 1.73594L0.9984 1.65099C1.01257 1.62256 1.02915 1.59551 1.04793 1.57017L1.09945 1.48936L1.15691 1.41476L1.18465 1.37539L1.21634 1.34017L1.27975 1.26971L1.34712 1.20341L1.3808 1.17025L1.41646 1.13918L1.48977 1.07908C1.68797 0.923765 1.91253 0.809155 2.15155 0.741316C2.21027 0.724325 2.26978 0.71049 2.32986 0.699871C2.39128 0.699871 2.4527 0.681226 2.51412 0.679154C2.636 0.671572 2.75832 0.678518 2.8787 0.699871C2.99799 0.7204 3.114 0.758062 3.22345 0.811774C3.33315 0.864766 3.43466 0.934609 3.52462 1.01899C3.70389 1.19088 3.83592 1.40981 3.90702 1.65306C3.9243 1.70819 3.93885 1.76421 3.9506 1.82091C3.92008 1.76203 3.88496 1.70589 3.8456 1.65306L3.79805 1.59296L3.75247 1.54738C3.73567 1.52837 3.71454 1.51411 3.69105 1.50594C3.67916 1.50594 3.67718 1.5163 3.69105 1.54946C3.70491 1.58261 3.7287 1.6282 3.7604 1.70487C3.78219 1.74838 3.79804 1.80019 3.81785 1.84784C3.83767 1.8955 3.85154 1.94938 3.8654 1.9929L3.89513 2.10479L3.90503 2.15037L3.92683 2.23326V2.27678V2.2975V2.33272C3.92604 2.34859 3.92604 2.36451 3.92683 2.38039C3.96744 2.63697 3.96744 2.89878 3.92683 3.15536C3.89671 3.40853 3.82215 3.6537 3.7069 3.87854C3.6752 3.93242 3.63953 3.98422 3.60387 4.03602C3.56556 4.08544 3.52454 4.13249 3.48102 4.17693C3.39606 4.26593 3.29849 4.34072 3.19175 4.39865C3.08405 4.45462 2.96931 4.49439 2.85096 4.51676C2.73128 4.53334 2.61003 4.53334 2.49035 4.51676C2.24541 4.49085 2.00878 4.40953 1.79688 4.27846C1.58796 4.15033 1.4011 3.98643 1.24409 3.79359V3.79772Z" fill="#00B4D2"/>
</svg>
