<svg width="5" height="4" viewBox="0 0 5 4" fill="none" xmlns="http://www.w3.org/2000/svg">
<path d="M4.07258 2.31001C4.09634 2.18902 4.09634 2.06424 4.07258 1.94324C4.05057 1.82694 4.016 1.71363 3.96955 1.60548C3.88103 1.39037 3.74527 1.20012 3.57328 1.05015C3.40087 0.902927 3.20218 0.793044 2.98878 0.726896C2.56603 0.595606 2.11669 0.589876 1.691 0.710328C1.48096 0.769092 1.28058 0.860601 1.09659 0.981778C1.00287 1.0432 0.914068 1.1125 0.831089 1.18899C0.750553 1.26981 0.676963 1.35786 0.611162 1.45215C0.471766 1.64596 0.394765 1.88102 0.391235 2.12352C0.392016 2.24692 0.417247 2.36883 0.46533 2.48153C0.513414 2.59423 0.583302 2.69529 0.6706 2.77832C0.843122 2.93759 1.05682 3.03996 1.28483 3.07256C1.33995 3.08184 1.3955 3.08807 1.45125 3.09122H1.46909V3.10157C1.49683 3.20311 1.51862 3.30878 1.54438 3.42068C1.56829 3.52909 1.60281 3.63464 1.6474 3.73565L1.66127 3.74808C1.7227 3.77709 1.75638 3.76259 1.7762 3.74808L1.78808 3.7315C1.8311 3.69604 1.87089 3.6565 1.90696 3.61339C1.97432 3.53879 2.0516 3.44762 2.10509 3.38546L2.14869 3.34401L2.18634 3.315L2.21803 3.29013C2.2384 3.27444 2.25957 3.25992 2.28144 3.24663L2.31512 3.23005H2.33295L2.35673 3.21969H2.39041C2.4871 3.19342 2.58595 3.17677 2.68564 3.16996C2.79263 3.15545 2.89962 3.1368 3.00463 3.11401C3.22083 3.07201 3.42984 2.99659 3.6248 2.89021C3.72696 2.83345 3.81883 2.75841 3.89624 2.66849C3.98553 2.56831 4.04657 2.44424 4.07258 2.31001ZM3.83482 2.42605C3.78597 2.5076 3.72196 2.57807 3.64659 2.63327C3.48259 2.74549 3.30075 2.82619 3.10964 2.87157C3.01057 2.89644 2.9115 2.91715 2.81244 2.93373L2.66185 2.95652L2.50533 2.97724C2.44881 2.98391 2.39307 2.99642 2.3389 3.01455C2.32514 3.01752 2.31181 3.02239 2.29927 3.02904H2.27352H2.26163L2.21803 3.05184C2.18852 3.06781 2.16006 3.08581 2.13284 3.10572L2.11501 3.12229C2.09806 3.13618 2.08215 3.15142 2.06745 3.16788C2.02453 3.21391 1.98481 3.26307 1.94857 3.315C1.87526 3.42689 1.81582 3.53465 1.82176 3.52221L1.78412 3.59682C1.75467 3.51917 1.73018 3.43956 1.71081 3.35852C1.68703 3.25698 1.66524 3.15131 1.63552 3.04149V3.01661L1.62363 2.97931L1.59985 2.90057H1.46314C1.41559 2.90057 1.36606 2.90058 1.3185 2.88608C1.12922 2.85996 0.950749 2.77884 0.803359 2.65192C0.733554 2.58902 0.67666 2.51196 0.636134 2.42541C0.595609 2.33886 0.572293 2.24462 0.567578 2.14838C0.564269 1.94965 0.621892 1.75504 0.732021 1.59305C0.78573 1.50811 0.848187 1.42959 0.918269 1.3589C0.951951 1.3216 0.991576 1.29052 1.02724 1.25529C1.0629 1.22006 1.10452 1.19312 1.14613 1.16411C1.31181 1.04985 1.49276 0.96188 1.68308 0.903035C1.8765 0.844793 2.07626 0.812754 2.27748 0.807712C2.37671 0.804609 2.47602 0.808763 2.57468 0.820145C2.67294 0.831386 2.77028 0.850088 2.86594 0.876097C2.96182 0.901895 3.0553 0.936567 3.1453 0.979704C3.19087 1.00043 3.23249 1.02528 3.27608 1.05015L3.3375 1.08952C3.35917 1.10209 3.37972 1.11666 3.39892 1.13304C3.55686 1.25207 3.68749 1.40638 3.78132 1.58477C3.87555 1.75931 3.92535 1.95624 3.92595 2.15668C3.91865 2.25327 3.88723 2.34616 3.83482 2.42605Z" fill="#B7AE00"/>
</svg>
