<svg width="2" height="1" viewBox="0 0 2 1" fill="none" xmlns="http://www.w3.org/2000/svg">
<path d="M1.48926 0.143307C1.37236 0.195111 1.20791 0.27384 1.20791 0.27384L1.11082 0.329792C0.951602 0.42033 0.796854 0.519227 0.647182 0.626107C0.593686 0.66755 0.540192 0.708992 0.488677 0.754579C0.487916 0.757987 0.487916 0.761542 0.488677 0.76495C0.472826 0.847835 0.530282 0.85612 0.560003 0.851976C0.609536 0.808461 0.661055 0.769085 0.71257 0.729714C0.858737 0.624587 1.01019 0.527755 1.16629 0.439622L1.24754 0.391954L1.38623 0.298718C1.43104 0.271329 1.47405 0.240871 1.51501 0.207543C1.62795 0.120513 1.68739 0.052133 1.48926 0.143307Z" fill="black"/>
</svg>
