<svg width="5" height="3" viewBox="0 0 5 3" fill="none" xmlns="http://www.w3.org/2000/svg">
<path d="M3.85523 2.43783C3.59567 2.24512 3.21129 1.99439 3.21129 1.99439L2.96758 1.8597C2.2797 1.45667 1.55485 1.12693 0.803948 0.875438C0.722713 0.8485 0.639498 0.829849 0.558263 0.809128C0.477027 0.788406 0.391825 0.771829 0.306627 0.757324H0.280869C0.25371 0.767153 0.229669 0.784612 0.211369 0.807787C0.19307 0.830962 0.181226 0.858956 0.177134 0.888705C0.173041 0.918454 0.176853 0.948809 0.188163 0.976439C0.199472 1.00407 0.217832 1.02791 0.24124 1.04535C0.24124 1.04535 0.251152 1.05571 0.259077 1.05571C0.33635 1.07022 0.413619 1.08265 0.490891 1.10337C0.568164 1.12409 0.645445 1.14067 0.722718 1.16554C1.45607 1.41389 2.16367 1.73878 2.83483 2.1353L3.03296 2.24926L3.40943 2.42747C3.59567 2.5145 3.77994 2.59739 3.76607 2.58495C4.08506 2.70514 4.30499 2.74865 3.85523 2.43783Z" fill="#092544"/>
</svg>
