<svg width="2" height="3" viewBox="0 0 2 3" fill="none" xmlns="http://www.w3.org/2000/svg">
<path d="M1.06923 0.73887H1.05339C1.02936 0.737814 1.00567 0.745107 0.986019 0.759599C0.980111 0.764528 0.975406 0.770857 0.972305 0.778064C0.969204 0.785271 0.967791 0.793139 0.968181 0.801032C0.96213 0.824792 0.96213 0.849803 0.968181 0.873564C1.034 0.919823 1.08998 0.979778 1.13264 1.04969C1.17714 1.12705 1.20561 1.21333 1.21619 1.30293C1.22677 1.39253 1.21923 1.48344 1.19406 1.5698C1.18246 1.60894 1.16789 1.64705 1.15047 1.68377V1.70242L1.13065 1.74594C1.11051 1.79218 1.08665 1.83653 1.05933 1.87855C1.00187 1.97179 0.926576 2.05053 0.934502 2.04639C0.890527 2.09027 0.851923 2.1397 0.81958 2.19352C0.81958 2.20595 0.819581 2.20802 0.857226 2.19352C0.905406 2.17303 0.950723 2.14585 0.991956 2.1127C1.07197 2.05489 1.1434 1.98507 1.20396 1.90549C1.22807 1.87503 1.25056 1.84321 1.27133 1.81018L1.29511 1.7708C1.319 1.71867 1.33888 1.66462 1.35455 1.60917C1.38635 1.50013 1.3959 1.38531 1.38259 1.27216C1.36928 1.15901 1.3334 1.05004 1.27727 0.952306C1.26484 0.928126 1.25025 0.905227 1.23369 0.883922L1.18217 0.825909C1.14674 0.793875 1.10898 0.764768 1.06923 0.73887Z" fill="#D62027"/>
</svg>
