<svg width="13" height="15" viewBox="0 0 13 15" fill="none" xmlns="http://www.w3.org/2000/svg">
<path d="M2.37836 13.5787C2.38031 13.5919 2.38685 13.6038 2.39673 13.6122C2.40661 13.6207 2.41913 13.625 2.43186 13.6243C2.83112 13.9756 3.33875 14.1633 3.86041 14.1527C3.86916 14.1599 3.87998 14.1638 3.89112 14.1638C3.90227 14.1638 3.91309 14.1599 3.92183 14.1527C4.01966 14.1464 4.11696 14.1333 4.21309 14.1133C4.29754 14.0958 4.37992 14.0687 4.45878 14.0325C4.46618 14.038 4.47486 14.0414 4.48391 14.0423C4.49297 14.0431 4.50208 14.0415 4.51034 14.0375C4.51859 14.0335 4.52568 14.0273 4.5309 14.0195C4.53611 14.0117 4.53925 14.0026 4.54001 13.9931C5.06111 13.7196 5.45341 13.1145 5.80808 12.6711C6.54812 11.7948 7.22621 10.8633 7.83697 9.88406C7.84342 9.87 7.84536 9.85415 7.8425 9.83884C7.83965 9.82354 7.83215 9.80961 7.82113 9.79911C7.40108 9.46964 6.99689 9.10701 6.55901 8.80448C6.55449 8.80151 6.54943 8.79952 6.54416 8.79865C6.53888 8.79777 6.53349 8.79801 6.52831 8.79937C6.52313 8.80072 6.51826 8.80316 6.514 8.80653C6.50974 8.8099 6.50618 8.81414 6.50353 8.81899C6.48914 8.81985 6.47564 8.82654 6.46588 8.83764L6.26775 9.06143C6.25938 9.06014 6.25084 9.06104 6.24288 9.06402C6.23492 9.06701 6.22779 9.072 6.22211 9.07856C6.21643 9.08511 6.21238 9.09302 6.21032 9.1016C6.20826 9.11018 6.20825 9.11915 6.21029 9.12774C6.06565 9.29351 5.92101 9.45721 5.77836 9.62298C5.38209 8.53994 4.97789 7.45552 4.56577 6.36972C5.61589 6.59558 6.67591 6.76757 7.73593 6.92298C7.59362 7.09843 7.4613 7.28248 7.33966 7.47417C7.33595 7.47986 7.33337 7.48627 7.33206 7.49302C7.33075 7.49977 7.33074 7.50673 7.33204 7.51348C7.33333 7.52023 7.33589 7.52664 7.33958 7.53235C7.34327 7.53805 7.34801 7.54293 7.35352 7.54669C7.34708 7.55486 7.34356 7.56512 7.34356 7.5757C7.34356 7.58629 7.34708 7.59654 7.35352 7.60471L7.80131 7.93833C7.80225 7.94538 7.80457 7.95216 7.80813 7.95823C7.81168 7.9643 7.81639 7.96954 7.82197 7.97363C7.82754 7.97771 7.83387 7.98055 7.84054 7.98196C7.84721 7.98337 7.8541 7.98333 7.86076 7.98184L8.73452 8.62628C8.75 8.64173 8.77058 8.65035 8.79199 8.65035C8.81339 8.65035 8.83397 8.64173 8.84945 8.62628C9.56273 7.73319 10.2582 6.82559 10.9635 5.9325C11.5461 5.1886 12.3644 4.40325 12.6497 3.46664C12.826 2.88023 12.7507 2.15084 12.2158 1.7965C12.0093 1.6582 11.7675 1.58907 11.5225 1.59833C11.2775 1.60759 11.041 1.69479 10.8447 1.8483C10.7406 1.37199 10.4908 0.944156 10.1333 0.629675C9.77571 0.315194 9.32987 0.131219 8.86332 0.105639C8.43988 0.100148 8.02462 0.227775 7.67135 0.471988C7.31807 0.716201 7.04307 1.06574 6.88197 1.47532C6.59471 1.25522 6.2474 1.13753 5.89129 1.13963C5.88648 1.13318 5.88031 1.12795 5.87328 1.12436C5.86624 1.12076 5.85851 1.11889 5.85067 1.11889C5.84284 1.11889 5.83512 1.12076 5.82808 1.12436C5.82104 1.12795 5.81488 1.13318 5.81006 1.13963C5.36913 1.14438 4.93746 1.27245 4.55983 1.51055C4.15019 1.77947 3.82348 2.16633 3.61892 2.62469C3.41437 3.08305 3.34067 3.59342 3.40668 4.09451C2.21787 4.21055 1.1737 5.44762 0.957733 6.62459C0.854312 7.21608 0.910796 7.82601 1.12082 8.38575C1.33085 8.94549 1.68608 9.43283 2.14654 9.7929C1.25692 10.5886 1.2589 12.1282 2.00388 13.1767C2.00388 13.1767 2.00388 13.1891 2.00388 13.1953C2.00357 13.2019 2.00461 13.2084 2.00692 13.2145C2.00923 13.2205 2.01276 13.226 2.01727 13.2305C2.02177 13.235 2.02716 13.2385 2.03305 13.2407C2.03895 13.2428 2.04522 13.2436 2.05144 13.243C2.06927 13.2679 2.0871 13.2948 2.10692 13.3176C2.19055 13.4121 2.28133 13.4994 2.37836 13.5787ZM7.66658 9.88406C7.64884 9.93431 7.62038 9.97967 7.58336 10.0167C7.56751 9.92758 7.55166 9.84055 7.53779 9.75145C7.53491 9.7384 7.52793 9.72673 7.51798 9.7183C7.58931 9.77839 7.66262 9.84469 7.65865 9.88406H7.66658ZM7.36145 9.60226L7.51204 9.71415C7.48033 9.69343 7.42882 9.71415 7.43674 9.75767C7.45854 9.87785 7.47835 9.99597 7.50015 10.1161L7.36343 10.3089C7.30994 10.0291 7.25842 9.74731 7.20492 9.46757L7.36145 9.60226ZM7.08208 9.37432C7.14747 9.72451 7.21483 10.0747 7.28022 10.4249L7.06623 10.7254C6.90772 10.1369 6.74789 9.547 6.58674 8.95575C6.73733 9.10287 6.90575 9.24585 7.07416 9.37432H7.08208ZM6.32917 9.1899C6.38465 9.12567 6.44012 9.06143 6.49362 8.99512C6.66005 9.60709 6.82583 10.2184 6.99094 10.829C6.90772 10.9471 6.82253 11.0652 6.73733 11.1812C6.63941 10.5088 6.50043 9.84371 6.32124 9.1899H6.32917ZM6.2519 9.28314C6.42549 9.94415 6.55786 10.6163 6.64817 11.2952L6.47579 11.5293C6.35295 10.8352 6.22812 10.1431 6.10528 9.4572L6.2519 9.28314ZM7.4407 7.54255C7.54373 7.43272 7.63884 7.31461 7.728 7.1965C7.7498 7.40371 7.77159 7.59435 7.79537 7.79535C7.67451 7.70832 7.55761 7.62336 7.43873 7.54255H7.4407ZM6.985 1.55406C7.02217 1.47178 7.06454 1.39218 7.11181 1.31577C7.11181 1.43802 7.09991 1.56028 7.09595 1.68046C7.06041 1.63632 7.02271 1.59414 6.98301 1.55406H6.985ZM2.22976 12.296L2.33676 13.3218C2.24754 13.226 2.16603 13.1227 2.09305 13.013L1.99794 11.1149C1.99794 11.1012 1.99272 11.088 1.98343 11.0783C1.97415 11.0686 1.96154 11.0631 1.94841 11.0631C1.93527 11.0631 1.92267 11.0686 1.91338 11.0783C1.9041 11.088 1.89887 11.1012 1.89887 11.1149C1.92661 11.6889 1.95634 12.2608 1.98408 12.8348C1.78795 12.4941 1.66177 12.1144 1.61356 11.72C1.55992 11.377 1.59606 11.0252 1.71816 10.702C1.84025 10.3788 2.04374 10.0961 2.30704 9.88406C2.31424 9.88588 2.32174 9.88606 2.32901 9.88457C2.33628 9.88308 2.34317 9.87997 2.34919 9.87545C2.35521 9.87092 2.36022 9.86509 2.36389 9.85835C2.36755 9.85162 2.36979 9.84413 2.37043 9.83641C2.59713 9.66527 2.84961 9.53499 3.11741 9.45099C3.20261 9.42405 3.15703 9.29972 3.07579 9.3163C2.8759 9.35675 2.68246 9.42651 2.5012 9.52351L2.43582 8.58898C2.43582 8.57524 2.4306 8.56207 2.42131 8.55235C2.41202 8.54263 2.39943 8.53717 2.38629 8.53717C2.37315 8.53717 2.36055 8.54263 2.35126 8.55235C2.34197 8.56207 2.33676 8.57524 2.33676 8.58898C2.36053 8.91016 2.38233 9.22927 2.40412 9.55045C2.403 9.55592 2.403 9.56156 2.40412 9.56703C2.34659 9.60163 2.29102 9.63969 2.23769 9.681L2.19013 9.63541C2.1406 9.28315 2.09305 8.92881 2.0455 8.57654C2.03559 8.51024 1.93652 8.51645 1.94445 8.57654L2.07522 9.5173C1.93629 9.37703 1.80841 9.22527 1.69282 9.0635C1.65517 8.68844 1.6195 8.31339 1.58384 7.93833C1.58384 7.92459 1.57862 7.91141 1.56933 7.9017C1.56004 7.89198 1.54744 7.88652 1.53431 7.88652C1.52117 7.88652 1.50857 7.89198 1.49928 7.9017C1.48999 7.91141 1.48477 7.92459 1.48477 7.93833C1.51449 8.25329 1.5462 8.55997 1.57592 8.88115C1.35949 8.55392 1.20695 8.18524 1.12705 7.79623C1.04715 7.40722 1.04146 7.00554 1.1103 6.61423C1.17173 6.29557 1.28285 5.98965 1.4392 5.7087C1.4392 5.97601 1.4392 6.24539 1.4392 6.51477C1.4392 6.58108 1.53629 6.57486 1.53827 6.51477C1.53827 6.19151 1.53827 5.86619 1.54818 5.54293C1.63292 5.41264 1.72627 5.2887 1.82755 5.17202C1.79585 5.43725 1.76216 5.70249 1.72848 5.96772C1.72848 6.03403 1.81962 6.05475 1.82755 5.98844C1.86519 5.67348 1.90482 5.3668 1.94246 5.04562C2.0019 4.98553 2.06333 4.92958 2.12475 4.8757C2.08909 5.29013 2.0521 5.70456 2.01379 6.11899C2.01379 6.1853 2.10692 6.20602 2.11286 6.13764C2.15117 5.70249 2.19013 5.26596 2.22976 4.82804C2.23203 4.81852 2.23203 4.80856 2.22976 4.79904C2.3194 4.72904 2.41339 4.66535 2.51111 4.6084L2.4279 5.79988C2.4279 5.86619 2.52102 5.88691 2.52498 5.8206C2.55404 5.39788 2.5831 4.97378 2.61216 4.5483L2.86181 4.42398L2.8737 5.15544C2.8737 5.22383 2.97475 5.21761 2.97277 5.15544L2.96088 4.38875L3.18081 4.29965C3.20062 4.54416 3.21845 4.7866 3.23827 5.03112C3.23827 5.09742 3.34328 5.09121 3.33733 5.03112L3.2779 4.26857L3.44036 4.21055C3.4614 4.3126 3.48921 4.41299 3.52358 4.51101C3.54141 4.56074 3.62661 4.55038 3.6167 4.49236C3.50077 3.8843 3.56577 3.25369 3.80295 2.68545C3.80295 2.78906 3.80295 2.89267 3.80295 2.99213C3.80295 3.05844 3.90004 3.05222 3.90202 2.99213C3.90202 2.82429 3.90202 2.65644 3.90202 2.49067C3.98217 2.34872 4.07648 2.21605 4.18337 2.09489C4.16157 2.4658 4.1378 2.83671 4.116 3.20763C4.116 3.27394 4.21111 3.26772 4.21507 3.20763C4.24017 2.80149 4.26461 2.39535 4.28838 1.98921C4.35607 1.92069 4.42752 1.85634 4.50237 1.7965L4.53407 1.77371C4.53407 1.98092 4.5202 2.18814 4.51426 2.39535C4.51426 2.46373 4.61134 2.45544 4.61332 2.39535C4.61332 2.16742 4.6272 1.93948 4.63512 1.71155C4.69881 1.66801 4.76498 1.62856 4.83326 1.59343V2.02859C4.83326 2.09697 4.93232 2.08868 4.93232 2.02859V1.54577C5.00984 1.50884 5.0892 1.47633 5.17008 1.44838C5.15819 1.66803 5.14432 1.88768 5.13243 2.1094C5.13243 2.1757 5.22754 2.16949 5.2315 2.1094C5.24339 1.88146 5.25726 1.6556 5.27113 1.42973C5.33255 1.41316 5.39596 1.39658 5.45738 1.38622C5.45738 1.53749 5.44153 1.69082 5.43162 1.84416C5.43162 1.91047 5.52673 1.90425 5.53069 1.84416C5.54059 1.68875 5.54852 1.53127 5.55842 1.37379C5.64391 1.36311 5.72991 1.35757 5.816 1.35721C5.816 1.51262 5.82591 1.66803 5.83185 1.82344C5.83185 1.88975 5.9329 1.88353 5.93092 1.82344C5.93092 1.67217 5.92101 1.51884 5.91507 1.36757C6.01525 1.37331 6.11473 1.38857 6.21227 1.41316L6.27765 2.0348C6.27765 2.10111 6.38465 2.09489 6.37672 2.0348C6.35691 1.84002 6.33511 1.64524 6.3153 1.45046C6.4994 1.50905 6.67284 1.5994 6.82847 1.71776C6.82919 1.72587 6.83149 1.73373 6.83521 1.74088C6.83893 1.74803 6.84401 1.75432 6.85012 1.75936C6.85624 1.7644 6.86326 1.76808 6.87078 1.77019C6.8783 1.7723 6.88615 1.77279 6.89386 1.77164C6.98403 1.8458 7.06699 1.92909 7.14152 2.02029C7.14993 2.03376 7.16311 2.04318 7.17815 2.04648C7.1932 2.04978 7.20889 2.0467 7.22177 2.03791C7.23464 2.02911 7.24365 2.01533 7.24681 1.99959C7.24997 1.98385 7.24702 1.96745 7.23861 1.95398C7.22474 1.92497 7.21087 1.89804 7.19502 1.8711L7.21879 1.32198C7.21942 1.31584 7.21872 1.30962 7.21675 1.30379C7.21478 1.29796 7.21159 1.29268 7.20741 1.2883C7.20323 1.28393 7.19817 1.28059 7.1926 1.27853C7.18703 1.27647 7.18108 1.27574 7.1752 1.2764C7.28245 1.11454 7.40895 0.96762 7.55166 0.839172L7.49817 1.55199C7.49817 1.6183 7.59129 1.63902 7.59525 1.57271C7.61704 1.29919 7.63686 1.02359 7.65668 0.743855C7.75365 0.665375 7.85709 0.596033 7.96577 0.536641L7.91821 1.5292C7.91821 1.59758 8.0153 1.58929 8.01728 1.5292C8.03313 1.18522 8.05096 0.839176 8.06681 0.493128C8.13616 0.462046 8.20551 0.435103 8.27882 0.410237C8.259 0.631956 8.23721 0.85368 8.2174 1.0754C8.2174 1.14171 8.30854 1.16243 8.31448 1.09405L8.37987 0.381231C8.43733 0.366726 8.49478 0.35429 8.55224 0.346001C8.54234 0.515917 8.53441 0.683763 8.5245 0.853679C8.5245 0.919987 8.61961 0.913771 8.62357 0.853679C8.62357 0.681691 8.6414 0.511773 8.65131 0.339785C8.70873 0.336686 8.76627 0.336686 8.82369 0.339785C8.87516 0.336684 8.92676 0.336684 8.97823 0.339785L8.90096 1.28468C8.90096 1.35099 8.9921 1.37171 8.99805 1.3054L9.07532 0.354292C9.13199 0.362159 9.18821 0.373227 9.24373 0.387447C9.25187 0.787598 9.20788 1.18705 9.11296 1.57479C9.09711 1.64109 9.1942 1.65974 9.21005 1.5955C9.30365 1.20959 9.34828 0.812478 9.3428 0.414386C9.43621 0.443382 9.52704 0.480823 9.61424 0.526283L9.48347 1.6183C9.48347 1.68254 9.57264 1.70326 9.58056 1.63695C9.62217 1.28468 9.66576 0.930351 9.70737 0.578087C9.80942 0.638146 9.90622 0.707485 9.99665 0.785301C9.97684 1.10441 9.959 1.42352 9.93919 1.74263C9.93919 1.80894 10.0343 1.80272 10.0383 1.74263C10.0561 1.45253 10.0719 1.1645 10.0898 0.874401C10.16 0.93891 10.2262 1.00813 10.2879 1.08162C10.2879 1.08162 10.2879 1.08161 10.2879 1.09197C10.2364 1.51883 10.1869 1.94777 10.1373 2.37463C10.1373 2.44094 10.2265 2.46166 10.2344 2.39535C10.282 1.99543 10.3275 1.5955 10.3751 1.19558C10.4343 1.27961 10.4873 1.36828 10.5336 1.46081C10.528 1.46434 10.5234 1.46918 10.5199 1.47493C10.5165 1.48069 10.5144 1.48721 10.5138 1.49397C10.4702 1.82344 10.4286 2.15291 10.385 2.48238C10.385 2.54869 10.4742 2.56941 10.4841 2.5031C10.5217 2.20264 10.5613 1.90218 10.599 1.59965C10.6545 1.72599 10.6977 1.8579 10.7278 1.99336C10.7274 1.99957 10.7274 2.00579 10.7278 2.012C10.6941 2.0493 10.6624 2.0866 10.6307 2.12804C10.599 2.16949 10.6624 2.24616 10.704 2.19643C10.8309 2.04921 10.992 1.93861 11.1716 1.87524C11.1597 2.12804 11.1498 2.37878 11.1379 2.6295C11.1379 2.69789 11.235 2.6896 11.237 2.6295C11.2489 2.37049 11.2588 2.1094 11.2707 1.85038C11.3262 1.83804 11.3825 1.82973 11.4391 1.82551C11.4272 2.0493 11.4133 2.27309 11.3994 2.49688C11.3994 2.56527 11.4945 2.55698 11.4985 2.49688C11.5124 2.27517 11.5262 2.05345 11.5381 1.83173C11.8126 1.83806 12.0742 1.95493 12.2684 2.15798C12.4625 2.36103 12.5743 2.63459 12.5803 2.92168C12.575 3.10007 12.5423 3.2764 12.4832 3.44385C12.4218 3.0688 12.3584 2.69167 12.295 2.31661C12.2831 2.2503 12.1841 2.25652 12.1959 2.31661C12.2633 2.71653 12.3287 3.11646 12.3941 3.51638C12.3963 3.52813 12.4021 3.53878 12.4107 3.54666C12.4193 3.55454 12.4302 3.55919 12.4416 3.55989C12.3787 3.71885 12.3031 3.87203 12.2158 4.01784C12.1187 3.38376 12.0176 2.74969 11.9265 2.11561C11.9166 2.05138 11.8175 2.05552 11.8274 2.11561C11.9304 2.78906 12.0255 3.46458 12.1345 4.13802C12.0394 4.28307 11.9364 4.42605 11.8274 4.55245L11.6293 3.34439C11.6174 3.28015 11.5183 3.28637 11.5282 3.34439L11.7264 4.57524C11.7277 4.58563 11.732 4.59534 11.7387 4.60311C11.7454 4.61088 11.7543 4.61634 11.764 4.61876C11.661 4.74931 11.556 4.87363 11.4549 4.99796C11.4074 4.4965 11.3578 3.99712 11.3103 3.49773C11.3103 3.43142 11.2053 3.43764 11.2112 3.49773C11.2627 4.03234 11.3142 4.56488 11.3638 5.09949C11.3063 5.16995 11.2489 5.2404 11.1954 5.30671L11.1161 5.40617C11.0686 4.89643 11.023 4.38668 10.9754 3.87693C10.9754 3.81062 10.8704 3.81684 10.8764 3.87693C10.9259 4.4219 10.9774 4.96895 11.0269 5.51392L10.7912 5.81646L10.6663 4.18154C10.6663 4.11523 10.5613 4.12144 10.5673 4.18154L10.698 5.89313C10.6957 5.90124 10.6957 5.90988 10.698 5.91799L10.3414 6.37386L10.2522 4.98345C10.2522 4.96971 10.247 4.95654 10.2377 4.94683C10.2284 4.93711 10.2158 4.93165 10.2027 4.93165C10.1896 4.93165 10.177 4.93711 10.1677 4.94683C10.1584 4.95654 10.1532 4.96971 10.1532 4.98345L10.2483 6.48576L9.89164 6.94163C9.86258 6.28269 9.83219 5.62237 9.80049 4.96066C9.80049 4.89228 9.69944 4.90057 9.70142 4.96066C9.73312 5.65897 9.76681 6.35728 9.79851 7.05559L9.54093 7.38506L9.43989 5.55951C9.43989 5.54577 9.43467 5.5326 9.42538 5.52288C9.41609 5.51317 9.40349 5.5077 9.39036 5.5077C9.37722 5.5077 9.36462 5.51317 9.35533 5.52288C9.34604 5.5326 9.34082 5.54577 9.34082 5.55951L9.44781 7.49696L9.23581 7.77049C9.21797 7.19029 9.20213 6.61009 9.18429 6.02989C9.18429 5.96358 9.08325 5.9698 9.08523 6.02989L9.13872 7.89481L9.02182 8.04401C8.972 8.11667 8.91773 8.18589 8.85935 8.25122C8.81312 7.62958 8.76821 7.00794 8.72462 6.3863C8.72462 6.31999 8.61961 6.3262 8.62555 6.3863L8.76227 8.29474C8.70935 8.30148 8.65569 8.29212 8.60772 8.2678C8.55026 7.88031 8.49478 7.49075 8.43732 7.10326C8.42742 7.03902 8.32835 7.04316 8.33825 7.10326L8.49875 8.20564C8.40959 8.1559 8.32042 8.10203 8.23324 8.04401C8.2436 8.03942 8.25186 8.03081 8.25629 8.02C8.26072 8.00919 8.26099 7.997 8.25702 7.98599C8.11015 7.50911 8.04312 7.00929 8.05889 6.50855C8.05889 6.44017 7.9618 6.44846 7.95982 6.50855C7.94618 7.00917 8.01316 7.50862 8.15796 7.98599C8.06483 7.92175 7.97369 7.85751 7.88255 7.78913C7.85481 7.55084 7.82707 7.31047 7.80131 7.0701C7.80052 7.06015 7.79689 7.05068 7.79088 7.04292C7.78487 7.03515 7.77677 7.02947 7.76763 7.02659L7.91227 6.83387C7.92122 6.82331 7.92737 6.81048 7.93011 6.79665C7.93285 6.78283 7.93207 6.7685 7.92786 6.75508C7.92365 6.74167 7.91616 6.72964 7.90612 6.72019C7.89609 6.71075 7.88386 6.70422 7.87066 6.70126L7.63686 6.66603C7.63686 6.21223 7.62299 5.75636 7.61705 5.30256C7.61705 5.23626 7.516 5.24247 7.51798 5.30256L7.53581 6.64531L7.29409 6.61009C7.27427 6.17079 7.25644 5.72943 7.23861 5.29013C7.23861 5.27639 7.23339 5.26321 7.2241 5.2535C7.21481 5.24378 7.20221 5.23833 7.18908 5.23833C7.17594 5.23833 7.16334 5.24378 7.15405 5.2535C7.14476 5.26321 7.13954 5.27639 7.13954 5.29013L7.19304 6.58936L6.84036 6.53549C6.75516 5.83925 6.66996 5.14508 6.58278 4.44884C6.58278 4.38254 6.47579 4.38875 6.48372 4.44884L6.73931 6.52098L6.44607 6.47332C6.38069 5.96979 6.31728 5.46626 6.24793 4.96481C6.24793 4.8985 6.14094 4.90471 6.14887 4.96481L6.347 6.45053L6.0815 6.40495C6.00423 5.96565 5.92894 5.52843 5.85365 5.08913C5.84176 5.02283 5.74269 5.02904 5.75458 5.08913C5.82789 5.52014 5.90318 5.94908 5.97649 6.38008L5.68325 6.3262C5.61787 6.01331 5.55446 5.70456 5.48511 5.38545C5.47125 5.32121 5.37614 5.3523 5.39001 5.4186L5.57428 6.30755L5.34246 6.26611C5.30877 6.0734 5.27311 5.88276 5.23943 5.69005C5.22754 5.62582 5.12847 5.63203 5.14036 5.69005C5.17206 5.87447 5.20575 6.05682 5.23943 6.23917C4.96997 6.18737 4.7005 6.13142 4.43302 6.07133C4.41971 6.06896 4.40605 6.07018 4.39332 6.07489C4.3806 6.07959 4.36923 6.08762 4.3603 6.0982C4.35137 6.10879 4.34517 6.12158 4.3423 6.13537C4.33942 6.14917 4.33996 6.1635 4.34386 6.17701C4.77976 7.34155 5.22358 8.50402 5.66343 9.66857C5.66739 9.68046 5.67423 9.69106 5.68329 9.69934C5.69235 9.70763 5.70332 9.71331 5.71512 9.71582C5.72691 9.71833 5.73912 9.71758 5.75056 9.71365C5.762 9.70973 5.77226 9.70276 5.78034 9.69343L5.99828 9.43441C6.12311 10.1307 6.24595 10.8269 6.37078 11.5231L6.20831 11.7303L6.03593 10.427C6.03593 10.3627 5.92894 10.3669 5.93686 10.427C5.99828 10.8953 6.06169 11.3636 6.12311 11.834L5.93885 12.0743C5.85365 11.519 5.77043 10.9657 5.68523 10.4166C5.67533 10.3524 5.57626 10.3565 5.58617 10.4166C5.67533 11.0051 5.76647 11.5936 5.85563 12.1821C5.79619 12.2587 5.73278 12.3333 5.67136 12.41C5.5822 11.7594 5.49502 11.1108 5.40586 10.4601C5.39596 10.3959 5.29689 10.4 5.30679 10.4601L5.58022 12.4701C5.58189 12.481 5.58673 12.4912 5.59409 12.4991C5.49304 12.6214 5.39596 12.7436 5.28896 12.8638C5.15687 11.9728 5.02875 11.0825 4.90458 10.1928C4.89467 10.1265 4.79561 10.1327 4.80551 10.1928L5.20178 12.9571L5.05913 13.1166C4.98516 12.6483 4.91119 12.18 4.83722 11.7117C4.83722 11.6454 4.72824 11.6516 4.73815 11.7117C4.8174 12.2111 4.89666 12.7084 4.97393 13.2078L4.95411 13.2326C4.90458 13.2844 4.85703 13.3383 4.80947 13.3901L4.50038 11.7469C4.48651 11.6806 4.3934 11.7138 4.40528 11.778C4.51228 12.3437 4.61728 12.9094 4.72428 13.4751C4.65067 13.5498 4.56886 13.6152 4.48057 13.6699C4.36565 13.0814 4.25272 12.4929 4.1378 11.9044C4.12591 11.8381 4.03081 11.8713 4.04468 11.9355L4.38943 13.7175C4.3519 13.7342 4.31354 13.7487 4.27451 13.761L4.22894 13.7714L3.96344 12.3541C3.94957 12.2878 3.85645 12.3209 3.86833 12.3851C3.9674 12.9073 4.06581 13.4295 4.16356 13.9517C4.08298 13.9655 4.00175 13.9759 3.91985 13.9828L3.56321 12.2546C3.54934 12.1883 3.45423 12.2214 3.4681 12.2857L3.8188 13.9869C3.75281 13.9909 3.68666 13.9909 3.62067 13.9869C3.51367 13.4005 3.4047 12.8141 3.29771 12.2297C3.28582 12.1634 3.19072 12.1966 3.2026 12.2608L3.51764 13.9724C3.43079 13.9582 3.34479 13.9389 3.26006 13.9144C3.12797 13.0717 2.98795 12.2277 2.84001 11.3822C2.83011 11.3159 2.73104 11.3221 2.74095 11.3822C2.87304 12.2111 3.01108 13.0399 3.15505 13.8688C3.08967 13.8439 3.02627 13.817 2.95692 13.7859C2.88757 13.7548 2.87964 13.7445 2.842 13.7237L2.61018 11.6164C2.61018 11.5501 2.50319 11.5563 2.51111 11.6164C2.58641 12.294 2.65971 12.9716 2.735 13.6491C2.63928 13.5831 2.54794 13.5105 2.46158 13.4316L2.3427 12.2877C2.32685 12.2235 2.22778 12.2297 2.2357 12.296H2.22976Z" fill="#3853A3"/>
</svg>
