<svg width="2" height="5" viewBox="0 0 2 5" fill="none" xmlns="http://www.w3.org/2000/svg">
<path d="M1.8601 4.14124C1.86352 4.13262 1.86352 4.12293 1.8601 4.1143C1.76104 3.90709 1.66197 3.71231 1.57479 3.50924C1.42024 3.17148 1.2756 2.8275 1.13691 2.47316L1.01803 2.17271L0.7882 1.65881C0.675263 1.40394 0.564299 1.15321 0.568261 1.17808C0.370127 0.763648 0.191805 0.514991 0.370127 1.24231C0.415698 1.45989 0.483073 1.7189 0.540532 1.92197C0.597991 2.12504 0.645537 2.27632 0.645537 2.27632L0.784234 2.63065C0.924909 2.98291 1.07153 3.33103 1.22805 3.67708C1.32118 3.88429 1.42619 4.09151 1.51932 4.29872C1.52775 4.3077 1.53786 4.31476 1.54903 4.31944C1.78283 4.43548 1.8502 4.25521 1.8601 4.14124Z" fill="#27B361"/>
</svg>
