<svg width="2" height="1" viewBox="0 0 2 1" fill="none" xmlns="http://www.w3.org/2000/svg">
<path d="M0.798295 0.659466C0.817323 0.674359 0.839347 0.68452 0.862691 0.689187C0.886035 0.693855 0.910085 0.692901 0.933025 0.686399C0.963912 0.674786 0.991272 0.654756 1.01228 0.628379L1.03011 0.603514L1.042 0.574507C1.04729 0.553386 1.05126 0.53193 1.05389 0.510272C1.05896 0.483595 1.05896 0.456132 1.05389 0.429455C1.05389 0.394229 1.02615 0.369366 1.01228 0.367293C1.00718 0.365213 1.00153 0.365213 0.996429 0.367293C0.994093 0.357292 0.990776 0.347567 0.986525 0.33828C0.959475 0.336459 0.932339 0.336459 0.905289 0.33828H0.859716C0.835558 0.342881 0.812602 0.35277 0.792351 0.367293C0.770292 0.382075 0.752485 0.402841 0.740834 0.427381C0.729879 0.453408 0.725776 0.482029 0.728946 0.510272C0.73294 0.538307 0.740955 0.565548 0.752721 0.591082C0.763326 0.616868 0.778832 0.640136 0.798295 0.659466Z" fill="black"/>
</svg>
