<svg width="6" height="3" viewBox="0 0 6 3" fill="none" xmlns="http://www.w3.org/2000/svg">
<path d="M5.16795 2.61224C4.90443 2.42368 4.51411 2.18331 4.51411 2.18331L2.7309 1.24878C2.05526 0.900656 1.37566 0.554609 0.692093 0.212705L0.244307 0.00549126C0.23584 0.00337791 0.227015 0.00337791 0.218548 0.00549126C0.0204133 0.0593669 0.0640015 0.202344 0.10561 0.270725C0.108622 0.278203 0.114314 0.284149 0.121464 0.287299L0.567267 0.494513C1.23696 0.821912 1.90072 1.15967 2.56447 1.50158L4.34768 2.43404C4.34768 2.43404 5.11248 2.77594 5.08474 2.75315C5.39977 2.88576 5.6197 2.92306 5.16795 2.61224Z" fill="#092544"/>
</svg>
