<svg width="2" height="2" viewBox="0 0 2 2" fill="none" xmlns="http://www.w3.org/2000/svg">
<path d="M1.43383 1.32339C1.48534 1.17212 1.35457 0.985627 1.26938 0.873731C1.26814 0.871586 1.2664 0.86981 1.26432 0.868577C1.26223 0.867345 1.25988 0.866699 1.25748 0.866699C1.25509 0.866699 1.25274 0.867345 1.25066 0.868577C1.24857 0.86981 1.24683 0.871586 1.24559 0.873731C1.23861 0.956764 1.24939 1.04038 1.27715 1.11851C1.30491 1.19665 1.34895 1.26734 1.40608 1.32546C1.4079 1.3275 1.41013 1.3291 1.41261 1.33012C1.4151 1.33115 1.41777 1.33157 1.42043 1.33138C1.42309 1.33118 1.42568 1.33036 1.428 1.32897C1.43031 1.32759 1.43231 1.32568 1.43383 1.32339Z" fill="black" stroke="#5EBC6D" stroke-width="0.973512" stroke-miterlimit="10"/>
</svg>
