<svg width="11" height="7" viewBox="0 0 11 7" fill="none" xmlns="http://www.w3.org/2000/svg">
<path d="M1.89146 2.89092C2.2504 2.4102 2.66502 1.97796 3.12584 1.60412C3.58395 1.24158 4.09157 0.95309 4.63167 0.748328C5.71851 0.3063 6.88738 0.129135 8.04949 0.230292C8.63149 0.283116 9.20327 0.42267 9.74751 0.644721L9.90998 0.711029L9.99121 0.752471L10.1378 0.841573C10.1844 0.867728 10.2294 0.89679 10.2726 0.928603L10.4013 1.03014L10.4271 1.05086H10.441C10.6252 1.19798 10.5559 1.19798 10.4271 1.14411L10.3994 1.25807C10.4053 1.24771 10.3716 1.36997 10.3518 1.49844C10.332 1.62691 10.3142 1.7616 10.3142 1.7616L10.2844 1.91287C10.2473 2.13071 10.1848 2.34296 10.0982 2.54487C10.0523 2.65322 9.98475 2.75003 9.90006 2.82876C9.8979 2.82986 9.89554 2.83043 9.89313 2.83043C9.89073 2.83043 9.88836 2.82986 9.8862 2.82876C9.87186 2.83189 9.85704 2.83186 9.8427 2.82864C9.82837 2.82543 9.81484 2.81912 9.80298 2.81011C9.79483 2.80213 9.78871 2.79216 9.78515 2.7811L9.69996 2.75416C9.70788 2.76038 9.59296 2.71272 9.47408 2.66506L9.23632 2.57181L9.15509 2.53451L9.11546 2.51586L9.0461 2.48685L8.90345 2.42676C8.52405 2.26302 8.12333 2.15965 7.71464 2.12009C7.30319 2.09099 6.88993 2.10906 6.48224 2.17396C6.40695 2.18639 6.32968 2.20297 6.25439 2.21955H6.2326C6.05689 2.26021 5.88356 2.31141 5.71347 2.37289C5.72734 2.40397 5.72734 2.41847 5.71347 2.41847C5.69158 2.41601 5.67054 2.4082 5.65205 2.39568C5.53317 2.44126 5.41628 2.491 5.30136 2.54695C4.92744 2.73309 4.5712 2.9558 4.23738 3.2121C3.90356 3.46534 3.60253 3.76275 3.34181 4.09691C3.2158 4.26728 3.10127 4.44661 2.99904 4.63359C2.89403 4.82008 2.79693 5.01279 2.70777 5.20757C2.52253 5.59336 2.38917 6.00408 2.3115 6.42806L2.3016 6.50473V6.57933V6.656V6.67258C2.3333 6.70573 2.35708 6.75961 2.28773 6.82799H2.27386C2.16827 6.83418 2.06244 6.83418 1.95685 6.82799C1.73695 6.82023 1.51783 6.79669 1.30102 6.75753L1.12865 6.72438C0.972587 6.67946 0.819664 6.62338 0.670955 6.55654L0.643213 6.5441V6.56068C0.621418 6.5814 0.58774 6.59798 0.524337 6.56068C0.519218 6.55639 0.514565 6.55153 0.510466 6.54618C0.470852 6.43151 0.456622 6.30894 0.468853 6.1877C0.501904 5.88168 0.568383 5.58064 0.666988 5.29046C0.708597 5.1537 0.74228 5.00243 0.791814 4.85531C0.840946 4.71079 0.897153 4.569 0.960224 4.43052C1.08814 4.1561 1.2324 3.89034 1.39216 3.63482C1.55066 3.38202 1.70918 3.13129 1.89146 2.89092Z" fill="#5450A1"/>
</svg>
