<svg width="3" height="2" viewBox="0 0 3 2" fill="none" xmlns="http://www.w3.org/2000/svg">
<path d="M1.52748 1.8941C1.58979 1.89451 1.65138 1.88034 1.70778 1.85265C1.76417 1.82566 1.81372 1.7852 1.85243 1.73454C1.88967 1.68709 1.92096 1.63487 1.94555 1.57913C1.99732 1.46906 2.02249 1.34739 2.01886 1.22479C2.01508 1.16376 2.00512 1.10333 1.98914 1.04451C1.97355 0.986136 1.95161 0.929822 1.92375 0.876669C1.81257 0.669261 1.64686 0.499548 1.44625 0.387647C1.34727 0.329655 1.24132 0.285751 1.13122 0.257101C1.02055 0.228056 0.905857 0.21964 0.7924 0.232236C0.674168 0.242641 0.561013 0.28711 0.465485 0.360708C0.365847 0.43693 0.295568 0.547916 0.267351 0.673603C0.244904 0.795409 0.253793 0.921267 0.293109 1.0383C0.293109 1.06731 0.314899 1.09424 0.324805 1.12325C0.334712 1.15226 0.352548 1.17713 0.366418 1.202L0.38821 1.24137L0.404064 1.26416L0.34858 1.2911C0.322823 1.3056 0.293106 1.32012 0.265367 1.33877C0.251498 1.37814 0.265367 1.39885 0.277255 1.40921L0.304997 1.42164L0.38226 1.44443C0.439719 1.45894 0.507088 1.4693 0.558603 1.4838C0.587137 1.49077 0.615003 1.50049 0.641828 1.51282L0.685412 1.5294L0.709187 1.54183H0.721075L0.756738 1.56047C0.945017 1.67843 1.14415 1.77632 1.35114 1.85265C1.40775 1.87512 1.46713 1.88908 1.52748 1.8941ZM0.875626 1.51282L0.804288 1.47345L0.768625 1.4548L0.742867 1.44237L0.691362 1.42164L0.641828 1.40921C0.606043 1.40067 0.569534 1.39581 0.532844 1.3947H0.404064L0.443693 1.37399L0.46944 1.36156L0.507086 1.33877L0.540777 1.31804L0.55662 1.30768C0.540769 1.28488 0.528885 1.26416 0.511052 1.24137L0.479356 1.19371C0.471609 1.18345 0.464957 1.17233 0.459535 1.16055C0.43366 1.11681 0.412399 1.07026 0.396131 1.02172C0.363074 0.926248 0.3542 0.823454 0.370372 0.723333C0.387226 0.625482 0.437158 0.537227 0.511052 0.474673C0.587272 0.41118 0.67954 0.3723 0.776558 0.362782C0.875488 0.347273 0.976331 0.351491 1.07376 0.375214C1.1731 0.398446 1.26904 0.43537 1.35908 0.485031C1.44931 0.533726 1.5332 0.594323 1.60871 0.665319C1.68697 0.734278 1.7539 0.816171 1.80685 0.907756C1.85866 0.995519 1.8924 1.09362 1.90592 1.19579C1.91617 1.29832 1.90328 1.40194 1.86827 1.49831C1.83643 1.59316 1.77939 1.67656 1.70383 1.73869C1.66495 1.765 1.62144 1.78294 1.57586 1.79148C1.53027 1.80002 1.48352 1.79898 1.43832 1.78842C1.339 1.76615 1.24302 1.7299 1.15301 1.68066C1.06583 1.6185 0.974685 1.56462 0.87958 1.51282H0.875626Z" fill="#FDBB11"/>
</svg>
