<svg width="2" height="2" viewBox="0 0 2 2" fill="none" xmlns="http://www.w3.org/2000/svg">
<path d="M1.31522 1.10195C1.2923 1.06019 1.26023 1.0247 1.22165 0.998408C1.18308 0.972114 1.1391 0.955758 1.09331 0.950684C1.03277 0.953832 0.972849 0.964973 0.914982 0.983839C0.863467 1.00249 0.809973 1.02528 0.756477 1.04807C0.745031 1.05319 0.73487 1.06099 0.726764 1.07087C0.726764 1.07087 0.714865 1.07087 0.702977 1.08123L0.627696 1.17033C0.607126 1.19557 0.592224 1.22531 0.5841 1.25736C0.563288 1.29341 0.554898 1.33582 0.560325 1.37754C0.569406 1.41081 0.576025 1.44476 0.580134 1.47908C0.586417 1.51623 0.597072 1.55242 0.611842 1.58683C0.628593 1.62551 0.652886 1.66009 0.683168 1.68837C0.751645 1.72724 0.82501 1.75584 0.901111 1.77332C0.936567 1.77031 0.971709 1.76407 1.00613 1.75468C1.05232 1.75931 1.09859 1.74685 1.13689 1.71945C1.17433 1.69273 1.21415 1.66983 1.25578 1.65107C1.28795 1.62105 1.31716 1.58773 1.34296 1.55161C1.36786 1.51733 1.38297 1.47638 1.38654 1.4335C1.38355 1.41846 1.38355 1.40294 1.38654 1.38791C1.38654 1.3734 1.38654 1.3589 1.39843 1.34854C1.39408 1.25965 1.36518 1.174 1.31522 1.10195Z" fill="#B94E9C"/>
</svg>
