<svg width="4" height="3" viewBox="0 0 4 3" fill="none" xmlns="http://www.w3.org/2000/svg">
<path d="M2.7997 2.17708C2.90476 2.25161 3.02353 2.30242 3.14842 2.32627C3.19399 2.31591 3.13654 2.23717 2.91265 2.02788C2.78386 1.90148 2.62337 1.75436 2.49062 1.64039C2.42524 1.58237 2.36579 1.53472 2.32418 1.49949L2.25682 1.44561C2.31032 1.38552 2.36579 1.3275 2.42127 1.26948L2.48467 1.25912C2.48467 1.25912 2.78979 1.1493 2.77592 1.14515C2.89679 1.08299 2.97407 0.99596 2.75216 0.956589C2.7165 0.946318 2.68002 0.939382 2.64318 0.935866C2.64021 0.911165 2.6321 0.887446 2.6194 0.866388C2.60671 0.845331 2.58974 0.827451 2.5697 0.814009C2.54966 0.800567 2.52705 0.791892 2.50345 0.788601C2.47986 0.785309 2.45586 0.787482 2.43316 0.794962C2.41929 0.794962 2.41731 0.794962 2.41136 0.794962L2.26673 0.940008L2.03293 0.981454C2.00717 0.873702 1.98538 0.799107 1.98538 0.794962H1.96953C1.91677 0.785305 1.86259 0.78871 1.81132 0.804903C1.76006 0.821096 1.71313 0.849623 1.67431 0.888205C1.67431 0.888205 1.67431 0.888209 1.67431 0.898569C1.67431 0.90893 1.69411 0.960729 1.71591 1.04983L1.64062 1.06641C1.57721 1.03533 1.51579 1.00424 1.44248 0.977305C1.26129 0.896951 1.07076 0.841916 0.875819 0.813611C0.865473 0.815491 0.855462 0.818981 0.846106 0.823969C0.745058 0.888205 0.729199 0.956587 0.739106 1.01253C0.751706 1.06428 0.779412 1.11063 0.818364 1.14515C0.818364 1.15552 0.818358 1.15551 0.83619 1.15551C1.00156 1.18185 1.16324 1.22917 1.31766 1.29642L1.37909 1.32336C1.39232 1.37163 1.41453 1.41671 1.44447 1.45598L1.58118 1.42075L1.73176 1.50778L1.45041 1.88284C1.31172 2.06933 1.17302 2.24753 1.18888 2.2351C1.10424 2.33376 1.03714 2.44744 0.990741 2.57078C0.990741 2.61637 1.08188 2.57078 1.31172 2.36357C1.45041 2.24753 1.60892 2.09419 1.73375 1.97194L1.85064 1.85382C1.86451 1.95743 1.87244 2.02788 1.87244 2.02788C1.87244 2.02788 1.89423 2.11284 1.91801 2.1978C1.92962 2.25294 1.94553 2.307 1.96556 2.35943C2.01509 2.49826 2.09434 2.58736 2.14784 2.34699C2.175 2.23422 2.19224 2.11908 2.19936 2.00302C2.19936 2.00302 2.18946 1.90977 2.17163 1.77301L2.4193 1.92842C2.62139 2.0714 2.81159 2.19158 2.7997 2.17708Z" fill="#0060A0"/>
</svg>
