<svg width="2" height="3" viewBox="0 0 2 3" fill="none" xmlns="http://www.w3.org/2000/svg">
<path d="M0.555872 0.65395L0.609372 0.687111L0.656923 0.726482C0.688683 0.752447 0.717293 0.782367 0.742119 0.815583C0.82139 0.92474 0.877431 1.05036 0.906478 1.18403C0.935524 1.31769 0.936912 1.45629 0.910541 1.59056C0.910541 1.63408 0.892708 1.67552 0.884782 1.71696L0.868928 1.78534C0.868928 1.82679 0.843166 1.88067 0.827316 1.93247C0.811465 1.98427 0.785714 2.03608 0.771844 2.07337C0.757975 2.11067 0.742121 2.13138 0.744102 2.12724C0.71309 2.18271 0.688483 2.24184 0.670794 2.30338C0.670794 2.32617 0.718344 2.30338 0.817411 2.18527L0.862978 2.12724L0.904591 2.063C0.930934 2.02036 0.954752 1.97608 0.975917 1.9304C0.993304 1.89653 1.00789 1.86118 1.01951 1.82471L1.03537 1.78327C1.04924 1.72939 1.06112 1.67345 1.07103 1.61957C1.09877 1.46204 1.09877 1.30051 1.07103 1.14297C1.04179 0.981922 0.973572 0.831398 0.872895 0.705753C0.841967 0.665117 0.806733 0.628281 0.767878 0.595936L0.70844 0.546207L0.645035 0.506836H0.629181C0.518225 0.523413 0.542003 0.610441 0.555872 0.64774C0.555442 0.649788 0.555442 0.651902 0.555872 0.65395Z" fill="#D62027"/>
</svg>
