<svg width="2" height="2" viewBox="0 0 2 2" fill="none" xmlns="http://www.w3.org/2000/svg">
<path d="M1.15913 1.77026C1.18147 1.77354 1.20415 1.77354 1.2265 1.77026C1.29465 1.77993 1.36398 1.76688 1.42463 1.73296C1.42463 1.73296 1.42463 1.71431 1.39491 1.70809C1.36519 1.70188 1.31962 1.69566 1.25226 1.67701C1.21382 1.66644 1.17801 1.64737 1.14724 1.62107C1.12387 1.59878 1.1085 1.56879 1.10365 1.5361C1.0994 1.51074 1.0994 1.4848 1.10365 1.45943V1.42629C1.11433 1.38386 1.13103 1.34335 1.15319 1.3061C1.17434 1.27298 1.19892 1.2424 1.2265 1.21492C1.24915 1.19101 1.27703 1.17323 1.30773 1.16312C1.33348 1.16312 1.34339 1.16312 1.35726 1.16312H1.385C1.42859 1.16312 1.46425 1.16312 1.48209 1.13618C1.49128 1.12408 1.49722 1.10965 1.49931 1.09436C1.5014 1.07906 1.49956 1.06346 1.49397 1.04915C1.49475 1.04435 1.49475 1.03945 1.49397 1.03465C1.46688 1.00823 1.43325 0.990281 1.39689 0.982845C1.36301 0.974468 1.32773 0.974468 1.29386 0.982845C1.23748 1.00038 1.18589 1.03162 1.14328 1.07402C1.10491 1.11124 1.07158 1.15376 1.04422 1.20042C1.01751 1.24515 0.996217 1.29318 0.980812 1.3434C0.973403 1.37325 0.968757 1.40378 0.966941 1.43457C0.960946 1.50777 0.979131 1.58091 1.01846 1.64178C1.05059 1.6996 1.10002 1.74474 1.15913 1.77026Z" fill="#D62027"/>
</svg>
