<svg width="5" height="5" viewBox="0 0 5 5" fill="none" xmlns="http://www.w3.org/2000/svg">
<path d="M1.54457 4.5312C3.22872 5.19635 5.23186 3.31899 4.30459 1.4955C4.10659 1.07746 3.7883 0.734828 3.39447 0.515758C3.00063 0.296688 2.55107 0.212204 2.10895 0.274175C1.66683 0.336146 1.25438 0.541457 0.929608 0.861252C0.604833 1.18105 0.384051 1.59925 0.298295 2.05706C0.208408 2.47229 0.242998 2.9064 0.397362 3.30034C0.487134 3.58288 0.63702 3.84043 0.835728 4.05363C1.03444 4.26683 1.2768 4.43012 1.54457 4.5312ZM3.39911 1.79183C4.10051 2.8279 2.96916 4.00487 1.96263 3.74792C1.76711 3.70348 1.58609 3.60633 1.43757 3.46611C1.28111 3.29311 1.17405 3.07778 1.12848 2.84447C1.08225 2.48362 1.14604 2.11671 1.31077 1.79597C1.42927 1.62206 1.58572 1.48021 1.76715 1.38221C1.94857 1.28421 2.14973 1.23288 2.35392 1.23247C2.55811 1.23207 2.75946 1.2826 2.94124 1.37988C3.12301 1.47716 3.27998 1.61839 3.39911 1.79183Z" fill="#4B4D4D"/>
</svg>
