<svg width="8" height="5" viewBox="0 0 8 5" fill="none" xmlns="http://www.w3.org/2000/svg">
<path d="M5.59974 0.642212C4.62492 0.493018 3.5332 0.80798 2.68518 1.30529C2.3437 1.5057 2.04179 1.77222 1.79556 2.09064L1.75593 2.14244L1.73413 2.17352C1.70066 2.21796 1.66957 2.26431 1.64101 2.31236C1.60531 2.37113 1.5729 2.43202 1.54393 2.49471C1.54393 2.51336 1.52609 2.53201 1.51817 2.55273L1.50034 2.59417C1.3022 3.09977 1.3022 3.77529 1.78367 4.11512C2.26513 4.45495 2.82982 4.26224 3.31723 4.00115C3.96117 3.65925 4.53576 3.27383 5.28471 3.2531C5.83553 3.2386 6.55872 3.31942 6.93319 2.79102C7.06235 2.59426 7.13952 2.36532 7.15692 2.12736C7.17431 1.88939 7.13131 1.65084 7.03226 1.43584C6.79846 0.928165 6.08914 0.716809 5.59974 0.642212ZM5.79788 0.957175C5.69485 1.16439 5.56805 1.33845 5.29264 1.2825C5.1746 1.25372 5.06882 1.18531 4.99147 1.08772C4.94654 1.02646 4.91477 0.95578 4.89835 0.880507C5.1995 0.860398 5.50185 0.886224 5.7959 0.957175H5.79788ZM3.76501 1.59954C3.66583 1.61184 3.56547 1.59075 3.47853 1.53933C3.39159 1.4879 3.3226 1.40882 3.28157 1.31358C3.39649 1.25764 3.51338 1.20791 3.63028 1.16025C3.81455 1.09601 3.99882 1.0442 4.17912 1.00069C4.19913 1.13769 4.16666 1.27743 4.08876 1.38954C4.01085 1.50166 3.89381 1.57712 3.76304 1.59954H3.76501ZM2.72085 1.74873C2.74023 1.81582 2.74762 1.88606 2.74264 1.95595C2.74044 2.01422 2.72555 2.0712 2.69911 2.12255C2.67268 2.1739 2.63538 2.21826 2.59008 2.25226C2.54626 2.28141 2.49637 2.29908 2.44463 2.30377C2.39289 2.30846 2.34083 2.30003 2.29287 2.2792C2.22245 2.23855 2.15608 2.19065 2.09474 2.13622C2.27439 1.95242 2.47386 1.79109 2.68914 1.65549C2.70133 1.68288 2.71127 1.7113 2.71886 1.74044L2.72085 1.74873ZM3.40639 3.66339C3.43215 3.42095 3.40639 3.06661 3.63821 3.04175C3.80663 3.02932 3.90966 3.20337 4.03448 3.31112C3.81851 3.42509 3.61246 3.54528 3.40441 3.66339H3.40639ZM4.82504 3.04175C4.83693 2.8221 4.86863 2.48641 5.09252 2.48227C5.34811 2.48227 5.42539 2.78273 5.51851 2.99409C5.28561 2.9927 5.05301 3.01142 4.82306 3.05004L4.82504 3.04175ZM6.64391 2.72264C6.42398 2.95472 6.04951 2.98788 5.73646 2.99202C5.71309 2.821 5.64446 2.66022 5.53832 2.52786C5.48569 2.45192 5.41817 2.38861 5.34026 2.34215C5.26236 2.2957 5.17587 2.26717 5.08658 2.25848C4.69031 2.21496 4.59718 2.77237 4.61501 3.08734L4.51991 3.11427C4.42378 3.14352 4.32919 3.17811 4.23658 3.21788C4.16031 3.11388 4.06708 3.02479 3.96117 2.95472C3.90343 2.903 3.8355 2.86523 3.76222 2.8441C3.68893 2.82296 3.61208 2.81899 3.53716 2.83246C3.36478 2.86976 3.27364 3.0749 3.24194 3.23446C3.21512 3.40064 3.22254 3.5709 3.26373 3.73384C3.11516 3.81583 2.96236 3.88915 2.80604 3.95349C2.65881 4.03135 2.49399 4.06557 2.32948 4.05242C2.16497 4.03927 2.00704 3.97926 1.87283 3.8789C1.5677 3.62402 1.57166 3.18473 1.67469 2.82832C1.73796 2.61619 1.84252 2.42006 1.9818 2.25226C2.0392 2.34169 2.1186 2.41328 2.21164 2.45948C2.28223 2.49134 2.35876 2.5062 2.43558 2.50297C2.5124 2.49974 2.58755 2.47851 2.65546 2.44083C2.72524 2.40039 2.78536 2.34397 2.83134 2.27579C2.87732 2.20761 2.90796 2.12944 2.92096 2.04712C2.94659 1.8783 2.92167 1.70532 2.84963 1.55188C2.93879 1.498 3.02796 1.44827 3.11316 1.40061L3.14683 1.38196C3.19668 1.52178 3.2911 1.63935 3.41418 1.71485C3.53726 1.79034 3.68146 1.81914 3.82248 1.79639C3.99525 1.75418 4.14646 1.64543 4.24598 1.49181C4.34549 1.33819 4.386 1.15099 4.35942 0.967533C4.48821 0.940596 4.61898 0.919877 4.75569 0.905372C4.72597 1.17061 5.0628 1.4462 5.27282 1.48972C5.42552 1.51952 5.58333 1.48751 5.7143 1.40017C5.84527 1.31283 5.9396 1.17669 5.97818 1.01934C6.15627 1.0776 6.32718 1.15758 6.48739 1.25764C6.59802 1.33751 6.69092 1.44133 6.7598 1.56206C6.82867 1.68279 6.8719 1.81761 6.88656 1.95735C6.90122 2.0971 6.88696 2.23851 6.84475 2.37198C6.80254 2.50546 6.73337 2.62788 6.64194 2.73093L6.64391 2.72264Z" fill="black" stroke="#5EBC6D" stroke-width="0.973512" stroke-miterlimit="10"/>
</svg>
