<svg width="7" height="8" viewBox="0 0 7 8" fill="none" xmlns="http://www.w3.org/2000/svg">
<path d="M4.85666 7.07161C5.21726 6.31528 5.64919 5.46156 5.81563 4.62855C5.85129 4.44828 5.80176 4.18097 5.60561 4.12088L5.52437 4.10015C6.27926 3.02057 7.10945 1.64881 6.68544 1.40637C6.40607 1.24889 6.11085 1.63845 5.95036 1.8208C5.78987 2.00315 5.67495 2.1627 5.5422 2.33883C5.76213 1.62395 5.84139 1.04375 5.564 0.960862C5.28661 0.877977 5.05083 1.3152 4.93195 1.53485C4.8626 1.66747 4.79722 1.80008 4.73381 1.93477C4.90025 1.12249 4.93195 0.449045 4.63276 0.399314C4.33358 0.349582 4.16318 0.813741 4.07006 1.04582C3.97694 1.2779 3.88579 1.55142 3.80258 1.80837C3.84815 1.32556 3.95712 0.0366867 3.46773 0.150654C3.16458 0.216963 3.10118 0.637613 3.04372 0.900775C2.95258 1.3152 2.89314 1.72963 2.8337 2.14406C2.68906 1.27376 2.46517 0.579588 2.13429 0.662473C1.83907 0.734998 1.87275 1.27376 1.87473 1.49133C1.87473 1.77107 1.89256 2.05081 1.91039 2.32019C1.78359 1.99693 1.6548 1.67368 1.51412 1.36286C1.40713 1.13699 1.2189 0.681127 0.909815 0.757797C0.452123 0.869692 0.882071 2.35334 1.33184 3.58834C0.891977 3.6132 1.01284 4.29079 1.02671 4.62441L1.0386 4.95181C1.03596 5.58301 1.08034 6.21347 1.17135 6.83746C1.19238 6.96314 1.25523 7.07699 1.34877 7.1589C1.44232 7.2408 1.56054 7.28548 1.68254 7.28504C2.22345 7.28504 2.69105 7.18143 3.21808 7.40315C3.52916 7.53369 3.86599 7.89218 4.23452 7.79064C4.60305 7.68911 4.70013 7.39901 4.85666 7.07161ZM6.41003 1.75864C6.63789 1.55142 6.3704 2.1482 6.33474 2.21865C6.29908 2.28911 6.23766 2.40307 6.18416 2.49425C5.98603 2.82993 5.78789 3.15733 5.56994 3.48473L5.20141 4.06286C5.09838 4.06286 4.99337 4.06286 4.88637 4.06286C4.99931 3.80384 5.11423 3.52617 5.22321 3.24643C5.56669 2.70745 5.96458 2.20865 6.41003 1.75864ZM4.33953 3.51374C4.64465 2.803 4.93393 2.00522 5.36586 1.37115C5.54617 1.11213 5.40747 1.76071 5.38766 1.83738C5.36784 1.91405 5.3302 2.04459 5.29652 2.13991C5.17565 2.5129 5.03696 2.87967 4.90025 3.24437C4.79325 3.52825 4.68824 3.81213 4.57927 4.09601C4.44057 4.10845 4.30386 4.11881 4.183 4.11674H4.14535C4.19291 3.96961 4.24442 3.80798 4.29594 3.64014C4.30386 3.5987 4.31971 3.55518 4.33953 3.51374ZM4.55351 1.29033C4.53766 1.39601 4.51784 1.49755 4.49605 1.60115C4.41878 1.98657 4.32169 2.36785 4.22659 2.74912C4.11167 3.20085 4.00072 3.65464 3.87985 4.10637C3.77484 4.10637 3.67181 4.09394 3.56878 4.08565C3.62228 3.7624 3.6619 3.435 3.69361 3.1076V3.08481C3.9175 2.34091 4.10771 1.5162 4.47227 0.830316C4.6288 0.560938 4.56342 1.21366 4.55351 1.29033ZM3.00212 2.94804C3.10515 2.17721 3.16458 1.34214 3.41225 0.604454C3.54104 0.219036 3.55888 0.969151 3.55888 1.01888C3.55888 1.12387 3.55888 1.22955 3.55888 1.33592C3.54302 1.70683 3.51132 2.07567 3.47962 2.44452C3.43206 2.98327 3.38847 3.52824 3.33102 4.06907L3.04372 4.03385C3.02787 3.77483 3.0041 3.49302 2.97636 3.20499C2.98032 3.11382 2.99023 3.02886 3.01202 2.9439L3.00212 2.94804ZM2.40771 1.52448C2.43545 1.63845 2.45328 1.7545 2.47111 1.87054C2.5365 2.24766 2.58603 2.62686 2.63557 3.00606C2.67718 3.33139 2.72076 3.65879 2.76237 3.98826L2.39186 3.9261L2.30865 3.90538C2.29478 3.76862 2.2809 3.62978 2.26902 3.49095C2.20363 2.71183 2.08079 1.87675 2.16995 1.09762C2.21948 0.74536 2.41762 1.52656 2.41762 1.52034L2.40771 1.52448ZM1.11191 1.96378C1.08417 1.86017 1.05643 1.75657 1.03463 1.6571C1.01284 1.55764 0.90981 0.923563 1.07822 1.19294C1.47449 1.82702 1.71622 2.60407 1.97776 3.31067C1.99163 3.47644 2.00748 3.64428 2.02333 3.81006C1.89851 3.76032 1.7717 3.70645 1.64687 3.66708C1.58347 3.47437 1.52205 3.27959 1.45865 3.08688C1.33976 2.70975 1.22881 2.33677 1.11389 1.95964L1.11191 1.96378ZM3.04571 7.06332C2.73046 6.96898 2.40023 6.94219 2.07484 6.98458C1.92266 7.01383 1.76763 7.02357 1.61319 7.01359C1.3576 6.98044 1.37939 6.50798 1.36354 6.32149C1.34769 6.135 1.33382 5.8822 1.32193 5.66255L1.31004 5.20668C1.31004 4.9601 1.29815 4.71558 1.28825 4.47107C1.28825 4.3426 1.20503 3.87222 1.40713 3.91574C1.67263 3.97376 1.91633 4.12295 2.1858 4.18097C2.53872 4.25644 2.8952 4.31246 3.25375 4.34881C3.66317 4.393 4.07455 4.41444 4.48615 4.41305C4.75957 4.41305 5.61353 4.20584 5.52239 4.66793C5.40351 5.27921 5.07262 5.8967 4.8309 6.46447C4.70409 6.76286 4.5654 7.0571 4.41878 7.34513C4.17706 7.81343 3.36668 7.16485 3.04768 7.05917L3.04571 7.06332Z" fill="#2AAA00"/>
</svg>
