<svg width="3" height="2" viewBox="0 0 3 2" fill="none" xmlns="http://www.w3.org/2000/svg">
<path d="M2.27037 1.05347H2.48436C2.55027 1.05955 2.61657 1.05955 2.68249 1.05347C2.86081 1.03896 2.98564 0.972652 2.72212 0.846251C2.59964 0.780121 2.47246 0.724006 2.3417 0.678408C1.88412 0.593674 1.41902 0.561712 0.954761 0.583092H0.923053L0.897294 0.595524L0.859648 0.612101H0.84776H0.835873C0.807019 0.631891 0.782673 0.658063 0.764547 0.68877C0.758476 0.699389 0.753174 0.710473 0.748693 0.721925C0.739042 0.760648 0.739042 0.801311 0.748693 0.840035C0.758934 0.878484 0.779572 0.913025 0.808131 0.9395C0.815893 0.946878 0.824555 0.953148 0.83389 0.958149C0.849349 0.969866 0.866851 0.978312 0.885407 0.983013H0.917115H0.968632C0.970445 0.97765 0.970445 0.971799 0.968632 0.966436C0.972064 0.936024 0.980783 0.906528 0.994378 0.879406L1.01618 0.920848V0.935355H0.972586C1.40795 0.926814 1.84296 0.966403 2.27037 1.05347Z" fill="#F0E811"/>
</svg>
