<svg width="3" height="5" viewBox="0 0 3 5" fill="none" xmlns="http://www.w3.org/2000/svg">
<path d="M2.10676 1.4603L2.08299 1.30075C2.08299 1.30075 2.06911 1.23237 2.05326 1.16606C2.03741 1.09975 2.01562 1.03759 2.0176 1.0438C1.98194 0.938125 1.94825 0.875961 1.96608 1.0438C1.96608 1.09768 1.97797 1.15984 1.98194 1.20957V1.29661L1.99779 1.4085C2.01893 1.56642 2.03018 1.72563 2.03147 1.88509C2.03512 2.20383 1.99441 2.52143 1.91061 2.82791C1.82628 3.1335 1.69223 3.4216 1.51434 3.67957C1.33489 3.93575 1.11353 4.15672 0.8605 4.33229L0.729724 4.41725C0.70991 4.48149 0.749546 4.49599 0.775303 4.49599L0.90805 4.40689C1.1671 4.22912 1.39386 4.0046 1.57775 3.7438C1.76082 3.48279 1.89894 3.19038 1.9859 2.87972C2.07425 2.57038 2.11962 2.24937 2.12063 1.92653V1.68617L2.10676 1.4603Z" fill="#52BC88"/>
</svg>
