<svg width="1" height="1" viewBox="0 0 1 1" fill="none" xmlns="http://www.w3.org/2000/svg">
<path d="M0.586248 0.638137H0.556529H0.566433L0.580304 0.627766V0.611198C0.596599 0.574875 0.608575 0.536591 0.615967 0.497221C0.622864 0.463062 0.622864 0.427773 0.615967 0.393614C0.611605 0.372924 0.60319 0.353415 0.591255 0.336296C0.579319 0.319177 0.564121 0.304824 0.546619 0.294155C0.499731 0.268646 0.446143 0.259913 0.394057 0.26929L0.358394 0.290006C0.34908 0.302154 0.341105 0.315362 0.334619 0.329378C0.331895 0.343045 0.331895 0.357156 0.334619 0.370823C0.335575 0.381511 0.338723 0.391853 0.343852 0.401151C0.348981 0.410449 0.355969 0.418486 0.364338 0.424701C0.370793 0.426778 0.377698 0.426778 0.384153 0.424701C0.396041 0.424701 0.401984 0.420557 0.401984 0.412268H0.415849L0.435664 0.391552C0.456024 0.388603 0.476763 0.392215 0.495108 0.40191C0.506996 0.40191 0.510954 0.416418 0.514916 0.430923C0.518884 0.450041 0.518884 0.469819 0.514916 0.488937C0.510101 0.513843 0.502799 0.538147 0.493124 0.561456V0.578037C0.482919 0.604948 0.468893 0.630094 0.451518 0.652631L0.409905 0.710657L0.360371 0.772819L0.320748 0.826697V0.837055L0.310838 0.851561L0.29895 0.868142L0.467366 0.776967C0.490673 0.763362 0.515233 0.752247 0.540675 0.743806C0.572376 0.743806 0.584269 0.743806 0.582287 0.743806C0.653616 0.743806 0.701167 0.704442 0.70513 0.685793C0.709093 0.667143 0.675409 0.644354 0.586248 0.638137Z" fill="#BF2026"/>
</svg>
