<svg width="1" height="1" viewBox="0 0 1 1" fill="none" xmlns="http://www.w3.org/2000/svg">
<path d="M0.437372 0.536317C0.441618 0.491601 0.451619 0.447689 0.467097 0.405771C0.484155 0.353309 0.509615 0.304258 0.542389 0.260718C0.559103 0.235347 0.58157 0.214705 0.607777 0.200631V0.213063H0.617681C0.633714 0.221294 0.651338 0.225571 0.669198 0.225571C0.687058 0.225571 0.704671 0.221294 0.720703 0.213063C0.730765 0.203022 0.738497 0.190704 0.743305 0.177056C0.748113 0.163408 0.749872 0.148789 0.748445 0.134321C0.748445 0.134321 0.748445 0.123959 0.748445 0.119814C0.739506 0.104132 0.728124 0.0901221 0.714765 0.0783689C0.699453 0.063892 0.68207 0.0520101 0.663248 0.043146C0.623138 0.0266336 0.578533 0.0266336 0.538423 0.043146C0.48178 0.0667716 0.432907 0.107082 0.397743 0.159185C0.326764 0.259352 0.279885 0.375913 0.261041 0.49902V0.523884C0.259015 0.545244 0.259015 0.56676 0.261041 0.58812C0.263451 0.660679 0.290891 0.729871 0.338305 0.782902C0.387512 0.831324 0.453058 0.857394 0.520597 0.855422C0.56815 0.855422 0.595884 0.855422 0.58994 0.855422C0.65534 0.846226 0.716329 0.815787 0.764299 0.768395C0.764299 0.758035 0.764302 0.751815 0.73062 0.751815C0.696937 0.751815 0.65532 0.751815 0.585973 0.751815C0.546852 0.751993 0.508213 0.742776 0.473035 0.724876C0.46031 0.717424 0.449181 0.707333 0.440323 0.695218C0.431464 0.683102 0.425072 0.669225 0.42153 0.65443C0.416718 0.628424 0.416718 0.601694 0.42153 0.575688C0.425589 0.562061 0.430889 0.548876 0.437372 0.536317Z" fill="#D62027"/>
</svg>
