<svg width="1" height="2" viewBox="0 0 1 2" fill="none" xmlns="http://www.w3.org/2000/svg">
<path d="M0.21552 0.376965C0.190239 0.415293 0.170233 0.457152 0.156082 0.501301C0.14358 0.544473 0.135608 0.588944 0.132307 0.633921C0.118796 0.731492 0.137681 0.830956 0.185807 0.915729C0.220292 0.966392 0.27207 1.00125 0.330442 1.01311C0.37973 1.02023 0.429922 1.01526 0.47706 0.998607C0.500893 0.990929 0.524093 0.981236 0.546414 0.969607C0.567816 0.95522 0.587733 0.938543 0.605852 0.919865C0.631732 0.892628 0.653153 0.861136 0.669257 0.826628V0.841135C0.680604 0.865817 0.697623 0.887173 0.71879 0.903297C0.738784 0.92313 0.763972 0.936276 0.791144 0.941074C0.818317 0.945872 0.846234 0.942104 0.871346 0.930236C0.89452 0.920412 0.914003 0.902954 0.92683 0.880506C0.92683 0.880506 0.926831 0.866001 0.891167 0.880506C0.872863 0.886891 0.853177 0.887544 0.834522 0.882391C0.815867 0.877237 0.79905 0.866498 0.78615 0.851493C0.750106 0.774267 0.733729 0.688618 0.738599 0.602834V0.567611C0.745554 0.484885 0.745554 0.401677 0.738599 0.318951V0.292013H0.633594L0.61179 0.260925C0.583067 0.230351 0.545423 0.210673 0.504801 0.204986C0.48643 0.201854 0.467701 0.201854 0.44933 0.204986C0.432376 0.206884 0.415727 0.211062 0.399796 0.217419C0.325568 0.251962 0.26182 0.307144 0.21552 0.376965ZM0.47706 0.354174C0.504799 0.354174 0.510745 0.354174 0.516689 0.354174C0.532051 0.377436 0.540967 0.404688 0.542448 0.432917C0.553652 0.44528 0.567134 0.455151 0.582077 0.46193C0.582077 0.46193 0.582077 0.480582 0.582077 0.490943C0.577229 0.542139 0.567942 0.592765 0.554335 0.642205C0.540866 0.696229 0.515024 0.746014 0.479043 0.787257C0.46473 0.802559 0.447037 0.813939 0.427526 0.820406C0.405305 0.828844 0.381824 0.833054 0.358184 0.832838C0.35116 0.832905 0.344196 0.831478 0.337722 0.828627C0.331248 0.825776 0.3254 0.821559 0.320538 0.816258C0.306919 0.801981 0.297319 0.784058 0.292796 0.764454C0.281575 0.708423 0.281575 0.65058 0.292796 0.59455C0.30395 0.542698 0.326374 0.494225 0.358329 0.452899C0.390284 0.411574 0.430911 0.378503 0.47706 0.356248V0.354174Z" fill="#D62027"/>
</svg>
