<svg width="2" height="2" viewBox="0 0 2 2" fill="none" xmlns="http://www.w3.org/2000/svg">
<path d="M0.687127 0.908037C0.835728 0.876954 0.815909 0.613793 0.768357 0.493608C0.767066 0.49223 0.765529 0.491137 0.763828 0.49039C0.762127 0.489642 0.760298 0.489258 0.758453 0.489258C0.756608 0.489258 0.754778 0.489642 0.753077 0.49039C0.751376 0.491137 0.74984 0.49223 0.748549 0.493608C0.705867 0.555024 0.677379 0.625952 0.665329 0.700823C0.651455 0.733436 0.644287 0.768734 0.644287 0.80443C0.644287 0.840125 0.651455 0.875423 0.665329 0.908037C0.668699 0.909854 0.672434 0.9108 0.676225 0.9108C0.680017 0.9108 0.683758 0.909854 0.687127 0.908037Z" fill="black" stroke="#5EBC6D" stroke-width="0.973512" stroke-miterlimit="10"/>
</svg>
