<svg width="3" height="3" viewBox="0 0 3 3" fill="none" xmlns="http://www.w3.org/2000/svg">
<path d="M2.56305 1.68301C2.58481 1.54612 2.57336 1.40571 2.52974 1.27465C2.48612 1.14359 2.41173 1.02608 2.3134 0.932896C2.21567 0.840647 2.09711 0.775895 1.96887 0.744723C1.84063 0.71355 1.70692 0.716983 1.5803 0.754695C1.35297 0.818059 1.15309 0.960585 1.01364 1.15876H1.00175C0.908061 1.25641 0.834694 1.37328 0.786275 1.50201C0.737856 1.63075 0.715435 1.76857 0.720404 1.90681C0.724572 2.06119 0.772056 2.21089 0.85696 2.33727C0.941864 2.46365 1.06043 2.56111 1.1979 2.61755C1.80816 2.91594 2.47389 2.31294 2.56305 1.68301ZM0.876926 2.06222C0.846208 1.93926 0.846208 1.81011 0.876926 1.68716C0.887688 1.77619 0.916752 1.86172 0.962122 1.93789L0.876926 2.06222ZM0.989864 2.29429C0.971078 2.26896 0.9545 2.24191 0.94033 2.21348L1.04138 2.05185C1.06726 2.0789 1.09508 2.10384 1.12459 2.12645L0.989864 2.29429ZM1.17214 2.4497C1.14272 2.43206 1.11428 2.41269 1.08695 2.39169L1.22564 2.21969C1.23012 2.21347 1.23348 2.20646 1.23555 2.19898L1.32075 2.23835L1.17214 2.4497ZM1.54266 2.55953C1.45671 2.56211 1.37114 2.54661 1.29103 2.51394L1.45349 2.286C1.54045 2.30905 1.6294 2.32294 1.719 2.32745L1.54266 2.55953ZM1.74079 2.52845L1.8577 2.37304C1.86374 2.36568 1.86827 2.3571 1.871 2.34783C1.87373 2.33856 1.8746 2.3288 1.87355 2.31916C1.96681 2.30939 2.05787 2.28348 2.14301 2.24249C2.03625 2.37235 1.89899 2.4709 1.74476 2.52845H1.74079ZM1.07506 1.31624C1.35245 0.769198 2.10734 0.694603 2.38473 1.26651C2.85827 2.55953 0.557929 2.33988 1.07506 1.31624Z" fill="#EF5023"/>
</svg>
