<svg width="6" height="5" viewBox="0 0 6 5" fill="none" xmlns="http://www.w3.org/2000/svg">
<path d="M5.01669 2.44061C5.04368 2.43467 5.07181 2.43909 5.09594 2.45304C5.10628 2.46111 5.11336 2.47294 5.11576 2.4862C5.1213 2.51212 5.1213 2.53901 5.11576 2.56494V2.58151C5.04436 2.65619 4.97483 2.72496 4.90353 2.7955L4.89781 2.80116L4.77695 2.91513L4.71552 2.97522L4.70166 2.98973L4.67193 3.01874L4.43616 3.25289C4.27963 3.41037 4.11914 3.56371 3.95865 3.71498L3.83382 3.83309C3.83382 3.83309 3.61786 4.00922 3.4534 4.11905C3.33056 4.21229 3.26914 4.22679 3.26914 4.21229C3.2414 4.2558 3.21168 4.21229 3.19385 4.14805C3.18554 4.11682 3.17957 4.08495 3.17602 4.05274L3.16413 3.9512V3.84552C3.16809 3.78336 3.16809 3.6984 3.17998 3.61551C3.19186 3.53263 3.19187 3.44974 3.19187 3.38758V3.32334H3.15224C3.17404 3.32749 2.66879 3.35857 2.66879 3.35857H2.57567C2.55387 3.36893 2.55388 3.35857 2.55388 3.35857H0.986629C0.985075 3.35931 0.983381 3.3597 0.981671 3.3597C0.979961 3.3597 0.978273 3.35931 0.976719 3.35857C0.961176 3.34828 0.947716 3.3349 0.937095 3.3192C0.909164 3.25405 0.894969 3.18338 0.895483 3.11198V2.8654V2.60224V2.45304L0.933129 1.85627V1.54959C0.931587 1.54561 0.931587 1.54114 0.933129 1.53715C0.941175 1.52697 0.949776 1.51729 0.958887 1.50815C0.964015 1.50625 0.969614 1.50625 0.974742 1.50815H0.986629H0.998517C0.784531 1.46256 0.907373 1.43148 1.08966 1.41905C1.06984 1.4149 1.57509 1.40247 1.57509 1.40247H1.71775L1.72277 1.40267C2.13125 1.41918 2.54169 1.43577 2.95212 1.47085L3.25131 1.49779C3.23942 1.45635 3.23942 1.42111 3.23942 1.42111V0.77254C3.28408 0.750634 3.33495 0.746936 3.38208 0.762175H3.4118H3.43161C3.4762 0.791967 3.51858 0.825217 3.55841 0.86164L3.67334 0.961099C3.97648 1.22426 4.26774 1.50193 4.56098 1.77131L4.68382 1.88735C4.68382 1.88735 4.87799 2.09042 5.00876 2.23961C5.23662 2.48413 5.11179 2.43232 4.93941 2.31628L4.8344 2.23961L4.80072 2.28934C4.6093 2.55953 4.39295 2.80939 4.1548 3.03531L3.80212 3.37515L3.62975 3.54713L3.56634 3.61137C3.56634 3.61137 3.47322 3.69633 3.40387 3.75435C3.38838 3.76945 3.37182 3.7833 3.35434 3.79579V3.86003V3.96364C3.34149 4.02523 3.32562 4.0861 3.30679 4.14598C3.33827 4.1033 3.37201 4.06248 3.40784 4.02372C3.39992 4.02787 3.48501 3.93887 3.57214 3.84775L3.57229 3.8476L3.74863 3.66317L3.85364 3.56371C4.01479 3.41313 4.1733 3.2598 4.32916 3.1037L4.56296 2.86955L4.59268 2.84053L4.60655 2.82603L4.61645 2.81567L4.67391 2.76179L4.7928 2.64782L5.00678 2.44061H5.01669Z" fill="#111121"/>
</svg>
