<svg width="4" height="3" viewBox="0 0 4 3" fill="none" xmlns="http://www.w3.org/2000/svg">
<path d="M3.28266 1.21742C3.40844 1.23957 3.53721 1.23463 3.6611 1.20291C3.69676 1.1739 3.61354 1.12624 3.32823 1.033C3.1618 0.972906 2.95573 0.906597 2.7893 0.86101C2.70806 0.836144 2.63475 0.817497 2.59116 0.805064L2.50795 0.784341C2.53371 0.707672 2.56145 0.631003 2.58919 0.554334L2.64268 0.517037C2.64268 0.517037 2.87846 0.284957 2.86261 0.287029C2.9478 0.179278 2.97753 0.0798152 2.76751 0.125402C2.73076 0.132412 2.69439 0.141401 2.65853 0.152338C2.64604 0.131355 2.62931 0.113478 2.60952 0.0999527C2.58973 0.086427 2.56737 0.0775802 2.54398 0.0740288C2.52058 0.0704774 2.49672 0.0723045 2.47408 0.0793881C2.45143 0.0864717 2.43054 0.0986403 2.41285 0.115041C2.40096 0.115041 2.39898 0.11504 2.39699 0.133689C2.36926 0.197926 2.34548 0.262164 2.31972 0.3264L2.12158 0.465233C2.05422 0.378203 2.00667 0.320182 2.00469 0.31811H1.97695C1.92613 0.332167 1.87903 0.358127 1.83921 0.394026C1.79939 0.429924 1.7679 0.474822 1.74712 0.525324C1.74712 0.525324 1.74712 0.535684 1.74712 0.537756C1.74712 0.539828 1.78872 0.585416 1.8442 0.657941L1.7808 0.705599C1.71343 0.705599 1.64409 0.705599 1.58266 0.705599C1.38668 0.712689 1.19232 0.745407 1.00411 0.80299C0.994901 0.808975 0.986826 0.816705 0.980326 0.825784C0.91296 0.927319 0.924849 0.9957 0.95655 1.04336C0.987668 1.08522 1.03068 1.11569 1.07939 1.13039C1.0864 1.13327 1.09419 1.13327 1.1012 1.13039C1.26243 1.08191 1.42884 1.05476 1.59653 1.04958H1.66191C1.6929 1.08805 1.73141 1.11914 1.77485 1.14075L1.8858 1.05165L2.05818 1.06615C2.05818 1.09309 1.99874 1.31274 1.94921 1.52824C1.89967 1.74374 1.84023 1.97997 1.85014 1.96339C1.8132 2.08875 1.79712 2.21982 1.80259 2.35088C1.82042 2.39439 1.88977 2.32187 2.01856 2.03592C2.0998 1.86807 2.18301 1.66086 2.24839 1.49716L2.30783 1.33968C2.36133 1.42671 2.39501 1.4868 2.39501 1.4868L2.50597 1.62356C2.53828 1.66867 2.57407 1.71094 2.61297 1.74996C2.71203 1.85357 2.8111 1.90122 2.77346 1.66086C2.75398 1.54648 2.7248 1.43414 2.68628 1.32517L2.56937 1.11796L2.85469 1.15318C3.08056 1.1967 3.30248 1.22571 3.28266 1.21742Z" fill="#7DCDF9"/>
</svg>
