<svg width="13" height="17" viewBox="0 0 13 17" fill="none" xmlns="http://www.w3.org/2000/svg">
<path d="M12.1191 8.45982C11.6614 6.27371 10.7599 4.12489 9.28576 2.47754C8.88023 2.01431 8.41314 1.61444 7.89882 1.2902C7.88014 1.26789 7.85804 1.24898 7.83343 1.23426C7.55835 1.07587 7.26815 0.948085 6.96759 0.852982C6.4066 0.666422 5.81231 0.616104 5.22994 0.705858C4.70525 0.789165 4.20613 0.998388 3.77167 1.31714C3.34139 1.6211 2.96633 2.00282 2.6641 2.44438C2.34698 2.88423 2.07409 3.35711 1.84976 3.85552C1.13045 5.43206 0.716973 7.14204 0.633214 8.88668C0.590668 9.49901 0.582729 10.1134 0.609439 10.7267V10.8966C0.660954 12.1399 0.86305 13.491 1.55454 14.5457C2.13904 15.4305 3.16538 15.8656 4.13029 16.0894C6.19882 16.5681 8.50313 16.22 10.2923 15.0244C11.2153 14.4352 11.9254 13.5425 12.3113 12.486C12.7492 11.2365 12.3806 9.70932 12.1191 8.45982ZM11.7228 12.6808C11.2235 13.8412 10.1377 14.6306 9.07178 15.1404C7.15978 16.0501 4.27493 16.1412 2.50955 14.8399C1.87948 14.3758 1.54067 13.6298 1.34848 12.8341C1.35134 12.8093 1.35134 12.7843 1.34848 12.7595C0.952209 10.8262 1.06911 8.74369 1.44359 6.8166C1.73484 5.3143 2.25594 3.62343 3.27832 2.44853L3.29615 2.42781C3.35162 2.36564 3.41106 2.30555 3.46852 2.24546C4.05935 1.62295 4.84372 1.2422 5.67971 1.17209H5.75896C6.74964 1.17209 7.74031 1.67355 8.53285 2.41537C10.1377 3.92597 11.061 6.10171 11.5762 8.25467C11.9051 9.63472 12.3093 11.3256 11.7248 12.6808H11.7228Z" fill="black" stroke="#5EBC6D" stroke-width="0.973512" stroke-miterlimit="10"/>
</svg>
