<svg width="2" height="2" viewBox="0 0 2 2" fill="none" xmlns="http://www.w3.org/2000/svg">
<path d="M0.65989 0.402659C0.658289 0.410863 0.658289 0.419323 0.65989 0.427527C0.688821 0.448613 0.714256 0.474511 0.735182 0.504195C0.758958 0.535277 0.786696 0.576721 0.808491 0.611947C0.851301 0.678577 0.883421 0.752069 0.903592 0.829522C0.915778 0.867011 0.923117 0.906038 0.925396 0.945562C0.925396 0.945562 0.925396 0.972499 0.925396 1.0098C0.927171 1.05722 0.9225 1.10466 0.911525 1.1507C0.89562 1.2152 0.870218 1.27672 0.836233 1.33305C0.800695 1.38333 0.768269 1.43593 0.739149 1.49053C0.739149 1.50297 0.739149 1.50504 0.776795 1.49053C0.824691 1.46787 0.867787 1.43547 0.903592 1.39522C0.977031 1.32098 1.03095 1.2282 1.06013 1.12584C1.07124 1.08603 1.07789 1.045 1.07993 1.00358C1.07993 0.972499 1.07993 0.953849 1.07993 0.953849C1.07695 0.894766 1.06697 0.8363 1.05021 0.77979C1.02572 0.686519 0.987641 0.597754 0.937284 0.516627C0.886994 0.424246 0.819643 0.343245 0.739149 0.278332C0.739149 0.278332 0.721308 0.278332 0.717345 0.278332C0.69883 0.278063 0.68052 0.28232 0.663857 0.290765C0.65886 0.29396 0.654527 0.298175 0.651123 0.303159C0.647718 0.308143 0.645306 0.313795 0.644036 0.319775C0.640976 0.326947 0.639404 0.334714 0.639404 0.342568C0.639404 0.350423 0.640976 0.358189 0.644036 0.365362C0.650021 0.377456 0.655317 0.389909 0.65989 0.402659Z" fill="black"/>
</svg>
