<svg width="2" height="2" viewBox="0 0 2 2" fill="none" xmlns="http://www.w3.org/2000/svg">
<path d="M1.40687 1.03774H1.36527C1.34676 1.00975 1.3232 0.985815 1.29592 0.967281C1.26135 0.94158 1.21936 0.929141 1.17703 0.932058C1.13188 0.936292 1.09001 0.958552 1.06014 0.99422C1.0347 1.02372 1.01396 1.0573 0.998715 1.09368C0.985151 1.13157 0.977136 1.17139 0.974939 1.21179C0.973618 1.25875 0.987587 1.30478 1.01456 1.34234C1.03016 1.36043 1.04907 1.37507 1.07017 1.38539C1.09127 1.39571 1.11413 1.4015 1.13741 1.40243C1.1791 1.40228 1.22006 1.39087 1.25629 1.36928C1.28386 1.35385 1.30813 1.3327 1.32762 1.30712C1.35536 1.43352 1.38904 1.51433 1.38706 1.30712C1.38706 1.26774 1.38706 1.22422 1.38706 1.18278C1.39542 1.1489 1.40007 1.11415 1.40093 1.07917V1.04395L1.40687 1.03774ZM1.29195 1.14548C1.28576 1.17029 1.27485 1.19353 1.25987 1.21383C1.24489 1.23412 1.22615 1.25105 1.20477 1.2636C1.16316 1.28846 1.11363 1.28639 1.09778 1.2636C1.08193 1.2408 1.08193 1.17864 1.09778 1.13305C1.11363 1.08746 1.15524 1.03774 1.18694 1.03774C1.20739 1.04113 1.22688 1.0492 1.24401 1.06138C1.26113 1.07356 1.27547 1.08954 1.28601 1.10818H1.29789L1.29195 1.14548Z" fill="#BF2026"/>
</svg>
