<svg width="4" height="2" viewBox="0 0 4 2" fill="none" xmlns="http://www.w3.org/2000/svg">
<path d="M1.78559 0.71985C1.48311 0.78855 1.21361 0.966913 1.02476 1.22339C1.02415 1.22516 1.02392 1.22705 1.02411 1.22892C1.02431 1.23079 1.0249 1.23259 1.02586 1.23419C1.02681 1.23578 1.0281 1.23713 1.02962 1.23813C1.03115 1.23913 1.03287 1.23976 1.03466 1.23996C1.28592 1.19475 1.53265 1.12539 1.77172 1.03275C2.0438 0.947273 2.32031 0.878089 2.59992 0.825531C2.60364 0.823381 2.60674 0.820226 2.6089 0.8164C2.61105 0.812574 2.61219 0.808213 2.61219 0.803772C2.61219 0.79933 2.61105 0.79497 2.6089 0.791143C2.60674 0.787317 2.60364 0.784169 2.59992 0.782018C2.47591 0.712612 2.33935 0.671211 2.19907 0.660503C2.05879 0.649794 1.91793 0.670012 1.78559 0.71985Z" fill="black" stroke="#5EBC6D" stroke-width="0.973512" stroke-miterlimit="10"/>
</svg>
