<svg width="6" height="7" viewBox="0 0 6 7" fill="none" xmlns="http://www.w3.org/2000/svg">
<path d="M5.11074 4.18406C4.86109 3.72197 4.60947 3.25988 4.34991 2.80401C4.53021 2.56157 4.70853 2.31706 4.88487 2.07462C5.46738 1.27477 5.26132 1.17324 4.53813 1.35559C4.23895 1.43018 3.94373 1.50893 3.64257 1.58974C3.49793 1.35144 3.35329 1.11522 3.20667 0.878996C2.5132 -0.225455 2.27543 -0.0804073 2.04956 1.03855C1.97823 1.38943 1.91219 1.741 1.85142 2.09327L1.03709 2.32949C0.125673 2.59473 0.141524 2.99672 0.838958 3.34277C1.07276 3.45881 1.30854 3.56656 1.54432 3.67224C1.42544 4.12811 1.32637 4.58813 1.23523 5.05022C0.955858 6.46756 1.43336 6.50071 2.08919 5.70916C2.45376 5.26986 2.81107 4.82297 3.1611 4.36848C3.56728 4.54461 3.96949 4.72903 4.36378 4.92795C5.34851 5.43148 5.80818 5.48122 5.11074 4.18406Z" fill="#F8E500"/>
</svg>
