<svg width="2" height="2" viewBox="0 0 2 2" fill="none" xmlns="http://www.w3.org/2000/svg">
<path d="M1.22741 1.88676C1.26611 1.83361 1.2987 1.77588 1.3245 1.71477L1.35223 1.64432V1.61531C1.36074 1.57911 1.36736 1.54244 1.37205 1.50548C1.40611 1.234 1.34179 0.959027 1.19174 0.73465C1.17415 0.706651 1.15426 0.680304 1.1323 0.655908C1.11249 0.631042 1.08871 0.608243 1.06692 0.585449H1.05701C0.983703 0.585449 0.983704 0.637254 0.989648 0.664192C0.995592 0.691129 0.989648 0.664192 0.989648 0.664192C1.01139 0.682793 1.0313 0.703627 1.04909 0.726366C1.06796 0.748431 1.08519 0.771978 1.1006 0.796812C1.23521 0.99755 1.29316 1.24368 1.26307 1.48684C1.25989 1.51486 1.2546 1.54257 1.24722 1.56972V1.61738C1.24722 1.64432 1.23335 1.68162 1.22146 1.71684C1.20165 1.7873 1.16797 1.85361 1.17391 1.84739C1.15349 1.88484 1.13879 1.92539 1.13032 1.96758C1.13627 1.98623 1.164 1.97172 1.22741 1.88676Z" fill="black"/>
</svg>
