<svg width="8" height="8" viewBox="0 0 8 8" fill="none" xmlns="http://www.w3.org/2000/svg">
<path d="M2.47392 6.62504C2.47392 6.66441 2.50363 6.66027 2.5175 6.65613L2.89991 6.08422L3.22089 6.31837L3.02276 6.61054V6.62504L3.03266 6.61261L3.2308 6.32044L3.90049 6.81154L3.70236 7.10371V7.11821L3.71226 7.10578L3.9104 6.81361L4.58009 7.30471L4.38196 7.59688V7.61138V7.59895L4.58009 7.30678L4.89117 7.53472L4.58009 7.30471L5.02986 6.6354L5.06553 6.6582C5.0708 6.6579 5.07591 6.65623 5.08041 6.65333C5.08491 6.65044 5.08865 6.64641 5.09128 6.64162L5.35479 6.83433L5.09128 6.64162C5.09337 6.63747 5.09445 6.63285 5.09445 6.62815C5.09445 6.62346 5.09337 6.61884 5.09128 6.61468L5.05958 6.59604L5.51925 5.91015L5.83032 6.14017L5.51727 5.91223L5.74711 5.57033L6.02251 5.77754L6.1513 5.85835C6.20678 5.8915 6.2464 5.90394 6.17111 5.83348C6.12752 5.78997 6.06015 5.73402 6.06015 5.73402L5.77881 5.52681L6.01459 5.18077L6.32566 5.41077L6.01459 5.18284L6.48218 4.48453L6.79325 4.71246L6.48218 4.48246L6.95176 3.78414L7.26283 4.01207L6.95176 3.78414L7.17962 3.44431L6.95176 3.78414L6.28206 3.27439L6.50992 2.93456L6.27613 3.27439L5.60643 2.7833L5.83429 2.44346L5.60643 2.7833L5.28545 2.54914L5.64209 2.01868C5.64209 2.01868 5.72333 1.87984 5.71937 1.88398C5.74074 1.89844 5.76328 1.91092 5.78673 1.92128C5.8105 1.92128 5.81446 1.89849 5.8105 1.88606C5.8105 1.88606 5.8105 1.87362 5.8105 1.82182V1.77416C5.8105 1.77416 5.8105 1.75965 5.8105 1.74308V1.67884H5.78277L5.75701 1.6892L5.70351 1.70785L5.66983 1.72444H5.652L5.62427 1.741C5.6104 1.75136 5.5985 1.7638 5.58265 1.77416C5.5668 1.78453 5.58265 1.77416 5.58265 1.78452H5.59454L5.61832 1.8011L5.66785 1.8384C5.62624 1.88399 5.57473 1.95237 5.57473 1.95237L5.21413 2.48906L4.8872 2.24868L5.11703 1.90885L4.88918 2.24868L4.23137 1.77209L4.45923 1.43226L4.23137 1.76794L3.56168 1.27685L3.78954 0.937012L3.56168 1.27685L3.26646 1.06963H3.25259L3.26447 1.07999L3.55969 1.2872L3.32391 1.6374L3.29618 1.6229C3.27735 1.61772 3.25755 1.61772 3.23872 1.6229C3.22755 1.62559 3.21704 1.63064 3.20783 1.63778C3.19862 1.64491 3.19093 1.65395 3.18522 1.66434C3.17954 1.68393 3.17954 1.70484 3.18522 1.72444C3.18319 1.73469 3.18319 1.74526 3.18522 1.75551C3.18952 1.76556 3.19557 1.7747 3.20305 1.78245L3.22089 1.79903L3.09408 1.98966L2.79688 1.78245H2.78499H2.7949L3.0921 1.98966L2.62252 2.69005L2.3273 2.48283H2.31541V2.49319L2.61262 2.70041L2.38872 3.03403L2.08954 2.81438V2.80401L2.10935 2.77086V2.75428H2.08359H2.03208H1.91518H1.89339H1.85177V2.76464V2.78537C1.85847 2.80557 1.8671 2.825 1.87753 2.84338C1.89527 2.87311 1.91585 2.90089 1.93895 2.92628H1.96074C1.96074 2.94285 1.96075 2.93871 2.00831 2.89105L2.03208 2.86204L2.33324 3.08376L2.10341 3.42566L1.80819 3.21844H1.79432H1.80621L2.10142 3.42566L1.65562 4.10325L1.3604 3.89604H1.34653H1.35842L1.65364 4.11361L1.18406 4.81192L0.888841 4.59435H0.876953H0.886857L1.18406 4.81192L0.985925 5.10617V5.1186L0.995829 5.10823L1.19396 4.81399L1.86366 5.30509L1.66553 5.59933V5.61177V5.59933L1.86366 5.30716L2.53336 5.79826L2.33522 6.0925V6.10493V6.0925L2.53336 5.80033L2.86028 6.03864L2.47392 6.62504ZM5.69163 1.78867L5.70946 1.77831L5.74116 1.76587L5.78277 1.7493C5.78209 1.75688 5.78209 1.76451 5.78277 1.77209V1.79696C5.78217 1.80454 5.78217 1.81216 5.78277 1.81975C5.78147 1.83422 5.78147 1.84879 5.78277 1.86327C5.76043 1.85323 5.73917 1.84073 5.71937 1.82597L5.69163 1.78867ZM3.23278 1.72857C3.23335 1.72445 3.23335 1.72026 3.23278 1.71614C3.23136 1.70653 3.23136 1.69675 3.23278 1.68714C3.23278 1.68714 3.25457 1.67056 3.27636 1.68714H3.29023L3.2506 1.74723L3.23278 1.72857ZM3.28825 1.68092C3.30233 1.68908 3.31451 1.70039 3.32391 1.71406C3.32495 1.72023 3.32495 1.72655 3.32391 1.73272C3.32665 1.75334 3.32665 1.77426 3.32391 1.79488C3.28973 1.77825 3.25721 1.75813 3.22683 1.73479L3.28825 1.68092ZM3.09012 1.98138L3.21891 1.78867C3.25943 1.82181 3.30409 1.84899 3.35165 1.86948V1.88398L3.42893 1.91714C3.44874 1.91714 3.45469 1.89849 3.45271 1.88813C3.45418 1.88453 3.45493 1.88065 3.45493 1.87673C3.45493 1.87282 3.45418 1.86894 3.45271 1.86534L3.3794 1.83425C3.39294 1.79514 3.41161 1.75818 3.43487 1.72444L3.44676 1.71406H3.46063H3.47053C3.47053 1.71406 3.48242 1.72857 3.48638 1.74515C3.48868 1.76719 3.48868 1.78942 3.48638 1.81146C3.48638 1.84047 3.46855 1.86534 3.47251 1.87362C3.47648 1.88191 3.48837 1.87363 3.51413 1.82389C3.53127 1.79027 3.53752 1.75173 3.53195 1.71406C3.52746 1.69671 3.51857 1.68097 3.50621 1.66848L3.48638 1.65605H3.46658C3.45353 1.65294 3.43999 1.65294 3.42695 1.65605H3.41109L3.3893 1.67471L3.36949 1.70163L3.35958 1.68714C3.34793 1.66668 3.33159 1.64957 3.31203 1.6374L3.54781 1.28514L4.2175 1.77831L3.77765 2.43518L3.72812 2.39166C3.61565 2.29765 3.49859 2.20981 3.37741 2.12849L3.32391 2.0912L3.30609 2.07876L3.17333 2.0021C3.11587 1.97309 3.07625 1.96065 3.1555 2.02903C3.20107 2.07048 3.26844 2.12228 3.26844 2.12228L3.28825 2.13679L3.31004 2.1513L3.44676 2.24661L3.63102 2.38545L3.67858 2.42482L3.09012 1.98138ZM4.00946 2.6569C3.94353 2.57617 3.87129 2.50131 3.79349 2.4331C3.96587 2.17616 4.11844 1.9503 4.23336 1.77624L4.90305 2.26941L4.42951 2.96772L4.00946 2.6569ZM4.43941 2.97186L4.90899 2.27147L5.23592 2.51185L5.01202 2.84546H4.99617L4.94664 2.81852H4.91296C4.89711 2.81852 4.8872 2.81852 4.90107 2.84753L4.92088 2.87447L4.96646 2.90141H4.98033L4.76634 3.21844L4.43941 2.97186ZM4.81191 3.24538L5.28149 2.545L5.60048 2.78122L5.12893 3.48161L4.81191 3.24538ZM5.15666 3.19358L5.88184 2.80401L6.2563 3.5645L5.52915 3.95406L5.15666 3.19358ZM5.8105 3.97685L6.28009 3.27854L6.94978 3.76964L6.48218 4.47002L5.8105 3.97685ZM4.42356 2.97186L4.23929 3.24953C4.22939 3.18115 4.21949 3.11484 4.2076 3.04231C4.1845 2.9443 4.14563 2.85111 4.09268 2.76672L4.0154 2.66518L4.42356 2.97186ZM2.61063 2.68384L3.07823 1.98553L3.74199 2.47248L3.27438 3.17079L2.61063 2.68384ZM3.28428 3.17907L3.75189 2.48283C3.84447 2.56172 3.92881 2.65063 4.00351 2.74807C4.06003 2.82277 4.10424 2.9068 4.13429 2.99672C4.16069 3.09359 4.1786 3.19278 4.18779 3.29305C4.18779 3.29305 4.18779 3.31169 4.18779 3.31997L3.95003 3.67224L3.28428 3.17907ZM3.95993 3.67431L4.19174 3.32827C4.20066 3.4199 4.20066 3.51224 4.19174 3.60387C4.18483 3.67393 4.17224 3.74325 4.1541 3.81108L3.95993 3.67431ZM4.20363 3.85459C4.2175 3.7945 4.23137 3.73441 4.23929 3.67431C4.25413 3.56869 4.25812 3.46172 4.25118 3.35521L4.23929 3.25781C4.30468 3.16042 4.36808 3.06718 4.42752 2.976L4.75445 3.21637L4.52659 3.5562L4.46517 3.51269H4.43347C4.41961 3.51269 4.40375 3.5127 4.41564 3.53963C4.41921 3.55022 4.42458 3.56004 4.43149 3.56863L4.4949 3.6163L4.28686 3.92505L4.20363 3.85459ZM4.33242 3.94784L4.80002 3.24953L5.121 3.48368L4.65142 4.18407L4.33242 3.94784ZM4.65538 4.18614C4.81984 3.94163 4.98032 3.7054 5.12496 3.48783L5.79466 3.97893L5.32706 4.67931L4.65538 4.18614ZM5.33102 4.68137L5.8006 3.98306L6.47029 4.47416L6.01459 5.17247L5.33102 4.68137ZM4.28289 3.91883L4.11645 4.16749C4.1323 4.10947 4.14815 4.05145 4.16599 3.99136L4.20165 3.86081L4.28289 3.91883ZM2.72951 3.27647L2.75527 3.23917V3.21016C2.75527 3.19772 2.75527 3.18321 2.72951 3.1915C2.72042 3.19441 2.71176 3.19859 2.70375 3.20393L2.67205 3.25368L2.37088 3.03403L2.59478 2.70041L3.26447 3.1915L3.04058 3.52513L2.72951 3.27647ZM3.42496 3.78828L3.46658 3.72404V3.69504C3.46658 3.68261 3.46657 3.6681 3.44082 3.67639C3.43173 3.6793 3.42307 3.68348 3.41506 3.68882L3.37146 3.75306L3.05049 3.5189L3.27438 3.18529L3.94408 3.67639L3.72018 4.01L3.42496 3.78828ZM3.73207 4.01415L3.95596 3.68054L4.1541 3.82352C4.14828 3.85582 4.14033 3.88766 4.13032 3.91883C4.1006 4.02243 4.06692 4.12605 4.04116 4.23794L3.73207 4.01415ZM4.10456 4.28767L4.32846 3.95406L4.64943 4.1882L4.42951 4.51768L4.10456 4.28767ZM4.7921 4.7912L4.83767 4.72489C4.8386 4.71455 4.8386 4.70414 4.83767 4.6938C4.83767 4.6793 4.83767 4.6648 4.81389 4.67516C4.80402 4.67856 4.79467 4.68345 4.78615 4.68967L4.74058 4.75804L4.42951 4.51768L4.6534 4.18407L5.3231 4.67724L5.0992 5.01085L4.7921 4.7912ZM5.4717 5.29058L5.5252 5.21184C5.52941 5.2004 5.53272 5.18862 5.5351 5.17662C5.5351 5.16211 5.5351 5.14761 5.50935 5.15798C5.49937 5.16292 5.49005 5.16918 5.4816 5.17662L5.42613 5.25743L5.10317 5.01913L5.32706 4.68552L5.99873 5.17869L5.77484 5.5123L5.4717 5.29058ZM2.00434 2.85996C1.98444 2.83958 1.96712 2.81659 1.95282 2.79158L1.94094 2.76879H2.05189V2.78122C2.03405 2.80609 2.01815 2.83243 2.00434 2.85996ZM2.12718 3.4153C2.20446 3.3034 2.27974 3.18943 2.35701 3.07546L3.02671 3.56656L2.79886 3.89604L2.12718 3.4153ZM2.80282 3.91054L3.03068 3.57071L3.70236 4.0618L3.47251 4.40371L2.80282 3.91054ZM3.47846 4.40579L3.70631 4.06595L4.03324 4.31046L3.80538 4.64822L3.47846 4.40579ZM3.85096 4.67931L4.00748 4.44308C4.00748 4.48867 4.00748 4.53425 3.99559 4.57777C3.9837 4.62128 3.99559 4.7166 3.99559 4.78498L3.85096 4.67931ZM4.04909 4.8285C4.04909 4.76219 4.04909 4.69588 4.04909 4.62128C4.05093 4.52318 4.06087 4.42543 4.07881 4.32912L4.39583 4.56326L4.16797 4.90309L4.04909 4.8285ZM4.16995 4.9176L4.39978 4.5757L5.06948 5.06886L4.84163 5.4087L4.16995 4.9176ZM4.84559 5.41284L5.07345 5.07094L5.74513 5.56411L5.51528 5.90394L4.84559 5.41284ZM5.51133 5.91015L5.05165 6.59397L5.01796 6.57324L4.99617 6.55873L4.89117 6.48621C4.82242 6.43237 4.75629 6.37497 4.69303 6.31422C4.6009 6.22743 4.51543 6.13321 4.43743 6.03241C4.5682 5.8397 4.7069 5.63042 4.84955 5.41077L5.51133 5.91015ZM4.83767 5.41492L4.42554 6.03656C4.38653 5.98544 4.35015 5.93218 4.31657 5.877C4.21594 5.69453 4.1456 5.49555 4.10853 5.28851C4.09466 5.21806 4.08277 5.14553 4.07287 5.08129L4.16797 4.94039L4.83767 5.41492ZM4.16203 4.91967L4.07088 5.05437C4.06098 4.98184 4.05504 4.90931 4.05108 4.83678L4.16203 4.91967ZM1.65562 4.11568L2.1252 3.4153L2.7949 3.90847L2.32532 4.60678L1.65562 4.11568ZM2.33126 4.61093L2.79886 3.91054L3.47053 4.40371L3.00095 5.10202L2.33126 4.61093ZM3.00492 5.10617L3.4745 4.40579L3.80142 4.64615L3.57555 4.98184L3.50422 4.93003H3.47648C3.46261 4.93003 3.45072 4.93003 3.45864 4.95697C3.46142 4.96647 3.46542 4.97553 3.47053 4.98391L3.54385 5.03779L3.33185 5.34653L3.00492 5.10617ZM3.37741 5.37968L3.84699 4.67931L3.99758 4.78913C4.00117 4.90025 4.01175 5.011 4.02927 5.12067L3.69839 5.61384L3.37741 5.37968ZM3.70236 5.61798L4.03324 5.13932C4.03324 5.17869 4.04512 5.21806 4.05305 5.25743C4.07339 5.36535 4.09986 5.47191 4.13231 5.57654C4.16311 5.68157 4.20568 5.78242 4.25911 5.877C4.3007 5.94985 4.34773 6.01914 4.39978 6.08422L4.37402 6.12151L3.70236 5.61798ZM4.37799 6.11323L4.39978 6.07801L4.51272 6.21269L4.37799 6.11323ZM1.18406 4.82022L1.65165 4.11983L2.32333 4.613L1.85376 5.31131L1.18406 4.82022ZM1.85772 5.31339L2.3273 4.61506L2.997 5.10617L2.52939 5.80654L1.85772 5.31339ZM2.53336 5.80862L3.00294 5.11031L3.32986 5.35068L3.10597 5.68222L3.06634 5.65113H3.03661C3.02275 5.65113 3.00888 5.65113 3.01879 5.67807C3.02204 5.6884 3.02671 5.69817 3.03266 5.70709L3.07031 5.7361L2.85632 6.0552L2.53336 5.80862ZM2.90585 6.08214L3.37543 5.38383L3.69442 5.61798L3.22485 6.31837L2.90585 6.08214ZM3.2407 6.32044L3.70829 5.62213L4.37997 6.11323L3.9104 6.81361L3.2407 6.32044ZM3.91436 6.81569L4.38394 6.11736L4.54046 6.23342L4.64548 6.33702C4.71305 6.40184 4.78452 6.46205 4.85946 6.5173C4.89512 6.54424 4.93079 6.57117 4.96646 6.59397L5.00212 6.61676L5.03382 6.63747L4.58406 7.30885L3.91436 6.81569Z" fill="#94D7EA"/>
</svg>
