<svg width="12" height="9" viewBox="0 0 12 9" fill="none" xmlns="http://www.w3.org/2000/svg">
<path d="M11.3028 4.33949C11.3453 4.20612 11.3621 4.06527 11.3523 3.92506C11.3406 3.80089 11.3153 3.67852 11.277 3.56036C11.2232 3.37181 11.1328 3.19688 11.0115 3.04648C10.9897 3.02161 10.9699 2.99881 10.9461 2.97602C10.8733 2.90431 10.7913 2.84363 10.7024 2.79574C10.663 2.77499 10.6227 2.75632 10.5815 2.73979C10.5024 2.70647 10.42 2.68215 10.3359 2.66727C10.0645 2.62726 9.78797 2.67497 9.54331 2.80403C9.32444 2.91224 9.14007 3.0842 9.01231 3.29927C8.74643 3.00961 8.46104 2.74023 8.15835 2.49321L7.91861 2.28599H7.89681H7.877H7.86114L6.97746 3.1335C6.9707 3.1349 6.9644 3.13811 6.95919 3.14284C6.95397 3.14756 6.95003 3.15364 6.94775 3.16044L5.2418 4.79122C5.04367 4.72076 4.84553 4.65031 4.6791 4.584C4.75043 4.51355 4.81383 4.44724 4.87723 4.37679L5.86791 3.34072L6.31768 2.86826C6.32809 2.8664 6.33774 2.86135 6.34541 2.85376C6.35041 2.84915 6.35428 2.84338 6.35669 2.83689C6.3591 2.8304 6.36 2.82338 6.35929 2.81646V2.19068C6.36092 2.16921 6.3568 2.14767 6.3474 2.12851C6.32833 2.09672 6.30643 2.06689 6.28201 2.03941L6.21068 1.95446C6.10567 1.83013 5.99274 1.70579 5.87584 1.58768C5.80847 1.5193 5.73714 1.45092 5.66581 1.38047L5.62421 1.34317C5.60043 1.32245 5.57863 1.30381 5.55882 1.28308C5.53901 1.26236 5.50532 1.22921 5.45975 1.2665C5.45194 1.27444 5.44526 1.28351 5.43994 1.29344V1.30587L5.41022 1.33696L5.39437 1.35353L5.29134 1.45921L5.0932 1.66643L4.2333 2.57402C4.2333 2.57402 4.21943 2.58438 4.21943 2.58646C3.89647 2.92629 3.51407 3.32414 3.11185 3.71578C2.99495 3.63082 2.87608 3.54171 2.7572 3.45054C3.02864 3.1853 3.3516 2.87242 3.67852 2.5388L3.79938 2.42897C4.29868 1.9731 4.3502 1.9068 4.35218 1.86328C4.35126 1.8529 4.34785 1.84292 4.34227 1.83427C4.34689 1.69565 4.33893 1.55689 4.3185 1.41984C4.30859 1.35146 4.29472 1.28308 4.27887 1.21263V1.17948C4.27672 1.15578 4.27069 1.13265 4.26104 1.11109V1.09866C4.25673 1.09277 4.25133 1.08784 4.24518 1.08415H4.23528L4.15999 1.00126C4.02922 0.856214 3.89052 0.715308 3.75183 0.586835L3.53586 0.379621H3.52398C3.51579 0.366677 3.50394 0.356736 3.49009 0.351165C3.47624 0.345593 3.46107 0.344677 3.4467 0.348547C3.42682 0.358216 3.40923 0.372372 3.39519 0.389992L3.3833 0.404499L3.27235 0.51639C3.26515 0.520241 3.25901 0.525949 3.25451 0.53297L3.1495 0.640713L3.07817 0.71532C3.068 0.718772 3.05948 0.726188 3.0544 0.736036L1.53668 2.26943L1.47724 2.20104L1.44356 2.15752C1.42317 2.13078 1.3944 2.11243 1.36233 2.10572C1.3228 2.10156 1.28297 2.10156 1.24344 2.10572H1.20382H1.00568H0.900674H0.825381H0.740185C0.735064 2.10263 0.729252 2.101 0.723339 2.101C0.717426 2.101 0.71162 2.10263 0.706499 2.10572H0.540067H0.528179C0.520592 2.10894 0.514296 2.1148 0.510348 2.1223L0.284471 2.44763C0.278074 2.45048 0.272512 2.45505 0.268339 2.46087C0.264165 2.46669 0.261528 2.47355 0.260696 2.48077L0.169556 2.61132L0.230977 2.68385L0.260696 2.64241V2.72115L0.510348 3.01539C0.465948 2.95264 0.425569 2.88687 0.389482 2.81853H0.437033C0.484585 2.88692 0.599507 3.04855 0.781792 3.26405C1.12199 3.66294 1.49821 4.02656 1.90521 4.34985C2.81507 5.07377 3.87543 5.56293 5.00008 5.77756H4.95451L4.796 5.74855H4.76628C4.72285 5.73057 4.67618 5.72279 4.62957 5.72575C4.45719 5.68431 4.28481 5.63251 4.1164 5.58278L3.93213 5.52682C3.68044 5.44766 3.43581 5.34574 3.20102 5.22223L3.0861 5.16627C2.88797 5.06267 2.67001 4.95905 2.46791 4.8368C2.15154 4.64408 1.84652 4.43164 1.55452 4.20065L1.39204 4.06804L1.34648 4.02452L1.72689 4.4721C1.92503 4.62337 2.14694 4.76427 2.35894 4.88653L2.42433 5.12483C2.42593 5.13188 2.42935 5.13834 2.43424 5.14348C2.43849 5.1498 2.44485 5.15424 2.45207 5.15592C2.4529 5.16506 2.45635 5.17373 2.46197 5.18078L2.51745 5.24709C2.71739 5.50605 2.94621 5.73909 3.19903 5.94125C3.22388 5.96545 3.25625 5.97943 3.29018 5.98062C3.3181 5.97262 3.34343 5.95686 3.36349 5.93503C3.39809 5.90506 3.42993 5.87176 3.45859 5.83557C3.47216 5.81555 3.48742 5.79682 3.50416 5.77962L3.7023 5.57241C3.90043 5.647 4.10847 5.71331 4.31453 5.76926L4.19565 5.87909L4.14017 5.92675C4.09785 5.95852 4.05986 5.99616 4.02724 6.03864C3.9952 6.08314 3.98034 6.13862 3.98563 6.19405V6.72245C3.9866 6.73625 3.9866 6.75009 3.98563 6.76389C3.98266 6.78727 3.98266 6.81096 3.98563 6.83434C3.99766 6.88108 4.02084 6.92386 4.05299 6.95867C4.07129 6.98092 4.09116 7.00171 4.11244 7.02084L4.12631 7.03535L4.32444 7.24256C4.46512 7.37932 4.60778 7.51401 4.75241 7.64041L4.9763 7.84763L5.08924 7.94294L5.13481 7.98438L5.19029 8.03411C5.19671 8.03919 5.20412 8.04276 5.21199 8.04454C5.21986 8.04633 5.228 8.04632 5.23586 8.04448C5.25883 8.03542 5.27879 8.01958 5.29332 7.99889L5.30521 7.98645L5.37059 7.92222L7.15381 6.27901C7.15822 6.2743 7.16159 6.26864 7.16371 6.26243C7.23791 6.27933 7.31365 6.28767 7.38959 6.2873C7.41788 6.29034 7.44635 6.28381 7.47082 6.26865C7.49685 6.23917 7.51587 6.20367 7.5263 6.16505L7.57385 6.03243L7.62735 5.89567L7.65311 5.83142V5.81693C7.65311 5.80657 7.66301 5.78377 7.66301 5.78169C7.66759 5.78264 7.6723 5.78264 7.67688 5.78169L8.93108 4.48661C8.97326 4.59362 9.03145 4.69295 9.10345 4.78086L9.14308 4.82644C9.24323 4.95193 9.35398 5.06774 9.47396 5.17248C9.59442 5.27619 9.73506 5.35115 9.88608 5.39213L9.94156 5.40456C10.5439 5.49159 11.1383 4.84924 11.3028 4.33949ZM2.43027 4.96113L2.50754 5.00672L2.45603 5.06267L2.43027 4.96113ZM3.2981 5.848L3.28027 5.86251H3.2664C3.25506 5.85721 3.24492 5.84945 3.23668 5.83972L3.21885 5.82521C3.14157 5.76719 3.06628 5.7071 2.99495 5.64701C2.8549 5.52187 2.72255 5.38761 2.59868 5.24502C2.58481 5.22637 2.56896 5.20979 2.55509 5.19321L2.51349 5.14348L2.60067 5.05023C2.7889 5.15384 2.97514 5.25745 3.15743 5.33412C3.30405 5.40043 3.45463 5.46466 3.61116 5.52475L3.43878 5.70917L3.41897 5.72989C3.38781 5.76766 3.35403 5.80298 3.31791 5.83557L3.2981 5.848ZM11.1641 4.02452C11.1315 4.25282 11.0404 4.46763 10.9005 4.64616C10.8016 4.79886 10.6693 4.92472 10.5146 5.01336C10.3599 5.10199 10.1872 5.15087 10.0109 5.15592C9.79604 5.13847 9.59654 5.03266 9.45613 4.86166L9.58294 4.80986L9.59879 4.82851C9.67567 4.90769 9.7707 4.9649 9.87477 4.99465C9.97886 5.0244 10.0885 5.02571 10.1932 4.99843C10.2638 4.98037 10.3287 4.94345 10.3816 4.89128C10.4345 4.83912 10.4736 4.77349 10.4949 4.70081C10.5163 4.62814 10.5193 4.55091 10.5035 4.47668C10.4878 4.40245 10.4539 4.33375 10.4052 4.27732C10.5983 4.10221 10.7688 3.90161 10.9124 3.68055C10.9428 3.73586 10.9661 3.79507 10.9818 3.85668C10.9835 3.86369 10.9869 3.87013 10.9917 3.87533C10.9973 3.88191 11.0045 3.88675 11.0125 3.88931C11.0206 3.89187 11.0291 3.89204 11.0372 3.88983C11.0487 3.88644 11.0585 3.87846 11.0644 3.86761C11.0704 3.85675 11.072 3.8439 11.0689 3.83181C11.0475 3.74731 11.0134 3.66687 10.9679 3.59351C10.9917 3.55207 11.0155 3.51271 11.0372 3.47126C11.1441 3.63263 11.1894 3.83001 11.1641 4.02452ZM9.60077 4.68554L9.57699 4.65239C9.79612 4.51432 10.0036 4.35695 10.1972 4.18201H10.2071L10.2724 4.24624C10.0683 4.42434 9.84157 4.57215 9.59879 4.68554H9.60077ZM10.3339 4.32499C10.3683 4.36616 10.3945 4.41405 10.4111 4.46589C10.4309 4.55692 10.4175 4.6524 10.3735 4.73363C10.3295 4.81487 10.2582 4.87604 10.1734 4.90518C10.0859 4.92809 9.99425 4.92757 9.90699 4.90366C9.81972 4.87976 9.73962 4.83325 9.67408 4.76843C9.91143 4.65224 10.1327 4.50307 10.3319 4.32499H10.3339ZM10.3339 4.19651L10.2606 4.12191C10.4561 3.93865 10.6364 3.73832 10.7995 3.52307L10.8272 3.55414L10.851 3.58523C10.7076 3.81206 10.5357 4.01767 10.3398 4.19651H10.3339ZM10.956 3.39873C10.9382 3.43189 10.9204 3.46711 10.9005 3.50026L10.8886 3.48577L10.853 3.4464L10.8649 3.43397L10.8926 3.39666C10.8989 3.38801 10.9023 3.37747 10.9023 3.36662C10.9023 3.35577 10.8989 3.34522 10.8926 3.33657C10.8873 3.33411 10.8816 3.33285 10.8758 3.33285C10.87 3.33285 10.8642 3.33411 10.8589 3.33657C10.8471 3.33865 10.8365 3.34532 10.8292 3.35523L10.8034 3.38837L10.7935 3.40081C10.7747 3.38558 10.7548 3.37173 10.7341 3.35936C10.6487 3.3073 10.5516 3.27987 10.4528 3.27987C10.3539 3.27987 10.2568 3.3073 10.1714 3.35936C10.0863 3.41661 10.022 3.50194 9.9886 3.60181C9.95522 3.70168 9.9547 3.81035 9.98713 3.91056C10.0106 3.97194 10.0449 4.02817 10.0882 4.07633L10.1338 4.12606C9.94746 4.2936 9.74869 4.44534 9.53935 4.57985C9.52366 4.54419 9.51235 4.5066 9.50567 4.46796C9.49617 4.415 9.49973 4.36037 9.51602 4.30925C9.53232 4.25813 9.56081 4.21219 9.59879 4.17578C9.60311 4.17152 9.60655 4.16638 9.6089 4.16068C9.61125 4.15498 9.61246 4.14884 9.61246 4.14264C9.61246 4.13643 9.61125 4.13028 9.6089 4.12458C9.60655 4.11887 9.60311 4.11374 9.59879 4.10947C9.59489 4.10501 9.59015 4.10145 9.58486 4.09902C9.57957 4.09658 9.57386 4.09532 9.56808 4.09532C9.5623 4.09532 9.55659 4.09658 9.5513 4.09902C9.54601 4.10145 9.54127 4.10501 9.53737 4.10947C9.48758 4.15647 9.45001 4.21592 9.42817 4.28224C9.40634 4.34856 9.40097 4.41959 9.41254 4.48868C9.42018 4.53994 9.43556 4.5896 9.45812 4.63581H9.44425L9.40858 4.65652C9.39814 4.66264 9.39042 4.67281 9.38708 4.68483C9.38374 4.69685 9.38506 4.70975 9.39075 4.72076C9.39901 4.72731 9.40911 4.73086 9.41948 4.73086C9.42985 4.73086 9.43994 4.72731 9.44821 4.72076L9.48585 4.69797H9.49774L9.51161 4.71868L9.41849 4.75599C9.40872 4.75911 9.4003 4.7657 9.39471 4.77464C9.34193 4.69606 9.30116 4.60938 9.27385 4.51769C9.23039 4.34515 9.22884 4.16399 9.26932 3.99065C9.30981 3.81732 9.39105 3.65731 9.50567 3.52514C9.69696 3.31137 9.95327 3.17368 10.2308 3.13558C10.3643 3.11362 10.5009 3.12426 10.6298 3.16668C10.7587 3.2091 10.8764 3.28215 10.9738 3.38009C10.9698 3.38552 10.967 3.39192 10.9659 3.39873H10.956ZM10.1912 4.05561L10.1437 4.00381C10.1084 3.96376 10.0802 3.91744 10.0604 3.86704C10.0358 3.78721 10.037 3.70112 10.0638 3.62207C10.0907 3.54303 10.1417 3.47545 10.209 3.42982C10.2807 3.38653 10.362 3.36375 10.4448 3.36375C10.5276 3.36375 10.6089 3.38653 10.6806 3.42982L10.7282 3.46297C10.5675 3.67589 10.3899 3.87416 10.1972 4.05561H10.1912ZM10.9104 3.07963L10.9481 3.12521V3.13764C10.9298 3.1213 10.9106 3.10608 10.8906 3.09206C10.8921 3.08846 10.8929 3.08458 10.8929 3.08066C10.8929 3.07675 10.8921 3.07287 10.8906 3.06927L10.9104 3.07963ZM10.7341 2.92629L10.8015 2.97809C10.8015 2.99674 10.8015 3.01332 10.8015 3.03197C10.7765 3.01718 10.7507 3.00404 10.7242 2.9926V2.91799L10.7341 2.92629ZM10.5895 2.85583L10.6251 2.87034V2.9553C10.5861 2.94275 10.5464 2.93237 10.5062 2.92422L10.4944 2.82061C10.5287 2.83023 10.5624 2.84199 10.5954 2.85583H10.5895ZM10.3359 2.77295C10.3596 2.77295 10.3854 2.77295 10.4092 2.7916L10.421 2.90971H10.3339C10.3102 2.86661 10.2916 2.8207 10.2784 2.77295H10.3359ZM10.1813 2.75637C10.1937 2.80709 10.211 2.85638 10.2328 2.9035C10.1857 2.90525 10.1387 2.91009 10.0921 2.91799L10.0763 2.75637H10.1813ZM9.98317 2.75637L10.001 2.92629C9.96138 2.92629 9.92175 2.94701 9.88212 2.96151L9.85439 2.78124C9.90392 2.78124 9.9475 2.77295 9.99109 2.76673L9.98317 2.75637ZM9.76721 2.8061L9.79693 2.99467L9.67804 3.04854L9.63049 2.85998C9.6785 2.84244 9.72745 2.82791 9.77711 2.81646L9.76721 2.8061ZM8.85776 4.24417C8.85976 4.25494 8.8631 4.26539 8.86767 4.27526C8.86767 4.29391 8.88947 4.33535 8.89343 4.35192L7.77 5.51232C7.89979 5.23129 8.04671 4.95928 8.20986 4.69797C8.21597 4.68965 8.21928 4.67945 8.21928 4.66896C8.21928 4.65847 8.21597 4.64826 8.20986 4.63994C8.20208 4.63404 8.19272 4.63087 8.18311 4.63087C8.17351 4.63087 8.16415 4.63404 8.15637 4.63994C7.6785 4.72914 7.19126 4.75006 6.708 4.70212C6.71655 4.69775 6.72401 4.69136 6.7298 4.68346C6.73544 4.67533 6.73847 4.66553 6.73847 4.65549C6.73847 4.64544 6.73544 4.63564 6.7298 4.62751L6.61488 4.55292L6.65054 4.51977C6.6955 4.5703 6.74846 4.61236 6.80707 4.64409C6.81864 4.6482 6.83117 4.6482 6.84273 4.64409C6.85393 4.63936 6.86309 4.63052 6.86849 4.61923C6.8738 4.61173 6.87667 4.60265 6.87667 4.59332C6.87667 4.584 6.8738 4.57492 6.86849 4.56742H6.85661C6.80698 4.54212 6.76256 4.50693 6.72584 4.46382L6.79914 4.39337L6.92199 4.53013C6.92597 4.53478 6.93086 4.53849 6.93633 4.54099C6.9418 4.54349 6.94772 4.54473 6.95369 4.54463C6.96595 4.54465 6.97784 4.54026 6.98738 4.5322C6.99561 4.52331 7.00021 4.51141 7.00021 4.49904C7.00021 4.48666 6.99561 4.47478 6.98738 4.46589L6.86453 4.3312L6.95171 4.24832L7.07653 4.38507C7.08051 4.38973 7.0854 4.39343 7.09087 4.39594C7.09634 4.39844 7.10226 4.39968 7.10823 4.39958C7.12049 4.39959 7.13239 4.39521 7.14192 4.38715C7.14972 4.37803 7.15403 4.36623 7.15403 4.354C7.15403 4.34177 7.14972 4.32995 7.14192 4.32084L7.01709 4.18408L7.07257 4.1302C7.0761 4.13664 7.08081 4.14227 7.08644 4.14678C7.12463 4.19301 7.17106 4.23102 7.22315 4.25868C7.23244 4.26334 7.24297 4.26457 7.25301 4.26218C7.26306 4.25978 7.27204 4.2539 7.27848 4.24548C7.28491 4.23707 7.28843 4.22663 7.28846 4.21585C7.28849 4.20507 7.28503 4.19461 7.27863 4.18616C7.27488 4.18158 7.27012 4.17802 7.26476 4.17578C7.22286 4.15258 7.18528 4.1217 7.15381 4.08461L7.13994 4.06804L7.20334 4.00794L7.35986 4.17165C7.36394 4.17616 7.36885 4.17976 7.3743 4.18222C7.37975 4.18468 7.38563 4.18594 7.39157 4.18594C7.3975 4.18594 7.40338 4.18468 7.40883 4.18222C7.41428 4.17976 7.41919 4.17616 7.42327 4.17165C7.4315 4.16276 7.43611 4.15086 7.43611 4.13849C7.43611 4.12611 7.4315 4.11423 7.42327 4.10534L7.26674 3.94578L7.36383 3.85461L7.54413 4.00587C7.55504 4.00981 7.5669 4.00981 7.57781 4.00587C7.58376 4.00518 7.58949 4.00315 7.59462 3.99994C7.59975 3.99672 7.60415 3.99239 7.60753 3.98723C7.61564 3.97869 7.62019 3.96713 7.62019 3.9551C7.62019 3.94307 7.61564 3.93153 7.60753 3.92299L7.43714 3.78209L7.51837 3.70542C7.57448 3.76931 7.63617 3.82758 7.70264 3.87947C7.71136 3.88763 7.72264 3.89214 7.73434 3.89214C7.74604 3.89214 7.75733 3.88763 7.76604 3.87947C7.77264 3.87098 7.77624 3.86038 7.77624 3.84943C7.77624 3.83849 7.77264 3.82788 7.76604 3.81938C7.70598 3.77322 7.65025 3.72118 7.59961 3.66397C7.60653 3.66105 7.61257 3.65624 7.6171 3.65005C7.62163 3.64385 7.62449 3.6365 7.62537 3.62875L7.68282 3.57487L7.85322 3.72199C7.8573 3.7265 7.86221 3.7301 7.86766 3.73256C7.87311 3.73502 7.87899 3.73629 7.88493 3.73629C7.89086 3.73629 7.89673 3.73502 7.90218 3.73256C7.90763 3.7301 7.91255 3.7265 7.91662 3.72199C7.92428 3.71321 7.92853 3.70176 7.92853 3.68987C7.92853 3.67799 7.92428 3.66653 7.91662 3.65775L7.75613 3.51892L7.88493 3.39666L8.04739 3.55207C8.05147 3.55658 8.05638 3.56018 8.06183 3.56264C8.06728 3.5651 8.07316 3.56637 8.07909 3.56637C8.08503 3.56637 8.09091 3.5651 8.09636 3.56264C8.10181 3.56018 8.10672 3.55658 8.1108 3.55207C8.1189 3.54353 8.12345 3.53199 8.12345 3.51996C8.12345 3.50792 8.1189 3.49637 8.1108 3.48783L7.95229 3.33657L8.03749 3.25783C8.10386 3.3355 8.17536 3.4082 8.25147 3.4754C8.25554 3.47992 8.26046 3.48351 8.26591 3.48597C8.27136 3.48843 8.27724 3.4897 8.28317 3.4897C8.28911 3.4897 8.29498 3.48843 8.30044 3.48597C8.30589 3.48351 8.3108 3.47992 8.31487 3.4754C8.32267 3.46628 8.32699 3.45448 8.32699 3.44225C8.32699 3.43002 8.32267 3.41822 8.31487 3.4091C8.24368 3.34563 8.17743 3.27634 8.11674 3.20189C8.13457 3.18531 8.15042 3.17287 8.16231 3.17909H8.17222L8.18609 3.19774L8.19798 3.21432L8.24553 3.26612C8.31091 3.33658 8.3763 3.40703 8.44366 3.47334C8.51103 3.53965 8.59425 3.62459 8.66954 3.69505L8.72502 3.74064C8.75559 3.76419 8.7841 3.79054 8.81021 3.81938C8.83614 3.84886 8.85335 3.88557 8.85975 3.92506C8.85975 3.952 8.85975 3.97893 8.85975 4.00587C8.85975 4.03281 8.87164 4.11155 8.88154 4.16335C8.89145 4.21516 8.85578 4.21516 8.86569 4.25453L8.85776 4.24417ZM8.91126 4.07633L8.95683 4.13228C8.95683 4.18288 8.96014 4.23341 8.96674 4.28354C8.96674 4.26904 8.95485 4.24624 8.94296 4.21308C8.94041 4.20315 8.93709 4.19346 8.93305 4.18408C8.92536 4.15218 8.92072 4.11955 8.91919 4.08668L8.91126 4.07633ZM6.65253 4.69797L6.45439 4.6731L6.51977 4.61094L6.65253 4.69797ZM8.90135 3.92506C8.90036 3.90643 8.90036 3.88775 8.90135 3.86911L8.9707 3.95821V4.00381L8.90135 3.92506ZM8.92117 3.74479L8.939 3.6764L9.02023 3.78001C9.02023 3.80073 9.00636 3.82145 9.00042 3.84425L8.92117 3.74479ZM8.97268 3.57072C8.97268 3.54793 8.99051 3.52513 9.00042 3.50234L9.08958 3.6246C9.07916 3.6433 9.0699 3.66267 9.06185 3.68261L8.97268 3.57072ZM9.19261 3.46504C9.17478 3.48784 9.15695 3.51271 9.1411 3.53757L9.04599 3.4091C9.06287 3.377 9.08139 3.34587 9.10147 3.31585C9.12933 3.37106 9.16253 3.42314 9.20054 3.47126L9.19261 3.46504ZM9.16091 3.23296L9.22234 3.15837L9.30357 3.33657L9.25205 3.39045C9.22029 3.34548 9.19244 3.29763 9.16884 3.24747L9.16091 3.23296ZM9.54727 2.9035L9.59285 3.08378V3.09828L9.49576 3.16252L9.43236 2.97187C9.48585 2.95115 9.52152 2.92836 9.5552 2.90971L9.54727 2.9035ZM9.36103 3.02575L9.42641 3.22053L9.37291 3.26819L9.2897 3.08791L9.36103 3.02575ZM8.09098 2.5678C8.39368 2.81631 8.67905 3.08707 8.94494 3.37802C8.89023 3.48677 8.84895 3.60235 8.8221 3.72199C8.57073 3.50262 8.33499 3.26438 8.11674 3.00917H8.10684C8.07892 2.82784 8.03515 2.64959 7.97607 2.47664L8.09098 2.5678ZM5.49145 4.67518L5.54891 4.6213C5.5826 4.72076 5.61826 4.82851 5.65194 4.93833L5.55486 4.90726C5.54001 4.83104 5.5215 4.75565 5.49938 4.68139L5.49145 4.67518ZM5.45183 4.88239L5.32898 4.83887L5.41814 4.75392C5.43796 4.79122 5.44984 4.83266 5.45975 4.87824L5.45183 4.88239ZM5.62222 4.56742L5.70742 4.48661C5.7728 4.6731 5.84216 4.85753 5.91547 5.0378L5.75894 4.98807C5.72327 4.83681 5.6777 4.69796 5.63015 4.56327L5.62222 4.56742ZM5.77677 4.40994L5.88574 4.30633L6.00265 4.65445C5.9757 4.67998 5.95716 4.71378 5.94968 4.751C5.94221 4.78822 5.94618 4.82695 5.96103 4.86166C5.97546 4.9096 5.99403 4.95608 6.01651 5.00051L6.00462 5.01294C5.93131 4.81401 5.85404 4.61094 5.7847 4.4058L5.77677 4.40994ZM6.09973 4.70625L6.03038 4.81193C6.02643 4.79632 6.02643 4.7799 6.03038 4.76428C6.03507 4.7521 6.04178 4.74087 6.0502 4.73112H6.06604C6.07532 4.73045 6.08421 4.72695 6.0916 4.72106C6.099 4.71517 6.10458 4.70714 6.10766 4.69797L6.09973 4.70625ZM6.1988 4.63166C6.16176 4.62166 6.1229 4.62166 6.08586 4.63166L5.965 4.26696C5.96565 4.26215 5.96565 4.25726 5.965 4.25245L6.06208 4.15922C6.10964 4.32084 6.15917 4.48454 6.21068 4.64409L6.1988 4.63166ZM6.07793 4.91969L6.16313 4.79329C6.16766 4.80339 6.17296 4.81308 6.17898 4.82229L6.09775 4.95906C6.09246 4.94499 6.08848 4.93041 6.08586 4.91554L6.07793 4.91969ZM6.30381 4.66067C6.24239 4.47003 6.18294 4.27318 6.12746 4.07633L6.17304 4.03281L6.37117 4.63166L6.33551 4.66688L6.30381 4.66067ZM7.7601 3.31999L7.69471 3.38009L7.51639 2.75845L7.58772 2.68799C7.64915 2.89313 7.70462 3.10657 7.76802 3.31585L7.7601 3.31999ZM7.66301 2.60511L7.76802 2.50564C7.82944 2.71285 7.88492 2.9325 7.93644 3.15215L7.83341 3.24954C7.77991 3.04026 7.72245 2.81854 7.67094 2.60096L7.66301 2.60511ZM7.6214 3.45054C7.61599 3.45361 7.61126 3.45785 7.60753 3.46297L7.55998 3.50856L7.36185 2.88692L7.43912 2.81439L7.6214 3.45054ZM7.48271 3.58108L7.39949 3.6619C7.33411 3.45468 7.27269 3.24747 7.21523 3.04026L7.30043 2.95944L7.48271 3.58108ZM7.31826 3.73649L7.20532 3.84425L7.02898 3.21225L7.13399 3.11278C7.20136 3.32206 7.26278 3.53136 7.32618 3.73236L7.31826 3.73649ZM7.13003 3.91469L7.0488 3.99137L6.86255 3.36973L6.95567 3.28062L7.13003 3.91469ZM6.97548 4.06182L6.92397 4.10947L6.72584 3.51064L6.79716 3.44225L6.97548 4.06182ZM6.85264 4.17786L6.78924 4.23796L6.56931 3.65361L6.6446 3.58108L6.85264 4.17786ZM6.71791 4.30633L6.58714 4.42859C6.49967 4.231 6.43834 4.02186 6.40486 3.80695L6.49798 3.71578L6.71791 4.30633ZM6.51977 4.4949L6.45043 4.56121L6.25229 3.96236L6.33353 3.88569C6.37267 4.09512 6.43725 4.29846 6.52572 4.49075L6.51977 4.4949ZM8.03353 3.06719H8.01966C7.96814 2.84755 7.91266 2.63619 7.85322 2.44555L7.87502 2.42276C7.95248 2.62911 8.00765 2.84387 8.03947 3.06305L8.03353 3.06719ZM5.78271 3.2972C5.45579 3.64117 5.12887 3.98722 4.79204 4.33327L4.56814 4.56121C4.30595 4.45944 4.05046 4.33968 3.80335 4.20272C3.69635 4.14263 3.59531 4.08047 3.5002 4.02037L3.54974 3.97064L3.72013 4.10534C3.72863 4.11395 3.74 4.11876 3.75183 4.11876C3.76366 4.11876 3.77503 4.11395 3.78353 4.10534C3.7898 4.09669 3.7932 4.08614 3.7932 4.07529C3.7932 4.06444 3.7898 4.05388 3.78353 4.04524L3.62304 3.91884L3.72607 3.81731L3.86873 3.98515C3.8771 3.99221 3.88759 3.99595 3.89835 3.9957C3.9091 3.99545 3.91943 3.99123 3.92749 3.98379C3.93555 3.97634 3.94084 3.96617 3.94241 3.95504C3.94399 3.94391 3.94175 3.93256 3.93609 3.92299L3.79146 3.75307L3.84495 3.69919L4.00941 3.84425C4.01913 3.85172 4.03105 3.85538 4.04309 3.85461C4.0544 3.85243 4.06478 3.84664 4.07281 3.83802C4.08022 3.82872 4.08428 3.81699 4.08428 3.80488C4.08428 3.79276 4.08022 3.78104 4.07281 3.77173L3.9143 3.63496L4.00743 3.54171L4.11838 3.64739C4.12335 3.6498 4.12875 3.65106 4.13423 3.65106C4.1397 3.65106 4.14512 3.6498 4.15008 3.64739C4.15603 3.64736 4.16192 3.64607 4.16737 3.64357C4.17282 3.64108 4.17773 3.63744 4.18179 3.63288C4.19002 3.624 4.19462 3.61211 4.19462 3.59974C4.19462 3.58736 4.19002 3.57546 4.18179 3.56657L4.07677 3.46712L4.19565 3.349L4.30661 3.46091C4.3105 3.46567 4.31537 3.46945 4.32086 3.47196C4.32635 3.47447 4.33232 3.47565 4.33831 3.4754C4.35024 3.4749 4.36156 3.46973 4.37001 3.46091C4.37824 3.45202 4.38285 3.44012 4.38285 3.42774C4.38285 3.41537 4.37824 3.40349 4.37001 3.3946L4.26104 3.28477L4.32444 3.2226L4.47106 3.36766C4.47951 3.37648 4.49083 3.38166 4.50276 3.38216C4.51492 3.38092 4.52621 3.37501 4.53447 3.36558C4.5427 3.35669 4.5473 3.3448 4.5473 3.33242C4.5473 3.32005 4.5427 3.30816 4.53447 3.29927L4.39181 3.15837L4.48295 3.06719L4.60579 3.1708C4.61021 3.17475 4.61534 3.17774 4.62087 3.17962C4.6264 3.18149 4.63223 3.18221 4.63803 3.18173C4.64382 3.18125 4.64947 3.17957 4.65465 3.17681C4.65983 3.17405 4.66443 3.17024 4.6682 3.16562C4.67198 3.16099 4.67484 3.15564 4.67663 3.14986C4.67843 3.14407 4.67911 3.13797 4.67865 3.13191C4.67819 3.12585 4.6766 3.11995 4.67395 3.11453C4.67131 3.10912 4.66768 3.10429 4.66325 3.10034L4.54833 3.00296L4.68703 2.86826L4.82176 2.99053C4.82583 2.99504 4.83075 2.99864 4.8362 3.0011C4.84165 3.00356 4.84752 3.00482 4.85346 3.00482C4.8594 3.00482 4.86527 3.00356 4.87072 3.0011C4.87617 2.99864 4.88109 2.99504 4.88516 2.99053C4.89282 2.98175 4.89707 2.97029 4.89707 2.9584C4.89707 2.94652 4.89282 2.93507 4.88516 2.92629L4.75638 2.80818L4.82176 2.74394L4.83364 2.75637C4.86779 2.79823 4.90711 2.83515 4.95055 2.86619C4.96029 2.87356 4.97241 2.8766 4.98429 2.87466C4.99616 2.87272 5.00682 2.86595 5.01395 2.85583C5.02022 2.84719 5.02361 2.83664 5.02361 2.82579C5.02361 2.81495 5.02022 2.80439 5.01395 2.79574C4.97769 2.76864 4.94446 2.73736 4.91488 2.7025L4.90102 2.68385L4.99017 2.59474L5.10311 2.71908C5.11136 2.7285 5.12265 2.73441 5.13481 2.73566C5.1408 2.7359 5.14677 2.73472 5.15226 2.7322C5.15775 2.72969 5.16262 2.72592 5.16652 2.72115C5.17083 2.71689 5.17427 2.71175 5.17662 2.70605C5.17897 2.70035 5.18019 2.6942 5.18019 2.68799C5.18019 2.68178 5.17897 2.67564 5.17662 2.66994C5.17427 2.66424 5.17083 2.6591 5.16652 2.65484L5.05556 2.5305L5.19623 2.38753C5.21065 2.41255 5.22723 2.43614 5.24577 2.45798L5.28143 2.49736C5.29039 2.50345 5.30112 2.50605 5.31173 2.50472C5.32234 2.50338 5.33217 2.49818 5.33949 2.49003C5.34681 2.48188 5.35116 2.47131 5.35177 2.46015C5.35239 2.44899 5.34923 2.43795 5.34285 2.42897C5.33265 2.42036 5.32335 2.41063 5.31512 2.39996C5.29511 2.37737 5.27781 2.35232 5.2636 2.32536L5.41022 2.17825L5.54891 2.34195C5.55299 2.34646 5.5579 2.35006 5.56335 2.35252C5.56881 2.35498 5.57468 2.35624 5.58062 2.35624C5.58655 2.35624 5.59243 2.35498 5.59788 2.35252C5.60333 2.35006 5.60824 2.34646 5.61232 2.34195C5.61664 2.33768 5.62007 2.33255 5.62242 2.32684C5.62477 2.32114 5.62599 2.31499 5.62599 2.30878C5.62599 2.30258 5.62477 2.29644 5.62242 2.29074C5.62007 2.28503 5.61664 2.2799 5.61232 2.27564L5.46966 2.10572C5.46966 2.10572 5.47957 2.09536 5.46966 2.09329C5.47921 2.10042 5.48786 2.10877 5.49542 2.11815L5.50532 2.12851C5.57665 2.19482 5.64402 2.26113 5.71336 2.33572C5.84545 2.4642 5.97424 2.60234 6.09973 2.75015L6.21267 2.87656L5.78271 3.2972ZM3.29018 3.65361L3.37141 3.57487L3.46057 3.93335L3.42887 3.9665C3.415 3.9665 3.36943 3.9292 3.36943 3.9292L3.29018 3.65361ZM3.25253 3.86083L3.15743 3.79452L3.21687 3.73442L3.25253 3.86083ZM4.27887 3.13558L4.23132 3.18323C4.21151 3.04647 4.18575 2.91178 4.15404 2.78124L4.19962 2.73151C4.2341 2.86052 4.26253 2.99123 4.28481 3.12315L4.27887 3.13558ZM4.27887 2.65484L4.4136 2.51394C4.42747 2.67349 4.43738 2.8289 4.44134 2.98017L4.36011 3.05891C4.34029 2.90972 4.31454 2.77295 4.28085 2.64241L4.27887 2.65484ZM4.15603 3.2599L4.04111 3.37387L3.95789 2.99053L4.08272 2.85998C4.11442 2.98431 4.14018 3.119 4.15801 3.24747L4.15603 3.2599ZM3.95789 3.44846L3.82118 3.58316L3.75183 3.19359L3.87467 3.06719L3.95789 3.44846ZM3.7439 3.65568L3.68843 3.71163C3.67039 3.5838 3.64526 3.45719 3.61314 3.33242L3.67456 3.27026L3.7439 3.65568ZM3.60917 3.7883L3.56361 3.83389L3.53388 3.86704L3.44274 3.50649L3.53982 3.4091C3.57312 3.53032 3.59959 3.65347 3.61908 3.77794L3.60917 3.7883ZM6.1235 2.03112L6.24437 2.17825V2.74394C6.02586 2.49263 5.79505 2.25332 5.55288 2.02698C5.56839 1.8244 5.56108 1.62063 5.53108 1.41984C5.74423 1.60613 5.94544 1.80688 6.13341 2.02077L6.1235 2.03112ZM5.43796 1.42399V1.46336C5.43796 1.4903 5.43796 1.51724 5.44786 1.54418C5.45777 1.57111 5.45777 1.65813 5.45975 1.71408C5.45975 1.72859 5.45975 1.74517 5.45975 1.76175C5.46667 1.81677 5.46667 1.8725 5.45975 1.92752C5.4567 1.95706 5.44329 1.98438 5.42211 2.00419H5.41814C5.41814 1.82184 5.41815 1.63742 5.40626 1.45921L5.43796 1.42399ZM5.29729 1.57318C5.29729 1.75552 5.30719 1.93581 5.29729 2.10987L5.19029 2.21555C5.19029 2.04356 5.17048 1.87364 5.15265 1.70994L5.29729 1.57318ZM5.08528 1.79697C5.10311 1.96689 5.115 2.1368 5.11896 2.30465L5.03772 2.38546C5.01791 2.23005 4.99612 2.08086 4.97036 1.94202V1.92544L5.08528 1.79697ZM4.88715 2.00419C4.91488 2.15545 4.93668 2.31086 4.95451 2.46419L4.90498 2.51394C4.8912 2.36127 4.86803 2.20969 4.83563 2.06014L4.88715 2.00419ZM4.76034 2.14094C4.7894 2.2901 4.80991 2.44096 4.82176 2.59268L4.71675 2.69421C4.70684 2.53673 4.69099 2.37925 4.67118 2.23005L4.76034 2.14094ZM4.49682 2.41861L4.5939 2.31708C4.61372 2.47456 4.62759 2.6279 4.63749 2.77916L4.52852 2.88692C4.52258 2.72322 4.51267 2.56781 4.49682 2.41861ZM3.70428 2.37303L3.58144 2.487C3.24461 2.8289 2.90778 3.15837 2.6502 3.40703C2.45207 3.24333 2.25393 3.0672 2.0558 2.88692H2.07363C2.08601 2.88494 2.09728 2.87831 2.10533 2.86826C2.11193 2.85977 2.11553 2.84917 2.11553 2.83823C2.11553 2.82728 2.11193 2.81667 2.10533 2.80818L1.97456 2.69835L1.99834 2.67348L2.10731 2.78539C2.11596 2.79363 2.12731 2.79809 2.13902 2.79782C2.14501 2.79807 2.15097 2.79689 2.15646 2.79438C2.16195 2.79187 2.16682 2.78808 2.17071 2.78331C2.17851 2.77419 2.18282 2.76238 2.18282 2.75015C2.18282 2.73792 2.17851 2.72612 2.17071 2.717L2.06372 2.60925L2.14298 2.53465L2.25789 2.67971C2.26606 2.68818 2.2771 2.69293 2.2886 2.69293C2.30011 2.69293 2.31115 2.68818 2.31931 2.67971C2.32363 2.67544 2.32707 2.67031 2.32942 2.6646C2.33177 2.6589 2.33299 2.65275 2.33299 2.64654C2.33299 2.64034 2.33177 2.6342 2.32942 2.6285C2.32707 2.62279 2.32363 2.61766 2.31931 2.61339L2.2044 2.46627C2.21614 2.46573 2.22723 2.46048 2.23535 2.4516C2.24347 2.44272 2.248 2.4309 2.24799 2.41861L2.27375 2.39167L2.42036 2.53465C2.42444 2.53917 2.42935 2.54277 2.4348 2.54523C2.44025 2.54768 2.44613 2.54896 2.45207 2.54896C2.458 2.54896 2.46388 2.54768 2.46933 2.54523C2.47478 2.54277 2.47969 2.53917 2.48377 2.53465C2.492 2.52576 2.4966 2.51388 2.4966 2.5015C2.4966 2.48913 2.492 2.47723 2.48377 2.46834L2.34111 2.32951L2.40848 2.25698L2.52736 2.39582C2.53085 2.40172 2.53552 2.40676 2.54107 2.41057C2.54661 2.41438 2.55288 2.41689 2.55944 2.41791C2.566 2.41892 2.5727 2.41842 2.57906 2.41645C2.58542 2.41448 2.5913 2.41109 2.59627 2.4065C2.60125 2.40191 2.6052 2.39623 2.60786 2.38988C2.61052 2.38352 2.61183 2.37663 2.61168 2.36969C2.61153 2.36276 2.60994 2.35595 2.60701 2.34972C2.60408 2.3435 2.59989 2.33802 2.59472 2.33366L2.47386 2.19068L2.49962 2.16167L2.60067 2.2632C2.60474 2.26772 2.60966 2.27132 2.61511 2.27378C2.62056 2.27623 2.62643 2.27751 2.63237 2.27751C2.63831 2.27751 2.64418 2.27623 2.64963 2.27378C2.65508 2.27132 2.66 2.26772 2.66407 2.2632C2.67201 2.25375 2.67639 2.2416 2.67639 2.22902C2.67639 2.21643 2.67201 2.20427 2.66407 2.19482L2.56302 2.09329L2.6185 2.03527L2.70766 2.13266C2.71174 2.13717 2.71665 2.14077 2.7221 2.14323C2.72755 2.14569 2.73343 2.14696 2.73936 2.14696C2.7453 2.14696 2.75117 2.14569 2.75662 2.14323C2.76207 2.14077 2.76699 2.13717 2.77107 2.13266C2.7793 2.12377 2.7839 2.11188 2.7839 2.09951C2.7839 2.08713 2.7793 2.07524 2.77107 2.06635L2.67992 1.96689L2.77304 1.86536L2.9058 1.99796C2.91456 2.00621 2.92604 2.01058 2.93783 2.01015C2.94961 2.00973 2.96077 2.00456 2.96898 1.99571C2.97718 1.98686 2.9818 1.97502 2.98184 1.96269C2.98188 1.95036 2.97735 1.9385 2.9692 1.92959L2.84239 1.79697L2.87806 1.7576L2.93948 1.69336L3.04053 1.82391C3.04903 1.83252 3.0604 1.83733 3.07223 1.83733C3.08406 1.83733 3.09543 1.83252 3.10393 1.82391C3.10841 1.82009 3.11212 1.81537 3.11484 1.81004C3.11756 1.8047 3.11924 1.79884 3.11978 1.79282C3.12055 1.78655 3.12008 1.78019 3.11837 1.77413C3.11667 1.76807 3.11377 1.76243 3.10988 1.7576L3.00288 1.62291L3.04053 1.58976L3.16931 1.72238C3.17339 1.72689 3.1783 1.73049 3.18375 1.73295C3.1892 1.73541 3.19508 1.73667 3.20102 1.73667C3.20695 1.73667 3.21283 1.73541 3.21828 1.73295C3.22373 1.73049 3.22864 1.72689 3.23272 1.72238C3.24095 1.71349 3.24555 1.70159 3.24555 1.68922C3.24555 1.67684 3.24095 1.66496 3.23272 1.65607L3.10393 1.52345L3.1713 1.453L3.30207 1.58976C3.30614 1.59427 3.31105 1.59787 3.31651 1.60033C3.32196 1.60279 3.32783 1.60406 3.33377 1.60406C3.33971 1.60406 3.34557 1.60279 3.35103 1.60033C3.35648 1.59787 3.3614 1.59427 3.36547 1.58976C3.3737 1.58087 3.3783 1.56898 3.3783 1.55661C3.3783 1.54423 3.3737 1.53234 3.36547 1.52345L3.23866 1.38254L3.30999 1.31002L3.4467 1.47164C3.4552 1.48025 3.46657 1.48506 3.4784 1.48506C3.49024 1.48506 3.50161 1.48025 3.51011 1.47164C3.51448 1.4672 3.51796 1.46188 3.52033 1.45601C3.5227 1.45014 3.52393 1.44383 3.52393 1.43746C3.52393 1.43108 3.5227 1.42476 3.52033 1.41889C3.51796 1.41302 3.51448 1.4077 3.51011 1.40326L3.37339 1.24164L3.3833 1.23128L3.50812 1.37839C3.51161 1.3843 3.51629 1.38933 3.52184 1.39314C3.52738 1.39696 3.53365 1.39946 3.54021 1.40048C3.54677 1.40149 3.55347 1.40101 3.55983 1.39904C3.56619 1.39706 3.57206 1.39366 3.57704 1.38907C3.58201 1.38448 3.58597 1.37881 3.58863 1.37245C3.59129 1.3661 3.59259 1.35921 3.59244 1.35228C3.59229 1.34534 3.5907 1.33852 3.58777 1.3323C3.58485 1.32607 3.58066 1.32059 3.57549 1.31623L3.44868 1.16704L3.47246 1.14218L4.22141 1.87986C4.15008 1.97311 3.84693 2.2487 3.71418 2.36888L3.70428 2.37303ZM2.91174 1.5794L2.85824 1.63534C2.81861 1.46542 2.78097 1.29759 2.74729 1.13803L2.79682 1.0883L2.91174 1.5794ZM2.87211 1.01163L3.01081 0.87073L3.09402 1.38669L2.98703 1.50066L2.87211 1.01163ZM2.78493 1.71408L2.68389 1.82391C2.65219 1.64778 2.61652 1.47579 2.57689 1.31002L2.672 1.2147C2.71955 1.38254 2.75719 1.55039 2.79682 1.70994L2.78493 1.71408ZM2.60859 1.90473L2.55312 1.96481L2.43027 1.45714L2.5016 1.38669C2.5551 1.55661 2.59076 1.73066 2.62048 1.90058L2.60859 1.90473ZM2.47782 2.04356L2.36489 2.16374L2.24997 1.64156L2.35498 1.53381L2.47782 2.04356ZM2.27969 2.25077L2.20044 2.33366L2.03995 1.85085L2.16477 1.72445L2.27969 2.25077ZM2.12911 2.40618L2.08948 2.44555L2.05184 2.48285C2.0023 2.31915 1.94683 2.1596 1.8854 2.00626L1.96862 1.92337L2.12911 2.40618ZM1.97853 2.55331L1.92503 2.60511C1.87153 2.44141 1.81606 2.28393 1.76058 2.13473L1.81606 2.0767C1.89927 2.22175 1.95277 2.38132 2.00032 2.54088L1.97853 2.55331ZM1.8537 2.67556L1.84181 2.68799L1.72293 2.56574C1.72406 2.56028 1.72406 2.55462 1.72293 2.54916L1.65358 2.27356V2.26113L1.72095 2.19274C1.7685 2.34608 1.822 2.50357 1.87549 2.66312L1.8537 2.67556ZM4.14414 1.17533C4.1975 1.36304 4.22551 1.55763 4.22735 1.75345L3.69239 1.22506L3.65871 1.19398C3.63691 1.17326 3.61314 1.15047 3.59332 1.12767H3.58341C3.55857 1.09064 3.5423 1.04807 3.53586 1.00334C3.52099 0.939858 3.50974 0.875509 3.50218 0.81063C3.48999 0.713015 3.48272 0.614802 3.48039 0.51639C3.71423 0.721731 3.93589 0.941784 4.14414 1.17533ZM3.38925 0.493599C3.39283 0.674853 3.4134 0.855297 3.45067 1.03235H3.43878L3.35754 1.11109C3.33575 0.926672 3.31792 0.742247 3.30603 0.561971L3.38925 0.493599ZM3.10195 0.783691L3.21489 0.669726C3.22677 0.854146 3.2446 1.03649 3.26838 1.21263L3.18517 1.29965L3.10195 0.783691ZM1.184 2.2114L1.09286 2.30465L1.07503 2.21347L1.184 2.2114ZM0.98587 2.2114L1.01955 2.37509L0.940297 2.45591C0.935847 2.37435 0.925246 2.29329 0.908595 2.21347L0.98587 2.2114ZM0.817454 2.2114C0.840824 2.31887 0.853441 2.4286 0.8551 2.5388L0.785752 2.60925C0.781761 2.47606 0.765843 2.34356 0.738202 2.21347L0.817454 2.2114ZM0.304286 2.75845V2.55123L0.343915 2.49321C0.356416 2.58033 0.363032 2.66828 0.363724 2.75637L0.304286 2.75845ZM0.450904 2.73151C0.450693 2.61253 0.439416 2.49386 0.417224 2.37717L0.478645 2.28807C0.508455 2.42767 0.525698 2.56989 0.530156 2.71285L0.450904 2.73151ZM0.557898 2.21968H0.647061C0.680359 2.36632 0.696985 2.51656 0.696595 2.66727L0.619319 2.69214C0.611625 2.53573 0.590402 2.38038 0.555915 2.22798L0.557898 2.21968ZM0.787735 3.20189C0.641116 3.0299 0.542046 2.8952 0.48855 2.81853L0.551954 2.80403C0.608305 2.95415 0.703702 3.08479 0.827359 3.18116C0.838242 3.18527 0.850161 3.18527 0.861044 3.18116C0.866989 3.18047 0.872719 3.17845 0.877848 3.17523C0.882977 3.17201 0.887382 3.16768 0.890763 3.16252C0.897031 3.15387 0.900426 3.14332 0.900426 3.13247C0.900426 3.12162 0.897031 3.11106 0.890763 3.10242C0.850045 3.07095 0.812828 3.03481 0.779808 2.99467C0.726683 2.93273 0.682615 2.8629 0.649039 2.78746L0.732258 2.76258C0.881289 2.99287 1.04339 3.2136 1.21768 3.4236L1.2692 3.4837C1.76454 4.05452 2.33972 4.54357 2.97515 4.9342C3.57382 5.29369 4.22316 5.55176 4.89903 5.69882C3.3065 5.35681 1.8631 4.48351 0.785752 3.21017L0.787735 3.20189ZM4.07479 6.77218C4.07605 6.75148 4.07605 6.73072 4.07479 6.71002L4.06489 6.10702C4.09415 6.31899 4.10476 6.53332 4.09658 6.74732L4.07479 6.77218ZM4.19763 6.66028C4.20215 6.44796 4.18756 6.23567 4.15404 6.02621L4.18376 6.00134C4.20952 6.20855 4.23726 6.40335 4.26698 6.59398L4.19763 6.66028ZM4.34822 6.52352C4.31652 6.31631 4.28878 6.12153 4.26302 5.92675L4.30859 5.8853L4.43936 6.43857L4.34822 6.52352ZM4.51663 6.36811L4.38586 5.81278L4.4136 5.78792L4.48493 5.8045L4.61966 6.26243L4.51663 6.36811ZM4.796 6.11532L4.69693 6.20442L4.584 5.82936C4.6375 5.84179 4.68901 5.85215 4.7425 5.86044C4.76628 5.93918 4.79204 6.01792 4.8178 6.09459C4.81441 6.09485 4.81111 6.09581 4.80808 6.09741C4.80505 6.09901 4.80235 6.10123 4.80014 6.10392C4.79793 6.10662 4.79625 6.10975 4.7952 6.11313C4.79415 6.11651 4.79375 6.12006 4.79402 6.1236L4.796 6.11532ZM4.89111 6.02828L4.84355 5.87702C4.903 5.87702 4.9664 5.89359 5.0298 5.89981L4.89111 6.02828ZM4.09857 6.86957L4.15801 6.81569L4.34227 6.9794C4.3469 6.98347 4.35228 6.98649 4.35807 6.98828C4.36387 6.99006 4.36996 6.99057 4.37595 6.98976C4.38208 6.9896 4.3881 6.98804 4.39358 6.98518C4.39906 6.98231 4.40386 6.97821 4.40766 6.97318C4.41477 6.96453 4.41868 6.95351 4.41868 6.9421C4.41868 6.93069 4.41477 6.91966 4.40766 6.91101L4.22934 6.77011L4.33039 6.67686L4.44134 6.8012C4.44523 6.80596 4.45011 6.80974 4.4556 6.81225C4.46109 6.81476 4.46705 6.81594 4.47304 6.81569C4.47889 6.81635 4.4848 6.81557 4.49031 6.81341C4.49581 6.81125 4.50076 6.80778 4.50475 6.80326C4.50906 6.799 4.5125 6.79386 4.51485 6.78816C4.5172 6.78246 4.51842 6.77632 4.51842 6.77011C4.51842 6.7639 4.5172 6.75776 4.51485 6.75206C4.5125 6.74636 4.50906 6.74122 4.50475 6.73696L4.39577 6.6147L4.477 6.54218L4.60381 6.65614C4.60843 6.66022 4.61381 6.66324 4.61961 6.66502C4.62541 6.66681 4.6315 6.66731 4.63749 6.6665C4.64334 6.66634 4.64907 6.66476 4.65422 6.66189C4.65938 6.65901 4.66383 6.65491 4.66721 6.64992C4.67148 6.64584 4.67488 6.64088 4.67721 6.63535C4.67954 6.62982 4.68075 6.62385 4.68075 6.61781C4.68075 6.61177 4.67954 6.60578 4.67721 6.60026C4.67488 6.59473 4.67148 6.58976 4.66721 6.58569L4.55031 6.48L4.65335 6.38469L4.80591 6.50694C4.81481 6.5147 4.82603 6.51895 4.83761 6.51895C4.8492 6.51895 4.86041 6.5147 4.86931 6.50694C4.87673 6.49763 4.88078 6.48591 4.88078 6.47379C4.88078 6.46168 4.87673 6.44994 4.86931 6.44063L4.73062 6.32874L4.83563 6.23342L4.97432 6.3619C4.98283 6.37051 4.99419 6.37532 5.00603 6.37532C5.01786 6.37532 5.02922 6.37051 5.03772 6.3619C5.04204 6.35764 5.04548 6.35249 5.04783 6.34679C5.05018 6.34109 5.0514 6.33495 5.0514 6.32874C5.0514 6.32253 5.05018 6.3164 5.04783 6.31069C5.04548 6.30499 5.04204 6.29985 5.03772 6.29559L4.91488 6.17955C4.92106 6.17433 4.92527 6.16698 4.92677 6.15882L4.95451 6.13396C4.95451 6.14639 4.97432 6.1609 4.98621 6.17333C5.02271 6.21529 5.06176 6.25474 5.10311 6.29145C5.11412 6.29473 5.12578 6.29473 5.13679 6.29145C5.14859 6.28936 5.15921 6.2827 5.16652 6.27279C5.17462 6.26425 5.17917 6.25271 5.17917 6.24068C5.17917 6.22865 5.17462 6.21709 5.16652 6.20855C5.12848 6.17605 5.09272 6.14074 5.05952 6.10289L5.02782 6.06351L5.10707 5.99098L5.30521 6.14432C5.31417 6.15041 5.32489 6.15303 5.33551 6.15169C5.34612 6.15035 5.35595 6.14514 5.36327 6.137C5.37059 6.12885 5.37493 6.11827 5.37555 6.10711C5.37616 6.09595 5.373 6.08492 5.36663 6.07595L5.19227 5.93918H5.30719L5.40824 6.05108C5.41669 6.05991 5.428 6.06508 5.43994 6.06558C5.45164 6.06584 5.46299 6.06139 5.47164 6.05314C5.48 6.04391 5.48466 6.03168 5.48466 6.01896C5.48466 6.00624 5.48 5.99401 5.47164 5.98477L5.4439 5.95576C5.56374 5.96165 5.68384 5.9554 5.80253 5.9371H5.89367C6.1355 5.92799 6.37646 5.90168 6.61488 5.85836L6.67828 5.94748C6.68024 5.95604 6.68435 5.9639 6.69017 5.97027H6.70008L6.84868 6.17748C6.85506 6.18466 6.86333 6.18971 6.87245 6.19199L7.07059 6.23549L5.33295 7.84555L5.26558 7.91186L5.24973 7.92844C4.84778 7.60231 4.4647 7.2515 4.10253 6.87786L4.09857 6.86957ZM6.80509 5.82729H6.83679H6.91803L6.80905 6.01585L6.74367 5.92467L6.80509 5.82729ZM7.00322 5.88945L7.06068 5.94748L6.95567 6.11117L6.89029 6.09459L7.00322 5.88945ZM7.12805 6.01171L7.19343 6.07387L7.14192 6.14847L7.05077 6.13189L7.12805 6.01171ZM7.24099 6.16505L7.26278 6.13603L7.30835 6.17541L7.24099 6.16505ZM7.42723 6.15262C7.32024 6.06559 7.21721 5.97441 7.12012 5.87909C7.07257 5.83143 7.027 5.7817 6.98341 5.73404C6.93982 5.68638 6.90812 5.71125 6.87444 5.72161C6.86135 5.72424 6.8479 5.72424 6.83481 5.72161H6.80509C6.79793 5.71703 6.7897 5.7146 6.78131 5.7146C6.77292 5.7146 6.7647 5.71703 6.75754 5.72161H6.73971H6.66639C6.34351 5.7406 6.01975 5.73575 5.69752 5.7071C5.37659 5.67786 5.0581 5.62454 4.74449 5.54754C4.43404 5.47093 4.12941 5.37051 3.83307 5.24709C2.60545 4.72796 1.55018 3.84404 0.79764 2.70457L1.31675 2.2114L1.37223 2.27771L1.45743 2.37509C2.12307 3.14105 2.9058 3.78599 3.77363 4.28354C3.90758 4.35982 4.04513 4.42898 4.18575 4.49075L4.41954 4.59436L4.53644 4.64202C4.76033 4.73526 4.99216 4.81815 5.22794 4.90103H5.24379C5.39437 4.95491 5.55288 5.00672 5.71733 5.06059L6.00462 5.15177H6.02245L6.28796 5.23051L6.32957 5.24294C6.37514 5.25538 6.4207 5.26988 6.46826 5.27817C6.47675 5.27945 6.48541 5.27841 6.4934 5.27514C6.50139 5.27187 6.50843 5.26649 6.51383 5.25952C6.51818 5.25165 6.52047 5.24271 6.52047 5.23362C6.52047 5.22453 6.51818 5.21559 6.51383 5.20772C6.34343 4.90519 6.27211 4.78292 6.24437 4.73319L6.33353 4.7477C6.34247 4.75119 6.35232 4.75119 6.36127 4.7477C6.93158 4.84303 7.51275 4.84303 8.08306 4.7477C7.81775 5.18908 7.59791 5.65863 7.42723 6.14847V6.15262ZM6.23843 4.90933L6.27211 4.96734L6.19285 5.09582L6.15917 5.04609L6.23843 4.90933ZM6.32362 5.05852L6.38306 5.1642L6.27805 5.13311L6.32362 5.05852ZM9.96137 5.28646C9.72755 5.23125 9.51823 5.09552 9.36697 4.90103C9.25989 4.77638 9.17531 4.63246 9.11732 4.47625C9.07943 4.37308 9.05995 4.26351 9.05986 4.15299C9.06372 4.14645 9.06577 4.13893 9.06577 4.13124C9.06577 4.12356 9.06372 4.11601 9.05986 4.10947C9.07238 3.88346 9.15676 3.66831 9.29961 3.4982C9.46348 3.29882 9.67564 3.14922 9.91382 3.06512C10.0872 3.00135 10.2726 2.98148 10.4547 3.00711C10.4649 3.01547 10.4775 3.01986 10.4904 3.01954H10.5023C10.6216 3.04227 10.7354 3.08945 10.8371 3.15837L10.8609 3.17701C10.669 3.06204 10.4458 3.01754 10.2269 3.05061C9.92812 3.08833 9.65167 3.23509 9.44622 3.46504C9.32048 3.60852 9.23147 3.78293 9.18748 3.97205C9.14348 4.16116 9.14593 4.35885 9.19459 4.54671C9.23447 4.68314 9.30206 4.80895 9.39273 4.91554C9.47013 5.00977 9.56461 5.08703 9.67071 5.14286C9.77681 5.1987 9.89243 5.23201 10.0109 5.24087C10.1999 5.23631 10.3851 5.18467 10.5512 5.09025C10.7173 4.99583 10.8595 4.86135 10.9659 4.69797C11.1147 4.50804 11.2119 4.27971 11.2473 4.03695C11.2502 3.99626 11.2502 3.95539 11.2473 3.91469C11.2584 4.04751 11.2442 4.18132 11.2057 4.3084C11.065 4.78707 10.5122 5.39007 9.96137 5.28646Z" fill="#4D3694"/>
</svg>
