<svg width="3" height="2" viewBox="0 0 3 2" fill="none" xmlns="http://www.w3.org/2000/svg">
<path d="M0.653662 0.976622C0.649825 0.984666 0.647827 0.993534 0.647827 1.00252C0.647827 1.01151 0.649825 1.02038 0.653662 1.02843C0.673971 1.08585 0.687287 1.14573 0.693291 1.20663C0.700482 1.31384 0.735413 1.41697 0.794342 1.50502C0.869606 1.57235 0.966915 1.60653 1.06579 1.60034C1.11792 1.60342 1.17018 1.60342 1.22231 1.60034C1.2606 1.59833 1.29895 1.59833 1.33723 1.60034H1.35704C1.60405 1.62135 1.84914 1.66222 2.09014 1.72259H2.10203C2.11651 1.72347 2.13083 1.71895 2.14243 1.70985C2.15404 1.70075 2.16218 1.68765 2.16543 1.67286C2.16635 1.66322 2.16635 1.6535 2.16543 1.64385C2.16543 1.59205 2.07627 0.844006 2.07429 0.783914C2.07231 0.723822 2.02079 0.690668 1.92569 0.686523C1.50691 0.732339 1.09305 0.818348 0.689331 0.943467C0.681462 0.945999 0.674206 0.950268 0.668053 0.955988C0.6619 0.961708 0.656989 0.968746 0.653662 0.976622ZM1.92371 0.814995H1.95145C1.96472 1.06636 1.99117 1.31678 2.0307 1.56511C1.81209 1.5141 1.59027 1.47947 1.36695 1.4615H1.33921H1.21439H1.06777C1.00305 1.4675 0.938583 1.44749 0.887466 1.40556C0.846803 1.33593 0.822998 1.25697 0.818117 1.17555C0.818117 1.12996 0.802266 1.08023 0.792359 1.03672C1.1625 0.928107 1.54108 0.853911 1.92371 0.814995Z" fill="#963493"/>
</svg>
