<svg width="2" height="3" viewBox="0 0 2 3" fill="none" xmlns="http://www.w3.org/2000/svg">
<path d="M0.857707 1.0024C0.900766 0.950037 0.959371 0.914289 1.02415 0.900863C1.03049 0.894917 1.03584 0.887914 1.04 0.880141C1.09645 0.81552 1.12817 0.73144 1.12915 0.64392C1.11959 0.609368 1.10159 0.578017 1.07692 0.552948C1.05225 0.527878 1.02178 0.509954 0.988483 0.500942C0.976206 0.497082 0.963114 0.497082 0.950837 0.500942C0.797423 0.529123 0.657706 0.610949 0.554567 0.73302C0.456795 0.843919 0.388486 0.979653 0.356432 1.12673C0.314304 1.32286 0.341756 1.52832 0.433696 1.70485C0.45848 1.75004 0.487698 1.7924 0.520876 1.83125C0.555254 1.86732 0.591652 1.90122 0.629859 1.93279C0.704248 1.99079 0.78725 2.03559 0.875545 2.06541C1.01441 2.11406 1.16465 2.11406 1.30351 2.06541C1.37495 2.03687 1.44177 1.99704 1.50165 1.94729C1.62339 1.8452 1.71649 1.71061 1.77111 1.55773C1.80051 1.47671 1.81788 1.39145 1.82262 1.30493C1.82462 1.22678 1.81321 1.14887 1.78894 1.07492C1.76934 1.00717 1.73151 0.946745 1.67997 0.900863C1.59341 0.813584 1.47915 0.762687 1.35899 0.757885C1.30184 0.751978 1.24423 0.762735 1.19256 0.788966C1.17274 0.807615 1.19256 0.830408 1.25398 0.859418L1.30549 0.884289C1.32887 0.893171 1.35142 0.904269 1.37286 0.917444C1.4273 0.946836 1.47419 0.98947 1.50958 1.04177C1.54361 1.12108 1.55292 1.20958 1.53621 1.29474C1.5195 1.3799 1.4776 1.4574 1.41645 1.51629C1.37615 1.56634 1.32706 1.60784 1.27181 1.63854C1.25233 1.64981 1.23173 1.65884 1.21039 1.66548C1.14306 1.69962 1.0658 1.70555 0.994421 1.68206C0.947184 1.66493 0.902999 1.63973 0.863657 1.60746C0.845825 1.59089 0.827991 1.57845 0.81214 1.56188C0.796289 1.5453 0.784403 1.53079 0.776477 1.508C0.733095 1.41911 0.721832 1.31684 0.744769 1.21997C0.760339 1.13711 0.799744 1.06119 0.857707 1.0024Z" fill="#27B361"/>
</svg>
