<svg width="2" height="2" viewBox="0 0 2 2" fill="none" xmlns="http://www.w3.org/2000/svg">
<path d="M0.799181 0.756201C0.829089 0.715736 0.870844 0.686619 0.918063 0.67331C0.925866 0.663742 0.931233 0.652264 0.933658 0.639947C0.936082 0.627629 0.935488 0.614879 0.931934 0.602865C0.928083 0.594827 0.922498 0.587833 0.915621 0.582439C0.908744 0.577045 0.900761 0.573393 0.892305 0.571777H0.888344C0.81943 0.592456 0.758449 0.63522 0.713985 0.694039C0.65861 0.770711 0.621889 0.860317 0.60699 0.955131C0.589996 1.04447 0.582688 1.13553 0.585198 1.22658C0.586092 1.31802 0.596725 1.40906 0.616901 1.49803C0.63714 1.58979 0.671966 1.67735 0.719929 1.75705C0.73529 1.78209 0.755627 1.80339 0.77956 1.81948C0.803493 1.83557 0.830461 1.84607 0.858625 1.85028C0.88742 1.85151 0.91608 1.84558 0.942256 1.83297C0.968432 1.82036 0.991373 1.80144 1.0092 1.77776C1.06982 1.70535 1.11267 1.61859 1.13403 1.52497C1.1592 1.43556 1.17057 1.34252 1.16772 1.24937C1.16659 1.22014 1.16327 1.19104 1.1578 1.16235C1.1578 1.14162 1.15781 1.12297 1.14394 1.10224V1.08774L1.12809 1.05044C1.11053 1.01342 1.08707 0.979788 1.05874 0.950983L1.04487 0.93855L1.02704 0.92197L0.989395 0.897105L0.971564 0.886747L0.947782 0.91576C0.937494 0.930234 0.928227 0.945464 0.920047 0.961341C0.920047 0.971702 0.920047 0.973771 0.920047 0.971699C0.899683 1.01111 0.889444 1.05538 0.890328 1.10017C0.890328 1.11675 0.916084 1.08982 0.96958 1.00693L0.987412 0.98828C0.987412 0.98828 0.987409 0.988283 0.997316 1.00486C1.00628 1.0138 1.01366 1.02431 1.01911 1.03593C1.02844 1.05461 1.03639 1.07402 1.04289 1.09396V1.11675L1.05478 1.16441V1.18927V1.22036C1.06101 1.30245 1.05432 1.38505 1.03496 1.46487C1.017 1.53996 0.984645 1.61045 0.939861 1.67208C0.924015 1.69718 0.90013 1.71555 0.872496 1.72389C0.856645 1.72389 0.834847 1.72389 0.813052 1.68659C0.770048 1.62008 0.739774 1.54549 0.723895 1.46694C0.702272 1.38601 0.6916 1.30231 0.692193 1.21828C0.689111 1.13427 0.695093 1.05017 0.710024 0.967563C0.723611 0.890814 0.754138 0.818436 0.799181 0.756201Z" fill="#ED222B"/>
</svg>
