<svg width="9" height="9" viewBox="0 0 9 9" fill="none" xmlns="http://www.w3.org/2000/svg">
<path d="M2.05366 1.82482C1.54842 3.18829 0.702381 6.21362 0.666717 6.32551C0.39131 7.15437 0.680584 7.51907 1.53058 7.89827C2.10517 8.15521 2.68769 8.41838 3.2821 8.62352C4.22522 8.95092 4.55412 8.59658 4.79189 7.7698C4.90086 7.51907 5.11484 6.89328 5.34666 6.20119C5.22079 6.03387 5.10562 5.85805 5.00191 5.67486C5.00191 5.67486 5.00191 5.65414 5.01776 5.66036C5.2159 5.83234 6.17487 6.90364 6.47801 7.2414C6.69596 7.48177 6.76134 7.49006 6.80691 7.19581C6.82474 7.08392 6.84455 6.97202 6.86437 6.86013C6.9139 6.5721 7.01693 6.65291 7.2012 6.84355C7.50435 7.14815 7.8075 7.45483 8.12253 7.747C8.39992 8.00395 8.60796 8.20909 8.34444 7.63718C7.88477 6.64117 7.42905 5.64447 6.97731 4.64708C6.797 4.24923 6.72567 4.34248 6.65435 4.62843C6.61868 4.76519 6.58501 4.90403 6.55132 5.04286C6.49783 5.25007 6.42254 5.25007 6.27988 5.01385C6.16298 4.82321 5.75482 4.11661 5.68547 3.94255C5.68484 3.93892 5.68525 3.93517 5.68666 3.93178C5.68807 3.92839 5.6904 3.92551 5.69337 3.92352C5.69634 3.92152 5.69982 3.92049 5.70335 3.92056C5.70688 3.92063 5.71031 3.92179 5.7132 3.9239C5.81208 4.02617 5.90473 4.13483 5.9906 4.24923C6.06985 4.00886 6.13325 3.81408 6.17288 3.69804C6.5533 2.59773 6.37101 2.27862 5.77661 1.90771C5.2892 1.60518 3.6526 1.16795 3.39899 1.07885C2.67184 0.857133 2.34096 1.05192 2.05366 1.82482ZM3.80715 7.44033C3.83291 7.44033 3.94585 7.49213 3.9716 7.50456C3.98082 7.52227 3.98429 7.54263 3.98151 7.56258L3.92604 7.74493C3.90622 7.8071 3.81904 7.77808 3.76555 7.75943H3.75366L3.50203 7.68484L1.8159 7.12121C1.78618 7.12121 1.6356 7.05698 1.59994 7.0404C1.56427 7.02382 1.48897 6.98653 1.46519 6.97409C1.44142 6.96166 1.40576 6.94094 1.4018 6.914C1.39784 6.88706 1.4018 6.87878 1.41171 6.87049C1.41768 6.85697 1.42296 6.84314 1.42755 6.82905C1.42755 6.82905 1.46124 6.75859 1.46916 6.7358C1.50681 6.67985 1.60587 6.7358 1.64154 6.74616C1.7089 6.76481 1.78023 6.77517 1.83967 6.79796L1.89714 6.82697C1.89714 6.82697 1.95063 6.83733 1.95856 6.83941L2.85214 7.13779C2.94922 7.17924 2.99282 7.19374 3.08595 7.22482C3.31975 7.30149 3.55751 7.36573 3.79131 7.43204L3.80715 7.44033ZM3.65261 5.9401C3.96764 6.11001 4.32626 6.54102 4.20144 6.94923C4.18558 7.00311 4.10832 7.17302 4.0251 7.15644L3.33955 6.96995L3.21274 6.92851C2.75109 6.79589 2.28349 6.68192 1.8258 6.52859L1.70692 6.48921C1.70692 6.48921 1.69108 6.47471 1.68712 6.47471L1.65342 6.44984C1.60389 6.41254 1.65343 6.14317 1.67126 6.09758C1.8694 5.47594 2.52522 5.49251 3.02254 5.65829C3.24324 5.73273 3.45736 5.82702 3.66251 5.9401H3.65261ZM2.64014 4.19743V4.21608C2.62627 4.24923 2.56881 4.39221 2.5589 4.42329C2.549 4.45437 2.45389 4.77763 2.43606 4.83772L2.83233 4.97241C2.85483 4.98004 2.8781 4.9849 2.90167 4.98691H2.91951C2.97718 4.84739 3.02615 4.70411 3.06613 4.55798C3.07226 4.54197 3.08352 4.52868 3.09797 4.52037C3.11242 4.51206 3.12917 4.50924 3.14539 4.51239L3.31975 4.57041C3.36928 4.58492 3.35936 4.69681 3.34747 4.73204L3.2385 5.09259C3.2385 5.09259 3.30191 5.12367 3.33163 5.13403C3.46636 5.17755 4.27673 5.43657 4.35202 5.46972L4.37184 5.40341C4.42377 5.24578 4.46742 5.08529 4.5026 4.92267L4.51449 4.88745V4.85637H4.52638L4.81963 4.95376C4.83746 4.95376 4.73244 5.22728 4.7265 5.2853L4.60564 5.68108C4.5462 5.88829 4.42335 5.79505 4.2906 5.78883C3.84083 5.66865 3.48419 5.53189 3.04235 5.39927L2.80855 5.32053H2.75902C2.58466 5.25836 2.4103 5.21278 2.23792 5.15476L2.13292 5.11953L2.03781 5.05944C2.01205 5.03664 2.03781 4.97448 2.03781 4.95168L2.08536 4.79213C2.13093 4.64294 2.1884 4.49789 2.23199 4.35076C2.24586 4.30932 2.24585 4.26995 2.25773 4.22644C2.25773 4.22644 2.30529 4.1104 2.32114 4.11661L2.64014 4.19743ZM5.2575 3.28983C5.26043 3.3402 5.26043 3.39072 5.2575 3.44109L5.24561 3.48254C5.24561 3.50948 5.23175 3.5302 5.20401 3.53434C5.00591 3.55052 4.80676 3.54566 4.6096 3.51984C4.58979 3.57371 4.54818 3.68353 4.54025 3.71047C4.53232 3.73741 4.46694 3.96327 4.43722 4.06481C4.66705 4.19328 4.88302 4.31554 4.94642 4.35905C4.96886 4.37465 4.98669 4.3965 4.99789 4.42213C5.0091 4.44776 5.01323 4.47615 5.00983 4.5041C4.992 4.56212 4.95039 4.68438 4.8751 4.68438L4.80576 4.66158C3.0701 3.64209 2.8244 3.48668 2.60447 3.33749C2.50342 3.25253 2.51135 3.17379 2.549 3.04946L2.56485 2.99558C2.5864 2.98251 2.61152 2.9774 2.63618 2.98108C2.67184 2.98108 2.77487 2.98108 2.77883 2.98108C3.75167 3.09297 3.99736 3.13235 4.11624 3.13235C4.2237 3.13653 4.33085 3.14691 4.43722 3.16343L5.10098 3.20901C5.13155 3.20938 5.16179 3.2157 5.19014 3.22766C5.2159 3.23802 5.24759 3.24839 5.2575 3.28983ZM3.69818 2.46097L3.18105 2.28691C3.14737 2.27655 3.01462 2.21439 2.98291 2.20195C2.90168 2.16673 2.89573 2.13979 2.92941 2.04447C2.94514 2.00508 2.96369 1.96698 2.9849 1.9305C3.02849 1.8414 3.13151 1.9305 3.19887 1.9305L3.43465 2.00925C3.87253 2.15637 4.31636 2.30763 4.75027 2.46512C4.8533 2.50449 4.94841 2.55215 5.04549 2.59359C5.05249 2.61295 5.05249 2.63432 5.04549 2.65368L4.99596 2.81531C4.99596 2.84225 4.91868 2.83188 4.90878 2.83396C4.49894 2.7374 4.09475 2.61633 3.69818 2.47133V2.46097ZM5.32685 2.62467L5.52499 2.70341C5.5765 2.74693 5.55074 2.85882 5.52499 2.91063C5.49328 3.01423 5.3427 2.96865 5.27335 2.94585C5.204 2.92306 5.11881 2.88576 5.15051 2.78423C5.1723 2.71584 5.21192 2.57701 5.30505 2.61431L5.32685 2.62467Z" fill="#6FC5A9"/>
</svg>
