<svg width="4" height="4" viewBox="0 0 4 4" fill="none" xmlns="http://www.w3.org/2000/svg">
<path d="M3.18239 1.47774C2.87924 1.50675 2.45523 1.59171 2.45523 1.59171L2.51269 1.5109C2.62959 1.34927 2.74649 1.19593 2.73262 1.20629C2.80416 1.1215 2.86054 1.02394 2.89905 0.918266C2.89905 0.878895 2.82178 0.918268 2.62562 1.08818C2.38786 1.2954 2.0867 1.61865 2.0867 1.61865L2.00943 1.71604L1.8747 1.75334C1.83111 1.63315 1.7895 1.51297 1.74393 1.39486C1.68449 1.24152 1.62306 1.08818 1.55768 0.936915C1.55168 0.930641 1.54503 0.925084 1.53787 0.92034C1.36549 0.831238 1.31001 0.96385 1.29812 1.03845C1.29812 1.05088 1.29812 1.05295 1.29812 1.05917C1.36153 1.20629 1.42096 1.35549 1.4804 1.50468C1.52267 1.61381 1.5623 1.72363 1.59929 1.83415L1.11188 1.48189L0.729478 1.20215H0.705703C0.685799 1.2028 0.666236 1.20773 0.648242 1.21665L0.602669 1.23738C0.57862 1.24762 0.558438 1.26581 0.545208 1.28918C0.537814 1.31218 0.534885 1.33648 0.536586 1.36068C0.538287 1.38487 0.544588 1.40847 0.555119 1.43009C0.555956 1.43353 0.557438 1.43677 0.559478 1.43961C0.561519 1.44246 0.564077 1.44485 0.567006 1.44666L0.953371 1.72847L1.25057 1.93569C1.05244 1.99578 0.854304 2.06002 0.668057 2.13047C0.592766 2.15741 0.517472 2.18642 0.44218 2.21957C0.360688 2.25157 0.282384 2.29182 0.208383 2.33975C0.200944 2.34877 0.194311 2.35848 0.188568 2.36876C0.183052 2.38365 0.178418 2.39887 0.174697 2.41435C0.172074 2.42873 0.172074 2.44349 0.174697 2.45787C0.174863 2.47936 0.18263 2.50002 0.196495 2.51588C0.214042 2.53661 0.237791 2.55049 0.26386 2.55526C0.282742 2.5572 0.301353 2.56137 0.319338 2.56769C0.330514 2.57821 0.344211 2.58538 0.358967 2.58841H0.370855C0.43011 2.55092 0.492438 2.51902 0.557102 2.49309C0.626449 2.46408 0.697773 2.43507 0.769102 2.4102C1.02668 2.31489 1.2902 2.232 1.56164 2.15119L1.63495 2.20506C1.43285 2.46477 1.23472 2.72518 1.04055 2.98626L0.725512 3.37168C0.724717 3.37995 0.724717 3.38828 0.725512 3.39654C0.725512 3.60376 0.860243 3.5934 0.923646 3.56854C0.935535 3.56854 0.937515 3.56853 0.941478 3.55817L1.23472 3.17482C1.42097 2.93031 1.60788 2.68788 1.79544 2.44751L1.80733 2.48688L1.87073 2.70859C1.87073 2.70859 1.93612 2.90338 1.99754 3.09401C2.05896 3.28465 2.11245 3.47529 2.11245 3.45871C2.2135 3.77161 2.31059 3.97053 2.267 3.43177C2.25313 3.27222 2.22539 3.07951 2.19963 2.92824C2.17388 2.77697 2.15208 2.66508 2.15208 2.66508L2.12831 2.58634L2.37795 2.77076L2.56024 2.90752L2.88716 3.12924C3.04963 3.23906 3.20616 3.34888 3.19427 3.33645C3.28016 3.40447 3.3767 3.45636 3.47959 3.48979C3.49742 3.48979 3.4994 3.46907 3.47959 3.42348C3.42843 3.34895 3.37071 3.27958 3.30721 3.21627C3.0952 2.98419 2.76234 2.69409 2.76234 2.69409L2.55034 2.53247L2.03519 2.15119L2.13821 2.01857L2.16992 1.97713L2.27691 1.94812L2.49288 1.88803L2.86537 1.7637C3.04964 1.70153 3.22993 1.64144 3.21408 1.64144C3.3189 1.61233 3.41766 1.56315 3.50534 1.4964C3.52119 1.46117 3.44591 1.44666 3.18239 1.47774Z" fill="#98E565"/>
</svg>
