<svg width="3" height="3" viewBox="0 0 3 3" fill="none" xmlns="http://www.w3.org/2000/svg">
<path d="M2.60241 0.791832C2.5935 0.788139 2.58358 0.788139 2.57467 0.791832C2.37877 0.889761 2.19003 1.00265 2.00999 1.12959C1.87302 1.22547 1.74076 1.32851 1.61372 1.43834C1.53249 1.50465 1.45521 1.5751 1.37794 1.64555C1.37794 1.64555 1.1798 1.85277 1.01337 2.05998C0.846934 2.2672 0.680508 2.47441 0.69834 2.45783C0.436802 2.8101 0.302062 3.07948 0.839008 2.61946C0.997515 2.48892 1.18376 2.32314 1.33236 2.20503C1.48096 2.08692 1.59192 1.99782 1.59192 1.99782C1.67712 1.917 1.76232 1.84033 1.8495 1.76574C1.96838 1.6642 2.09321 1.57096 2.21803 1.47978C2.38429 1.3637 2.55845 1.26051 2.73913 1.17103C2.74594 1.16272 2.75191 1.15369 2.75695 1.1441C2.87187 0.885078 2.70544 0.802193 2.60241 0.791832Z" fill="#F0E811"/>
</svg>
