<svg width="5" height="5" viewBox="0 0 5 5" fill="none" xmlns="http://www.w3.org/2000/svg">
<path d="M0.113852 2.57013C0.0900761 2.63644 0.0960245 2.66546 0.155465 2.61158C0.246607 2.66338 0.33774 2.71311 0.430863 2.76077C0.771655 2.93898 1.12038 3.09853 1.4691 3.25187L1.99217 3.48188L2.25172 3.59792L2.44986 3.68702L2.70941 3.79063C2.8382 3.8445 2.96105 3.89838 2.95313 3.89009C3.16315 3.97504 3.31571 4.00613 3.0086 3.78855C2.83028 3.65801 2.55686 3.50467 2.55686 3.50467L2.38448 3.42593C1.98821 3.24565 1.59194 3.07781 1.19567 2.8996C1.19567 2.86852 1.19567 2.82708 1.19567 2.77113C1.19567 2.58671 1.16198 2.32562 1.16198 2.32562L1.13425 2.16814C1.11246 2.02723 1.09066 1.88426 1.07085 1.74335C1.05698 1.64803 1.04509 1.55479 1.0332 1.46154C1.0332 1.46154 1.0332 1.45118 1.0332 1.44911C1.02561 1.44094 1.01694 1.43396 1.00744 1.42839C1.09462 1.28127 1.17982 1.13207 1.26303 0.982873C1.26303 1.01603 1.26303 1.04918 1.26303 1.08234C1.26303 1.11549 1.26303 1.1818 1.26303 1.23153C1.28142 1.56517 1.33051 1.89617 1.40965 2.21994L1.44136 2.35464C1.44136 2.35464 1.47305 2.4686 1.50673 2.58257C1.54042 2.69653 1.56817 2.80636 1.56817 2.78978C1.61968 2.97213 1.67713 3.09232 1.65732 2.77528C1.64741 2.58879 1.6058 2.32977 1.6058 2.32977L1.57014 2.17435C1.49272 1.86231 1.44495 1.54304 1.42749 1.22117C1.42749 1.17559 1.42749 1.12793 1.42749 1.08234C1.42749 1.03675 1.42749 0.993237 1.43937 0.94765C1.43997 0.94353 1.43997 0.939339 1.43937 0.935218C1.39975 0.870982 1.36012 0.866833 1.32842 0.879266C1.34823 0.846112 1.36606 0.810886 1.38587 0.775659L1.51665 0.52908L1.59788 0.589168C1.59788 0.686558 1.59788 0.78395 1.59788 0.88134C1.63871 1.40747 1.71686 1.92971 1.83168 2.44374L1.85942 2.57635C1.85942 2.57635 1.98226 3.04259 1.98028 3.02187C2.03576 3.20629 2.0952 3.32232 2.07143 3.00943C2.05954 2.82293 2.02387 2.56185 2.02387 2.56185L1.99217 2.40644C1.87957 1.90122 1.80276 1.38801 1.76234 0.870982V0.705207L1.78016 0.717639C1.91489 0.806742 2.05161 0.8917 2.1903 0.970441C2.16863 0.97783 2.1494 0.99148 2.13483 1.00981C2.13412 1.01144 2.13374 1.0132 2.13374 1.01499C2.13374 1.01678 2.13412 1.01855 2.13483 1.02018C2.12727 1.06956 2.12263 1.11939 2.12096 1.16937C2.12096 1.21703 2.12096 1.26676 2.12096 1.31649C2.13162 1.714 2.1747 2.10983 2.24974 2.49968L2.27154 2.63437C2.27154 2.63437 2.29927 2.75042 2.32503 2.86646C2.35079 2.9825 2.37655 3.09439 2.37655 3.08403C2.4241 3.27052 2.47562 3.39071 2.46769 3.07367C2.46769 2.88718 2.43797 2.62609 2.43797 2.62609L2.41221 2.4686C2.33882 2.08901 2.29641 1.70359 2.28541 1.31649C2.28541 1.2709 2.28541 1.22532 2.28541 1.17973C2.28541 1.13414 2.28541 1.08648 2.2973 1.04297C2.2984 1.0382 2.2984 1.03323 2.2973 1.02846C2.40231 1.08648 2.50732 1.1445 2.61233 1.19838L2.59252 1.22324C2.59098 1.22723 2.59098 1.23169 2.59252 1.23567C2.59252 1.33307 2.59252 1.43046 2.59252 1.52785C2.61233 1.84074 2.65393 2.14949 2.69554 2.45409L2.71536 2.59086C2.71536 2.59086 2.80651 3.0633 2.80651 3.04258C2.84812 3.23115 2.89963 3.35133 2.89764 3.04258C2.89764 2.85609 2.87982 2.59293 2.87982 2.59293L2.85801 2.43545C2.81641 2.13084 2.77679 1.82624 2.75698 1.52163C2.75698 1.44082 2.75698 1.35793 2.75698 1.27712L2.95511 1.37451L2.97294 1.6356C3.00266 1.98579 3.04624 2.33184 3.09181 2.67167L3.11163 2.80636C3.11163 2.80636 3.20278 3.28088 3.20278 3.26016C3.24835 3.44873 3.29986 3.56684 3.29391 3.26016C3.29391 3.07367 3.27609 2.8105 3.27609 2.8105L3.25428 2.65302C3.20871 2.30905 3.16513 1.96715 3.13739 1.61695L3.1255 1.45532L3.32364 1.55893C3.32364 1.63767 3.33949 1.71434 3.3494 1.79308L3.38506 2.05003L3.40487 2.18679C3.40487 2.18679 3.43063 2.30283 3.4544 2.42094C3.47818 2.53905 3.5079 2.64888 3.5079 2.63852C3.55744 2.82501 3.61292 2.94312 3.59707 2.62815C3.59707 2.44373 3.56932 2.18264 3.56932 2.18264L3.54753 2.02516L3.51384 1.77029C3.51384 1.72885 3.51385 1.68948 3.49998 1.64804L3.55545 1.67704C3.55545 1.67704 3.68622 1.73299 3.81104 1.79101C3.93587 1.84903 4.05871 1.90912 4.05079 1.89876L4.11618 1.92778C4.05476 2.02724 4.00125 2.13499 3.94974 2.23031C3.80312 2.52662 3.68028 2.83122 3.55347 3.13376L3.49205 3.28917L3.40091 3.56683C3.35534 3.70359 3.30976 3.83621 3.31571 3.82585C3.24438 4.04964 3.2206 4.21127 3.41477 3.87973C3.53365 3.68702 3.66839 3.39485 3.66839 3.39485L3.73972 3.21457C3.8586 2.91204 3.97946 2.61158 4.12013 2.3277C4.17165 2.22616 4.22515 2.12048 4.28459 2.03138C4.28658 2.02605 4.28658 2.02013 4.28459 2.0148C4.28553 1.99223 4.28048 1.96982 4.26999 1.95007C4.2595 1.93031 4.24398 1.91399 4.22515 1.9029C4.19939 1.87804 4.15977 1.84489 4.10429 1.80137C3.9618 1.69204 3.81364 1.59104 3.66047 1.49884L3.49205 1.41388C2.94421 1.15758 2.411 0.868383 1.89508 0.547729C1.80394 0.485564 1.7128 0.421328 1.62761 0.352947H1.60977C1.57919 0.353219 1.54944 0.363347 1.52457 0.381954C1.50704 0.363133 1.48373 0.351368 1.45874 0.348716C1.43374 0.346064 1.40865 0.352693 1.38786 0.367447C1.38786 0.367447 1.38786 0.367451 1.37795 0.377812C1.32446 0.479346 1.27096 0.585026 1.21548 0.682417C1.01735 1.0554 0.799404 1.4201 0.577493 1.77858L0.508139 1.89047C0.494832 1.89148 0.481937 1.89573 0.470493 1.9029C0.468565 1.92427 0.468565 1.94578 0.470493 1.96714L0.359538 2.17435C0.29019 2.30076 0.22085 2.42302 0.230757 2.41266V2.42509C0.212429 2.42032 0.193191 2.42102 0.175225 2.42711C0.157259 2.4332 0.141273 2.44444 0.129102 2.45954C0.11693 2.47464 0.109051 2.49301 0.106355 2.51256C0.103658 2.53211 0.106259 2.55205 0.113852 2.57013ZM0.611173 2.0521L0.714194 1.8884C0.771654 1.79723 0.827139 1.70605 0.882616 1.61488C0.882616 1.66668 0.8945 1.71849 0.902425 1.76822C0.922238 1.91119 0.944037 2.05625 0.967813 2.19715L0.989605 2.33391C0.989605 2.33391 1.01735 2.44995 1.04311 2.56599C1.06886 2.68203 1.09858 2.79393 1.09858 2.77321L1.12433 2.85609C0.991585 2.796 0.858834 2.73176 0.728065 2.66753C0.728065 2.62194 0.716178 2.58878 0.716178 2.58878L0.682498 2.48103C0.662685 2.41887 0.638909 2.33391 0.621077 2.25103C0.608947 2.19023 0.601002 2.12859 0.597302 2.06661L0.611173 2.0521ZM0.452667 2.25931V2.28833C0.469586 2.37096 0.49074 2.45258 0.51606 2.53284L0.529931 2.57635H0.51606L0.29415 2.45617C0.351609 2.39193 0.405115 2.32563 0.452667 2.26346V2.25931Z" fill="#F58A41"/>
</svg>
