<svg width="3" height="5" viewBox="0 0 3 5" fill="none" xmlns="http://www.w3.org/2000/svg">
<path d="M1.86419 2.07639L1.84438 2.02458V2.01422L1.81268 1.9562C1.79881 1.92926 1.78296 1.90232 1.76513 1.87331C1.69578 1.76142 1.60861 1.63709 1.5135 1.50447L1.2163 1.09004C1.11948 0.945302 1.01427 0.8069 0.901261 0.675616C0.845784 0.615524 0.792292 0.557506 0.744739 0.499486C0.697187 0.441466 0.699165 0.441467 0.679351 0.412457C0.670037 0.397724 0.661439 0.382509 0.653593 0.366869V0.352363C0.653593 0.335786 0.641703 0.323353 0.639722 0.323353C0.627834 0.323353 0.623878 0.323353 0.621897 0.323353L0.596138 0.33993C0.578889 0.353449 0.562963 0.36872 0.548588 0.385518C0.547718 0.387093 0.547258 0.388878 0.547258 0.390697C0.547258 0.392515 0.547718 0.394304 0.548588 0.395879C0.496804 0.462459 0.458391 0.539278 0.43565 0.621742C0.410985 0.710388 0.3944 0.801276 0.386116 0.893192C0.368284 1.07554 0.368279 1.26203 0.356391 1.45267C0.343379 1.64558 0.356049 1.83945 0.394037 2.02872C0.406166 2.0772 0.425555 2.12336 0.451492 2.16549C0.464222 2.18782 0.481141 2.20722 0.501231 2.22253C0.521321 2.23785 0.544172 2.24875 0.568396 2.25459C0.595699 2.26187 0.624308 2.26187 0.65161 2.25459C0.665479 2.27324 0.677367 2.2836 0.663497 2.25459C0.680631 2.24774 0.696176 2.23714 0.709076 2.22351C0.740823 2.18445 0.762026 2.13723 0.770498 2.08674C0.787519 1.98693 0.794818 1.88557 0.79229 1.78421V1.47961C0.79229 1.376 0.79229 1.27239 0.79229 1.17086C0.788316 1.10945 0.788316 1.04784 0.79229 0.986437L0.812098 1.01545C0.825968 1.0341 0.837853 1.04446 0.822003 1.01545L0.798227 0.965718C0.801996 0.936081 0.808642 0.906922 0.818048 0.878688C0.818048 0.855895 0.83786 0.828957 0.853711 0.833101C0.863915 0.836652 0.873347 0.842284 0.881453 0.849675C0.888938 0.857425 0.894977 0.866559 0.899278 0.876614C0.911295 0.926049 0.917292 0.976873 0.917116 1.02788C0.917116 1.13356 0.905222 1.23509 0.899278 1.34285C0.88739 1.55006 0.885417 1.76971 0.883436 1.98314C0.883436 2.09089 0.883436 2.19864 0.883436 2.30639C0.883436 2.41414 0.869563 2.51361 0.867582 2.63172C0.867582 2.85136 0.867582 3.06894 0.867582 3.28859C0.867582 3.50823 0.84975 3.72995 0.855694 3.95167C0.855694 4.06149 0.855694 4.17339 0.855694 4.28528C0.858202 4.3419 0.868885 4.39779 0.88739 4.45106C0.905533 4.50658 0.940265 4.55452 0.986458 4.58782C1.03329 4.61999 1.08917 4.6346 1.14496 4.62926C1.1732 4.62714 1.20049 4.61769 1.22436 4.60177C1.24822 4.58585 1.26792 4.56396 1.28168 4.53809C1.32965 4.43521 1.34954 4.32048 1.33914 4.20655C1.33914 4.17754 1.33914 4.14853 1.33914 4.11952C1.33914 4.11952 1.35301 4.13195 1.35103 4.13195C1.34905 4.13195 1.38273 4.15474 1.35103 4.13195L1.32924 4.10294C1.32924 4.05942 1.32924 4.01591 1.32924 3.97239C1.32924 3.97239 1.32924 3.97239 1.32924 3.96203C1.31735 3.63463 1.32924 3.30516 1.32924 2.97776C1.34311 2.99227 1.35302 2.99849 1.32924 2.97776V2.96533V2.6773C1.33259 2.65755 1.33975 2.63872 1.35032 2.62197C1.36088 2.60522 1.37461 2.59091 1.39066 2.57991C1.40057 2.57991 1.40453 2.57991 1.39066 2.57991H1.41245C1.42344 2.57768 1.43483 2.57958 1.44462 2.58526C1.45441 2.59095 1.46195 2.60006 1.46594 2.611C1.46706 2.62063 1.46706 2.63037 1.46594 2.64001C1.46691 2.65034 1.46691 2.66075 1.46594 2.67109C1.46894 2.72699 1.46894 2.78303 1.46594 2.83893C1.46594 3.06272 1.46594 3.28652 1.46594 3.51031C1.46594 3.6222 1.46594 3.73617 1.46594 3.84599C1.46594 3.95582 1.46594 4.06978 1.46594 4.18168C1.4671 4.29402 1.48862 4.40511 1.52935 4.50908C1.54087 4.5362 1.55869 4.55988 1.58118 4.57797C1.60367 4.59606 1.63012 4.60799 1.65814 4.61268C1.71283 4.62327 1.76933 4.6122 1.81664 4.5816C1.85987 4.54503 1.88934 4.49365 1.89986 4.43655C1.91166 4.38146 1.91765 4.32517 1.91769 4.26871C1.91769 4.15888 1.91769 4.04906 1.90581 3.93924V3.63463V3.29066C1.90581 3.23057 1.90581 3.17047 1.90581 3.11038C1.90581 3.11038 1.91769 3.11038 1.90581 3.09795C1.89392 3.08552 1.90581 3.02957 1.90581 2.99434C1.91968 3.01092 1.93156 3.01714 1.90581 2.99434V2.97984C1.90581 2.89903 1.90581 2.82028 1.90581 2.73947C1.91769 2.75397 1.92562 2.75812 1.90581 2.72704C1.90581 2.49289 1.90581 2.25873 1.90581 2.02665C1.90581 1.92097 1.90581 1.81944 1.90581 1.70962C1.90581 1.72205 1.92364 1.72619 1.90581 1.69718C1.90581 1.62259 1.90581 1.54799 1.90581 1.47546C1.91313 1.48436 1.92108 1.49267 1.92958 1.50033C1.94543 1.51691 1.95732 1.5252 1.92958 1.50033L1.90184 1.45267V1.41744C1.90184 1.38222 1.90184 1.34906 1.90184 1.31591C1.90184 1.31591 1.90184 1.31591 1.90184 1.30555C1.90184 1.23924 1.90184 1.17293 1.90184 1.10869C1.90184 1.04446 1.90184 1.00716 1.90184 0.957427C1.90184 0.907696 1.90184 0.907696 1.90184 0.88283C1.90496 0.866589 1.91102 0.851118 1.91968 0.837243C1.93157 0.860036 1.94544 0.88283 1.95931 0.905624C1.96026 0.922186 1.96026 0.938794 1.95931 0.955356C1.95931 1.00509 1.95931 1.05482 1.97318 1.10455C1.97318 1.20401 1.97318 1.31177 1.97318 1.40294C1.97318 1.61015 1.96129 1.79457 1.97318 1.98728C1.97855 2.03551 1.98714 2.08329 1.99892 2.13026C2.00887 2.17906 2.0323 2.22373 2.06629 2.25873C2.08445 2.2755 2.10601 2.28776 2.12935 2.29458C2.15268 2.3014 2.17718 2.3026 2.20103 2.2981C2.24776 2.28827 2.29018 2.26282 2.32188 2.22558C2.37467 2.14737 2.40305 2.054 2.40313 1.95827C2.40709 1.87751 2.40709 1.79659 2.40313 1.71583C2.41148 1.73227 2.42075 1.74818 2.43087 1.76349C2.44276 1.78421 2.45464 1.79664 2.43087 1.76349C2.4252 1.74585 2.41858 1.72855 2.41105 1.71169L2.38926 1.66817C2.38926 1.49204 2.37736 1.31798 2.37142 1.14806C2.37142 1.06103 2.37142 0.974004 2.36151 0.889046C2.35487 0.803168 2.33892 0.718357 2.31396 0.636245C2.29254 0.554665 2.25319 0.47945 2.19904 0.416599C2.14609 0.355161 2.08544 0.301493 2.01874 0.257046C1.88973 0.174347 1.74504 0.122021 1.59473 0.103706L1.4501 0.0912741C1.35641 0.0850724 1.26243 0.0850724 1.16874 0.0912741H1.12515C1.11327 0.0912741 1.10732 0.0912741 1.10732 0.0912741L1.01023 0.107852C1.01023 0.107852 1.01023 0.0933465 1.01023 0.0850579C1.00912 0.083735 1.00774 0.0826756 1.00621 0.0819498C1.00467 0.0812241 1.00301 0.0808464 1.00132 0.0808464C0.999634 0.0808464 0.997972 0.0812241 0.996435 0.0819498C0.994898 0.0826756 0.993523 0.083735 0.992408 0.0850579C0.992077 0.0919607 0.992077 0.0988746 0.992408 0.105777C0.958213 0.114222 0.924479 0.1246 0.891357 0.136861C0.88145 0.136861 0.877486 0.136861 0.877486 0.136861L0.780402 0.176229C0.750594 0.189034 0.721489 0.203563 0.693222 0.219746L0.65161 0.24461L0.629818 0.257046L0.608026 0.275695L0.588205 0.296414C0.572354 0.312991 0.564429 0.327496 0.588205 0.296414L0.633784 0.269478L0.643689 0.288127L0.675385 0.335785C0.695198 0.362723 0.713038 0.391734 0.732852 0.420744C0.752665 0.449754 0.816061 0.536785 0.861632 0.596877C0.952774 0.717061 1.05977 0.841387 1.14695 0.96986L1.75324 1.85881L1.78693 1.90232C1.80278 1.92097 1.81467 1.93133 1.78693 1.90232C1.75919 1.87331 1.81863 1.84845 1.81863 1.84845L1.22422 0.971934C1.12714 0.841389 1.02608 0.712916 0.934941 0.592732C0.887389 0.530568 0.843804 0.472548 0.804177 0.414528L0.746723 0.329569L0.711048 0.275695V0.259117L0.78634 0.217675C0.785594 0.223867 0.785594 0.230131 0.78634 0.236323L1.25592 0.872469C1.42631 1.11905 1.57096 1.38222 1.68588 1.57285C1.74532 1.6661 1.78296 1.73034 1.78296 1.73034C1.79388 1.74568 1.80579 1.76022 1.81863 1.77385C1.8325 1.7925 1.84438 1.80286 1.81863 1.77385C1.81158 1.75683 1.80364 1.74023 1.79485 1.72412L1.71164 1.58943C1.59276 1.39672 1.44613 1.12942 1.27376 0.878688L0.796256 0.230107V0.21353L0.843807 0.190736L0.861632 0.211459L0.950795 0.323353C0.990422 0.373084 1.03004 0.424887 1.06967 0.480834C1.15091 0.590658 1.23413 0.70877 1.31537 0.831027C1.47586 1.07347 1.62842 1.31798 1.74532 1.5024L1.8424 1.65367L1.86221 1.67853C1.86221 1.70133 1.86221 1.72412 1.86221 1.74484C1.86617 1.84845 1.86617 1.95827 1.86419 2.07639ZM0.493104 2.21936C0.455061 2.19224 0.425445 2.15406 0.407908 2.10954C0.379282 2.03882 0.360589 1.96414 0.352424 1.88782L0.370262 1.91476C0.404537 1.96981 0.442267 2.02241 0.4832 2.07224L0.540655 2.14891L0.582267 2.20693L0.604059 2.23387C0.566652 2.24389 0.527001 2.23871 0.493104 2.21936ZM0.736806 1.67232C0.736806 1.77385 0.736806 1.87953 0.736806 1.97692C0.73339 2.02612 0.72475 2.07477 0.711048 2.12197C0.705303 2.1448 0.695129 2.16615 0.681153 2.18469C0.667178 2.20323 0.649704 2.21855 0.629818 2.22972L0.613964 2.19657L0.600093 2.17999L0.572363 2.13855L0.512913 2.06188C0.473286 2.01008 0.43367 1.95827 0.399987 1.9044L0.382149 1.87331C0.37997 1.87127 0.377152 1.87015 0.374228 1.87015C0.371304 1.87015 0.368475 1.87127 0.366295 1.87331V1.82151C0.361349 1.72557 0.361349 1.62942 0.366295 1.53348C0.365307 1.51761 0.365307 1.50169 0.366295 1.48582C0.423754 1.56457 0.479237 1.64745 0.532734 1.72826L0.613964 1.85259L0.673402 1.93755C0.673402 1.93755 0.709076 1.98314 0.709076 1.98107C0.709076 1.97899 0.736815 2.008 0.709076 1.98107L0.683318 1.93341L0.627834 1.85259L0.544621 1.72826C0.489144 1.64331 0.433669 1.56042 0.374228 1.47961L0.354408 1.45267C0.354408 1.38429 0.354405 1.31591 0.364312 1.24545C0.374219 1.175 0.364313 1.05689 0.378183 0.963644C0.378183 0.963644 0.378183 0.953283 0.378183 0.947066L0.392054 0.974005C0.443569 1.0714 0.501033 1.16464 0.558492 1.25996L0.645672 1.40087L0.703127 1.49826L0.734835 1.54384C0.738517 1.55137 0.743964 1.55779 0.750677 1.56249L0.736806 1.67232ZM0.823986 0.79373C0.815607 0.792034 0.806924 0.793367 0.799364 0.797508C0.791804 0.80165 0.785823 0.808354 0.782385 0.816523C0.769625 0.840038 0.75964 0.865087 0.75266 0.891121C0.75266 0.901481 0.75266 0.911841 0.75266 0.922201L0.724919 0.878688L0.653593 0.773007L0.580284 0.667329C0.55667 0.631192 0.530152 0.597223 0.501025 0.565793C0.493756 0.559094 0.4883 0.550522 0.485183 0.540928C0.484068 0.539605 0.482693 0.538546 0.481156 0.53782C0.479619 0.537094 0.477945 0.53672 0.476258 0.53672C0.474572 0.53672 0.47291 0.537094 0.471373 0.53782C0.469836 0.538546 0.468461 0.539605 0.467346 0.540928C0.4711 0.553585 0.477933 0.565008 0.487167 0.574083C0.516174 0.603569 0.54207 0.636219 0.56443 0.671474L0.637739 0.775081L0.707093 0.878688L0.750677 0.947066C0.748709 0.979497 0.748709 1.01203 0.750677 1.04446C0.750677 1.07139 0.750677 1.09833 0.750677 1.12527C0.751745 1.1198 0.751745 1.11416 0.750677 1.10869C0.744097 1.09145 0.736145 1.07482 0.726902 1.05896L0.715014 1.04031L0.683318 0.992653L0.61793 0.903553C0.574257 0.843863 0.533906 0.781594 0.497071 0.717058C0.497071 0.717058 0.497067 0.696337 0.481217 0.688048C0.469329 0.688048 0.465363 0.688049 0.465363 0.69841C0.465363 0.708771 0.465366 0.721205 0.481217 0.729494C0.517589 0.793676 0.557961 0.855282 0.602076 0.913914L0.665481 1.00301L0.711048 1.06932L0.742756 1.11491C0.742756 1.12527 0.756629 1.13356 0.75861 1.13356C0.75861 1.20816 0.75861 1.28275 0.75861 1.35942C0.75861 1.43609 0.75861 1.49204 0.75861 1.56664C0.759061 1.56181 0.759061 1.55696 0.75861 1.55213C0.75861 1.52934 0.736806 1.50033 0.736806 1.50033L0.681335 1.40916L0.592172 1.26618C0.534713 1.16879 0.475277 1.07347 0.423762 0.976076L0.407908 0.944995C0.404022 0.943843 0.399906 0.943843 0.39602 0.944995C0.39602 0.903552 0.396022 0.860037 0.409891 0.818594L0.423762 0.845533C0.470595 0.931779 0.523579 1.01421 0.582267 1.09212L0.665481 1.21023L0.70511 1.27032L0.718981 1.29519L0.750677 1.34285C0.764546 1.3615 0.776435 1.37393 0.750677 1.34285C0.744843 1.32562 0.737552 1.30898 0.728885 1.29312L0.716998 1.27239L0.675385 1.21023L0.590188 1.09004C0.532598 1.01058 0.479667 0.927546 0.431683 0.841388L0.415829 0.810307C0.415829 0.810307 0.403939 0.810307 0.401958 0.810307C0.415448 0.687825 0.453966 0.569808 0.514896 0.46426L0.542638 0.429031L0.584251 0.480834L0.65756 0.569938C0.709075 0.63003 0.762569 0.692195 0.816065 0.758504L0.847761 0.802017L0.823986 0.79373ZM0.823986 0.752288C0.77049 0.683907 0.715012 0.619669 0.663497 0.559577L0.588205 0.470476L0.544621 0.414528L0.532734 0.400021C0.548584 0.385516 0.56245 0.368941 0.578301 0.356508L0.600093 0.342001V0.352363C0.608167 0.368304 0.617446 0.383548 0.627834 0.39795C0.646541 0.429458 0.667752 0.459263 0.691239 0.487051C0.738791 0.547143 0.792283 0.603092 0.847761 0.663184C0.958418 0.789116 1.06164 0.921978 1.15685 1.06103L1.4501 1.47546C1.54322 1.60601 1.6304 1.72826 1.69777 1.83809C1.73044 1.88654 1.76022 1.93705 1.78693 1.98935L1.79882 2.01008L1.82853 2.05981C1.83164 2.06595 1.83565 2.07155 1.84042 2.07639C1.84042 2.12197 1.84042 2.16756 1.84042 2.21522C1.83259 2.19957 1.82399 2.18435 1.81466 2.16963L1.1192 1.18744C1.03599 1.04653 0.934945 0.891121 0.827953 0.752288H0.823986ZM0.891357 0.891121V0.872469C0.966648 0.976076 1.03996 1.07969 1.11525 1.19573L1.82061 2.19242L1.85627 2.23594V2.37685L1.82458 2.33333L1.79287 2.29603L1.75126 2.24215C1.63634 2.08882 1.51151 1.86088 1.35499 1.66196L1.13308 1.35735C1.09741 1.30762 1.06175 1.26203 1.02807 1.21852L0.976554 1.15428L0.944857 1.11491L0.923053 1.09004C0.923053 1.05067 0.923053 1.01338 0.923053 0.974005C0.923053 0.934634 0.899286 0.918058 0.895324 0.891121H0.891357ZM0.871536 1.65367L0.88739 1.67024C1.05581 1.87746 1.20045 2.08467 1.37282 2.29189L1.79683 2.76848L1.83646 2.80578C1.8543 2.82235 1.86817 2.83064 1.83646 2.80578C1.80476 2.78091 1.80476 2.76226 1.80476 2.76226L1.38868 2.29396C1.21234 2.08674 1.06572 1.87953 0.891357 1.67232L0.869565 1.64745C0.869565 1.58736 0.869565 1.52934 0.869565 1.46925C0.869565 1.3615 0.881448 1.26203 0.889374 1.15014C0.88839 1.1405 0.88839 1.13077 0.889374 1.12113L0.905228 1.14185L0.934941 1.17707L0.984475 1.23924C1.01816 1.28068 1.05184 1.32834 1.08751 1.376C1.15884 1.47132 1.23214 1.58321 1.30744 1.67646C1.46594 1.87331 1.58879 2.09089 1.7037 2.2463C1.72817 2.28242 1.75463 2.31702 1.78296 2.34991L1.79683 2.36441L1.81863 2.38513L1.83843 2.40378H1.84835V2.52189L1.82061 2.47838L1.7374 2.37063L1.3114 1.8298C1.23413 1.73034 1.15686 1.62259 1.08751 1.53556L0.986458 1.39672L0.911166 1.29104L0.89334 1.2641C0.879471 1.2641 0.877486 1.26411 0.877486 1.27654L0.895324 1.30347L0.968633 1.40501L1.0677 1.54177C1.13705 1.63502 1.21234 1.73448 1.28961 1.83187L1.70965 2.36648L1.80476 2.48874L1.8424 2.53018C1.8424 2.5737 1.8424 2.61928 1.8424 2.6628L1.76117 2.5509C1.64823 2.39549 1.48576 2.1945 1.32329 1.99557C1.24007 1.89611 1.15883 1.78836 1.08354 1.69925L0.978537 1.56042C0.950798 1.52312 0.923054 1.4879 0.899278 1.45267L0.881453 1.4278C0.867583 1.4278 0.865599 1.4278 0.865599 1.44024L0.885407 1.4651L0.960699 1.56871C0.992401 1.6143 1.02807 1.65989 1.06572 1.70754C1.13903 1.80079 1.22026 1.90025 1.29951 1.99764C1.46198 2.1945 1.62049 2.39135 1.73343 2.54469L1.82061 2.66694L1.8424 2.69388V2.92182L1.82655 2.89903C1.78296 2.84515 1.73937 2.79127 1.6938 2.73947C1.60266 2.63793 1.50756 2.53226 1.41444 2.43901C1.2163 2.24423 1.07958 2.00386 0.885407 1.81737L0.859649 1.7925C0.873518 1.74484 0.873522 1.69925 0.875503 1.65367H0.871536ZM0.847761 2.6773C0.881444 2.72082 0.921079 2.75812 0.954762 2.79749C0.988445 2.83686 1.02213 2.88038 1.05185 2.92389L1.14299 3.05858L1.20441 3.14975L1.24008 3.19534C1.25593 3.21192 1.2698 3.22228 1.24008 3.19534L1.21432 3.14768L1.15488 3.06065L1.06175 2.92389L0.962683 2.79334C0.927018 2.7519 0.885414 2.7146 0.855694 2.67316L0.83984 2.64622C0.83984 2.60271 0.83984 2.55712 0.83984 2.51361C0.839186 2.5198 0.839186 2.52606 0.83984 2.53226C0.870669 2.57688 0.903738 2.61976 0.938908 2.66073C0.968628 2.70424 0.998348 2.74983 1.02609 2.79542C1.05383 2.84101 1.08355 2.88866 1.11525 2.93218C1.13074 2.955 1.14797 2.97649 1.16677 2.99641C1.17866 3.00885 1.16677 3.00885 1.18064 3.01092L1.22621 3.04615H1.24008V3.31345C1.24008 3.50823 1.24008 3.70094 1.24008 3.89365L1.22621 3.87086L1.1529 3.7859C1.11327 3.74239 1.07562 3.6968 1.03797 3.65121C0.959932 3.56336 0.893312 3.46512 0.83984 3.35904L0.827953 3.32796C0.827953 3.32796 0.816063 3.32796 0.814082 3.32796V3.18291L1.11327 3.58076L1.14893 3.62427C1.16676 3.64085 1.17865 3.65121 1.14893 3.62427C1.14056 3.60785 1.1313 3.59193 1.12119 3.57661L0.820031 3.17669L0.800211 3.14975V3.01092C0.85767 3.09381 0.917115 3.17255 0.978537 3.24921L1.13506 3.44607L1.17271 3.48751C1.18856 3.50409 1.20243 3.51445 1.17271 3.48751L1.14299 3.43985L0.988441 3.24507C0.925038 3.16633 0.863622 3.08759 0.808144 3.0047L0.788323 2.97776V2.83272C0.847764 2.9156 0.909182 2.99849 0.970604 3.0793L1.13506 3.28651L1.17271 3.32796C1.18856 3.34453 1.20242 3.35282 1.18261 3.32796L1.15091 3.28237L0.990424 3.07516C0.927021 2.99434 0.86362 2.91146 0.806161 2.8265L0.78634 2.79749V2.6773H0.847761ZM0.847761 3.42742C0.847761 3.40255 0.847761 3.37769 0.847761 3.3549V3.37976C0.902363 3.48511 0.968886 3.5832 1.0459 3.67193L1.15883 3.80455L1.23611 3.89365L1.26979 3.92888C1.26979 3.95374 1.26979 3.98068 1.26979 4.00762C1.2688 4.02141 1.2688 4.03527 1.26979 4.04906L1.20441 3.97654L1.08553 3.83356C1.00825 3.73824 0.930987 3.64085 0.857678 3.54139L0.837857 3.51445C0.845782 3.48337 0.847761 3.45436 0.847761 3.42535V3.42742ZM1.28366 4.34538C1.27747 4.40055 1.26134 4.45398 1.23611 4.50286C1.2305 4.51501 1.22315 4.52619 1.21432 4.53602L1.18459 4.49043L1.06175 4.33502C1.01553 4.27114 0.960036 4.2152 0.897295 4.16925L0.865599 4.15267C0.864334 4.15383 0.863318 4.15527 0.862624 4.15688C0.86193 4.15849 0.861572 4.16023 0.861572 4.16199C0.861572 4.16376 0.86193 4.1655 0.862624 4.16711C0.863318 4.16872 0.864334 4.17015 0.865599 4.17132C0.875402 4.17489 0.884728 4.17976 0.89334 4.18582C0.953601 4.22949 1.00706 4.2826 1.05185 4.34331L1.17469 4.50079L1.21432 4.54223C1.20298 4.55352 1.19034 4.56326 1.17667 4.57124L1.14299 4.5298L1.03599 4.41169C0.995427 4.36413 0.950278 4.32108 0.901261 4.28321C0.890834 4.27606 0.879498 4.27048 0.867582 4.26664C0.855694 4.26664 0.867582 4.28114 0.867582 4.28528L0.895324 4.29979C0.941533 4.3366 0.984614 4.3775 1.0241 4.42205L1.12912 4.54016L1.17072 4.57746C1.15693 4.58444 1.14226 4.58933 1.12714 4.59196C1.07487 4.59877 1.02199 4.58609 0.977775 4.55615C0.933564 4.52621 0.900851 4.48093 0.885407 4.42826C0.854892 4.32151 0.842157 4.21006 0.847761 4.09879V4.04077L0.869565 4.05321C0.938282 4.10465 0.999654 4.16605 1.05185 4.23556L1.13506 4.33916L1.17865 4.38889L1.19846 4.40962L1.24206 4.44484C1.26187 4.45935 1.27574 4.46349 1.24206 4.44484L1.20638 4.4034L1.19054 4.38682C1.17452 4.37174 1.15992 4.35509 1.14695 4.33709L1.06175 4.23348C1.00495 4.16017 0.938194 4.09595 0.863615 4.04285L0.833902 4.0242V3.7714V3.56418C0.907212 3.66157 0.980511 3.75689 1.05778 3.85221L1.17667 3.99104L1.2579 4.08429C1.27459 4.16673 1.28322 4.25074 1.28366 4.33502V4.34538ZM1.46792 2.61929C1.46541 2.60327 1.45948 2.58806 1.45056 2.57479C1.44164 2.56151 1.42996 2.55052 1.41641 2.54262C1.406 2.53698 1.39445 2.53405 1.38273 2.53405C1.37101 2.53405 1.35946 2.53698 1.34905 2.54262L1.32329 2.50739L1.25592 2.42036L1.15488 2.28153C1.08762 2.18598 1.012 2.09718 0.929003 2.01629C0.929003 2.01629 0.913147 2.00179 0.911166 1.9935H0.89334C0.89975 2.00503 0.907762 2.01551 0.917116 2.02458C0.998578 2.1022 1.07226 2.18829 1.13704 2.28153L1.23809 2.41829L1.28961 2.4846L1.30942 2.50946C1.31945 2.52106 1.33003 2.53213 1.34113 2.54262C1.31978 2.56275 1.30288 2.58749 1.29159 2.61514C1.28762 2.63005 1.28762 2.64582 1.29159 2.66073V2.86794L1.13506 2.63586C1.07166 2.54262 1.00429 2.44937 0.936924 2.36234L0.915132 2.3354C0.901263 2.3354 0.89928 2.3354 0.901261 2.34784L0.923053 2.37477C0.994382 2.45973 1.05778 2.5509 1.12119 2.64208L1.27971 2.87623L1.29951 2.89903V3.01714L1.26385 2.97569L1.248 2.95912C1.23017 2.94047 1.21431 2.91974 1.19648 2.89695C1.17865 2.87416 1.13704 2.80578 1.10732 2.76019C1.0799 2.71234 1.05015 2.666 1.01817 2.62136C0.984483 2.57577 0.944854 2.5364 0.917116 2.49081C0.91132 2.48181 0.906657 2.47206 0.903245 2.4618H0.891357C0.891357 2.33748 0.90523 2.21107 0.907211 2.08467C0.909193 1.95827 0.907211 1.88989 0.907211 1.7925L0.929003 1.81322C1.11723 2.00179 1.25989 2.23801 1.44812 2.43486C1.53926 2.53226 1.63436 2.62757 1.72353 2.72911C1.76712 2.77884 1.8107 2.83064 1.85231 2.88245L1.88401 2.92389L1.89986 2.94461C1.89986 2.97776 1.89986 3.01299 1.89986 3.04615L1.88203 3.0275L1.81268 2.95912L1.70965 2.85136C1.63895 2.78143 1.57276 2.70667 1.51152 2.62757L1.49963 2.611C1.49804 2.6137 1.49592 2.61603 1.49342 2.61782C1.49091 2.61962 1.48808 2.62085 1.4851 2.62144C1.48211 2.62202 1.47904 2.62195 1.47609 2.62122C1.47313 2.6205 1.47035 2.61913 1.46792 2.61721V2.61929ZM2.14555 2.21936C2.07026 2.16963 2.06035 2.06188 2.0445 1.96863C2.06178 2.01335 2.08513 2.05522 2.11385 2.09296L2.15941 2.15098L2.19706 2.19864C2.19706 2.19864 2.23867 2.24216 2.23669 2.23801C2.2049 2.24306 2.17247 2.23568 2.14555 2.21729V2.21936ZM2.43284 1.87953C2.43471 1.97334 2.41356 2.06608 2.37142 2.14891C2.34685 2.18738 2.31159 2.21704 2.27038 2.23387H2.25056L2.21886 2.18828L2.18122 2.14269L2.13367 2.0826C2.10383 2.04303 2.07978 1.99903 2.06233 1.95206C2.06054 1.94178 2.06054 1.93125 2.06233 1.92097C2.06233 1.87953 2.06233 1.83809 2.06233 1.79665C2.09251 1.85482 2.12626 1.91088 2.16338 1.96449L2.22282 2.04116L2.27038 2.09918L2.31 2.13855C2.32981 2.15305 2.3417 2.15927 2.31 2.13855L2.27632 2.09503L2.26245 2.07846L2.23075 2.04116C2.21094 2.01422 2.19112 1.98935 2.17328 1.96242C2.13485 1.91006 2.10041 1.85464 2.07026 1.79665L2.05639 1.76556V1.58736C2.05949 1.59806 2.06347 1.60846 2.06828 1.61844C2.10135 1.69466 2.1462 1.76467 2.20103 1.82565L2.33774 1.98521L2.37538 2.02665C2.39124 2.04323 2.4051 2.05152 2.38529 2.02665L2.35359 1.98107L2.21886 1.82151C2.16418 1.76041 2.11933 1.69043 2.0861 1.6143C2.0861 1.60394 2.08611 1.59358 2.0762 1.58321C2.0762 1.58321 2.06036 1.58321 2.05837 1.58321C2.05837 1.52312 2.05837 1.46303 2.05837 1.40294C2.10891 1.49606 2.16655 1.58476 2.23075 1.66817L2.32188 1.79457L2.36746 1.85881L2.38331 1.88575L2.417 1.93133C2.43087 1.94998 2.44275 1.96034 2.4269 1.93133C2.41952 1.91411 2.41091 1.89748 2.40114 1.8816L2.38926 1.86088L2.34369 1.79457L2.24858 1.6661C2.18412 1.58261 2.12709 1.49313 2.07818 1.39879L2.06233 1.36771C2.06233 1.27239 2.06233 1.175 2.06233 1.07761C2.06233 1.02995 2.06233 0.984367 2.04846 0.936708C2.17923 1.15843 2.31 1.36771 2.40313 1.53763L2.46653 1.65781C2.43087 1.71583 2.43284 1.79665 2.43284 1.87746V1.87953ZM2.1832 0.329569C2.24538 0.387168 2.29533 0.457756 2.32982 0.536783C2.3611 0.61647 2.38241 0.700046 2.39322 0.785439C2.39848 0.816956 2.40179 0.848797 2.40313 0.880759C2.40313 0.880759 2.40313 0.880759 2.40313 0.864182L2.37935 0.814449L2.36746 0.79373C2.35161 0.766792 2.33575 0.739852 2.32188 0.710842L2.2347 0.542999C2.18107 0.4281 2.11456 0.320281 2.03657 0.221817C2.08884 0.25159 2.13799 0.287012 2.1832 0.327498V0.329569ZM1.98506 0.194881L2.00686 0.219746C2.08352 0.315502 2.14996 0.419727 2.20499 0.530567L2.2882 0.696339L2.33377 0.779223L2.35161 0.806162L2.38331 0.85382C2.39519 0.866253 2.40312 0.872469 2.40114 0.866253C2.40114 0.922201 2.40114 0.97815 2.40114 1.03617V1.0714C2.38926 1.05067 2.37142 1.02581 2.37142 1.02581L2.35558 1.00301C2.32586 0.963644 2.29812 0.922202 2.27038 0.880759C2.2149 0.799946 2.16338 0.712916 2.11385 0.627958C2.01565 0.453021 1.90781 0.284202 1.79088 0.122355L1.779 0.107852C1.85174 0.12722 1.92218 0.15502 1.98902 0.190736L1.98506 0.194881ZM1.76117 0.109923L1.78296 0.136861C1.89793 0.294771 2.00315 0.460187 2.09799 0.632103C2.14752 0.717061 2.19905 0.802017 2.25254 0.88283C2.28028 0.924273 2.30802 0.965715 2.33774 1.00509L2.36151 1.03824C2.36151 1.03824 2.40114 1.08176 2.40114 1.07968V1.30347L2.38331 1.26618L2.06035 0.743997L1.86221 0.412457C1.79286 0.302633 1.71362 0.20524 1.64625 0.0891999L1.63238 0.0664062C1.6776 0.0765494 1.72199 0.0904092 1.76513 0.107852L1.76117 0.109923ZM1.5353 0.0788418H1.61653L1.63436 0.109923C1.70173 0.219746 1.779 0.317136 1.84835 0.42696L2.04649 0.752288L2.37538 1.28483L2.40906 1.33041C2.40906 1.41123 2.40906 1.49204 2.40906 1.57285L2.37737 1.51276C2.27434 1.32213 2.12376 1.08383 1.9811 0.837243C1.982 0.826903 1.982 0.816501 1.9811 0.806162C1.9775 0.793019 1.97216 0.780464 1.96524 0.768862C1.96524 0.768862 1.96524 0.768862 1.95336 0.768862L1.7374 0.395879C1.69975 0.331643 1.66211 0.271548 1.62644 0.215601L1.57096 0.132716L1.54322 0.0954161V0.0829838L1.5353 0.0788418ZM1.3114 0.0788418H1.33319C1.33234 0.0871064 1.33234 0.0954418 1.33319 0.103706C1.37876 0.176231 1.42433 0.238396 1.46792 0.310921C1.51151 0.383445 1.55313 0.447682 1.59672 0.518135L1.72154 0.725349L1.78693 0.826885L1.80872 0.857966L1.8424 0.903553C1.85825 0.92013 1.87014 0.930491 1.85231 0.903553L1.82655 0.85382L1.81863 0.812378L1.75324 0.708771L1.62446 0.501557C1.58285 0.431104 1.53926 0.360652 1.49567 0.294343C1.45208 0.228035 1.40056 0.157582 1.35895 0.0871289C1.3587 0.0822975 1.3587 0.0774538 1.35895 0.0726224C1.4065 0.0726224 1.45603 0.0726224 1.50359 0.0726224C1.50648 0.0801433 1.51049 0.0871386 1.51547 0.0933451C1.52359 0.107302 1.53287 0.120478 1.54322 0.132716L1.59672 0.211459C1.63238 0.267406 1.67002 0.327499 1.70569 0.389663C1.77702 0.509847 1.8523 0.640389 1.92561 0.768862C1.91045 0.791628 1.90093 0.817972 1.89789 0.845533C1.89583 0.871736 1.89583 0.89807 1.89789 0.924272C1.89789 0.971932 1.89789 1.01959 1.89789 1.06725L1.87014 1.01959L1.85627 0.996799C1.82457 0.951212 1.79683 0.905624 1.76711 0.860037L1.59473 0.584441C1.53393 0.492542 1.46776 0.404657 1.3966 0.321282C1.32354 0.244792 1.25723 0.161567 1.19846 0.0726224C1.23413 0.0705503 1.27376 0.0684804 1.31537 0.0684804L1.3114 0.0788418ZM1.16874 0.0891999V0.103706C1.2267 0.192646 1.29308 0.275258 1.36687 0.350292C1.43226 0.433177 1.49369 0.520207 1.55115 0.609309C1.60861 0.698411 1.66408 0.789586 1.71956 0.878688L1.80674 1.01338L1.83051 1.05067L1.86618 1.09419V1.10455C1.86618 1.15014 1.86618 1.1978 1.86618 1.24338L1.85231 1.22266L1.83448 1.19987C1.79683 1.14806 1.75919 1.09419 1.72353 1.04031C1.6522 0.932564 1.58681 0.822738 1.52539 0.710842C1.46397 0.598947 1.38669 0.49327 1.30744 0.389663C1.22291 0.299873 1.14415 0.204346 1.07165 0.103706L1.16874 0.0891999ZM1.05383 0.109923C1.12622 0.211903 1.20569 0.308172 1.29159 0.39795C1.36804 0.499033 1.43945 0.604161 1.50557 0.712916C1.57294 0.820668 1.63832 0.930491 1.7037 1.03617C1.73937 1.09005 1.77503 1.14185 1.81268 1.19365L1.8424 1.23302L1.87411 1.26825C1.87411 1.30969 1.87411 1.35321 1.87411 1.39672L1.81268 1.31176C1.69974 1.14807 1.56897 0.913914 1.41641 0.690123C1.33715 0.582371 1.24998 0.482907 1.16677 0.387589L1.04986 0.250827C1.03203 0.228033 1.01618 0.205241 0.998345 0.18452L0.966649 0.141003C0.996298 0.125492 1.02671 0.111658 1.05778 0.0995613L1.05383 0.109923ZM1.86419 1.63295C1.86419 1.63295 1.8325 1.58114 1.78098 1.5024C1.66408 1.31798 1.50755 1.06725 1.34508 0.820665C1.26385 0.698409 1.17865 0.578227 1.09741 0.466331L0.976554 0.304704L0.919099 0.232178L0.881453 0.186591L0.867582 0.172087L0.89334 0.159655L0.934941 0.145149L0.944857 0.159655L0.972587 0.199023C0.990419 0.219745 1.00627 0.24254 1.0241 0.265333L1.13903 0.402095C1.22026 0.495342 1.30744 0.592731 1.38471 0.69841C1.54124 0.905624 1.67002 1.13978 1.78098 1.30347L1.85826 1.4133L1.87014 1.42988V1.63709L1.86419 1.63295ZM1.86419 3.39841L1.82853 3.35697L1.67795 3.21606C1.61836 3.1596 1.56213 3.09939 1.50954 3.03578L1.48774 3.00885C1.47388 3.00885 1.47189 3.00885 1.47189 3.02128L1.49368 3.05029C1.54611 3.11272 1.60167 3.17221 1.66012 3.2285L1.81268 3.37147L1.85627 3.4067C1.85627 3.46886 1.85627 3.5331 1.85627 3.59526L1.83646 3.56833L1.77504 3.50409L1.6839 3.41292C1.62069 3.35162 1.56541 3.28196 1.51944 3.2057C1.5128 3.19652 1.50685 3.18682 1.50162 3.17669C1.48775 3.17669 1.48378 3.17669 1.48378 3.18705L1.50162 3.2202C1.54889 3.29546 1.60404 3.36496 1.66606 3.42742L1.75721 3.51859L1.80079 3.56418L1.82061 3.58283L1.85627 3.62013V3.93095L1.83448 3.89987L1.82061 3.88329L1.77504 3.82941L1.68983 3.71752C1.63123 3.64109 1.56479 3.5716 1.4917 3.51031L1.46397 3.48958C1.4501 3.48958 1.45207 3.49994 1.45405 3.50616L1.48179 3.52481C1.54992 3.58701 1.61168 3.65646 1.66606 3.73202L1.74928 3.84185L1.79287 3.89572L1.81071 3.91644L1.85032 3.95582C1.85032 3.99104 1.85032 4.02627 1.85032 4.06149L1.81268 4.02213L1.74928 3.96825L1.65814 3.88536C1.59731 3.83037 1.53975 3.77154 1.48576 3.70923L1.46397 3.68229C1.45208 3.68229 1.4501 3.68229 1.4501 3.69473L1.47387 3.72166C1.52649 3.78394 1.58273 3.84277 1.64228 3.8978L1.73343 3.97861L1.80079 4.03456L1.84438 4.06771V4.35781C1.84048 4.41225 1.82562 4.46521 1.80079 4.51322C1.78184 4.54749 1.75153 4.5733 1.71559 4.58575L1.67399 4.55259L1.63238 4.52151L1.58285 4.48214C1.55114 4.4569 1.52253 4.42767 1.49765 4.39511C1.49148 4.38634 1.48678 4.37653 1.48378 4.3661C1.48378 4.3661 1.46792 4.3661 1.46594 4.3661C1.4688 4.37888 1.4742 4.39088 1.48179 4.40133C1.50801 4.43464 1.53795 4.46455 1.57096 4.49043L1.62049 4.5298L1.6621 4.56088L1.7037 4.58575H1.67993C1.65486 4.59038 1.62911 4.58885 1.6047 4.5813C1.58029 4.57375 1.55789 4.56038 1.53926 4.54223C1.50523 4.50076 1.48202 4.4508 1.47189 4.39718C1.45671 4.33474 1.44742 4.27089 1.44415 4.20655L1.46594 4.22312C1.51309 4.25961 1.55809 4.29905 1.60068 4.34123L1.71559 4.45313L1.75919 4.48836C1.779 4.50079 1.79287 4.50701 1.75919 4.48836L1.72353 4.44691L1.6086 4.33502C1.56462 4.29155 1.51831 4.25074 1.46991 4.21276L1.44217 4.19204C1.44217 4.1506 1.44217 4.11123 1.44217 4.06978V4.04906C1.49225 4.11045 1.54655 4.16793 1.60464 4.22105L1.75126 4.35988L1.79485 4.39511C1.81268 4.40961 1.82655 4.4179 1.79485 4.39511C1.78364 4.38067 1.77174 4.36684 1.75919 4.35367L1.61454 4.21483C1.55679 4.16066 1.5019 4.10324 1.4501 4.04285C1.44342 4.03485 1.43806 4.02575 1.43424 4.01591C1.43424 3.91852 1.43424 3.8232 1.43424 3.72788C1.43424 3.49995 1.43424 3.27408 1.43424 3.04615V2.85758C1.48972 2.92803 1.54916 2.99434 1.6086 3.06479L1.76314 3.23057L1.80277 3.26994L1.82061 3.28237C1.87014 3.3176 1.87015 3.35282 1.87213 3.38805L1.86419 3.39841ZM1.86419 3.27408L1.83051 3.23057L1.67795 3.06687C1.61652 3.00056 1.55709 2.93425 1.50162 2.85965L1.47981 2.83064V2.71046C1.47981 2.69803 1.47981 2.68767 1.47981 2.67523C1.53698 2.74767 1.59783 2.81684 1.6621 2.88245L1.76314 2.98606L1.83646 3.05858L1.87014 3.08759C1.87014 3.15182 1.87014 3.21399 1.87014 3.27822L1.86419 3.27408Z" fill="#534098"/>
</svg>
