<svg width="3" height="2" viewBox="0 0 3 2" fill="none" xmlns="http://www.w3.org/2000/svg">
<path d="M1.16404 1.88845C1.25832 1.80584 1.34703 1.71653 1.42954 1.62114L1.53257 1.44708C1.59597 1.3414 1.68514 1.20671 1.77826 1.08031C1.85905 0.968432 1.95215 0.866889 2.05564 0.777779C2.08633 0.751861 2.11877 0.728315 2.15273 0.707327C2.16544 0.700013 2.17869 0.693776 2.19236 0.688677V0.6721C2.19061 0.594048 2.17587 0.516914 2.14877 0.444164C2.13154 0.396592 2.10032 0.355963 2.05961 0.328125C2.05961 0.328125 2.05961 0.328125 2.04574 0.328125C1.96649 0.364101 1.89246 0.411532 1.82581 0.469031C1.69998 0.57605 1.58689 0.698493 1.48898 0.833728C1.39496 0.958886 1.30701 1.0889 1.22546 1.22329C1.16007 1.33104 1.11847 1.40357 1.11847 1.40357L1.04516 1.5942C1.02042 1.6529 1.00117 1.71397 0.987695 1.77655C0.948068 1.93196 0.965903 2.0708 1.16404 1.88845Z" fill="#F0E811"/>
</svg>
