<svg width="5" height="5" viewBox="0 0 5 5" fill="none" xmlns="http://www.w3.org/2000/svg">
<path d="M3.25671 1.0788C2.87827 0.871582 2.49983 0.678874 2.12536 0.47166L1.82815 0.310033H1.79844C1.7914 0.296296 1.78148 0.284396 1.76943 0.275222C1.75738 0.266048 1.74351 0.259829 1.72885 0.257041C1.71418 0.254253 1.69911 0.254964 1.68474 0.259115C1.67038 0.263267 1.65709 0.270754 1.64587 0.28102C1.64587 0.28102 1.64587 0.281018 1.63399 0.291379L1.47944 0.604274C1.2813 1.0187 1.08317 1.44971 0.885031 1.86828L0.811722 2.01748C0.811722 2.01748 0.756243 2.15216 0.698784 2.28685C0.641325 2.42154 0.585854 2.54795 0.593779 2.53759C0.520469 2.71993 0.484805 2.86084 0.593779 2.71579C0.596048 2.72072 0.59945 2.72499 0.603683 2.72822L0.902869 2.88363L3.42909 4.20566C3.42909 4.20566 3.95019 4.43981 3.93037 4.42323C4.14436 4.50819 4.29295 4.53513 3.98585 4.3217C3.80752 4.19322 3.54203 4.02952 3.54203 4.02952L1.01184 2.70543L0.728509 2.55623C0.851353 2.37596 0.986082 2.14181 0.986082 2.14181L1.06931 1.96775C1.26744 1.55332 1.46558 1.12024 1.66371 0.703739L1.75881 0.511025L2.02629 0.660219C2.3968 0.867434 2.7693 1.06014 3.14377 1.257L4.17606 1.79368L4.46533 1.92216C4.41778 2.0009 4.37419 2.08171 4.33258 2.16252C4.16813 2.47541 4.03142 2.80075 3.89273 3.11986L3.82536 3.27112L3.72232 3.54257C3.67081 3.67726 3.61533 3.80573 3.62326 3.79537C3.53806 4.01294 3.50438 4.1725 3.71837 3.85546C3.81989 3.7043 3.91316 3.54726 3.99773 3.38509L4.07501 3.20688C4.21568 2.8857 4.35042 2.56659 4.50892 2.26199C4.5545 2.17496 4.60403 2.08793 4.65356 2.00504H4.67733C4.88934 2.08793 5.04191 2.11486 4.7348 1.9035C4.55648 1.77296 4.289 1.60926 4.289 1.60926L3.25671 1.0788Z" fill="#AC1F23"/>
</svg>
