<svg width="1" height="2" viewBox="0 0 1 2" fill="none" xmlns="http://www.w3.org/2000/svg">
<path d="M0.898202 1.88925L0.642612 0.981652C0.640791 0.974986 0.637725 0.96876 0.633603 0.96333C0.62948 0.957899 0.624378 0.953373 0.618583 0.950006C0.612787 0.946638 0.606413 0.944496 0.599826 0.943704C0.59324 0.942913 0.586574 0.943488 0.580199 0.945392C0.573824 0.947297 0.567869 0.950494 0.562676 0.954805C0.557484 0.959116 0.55315 0.964455 0.54993 0.970516C0.54671 0.976578 0.544664 0.983244 0.543907 0.990132C0.543151 0.997021 0.543707 1.004 0.545528 1.01066L0.801117 1.91826C0.81895 1.9825 0.918015 1.95349 0.898202 1.88925Z" fill="#EF5023"/>
</svg>
