<svg width="2" height="2" viewBox="0 0 2 2" fill="none" xmlns="http://www.w3.org/2000/svg">
<path d="M0.750984 1.88203C0.749021 1.88808 0.749021 1.89464 0.750984 1.90068C0.772779 1.97114 0.806462 1.96906 0.83222 1.96492C0.854413 1.95895 0.875734 1.94989 0.895618 1.93798C0.925016 1.85661 0.961497 1.77823 1.0046 1.70383C1.13735 1.45931 1.29189 1.22102 1.44446 0.984794L1.51578 0.874971C1.51578 0.874971 1.74562 0.460544 1.73175 0.481265C1.81496 0.311349 1.84667 0.191167 1.66042 0.425319C1.54748 0.560009 1.39492 0.761005 1.39492 0.761005L1.3117 0.889477C1.15914 1.12985 1.00459 1.36607 0.863916 1.62094C0.818487 1.70406 0.780678 1.79148 0.750984 1.88203Z" fill="#ED222B"/>
</svg>
