<svg width="2" height="2" viewBox="0 0 2 2" fill="none" xmlns="http://www.w3.org/2000/svg">
<path d="M0.264364 1.68465C0.286252 1.67775 0.307467 1.66873 0.327757 1.65771C0.356859 1.57656 0.392666 1.49821 0.434757 1.42356C0.569489 1.17904 0.72403 0.940748 0.876594 0.704524L0.947919 0.592627C0.947919 0.592627 1.17776 0.188563 1.16389 0.200996C1.24711 0.0310801 1.27881 -0.0891081 1.09257 0.145044C0.977648 0.279733 0.82706 0.48073 0.82706 0.48073L0.743847 0.609208C0.591283 0.849576 0.436736 1.0858 0.29606 1.34067C0.247678 1.42583 0.206572 1.51527 0.173218 1.60797C0.173218 1.60797 0.173218 1.62249 0.173218 1.62663C0.204919 1.68879 0.238607 1.68879 0.264364 1.68465Z" fill="#3770B7"/>
</svg>
