<svg width="2" height="3" viewBox="0 0 2 3" fill="none" xmlns="http://www.w3.org/2000/svg">
<path d="M1.15487 1.39823C1.153 1.39625 1.15055 1.39498 1.1479 1.39463C1.14526 1.39428 1.14258 1.39487 1.1403 1.39631C1.13801 1.39774 1.13625 1.39994 1.1353 1.40254C1.13435 1.40515 1.13427 1.40801 1.13506 1.41067C1.14695 1.49562 1.16875 1.58058 1.18856 1.66347C1.20837 1.74635 1.23017 1.8168 1.29952 1.82924C1.30421 1.82988 1.30898 1.82904 1.31322 1.82682C1.31745 1.82461 1.32096 1.82112 1.32329 1.8168C1.3649 1.75878 1.32329 1.67383 1.29952 1.60959C1.26346 1.53085 1.21451 1.45932 1.15487 1.39823Z" fill="black" stroke="#5EBC6D" stroke-width="0.973512" stroke-miterlimit="10"/>
</svg>
