<svg width="6" height="8" viewBox="0 0 6 8" fill="none" xmlns="http://www.w3.org/2000/svg">
<path d="M4.2028 4.86175C4.1515 4.0374 3.91017 3.23829 3.49942 2.53267C3.28915 2.18098 3.03082 1.86334 2.73264 1.58984C2.43305 1.32123 2.09974 1.09674 1.74197 0.922613C1.54131 0.827471 1.33479 0.746481 1.12379 0.680176H1.09011C1.05268 0.686403 1.01774 0.703726 0.989434 0.730095C0.961133 0.756464 0.940652 0.790774 0.930431 0.828946C0.920211 0.867119 0.920681 0.907555 0.931774 0.94546C0.942867 0.983365 0.964115 1.01715 0.993014 1.0428C0.997452 1.05068 1.00451 1.05658 1.01283 1.05937C1.20763 1.11967 1.39828 1.19375 1.58346 1.2811C1.90888 1.43982 2.21216 1.64407 2.48497 1.88823C2.75495 2.13487 2.98863 2.42185 3.17845 2.73988C3.55339 3.39125 3.77226 4.12773 3.81643 4.88662C3.84451 5.26838 3.83788 5.65206 3.79663 6.03251V6.05531V6.01386C3.79663 5.9662 3.78078 5.92062 3.77483 5.87296C3.76096 5.77971 3.75105 5.68854 3.74313 5.59529C3.7352 5.50205 3.74313 5.4088 3.74313 5.31762V5.30312V5.27411L3.36469 5.23267V5.25753C3.27553 5.24717 3.23789 5.24303 3.36469 5.25753C3.36469 5.28654 3.36469 5.31348 3.36469 5.34042C3.35843 5.39613 3.35513 5.45217 3.35479 5.50826C3.35371 5.72294 3.37968 5.93683 3.43205 6.14441C3.45385 6.23351 3.47565 6.32054 3.49942 6.4055L3.55094 6.59614L3.61633 6.81786C3.66784 7.00849 3.72332 7.19705 3.77483 7.38976L3.85013 7.65293L3.86795 7.71924V7.75239V7.76897L3.89768 7.63842L4.00863 7.12453L4.06213 6.87795L4.09779 6.68731L4.12949 6.6728L4.15128 6.66037L4.18299 6.64172C4.22658 6.61686 4.27016 6.59406 4.31177 6.56505C4.35338 6.53604 4.39697 6.50703 4.43461 6.47388L4.4901 6.43451C4.56192 6.36425 4.62818 6.28802 4.68823 6.20657C4.75786 6.10533 4.8176 5.99703 4.86656 5.88332C4.92299 5.76095 4.96618 5.63237 4.99534 5.49997C5.0432 5.3514 5.06009 5.19385 5.04487 5.03789C5.01713 4.98816 4.95373 5.08554 4.80117 5.4088C4.7556 5.50204 4.70012 5.60151 4.64266 5.69475C4.58904 5.78191 4.52873 5.86438 4.46236 5.94134C4.39446 6.01876 4.31872 6.08824 4.23648 6.14855L4.17902 6.19414L4.19091 6.09053C4.23204 5.68225 4.23602 5.27082 4.2028 4.86175Z" fill="#F16722"/>
</svg>
