<svg width="6" height="5" viewBox="0 0 6 5" fill="none" xmlns="http://www.w3.org/2000/svg">
<path d="M5.65799 1.44058C5.07943 0.34856 3.38934 0.611719 3.19121 1.82599C3.18298 1.83191 3.17605 1.83957 3.17083 1.84847C3.16561 1.85738 3.16223 1.86733 3.16093 1.87768C3.15962 1.88803 3.16041 1.89856 3.16324 1.90857C3.16606 1.91859 3.17087 1.92787 3.17735 1.93582C3.17735 1.95239 3.17735 1.9669 3.17735 1.98348C3.17639 1.99174 3.17639 2.00008 3.17735 2.00834C2.68994 2.08294 2.20648 2.18862 1.72502 2.29222H1.71313C1.70458 2.28716 1.69515 2.28395 1.68539 2.28277C1.67563 2.2816 1.66573 2.28248 1.6563 2.28538C1.64688 2.28828 1.63811 2.29313 1.63051 2.29965C1.62291 2.30616 1.61664 2.31421 1.61208 2.32331C1.37035 2.37718 1.13061 2.42899 0.888882 2.47457C0.872951 2.47668 0.857684 2.4825 0.844198 2.49162C0.830712 2.50073 0.819364 2.51291 0.81099 2.52724C0.802617 2.54157 0.797431 2.55769 0.795825 2.5744C0.794219 2.59111 0.796224 2.60798 0.801703 2.62377C1.07711 3.27856 1.36442 3.92922 1.65369 4.5778C1.66016 4.59327 1.66982 4.60705 1.682 4.61814C1.69418 4.62923 1.70857 4.63734 1.72412 4.6419C1.73967 4.64647 1.756 4.64736 1.77191 4.64452C1.78783 4.64167 1.80295 4.63516 1.81616 4.62546C2.39472 4.09292 2.9812 3.56866 3.56173 3.03612C3.56494 3.04834 3.57045 3.05976 3.57794 3.06973C3.58542 3.07969 3.59473 3.08799 3.60531 3.09414C3.8681 3.25439 4.16942 3.33218 4.47332 3.31821C4.77721 3.30425 5.07085 3.19913 5.31919 3.0154C5.55036 2.84192 5.71257 2.5857 5.77503 2.29539C5.83748 2.00508 5.79583 1.70089 5.65799 1.44058ZM5.36079 1.44058L4.24529 1.00543C4.45227 0.96254 4.66662 0.981377 4.86386 1.05979C5.06111 1.13819 5.2333 1.27301 5.36079 1.44886V1.44058ZM2.21243 2.38547L3.20311 3.06306L3.10404 3.15216L1.97269 2.44142L2.21243 2.38547ZM2.39273 2.34403C2.45812 2.32952 2.5235 2.31709 2.59087 2.30052L3.42897 2.85792L3.30811 2.96774L2.39273 2.34403ZM1.78644 4.34157L1.5883 3.89813L2.01825 4.12607L1.78644 4.34157ZM2.13317 4.02868L1.50905 3.69714L1.40404 3.45677L2.23026 3.94165L2.13317 4.02868ZM2.33131 3.84426L1.30299 3.24334L1.10485 2.81233L2.46207 3.71786L2.33131 3.84426ZM2.57501 3.62461L1.09098 2.63413L1.36441 2.57818C1.84179 2.84209 2.29653 3.14852 2.72361 3.49407L2.57501 3.62461ZM2.82665 3.3946C2.42819 3.07332 2.00543 2.78642 1.56255 2.53674L1.77058 2.49115L2.98912 3.25577L2.82665 3.3946ZM3.66674 2.90972H3.64098C3.64351 2.89422 3.64289 2.87834 3.63916 2.86311C3.63543 2.84787 3.62867 2.83363 3.61932 2.82131C3.60997 2.809 3.59825 2.79888 3.58491 2.79162C3.57158 2.78436 3.55692 2.78012 3.54191 2.77918L2.76126 2.26114L2.98713 2.20312L4.33247 3.07549C4.10747 3.04975 3.88608 2.99691 3.67269 2.91802L3.66674 2.90972ZM4.57815 3.0672L3.1714 2.16375L3.23084 2.14925C3.23963 2.14637 3.24772 2.14153 3.25454 2.13506C3.26136 2.12858 3.26675 2.12063 3.27033 2.11175C3.27392 2.10288 3.27561 2.09329 3.27529 2.08366C3.27497 2.07404 3.27264 2.0646 3.26848 2.056C3.27978 2.04904 3.28824 2.03798 3.29226 2.02492V2.01042L4.99424 2.94702C4.86682 3.01734 4.7275 3.06097 4.5841 3.07549L4.57815 3.0672ZM5.33899 2.65278C5.27556 2.73176 5.20226 2.80145 5.12105 2.85999C5.12105 2.85999 5.12105 2.84963 5.1052 2.84756L3.34576 1.87572C3.36755 1.82392 3.38935 1.77212 3.41313 1.72031C4.07094 1.99798 4.71487 2.3088 5.34494 2.65278H5.33899ZM5.51534 2.30673C5.49149 2.38772 5.45751 2.46506 5.41429 2.53674C4.78201 2.19023 4.13327 1.87763 3.47058 1.60013C3.48842 1.56905 3.50624 1.54004 3.52606 1.51103L5.5074 2.30673H5.51534ZM5.54308 2.16997L3.60928 1.39706C3.64855 1.35046 3.69091 1.30684 3.73608 1.26652L5.551 1.97726C5.5569 2.03931 5.55623 2.10185 5.54902 2.16375L5.54308 2.16997ZM3.86289 1.16913C3.91539 1.13371 3.97115 1.10386 4.02933 1.08002L5.46382 1.63743C5.48924 1.69626 5.50979 1.75727 5.52524 1.81978L3.86289 1.16913Z" fill="#D8C800"/>
</svg>
