<svg width="7" height="7" viewBox="0 0 7 7" fill="none" xmlns="http://www.w3.org/2000/svg">
<path d="M4.5713 6.12173C4.80509 5.91451 5.1122 5.58711 5.1122 5.58711L5.28656 5.3799L6.04542 4.47645L6.35848 4.10346C6.35984 4.09523 6.35984 4.08682 6.35848 4.0786C6.36103 4.04274 6.3563 4.00672 6.3446 3.97292C6.40206 3.97292 6.37828 3.9149 6.19204 3.70147C6.00579 3.48803 5.69868 3.15857 5.69868 3.15857L3.14472 0.860562L2.79997 0.547667H2.77421C2.74829 0.54529 2.72218 0.548277 2.69736 0.556454C2.67254 0.564631 2.64951 0.577841 2.62958 0.595329C2.60847 0.57392 2.58177 0.559539 2.55285 0.554007C2.52393 0.548474 2.49409 0.552036 2.46711 0.564245C2.45522 0.564245 2.45323 0.564245 2.44927 0.564245L2.13622 0.937231L1.29415 1.94429L1.14357 2.1225C1.14357 2.1225 0.650204 2.78144 0.677942 2.76072C0.64426 2.81045 0.612566 2.85811 0.586808 2.89955C0.517461 2.95135 0.485758 3.00108 0.485758 3.04874C0.46978 3.07096 0.459259 3.09693 0.455113 3.12439C0.450968 3.15184 0.453326 3.17994 0.461982 3.20622C0.460169 3.21159 0.460169 3.21744 0.461982 3.2228L0.808718 3.5357L3.35871 5.82748C3.35871 5.82748 3.97689 6.31651 3.95312 6.28957C4.21069 6.47399 4.40288 6.56102 4.06605 6.17353C3.86792 5.93731 3.5727 5.62856 3.5727 5.62856L0.996949 3.30983L0.854285 3.18343L1.05242 3.16685L1.22876 3.15235C1.28622 3.15235 1.34765 3.14199 1.40709 3.13784L1.76373 3.10469L1.98762 3.08397C1.98762 3.08397 2.78016 2.96171 2.74252 2.95964C2.82375 2.94306 2.89706 2.92441 2.95254 2.90784C2.96443 2.95135 2.97829 2.99901 2.99414 3.04667C3.02583 3.16795 3.06488 3.28699 3.11104 3.40308C3.1423 3.49539 3.18351 3.58368 3.23389 3.66624C3.22894 3.68664 3.22894 3.70801 3.23389 3.7284C3.24664 3.76993 3.2716 3.80619 3.30521 3.83201C3.30521 3.83201 3.30521 3.83201 3.31908 3.83201C3.45778 3.83201 3.60836 3.87346 3.76489 3.89832C3.81924 3.90924 3.87415 3.91685 3.92934 3.92111H3.95905C3.95905 3.98535 3.97491 4.04959 3.98086 4.11175C3.9868 4.17392 3.99472 4.26509 3.99868 4.3459L4.05417 5.09187L4.07002 5.32188C4.07002 5.32188 4.17701 6.13001 4.18098 6.09686C4.22853 6.36417 4.28994 6.55066 4.32164 6.30407C4.41226 6.2552 4.49623 6.19388 4.5713 6.12173ZM2.75836 2.8063C2.45719 2.78765 2.02922 2.8063 2.02922 2.8063L1.76967 2.83117L1.41303 2.86225C1.35359 2.86225 1.29612 2.87468 1.2347 2.87675L1.05242 2.89333C0.953353 2.89333 0.854285 2.90991 0.767106 2.90991L0.792864 2.88712C1.02468 2.6799 1.33377 2.3525 1.33377 2.3525L1.50813 2.14529L2.35218 1.1403L2.51267 0.949663C2.53447 1.03462 2.55626 1.12165 2.57608 1.20868C2.67514 1.62311 2.75836 2.03754 2.84752 2.45196L2.89507 2.67576L2.93668 2.82495C2.89111 2.80837 2.82572 2.8063 2.75836 2.80423V2.8063ZM4.45836 3.70147L4.14135 3.66624L3.98284 3.64759C3.93133 3.64759 3.88377 3.63516 3.83226 3.62687C3.67573 3.59455 3.51765 3.57103 3.35871 3.55642L3.33295 3.56678L3.30126 3.59164C3.29694 3.51874 3.28901 3.44611 3.27748 3.37407C3.24182 3.06532 3.17643 2.63017 3.17643 2.63017L3.12095 2.36908C3.03377 1.95465 2.94857 1.54022 2.8495 1.1258L2.80789 0.953808L2.96244 1.09264L5.49064 3.372C5.49064 3.372 6.10684 3.85895 6.08505 3.83201C6.12666 3.86309 6.16628 3.88796 6.20194 3.91075H6.16628L6.14845 3.92111L6.12071 3.95634L6.05929 3.94391C5.76605 3.87967 5.346 3.80507 5.346 3.80507L5.09041 3.77814L4.45836 3.70147ZM4.35137 6.10929C4.37118 5.79433 4.36722 5.34882 4.36722 5.34882L4.3474 5.08151L4.2939 4.33554C4.2939 4.2568 4.29391 4.17391 4.27608 4.09103C4.27608 4.05166 4.27608 4.01229 4.26221 3.97499L4.41676 3.99157L5.05078 4.06409L5.27269 4.08896L5.66896 4.09932C5.80369 4.09932 5.93645 4.09932 5.99985 4.09932L5.84332 4.28581L5.08447 5.18926L4.93587 5.36954C4.93587 5.36954 4.44251 6.02848 4.47024 6.00776C4.42269 6.07614 4.38109 6.14245 4.35137 6.19425C4.34741 6.16317 4.34939 6.14037 4.35137 6.10722V6.10929Z" fill="#20B700"/>
</svg>
