<svg width="2" height="4" viewBox="0 0 2 4" fill="none" xmlns="http://www.w3.org/2000/svg">
<path d="M0.88449 1.87192C0.812378 1.9155 0.745808 1.96841 0.686355 2.0294C0.637839 1.72707 0.57167 1.42812 0.48822 1.13424C0.470388 1.07 0.450575 1.00577 0.426799 0.94153C0.414911 0.908376 0.401049 0.877294 0.385199 0.842068C0.377454 0.824623 0.368164 0.807973 0.357457 0.792335V0.777832L0.159322 0.846213C0.157505 0.862736 0.157505 0.87942 0.159322 0.895942C0.164084 0.90799 0.171558 0.918656 0.181114 0.927026L0.191018 0.945675C0.202906 0.970541 0.21282 0.997479 0.222727 1.02442C0.232633 1.05136 0.262349 1.13838 0.280181 1.19848C0.37712 1.56303 0.449949 1.93413 0.498137 2.30914C0.481469 2.36132 0.468227 2.41463 0.458508 2.4687C0.436135 2.58614 0.423539 2.70539 0.420861 2.8251C0.416971 2.88651 0.416971 2.94812 0.420861 3.00953C0.425867 3.04608 0.43382 3.08213 0.444637 3.11728C0.453734 3.14367 0.467144 3.16821 0.484266 3.1898C0.501486 3.21152 0.524099 3.22784 0.549618 3.23698C0.575136 3.24612 0.602568 3.24772 0.6289 3.24161C0.659824 3.23169 0.688247 3.2147 0.712114 3.19187L0.724001 3.17944C0.730569 3.17166 0.736538 3.16335 0.741839 3.15458C0.746833 3.14468 0.750817 3.13426 0.753726 3.12349C0.76033 3.102 0.764324 3.07972 0.765614 3.05719C0.766525 3.04062 0.766525 3.02402 0.765614 3.00745C0.765614 2.94322 0.765614 2.8852 0.765614 2.82718C0.765614 2.71321 0.743821 2.59924 0.729951 2.48527L0.712114 2.35059C0.715437 2.34094 0.720112 2.33186 0.725985 2.32365L0.741839 2.305C0.760742 2.27876 0.781259 2.25385 0.80326 2.2304C0.865395 2.1445 0.957063 2.08727 1.05885 2.07085C1.07762 2.07398 1.09557 2.08112 1.11159 2.09181C1.12761 2.10251 1.14136 2.11653 1.15198 2.13301C1.16743 2.15471 1.18133 2.17756 1.19358 2.20139C1.19971 2.21483 1.20501 2.22868 1.20943 2.24283L1.22132 2.27184C1.23804 2.32032 1.25064 2.37025 1.25897 2.42104C1.25897 2.42104 1.25896 2.45834 1.28076 2.51428C1.30255 2.57023 1.30057 2.64483 1.30652 2.7215C1.32039 2.87484 1.30652 3.02817 1.30652 3.01574C1.2986 3.10301 1.30328 3.19102 1.32039 3.27683C1.33624 3.30377 1.37786 3.24782 1.42739 3.03854C1.45933 2.90279 1.47726 2.76385 1.48088 2.62411C1.48597 2.5503 1.48597 2.4762 1.48088 2.40239C1.47037 2.33772 1.45514 2.27399 1.43531 2.21175V2.18689L1.42144 2.14544C1.40464 2.10554 1.38545 2.06678 1.36398 2.0294C1.3137 1.93983 1.23309 1.87328 1.13811 1.84291C1.05282 1.82308 0.963658 1.83328 0.88449 1.87192ZM0.650692 3.06754C0.657706 3.07074 0.663844 3.07573 0.66853 3.08205L0.650692 3.06754Z" fill="#848936"/>
</svg>
