<svg width="2" height="2" viewBox="0 0 2 2" fill="none" xmlns="http://www.w3.org/2000/svg">
<path d="M0.543157 1.08725C0.543157 1.07275 0.54316 1.07068 0.533253 1.07068C0.52403 1.07587 0.515389 1.08213 0.507494 1.08933C0.488324 1.10756 0.471656 1.12848 0.457961 1.15149L0.446073 1.1805V1.16807C0.432204 1.16807 0.430219 1.16807 0.430219 1.17843L0.446073 1.2033C0.432554 1.23605 0.421935 1.27004 0.414365 1.30483C0.404099 1.36149 0.400773 1.41928 0.40446 1.47682C0.408689 1.53668 0.42207 1.59544 0.44409 1.65088C0.462528 1.71059 0.493685 1.76515 0.535224 1.81043C0.581245 1.85229 0.635297 1.88337 0.693742 1.90161L0.76705 1.92233C0.76705 1.92233 0.778939 1.92233 0.76705 1.92233H0.810634C0.824504 1.93891 0.836392 1.94927 0.810634 1.92233H0.850264C0.912361 1.92778 0.974809 1.91784 1.03254 1.89332C1.14529 1.83763 1.23425 1.74016 1.2822 1.61979C1.30942 1.55423 1.32486 1.48399 1.32776 1.41258C1.34163 1.43123 1.35154 1.43952 1.32776 1.41258C1.32851 1.40639 1.32851 1.40012 1.32776 1.39393C1.33373 1.34925 1.33373 1.30392 1.32776 1.25924C1.30327 1.14347 1.23734 1.0419 1.1435 0.975358C1.08489 0.932995 1.01644 0.90794 0.945365 0.902832H0.931494H0.870072C0.785838 0.914048 0.705543 0.946786 0.636275 0.998152L0.618449 1.01473C0.616601 1.01404 0.61462 1.01384 0.612681 1.01415C0.610741 1.01446 0.608905 1.01527 0.607336 1.0165C0.605766 1.01773 0.60451 1.01935 0.603684 1.02121C0.602857 1.02307 0.602482 1.02511 0.602595 1.02716V1.03959C0.602595 1.03959 0.564953 1.08104 0.568916 1.08104C0.572878 1.08104 0.547121 1.11419 0.568916 1.08104L0.594674 1.05824H0.604578C0.685814 1.18464 0.755164 1.31933 0.830455 1.45195C0.868101 1.51826 0.905739 1.58457 0.947348 1.64673L1.01274 1.74205L1.03453 1.77106L1.07217 1.8125C1.09001 1.82908 1.10189 1.83737 1.08208 1.8125L1.05237 1.76484L1.03651 1.74619C1.01296 1.71578 0.991121 1.68395 0.971123 1.65088C0.929515 1.58664 0.889893 1.52033 0.852247 1.45402C0.776956 1.31933 0.703639 1.18257 0.622404 1.05203L0.646179 1.03338L0.691758 1.00437L0.711567 1.03131C0.788839 1.14527 0.862146 1.26131 0.931494 1.37735L1.03651 1.55556L1.10388 1.67367L1.13359 1.72133C1.14746 1.74205 1.15935 1.75241 1.13359 1.72133L1.1118 1.66953L1.0484 1.55763L0.943381 1.37735C0.872053 1.25717 0.796773 1.13906 0.7195 1.02302L0.699679 0.996081H0.689775C0.724509 0.974475 0.761815 0.957752 0.80073 0.946348C0.837601 0.942054 0.874814 0.942054 0.911685 0.946348V0.960855L1.08208 1.24681L1.1653 1.38979L1.21879 1.48925L1.24852 1.53898C1.26239 1.55763 1.27229 1.57006 1.24852 1.53898L1.2287 1.48925L1.17719 1.39186L1.09198 1.24681L0.919606 0.95671L0.983011 0.971213L1.00481 0.998152C1.05633 1.06653 1.10586 1.13906 1.15143 1.20537L1.22077 1.31519L1.26833 1.396L1.28418 1.41673C1.28324 1.48266 1.27117 1.5479 1.24852 1.60943C1.20989 1.72979 1.12921 1.83045 1.02264 1.89124C0.94546 1.92922 0.858808 1.94082 0.774971 1.9244L0.759117 1.89539L0.610516 1.66745L0.519382 1.52862C0.485329 1.48631 0.453569 1.44204 0.424269 1.396C0.423734 1.38634 0.423734 1.37665 0.424269 1.36699C0.424269 1.36699 0.408425 1.36699 0.406444 1.36699C0.40831 1.38005 0.412332 1.39267 0.418331 1.40429C0.447306 1.45057 0.479068 1.49486 0.513432 1.53691L0.602595 1.67367L0.75318 1.90368L0.765067 1.92025H0.725438L0.697696 1.88088L0.570899 1.73583C0.520024 1.68065 0.475464 1.61946 0.43814 1.55348C0.432091 1.54357 0.4268 1.53318 0.422298 1.5224C0.41041 1.5224 0.406442 1.5224 0.40446 1.5224L0.422298 1.55348C0.459599 1.62011 0.504141 1.68199 0.555045 1.73791L0.683825 1.88296L0.701663 1.90368H0.685808C0.628853 1.88767 0.575149 1.861 0.527303 1.82494C0.484817 1.78414 0.452804 1.73284 0.434185 1.67574C0.412027 1.62155 0.397344 1.56434 0.390589 1.50583C0.383638 1.45011 0.383638 1.39369 0.390589 1.33798C0.397072 1.30495 0.405679 1.27241 0.416348 1.24059C0.483714 1.34834 0.555044 1.4478 0.628354 1.55348L0.741292 1.71511L0.814601 1.82701L0.84828 1.8726C0.86215 1.89124 0.874038 1.90161 0.84828 1.8726L0.822522 1.82286L0.75318 1.71926L0.638258 1.55348C0.560985 1.44573 0.485695 1.33591 0.416348 1.22401C0.419761 1.21376 0.424424 1.20401 0.430219 1.195C0.440519 1.17252 0.454618 1.15216 0.471831 1.13491L0.487674 1.12041C0.494774 1.11369 0.502785 1.1081 0.511449 1.10383L0.543157 1.08725ZM1.26833 1.29447L1.19898 1.18257C1.15143 1.10798 1.10189 1.03545 1.0484 0.964997L1.09001 0.983645C1.13628 1.00976 1.1773 1.04493 1.21087 1.08725C1.24642 1.13182 1.27333 1.1832 1.29012 1.23852C1.30184 1.2796 1.30851 1.32208 1.30994 1.36492L1.26833 1.29447Z" fill="#534098"/>
</svg>
