<svg width="41" height="29" viewBox="0 0 41 29" fill="none" xmlns="http://www.w3.org/2000/svg">
<path d="M33.38 10.4394C32.3199 10.081 31.2639 9.7722 30.2098 9.50282C30.2106 8.14942 29.9977 6.80517 29.5797 5.52431C28.4642 2.29798 24.989 0.797754 21.9575 0.397831C18.508 -0.0559681 14.5889 0.812258 12.4074 3.89353C11.2067 5.59062 10.8639 7.53221 10.9293 9.51525C9.88712 9.78256 8.84493 10.0872 7.80472 10.4394C1.87851 12.4453 0.420238 14.8614 1.20683 16.977C0.360798 19.1901 2.39564 21.3285 5.16953 22.6962C5.07469 23.5259 5.28955 24.3618 5.76936 25.03C6.24918 25.6982 6.95694 26.147 7.74528 26.283C8.99749 26.5338 10.6281 25.7712 11.0918 24.4823C13.2902 24.8941 15.5121 25.1544 17.7432 25.2615C17.9869 29.3353 24.7294 28.6183 24.7334 25.1806C27.0076 25.0188 29.2681 24.6885 31.4977 24.1922C32.2446 25.5806 33.9546 26.0758 35.3732 25.4832C36.6076 24.9672 37.5031 23.467 37.0296 22.147C39.2606 20.7898 40.7268 18.9103 39.9878 16.9667C40.7625 14.8614 39.3042 12.4453 33.38 10.4394ZM34.1309 20.1495C34.1646 20.1495 34.1884 20.193 34.1547 20.2096C32.6786 20.9328 31.034 21.2332 29.445 21.5544C28.0955 21.8406 26.7282 22.0262 25.3535 22.1097C25.3535 22.1097 25.3535 22.0973 25.3535 22.0952C28.2958 21.5896 31.2401 20.9058 34.1309 20.1495ZM30.3128 11.2289C30.3128 11.2165 30.3287 11.2165 30.3287 11.2289C30.5466 13.5829 28.7832 14.7246 26.7623 14.9795C26.7286 14.9795 26.7266 14.9318 26.7623 14.9215C27.5925 14.6231 28.5574 14.2812 29.2211 13.6533C29.8849 13.0255 30.1979 12.1448 30.3128 11.2289ZM12.6967 4.86123C14.6047 1.52301 18.8032 0.71694 22.1933 1.25155C23.564 1.44609 24.8864 1.91388 26.0886 2.62953C26.2982 2.6595 26.4978 2.74204 26.6703 2.87013C26.8428 2.99822 26.9831 3.16806 27.0793 3.36514C27.7009 3.90704 28.2134 4.57264 28.5871 5.32331C28.7546 5.4879 28.8846 5.6897 28.9676 5.91384C29.0506 6.13799 29.0844 6.37877 29.0666 6.6184C29.4628 8.14557 29.3876 9.67481 29.2152 11.2041C29.1562 11.7838 28.9424 12.3345 28.5984 12.7933C28.2543 13.252 27.7938 13.6003 27.2695 13.7984C25.8946 14.2728 24.4693 14.5693 23.0254 14.6811C22.785 14.846 22.5026 14.9313 22.2151 14.9256C21.9906 14.929 21.7683 14.8787 21.5652 14.7785C18.7556 14.8904 15.8193 14.5713 13.8597 13.8004C12.5837 13.2969 11.9259 12.3085 11.8288 11.347C11.599 9.11326 11.5376 6.88778 12.6967 4.85708V4.86123ZM10.7926 10.7378H10.8065C10.965 11.6143 11.0403 12.6027 11.5297 13.3549C11.9678 14.0083 12.5717 14.5207 13.2732 14.8344C14.7335 15.512 16.4434 15.6219 18.0166 15.8021C18.025 15.8021 18.0331 15.8056 18.039 15.8118C18.0449 15.8181 18.0483 15.8265 18.0483 15.8353C18.0483 15.8441 18.0449 15.8525 18.039 15.8587C18.0331 15.865 18.025 15.8684 18.0166 15.8684C14.8563 16.2021 10.0833 15.0707 10.7926 10.7337V10.7378ZM8.09797 25.4956C6.58025 25.4811 6.22163 24.2648 5.94028 23.0546C6.47578 23.2819 7.02279 23.4784 7.57886 23.6431C8.43083 23.898 9.32442 24.1218 10.2457 24.3186C9.72861 25.0273 9.13025 25.5018 8.09797 25.4915V25.4956ZM21.3552 27.2963C19.8474 27.4621 18.9498 26.5628 18.4961 25.3008C20.2674 25.3651 22.0625 25.3464 23.8081 25.2449C23.4534 26.3887 22.7698 27.1368 21.3552 27.2922V27.2963ZM35.2603 24.6295C34.224 25.2697 32.9778 24.8574 32.1496 24.041C32.6489 23.9166 33.1349 23.784 33.6078 23.6431C34.5457 23.3658 35.4565 22.9968 36.3282 22.5407C36.3203 23.3986 36.1261 24.0886 35.2603 24.6253V24.6295ZM38.9832 18.5788C37.7152 20.0293 35.9636 20.8747 34.2141 21.4798C31.9279 22.2494 29.5723 22.7723 27.1843 23.0401C22.5369 23.6215 17.8377 23.5818 13.1999 22.922C9.73852 22.4247 5.81546 21.6601 2.98609 19.3517C2.9425 19.3144 3.00194 19.2336 3.04751 19.2688C4.43446 20.3443 6.10473 20.9659 7.75123 21.4446C9.90448 22.0574 12.1038 22.4768 14.3253 22.6982C19.0363 23.2218 23.7914 23.1278 28.4801 22.4185C30.5386 22.1223 32.565 21.6192 34.5311 20.9162C36.0766 20.3401 37.6557 19.6273 38.9277 18.5229C38.9349 18.5189 38.9431 18.5173 38.9511 18.5183C38.9591 18.5193 38.9667 18.5229 38.9727 18.5285C38.9788 18.5342 38.983 18.5416 38.9849 18.5499C38.9868 18.5581 38.9862 18.5668 38.9832 18.5747V18.5788Z" fill="url(#paint0_linear_134_477)" stroke="#231F20" stroke-width="0.243378" stroke-miterlimit="10"/>
<defs>
<linearGradient id="paint0_linear_134_477" x1="1.01266" y1="14.1651" x2="40.172" y2="14.1651" gradientUnits="userSpaceOnUse">
<stop stop-color="#A71F63"/>
<stop offset="1" stop-color="#3A50A2"/>
</linearGradient>
</defs>
</svg>
