<svg width="7" height="7" viewBox="0 0 7 7" fill="none" xmlns="http://www.w3.org/2000/svg">
<path d="M5.96633 2.70792L5.82367 2.37224L5.65129 2.03862C5.45316 1.65527 5.27286 1.26986 5.11831 0.87615C5.03675 0.672945 4.96534 0.465452 4.90433 0.254507C4.89861 0.244873 4.89121 0.236441 4.88253 0.229643C4.6626 0.0763043 4.5576 0.229638 4.53184 0.341534C4.53184 0.358111 4.53184 0.360186 4.53184 0.370547C4.59584 0.594926 4.67123 0.815578 4.7577 1.03156C4.92017 1.44599 5.11237 1.84177 5.30852 2.22926L5.45713 2.51936L5.74641 3.00216C5.88906 3.24046 6.02578 3.47461 6.01785 3.45182C6.08125 3.55128 6.13871 3.64038 6.18824 3.70462C6.13475 3.72949 6.06936 3.76057 5.99011 3.80201C5.60969 3.9885 5.08067 4.27032 5.08067 4.27032L4.76959 4.46095C3.75849 5.07325 2.71235 5.61994 1.63708 6.09794C1.43895 6.18497 1.24081 6.27201 1.04268 6.35489C1.03373 6.36222 1.02632 6.37138 1.02089 6.38182C0.892098 6.62634 1.05854 6.71752 1.16157 6.73824C1.16592 6.7403 1.17065 6.74136 1.17544 6.74136C1.18022 6.74136 1.18495 6.7403 1.18931 6.73824C1.38744 6.65535 1.58557 6.56624 1.79362 6.47921C2.88153 5.99446 3.94021 5.44087 4.96377 4.8215L5.23522 4.65573L5.37588 4.5542C5.46108 4.49411 5.57403 4.41122 5.683 4.32834C5.90491 4.16464 6.11494 3.99679 6.09314 4.00715C6.17042 3.94084 6.23778 3.87868 6.29128 3.82273C6.30713 3.82273 6.31504 3.82273 6.31901 3.7958C6.42798 3.67976 6.45176 3.61137 6.30118 3.66318C6.27654 3.56281 6.24678 3.4639 6.21202 3.36686C6.14663 3.14721 6.04757 2.9027 5.96633 2.70792Z" fill="#27B361"/>
</svg>
