<svg width="2" height="2" viewBox="0 0 2 2" fill="none" xmlns="http://www.w3.org/2000/svg">
<path d="M0.894043 0.816961C0.894902 0.821754 0.894902 0.826662 0.894043 0.831455C0.904223 0.86632 0.908251 0.902836 0.905931 0.93921C0.905931 0.988942 0.905931 1.04075 0.905931 1.08841C0.923213 1.21537 0.947021 1.34126 0.977256 1.46554C0.975285 1.50281 0.975285 1.54016 0.977256 1.57743C0.980328 1.67683 1.00186 1.77466 1.04066 1.86546L1.05057 1.88411L1.19125 1.83853C1.21418 1.84279 1.23765 1.84279 1.26059 1.83853C1.31544 1.83 1.36691 1.80559 1.40919 1.76807C1.45004 1.73061 1.48308 1.68477 1.50627 1.63339C1.53358 1.57674 1.54847 1.51445 1.54987 1.45104C1.54535 1.37936 1.51895 1.31108 1.47458 1.25625C1.42847 1.20426 1.36836 1.16813 1.3022 1.15265C1.26813 1.14624 1.23324 1.14624 1.19917 1.15265L1.14171 1.16715C1.12314 1.17474 1.10577 1.18522 1.09019 1.19823C1.09019 1.15057 1.07435 1.10291 1.0684 1.05525C1.06551 1.0111 1.06551 0.966784 1.0684 0.92263C1.07037 0.863431 1.06163 0.804383 1.04264 0.748577C1.04264 0.748577 1.03075 0.736147 1.02877 0.738219L1.00301 0.750651V0.725786V0.709206C0.993386 0.70456 0.982914 0.702148 0.97231 0.702148C0.961706 0.702148 0.951222 0.70456 0.941593 0.709206C0.931054 0.716017 0.922286 0.725445 0.916065 0.73665C0.909843 0.747856 0.906363 0.760492 0.905931 0.773442C0.905931 0.773442 0.894043 0.810745 0.894043 0.816961ZM1.16945 1.40959C1.17693 1.39107 1.18768 1.3742 1.20115 1.35986C1.21401 1.35089 1.22931 1.34652 1.24475 1.34743C1.28882 1.34843 1.33105 1.36609 1.36362 1.39716C1.38447 1.41953 1.3971 1.44888 1.39928 1.48004V1.49247C1.40043 1.50626 1.40043 1.52013 1.39928 1.53391C1.39789 1.57734 1.38705 1.61986 1.36759 1.65825C1.35056 1.69615 1.32467 1.72892 1.2923 1.75356C1.26852 1.77428 1.2487 1.77635 1.25267 1.77842C1.23773 1.78608 1.22165 1.79099 1.20512 1.79293C1.206 1.77775 1.206 1.76253 1.20512 1.74735C1.20512 1.69969 1.19125 1.65409 1.18332 1.60851L1.1536 1.46968C1.15771 1.44933 1.163 1.42926 1.16945 1.40959Z" fill="#D62027"/>
</svg>
