<svg width="2" height="3" viewBox="0 0 2 3" fill="none" xmlns="http://www.w3.org/2000/svg">
<path d="M1.21981 1.07355C1.17551 1.01596 1.11639 0.972818 1.04942 0.949219H1.03752C0.999877 0.963724 0.991951 0.986521 0.993932 1.00517C0.995442 1.02187 1.00165 1.03773 1.01177 1.05075C1.05917 1.06818 1.101 1.09904 1.13263 1.13986C1.18947 1.21867 1.22813 1.31015 1.24557 1.40717C1.26643 1.50861 1.27639 1.61216 1.27529 1.71591C1.27529 1.74492 1.27529 1.77393 1.27529 1.80294C1.27817 1.85332 1.27817 1.90384 1.27529 1.95421C1.27529 2.03088 1.25746 2.10341 1.25944 2.09719C1.25043 2.13864 1.24644 2.1811 1.24755 2.22359C1.24755 2.2381 1.27925 2.22359 1.31689 2.11791C1.34107 2.0565 1.359 1.99261 1.37039 1.92728C1.38228 1.86718 1.38822 1.82367 1.38822 1.82367C1.38822 1.78844 1.38822 1.75114 1.38822 1.71591C1.38791 1.6038 1.37662 1.49201 1.35454 1.3823C1.33347 1.26974 1.28731 1.16396 1.21981 1.07355Z" fill="#BF2026"/>
</svg>
