<svg width="6" height="5" viewBox="0 0 6 5" fill="none" xmlns="http://www.w3.org/2000/svg">
<path d="M4.36809 2.0358C4.36297 2.14445 4.34635 2.25216 4.31856 2.35698C4.29082 2.46888 4.25713 2.58284 4.21949 2.69888L4.11448 3.01178L4.059 3.18584C4.04711 3.23764 4.03523 3.29152 4.0273 3.3371L3.97579 3.61063L3.9639 3.68522V3.71838V3.73495V3.74532L4.1224 3.64171C4.33837 3.50081 4.54641 3.36196 4.75247 3.24178L4.83965 3.19205L4.91693 3.15061L5.07147 3.0698C5.1745 3.018 5.2696 2.97034 5.38254 2.9289L5.42217 2.91439L5.45783 2.90196L5.49944 2.88745L5.67579 2.83357L5.76297 2.80871L5.80655 2.79628H5.82834C5.82834 2.79628 5.82834 2.79628 5.82834 2.78592L5.75108 2.616L5.67579 2.44608L5.62625 2.32797L5.56285 2.16013C5.47963 1.93219 5.40236 1.69597 5.31716 1.45974C5.23529 1.21601 5.1373 0.978519 5.02392 0.749C4.96564 0.630301 4.89943 0.516051 4.82578 0.407098C4.79408 0.361511 4.75247 0.311779 4.71681 0.26412L4.66134 0.191594L4.6336 0.154297L4.6118 0.164655L4.32846 0.297275L3.02276 0.906485L2.3709 1.21108C2.14899 1.31469 1.94887 1.41831 1.72696 1.50534C1.49732 1.59872 1.27363 1.70737 1.05727 1.83065C1.00377 1.86381 0.94631 1.90111 0.896776 1.93633C0.847243 1.97156 0.811572 1.98814 0.754113 2.0213C0.679255 2.05951 0.612019 2.11225 0.555978 2.17671C0.490475 2.25621 0.451525 2.35587 0.445023 2.46059C0.438429 2.61792 0.466915 2.77469 0.528237 2.91853C0.576435 3.04088 0.630666 3.16054 0.690709 3.27702L0.771951 3.43864C0.793745 3.48008 0.815533 3.54017 0.83931 3.59612L0.981973 3.94216C1.07213 4.15499 1.17333 4.36251 1.28511 4.56381C1.29388 4.57235 1.30393 4.57935 1.31484 4.58454C1.34772 4.60185 1.38402 4.61086 1.42083 4.61086C1.45765 4.61086 1.49396 4.60185 1.52684 4.58454C1.48722 4.65084 1.59024 4.65499 1.95679 4.53066C2.15493 4.46849 2.40062 4.38146 2.59083 4.30894L2.72159 4.25921L2.82066 4.22605L2.89793 4.1929L3.12975 4.09551C3.16937 4.07894 3.20901 4.05821 3.24864 4.03749C3.30465 4.00899 3.35833 3.97573 3.40912 3.93803C3.43761 3.91713 3.46474 3.89428 3.49035 3.86964C3.51973 3.8407 3.54628 3.80877 3.56961 3.77432C3.63362 3.662 3.68167 3.54055 3.71226 3.41377L3.74397 3.29152C3.74397 3.25008 3.76577 3.2252 3.78162 3.16511L3.84502 2.91853C3.88861 2.7569 3.93418 2.59943 3.98966 2.44816C4.03882 2.30187 4.10539 2.16263 4.18779 2.03373C4.21252 1.98755 4.24547 1.94675 4.28488 1.91354C4.30073 1.91354 4.30865 1.89904 4.31657 1.90111C4.3245 1.90318 4.31657 1.90111 4.32846 1.90111C4.34035 1.90111 4.34234 1.90111 4.34036 1.90111C4.33838 1.90111 4.34036 1.90112 4.34036 1.91977C4.35514 1.95676 4.36449 1.99588 4.36809 2.0358ZM4.64945 1.64209C4.61121 1.59419 4.56312 1.55595 4.50877 1.5302C4.4381 1.49926 4.36082 1.48852 4.28488 1.49911C4.21504 1.50605 4.14745 1.52867 4.08674 1.56542C3.99362 1.62674 3.91395 1.70794 3.85294 1.80371C3.75287 1.96052 3.67168 2.12965 3.61121 2.30725C3.55177 2.4751 3.50225 2.64294 3.45667 2.81286L3.39327 3.05944C3.39327 3.08224 3.36751 3.1361 3.35761 3.17962L3.32393 3.30395C3.30513 3.38289 3.27787 3.45934 3.24269 3.53188C3.23163 3.55383 3.21607 3.57294 3.19712 3.58784C3.16913 3.60952 3.14003 3.62957 3.10994 3.64792L3.06041 3.67694H3.0505L3.0287 3.68937L2.98313 3.71009L2.78499 3.7909L2.62649 3.86757C2.52148 3.92145 2.40854 3.98776 2.28767 4.05407C2.05189 4.18876 1.82008 4.32138 1.84385 4.31516C1.74198 4.37656 1.64462 4.44582 1.5526 4.52237C1.57699 4.47966 1.59061 4.43117 1.59222 4.38146C1.59222 4.36488 1.59222 4.36282 1.59222 4.35453C1.48899 4.16347 1.39508 3.96705 1.31087 3.76604L1.1702 3.42413C1.14643 3.36818 1.12463 3.31016 1.09293 3.24385L1.00773 3.07394C0.953473 2.9721 0.905163 2.86693 0.863085 2.75898C0.826134 2.67438 0.806564 2.58261 0.80563 2.4896C0.80563 2.45438 0.805635 2.44816 0.823468 2.43365C0.849446 2.40705 0.879596 2.38532 0.912619 2.36942C0.95819 2.34248 1.01764 2.3114 1.07906 2.26788L1.21974 2.17671C1.42046 2.06152 1.62829 1.96044 1.84187 1.87417C2.06378 1.783 2.29164 1.66695 2.50365 1.57163L3.15352 1.26911L4.45132 0.661968L4.49093 0.643319C4.5557 0.735058 4.61334 0.832072 4.66331 0.933424C4.7688 1.14625 4.86016 1.36642 4.93674 1.59236C5.01995 1.82237 5.09525 2.05859 5.18243 2.29688L5.25178 2.47716L5.27357 2.52896L5.22205 2.54762C5.10317 2.59528 4.99024 2.64708 4.87928 2.70303L4.71483 2.78798L4.56424 2.87295L4.57613 2.83565C4.61576 2.71339 4.65341 2.59114 4.68313 2.46267C4.71958 2.32757 4.74086 2.18849 4.74653 2.04824C4.74979 1.96187 4.73838 1.87556 4.71284 1.79336C4.70036 1.73943 4.67891 1.68823 4.64945 1.64209Z" fill="#27B361"/>
</svg>
