<svg width="1" height="1" viewBox="0 0 1 1" fill="none" xmlns="http://www.w3.org/2000/svg">
<path d="M0.866153 0.259832C0.847994 0.244133 0.827152 0.232183 0.804732 0.224609H0.788877H0.765102H0.721518C0.693874 0.230821 0.66822 0.24438 0.647049 0.263981C0.625877 0.283581 0.609895 0.308556 0.600647 0.3365C0.58787 0.37899 0.58787 0.424557 0.600647 0.467046C0.611159 0.499829 0.628794 0.529621 0.652164 0.554079C0.660788 0.562812 0.670864 0.569835 0.681889 0.574802H0.693777C0.704193 0.577439 0.715056 0.577439 0.725473 0.574802C0.739315 0.576095 0.753244 0.576095 0.767086 0.574802H0.810669C0.833936 0.560279 0.853091 0.539535 0.866153 0.514708H0.895878C0.90407 0.503273 0.910731 0.490726 0.915687 0.477411C0.92934 0.446335 0.934156 0.411805 0.929557 0.377946C0.923907 0.331453 0.901164 0.289087 0.866153 0.259832ZM0.751231 0.431823C0.751231 0.421463 0.751231 0.417319 0.751231 0.419391C0.749448 0.411207 0.749448 0.40271 0.751231 0.394526H0.765102C0.765102 0.394526 0.765102 0.394522 0.765102 0.409027C0.766773 0.413704 0.766773 0.418856 0.765102 0.423533L0.778973 0.440107C0.778973 0.446324 0.759161 0.442184 0.755198 0.431823H0.751231Z" fill="black"/>
</svg>
