<svg width="2" height="2" viewBox="0 0 2 2" fill="none" xmlns="http://www.w3.org/2000/svg">
<path d="M1.47508 0.488601C1.48203 0.429516 1.4773 0.369568 1.46121 0.312468C1.43779 0.248856 1.39356 0.195991 1.33638 0.163274L1.29676 0.142557L1.24327 0.125977C1.21181 0.128519 1.18063 0.134072 1.15014 0.142557C1.09821 0.156389 1.04872 0.178767 1.00352 0.208861C0.910969 0.268814 0.840997 0.360287 0.805385 0.467879C0.789147 0.522858 0.781784 0.580284 0.783593 0.637796C0.787859 0.694312 0.80126 0.749665 0.823222 0.801496C0.823222 0.801496 0.835112 0.801496 0.837093 0.813929C0.892571 0.842939 0.920302 0.828434 0.940115 0.813929C0.954866 0.794575 0.965053 0.771857 0.96984 0.747619V0.737261C0.940811 0.672287 0.93656 0.598184 0.957953 0.530047C0.980603 0.459424 1.02616 0.399312 1.08673 0.360129C1.11724 0.339543 1.15068 0.324155 1.1858 0.314542C1.19436 0.313583 1.203 0.313583 1.21156 0.314542H1.22741H1.2492C1.261 0.319105 1.27172 0.326281 1.28061 0.335581C1.2895 0.344881 1.29636 0.356085 1.30072 0.36842C1.30812 0.400422 1.30812 0.433808 1.30072 0.465811C1.28953 0.550455 1.26823 0.633298 1.23732 0.712396C1.21055 0.778461 1.19319 0.848275 1.1858 0.91961C1.18662 0.935022 1.19038 0.950107 1.19684 0.963983C1.20331 0.97786 1.21235 0.990246 1.22345 1.00042C1.24287 1.01438 1.26537 1.02294 1.28883 1.02528C1.30838 1.01882 1.32756 1.01122 1.34629 1.00249L1.40177 0.975556H1.41564H1.4414C1.45923 0.975556 1.46914 0.975554 1.48499 1.00664C1.51173 1.07212 1.51661 1.14511 1.49886 1.21385C1.49216 1.24141 1.48355 1.26842 1.4731 1.29467C1.46438 1.31666 1.45446 1.3381 1.44339 1.3589V1.37341C1.43752 1.38733 1.43021 1.40053 1.42158 1.41277C1.39803 1.4526 1.36936 1.48886 1.33638 1.52053C1.2889 1.56454 1.23632 1.60214 1.17986 1.63243C1.12496 1.65386 1.07193 1.6802 1.02136 1.71116C1.02136 1.71116 1.02135 1.72774 1.05107 1.73189C1.10144 1.74222 1.15326 1.74222 1.20364 1.73189C1.30156 1.71104 1.39288 1.66472 1.46914 1.5972C1.51088 1.56132 1.54756 1.51946 1.57812 1.47287C1.59391 1.44707 1.60782 1.42006 1.61972 1.39206L1.63755 1.34854V1.32575V1.31539V1.29673C1.67303 1.18862 1.67303 1.07123 1.63755 0.963123C1.62517 0.931435 1.607 0.902576 1.58405 0.878165C1.55796 0.851684 1.52595 0.832453 1.49094 0.822219H1.43744C1.42165 0.820071 1.40567 0.820071 1.38989 0.822219H1.36809V0.797354C1.41547 0.699298 1.45139 0.595633 1.47508 0.488601Z" fill="#3770B7"/>
</svg>
