<svg width="5" height="3" viewBox="0 0 5 3" fill="none" xmlns="http://www.w3.org/2000/svg">
<path d="M3.7953 0.657916C3.49216 0.686926 3.06815 0.771888 3.06815 0.771888L3.12561 0.691071C3.24251 0.529444 3.3594 0.376105 3.34553 0.386466C3.41708 0.301673 3.47345 0.204113 3.51197 0.0984419C3.51197 0.0590712 3.43469 0.0984434 3.23854 0.268359C3.00078 0.475573 2.69962 0.798826 2.69962 0.798826L2.62234 0.896217L2.48761 0.933514C2.44402 0.81333 2.40241 0.693144 2.35684 0.575032C2.2974 0.421693 2.23598 0.268357 2.1706 0.11709C2.1646 0.110817 2.15795 0.10526 2.15078 0.100516C1.9784 0.011414 1.92293 0.144026 1.91104 0.218623C1.91104 0.231056 1.91104 0.23313 1.91104 0.239346C1.97444 0.386468 2.03388 0.535661 2.09332 0.684855C2.13559 0.793988 2.17522 0.90381 2.2122 1.01432L1.72479 0.662064L1.34239 0.382324H1.31862C1.29871 0.382971 1.27915 0.387911 1.26116 0.396831L1.21558 0.417553C1.19154 0.427795 1.17135 0.44599 1.15812 0.469357C1.15073 0.492352 1.1478 0.516657 1.1495 0.540852C1.1512 0.565047 1.1575 0.588644 1.16803 0.610261C1.16887 0.613708 1.17035 0.616946 1.17239 0.619791C1.17443 0.622636 1.17699 0.62503 1.17992 0.626835L1.56629 0.90865L1.86349 1.11586C1.66535 1.17596 1.46722 1.24019 1.28097 1.31065C1.20568 1.33758 1.13039 1.36659 1.0551 1.39975C0.973603 1.43174 0.895299 1.47199 0.821298 1.51993C0.813859 1.52894 0.807226 1.53866 0.801483 1.54894C0.795967 1.56382 0.791333 1.57905 0.787612 1.59453C0.784989 1.6089 0.784989 1.62367 0.787612 1.63804C0.787778 1.65953 0.795545 1.6802 0.80941 1.69606C0.826957 1.71678 0.850706 1.73066 0.876775 1.73543C0.895657 1.73738 0.914268 1.74155 0.932253 1.74786C0.943429 1.75839 0.957126 1.76555 0.971882 1.76859H0.98377C1.04302 1.7311 1.10535 1.6992 1.17002 1.67327C1.23936 1.64426 1.31069 1.61525 1.38202 1.59038C1.63959 1.49506 1.90311 1.41218 2.17456 1.33136L2.24786 1.38524C2.04577 1.64495 1.84763 1.90535 1.65346 2.16644L1.33843 2.55186C1.33763 2.56012 1.33763 2.56845 1.33843 2.57672C1.33843 2.78393 1.47316 2.77358 1.53656 2.74871C1.54845 2.74871 1.55043 2.74871 1.55439 2.73835L1.84763 2.355C2.03388 2.11049 2.22079 1.86805 2.40836 1.62768L2.42025 1.66705L2.48365 1.88877C2.48365 1.88877 2.54903 2.08355 2.61045 2.27419C2.67188 2.46483 2.72537 2.65547 2.72537 2.63889C2.82642 2.95178 2.9235 3.15071 2.87991 2.61195C2.86605 2.45239 2.83831 2.25968 2.81255 2.10841C2.78679 1.95715 2.765 1.84526 2.765 1.84526L2.74122 1.76651L2.99087 1.95094L3.17316 2.0877L3.50008 2.30941C3.66255 2.41924 3.81908 2.52906 3.80719 2.51663C3.89308 2.58465 3.98962 2.63654 4.0925 2.66997C4.11034 2.66997 4.11232 2.64925 4.0925 2.60366C4.04134 2.52913 3.98363 2.45975 3.92012 2.39645C3.70812 2.16437 3.37525 1.87427 3.37525 1.87427L3.16325 1.71264L2.6481 1.33136L2.75113 1.19875L2.78283 1.1573L2.88983 1.1283L3.10579 1.0682L3.47829 0.943873C3.66255 0.881708 3.84285 0.821617 3.827 0.821617C3.93182 0.792501 4.03057 0.743324 4.11826 0.676571C4.13411 0.641345 4.05882 0.626834 3.7953 0.657916Z" fill="url(#paint0_linear_134_276)"/>
<defs>
<linearGradient id="paint0_linear_134_276" x1="0.779687" y1="1.50957" x2="4.11628" y2="1.50957" gradientUnits="userSpaceOnUse">
<stop stop-color="#A71F63"/>
<stop offset="1" stop-color="#49486D"/>
</linearGradient>
</defs>
</svg>
