<svg width="8" height="8" viewBox="0 0 8 8" fill="none" xmlns="http://www.w3.org/2000/svg">
<path d="M4.64121 0.575451C2.67967 0.243909 0.70625 1.7027 0.294129 3.65672C0.116351 4.32663 0.130825 5.03642 0.335742 5.69779C0.718142 6.85197 1.97036 7.50262 3.06208 7.63316C3.6973 7.72549 4.34422 7.66768 4.95526 7.46399C5.56629 7.2603 6.12587 6.91592 6.59283 6.45619C8.6039 4.40062 7.26649 1.02096 4.64121 0.575451ZM0.876646 5.96302C0.26441 5.02227 0.551705 3.75204 1.02525 2.81129C1.5074 2.06643 2.20748 1.50514 3.02047 1.2116C5.39808 0.337157 8.01346 2.7367 6.91777 5.29579C5.94493 7.56686 2.26359 8.10354 0.876646 5.96509V5.96302Z" fill="#009898"/>
</svg>
