<svg width="6" height="9" viewBox="0 0 6 9" fill="none" xmlns="http://www.w3.org/2000/svg">
<path d="M0.210248 5.39263C0.271985 5.42653 0.33914 5.4483 0.408383 5.45687L0.446029 5.46723C0.460405 5.47036 0.475237 5.47036 0.489612 5.46723L0.745214 5.41336C0.795749 5.37941 0.853694 5.35945 0.913624 5.35534L0.949287 5.33047C0.960519 5.32169 0.973319 5.31534 0.986933 5.31182L1.0444 5.29938H1.0761H1.11176L1.18111 5.28074C1.20472 5.27096 1.22932 5.26401 1.25442 5.26001L1.32773 5.24965C1.34946 5.24285 1.36966 5.23158 1.38717 5.2165C1.40726 5.20036 1.43014 5.18841 1.45454 5.18128C1.41491 5.32633 1.38123 5.4693 1.35349 5.60606C1.32575 5.74282 1.30197 5.85887 1.2782 5.95833L1.22866 6.13861C1.20687 6.20906 1.18111 6.30852 1.15337 6.43285L1.06421 6.81412C1.03251 6.93845 1.00477 7.05449 0.980995 7.15809C0.967607 7.22834 0.949731 7.29756 0.927495 7.36531C0.913633 7.4054 0.901731 7.44621 0.891832 7.48756C0.882797 7.51943 0.876176 7.552 0.872023 7.58496C0.872023 7.61604 0.872014 7.64919 0.862107 7.68235C0.8522 7.7155 0.862107 7.75902 0.850219 7.80875C0.82946 7.87612 0.82946 7.9486 0.850219 8.01596C0.87174 8.08309 0.902443 8.1466 0.941366 8.20453C0.96412 8.25503 0.998921 8.29856 1.04242 8.33093C1.09273 8.35192 1.14684 8.36111 1.20092 8.35787C1.28216 8.35787 1.33367 8.33922 1.35943 8.28534V8.27498L1.44067 8.28949C1.45542 8.26431 1.46675 8.23711 1.47435 8.20867C1.47435 8.18588 1.50208 8.17138 1.54369 8.16516C1.5853 8.15894 1.56549 8.14858 1.56153 8.12165C1.58057 8.02648 1.60844 7.93348 1.64474 7.84397C1.68272 7.75098 1.71256 7.65458 1.7339 7.55595C1.76362 7.45649 1.7874 7.3736 1.80523 7.30315C1.82306 7.23269 1.8409 7.14981 1.85873 7.0462C1.85063 7.02271 1.84838 6.99745 1.85219 6.9728C1.856 6.94815 1.86575 6.92492 1.88052 6.90529C1.91466 6.84765 1.9306 6.78023 1.92609 6.71259C1.9459 6.64835 1.96572 6.57168 1.98751 6.48258C2.00931 6.39348 2.04101 6.28573 2.07667 6.15725C2.07786 6.13808 2.08187 6.11921 2.08856 6.10131L2.11037 6.05157C2.13619 5.97619 2.15542 5.89851 2.16782 5.81949C2.18763 5.76562 2.20349 5.71381 2.21934 5.66201C2.23317 5.61192 2.24246 5.56058 2.24708 5.50867L2.28274 5.36155L2.33821 5.11911C2.3614 5.0937 2.37899 5.06329 2.38973 5.03001C2.39174 5.00936 2.4009 4.9902 2.41549 4.97613C2.46582 4.94335 2.52284 4.92347 2.58192 4.91811C2.63378 4.91503 2.68414 4.89867 2.72854 4.87046C2.76553 4.85489 2.80407 4.84377 2.84345 4.8373C2.88293 4.83129 2.92154 4.82015 2.95838 4.80415C2.96423 4.80322 2.9698 4.80085 2.97462 4.79725C2.97944 4.79365 2.98338 4.78892 2.98612 4.78342C2.99334 4.77303 3.00388 4.76568 3.01583 4.7627C3.02292 4.76032 3.03055 4.76032 3.03763 4.7627C3.04155 4.76506 3.04599 4.76631 3.05051 4.76631C3.05504 4.76631 3.05948 4.76506 3.06339 4.7627C3.0737 4.74824 3.08779 4.73721 3.10397 4.73096C3.12014 4.72471 3.13771 4.7235 3.15453 4.72748C3.18546 4.73779 3.21871 4.73779 3.24964 4.72748C3.31948 4.69512 3.39365 4.67415 3.46957 4.66531C3.54933 4.65772 3.62826 4.64246 3.70535 4.61972C3.7126 4.67541 3.7126 4.73187 3.70535 4.78757C3.69294 4.87965 3.67575 4.97096 3.65383 5.06109C3.63402 5.14812 3.61618 5.23308 3.60033 5.32011C3.58448 5.40714 3.57061 5.44651 3.56268 5.47967L3.53693 5.56048C3.529 5.58534 3.52108 5.61435 3.51315 5.64751C3.49949 5.70406 3.48956 5.76152 3.48344 5.81949L3.4121 6.18212C3.38832 6.29401 3.35861 6.42042 3.317 6.55925C3.317 6.60898 3.29719 6.66286 3.28729 6.71673C3.27738 6.77061 3.26549 6.8307 3.25756 6.89079C3.24964 6.95089 3.25756 6.97989 3.25756 7.02341C3.25268 7.06608 3.25268 7.10921 3.25756 7.15188C3.26758 7.19006 3.27552 7.2288 3.28134 7.26792C3.28134 7.30936 3.29323 7.35495 3.29917 7.40261C3.30285 7.4563 3.32491 7.50679 3.3613 7.54485C3.39769 7.58291 3.44598 7.60598 3.49731 7.60983C3.51619 7.61458 3.53588 7.61458 3.55476 7.60983C3.56427 7.60982 3.57366 7.61205 3.58224 7.61635C3.59081 7.62066 3.59835 7.62693 3.6043 7.63469C3.61158 7.64176 3.62027 7.64705 3.62974 7.65018C3.63921 7.65332 3.64923 7.65423 3.65908 7.65285C3.66893 7.65146 3.67836 7.64781 3.6867 7.64217C3.69504 7.63652 3.70209 7.62901 3.70733 7.62018L3.75884 7.53108C3.76821 7.51684 3.78037 7.50483 3.79451 7.49585C3.80457 7.48677 3.81698 7.481 3.83017 7.47928C3.85791 7.47928 3.87178 7.47928 3.87574 7.45234C3.87671 7.43425 3.88294 7.41691 3.89358 7.40261C3.89358 7.39018 3.90942 7.38396 3.91339 7.38396L3.9649 7.40054C3.96612 7.36994 3.96943 7.33947 3.97481 7.30936C3.98455 7.27345 3.99118 7.2367 3.99462 7.19954C4.00098 7.16574 4.01164 7.13299 4.02633 7.10215C4.041 7.07204 4.05166 7.03997 4.05802 7.00683C4.07585 6.9426 4.0917 6.88043 4.10756 6.81619C4.12306 6.75414 4.13496 6.69117 4.14322 6.62763C4.16105 6.55925 4.17294 6.49709 4.18285 6.44321C4.19275 6.38933 4.20068 6.33753 4.21059 6.28573C4.2205 6.23392 4.22842 6.18005 4.23635 6.1241C4.24564 6.05784 4.2582 5.99214 4.27399 5.92724L4.35324 5.55633C4.39997 5.41649 4.42927 5.27093 4.44042 5.12326C4.45132 4.97049 4.47925 4.81958 4.52365 4.6736C4.53107 4.63179 4.53636 4.5896 4.53949 4.5472C4.53949 4.49747 4.5593 4.46639 4.591 4.45603C4.64048 4.43669 4.69156 4.42212 4.74357 4.41251C4.79668 4.40511 4.84863 4.39049 4.89811 4.369L4.97737 4.33791C4.99349 4.33268 5.01009 4.3292 5.0269 4.32755L5.09427 4.31305C5.13944 4.29927 5.18376 4.28266 5.22702 4.26331C5.23773 4.25432 5.25023 4.24797 5.26362 4.24474C5.277 4.24151 5.29091 4.24149 5.3043 4.24467C5.32657 4.2353 5.34629 4.22036 5.36175 4.20115C5.37847 4.18261 5.40094 4.17086 5.42516 4.168C5.42516 4.15764 5.42516 4.14728 5.42516 4.13692C5.4387 4.12512 5.45329 4.11471 5.46874 4.10584L5.5163 4.07268C5.52666 4.06586 5.536 4.05748 5.54403 4.04782L5.57574 4.01051C5.58763 3.99808 5.57574 3.98358 5.57574 3.96907C5.57574 3.95457 5.57574 3.94628 5.60744 3.91105C5.63914 3.87583 5.64509 3.85096 5.63716 3.83645C5.62924 3.82195 5.62329 3.82195 5.63716 3.82402C5.65103 3.82609 5.65499 3.81159 5.66687 3.78258L5.59555 3.66654C5.58366 3.66654 5.59555 3.63753 5.59555 3.60852C5.59555 3.57951 5.60744 3.56293 5.59555 3.55879L5.55394 3.51113L5.51234 3.47176C5.48347 3.47678 5.45402 3.47678 5.42516 3.47176C5.39036 3.46615 5.35494 3.46615 5.32014 3.47176C5.29358 3.47181 5.26731 3.47745 5.24288 3.48834C5.22703 3.48834 5.21116 3.48834 5.19531 3.52356C5.17946 3.55879 5.16758 3.55879 5.1557 3.5505C5.14153 3.53685 5.12386 3.52781 5.10486 3.5245C5.08585 3.52119 5.06633 3.52374 5.0487 3.53185C4.99124 3.53185 4.9635 3.54635 4.9635 3.55257C4.9635 3.55879 4.9635 3.55257 4.98134 3.56294C4.98471 3.56112 4.98844 3.56017 4.99223 3.56017C4.99602 3.56017 4.99976 3.56112 5.00313 3.56294C5.00313 3.56294 4.98133 3.5733 4.92982 3.58158C4.90741 3.58924 4.88404 3.59343 4.86047 3.59402H4.78914V3.57951V3.536C4.80301 3.48419 4.82084 3.41788 4.83867 3.32878C4.8565 3.23968 4.87632 3.16716 4.89811 3.0822C4.91991 2.99724 4.93972 2.92264 4.9635 2.85012C4.98161 2.78891 5.00278 2.72873 5.0269 2.66984C5.0269 2.66984 5.0388 2.65327 5.04474 2.62426C5.05861 2.56209 5.0705 2.50407 5.08239 2.44812C5.09427 2.39217 5.10814 2.33623 5.12597 2.27199C5.13725 2.23436 5.15116 2.19766 5.16758 2.16217C5.17886 2.13651 5.18877 2.11022 5.1973 2.08342C5.20367 2.05533 5.21161 2.02766 5.22107 2.00054C5.22107 1.97153 5.24287 1.93009 5.25673 1.87828C5.27476 1.8482 5.28813 1.81533 5.29636 1.78089C5.30421 1.7482 5.31483 1.7163 5.32807 1.68557C5.36855 1.61124 5.39795 1.53088 5.41525 1.44728C5.4311 1.36646 5.44695 1.28151 5.4628 1.19033C5.46615 1.14345 5.47616 1.09736 5.49252 1.05357L5.52819 0.972759C5.53758 0.954167 5.54298 0.933661 5.54403 0.912666C5.54403 0.889872 5.54403 0.862931 5.54403 0.831849C5.54403 0.800767 5.54403 0.759325 5.55592 0.709594C5.56781 0.659862 5.55592 0.622567 5.57177 0.583196C5.57605 0.540857 5.56775 0.49817 5.548 0.46094C5.50837 0.400848 5.47469 0.353187 5.4529 0.315888C5.4375 0.296698 5.41845 0.281076 5.39696 0.270016C5.37546 0.258956 5.352 0.252702 5.32807 0.251652C5.21809 0.222316 5.10176 0.234042 4.99916 0.284807C4.9466 0.309053 4.89971 0.344956 4.86173 0.390039C4.82376 0.435122 4.79561 0.488302 4.77923 0.545893C4.76777 0.586144 4.75387 0.625596 4.73762 0.664006C4.72351 0.696727 4.71224 0.730713 4.70394 0.765545L4.6247 1.01006C4.59193 1.10015 4.56673 1.19305 4.5494 1.28772C4.53089 1.38209 4.50572 1.4749 4.47411 1.56539C4.45628 1.62755 4.44043 1.68143 4.42656 1.7208C4.41377 1.75948 4.40318 1.79892 4.39485 1.83891C4.39485 1.87621 4.37702 1.91558 4.36711 1.95909C4.3572 2.00261 4.34136 2.05856 4.32551 2.12694L4.17493 2.74858C4.12936 2.88327 4.08774 3.02417 4.04812 3.17544C4.00849 3.32671 3.97283 3.4759 3.94113 3.63131C3.94113 3.64789 3.94113 3.66239 3.93122 3.67483L3.91339 3.72663C3.91339 3.75564 3.89357 3.77636 3.8579 3.79294L3.54486 3.88826C3.48921 3.90682 3.43222 3.92068 3.37445 3.9297C3.31481 3.93911 3.25589 3.95296 3.19812 3.97115C3.13334 3.99135 3.06707 4.0059 2.99999 4.01466C2.93203 4.02004 2.86523 4.0361 2.80185 4.06232C2.7823 4.07515 2.75954 4.08164 2.73647 4.08097C2.71435 4.07518 2.69121 4.07518 2.66909 4.08097C2.65915 4.04299 2.65915 4.00291 2.66909 3.96493C2.68098 3.92348 2.69287 3.87582 2.70674 3.8178C2.7278 3.69964 2.75492 3.58274 2.78798 3.46761C2.8177 3.36815 2.84544 3.2604 2.87318 3.14436L3.05348 2.46056C3.06087 2.43399 3.06682 2.407 3.07131 2.37974C3.0748 2.35326 3.08358 2.32785 3.09707 2.30514C3.10188 2.23183 3.11248 2.15905 3.12877 2.08757C3.14264 2.02126 3.15651 1.9591 3.17038 1.90315L3.18822 1.82026C3.18822 1.78297 3.20604 1.74567 3.21793 1.70422C3.22982 1.66278 3.23576 1.62548 3.24171 1.58819C3.24494 1.56205 3.24494 1.53558 3.24171 1.50944C3.24841 1.48561 3.25772 1.46266 3.26945 1.44106C3.27656 1.41816 3.27656 1.3935 3.26945 1.37061C3.28728 1.31051 3.30512 1.25457 3.32097 1.19862C3.33834 1.14503 3.34899 1.0893 3.35266 1.03285L3.37445 1.01212C3.38043 0.972307 3.38043 0.93176 3.37445 0.891943C3.37445 0.846356 3.37447 0.817347 3.38635 0.802842C3.39201 0.75606 3.39201 0.708721 3.38635 0.661938C3.38266 0.638293 3.37399 0.615801 3.36097 0.59609C3.34795 0.576379 3.3309 0.55994 3.31106 0.547967C3.25825 0.4539 3.1721 0.385405 3.07131 0.357333C3.02343 0.353486 2.97526 0.357683 2.92865 0.369766C2.88538 0.382068 2.84075 0.388338 2.7959 0.388414L2.74439 0.417421C2.73037 0.426413 2.71495 0.432727 2.69882 0.436069C2.67711 0.465158 2.651 0.490357 2.62154 0.51067C2.58585 0.532008 2.55427 0.560115 2.52843 0.593554C2.49179 0.699138 2.46459 0.808047 2.44718 0.918882C2.42737 1.03492 2.41152 1.1406 2.39765 1.23799C2.40076 1.30321 2.38994 1.36834 2.36595 1.42863C2.34406 1.49578 2.32944 1.56528 2.32236 1.63584C2.32236 1.698 2.30255 1.7726 2.2867 1.8617C2.27541 1.93882 2.25886 2.015 2.23716 2.08964C2.20457 2.1759 2.17809 2.26455 2.15792 2.35487C2.13414 2.45019 2.11432 2.53929 2.09451 2.62632C2.09211 2.63222 2.09087 2.63856 2.09087 2.64497C2.09087 2.65138 2.09211 2.65772 2.09451 2.66362C2.09915 2.68125 2.09915 2.69987 2.09451 2.7175L2.07074 2.78795L2.08262 2.80453C2.09623 2.83193 2.10043 2.86338 2.09451 2.89363C2.09451 2.92264 2.08064 2.95165 2.07272 2.97859C2.0212 3.14851 1.97761 3.30806 1.93996 3.45725C1.90231 3.60645 1.8726 3.77429 1.84288 3.96286C1.83979 3.97083 1.83979 3.97975 1.84288 3.98772H1.82702C1.81513 4.02916 1.80722 4.0561 1.80128 4.07061C1.79939 4.08227 1.79939 4.09418 1.80128 4.10584C1.80128 4.10584 1.80127 4.12655 1.78542 4.14106C1.77073 4.1654 1.75813 4.19106 1.74778 4.21773C1.74249 4.23384 1.74249 4.25135 1.74778 4.26746C1.75075 4.28459 1.75075 4.30214 1.74778 4.31927C1.75055 4.33363 1.75055 4.34842 1.74778 4.36278C1.74152 4.3682 1.734 4.37178 1.72598 4.37314C1.59125 4.41044 1.48426 4.44152 1.40501 4.4726C1.29954 4.51172 1.19072 4.54017 1.08006 4.55756C1.02108 4.57674 0.960806 4.59128 0.899753 4.60107C0.838331 4.60107 0.772947 4.6218 0.701618 4.6363L0.592646 4.65703L0.499529 4.6736C0.45902 4.67435 0.419139 4.68425 0.382624 4.70261C0.348941 4.72333 0.313273 4.73991 0.27959 4.75648L0.210248 4.80829C0.174584 4.83523 0.156749 4.85595 0.158731 4.86631C0.133657 4.91582 0.111809 4.96706 0.093343 5.01965C0.0780979 5.07093 0.0780979 5.12584 0.093343 5.17713C0.0958413 5.21999 0.107681 5.26169 0.127942 5.29904C0.148202 5.33639 0.176351 5.3684 0.210248 5.39263Z" fill="#B94E9C"/>
</svg>
