<svg width="4" height="8" viewBox="0 0 4 8" fill="none" xmlns="http://www.w3.org/2000/svg">
<path d="M2.70641 1.0669L2.60735 0.822393L2.58754 0.778886C2.57212 0.746112 2.55492 0.714282 2.53602 0.683563C2.49639 0.615182 2.45875 0.548877 2.46073 0.557166C2.39138 0.449414 2.3359 0.389321 2.40525 0.58203C2.42506 0.64005 2.45082 0.708428 2.47262 0.760231C2.48108 0.782586 2.48836 0.805418 2.49441 0.828616L2.50432 0.855554L2.56178 0.998533C2.68217 1.30382 2.76988 1.6221 2.82331 1.94756L2.84511 2.06983C2.84511 2.11127 2.84511 2.15063 2.85898 2.19208C2.85898 2.27496 2.87681 2.35577 2.88276 2.43866C2.90195 2.76828 2.89333 3.09904 2.857 3.42708C2.82926 3.5887 2.81143 3.75447 2.76982 3.91402C2.75 3.99277 2.73613 4.07566 2.71236 4.15233L2.64103 4.38855C2.61726 4.46729 2.58357 4.54396 2.55584 4.62063L2.51422 4.7346C2.49837 4.77397 2.47856 4.80919 2.46271 4.84649C2.32993 5.1461 2.16721 5.43019 1.97728 5.694C1.79392 5.96219 1.5826 6.20822 1.34721 6.42753C1.11916 6.64939 0.849174 6.81881 0.554673 6.92485L0.471454 6.95179L0.388241 6.97043C0.34267 7.03052 0.388242 7.06368 0.408055 7.07404L0.499196 7.05332L0.588353 7.02431C0.892796 6.91577 1.17267 6.74299 1.41062 6.51665C1.64813 6.29633 1.86205 6.04967 2.04861 5.78103C2.09814 5.71472 2.14173 5.64634 2.1873 5.57381C2.23287 5.50129 2.27844 5.43912 2.31807 5.3666C2.40034 5.22492 2.47573 5.079 2.54395 4.92938C2.61726 4.78018 2.66877 4.62478 2.72821 4.46937C2.75397 4.39063 2.77774 4.31188 2.80152 4.23314L2.83718 4.11295L2.86493 3.99277C3.01754 3.34616 3.04716 2.6745 2.95211 2.01595C2.89852 1.69232 2.81627 1.3746 2.70641 1.0669Z" fill="#624299"/>
</svg>
