<svg width="2" height="2" viewBox="0 0 2 2" fill="none" xmlns="http://www.w3.org/2000/svg">
<path d="M1.2517 0.916351V0.905992L1.30915 0.941215C1.32638 0.953874 1.345 0.964302 1.36462 0.97229C1.36462 0.97229 1.36463 0.955721 1.33095 0.916351C1.2941 0.880947 1.25432 0.849044 1.21207 0.821028L1.16254 0.798237C1.12922 0.784193 1.0934 0.777826 1.05752 0.779582L1.02384 0.796163C1.014 0.802057 1.00527 0.809779 0.99808 0.818953C0.986279 0.837449 0.979442 0.858914 0.978271 0.881115C0.982113 0.921279 1.00056 0.958367 1.02979 0.984722C1.05156 1.01065 1.07693 1.033 1.10507 1.05103C1.1345 1.07045 1.16657 1.08512 1.20018 1.09455C1.22198 1.09455 1.22197 1.06969 1.21801 1.0614L1.20612 1.04067H1.18036L1.20414 0.999229C1.22212 0.973 1.23803 0.945287 1.2517 0.916351ZM1.14271 0.995093C1.11921 0.978745 1.09732 0.96 1.07734 0.939141C1.05962 0.922753 1.04716 0.901046 1.04168 0.876979C1.04168 0.852114 1.04167 0.837606 1.07139 0.835534C1.09725 0.833777 1.12312 0.838762 1.14668 0.850041L1.18433 0.868683H1.21009C1.19932 0.890755 1.18742 0.912198 1.17442 0.932919L1.14271 0.995093Z" fill="black"/>
</svg>
