<svg width="3" height="6" viewBox="0 0 3 6" fill="none" xmlns="http://www.w3.org/2000/svg">
<path d="M0.598192 2.77677C0.473399 3.22224 0.431695 3.68866 0.475349 4.1506C0.489219 4.26457 0.503086 4.37854 0.5229 4.4925C0.542713 4.60647 0.562524 4.71837 0.594225 4.82819L0.643759 5.01883L0.65763 5.06027L0.691309 5.1473C0.717067 5.20947 0.740843 5.27163 0.740843 5.26541C0.747828 5.28416 0.756451 5.30219 0.766602 5.31929L0.728955 5.28199C0.673478 5.22811 0.618005 5.17838 0.560546 5.13072L0.437703 5.02919C0.3743 5.02919 0.376277 5.07892 0.384203 5.10379L0.505062 5.20532C0.56054 5.25298 0.616021 5.30064 0.669517 5.35244L0.746793 5.42911L0.818119 5.50578L0.835944 5.5265V5.51407L0.861702 5.46434L0.909265 5.36902C0.909265 5.36902 0.936994 5.30685 0.96077 5.24262C0.976693 5.20288 0.989937 5.16203 1.0004 5.12036C1.01392 5.08415 1.01869 5.045 1.01427 5.0064C1.01427 4.99604 0.992478 5.01883 0.954832 5.09757C0.917186 5.17631 0.831989 5.30479 0.831989 5.30479L0.804248 5.36073C0.804947 5.32578 0.800945 5.29091 0.79236 5.25712C0.79236 5.20532 0.768585 5.14316 0.756697 5.0955C0.744809 5.04784 0.73886 5.01054 0.73886 5.01054L0.707164 4.88828C0.693294 4.83234 0.677437 4.77846 0.663568 4.72252L0.629888 4.55467C0.604131 4.44277 0.594222 4.32881 0.578371 4.21484C0.524775 3.75934 0.558453 3.29725 0.677438 2.85551C0.804264 2.41551 1.00193 2.00136 1.26194 1.63088C1.38998 1.4438 1.52825 1.26461 1.67605 1.09419C1.809 0.914858 1.96972 0.760072 2.15156 0.636253C2.19469 0.610393 2.23975 0.588216 2.28629 0.569943C2.31799 0.511923 2.2863 0.489127 2.2546 0.48291C2.20366 0.503013 2.15402 0.526545 2.10599 0.553362C1.91885 0.681187 1.75289 0.840066 1.61462 1.02374C1.46726 1.19437 1.32838 1.37281 1.19853 1.55835C0.937437 1.92832 0.734755 2.33969 0.598192 2.77677Z" fill="#52BC88"/>
</svg>
