<svg width="3" height="3" viewBox="0 0 3 3" fill="none" xmlns="http://www.w3.org/2000/svg">
<path d="M0.807211 2.12507C0.805143 2.13115 0.801593 2.13685 0.796044 2.14163C0.800656 2.13093 0.804725 2.12672 0.807211 2.12507C0.810572 2.1152 0.81002 2.10436 0.80778 2.09499L0.76023 2.04526L0.926668 1.9458C1.15849 1.80697 1.3903 1.67228 1.62014 1.53138L1.70137 1.48163L1.83808 1.38425L1.96489 1.28893C2.0699 1.2019 2.12736 1.13145 1.93318 1.22884C1.81628 1.28272 1.6558 1.36767 1.6558 1.36767L1.5607 1.4257C1.33087 1.56453 1.09905 1.69922 0.86723 1.84012L0.696825 1.94166C0.696184 1.94508 0.696184 1.94859 0.696825 1.95201V1.9748C0.617129 1.90444 0.533784 1.83873 0.447173 1.77796L0.389719 1.73444L0.28273 1.66813H0.270842L0.431331 1.57696C0.57597 1.49614 0.722584 1.41947 0.871185 1.34073L0.954398 1.29722C0.954398 1.29722 1.24368 1.12316 1.22981 1.12523C1.34274 1.04856 1.40615 0.984329 1.20405 1.06307C1.14461 1.08379 1.07526 1.1128 1.01979 1.13559C1.04158 1.07343 1.06139 1.01333 1.07922 0.951167C1.08907 0.965514 1.10037 0.978714 1.11292 0.990538L1.14461 0.967748L1.21198 0.922167C1.25954 0.891084 1.31105 0.862066 1.31105 0.862066C1.31105 0.862066 1.36256 0.808199 1.3586 0.806127C1.36263 0.799272 1.36477 0.791372 1.36477 0.783324C1.36477 0.775276 1.36263 0.767389 1.3586 0.760534L1.4121 0.822695C1.47024 0.888807 1.52512 0.957968 1.57654 1.02991C1.60276 1.06721 1.62346 1.10843 1.63797 1.15217C1.66174 1.16668 1.67958 1.17082 1.69345 1.15217C1.69791 1.16727 1.70788 1.17992 1.72119 1.18739H1.79845H1.87176C1.98074 1.18739 2.08576 1.16045 2.19077 1.14595H2.26011L2.38097 1.12523C2.44041 1.12523 2.49985 1.11072 2.49391 1.10865L2.5593 1.09829C2.50184 1.1646 2.44438 1.23712 2.44438 1.23712L2.39484 1.30758C2.29348 1.44677 2.20209 1.5936 2.12141 1.74687C2.12107 1.75447 2.12107 1.76207 2.12141 1.76967L2.05999 1.7966C1.94309 1.84841 1.78063 1.9313 1.78063 1.9313L1.68552 1.98724C1.55871 2.06391 1.4319 2.13643 1.30312 2.20688L1.10498 2.31464C1.04158 2.34779 0.974213 2.37887 0.906847 2.41617L0.811747 2.47835V2.30013C0.871187 2.26491 0.926662 2.22762 0.98214 2.19239C1.03762 2.15716 1.11093 2.10743 1.18027 2.0722L1.37841 1.96031L1.78657 1.7531L1.86979 1.70958L2.01244 1.62048C2.08377 1.57489 2.15113 1.53137 2.14321 1.53344C2.25416 1.45262 2.31559 1.38425 2.11548 1.47128C1.9966 1.51686 1.83016 1.59146 1.83016 1.59146L1.73308 1.64327L1.32294 1.85048L1.1248 1.96237C1.05546 2.00174 0.990071 2.04527 0.926668 2.08671L0.809763 2.1613C0.812544 2.14904 0.812544 2.13627 0.809763 2.12401C0.809763 2.12401 0.808818 2.12401 0.807211 2.12507Z" fill="black"/>
</svg>
