<svg width="2" height="1" viewBox="0 0 2 1" fill="none" xmlns="http://www.w3.org/2000/svg">
<path d="M1.04 0.555311C1.04 0.520084 1.01424 0.497289 0.998388 0.495217C0.995978 0.493762 0.993249 0.492997 0.990467 0.492997C0.987684 0.492997 0.984943 0.493762 0.982534 0.495217C0.983306 0.485564 0.983306 0.475863 0.982534 0.46621C0.955483 0.464388 0.928354 0.464388 0.901304 0.46621H0.857708C0.833731 0.471442 0.810897 0.481275 0.790349 0.495217C0.767688 0.50987 0.749207 0.530627 0.736849 0.555311C0.72997 0.583173 0.72997 0.612407 0.736849 0.640269C0.740154 0.668207 0.7475 0.695459 0.75864 0.721086C0.773367 0.742722 0.791452 0.76163 0.812141 0.777031C0.830495 0.792493 0.852179 0.803025 0.875316 0.80772C0.898452 0.812415 0.922336 0.811131 0.944888 0.80397C0.976585 0.792879 1.00472 0.772791 1.02613 0.74595C1.03124 0.737043 1.03721 0.728712 1.04395 0.721086L1.05387 0.692073C1.06058 0.671921 1.06522 0.651086 1.06773 0.629911C1.06369 0.603256 1.05424 0.577814 1.04 0.555311Z" fill="black"/>
</svg>
