<svg width="1" height="1" viewBox="0 0 1 1" fill="none" xmlns="http://www.w3.org/2000/svg">
<path d="M0.361148 0.406125C0.392459 0.394234 0.420394 0.37428 0.442378 0.348105L0.460215 0.323241V0.294228C0.467138 0.273431 0.471793 0.251882 0.474086 0.229992C0.479158 0.203315 0.479158 0.175858 0.474086 0.149182C0.474086 0.113955 0.446341 0.0890858 0.43049 0.0870136C0.425338 0.0852712 0.419788 0.0852712 0.414636 0.0870136C0.415408 0.0773605 0.415408 0.0676601 0.414636 0.058007C0.387586 0.0561852 0.360457 0.0561852 0.333406 0.058007H0.28981C0.265652 0.062608 0.242703 0.0724905 0.222451 0.0870136C0.200393 0.101795 0.182585 0.122567 0.170934 0.147107C0.159024 0.172835 0.154879 0.201742 0.159047 0.229992C0.162352 0.257929 0.169698 0.285182 0.180838 0.310808C0.196079 0.33259 0.21408 0.352107 0.234339 0.368828C0.251468 0.384558 0.271748 0.396072 0.293692 0.402527C0.315636 0.408982 0.33869 0.410211 0.361148 0.406125ZM0.313598 0.23414H0.325485H0.313598Z" fill="#3770B7"/>
</svg>
