<svg width="1" height="2" viewBox="0 0 1 2" fill="none" xmlns="http://www.w3.org/2000/svg">
<path d="M0.179761 1.65286L0.197598 1.77098L0.207502 1.82899V1.86008L0.259019 1.84764L0.312514 1.83521V1.82278C0.312514 1.82278 0.312514 1.81242 0.312514 1.80827L0.35412 1.82278C0.373131 1.82824 0.393038 1.82941 0.412512 1.82619C0.431987 1.82298 0.450583 1.81545 0.467058 1.80412C0.500545 1.77888 0.523293 1.74096 0.530463 1.69844C0.53512 1.66894 0.53512 1.63884 0.530463 1.60934V1.57619C0.523963 1.55126 0.515342 1.527 0.504704 1.50367V1.48502L0.488856 1.45808L0.467058 1.42286H0.445266L0.399693 1.43736H0.379879H0.366008C0.348313 1.44717 0.331702 1.45898 0.316474 1.47259C0.306885 1.48123 0.298251 1.49096 0.290722 1.5016C0.278834 1.3897 0.266945 1.27781 0.259019 1.16591C0.255189 1.10796 0.255189 1.0498 0.259019 0.991849H0.247132C0.248059 0.987762 0.248059 0.983504 0.247132 0.979417C0.248573 0.970501 0.248573 0.961394 0.247132 0.952478C0.247132 0.952478 0.237224 0.929688 0.221373 0.929688L0.203542 0.94212H0.193631C0.190693 0.947779 0.186642 0.952724 0.181744 0.956626C0.175354 1.02554 0.175354 1.09493 0.181744 1.16384C0.142117 1.34619 0.159947 1.5016 0.179761 1.65286ZM0.326384 1.62592C0.334917 1.60465 0.347762 1.58556 0.364031 1.56997L0.389789 1.54926H0.403654C0.411321 1.5651 0.417301 1.58177 0.421485 1.59898C0.42635 1.61179 0.430328 1.62495 0.433379 1.63836C0.440321 1.6641 0.440321 1.69135 0.433379 1.7171C0.433379 1.7689 0.358086 1.76476 0.364031 1.76683C0.344998 1.77 0.325602 1.77 0.30657 1.76683C0.30284 1.72025 0.309628 1.67341 0.326384 1.63007V1.62592Z" fill="#BF2026"/>
</svg>
