<svg width="10" height="11" viewBox="0 0 10 11" fill="none" xmlns="http://www.w3.org/2000/svg">
<path d="M4.46199 0.000976562C4.32734 0.0065948 4.19851 0.0598955 4.09663 0.152138C3.99475 0.24438 3.92587 0.370091 3.90127 0.508654C3.85372 0.850557 4.29754 1.10957 4.29754 1.39967C3.22563 1.21318 2.2627 1.89078 1.75547 2.9082C1.32354 3.76814 1.44836 4.61563 2.09626 5.45278C1.97089 5.53569 1.82443 5.57687 1.67621 5.57089C1.42062 5.57089 1.19078 5.4673 0.929247 5.50252C0.736123 5.51647 0.553378 5.5991 0.411368 5.73669C0.269357 5.87427 0.17663 6.05853 0.148595 6.25885C0.118875 6.49714 0.118874 7.00689 0.358617 7.15401C0.598361 7.30114 0.697429 6.88256 0.719224 6.71265C0.729131 6.63805 0.81829 6.05578 0.964909 6.29822C1.0402 6.42255 1.06596 6.57174 1.13333 6.70021C1.25815 6.93644 1.41864 6.68571 1.44638 6.5303C1.44638 6.49093 1.50384 6.15732 1.50978 6.15939C1.64649 6.22155 1.69801 6.49508 1.80698 6.60283C1.82493 6.61932 1.846 6.63168 1.86882 6.6391C1.89164 6.64652 1.91569 6.64884 1.93942 6.64591C1.96315 6.64297 1.98603 6.63486 2.00656 6.62208C2.0271 6.6093 2.04483 6.59215 2.05862 6.57174C2.15174 6.44949 2.02691 6.2775 2.017 6.15731C2.0071 5.98325 2.21514 5.86514 2.3578 5.76568C2.62077 6.04323 2.90578 6.29695 3.20978 6.52409C4.37283 7.41096 4.674 8.02017 5.4705 9.31526C5.63667 9.60676 5.82484 9.88393 6.0332 10.1441C6.97038 11.2403 8.02842 10.4819 7.13483 9.23651C7.00604 9.05624 6.85744 8.88839 6.73856 8.7164C6.60102 8.55193 6.52011 8.34402 6.50872 8.12585C6.50872 7.86683 6.75639 7.94557 6.89311 8.04296C7.0607 8.17665 7.21593 8.32651 7.35674 8.49055C7.95114 9.11219 8.52771 8.47811 8.08983 7.71142C7.94219 7.47403 7.78075 7.24636 7.60639 7.02969C7.28541 6.59661 7.45382 6.14903 7.9551 6.43084C8.12152 6.52768 8.25877 6.67122 8.35137 6.84527C8.72585 7.46691 9.32818 7.12293 9.1994 6.60075C9.18001 6.5039 9.15283 6.40894 9.11815 6.31687C8.92544 5.90669 8.64958 5.54534 8.30977 5.258C7.46244 4.48849 6.66794 3.65759 5.93215 2.77143C5.42096 2.13735 5.10989 1.63175 4.56502 1.45355C4.58483 1.31057 4.56502 1.17382 4.74532 1.11165C4.80873 1.09093 4.88996 0.979034 4.82061 0.914798C4.79411 0.884038 4.7571 0.865427 4.71758 0.862994C4.67399 0.862994 4.63239 0.862994 4.59078 0.862994H4.53728H4.50756C4.57493 0.784253 4.67201 0.734517 4.70569 0.624693C4.70876 0.610392 4.70863 0.595552 4.70531 0.581313C4.70199 0.567074 4.69558 0.553825 4.68657 0.542599C4.67756 0.531374 4.66619 0.52247 4.65336 0.516584C4.64053 0.510697 4.62657 0.507981 4.61257 0.508654C4.5691 0.511179 4.52597 0.518127 4.48378 0.529383C4.44612 0.54063 4.4077 0.54894 4.36886 0.554247C4.29357 0.554247 4.42831 0.400909 4.43227 0.398837C4.49765 0.332528 4.64229 0.241353 4.6304 0.125313C4.61851 0.00927272 4.55115 0.00512085 4.46199 0.000976562ZM5.76373 9.38157C5.73366 9.34992 5.71066 9.31171 5.69637 9.26967C5.69637 9.26967 5.69637 9.2531 5.71024 9.26967C5.7464 9.29851 5.77901 9.33191 5.80732 9.36913C5.83028 9.38918 5.84572 9.41707 5.85091 9.44788C5.85091 9.44788 5.78355 9.40643 5.76373 9.38157ZM7.07341 10.4176C6.83565 10.5254 6.57411 10.3721 6.3839 10.2249C6.1567 10.0463 5.98228 9.80424 5.88063 9.52662C6.02175 9.72597 6.18173 9.90993 6.35814 10.0757C6.56684 10.2396 6.80891 10.351 7.06548 10.4011C7.06548 10.4011 7.08331 10.4052 7.07341 10.4094V10.4176ZM8.2424 5.58747C8.2424 5.58747 8.2424 5.57504 8.25231 5.57712C8.29784 5.5906 8.33961 5.61533 8.3741 5.64923C8.40858 5.68313 8.43476 5.7252 8.45044 5.7719C8.45044 5.7719 8.45044 5.78433 8.44054 5.7719C8.38308 5.69937 8.29392 5.65793 8.2424 5.57919V5.58747ZM2.13787 2.81702C2.13462 2.77358 2.14455 2.73017 2.16625 2.69296C2.18795 2.65576 2.22031 2.62667 2.25873 2.60981C2.25873 2.60981 2.27062 2.60981 2.26864 2.62224C2.2409 2.69684 2.18146 2.74864 2.14976 2.82945C2.14579 2.81909 2.13985 2.81495 2.13787 2.80874V2.81702ZM1.99917 4.8125C1.57715 4.31933 1.64848 3.362 2.0705 2.89991C2.07129 2.89882 2.07226 2.8979 2.07338 2.89721C2.0745 2.89651 2.07574 2.89606 2.07703 2.89587C2.07832 2.89567 2.07963 2.89574 2.08089 2.89608C2.08215 2.89642 2.08333 2.89702 2.08437 2.89784C2.08541 2.89866 2.08629 2.89968 2.08695 2.90085C2.08761 2.90202 2.08805 2.90331 2.08823 2.90466C2.08842 2.906 2.08835 2.90737 2.08803 2.90869C2.08771 2.91001 2.08713 2.91126 2.08635 2.91235C1.74556 3.49669 1.8268 4.1867 2.00908 4.80627L1.99917 4.8042V4.8125ZM4.28961 5.89622C4.38581 5.62247 4.43087 5.33195 4.42236 5.04043C4.41216 5.16718 4.37654 5.29025 4.31782 5.40165C4.25911 5.51304 4.17861 5.61025 4.08157 5.68693C3.9994 5.75624 3.90261 5.80405 3.79923 5.8264C3.69585 5.84874 3.58887 5.84497 3.48717 5.8154C3.20582 5.73045 2.95617 5.47143 2.94428 4.90988C2.9445 4.52127 2.87737 4.13584 2.74615 3.77228C2.64312 3.4656 2.95617 3.22316 3.25337 3.27082C3.45082 3.31269 3.63685 3.40007 3.79794 3.5266C3.95903 3.65314 4.09112 3.81563 4.1846 4.00228C4.52737 4.52032 4.64823 5.32846 4.28961 5.88794V5.89622ZM5.85686 5.20413C5.85169 5.33114 5.79904 5.45094 5.71024 5.53774C5.67597 5.58009 5.63123 5.61176 5.58091 5.6293C5.5306 5.64684 5.47663 5.64957 5.42493 5.6372C5.58788 5.52135 5.72783 5.37358 5.83704 5.20206C5.83704 5.20206 5.85884 5.1834 5.85686 5.19584V5.20413ZM5.67458 4.59906C5.72587 4.71287 5.73778 4.84178 5.70826 4.96376C5.69146 5.07912 5.64603 5.18786 5.5765 5.27912C5.50696 5.37038 5.41576 5.44098 5.31199 5.48387C5.24209 5.50525 5.16863 5.51076 5.09653 5.50004C5.02443 5.48932 4.95535 5.46261 4.89393 5.42171C4.69579 5.2808 4.78495 5.10467 4.96723 5.08602C5.14952 5.06737 5.26839 4.89952 5.31595 4.6405C5.32047 4.59718 5.33877 4.55669 5.36789 4.52551C5.39702 4.49434 5.4353 4.47429 5.47662 4.46856C5.51793 4.46283 5.55988 4.47177 5.59577 4.49392C5.63166 4.51608 5.65941 4.55018 5.67458 4.59078V4.59906ZM5.63495 3.96085C5.47563 4.07088 5.28214 4.11312 5.09404 4.07895C5.21732 4.13037 5.34946 4.15452 5.48211 4.14989C5.61476 4.14525 5.74506 4.11194 5.86478 4.05202C5.40907 4.38357 4.84835 4.11004 4.46595 3.8158C4.26085 3.6664 4.07849 3.48546 3.92504 3.27911C3.84131 3.1727 3.7664 3.059 3.70115 2.93927C3.52481 2.61602 3.73286 2.19538 4.15092 2.43782C4.81863 2.82324 5.20301 2.60152 5.65674 2.99522C5.72646 3.05277 5.78243 3.12648 5.82022 3.21054C5.85801 3.29461 5.87659 3.38672 5.87447 3.47958C5.87236 3.57244 5.84961 3.66353 5.80804 3.74562C5.76647 3.8277 5.70721 3.89854 5.63495 3.95255V3.96085ZM9.00323 6.75202C9.00323 6.75202 8.98739 6.76445 8.98342 6.75202C8.8999 6.41987 8.74238 6.11311 8.52375 5.85685C8.52375 5.85685 8.52375 5.84235 8.52375 5.85685C8.67825 5.93844 8.80589 6.06648 8.89027 6.22452C8.97465 6.38256 9.01192 6.56337 8.9973 6.74373L9.00323 6.75202Z" fill="#00B3CB"/>
</svg>
