<svg width="13" height="15" viewBox="0 0 13 15" fill="none" xmlns="http://www.w3.org/2000/svg">
<path d="M12.2141 6.88571C12.1369 6.8339 12.0596 6.78418 11.9783 6.73859C11.8971 6.693 11.7802 6.84219 11.8813 6.90228C11.9823 6.96237 12.0933 7.03076 12.1963 7.1095C12.1963 7.12607 12.1963 7.14266 12.1963 7.15923C12.1864 7.27113 12.1705 7.39338 12.1448 7.53843C12.1131 7.50942 12.0794 7.48248 12.0457 7.45555C11.9526 7.37681 11.8476 7.54258 11.9467 7.61925L12.1052 7.74979C12.1052 7.76637 12.1052 7.78087 12.0953 7.79952C12.0675 7.928 12.0338 8.05854 11.9962 8.19323L11.9268 8.11863C11.9305 8.09701 11.9262 8.07474 11.9148 8.0563C11.9034 8.03785 11.8858 8.02459 11.8654 8.01917C11.8465 8.01356 11.8265 8.01433 11.808 8.02136C11.7896 8.02839 11.7738 8.04133 11.7628 8.05833C11.7518 8.07532 11.7462 8.09551 11.7469 8.11602C11.7475 8.13652 11.7543 8.15629 11.7663 8.17251V8.17251C11.7649 8.186 11.7662 8.19967 11.7703 8.21255C11.7745 8.22544 11.7812 8.23723 11.7901 8.24711C11.8357 8.30098 11.8852 8.35071 11.9328 8.40044C11.9291 8.41524 11.9244 8.42978 11.9189 8.44396C11.8793 8.56 11.8357 8.6719 11.7901 8.78586L11.6653 8.64703C11.6478 8.63162 11.6256 8.62346 11.6027 8.6241C11.5799 8.62475 11.5581 8.63417 11.5414 8.65054C11.5248 8.66692 11.5145 8.68913 11.5125 8.71293C11.5105 8.73674 11.5169 8.76048 11.5306 8.77965L11.7089 8.9765L11.693 9.01173C11.656 9.09738 11.6144 9.18233 11.5682 9.2666L11.3958 9.07181C11.3146 8.98271 11.1779 9.11533 11.2591 9.20651L11.4751 9.44687C11.4693 9.4544 11.4646 9.46278 11.4612 9.47174C11.3958 9.58571 11.3285 9.69968 11.2631 9.81364L11.1244 9.71211C11.0253 9.64166 10.9263 9.80743 11.0253 9.87788L11.1561 9.97527C11.055 10.1203 10.9441 10.2674 10.8193 10.4229L10.8074 10.4374C10.7559 10.4063 10.7043 10.3752 10.6508 10.3483C10.5438 10.2944 10.4527 10.4581 10.5538 10.514C10.596 10.5357 10.637 10.5599 10.6766 10.5865C10.5731 10.7063 10.4619 10.8185 10.3437 10.9222L10.318 10.943L9.96134 10.7212C9.86029 10.657 9.7632 10.8207 9.86425 10.8849L10.1595 11.0694C10.1135 11.1029 10.0658 11.1341 10.0168 11.1626L9.99303 11.175L9.7533 10.943C9.66612 10.8601 9.52941 10.9906 9.61658 11.0756L9.81472 11.2704H9.79293C9.75485 11.2873 9.7158 11.3019 9.67602 11.3139C9.64497 11.3257 9.6132 11.3354 9.58092 11.3429L9.25003 11.1688C9.22731 11.1569 9.20106 11.1545 9.17672 11.1622C9.15238 11.1699 9.13181 11.1871 9.11926 11.2103L9.08162 11.173C8.99246 11.088 8.85574 11.2227 8.94491 11.3077L9.00831 11.3698C8.87924 11.3467 8.75553 11.2982 8.64374 11.2268C8.45245 11.1004 8.3154 10.9013 8.26134 10.6715C8.26226 10.6674 8.26226 10.6632 8.26134 10.6591C8.25315 10.623 8.24786 10.5863 8.2455 10.5493C8.2455 10.5493 8.2455 10.5493 8.2455 10.5347C8.23615 10.4176 8.25312 10.2998 8.29503 10.1908C8.30322 10.1709 8.30454 10.1486 8.29875 10.1278C8.29297 10.107 8.28044 10.089 8.26332 10.0768C8.2471 10.0639 8.22726 10.0569 8.20686 10.0569C8.18645 10.0569 8.16661 10.0639 8.15038 10.0768C8.05115 10.1721 7.96984 10.2859 7.91065 10.4125L7.85516 10.5099C7.84467 10.5295 7.83274 10.5482 7.8195 10.5658C7.70815 10.5733 7.59635 10.5664 7.48664 10.5451C7.37172 10.5182 7.31822 10.7047 7.43512 10.7316C7.5044 10.7463 7.57458 10.756 7.64514 10.7606C7.59165 10.8099 7.5347 10.8549 7.47475 10.8953C7.42521 10.9285 7.37171 10.9595 7.31821 10.9885L7.01309 11.0051C6.99711 11.0067 6.98173 11.0124 6.9683 11.0216C6.95486 11.0308 6.94377 11.0433 6.93597 11.0579C6.92817 11.0726 6.92391 11.0891 6.92354 11.1059C6.92317 11.1226 6.9267 11.1393 6.93384 11.1543C6.46657 11.2956 5.97058 11.2956 5.5033 11.1543C5.29406 11.0971 5.09822 10.9957 4.92785 10.8564C4.75748 10.717 4.61617 10.5427 4.51263 10.3441C3.98955 9.24795 4.38384 7.9425 4.73057 6.78832C4.76624 6.67021 4.80191 6.55416 4.83559 6.43812C4.99014 5.91387 5.1645 5.31917 5.5469 4.89853C5.74093 4.68854 5.97992 4.52981 6.24415 4.43541C6.50837 4.34102 6.79027 4.31367 7.06659 4.35563C7.14828 4.36854 7.22904 4.38723 7.30831 4.41157C7.59052 4.4915 7.84365 4.6574 8.03547 4.88816C8.06947 4.93465 8.09993 4.98384 8.12661 5.03529C8.16111 5.102 8.20157 5.16513 8.24747 5.22385C8.32785 5.3103 8.42713 5.37501 8.53675 5.41242C8.57127 5.42705 8.60875 5.43243 8.64577 5.42809C8.68279 5.42375 8.71818 5.40981 8.74875 5.38755C8.78306 5.3565 8.80615 5.31408 8.81414 5.26737C8.98669 5.24152 9.16255 5.25567 9.32929 5.30881C9.38325 5.3246 9.4329 5.35346 9.47421 5.39306C9.51552 5.43266 9.54733 5.48189 9.56705 5.53674C9.43526 5.54982 9.30258 5.54982 9.17078 5.53674C9.0519 5.52638 9.04794 5.71909 9.17078 5.73152C9.30851 5.745 9.44714 5.745 9.58488 5.73152C9.57362 5.79487 9.55773 5.85722 9.53733 5.91802C9.53733 5.93666 9.52148 5.95532 9.51553 5.97189L9.0301 6.06928C8.9132 6.09415 8.9568 6.2765 9.0737 6.25785L9.43232 6.1874L9.23419 6.68678C9.22428 6.71165 9.21635 6.73444 9.20843 6.75931L8.88547 6.90643C8.77451 6.95823 8.86367 7.13022 8.97265 7.07842L9.11333 7.01418C9.04992 7.18824 8.98652 7.3623 8.91519 7.53843L8.88745 7.62132L8.68932 7.70627C8.57836 7.75601 8.6695 7.928 8.77848 7.87827L8.80423 7.8679C8.77252 7.96529 8.74083 8.06476 8.71507 8.16422C8.71507 8.18909 8.70318 8.21395 8.69525 8.23882L8.54864 8.30513C8.43966 8.35279 8.52684 8.52477 8.6378 8.47711C8.61915 8.58034 8.60854 8.68498 8.60609 8.79001C8.60609 8.80451 8.60609 8.82109 8.60609 8.83767L8.50901 8.88326C8.49145 8.88016 8.47342 8.88289 8.45743 8.89106C8.44144 8.89924 8.4283 8.91245 8.41986 8.92884V8.92884C8.34853 8.99307 8.43173 9.13605 8.53278 9.08425L8.61996 9.04281C8.63626 9.15778 8.669 9.26955 8.71706 9.37435L8.67941 9.39714C8.66206 9.40028 8.64588 9.40839 8.63267 9.42057C8.61947 9.43276 8.60975 9.44854 8.60461 9.46615C8.59948 9.48377 8.59912 9.50253 8.60357 9.52035C8.60803 9.53816 8.61715 9.55433 8.62988 9.56706V9.56706C8.64265 9.58308 8.66061 9.59362 8.68034 9.59668C8.70007 9.59974 8.7202 9.59509 8.73687 9.58363L8.81612 9.5339C8.87121 9.61356 8.9381 9.68351 9.01426 9.74112C8.9568 9.76806 8.90131 9.79499 8.84385 9.81779C8.73092 9.85716 8.77451 10.0478 8.88745 10.0064C8.99485 9.96636 9.09945 9.91858 9.20049 9.86337L9.27183 9.8986C9.30479 9.91251 9.33854 9.92427 9.37288 9.93383L9.33919 9.95662C9.23616 10.0188 9.32334 10.1908 9.42835 10.1265C9.53337 10.0623 9.57695 10.0291 9.65026 9.97735C9.70064 9.97803 9.75099 9.97456 9.80085 9.96698C9.86212 9.95839 9.92248 9.94382 9.98115 9.92347C10.3102 9.77912 10.5836 9.52382 10.7578 9.19822C11.1212 8.62272 11.3498 7.96585 11.4253 7.28077C11.5008 6.59568 11.421 5.90163 11.1924 5.25479C10.9638 4.60794 10.5928 4.02647 10.1094 3.55743C9.626 3.08839 9.04381 2.74496 8.40994 2.55493L8.31087 2.52592C8.27917 2.51556 8.24747 2.50935 8.21577 2.50106C7.93843 2.27472 7.61508 2.11804 7.27066 2.04312C7.15575 2.01618 7.10028 2.20267 7.21718 2.22961C7.38241 2.26603 7.54323 2.32163 7.69666 2.39538L7.58769 2.38088L7.42918 2.35601H7.3737C7.36627 2.34462 7.35619 2.3354 7.3444 2.32923C7.3326 2.32306 7.3195 2.32016 7.30633 2.32078C6.93898 2.3102 6.5754 2.2403 6.22847 2.11357C6.21233 2.10844 6.19509 2.10844 6.17894 2.11357C6.16857 2.10068 6.15479 2.0913 6.13932 2.08663C6.11591 2.08003 6.09097 2.08324 6.06979 2.09557C6.0486 2.1079 6.03285 2.12839 6.02589 2.15268C6.01892 2.17697 6.02129 2.20313 6.03248 2.22562C6.04367 2.24811 6.06281 2.26515 6.08582 2.27312C6.10173 2.26778 6.11883 2.2677 6.13479 2.27289C6.15074 2.27808 6.16478 2.28829 6.17498 2.30213C6.24631 2.327 6.31763 2.34979 6.39094 2.37051C6.28812 2.39489 6.18688 2.42604 6.0878 2.46376L5.84607 2.56737L5.6836 2.64818L5.10704 2.62539C5.08492 2.62879 5.06472 2.64039 5.05011 2.65808C5.0355 2.67577 5.02746 2.69837 5.02746 2.72174C5.02746 2.74512 5.0355 2.76771 5.05011 2.7854C5.06472 2.80309 5.08492 2.81469 5.10704 2.81809L5.36262 2.82846C5.27743 2.88026 5.19223 2.93413 5.10902 2.99215L4.96834 3.09162L4.45518 3.13513C4.33828 3.14549 4.33233 3.34235 4.45518 3.32991L4.69491 3.30919C4.63151 3.36307 4.57009 3.41694 4.51065 3.47289C4.48489 3.49361 4.46111 3.51641 4.43734 3.5392L4.41753 3.55785C4.19562 3.58064 3.96974 3.59722 3.74387 3.59722C3.71917 3.59722 3.69548 3.60748 3.67802 3.62575C3.66056 3.64401 3.65075 3.66878 3.65075 3.69461C3.65075 3.72044 3.66056 3.74521 3.67802 3.76348C3.69548 3.78174 3.71917 3.792 3.74387 3.792C3.90237 3.792 4.0589 3.792 4.21741 3.77128L4.0906 3.9184C3.8471 4.03362 3.5863 4.10373 3.31986 4.12561C3.30761 4.12666 3.29568 4.13023 3.28476 4.13611C3.27384 4.142 3.26414 4.15008 3.25622 4.15991C3.2483 4.16973 3.24233 4.1811 3.23863 4.19335C3.23492 4.2056 3.23357 4.2185 3.23466 4.2313C3.23565 4.25084 3.2425 4.26956 3.25424 4.28481C3.26597 4.30006 3.282 4.31106 3.30005 4.31625C3.31118 4.3184 3.32259 4.3184 3.33373 4.31625C3.51727 4.2988 3.69857 4.26129 3.87464 4.20436C3.76851 4.35883 3.6706 4.51933 3.58139 4.6851L2.94934 4.81978C2.92937 4.82519 2.91168 4.83738 2.89905 4.85445C2.88642 4.87151 2.87957 4.89248 2.87957 4.91406C2.87957 4.93564 2.88642 4.95662 2.89905 4.97368C2.91168 4.99075 2.92937 5.00294 2.94934 5.00835C2.96427 5.01257 2.98 5.01257 2.99492 5.00835L3.47242 4.90682C3.43081 4.9897 3.39119 5.07466 3.35156 5.16169L2.67395 5.3689C2.65035 5.37612 2.63043 5.39281 2.61855 5.41533C2.60667 5.43784 2.6038 5.46436 2.61054 5.48909C2.61523 5.50466 2.62345 5.51881 2.63449 5.53036C2.64552 5.5419 2.65906 5.55048 2.67395 5.55539C2.69089 5.55954 2.70851 5.55954 2.72545 5.55539L3.2525 5.39584C3.18513 5.56368 3.11975 5.73567 3.05436 5.91595L2.80669 6.01126L2.41042 6.15838C2.38736 6.16726 2.36858 6.18531 2.35819 6.2086C2.3478 6.23189 2.34663 6.25853 2.35494 6.28271C2.35966 6.29724 2.36773 6.31033 2.37845 6.32081C2.38916 6.3313 2.40219 6.33885 2.41636 6.34281C2.43506 6.349 2.45513 6.349 2.47383 6.34281L2.8701 6.19361L2.98304 6.1501C2.92954 6.33038 2.88198 6.50651 2.84434 6.68057L2.31136 6.84841C2.29948 6.85194 2.2884 6.85796 2.27881 6.8661C2.26923 6.87424 2.26133 6.88433 2.25558 6.89576C2.24984 6.9072 2.24637 6.91974 2.2454 6.93261C2.24443 6.94549 2.24597 6.95843 2.24993 6.97067C2.25425 6.98587 2.26213 6.99971 2.27285 7.01093C2.28358 7.02215 2.29682 7.03039 2.31136 7.0349C2.3287 7.04106 2.3475 7.04106 2.36484 7.0349L2.79679 6.89814C2.77103 7.02661 2.74923 7.14887 2.73338 7.25455V7.29392L2.2856 7.39753C2.26285 7.40493 2.24368 7.42118 2.23204 7.44291C2.22039 7.46465 2.21715 7.49023 2.22299 7.51438C2.22883 7.53854 2.2433 7.55943 2.26342 7.57277C2.28354 7.58611 2.30778 7.59088 2.33116 7.58609L2.70564 7.49906C2.68979 7.61096 2.6779 7.71871 2.66998 7.82853C2.66998 7.84096 2.66998 7.84925 2.66998 7.86168L2.21624 7.97151C2.19207 7.97755 2.17119 7.9934 2.15818 8.01555C2.14518 8.0377 2.14112 8.06434 2.1469 8.08962C2.15268 8.1149 2.16783 8.13675 2.18901 8.15035C2.21019 8.16395 2.23567 8.16819 2.25984 8.16215L2.65611 8.06268V8.14143C2.64898 8.27532 2.64898 8.40953 2.65611 8.54342C2.65611 8.55585 2.65611 8.56622 2.65611 8.57658C2.52099 8.62193 2.38865 8.67591 2.25984 8.7382C2.15285 8.79208 2.24201 8.96406 2.349 8.91019C2.45055 8.85907 2.55511 8.81478 2.66205 8.77757C2.67194 8.92494 2.68981 9.07161 2.71555 9.21687C2.71555 9.21687 2.71555 9.21687 2.71555 9.2293L2.42033 9.32669C2.30739 9.36399 2.349 9.55463 2.46589 9.51733L2.75518 9.41994C2.7968 9.61627 2.85311 9.80888 2.92359 9.99599L2.62441 10.0892C2.50949 10.1224 2.5511 10.313 2.668 10.2757L2.99689 10.1742C3.00904 10.2134 3.02429 10.2516 3.04247 10.2882C3.06625 10.3379 3.09201 10.3897 3.11777 10.4374C2.99987 10.4875 2.87783 10.5264 2.75319 10.5534C2.63629 10.5762 2.67988 10.7606 2.79876 10.742C2.94051 10.7145 3.07925 10.6722 3.21287 10.6156V10.628C3.24655 10.6881 3.28222 10.7461 3.31788 10.7979L3.00878 10.9637C2.99798 10.9698 2.98845 10.9781 2.98071 10.9881C2.97298 10.998 2.96719 11.0095 2.9637 11.0218C2.9602 11.0342 2.95906 11.0471 2.96034 11.0598C2.96161 11.0726 2.96529 11.085 2.97115 11.0963C2.977 11.1076 2.98492 11.1176 2.99446 11.1257C3.004 11.1338 3.01498 11.1398 3.02675 11.1434C3.03853 11.1471 3.05088 11.1483 3.06309 11.147C3.07531 11.1456 3.08715 11.1418 3.09795 11.1357L3.42686 10.9575V10.9699C3.54326 11.1323 3.67108 11.2853 3.80925 11.4278L3.57149 11.5211C3.55632 11.524 3.54204 11.5306 3.52982 11.5405C3.51759 11.5503 3.50778 11.563 3.50119 11.5776C3.49461 11.5922 3.49144 11.6082 3.49195 11.6243C3.49246 11.6404 3.49663 11.6562 3.50412 11.6703C3.506 11.676 3.50945 11.6811 3.51404 11.6848C3.52193 11.6991 3.5344 11.7101 3.54925 11.7158C3.5641 11.7214 3.58039 11.7215 3.59527 11.7159V11.7159H3.60517L3.94992 11.5791L3.9856 11.6123C4.09786 11.7164 4.2156 11.814 4.33827 11.9044C4.26298 11.9397 4.18967 11.979 4.11636 12.0225C4.09731 12.0362 4.0838 12.0568 4.07845 12.0803C4.0731 12.1038 4.0763 12.1285 4.08741 12.1497C4.09852 12.1709 4.11676 12.187 4.13859 12.1949C4.16042 12.2028 4.18427 12.2019 4.20552 12.1925C4.30657 12.1344 4.40366 12.0806 4.51858 12.0329L4.57009 12.0661C4.69435 12.1483 4.82265 12.2237 4.95447 12.2919L4.79993 12.3707C4.69294 12.4225 4.78012 12.5945 4.88909 12.5427L5.17044 12.3997L5.24375 12.4349C5.38641 12.4971 5.53105 12.5509 5.67965 12.6007C5.59247 12.6318 5.50529 12.6628 5.41811 12.6898C5.33093 12.7167 5.34677 12.9136 5.46169 12.8783C5.63979 12.8245 5.81506 12.7609 5.98675 12.6877L6.11356 12.7188C6.19876 12.7395 6.28594 12.7519 6.37114 12.7644L6.10761 12.9281C6.00458 12.9902 6.09375 13.1622 6.19678 13.0959C6.3533 13.0027 6.50983 12.9032 6.66635 12.8079L6.81099 12.8182H6.88431C7.07058 12.8272 7.25719 12.8237 7.44304 12.8079C7.23478 12.932 7.02051 13.0447 6.80109 13.1456C6.69211 13.1954 6.78127 13.3674 6.89025 13.3176C7.23291 13.1579 7.56401 12.9723 7.88092 12.7623L7.97405 12.7457L8.17219 12.7084L7.82941 13.0089C7.73628 13.0897 7.86507 13.2306 7.95621 13.1519L8.58628 12.6007L8.78442 12.5406H8.80423L8.97858 12.4846C9.11728 12.437 9.26192 12.3914 9.40656 12.3479L8.7765 12.9695C8.68733 13.0545 8.81611 13.1974 8.90329 13.1125L9.71169 12.3251C9.72917 12.3085 9.73983 12.2855 9.74141 12.2608C9.97926 12.1973 10.2232 12.1619 10.4686 12.1552C10.5379 12.1552 10.5914 12.1717 10.5974 12.1904C10.6033 12.209 10.5974 12.236 10.5696 12.2836C10.3001 12.7955 9.8385 13.1954 9.16286 13.5062C8.0257 14.0103 6.75595 14.0836 5.57265 13.7134C5.15521 13.5843 4.7556 13.3991 4.38384 13.1622C3.73432 12.733 3.17236 12.1738 2.73031 11.5166C2.28826 10.8594 1.97484 10.1173 1.80809 9.33291C1.48418 7.75009 1.62224 6.10202 2.20436 4.60221C2.58081 3.58893 3.0603 2.85125 3.66659 2.34565C4.36381 1.80648 5.19168 1.4827 6.0561 1.41111C6.89673 1.30862 7.74844 1.38045 8.56251 1.62247C8.83366 1.70882 9.09853 1.81547 9.35505 1.94158C9.94635 2.23548 10.4799 2.64238 10.9282 3.14135L10.847 3.11441C10.7341 3.07504 10.6806 3.26154 10.7955 3.30091L11.162 3.42316C11.1918 3.46046 11.2235 3.49776 11.2512 3.53713C11.2789 3.5765 11.3265 3.64902 11.3641 3.70497L11.3404 3.69254C11.3298 3.68032 11.316 3.67166 11.3007 3.66767C11.2902 3.6638 11.279 3.66218 11.2679 3.66291C11.2568 3.66364 11.2459 3.66671 11.2359 3.67193C11.2259 3.67715 11.217 3.68442 11.2098 3.6933C11.2025 3.70218 11.1971 3.71249 11.1937 3.72362V3.72362M12.4024 6.36975C12.4024 6.28686 12.4024 6.20397 12.3885 6.11901C12.3758 5.94875 12.3546 5.7793 12.3251 5.61134C12.3092 5.5181 12.2914 5.42692 12.2696 5.33782C12.2332 5.16875 12.1876 5.00201 12.1329 4.83843C12.1012 4.74104 12.0675 4.64572 12.0299 4.55455C11.9922 4.46338 11.9486 4.34734 11.9011 4.25202C11.8535 4.1567 11.8337 4.11319 11.7961 4.0448C11.7406 3.93913 11.6811 3.83759 11.6177 3.73813C11.5543 3.63866 11.4771 3.51848 11.4038 3.41695C11.3305 3.31541 11.2532 3.22009 11.1818 3.13721C10.6971 2.56073 10.1043 2.09453 9.44024 1.76752C8.3799 1.25951 7.20686 1.06459 6.04818 1.20389C5.14919 1.27918 4.28841 1.61659 3.56357 2.1778C2.92954 2.7062 2.43222 3.47082 2.0419 4.51725C1.44871 6.05416 1.31066 7.74198 1.64563 9.36192C1.81699 10.1696 2.139 10.934 2.59322 11.6114C3.04745 12.2887 3.62496 12.8657 4.2927 13.3093C4.67695 13.5545 5.08984 13.7467 5.52114 13.8813C6.74744 14.2632 8.06273 14.1855 9.24012 13.6616C9.95539 13.3342 10.4448 12.9053 10.7341 12.3541C10.758 12.3176 10.7742 12.2761 10.7814 12.2325C10.7885 12.1888 10.7866 12.1441 10.7757 12.1013C10.7624 12.0656 10.741 12.0337 10.7134 12.0085C10.6858 11.9832 10.6528 11.9653 10.6172 11.9562C10.568 11.943 10.5173 11.9368 10.4666 11.9376C10.199 11.946 9.9332 11.9856 9.67404 12.0557L9.62252 12.0702L9.53931 12.093C9.34117 12.1489 9.1272 12.2173 8.92708 12.2836L8.75866 12.3396H8.74875C8.61997 12.379 8.46938 12.4266 8.32276 12.4618H8.30889H8.28908C8.18209 12.4888 8.06915 12.5116 7.9582 12.5323H7.91659C7.90551 12.5254 7.89284 12.5217 7.87993 12.5217C7.86702 12.5217 7.85435 12.5254 7.84328 12.5323H7.83337C7.76799 12.5323 7.70458 12.5509 7.64712 12.5551H7.63325C7.38978 12.5819 7.14477 12.5902 6.90015 12.58H6.82091C6.71193 12.58 6.61286 12.5634 6.51577 12.5489C6.41868 12.5344 6.28 12.5116 6.1631 12.4846C6.0462 12.4577 5.96496 12.437 5.86788 12.41L5.82428 12.3955C5.65866 12.3444 5.49593 12.2835 5.33687 12.2132C5.26356 12.18 5.19422 12.1469 5.12091 12.1096C4.97185 12.0359 4.82757 11.9522 4.68897 11.8588C4.62761 11.8212 4.56809 11.7804 4.51065 11.7366C4.37838 11.6405 4.25138 11.5367 4.13023 11.4258C4.0807 11.3802 4.03315 11.3346 3.9856 11.2828C3.60032 10.8931 3.29904 10.4219 3.10191 9.90067C3.034 9.71654 2.97903 9.52748 2.93746 9.33498C2.92161 9.27282 2.90972 9.21272 2.89981 9.15056C2.87328 9.00257 2.85477 8.85314 2.84434 8.70297C2.84434 8.63874 2.84434 8.57658 2.84434 8.50612C2.83724 8.37707 2.83724 8.24769 2.84434 8.11863V8.01503C2.84434 7.94872 2.84434 7.88448 2.85821 7.80781C2.86812 7.69177 2.87999 7.57366 2.89783 7.4514V7.40996C2.91745 7.39431 2.93049 7.37129 2.93419 7.34577C2.93789 7.32025 2.93196 7.29423 2.91765 7.2732C2.91765 7.2732 2.91765 7.2587 2.91765 7.25041C2.94142 7.10121 2.97114 6.93544 3.01275 6.74273C3.06625 6.49615 3.13559 6.24128 3.21088 5.98226C3.40365 5.32294 3.71057 4.70626 4.11636 4.16291C4.3382 3.90215 4.5852 3.66606 4.85343 3.45838C5.0768 3.23697 5.32262 3.04172 5.58652 2.87611C7.35784 1.89599 9.74735 2.89477 10.7004 4.63537C10.9394 5.07502 11.0993 5.55683 11.1719 6.05685C11.2021 6.26287 11.2021 6.47248 11.1719 6.67849C11.1633 6.99037 11.1126 7.2994 11.0214 7.59645C10.9082 7.9721 10.7671 8.33792 10.5993 8.69054C10.3101 9.18371 9.38476 9.96698 9.15493 8.91226C9.04548 8.32222 9.08024 7.71283 9.25598 7.14058C9.40062 6.62462 9.85039 6.01956 9.73151 5.46422C9.70799 5.37442 9.66285 5.29241 9.60042 5.22602C9.53798 5.15964 9.46032 5.1111 9.37485 5.08502C9.15512 5.01309 8.9222 4.99676 8.69525 5.03736C8.67089 5.03947 8.64831 5.05153 8.63237 5.07091C8.61643 5.09029 8.60841 5.11545 8.61006 5.14096C8.61124 5.15752 8.61124 5.17414 8.61006 5.1907C8.59563 5.19329 8.5809 5.19329 8.56647 5.1907C8.49202 5.16302 8.42435 5.11844 8.36834 5.06015C8.33058 5.01109 8.29741 4.95835 8.26927 4.90267C8.23757 4.84228 8.20111 4.78476 8.16029 4.73068C7.94478 4.4696 7.65998 4.28136 7.342 4.18985C7.25414 4.16344 7.1648 4.14268 7.07451 4.12769C6.76866 4.08141 6.45667 4.11175 6.16422 4.21623C5.87177 4.3207 5.60722 4.49631 5.39235 4.72861C4.97825 5.18241 4.79795 5.79991 4.63746 6.34695C4.60576 6.46092 4.57009 6.57696 4.53442 6.69507C4.1758 7.88448 3.76764 9.2293 4.33629 10.3959C4.45058 10.6199 4.6083 10.8165 4.79935 10.9731C4.9904 11.1297 5.21059 11.243 5.44585 11.3056C5.75058 11.398 6.06845 11.4338 6.38501 11.4113C6.39499 11.4192 6.40647 11.4249 6.41869 11.4278C6.72922 11.4955 7.05139 11.4752 7.35195 11.3692C7.65252 11.2632 7.92062 11.0753 8.12859 10.8249C8.21087 11.0423 8.35642 11.2271 8.54467 11.3532C8.71914 11.4643 8.91726 11.5284 9.12125 11.5397C9.21151 11.5492 9.30243 11.5492 9.39269 11.5397H9.43232C9.53402 11.5266 9.63424 11.503 9.73151 11.4693C9.77938 11.4542 9.82634 11.4363 9.87217 11.4154H9.89001L9.9336 11.3947C9.99527 11.3661 10.0549 11.3329 10.1119 11.2952C10.1804 11.2575 10.2466 11.2152 10.3101 11.1688C10.3655 11.1274 10.419 11.0818 10.4725 11.0362C10.6029 10.9217 10.7254 10.7978 10.8391 10.6653L10.8589 10.6446L10.9163 10.5803L10.9698 10.5161C11.1006 10.3545 11.2135 10.2032 11.3186 10.054C11.3542 10.0022 11.3879 9.94833 11.4256 9.89031C11.5008 9.7722 11.5722 9.65409 11.6415 9.52976C11.6732 9.47174 11.7069 9.41165 11.7366 9.35363C11.7881 9.25624 11.8357 9.15884 11.8793 9.05938C11.909 8.99722 11.9387 8.93091 11.9645 8.8646C12.018 8.73613 12.0655 8.60766 12.1111 8.47504C12.1349 8.40666 12.1567 8.33828 12.1785 8.26783C12.226 8.10827 12.2656 7.95701 12.2973 7.80574C12.3132 7.73736 12.3251 7.66898 12.337 7.59853C12.3382 7.58682 12.3382 7.575 12.337 7.5633C12.3627 7.40789 12.3825 7.27112 12.3925 7.14887C12.3925 7.07634 12.4083 7.00175 12.4123 6.92301C12.4183 6.73853 12.415 6.55385 12.4024 6.36975V6.36975ZM9.2322 9.5194C9.59479 9.8468 10.0901 9.61472 10.3933 9.31218C10.4496 9.25779 10.5026 9.19965 10.5518 9.13812C10.4027 9.40545 10.1746 9.61489 9.9019 9.7349C9.85496 9.75176 9.8065 9.76357 9.75727 9.77013C9.66606 9.78561 9.57306 9.78561 9.48185 9.77013C9.27535 9.7152 9.09284 9.58847 8.9643 9.41074C8.83576 9.23301 8.76884 9.01485 8.77451 8.79208C8.7762 8.67629 8.78948 8.561 8.81414 8.4481C8.8289 8.37119 8.84741 8.29511 8.86961 8.22017C8.89141 8.13935 8.91716 8.05854 8.94292 7.97772C8.94292 8.00259 8.94292 8.02538 8.94292 8.04818C8.90329 8.4999 8.85971 9.18578 9.22824 9.5194H9.2322ZM8.04339 10.6446C7.83754 10.9287 7.55007 11.1364 7.22311 11.2372C7.33604 11.1861 7.4453 11.1265 7.55004 11.059C7.64345 10.999 7.73104 10.9296 7.81158 10.8518L7.84328 10.8207C7.89873 10.757 7.94785 10.6876 7.98989 10.6135C8.00376 10.5886 8.01764 10.5617 8.03349 10.5368C8.03251 10.5458 8.03251 10.5548 8.03349 10.5638C8.03253 10.5685 8.03253 10.5735 8.03349 10.5783C8.03349 10.6011 8.03349 10.6218 8.03349 10.6446H8.04339Z" stroke="#EC1E24" stroke-width="0.973512" stroke-miterlimit="10"/>
</svg>
