<svg width="5" height="4" viewBox="0 0 5 4" fill="none" xmlns="http://www.w3.org/2000/svg">
<path d="M1.60952 1.33274C1.60464 1.29566 1.59736 1.25897 1.58773 1.22291C1.58278 1.194 1.56967 1.1673 1.55008 1.14625C1.51838 1.10895 1.43913 1.11931 1.3995 1.13589C1.39083 1.13788 1.38311 1.14302 1.37771 1.15039C1.37093 1.16045 1.36366 1.17013 1.35592 1.1794L1.33411 0.972188C1.32933 0.964222 1.32404 0.956604 1.31827 0.949391C1.17165 0.804341 1.07654 0.918311 1.04286 0.990836C1.04286 1.0012 1.04286 1.00327 1.04286 1.01156L1.10031 1.52338C1.10031 1.55032 1.10031 1.57932 1.10031 1.60626V1.61662C1.01313 1.79897 0.933891 1.98339 0.862562 2.17196C0.826898 2.26521 0.791232 2.36052 0.761511 2.45584L0.737736 2.53044L0.709994 2.62576L0.672348 2.76873C0.665651 2.79114 0.660353 2.81398 0.656494 2.83711L0.715932 2.8682L0.927938 2.97388L1.05871 3.03811C1.14589 3.07955 1.23307 3.121 1.32421 3.15829C1.41652 3.19833 1.51115 3.23225 1.60754 3.25983C1.71225 3.29303 1.82109 3.30979 1.9305 3.30956C2.0556 3.30666 2.17675 3.26322 2.27724 3.18523C2.36572 3.11319 2.44149 3.02553 2.50113 2.92621C2.60362 2.75141 2.69561 2.57009 2.77654 2.38331L3.03609 1.80726L3.2045 1.73266L3.35707 1.66842L3.48785 1.61662C3.48785 1.61662 3.68598 1.52752 3.8643 1.44878C4.04262 1.37004 4.23679 1.29544 4.21895 1.29752C4.52606 1.16697 4.72024 1.04057 4.18329 1.12967C4.0228 1.15454 3.8326 1.19805 3.68202 1.23742C3.53143 1.27679 3.42246 1.31202 3.42246 1.31202C3.33528 1.34517 3.2481 1.37832 3.1629 1.41562C3.07771 1.45292 2.96477 1.50058 2.8657 1.54617L2.83994 1.52545C2.80032 1.49436 2.75871 1.46122 2.7171 1.43428C2.7171 1.43428 2.66955 1.40319 2.59624 1.36382C2.5079 1.31744 2.41728 1.27594 2.32479 1.2395C2.2009 1.18839 2.07294 1.14887 1.94239 1.12138C1.8314 1.08589 1.71401 1.07808 1.59962 1.09859C1.56395 1.12138 1.63924 1.16904 1.88295 1.28093C2.02362 1.35346 2.19006 1.44256 2.31488 1.52338C2.43971 1.60419 2.51302 1.6705 2.51302 1.6705L2.54274 1.69329C2.27856 1.819 2.02494 1.95715 1.7819 2.10772L1.61746 2.20718L1.51045 2.27557V2.24448C1.46885 2.05591 1.43913 1.86114 1.41535 1.66636C1.46887 1.55564 1.53187 1.45021 1.60358 1.35139C1.60358 1.35139 1.60952 1.33481 1.60952 1.33274ZM1.1974 2.18232C1.1974 2.21962 1.21128 2.25484 1.2192 2.29214L1.23307 2.35223L1.25883 2.45584C1.27666 2.52422 1.29647 2.59467 1.31629 2.66306L1.33016 2.71486V2.7418C1.33016 2.7418 1.33016 2.75423 1.33016 2.7418L1.41734 2.68585L1.71256 2.49728C1.82946 2.42268 1.94833 2.35223 2.0692 2.29007C2.24355 2.1906 2.42188 2.09736 2.60218 2.00826L2.515 2.19889C2.43859 2.37751 2.35328 2.55181 2.25941 2.72107C2.21933 2.79758 2.16858 2.86742 2.10883 2.92829C2.05972 2.97536 1.99692 3.00382 1.9305 3.0091C1.762 3.00698 1.59587 2.96743 1.4431 2.89306C1.35592 2.85783 1.27071 2.81846 1.18551 2.77702L0.987376 2.68585V2.65476L1.00918 2.58639C1.0389 2.49521 1.0706 2.40196 1.10626 2.31079C1.1241 2.2652 1.1439 2.22169 1.16174 2.1761C1.19542 2.18232 1.19542 2.18232 1.1974 2.18232Z" fill="#4EB648"/>
</svg>
