<svg width="2" height="2" viewBox="0 0 2 2" fill="none" xmlns="http://www.w3.org/2000/svg">
<path d="M0.904541 1.43486C0.922373 1.4991 1.02144 1.47216 1.00163 1.40585C0.916427 1.10332 0.831232 0.80079 0.744052 0.498257C0.742231 0.49159 0.739177 0.485362 0.735055 0.479931C0.730933 0.474501 0.725819 0.469974 0.720023 0.466607C0.714228 0.46324 0.707853 0.461097 0.701267 0.460306C0.69468 0.459514 0.688014 0.460089 0.68164 0.461994C0.675265 0.463899 0.669309 0.467099 0.664117 0.47141C0.658924 0.475721 0.654602 0.481057 0.651382 0.487118C0.648163 0.493179 0.646105 0.499846 0.645348 0.506734C0.644591 0.513622 0.645147 0.5206 0.646968 0.527267C0.740092 0.8298 0.825287 1.13233 0.904541 1.43486Z" fill="#EF5023"/>
</svg>
