<svg width="15" height="1" viewBox="0 0 15 1" fill="none" xmlns="http://www.w3.org/2000/svg">
<path d="M1.05847 0.661024C1.06161 0.662392 1.06498 0.663095 1.06838 0.663095C1.07178 0.663095 1.07514 0.662392 1.07828 0.661024L1.58155 0.650662C3.65272 0.607838 5.72322 0.585734 7.79307 0.584352C8.82997 0.584352 9.86489 0.589879 10.8978 0.60093L12.4512 0.621653H12.9604L13.3805 0.603004C13.5786 0.592643 13.7926 0.582281 13.7767 0.578136C14.1175 0.549126 14.3394 0.482819 13.7926 0.404077C13.4696 0.348129 13.0001 0.304615 13.0001 0.304615L11.0544 0.275605C9.99765 0.263173 8.94093 0.256264 7.88421 0.254883C5.77078 0.254883 3.66262 0.276987 1.55975 0.321193L1.08225 0.352274L1.05847 0.36678C0.884113 0.505614 0.991106 0.617509 1.05847 0.661024Z" fill="#5450A1"/>
</svg>
