<svg width="13" height="13" viewBox="0 0 13 13" fill="none" xmlns="http://www.w3.org/2000/svg">
<path d="M7.90763 12.5498C8.49545 12.3702 9.05246 12.0947 9.55808 11.7334C10.7224 10.8666 11.5899 9.63178 12.0328 8.21072C12.4797 6.84987 12.4853 5.37291 12.0486 4.00842C11.5474 2.52891 10.4299 1.20481 9.00529 0.651544C6.62767 -0.268487 3.59819 0.276488 2.01113 2.43359C0.782699 4.10788 0.0020507 6.60688 0.949135 8.87173C1.47317 10.1136 2.34682 11.1589 3.45355 11.868C4.00872 12.2271 4.61751 12.4862 5.2546 12.6347C5.59783 12.7337 5.94958 12.7969 6.30471 12.8233C6.84934 12.8195 7.39009 12.7272 7.90763 12.5498ZM6.59003 12.4109C4.80681 12.2845 3.69726 10.9604 3.15239 9.3649C4.25136 9.73985 5.40256 9.91984 6.55833 9.89744C6.58475 10.7415 6.61116 11.5842 6.63758 12.4255C6.62285 12.4172 6.60666 12.4123 6.59003 12.4109ZM6.54644 2.75062C7.66951 2.75378 8.78148 2.98313 9.8216 3.42614C10.0953 4.18416 10.2738 4.97611 10.3526 5.78217L6.64154 5.87956C6.61116 4.8352 6.57946 3.79222 6.54644 2.75062ZM6.64946 6.10335C7.89177 6.07226 9.1321 6.03497 10.3724 6.00181C10.3896 6.21317 10.4015 6.42039 10.4081 6.62346C10.4251 7.40506 10.3317 8.18501 10.1307 8.93803C9.05652 9.38354 7.91724 9.63305 6.7624 9.67572C6.72674 8.48217 6.68711 7.29069 6.64154 6.09921L6.64946 6.10335ZM6.8476 12.5C6.81986 11.6325 6.79279 10.765 6.76637 9.89744C7.88753 9.85439 8.99475 9.6228 10.0455 9.21156C9.54818 10.8071 8.50995 12.1747 6.85157 12.4897L6.8476 12.5ZM8.09387 12.2576C9.19352 11.6007 9.9187 10.4217 10.2971 9.10381C10.8028 8.8893 11.29 8.63003 11.7534 8.32883C11.1253 10.0964 9.8117 11.6277 8.09783 12.2535L8.09387 12.2576ZM12.1338 6.72292C12.0825 7.15322 11.9936 7.5777 11.8683 7.99107C11.3939 8.31615 10.8934 8.59763 10.3724 8.83236C10.5493 8.11111 10.6307 7.36786 10.6141 6.62346C10.6141 6.41624 10.5983 6.20903 10.5805 6.00181L12.1655 5.9583C12.1698 6.21213 12.1605 6.46601 12.1378 6.71877L12.1338 6.72292ZM12.0229 4.71087C12.0973 5.04577 12.1431 5.38696 12.1596 5.73036L10.5607 5.77388C10.4838 5.01223 10.3222 4.26257 10.0792 3.54011C10.7349 3.84567 11.3524 4.23397 11.9179 4.69637C11.9331 4.7091 11.9515 4.71687 11.9709 4.71871C11.9902 4.72055 12.0097 4.71638 12.0268 4.70673L12.0229 4.71087ZM8.94387 0.873264C9.67769 1.18787 10.3321 1.67542 10.8562 2.29794C11.3803 2.92045 11.7599 3.66111 11.9654 4.46221C11.3576 3.97338 10.6916 3.56937 9.98408 3.26037C9.5244 2.06682 8.79527 1.03489 7.72336 0.547937C8.14079 0.611761 8.55102 0.719367 8.94783 0.869123L8.94387 0.873264ZM9.70668 3.15262C8.69398 2.75014 7.61989 2.54302 6.53653 2.54134C6.51275 1.85546 6.49096 1.17165 6.46917 0.485775C8.08397 0.550011 9.11228 1.70212 9.71065 3.14019L9.70668 3.15262ZM6.53653 9.68815C5.35896 9.70366 4.18778 9.50524 3.07512 9.10174C2.84372 8.32044 2.73334 7.50546 2.74819 6.68769C2.74819 6.53228 2.7482 6.37273 2.76999 6.21317L6.44341 6.1075C6.47511 7.2969 6.51473 8.48631 6.5504 9.67572L6.53653 9.68815ZM6.41765 5.89821L2.76999 5.99974C2.83989 5.09878 3.03617 4.21347 3.35251 3.37227C4.30437 2.98533 5.31346 2.77496 6.33444 2.75062C6.36614 3.78669 6.39982 4.84142 6.43152 5.88577L6.41765 5.89821ZM6.24924 0.498207C6.26905 1.17994 6.29282 1.86168 6.31462 2.54341C5.34533 2.56369 4.38542 2.74628 3.47139 3.08424C4.01229 1.84095 4.894 0.840107 6.26113 0.487843L6.24924 0.498207ZM1.69214 3.3474C2.26873 2.20206 3.22668 1.31742 4.38479 0.860832C4.7081 0.745249 5.03926 0.6552 5.37546 0.59145C4.33327 1.12399 3.62593 2.08754 3.17617 3.2065C2.49809 3.49036 1.8554 3.85912 1.26218 4.30473C1.38385 3.97008 1.53025 3.64585 1.70006 3.33497L1.69214 3.3474ZM1.15321 4.67357C1.74368 4.19505 2.39022 3.79743 3.0771 3.49038C2.79905 4.30118 2.62579 5.14718 2.56194 6.00596L0.897618 6.05154C0.937973 5.5796 1.02631 5.1135 1.16114 4.66114L1.15321 4.67357ZM0.895635 6.26083L2.56194 6.21524C2.54807 6.43904 2.54015 6.66076 2.54015 6.87833C2.53843 7.59878 2.63381 8.31589 2.82348 9.00849C2.20628 8.76795 1.61465 8.46101 1.05811 8.0926C0.920898 7.49321 0.866188 6.8764 0.895635 6.26083ZM1.78526 9.90158C1.50484 9.43653 1.28746 8.93303 1.13934 8.4055C1.69824 8.75573 2.28893 9.04725 2.90274 9.27579C3.38817 10.8071 4.37488 12.1229 5.90844 12.5187C5.0761 12.4361 4.27239 12.1577 3.55737 11.7046C2.84235 11.2514 2.23453 10.635 1.77932 9.90158H1.78526Z" fill="#004E50"/>
</svg>
