<svg width="1" height="3" viewBox="0 0 1 3" fill="none" xmlns="http://www.w3.org/2000/svg">
<path d="M0.145798 2.08854C0.159667 2.10719 0.183435 2.06368 0.211174 1.91241C0.238913 1.76115 0.272595 1.47726 0.272595 1.47726V1.32185C0.272595 1.0953 0.276557 0.869429 0.284483 0.644256V0.36659C0.285576 0.361823 0.285576 0.356851 0.284483 0.352083C0.277236 0.337773 0.266403 0.3258 0.253137 0.317449C0.239871 0.309097 0.224686 0.304688 0.209202 0.304688C0.193719 0.304688 0.178521 0.309097 0.165256 0.317449C0.15199 0.3258 0.141157 0.337773 0.13391 0.352083C0.132368 0.356071 0.132368 0.360535 0.13391 0.364522V0.642188C0.13391 0.865979 0.13391 1.09184 0.13391 1.31563V1.44825V1.68033C0.13391 1.79637 0.13391 1.90827 0.13391 1.8979C0.127549 1.9617 0.131568 2.02615 0.145798 2.08854Z" fill="black"/>
</svg>
