<svg width="3" height="3" viewBox="0 0 3 3" fill="none" xmlns="http://www.w3.org/2000/svg">
<path d="M1.93337 2.2772C1.94386 2.27918 1.95459 2.27918 1.96508 2.2772C1.97453 2.27133 1.98251 2.2632 1.98837 2.25347C1.99422 2.24374 1.99778 2.2327 1.99876 2.22125C2.00922 1.89743 2.0497 1.57543 2.11962 1.25978C2.12158 1.2509 2.1217 1.24169 2.12 1.23276C2.11829 1.22383 2.11478 1.21538 2.10971 1.20797C2.10449 1.20006 2.09774 1.19339 2.08988 1.18839C2.08203 1.18339 2.07326 1.18018 2.06414 1.17897C1.6416 1.12644 1.22315 1.04265 0.81193 0.928239C0.804463 0.92469 0.796357 0.922852 0.788154 0.922852C0.779952 0.922852 0.771846 0.92469 0.764379 0.928239C0.756867 0.932506 0.750322 0.938414 0.745193 0.945566C0.740064 0.952718 0.736467 0.960942 0.734654 0.969678C0.704894 1.12404 0.687007 1.28064 0.68116 1.43798C0.680425 1.4496 0.682823 1.46119 0.688077 1.47144C0.693331 1.4817 0.701229 1.49021 0.710879 1.496L1.89969 2.26684C1.90976 2.27354 1.92144 2.27713 1.93337 2.2772ZM0.807969 1.4069C0.81355 1.2929 0.826119 1.17939 0.845609 1.06707C1.21931 1.16692 1.59844 1.24304 1.98092 1.29501C1.92678 1.55912 1.89233 1.82723 1.8779 2.09692L0.807969 1.4069Z" fill="#963493"/>
</svg>
