<svg width="2" height="1" viewBox="0 0 2 1" fill="none" xmlns="http://www.w3.org/2000/svg">
<path d="M0.873552 0.545603C0.849775 0.545603 0.839871 0.514531 0.826001 0.50417C0.821452 0.498046 0.815187 0.493548 0.808085 0.49132C0.800983 0.489092 0.793393 0.489232 0.786372 0.491725V0.51038C0.785718 0.522112 0.785718 0.53387 0.786372 0.545603C0.78514 0.560771 0.78514 0.576028 0.786372 0.591196H0.679383C0.667745 0.625371 0.667745 0.662703 0.679383 0.696877H0.786372C0.785127 0.714121 0.785127 0.731438 0.786372 0.748681C0.792782 0.772695 0.80073 0.796225 0.810153 0.819127C0.826004 0.848137 0.851759 0.860569 0.869591 0.819127C0.879405 0.798532 0.887363 0.777028 0.893366 0.754891V0.701013H0.958754C0.984203 0.69559 1.00934 0.688677 1.03404 0.680297C1.06772 0.667864 1.0915 0.643001 1.03404 0.618135C1.00953 0.605148 0.98358 0.5954 0.956771 0.589122H0.897333C0.897333 0.589122 0.897333 0.572548 0.897333 0.566332C0.89675 0.56013 0.89675 0.553878 0.897333 0.547677L0.873552 0.545603Z" fill="#BF2026"/>
</svg>
