<svg width="1" height="1" viewBox="0 0 1 1" fill="none" xmlns="http://www.w3.org/2000/svg">
<path d="M0.722504 0.907312C0.745933 0.911823 0.770005 0.91121 0.793194 0.905504C0.816384 0.899798 0.838192 0.889127 0.85724 0.874164C0.882387 0.85419 0.903864 0.829611 0.920638 0.801631C0.922752 0.819982 0.926737 0.838045 0.932526 0.855509C0.941075 0.8984 0.958677 0.938754 0.984043 0.973623C0.997912 0.973623 0.999894 0.94876 0.984043 0.847225C0.984043 0.787133 0.984043 0.716686 0.984043 0.658666C0.984043 0.600646 0.984043 0.561269 0.984043 0.561269V0.509465H0.972155H0.875071C0.867235 0.502757 0.85857 0.497177 0.849313 0.492884C0.832167 0.484175 0.814246 0.47724 0.795813 0.472168H0.730431H0.706656C0.696749 0.472168 0.688822 0.472168 0.686841 0.472168L0.659105 0.513613C0.650238 0.53151 0.640307 0.548812 0.62938 0.565417C0.613285 0.601305 0.600673 0.638787 0.591734 0.677308C0.581889 0.720214 0.581889 0.764948 0.591734 0.807854C0.60281 0.835311 0.620847 0.85909 0.643892 0.876617C0.666936 0.894145 0.694114 0.904752 0.722504 0.907312ZM0.722504 0.700098C0.728203 0.67197 0.737538 0.644792 0.750245 0.619295L0.77006 0.581985H0.793835L0.825538 0.594417C0.845206 0.606268 0.863207 0.620917 0.879032 0.637937C0.871093 0.668223 0.859786 0.697429 0.845346 0.724963C0.82157 0.774694 0.776003 0.805784 0.750245 0.797496C0.724488 0.789207 0.730429 0.782986 0.722504 0.766408C0.713795 0.7433 0.712408 0.717884 0.718543 0.693889L0.722504 0.700098Z" fill="#BE2227"/>
</svg>
