<svg width="13" height="8" viewBox="0 0 13 8" fill="none" xmlns="http://www.w3.org/2000/svg">
<path d="M12.5716 2.6432H12.5339C12.5394 2.63617 12.5424 2.62739 12.5424 2.61833C12.5424 2.60927 12.5394 2.60049 12.5339 2.59347C12.5249 2.58092 12.5142 2.56975 12.5022 2.56031L12.4765 2.54581C12.4765 2.54581 12.4626 2.54581 12.4626 2.53131C12.4527 2.50974 12.4351 2.49309 12.4136 2.48495C12.3921 2.47681 12.3684 2.47783 12.3477 2.48779C12.3155 2.49809 12.2853 2.51422 12.2585 2.53544C12.2474 2.52958 12.2353 2.52606 12.2228 2.52508C12.1937 2.53346 12.1629 2.53346 12.1337 2.52508C12.1158 2.51472 12.102 2.52508 12.0941 2.52508C12.085 2.53427 12.0781 2.54566 12.0742 2.55824C12.0722 2.57128 12.0722 2.58458 12.0742 2.59762C12.0742 2.61419 12.0742 2.61833 12.0742 2.61211C12.0423 2.60919 12.0106 2.61879 11.9851 2.63905C11.9653 2.66235 11.9474 2.68731 11.9316 2.71366L11.8682 2.81932C11.8418 2.86491 11.814 2.91051 11.785 2.95609L11.7017 3.08871C11.6815 3.12095 11.6597 3.15207 11.6364 3.18195C11.565 3.28141 11.4818 3.38917 11.3907 3.53836C11.2995 3.68756 11.1925 3.81603 11.0895 3.95279C10.9865 4.08955 10.8656 4.23667 10.7467 4.36722C10.6359 4.49864 10.5146 4.61995 10.3842 4.72984C10.131 4.93418 9.85964 5.11252 9.57378 5.26239C9.51331 5.28453 9.45094 5.30049 9.38753 5.31004L9.20922 5.33698C9.14326 5.34216 9.07703 5.34216 9.01108 5.33698C8.98349 5.33772 8.95613 5.33151 8.9313 5.31889C8.90648 5.30627 8.88491 5.28761 8.86842 5.26446C8.82314 5.20227 8.78891 5.13209 8.76737 5.05725C8.73442 4.92193 8.72635 4.78129 8.74359 4.64282C8.75698 4.49635 8.78554 4.35183 8.82879 4.21181H8.85058C8.89295 4.21884 8.93346 4.23507 8.96947 4.25946C9.00806 4.28463 9.05278 4.29758 9.09825 4.29676C9.11608 4.29676 9.12203 4.31127 9.12005 4.31542C9.11807 4.31956 9.12005 4.31542 9.13788 4.31542C9.14892 4.31243 9.16052 4.31243 9.17157 4.31542H9.19534C9.30732 4.31 9.41833 4.29123 9.52623 4.25946C9.60566 4.23155 9.6805 4.19101 9.74814 4.13928C10.0279 3.92836 10.2632 3.65966 10.4396 3.34979C10.5896 3.05862 10.6997 2.74682 10.7666 2.42355C10.7642 2.40984 10.7653 2.39572 10.7698 2.38261C10.7743 2.36951 10.7821 2.3579 10.7923 2.34896C10.7934 2.27967 10.7894 2.2104 10.7804 2.14174C10.7687 2.07362 10.7438 2.00872 10.7071 1.9511C10.6517 1.82227 10.5559 1.71702 10.4357 1.65271C10.3872 1.61409 10.3297 1.58976 10.2692 1.58226C10.1858 1.54146 10.0932 1.52567 10.0018 1.53667C9.90449 1.54049 9.80771 1.55298 9.71247 1.57398C9.44164 1.66693 9.18777 1.80705 8.96155 1.98841C8.75258 2.1599 8.56722 2.36071 8.41073 2.58517C8.25469 2.80878 8.12185 3.04912 8.01446 3.30214C7.94709 3.46376 7.89756 3.63161 7.84208 3.79738C7.76481 3.91549 7.69149 4.02739 7.62809 4.13307C7.51515 4.31956 7.4042 4.49776 7.29324 4.66353C7.18209 4.8334 7.06031 4.99539 6.92868 5.14842C6.78001 5.32005 6.61761 5.4781 6.44325 5.62086C6.40957 5.63744 6.37391 5.65401 6.33626 5.66852C6.29882 5.68364 6.2594 5.69272 6.21936 5.69546C6.20133 5.69838 6.18293 5.6975 6.16524 5.69288C6.14754 5.68825 6.13091 5.67997 6.11632 5.66852C6.07546 5.6386 6.046 5.59458 6.03311 5.54419C6.01452 5.50176 6.00056 5.45727 5.9915 5.41157C5.98439 5.37325 5.98439 5.33386 5.9915 5.29553C5.99405 5.17011 6.00799 5.04522 6.03311 4.92255C6.05292 4.81066 6.07472 4.68219 6.09651 4.53921C6.11831 4.39623 6.1401 4.30505 6.15198 4.2346C6.16436 4.16471 6.18025 4.09554 6.19955 4.02739C6.21738 3.959 6.24313 3.8699 6.27681 3.76629C6.31049 3.66269 6.35408 3.50314 6.41154 3.29593C6.4373 3.2462 6.45118 3.21096 6.4591 3.19646C6.46444 3.18575 6.46907 3.17467 6.47296 3.16331V3.13222C6.48015 3.09644 6.48942 3.06114 6.5007 3.02654C6.51259 2.98924 6.5443 2.90843 6.59582 2.78618C6.64733 2.66392 6.69884 2.53337 6.75432 2.39661C6.8098 2.25985 6.85735 2.12723 6.90491 2.0029C6.95246 1.87857 6.9802 1.79569 6.99209 1.76254C7.00397 1.72938 7.04162 1.67757 7.07332 1.67965C7.1279 1.6742 7.18173 1.66239 7.23381 1.64442C7.35751 1.59261 7.48648 1.55577 7.61819 1.53461C7.70754 1.52439 7.79537 1.50282 7.87973 1.47037C7.9257 1.45388 7.97271 1.44073 8.02041 1.431L8.26014 1.37505L8.51178 1.31702C8.59301 1.29837 8.65246 1.28387 8.68812 1.27144H8.7317C8.74591 1.26899 8.75943 1.26333 8.77133 1.25486C8.78322 1.23621 8.82681 1.2217 8.9021 1.21341C8.95513 1.20974 9.00762 1.20002 9.05863 1.18441C9.10816 1.16991 9.15373 1.15747 9.19732 1.14918C9.23802 1.14058 9.27571 1.12053 9.3063 1.09117C9.29441 1.07666 9.30629 1.05801 9.338 1.03936C9.35996 1.02397 9.384 1.0121 9.40932 1.00414C9.44234 0.994469 9.45027 0.982025 9.4331 0.966829C9.41328 0.952324 9.40735 0.935747 9.41924 0.915026C9.43113 0.894304 9.47273 0.892236 9.47669 0.879803C9.48066 0.86737 9.49453 0.859083 9.51632 0.854938C9.5001 0.821509 9.47453 0.794041 9.44301 0.776196C9.41312 0.756516 9.38637 0.732047 9.36375 0.703676C9.37819 0.688317 9.39693 0.678154 9.41725 0.674663C9.44103 0.674663 9.44698 0.651869 9.43113 0.62286L9.33601 0.560698C9.33035 0.550415 9.3223 0.541789 9.3126 0.535631C9.3029 0.529473 9.29188 0.525986 9.28054 0.525475C9.27382 0.519753 9.26543 0.516622 9.25677 0.516622C9.2481 0.516622 9.23971 0.519753 9.23299 0.525475C9.21912 0.544124 9.20327 0.544124 9.18346 0.525475C9.16308 0.52247 9.14241 0.52247 9.12204 0.525475C9.10109 0.529673 9.07957 0.529673 9.05863 0.525475C9.02602 0.517738 8.99217 0.517738 8.95956 0.525475C8.93052 0.534888 8.89944 0.534888 8.8704 0.525475C8.82907 0.520522 8.78721 0.524758 8.74756 0.537907C8.70217 0.551553 8.65578 0.561247 8.60886 0.566908C8.5455 0.577684 8.48363 0.596475 8.4246 0.62286C8.36232 0.651711 8.29452 0.665183 8.22646 0.662231H8.18287C8.15651 0.669218 8.1307 0.678222 8.1056 0.68917L7.98276 0.734751L7.85198 0.77827L7.75688 0.801061C7.63602 0.832143 7.54289 0.854938 7.47949 0.867371C7.38652 0.887243 7.29459 0.912139 7.20408 0.941965L7.15059 0.954397L7.0852 0.968903C7.08039 0.942898 7.08039 0.916167 7.0852 0.890161C7.0852 0.854935 7.09709 0.817639 7.10501 0.776196C7.11294 0.734753 7.12285 0.699529 7.13077 0.662231C7.13664 0.637622 7.14393 0.613408 7.15258 0.589711C7.14939 0.550749 7.14409 0.512008 7.13672 0.473671C7.13147 0.438894 7.11783 0.406084 7.09709 0.378348L7.02378 0.297532C6.99644 0.269673 6.96501 0.246582 6.93067 0.229148L6.82168 0.177344C6.7768 0.161231 6.73025 0.150804 6.683 0.14627C6.64078 0.143301 6.59841 0.143301 6.55619 0.14627C6.53052 0.146944 6.50538 0.154045 6.48288 0.166986C6.46278 0.179856 6.44472 0.195946 6.42938 0.214654C6.40398 0.242245 6.37612 0.267222 6.34617 0.289248C6.33442 0.29177 6.32335 0.296977 6.31376 0.304501C6.30416 0.312024 6.29629 0.321669 6.29068 0.332755C6.27798 0.372038 6.25851 0.40856 6.23323 0.44051C6.21971 0.45302 6.20936 0.468849 6.20314 0.486572C6.19691 0.504294 6.195 0.523354 6.19756 0.542043C6.20828 0.565315 6.21383 0.590809 6.21383 0.616637C6.21383 0.642465 6.20828 0.667971 6.19756 0.691244C6.17489 0.736942 6.1614 0.787002 6.15793 0.838358C6.15392 0.881102 6.1439 0.923002 6.12821 0.962694C6.1124 1.00162 6.10238 1.04284 6.0985 1.08494C6.0985 1.11603 6.08264 1.14711 6.07274 1.18234C6.06829 1.1983 6.05923 1.21243 6.04682 1.22281C6.03441 1.23319 6.01924 1.23931 6.00338 1.24035C5.98025 1.24456 5.95765 1.25152 5.93602 1.26108C5.91389 1.27075 5.89052 1.27703 5.86667 1.27972C5.79987 1.28826 5.73368 1.30141 5.66854 1.3191L5.49616 1.37297L5.15934 1.44757C5.04838 1.47451 4.90176 1.50559 4.71354 1.54082L4.59068 1.56568C4.54182 1.57642 4.49453 1.59383 4.45001 1.61748C4.41192 1.62794 4.37621 1.64626 4.345 1.67136C4.31349 1.69017 4.28798 1.71828 4.27169 1.75218C4.25386 1.80191 4.23008 1.85786 4.20235 1.9221C4.19815 1.94189 4.19815 1.96239 4.20235 1.98218H4.21423C4.23413 2.00745 4.24955 2.03621 4.2598 2.06714C4.26476 2.08232 4.2731 2.09606 4.28412 2.10723C4.29514 2.11839 4.30853 2.12668 4.3232 2.13138L4.41831 2.21426C4.44865 2.24287 4.48673 2.26096 4.52729 2.26607C4.57702 2.27495 4.62741 2.27911 4.67786 2.2785C4.7258 2.27612 4.7735 2.26989 4.82053 2.25986C4.87917 2.24634 4.93678 2.22833 4.9929 2.20598L5.24454 2.10858L5.34559 2.08372L5.51993 2.03814C5.58532 2.02156 5.64674 2.00498 5.70618 1.98633C5.74689 1.97616 5.78667 1.96229 5.82507 1.94489C5.82153 1.96196 5.82153 1.97962 5.82507 1.99669C5.82732 1.99963 5.82854 2.00328 5.82854 2.00705C5.82854 2.01081 5.82732 2.01447 5.82507 2.01741L5.34756 3.2897L5.26038 3.57981C5.24651 3.6254 5.23463 3.65647 5.22868 3.67304C5.22006 3.68939 5.21341 3.70679 5.20887 3.72485C5.20887 3.7435 5.1851 3.80152 5.15736 3.89891C5.12962 3.9963 5.12764 4.03774 5.11971 4.07504C5.11178 4.11234 5.10386 4.15172 5.09792 4.18487C5.09197 4.21802 5.08603 4.25532 5.08206 4.29676L5.04045 4.38794C4.98497 4.51641 4.91959 4.65731 4.84232 4.80236C4.76504 4.94741 4.69372 5.10283 4.61447 5.24581C4.55556 5.35948 4.48936 5.46887 4.41633 5.57321C4.35538 5.66591 4.28567 5.75199 4.20828 5.83015C4.14076 5.90158 4.06159 5.95983 3.97449 6.00214C3.94191 6.02048 3.90814 6.0364 3.87344 6.0498C3.83626 6.06529 3.79656 6.07303 3.75654 6.07259C3.71958 6.07197 3.68384 6.05865 3.65484 6.03468C3.62584 6.01072 3.60518 5.97743 3.59605 5.93997C3.55256 5.81572 3.52912 5.68477 3.5267 5.55248C3.5267 5.44887 3.5267 5.34526 3.54255 5.22922C3.56686 5.0634 3.60127 4.89936 3.64559 4.73813C3.68389 4.60966 3.72154 4.46047 3.75853 4.29055C3.78825 4.17451 3.82391 4.05225 3.8675 3.92585C3.91109 3.79945 3.95468 3.67305 4.00421 3.54872C4.0161 3.51142 4.03393 3.46377 4.05771 3.40782C4.0811 3.35167 4.1016 3.29426 4.11913 3.23583C4.13852 3.17784 4.1531 3.11822 4.16272 3.05763C4.17377 3.00857 4.17377 2.9575 4.16272 2.90844C4.17407 2.89297 4.18237 2.87528 4.18713 2.85643C4.19189 2.83758 4.19302 2.81792 4.19046 2.79861C4.19645 2.77891 4.19642 2.75775 4.19039 2.73806C4.18435 2.71838 4.17261 2.70115 4.15678 2.68878C4.1188 2.66156 4.08476 2.62876 4.05573 2.59139C4.05352 2.58908 4.05089 2.58724 4.048 2.58598C4.04511 2.58473 4.04201 2.58408 4.03888 2.58408C4.03575 2.58408 4.03265 2.58473 4.02976 2.58598C4.02687 2.58724 4.02424 2.58908 4.02204 2.59139C4.00817 2.59139 3.99629 2.59139 3.98242 2.57274C3.97293 2.57288 3.96358 2.57517 3.95503 2.57947C3.94647 2.58376 3.93892 2.58996 3.93288 2.59762C3.921 2.61005 3.90911 2.5976 3.89524 2.58517C3.88137 2.57274 3.84768 2.53959 3.82787 2.54374H3.73672C3.70042 2.54726 3.66494 2.55705 3.63172 2.57274L3.45934 2.65356C3.43042 2.66613 3.40456 2.68532 3.38365 2.7097C3.36274 2.73408 3.34731 2.76303 3.33848 2.79446L3.26121 3.01825C3.21749 2.98212 3.17582 2.94338 3.13638 2.90221C3.09705 2.8626 3.04962 2.83284 2.99768 2.81519C2.92916 2.79237 2.85758 2.78117 2.78568 2.78203C2.6692 2.78575 2.55322 2.79961 2.43894 2.82347C2.41396 2.82734 2.38982 2.83575 2.36762 2.84834L2.30619 2.8815C2.14332 2.94027 1.98821 3.02033 1.84454 3.11979C1.71092 3.21659 1.58622 3.3262 1.47204 3.44719C1.36081 3.56937 1.2563 3.69805 1.159 3.8326C1.06389 3.96729 0.972752 4.09991 0.887554 4.23045C0.875666 4.2491 0.861787 4.27812 0.839992 4.31334C0.818197 4.34857 0.796409 4.38586 0.772633 4.42523C0.748857 4.4646 0.727059 4.50191 0.707245 4.53506C0.690806 4.55954 0.678726 4.58692 0.671582 4.61588C0.614123 4.74228 0.544776 4.87904 0.46156 5.03031C0.382345 5.16633 0.322282 5.31358 0.283234 5.46753C0.274027 5.52443 0.260791 5.58053 0.243616 5.63537C0.223879 5.69499 0.211235 5.75694 0.20597 5.81979C0.209744 5.83588 0.209915 5.85267 0.206478 5.86884C0.203042 5.88501 0.196084 5.90014 0.18615 5.91304C0.16655 5.93912 0.155447 5.97105 0.154453 6.0042C0.115332 6.08258 0.104766 6.17317 0.124728 6.25909C0.144912 6.34863 0.152255 6.44081 0.14652 6.53261C0.139122 6.56461 0.139122 6.59799 0.14652 6.62999C0.153463 6.65574 0.153463 6.68299 0.14652 6.70874C0.15898 6.79218 0.189476 6.87155 0.235683 6.94081L0.386268 7.14803C0.526237 7.277 0.701789 7.3561 0.887554 7.3739C1.12504 7.38745 1.36168 7.33452 1.57309 7.22056C1.64442 7.18119 1.72565 7.13145 1.81679 7.07344C1.90313 7.01712 1.98066 6.94723 2.04664 6.86622C2.06024 6.84191 2.07845 6.82076 2.10014 6.80406C2.12307 6.78367 2.14308 6.75993 2.15958 6.7336L2.4112 6.43936C2.49859 6.33572 2.57872 6.2256 2.65095 6.10988C2.67346 6.09463 2.69408 6.07653 2.71237 6.05601C2.73491 6.0349 2.75254 6.00867 2.76389 5.97934C2.76259 6.02389 2.76658 6.06844 2.77577 6.11196C2.77577 6.14304 2.79361 6.17827 2.8055 6.21764C2.83522 6.30674 2.86295 6.37927 2.88474 6.42485C2.91443 6.49223 2.95387 6.55444 3.00165 6.60928C3.06523 6.6802 3.14213 6.73663 3.22753 6.77505C3.37939 6.83356 3.54222 6.85414 3.70304 6.83513C3.86989 6.81671 4.03299 6.77128 4.18649 6.70045C4.34377 6.62988 4.4911 6.53715 4.62437 6.42485C4.74578 6.32448 4.85433 6.20818 4.94733 6.07881C4.95487 6.0688 4.96352 6.05976 4.97309 6.05187C4.97309 6.05187 4.98497 6.04151 4.99092 6.02908C4.99686 6.01665 5.03054 5.97105 5.05234 5.94412C5.07239 6.03562 5.1051 6.12358 5.14942 6.20521C5.19432 6.29568 5.25772 6.3747 5.33511 6.43665C5.4125 6.49861 5.50198 6.54198 5.59721 6.56368C5.63799 6.56395 5.67836 6.57239 5.7161 6.58855C5.78034 6.60891 5.84837 6.61247 5.91423 6.59892C5.9864 6.58939 6.05788 6.57484 6.12821 6.5554C6.36091 6.49705 6.57908 6.38756 6.76819 6.23422C6.97256 6.07477 7.16407 5.89805 7.34079 5.70583C7.47174 5.56269 7.59479 5.41186 7.70933 5.25409C7.71675 5.28709 7.72601 5.31962 7.73706 5.35149C7.76315 5.42168 7.79923 5.48734 7.84406 5.54627C7.8632 5.56129 7.87822 5.58129 7.88765 5.60428C7.89846 5.63048 7.9147 5.65383 7.9352 5.67267C7.98902 5.73032 8.04808 5.78237 8.11154 5.82808C8.17341 5.87409 8.23983 5.913 8.30968 5.94412C8.38823 5.98298 8.47159 6.01019 8.55734 6.02493C8.64899 6.04088 8.74186 6.04781 8.83474 6.04565C8.9321 6.04563 9.02936 6.03941 9.12599 6.02701L9.39942 5.99177C9.72894 5.92548 10.044 5.79624 10.3287 5.6105C10.6267 5.42048 10.9037 5.19671 11.1549 4.94327C11.4059 4.69418 11.6353 4.42236 11.8404 4.13099C12.0258 3.87259 12.1972 3.60347 12.3536 3.32493C12.4109 3.23022 12.4518 3.12571 12.4745 3.01618C12.4745 2.99753 12.4745 2.98924 12.4566 2.99132C12.4388 2.99339 12.4348 2.99132 12.4329 2.99132L12.5537 2.59554L12.5716 2.6432ZM8.95956 3.40367C8.9591 3.39013 8.96173 3.37668 8.96724 3.36442C8.97276 3.35217 8.98099 3.34147 8.99126 3.33322C9.03683 3.25448 9.07051 3.19646 9.08636 3.15916C9.10209 3.12109 9.12064 3.08438 9.14184 3.04934C9.16166 3.01411 9.19138 2.96646 9.22902 2.90844C9.29025 2.81488 9.3564 2.72494 9.42716 2.63905C9.46368 2.58869 9.50483 2.5422 9.55 2.50022C9.58765 2.46914 9.63916 2.42562 9.70851 2.37382C9.74248 2.35348 9.78041 2.34144 9.81946 2.3386C9.84438 2.34098 9.86763 2.35276 9.88485 2.37175C9.90026 2.39123 9.91172 2.41379 9.91853 2.43806C9.9234 2.45776 9.9234 2.47844 9.91853 2.49814C9.90043 2.5319 9.88961 2.56939 9.88683 2.60797C9.88149 2.65368 9.86805 2.69795 9.8472 2.73852C9.76927 2.90153 9.67813 3.07144 9.57378 3.24826C9.46082 3.43279 9.29712 3.57726 9.1042 3.66269H9.0725C9.06077 3.66397 9.04934 3.66748 9.03881 3.67304C9.0324 3.67542 9.02541 3.67542 9.019 3.67304C9.00934 3.66367 8.99785 3.65661 8.98532 3.65233C8.97898 3.63933 8.97169 3.62686 8.96352 3.61503C8.96206 3.60057 8.96206 3.58598 8.96352 3.57151C8.96352 3.55493 8.96352 3.55079 8.96352 3.57151C8.95158 3.55567 8.94591 3.53566 8.94768 3.51557C8.95252 3.50009 8.95252 3.48339 8.94768 3.46791C8.95595 3.44913 8.95936 3.42841 8.95758 3.40782L8.95956 3.40367ZM2.97589 3.94243C2.94918 3.97027 2.93062 4.00549 2.92239 4.04397C2.92258 4.05787 2.92004 4.07166 2.91493 4.08449C2.90982 4.09732 2.90225 4.10892 2.89268 4.11856C2.88199 4.12884 2.87456 4.14227 2.87137 4.15708C2.86818 4.17189 2.8694 4.18738 2.87484 4.20145C2.86769 4.21142 2.86232 4.22264 2.85899 4.2346C2.86134 4.24761 2.86134 4.26096 2.85899 4.27397C2.81059 4.46282 2.73151 4.64155 2.62519 4.80236C2.55782 4.94741 2.4964 5.07797 2.43894 5.18779C2.37936 5.30372 2.3132 5.41582 2.24081 5.52348C2.20069 5.59835 2.15213 5.66792 2.09617 5.73069C2.04049 5.79625 1.98886 5.86546 1.94162 5.93791C1.82988 6.12696 1.66816 6.2781 1.47601 6.37305C1.43166 6.39243 1.38208 6.39429 1.33651 6.37827C1.29095 6.36226 1.2525 6.32948 1.22834 6.28602C1.17651 6.16598 1.16063 6.03233 1.18277 5.90267C1.20014 5.73517 1.25439 5.57418 1.34128 5.4323C1.36109 5.395 1.37694 5.36392 1.38883 5.33698L1.42251 5.26652C1.42251 5.2458 1.44034 5.22094 1.44827 5.19608C1.46194 5.15976 1.4792 5.12503 1.49978 5.09247C1.58498 4.93291 1.68009 4.763 1.7851 4.58479C1.87632 4.42589 1.98039 4.27546 2.09617 4.13514C2.12955 4.07762 2.16803 4.0235 2.21109 3.97351C2.25416 3.92914 2.29982 3.88762 2.34781 3.84918C2.36366 3.82432 2.36959 3.81189 2.36167 3.81189L2.42507 3.79323C2.44243 3.77964 2.45722 3.76277 2.46867 3.7435C2.48254 3.71657 2.49838 3.70206 2.51423 3.69998L2.5816 3.65855C2.60149 3.64664 2.62067 3.63349 2.63906 3.61918C2.66488 3.61028 2.68809 3.59457 2.70643 3.57359C2.73219 3.55701 2.74209 3.55494 2.73813 3.57359C2.73416 3.59224 2.73813 3.57359 2.76983 3.56323H2.77974C2.78733 3.56112 2.7942 3.55681 2.79955 3.5508C2.84116 3.53215 2.87881 3.55079 2.91447 3.59845C2.95013 3.64611 2.98382 3.70206 3.01354 3.75386L2.98976 3.88233C3.00759 3.88648 3.00363 3.91756 2.97391 3.94657L2.97589 3.94243Z" fill="#334C9F"/>
</svg>
