<svg width="7" height="8" viewBox="0 0 7 8" fill="none" xmlns="http://www.w3.org/2000/svg">
<path d="M4.88496 7.17207C5.24556 6.41781 5.6775 5.56408 5.84393 4.73108C5.87959 4.5508 5.83006 4.2835 5.63391 4.2234L5.55267 4.20061C6.30756 3.12103 7.13775 1.74927 6.71374 1.50683C6.43437 1.34935 6.13915 1.73891 5.97866 1.92126C5.81817 2.10361 5.70325 2.26109 5.5705 2.43722C5.79043 1.72233 5.86969 1.14213 5.5923 1.05925C5.31491 0.976361 5.07913 1.41565 4.96025 1.6353C4.8909 1.76585 4.82354 1.90053 4.76211 2.03522C4.92855 1.22087 4.96025 0.549502 4.66106 0.497699C4.36188 0.445895 4.19149 0.912128 4.09836 1.14628C4.00524 1.38043 3.9141 1.64981 3.83088 1.90675C3.87645 1.42602 3.98542 0.137144 3.49603 0.249039C3.19288 0.313276 3.12948 0.733919 3.07203 0.999153C2.98088 1.41358 2.92144 1.82801 2.862 2.24244C2.71737 1.37214 2.49347 0.680045 2.16259 0.760858C1.86737 0.835455 1.90105 1.37214 1.90303 1.58971C1.90303 1.86945 1.92086 2.1492 1.93869 2.42894C1.81189 2.10568 1.6831 1.7845 1.54243 1.47161C1.43543 1.24782 1.2472 0.791942 0.948021 0.866539C0.49033 0.978435 0.920283 2.46416 1.37005 3.69708C0.93019 3.72195 1.05105 4.39954 1.06492 4.7228L1.07681 5.05019C1.0741 5.68139 1.11848 6.31186 1.20956 6.93584C1.23022 7.0617 1.29296 7.17579 1.38659 7.25777C1.48021 7.33975 1.59864 7.38428 1.72075 7.38342C2.26165 7.38342 2.72925 7.28189 3.25629 7.50153C3.56736 7.63208 3.90419 7.99056 4.27074 7.8911C4.63729 7.79163 4.72843 7.49947 4.88496 7.17207ZM6.43833 1.8591C6.66619 1.65188 6.3987 2.25073 6.36304 2.31911C6.32738 2.38749 6.26596 2.50353 6.21246 2.5947C6.01433 2.93246 5.81619 3.25986 5.59824 3.58519L5.22971 4.16332C5.12668 4.16332 5.02167 4.16332 4.91468 4.16332C5.02761 3.9043 5.14253 3.62663 5.25151 3.34689C5.59458 2.80759 5.99251 2.30875 6.43833 1.8591ZM4.36782 3.61627C4.67295 2.90345 4.96223 2.10775 5.39416 1.47368C5.57447 1.21259 5.43577 1.86324 5.41596 1.93784C5.39614 2.01244 5.35652 2.14505 5.32482 2.24037C5.20395 2.61336 5.06526 2.98012 4.92855 3.34689C4.82155 3.6287 4.71654 3.91466 4.60757 4.19854C4.46888 4.21097 4.33216 4.21927 4.2113 4.21927H4.17365C4.22121 4.07215 4.27272 3.91258 4.32423 3.74267C4.33216 3.69915 4.35197 3.65771 4.36782 3.61627ZM4.58181 1.39079C4.56596 1.4944 4.54615 1.598 4.52435 1.70161C4.44708 2.08703 4.34999 2.4683 4.25489 2.84751C4.13997 3.29923 4.02902 3.75511 3.90815 4.20684C3.80314 4.20684 3.70011 4.19439 3.59708 4.18403C3.65058 3.86078 3.69021 3.53339 3.72191 3.20599V3.18527C3.9458 2.44137 4.13601 1.61458 4.50058 0.930775C4.6571 0.653108 4.59172 1.31412 4.58181 1.39079ZM3.03041 3.0485C3.13344 2.27974 3.19288 1.44467 3.44055 0.706987C3.56934 0.321569 3.58718 1.06961 3.58718 1.12141C3.58718 1.2264 3.58718 1.33208 3.58718 1.43845C3.57133 1.80729 3.53962 2.17613 3.50792 2.54497C3.46037 3.0858 3.41678 3.6287 3.35932 4.16953L3.07203 4.1343C3.05419 3.87736 3.0324 3.59555 3.00466 3.30545C3.00862 3.21427 3.01852 3.12932 3.03041 3.0485ZM2.43601 1.62702C2.46375 1.74099 2.48158 1.85702 2.49941 1.97099C2.5648 2.34812 2.61433 2.72732 2.66387 3.10652C2.70548 3.43392 2.74906 3.76132 2.79067 4.08872C2.66783 4.07007 2.543 4.04934 2.42016 4.02655L2.33694 4.00791C2.32307 3.86907 2.30921 3.73024 2.29732 3.59348C2.23193 2.81642 2.10909 1.98135 2.19825 1.20015C2.23788 0.847887 2.43799 1.62701 2.43799 1.62287L2.43601 1.62702ZM1.14021 2.06424C1.11247 1.9627 1.08473 1.85702 1.06294 1.75756C1.04114 1.65809 0.938112 1.02609 1.10653 1.2934C1.5028 1.92747 1.74452 2.70453 2.00606 3.41113C2.01993 3.57897 2.03578 3.74474 2.05163 3.91258C1.92681 3.86078 1.8 3.80898 1.67517 3.7696L1.48695 3.18734C1.36807 2.81228 1.2472 2.43722 1.14219 2.06009L1.14021 2.06424ZM3.074 7.16377C2.75878 7.06915 2.42837 7.04306 2.10314 7.0871C1.95084 7.11533 1.79593 7.12506 1.64149 7.11612C1.3859 7.08089 1.40769 6.60844 1.39184 6.42402C1.37401 6.20437 1.36212 5.98472 1.35023 5.763L1.33835 5.30714C1.33835 5.06263 1.32646 4.81811 1.31655 4.57152C1.31655 4.44305 1.23333 3.97268 1.43543 4.01826C1.70093 4.07628 1.94464 4.22548 2.2141 4.2835C2.56703 4.35844 2.92352 4.41377 3.28205 4.44927C3.69132 4.49552 4.10281 4.51697 4.51445 4.51351C4.78787 4.51351 5.64183 4.30629 5.55069 4.77045C5.43181 5.39209 5.10092 5.99923 4.8592 6.56492C4.73041 6.86538 4.5937 7.15963 4.4451 7.44765C4.20337 7.91596 3.39498 7.26739 3.07599 7.15964L3.074 7.16377Z" fill="#74BF44"/>
</svg>
