<svg width="2" height="2" viewBox="0 0 2 2" fill="none" xmlns="http://www.w3.org/2000/svg">
<path d="M1.39688 0.787631V0.808347C1.38135 0.790076 1.36481 0.772778 1.34734 0.756543C1.32575 0.735623 1.3018 0.717542 1.27602 0.702678L1.23639 0.679875L1.21658 0.669517L1.18685 0.657085L1.14921 0.642578H1.13138C1.13138 0.642578 1.13138 0.642578 1.11751 0.65501L1.07392 0.713036C1.06404 0.725657 1.05478 0.738798 1.04618 0.752408L1.02439 0.795915C1.01074 0.8261 1.00139 0.858219 0.996647 0.891238C0.994575 0.908437 0.994575 0.925841 0.996647 0.943041C0.993631 0.960165 0.993631 0.977721 0.996647 0.994845C1.00386 1.03035 1.01841 1.06378 1.03929 1.09277C1.06017 1.12177 1.08687 1.14563 1.11751 1.16269C1.14852 1.17786 1.18234 1.18572 1.21658 1.18572C1.25082 1.18572 1.28464 1.17786 1.31565 1.16269L1.35924 1.13367C1.3726 1.12288 1.38458 1.11035 1.3949 1.09638C1.40781 1.08262 1.41911 1.06733 1.42858 1.0508C1.43927 1.09131 1.45319 1.13082 1.47019 1.16891C1.51973 1.28702 1.56529 1.3554 1.52765 1.1544C1.51774 1.09431 1.50784 1.02385 1.50189 0.967906C1.49965 0.935485 1.49965 0.902942 1.50189 0.870521C1.50091 0.85396 1.50091 0.83734 1.50189 0.820779V0.787631H1.38697H1.39688ZM1.28592 1.05908C1.26948 1.06833 1.2511 1.07317 1.23243 1.07317C1.21376 1.07317 1.19538 1.06833 1.17893 1.05908C1.16124 1.04995 1.14568 1.03686 1.13335 1.02075C1.12103 1.00463 1.11224 0.985888 1.1076 0.965832C1.1036 0.945322 1.1036 0.92418 1.1076 0.90367V0.870521C1.10982 0.859521 1.11384 0.848999 1.11949 0.839434C1.12779 0.816682 1.13987 0.795641 1.15516 0.777272V0.766914L1.17695 0.777272L1.20865 0.795915C1.22939 0.809745 1.24924 0.824979 1.26809 0.841508C1.303 0.872567 1.3325 0.90972 1.35527 0.951325C1.34232 0.99106 1.31814 1.02575 1.28592 1.0508V1.05908Z" fill="#BF2026"/>
</svg>
