<svg width="2" height="2" viewBox="0 0 2 2" fill="none" xmlns="http://www.w3.org/2000/svg">
<path d="M0.676512 1.51501C0.676512 1.52537 0.676512 1.52537 0.676512 1.53159C0.675212 1.53913 0.675212 1.54685 0.676512 1.55438C0.713525 1.58806 0.752577 1.6192 0.793416 1.64763C0.855346 1.69354 0.921764 1.73244 0.991551 1.76367C1.06487 1.78628 1.14223 1.79054 1.21742 1.7761C1.36623 1.75207 1.50078 1.66987 1.59388 1.5461C1.6379 1.48399 1.67018 1.41366 1.68898 1.33888C1.71031 1.26492 1.72165 1.1882 1.72267 1.11095C1.72482 1.02864 1.70116 0.947861 1.6553 0.880939L1.60973 0.827064L1.57802 0.79598C1.5456 0.770581 1.51186 0.747062 1.47697 0.725528L1.37989 0.669579C1.35343 0.653241 1.32468 0.641355 1.29469 0.634353C1.30856 0.590838 1.29469 0.584622 1.2293 0.673724C1.16392 0.762827 1.09062 0.851929 1.09062 0.851929L1.04702 0.918239L0.765675 1.33267L0.684433 1.45492C0.685927 1.46648 0.689286 1.47769 0.694349 1.48808C0.694349 1.48808 0.676512 1.50465 0.676512 1.51501ZM1.27092 0.706879C1.27092 0.686158 1.28875 0.665436 1.29469 0.650931C1.30641 0.667521 1.32044 0.682189 1.3363 0.694447L1.36008 0.764899C1.40169 0.889228 1.45716 1.00527 1.5067 1.12545L1.52057 1.15653C1.52057 1.15653 1.56416 1.25393 1.5701 1.26429C1.58991 1.3078 1.60973 1.33474 1.59189 1.26429C1.58316 1.22644 1.57259 1.1891 1.5602 1.15239L1.54434 1.11509C1.49481 0.994907 1.44132 0.878867 1.39971 0.758683C1.39971 0.758683 1.39971 0.758684 1.39971 0.746251L1.46707 0.806341C1.46707 0.824991 1.48292 0.847786 1.49283 0.872651L1.53047 0.970042L1.54236 1.00319L1.58991 1.11095C1.60972 1.15446 1.62755 1.18347 1.6117 1.11095C1.6117 1.06536 1.58397 0.999052 1.58397 0.999052L1.56812 0.961752L1.53642 0.876793L1.55425 0.8913L1.56613 0.905803L1.58397 0.924455C1.62467 0.973284 1.64718 1.03581 1.64738 1.10058C1.65034 1.17055 1.64231 1.24055 1.6236 1.3078C1.60654 1.37387 1.5798 1.43678 1.54434 1.49429C1.54434 1.49429 1.54434 1.50465 1.53246 1.5088C1.53246 1.46114 1.51263 1.3969 1.51263 1.3969L1.475 1.2705L1.42547 1.10888C1.39178 1.00112 1.35215 0.901661 1.30856 0.791838L1.27884 0.723457C1.27884 0.723457 1.27092 0.704807 1.27092 0.706879ZM1.21742 0.808412L1.24516 0.756609L1.26299 0.793909C1.30394 0.896135 1.34159 0.999742 1.37593 1.10473L1.42547 1.26221L1.4631 1.38861C1.4631 1.38861 1.50273 1.50465 1.50273 1.50051V1.52123C1.48122 1.54784 1.45659 1.57152 1.42942 1.59168V1.55853C1.42548 1.51954 1.41953 1.48081 1.4116 1.44249L1.39971 1.39897L1.37593 1.32231C1.36008 1.27257 1.34225 1.22284 1.32442 1.17311L1.21346 0.878868C1.20729 0.862614 1.20199 0.84601 1.19761 0.829135L1.21742 0.808412ZM1.12033 0.974184L1.15798 0.914094L1.17582 0.880939V0.897516L1.28479 1.18554C1.30262 1.2332 1.31847 1.28086 1.33432 1.33059L1.3581 1.40312L1.37197 1.44871L1.40763 1.5606C1.41097 1.57418 1.41562 1.58737 1.4215 1.59997C1.39755 1.61715 1.37238 1.63239 1.34621 1.64556C1.34621 1.60619 1.32442 1.56682 1.32442 1.56682L1.23525 1.32438C1.20355 1.23527 1.16987 1.14617 1.14015 1.05707L1.11835 0.988691L1.12033 0.974184ZM1.08864 1.0177L1.10646 1.07158C1.13618 1.16068 1.16789 1.24771 1.20157 1.33681L1.28875 1.57718L1.32442 1.66006C1.29236 1.67354 1.2592 1.68394 1.22535 1.69115C1.22535 1.65178 1.21148 1.6124 1.21148 1.6124L1.07278 1.13167L1.05494 1.06743L1.08864 1.0177ZM1.02523 1.11509V1.14617L1.15996 1.61862L1.1877 1.69736H1.11241C1.11241 1.69736 1.11241 1.67664 1.11241 1.66006C1.11241 1.64349 1.08665 1.54817 1.08665 1.54817L1.07476 1.5088L0.975697 1.19798C0.976556 1.19388 0.976556 1.18964 0.975697 1.18554L1.02523 1.11509ZM0.943989 1.2332L1.03712 1.52745L1.04702 1.5606C1.04702 1.5606 1.09259 1.67664 1.09259 1.67042C1.09518 1.68102 1.09991 1.69091 1.10646 1.69943C1.08089 1.69951 1.05547 1.69532 1.03117 1.687C1.03254 1.67877 1.03254 1.67036 1.03117 1.66214C1.03117 1.61448 1.00146 1.55024 1.00146 1.55024L0.989568 1.51294C0.962751 1.44165 0.941545 1.36819 0.926163 1.2933C0.926163 1.2933 0.926163 1.28086 0.926163 1.27464L0.943989 1.2332ZM0.882567 1.32438C0.898984 1.39469 0.919496 1.46389 0.943989 1.53159L0.955876 1.56475L1.00344 1.6725V1.68286L0.926163 1.63934C0.926916 1.63246 0.926916 1.6255 0.926163 1.61862C0.926163 1.57096 0.896438 1.5088 0.896438 1.5088L0.882567 1.46943C0.882567 1.44456 0.866719 1.41762 0.860775 1.39069C0.854831 1.36375 0.860775 1.37204 0.860775 1.36375L0.882567 1.32438ZM0.825113 1.40934C0.830531 1.43317 0.83714 1.45668 0.844921 1.47979L0.856809 1.51501C0.856809 1.51501 0.8905 1.59168 0.902388 1.61447L0.854838 1.58132C0.854838 1.56267 0.854838 1.54402 0.854838 1.54402C0.854838 1.54402 0.840969 1.5088 0.831062 1.47564V1.44042L0.825113 1.40934ZM0.775579 1.486C0.780501 1.50229 0.786464 1.51821 0.793416 1.53366L0.761708 1.5088L0.775579 1.486Z" fill="#292973"/>
</svg>
