<svg width="1" height="1" viewBox="0 0 1 1" fill="none" xmlns="http://www.w3.org/2000/svg">
<path d="M0.404566 0.4717H0.392678C0.37918 0.457735 0.363831 0.445863 0.347105 0.436465C0.326891 0.428751 0.304924 0.427593 0.284069 0.433138C0.263215 0.438683 0.244443 0.450678 0.230206 0.467552L0.214358 0.486207V0.564936C0.213378 0.575272 0.213378 0.585688 0.214358 0.596024V0.614678C0.213441 0.623632 0.213441 0.632664 0.214358 0.641617C0.222638 0.657798 0.233341 0.672481 0.24606 0.685124L0.269836 0.703779L0.303521 0.732792L0.343144 0.774225H0.357015C0.382717 0.757479 0.404408 0.734794 0.42042 0.707915C0.428583 0.687591 0.43263 0.66572 0.432308 0.643679C0.432308 0.629174 0.432308 0.627111 0.432308 0.627111C0.430093 0.612813 0.426097 0.598877 0.42042 0.585665C0.42042 0.585665 0.420417 0.585665 0.404566 0.585665C0.39739 0.588809 0.390987 0.593616 0.385839 0.599717C0.380692 0.605818 0.376936 0.613051 0.374847 0.620888C0.374847 0.620888 0.374847 0.633323 0.374847 0.635395H0.364942L0.345128 0.618814V0.581517C0.353158 0.591184 0.362501 0.599561 0.372863 0.606382C0.379489 0.604641 0.385635 0.601297 0.390798 0.596618C0.39596 0.591939 0.4 0.586055 0.402589 0.579443C0.404262 0.569852 0.404262 0.560033 0.402589 0.550443C0.402589 0.531793 0.402588 0.517277 0.414476 0.513133L0.404566 0.4717Z" fill="black"/>
</svg>
