<svg width="4" height="4" viewBox="0 0 4 4" fill="none" xmlns="http://www.w3.org/2000/svg">
<path d="M1.43337 0.981021C1.42148 0.981021 1.42148 0.981023 1.41751 0.995528C1.34024 1.15094 1.26892 1.30842 1.19957 1.46798C1.13022 1.62753 1.04502 1.84303 0.973693 2.0316L0.854817 2.35071L0.8033 2.49161L0.789429 2.52684V2.54549H0.805283L0.868687 2.57865L1.08069 2.68432C1.25307 2.77342 1.42544 2.86253 1.60574 2.94749C1.6974 2.99219 1.79133 3.03162 1.8871 3.06559C1.99264 3.10542 2.10381 3.12643 2.216 3.12776C2.34621 3.12785 2.47261 3.08183 2.57462 2.99722C2.66208 2.91908 2.73526 2.825 2.7906 2.71955C2.88824 2.53398 2.96852 2.33899 3.03033 2.13728C3.06203 2.03989 3.09176 1.9425 3.12148 1.84511L3.18884 1.60681L3.20866 1.54258C3.20866 1.54258 3.20866 1.54257 3.20866 1.53014H3.1928L3.16111 1.51356L3.03232 1.44311L2.90551 1.3768L2.84013 1.34365L2.70737 1.27941C2.70737 1.27941 2.50924 1.1986 2.3111 1.13436C2.18708 1.09185 2.0607 1.05725 1.93267 1.03076C1.83882 1.00948 1.74333 0.996989 1.64736 0.993454C1.62014 0.962852 1.58266 0.944462 1.54276 0.942144C1.50286 0.939825 1.46365 0.95376 1.43337 0.981021ZM1.85539 1.18824C1.99805 1.26076 2.17043 1.34365 2.30516 1.41617L2.53698 1.5405L2.66577 1.60266L2.72918 1.63374L2.80644 1.67519L2.85004 1.69799V1.71456L2.81636 1.8306L2.77078 1.97358C2.71524 2.16031 2.64499 2.34189 2.56075 2.51648C2.52312 2.59298 2.47432 2.66289 2.41612 2.72369C2.37016 2.77256 2.30904 2.80269 2.24374 2.80865C2.07281 2.79908 1.90587 2.75102 1.75434 2.66775C1.58197 2.58693 1.40762 2.49576 1.23128 2.40666L1.16589 2.3735L1.25307 2.13935C1.32638 1.95078 1.39969 1.76429 1.47895 1.57987C1.5582 1.39545 1.61566 1.27112 1.68897 1.12193C1.69099 1.11307 1.69099 1.10385 1.68897 1.09499C1.72067 1.12815 1.7801 1.15716 1.85539 1.19238V1.18824Z" fill="#48739B"/>
</svg>
