<svg width="6" height="3" viewBox="0 0 6 3" fill="none" xmlns="http://www.w3.org/2000/svg">
<path d="M4.43526 1.52575C4.10062 1.65897 3.74984 1.74267 3.39307 1.77441C3.03668 1.80354 2.67818 1.78264 2.3271 1.71225L2.06556 1.64801C1.97838 1.62522 1.89517 1.58999 1.80997 1.56305L1.74657 1.54026H1.71883H1.70694L1.6574 1.51746L1.55834 1.47395L1.46521 1.43872C1.40974 1.42007 1.34039 1.38484 1.26708 1.35169L1.06894 1.26051L0.993658 1.21908C0.919973 1.17381 0.839632 1.1416 0.755894 1.12376C0.722211 1.06781 0.68853 1.01186 0.65881 0.95591L0.646922 0.935193H0.874776C0.975824 0.935193 1.07291 0.93519 1.17594 0.957984C1.29157 0.970265 1.40497 0.999567 1.51277 1.04502H1.5306C1.59599 1.02222 1.63561 0.993213 1.6475 0.953842C1.65211 0.934207 1.65236 0.913728 1.64824 0.893976C1.64412 0.874223 1.63573 0.855715 1.62372 0.83987C1.62372 0.83987 1.62372 0.82951 1.60985 0.827438C1.48318 0.772494 1.34981 0.736232 1.21358 0.719689C1.10461 0.705184 0.997615 0.698969 0.888641 0.694824H0.644939H0.490394L0.335849 0.705182H0.29622H0.282349V0.723831L0.318017 0.796357L0.389343 0.939335L0.426989 1.01186L0.442837 1.04294L0.454731 1.06159C0.508227 1.15898 0.5637 1.2543 0.623141 1.34755C0.656824 1.40142 0.692488 1.4553 0.728152 1.5071C0.728152 1.5071 0.831182 1.64179 0.926287 1.76819C1.02139 1.89459 1.13433 2.01685 1.12442 2.00442C1.30472 2.20127 1.44738 2.30488 1.23142 1.92982C1.16999 1.81585 1.09074 1.68323 1.03328 1.57755L0.926287 1.39521L0.825242 1.2398L0.906478 1.31439L0.983747 1.3807C1.0095 1.4035 1.03923 1.42214 1.06697 1.44286L1.2334 1.5589C1.27548 1.5878 1.31915 1.61409 1.36417 1.63765L1.41766 1.66666L1.52466 1.71431L1.57815 1.73918L1.60391 1.75162H1.61778L1.64948 1.76405L1.9229 1.85937C2.01603 1.8863 2.11114 1.90703 2.20426 1.93189C2.5819 2.01432 2.96856 2.04221 3.35344 2.01478L3.64074 1.98162L3.92407 1.92568C3.97168 1.91736 4.01869 1.90558 4.06475 1.89045L4.20542 1.84901C4.25099 1.8345 4.29854 1.82414 4.34213 1.80756L4.47885 1.75369C4.84124 1.6169 5.18391 1.42864 5.49726 1.19421L5.57849 1.13826C5.60623 1.11754 5.63001 1.09474 5.65577 1.07402L5.81031 0.945552C5.81395 0.939538 5.81726 0.933312 5.82022 0.926903C5.85192 0.767348 5.737 0.748695 5.67756 0.754912C5.6754 0.753812 5.67303 0.753242 5.67063 0.753242C5.66822 0.753242 5.66585 0.753812 5.66369 0.754912L5.51707 0.875099L5.44376 0.937261L5.36451 0.991139C5.07817 1.21061 4.76581 1.39031 4.43526 1.52575Z" fill="#7A51A0"/>
</svg>
