<svg width="2" height="1" viewBox="0 0 2 1" fill="none" xmlns="http://www.w3.org/2000/svg">
<path d="M0.939961 0.287051C0.939961 0.260113 0.939961 0.235247 0.939961 0.208309C0.939961 0.208309 0.939961 0.195873 0.939961 0.191728C0.925474 0.159807 0.904491 0.13159 0.87848 0.10904C0.852468 0.0864899 0.822056 0.0701513 0.789377 0.0611823C0.725113 0.0470253 0.658125 0.0580937 0.601159 0.0922695C0.498573 0.152553 0.420407 0.249755 0.38122 0.365794C0.375664 0.381791 0.37233 0.398536 0.371315 0.415523C0.370338 0.431393 0.370338 0.447308 0.371315 0.463178C0.367439 0.494822 0.367439 0.526858 0.371315 0.558501C0.376201 0.595917 0.38959 0.631563 0.410364 0.66245C0.431139 0.693336 0.458692 0.718565 0.490711 0.736019C0.522731 0.753473 0.558291 0.762636 0.594398 0.762756C0.630506 0.762876 0.666118 0.753943 0.698243 0.736702H0.720035H0.731922C0.748255 0.7283 0.763552 0.717871 0.777489 0.705628C0.799701 0.686443 0.81849 0.663287 0.832973 0.637244C0.847297 0.671792 0.867427 0.703376 0.892411 0.730492C0.91179 0.760083 0.936712 0.785247 0.965659 0.804479C0.994607 0.823712 1.02697 0.83661 1.06082 0.842384C1.06082 0.842384 1.06082 0.82788 1.05092 0.805087C1.02008 0.767211 0.992876 0.726257 0.969686 0.682825C0.933447 0.603097 0.913851 0.516216 0.91222 0.427955C0.92807 0.363719 0.935999 0.32435 0.939961 0.287051ZM0.771552 0.316064C0.762849 0.388367 0.742059 0.458506 0.71013 0.523278C0.702267 0.537347 0.692219 0.54995 0.680405 0.560575H0.666534H0.654647C0.643341 0.565477 0.631223 0.567999 0.618984 0.567999C0.606745 0.567999 0.594627 0.565477 0.583321 0.560575C0.573543 0.553406 0.565315 0.544169 0.559171 0.533459C0.553027 0.52275 0.549105 0.510811 0.547658 0.498414C0.545622 0.480518 0.545622 0.462431 0.547658 0.444536V0.417597V0.394807C0.573888 0.320985 0.62355 0.258805 0.688338 0.218667C0.710928 0.204414 0.737452 0.198569 0.763618 0.202086L0.785423 0.214519C0.781872 0.248228 0.780544 0.282164 0.781456 0.316064H0.771552Z" fill="#D62027"/>
</svg>
