<svg width="7" height="10" viewBox="0 0 7 10" fill="none" xmlns="http://www.w3.org/2000/svg">
<path d="M5.70412 7.74903C5.5128 8.21358 5.17119 8.59286 4.73921 8.82033C4.55283 8.91238 4.35073 8.96452 4.1448 8.97366C4.35699 8.90808 4.55371 8.79676 4.72228 8.64687C4.89086 8.49698 5.02756 8.31184 5.12359 8.10336C5.56939 7.21649 5.33757 6.16177 5.22265 5.22309C5.15518 4.68429 4.94981 4.17456 4.62825 3.74772C4.24387 3.14266 3.68117 2.71166 2.9124 2.81112C2.61668 2.84792 2.3461 3.00315 2.15751 3.24419C2.33027 2.76404 2.63497 2.34804 3.03327 2.04857V2.03613C2.21101 2.12523 1.89201 3.1696 1.77313 3.88656C1.75926 3.96737 1.74936 4.05025 1.73945 4.13314C1.70224 4.28423 1.67574 4.43798 1.66019 4.59315C1.57268 5.44985 1.64878 6.31621 1.88408 7.14189C1.94961 7.42146 2.05092 7.6905 2.18525 7.94173C2.29345 8.17696 2.44416 8.38806 2.62907 8.56338C2.82931 8.77579 3.06766 8.9448 3.33047 9.0607C4.28746 9.47512 5.55156 8.89492 5.70809 7.76146C5.71601 7.74695 5.70808 7.74074 5.70412 7.74903ZM4.91158 7.3864C4.81053 7.95417 4.48757 8.47428 3.92091 8.61104C3.83343 8.63321 3.74307 8.64021 3.65342 8.63176C3.81777 8.5515 3.96891 8.44449 4.10121 8.31472C4.59259 7.80912 4.61438 7.0217 4.58664 6.34826C4.56743 5.64857 4.4138 4.96008 4.1349 4.32378C3.95994 3.93182 3.71285 3.57976 3.40774 3.28771C4.23 3.51357 4.63023 4.53099 4.82242 5.35985C4.97082 6.02386 5.00237 6.71057 4.91555 7.3864H4.91158ZM3.19177 3.24212C3.27278 3.31018 3.35017 3.38281 3.42359 3.45969C3.61751 3.67887 3.78153 3.92502 3.911 4.19116C4.175 4.74045 4.33894 5.33632 4.39445 5.94834C4.48228 6.52242 4.44778 7.1097 4.2934 7.66822C4.17166 7.99975 3.9442 8.27716 3.64946 8.45355C3.56731 8.50575 3.47661 8.54158 3.38198 8.55924C3.00754 8.37304 2.70444 8.0597 2.52208 7.67028C2.05448 6.75025 1.46602 3.08671 3.19573 3.24834L3.19177 3.24212Z" fill="black" stroke="#5EBC6D" stroke-width="0.973512" stroke-miterlimit="10"/>
</svg>
