<svg width="6" height="7" viewBox="0 0 6 7" fill="none" xmlns="http://www.w3.org/2000/svg">
<path d="M4.1205 6.17504C4.41968 5.5534 4.78028 4.84266 4.91303 4.15263C4.94077 4.00551 4.90115 3.78379 4.73868 3.7382C4.71688 3.7382 4.6931 3.72577 4.6713 3.71956C5.29741 2.82439 5.98295 1.69093 5.63225 1.49408C5.40043 1.36353 5.15674 1.68679 5.02399 1.8422C4.89124 1.99761 4.79613 2.12401 4.68517 2.26906C4.86746 1.67642 4.93284 1.19569 4.70498 1.12938C4.47713 1.06307 4.279 1.42155 4.18192 1.6039C4.12248 1.71372 4.06897 1.82355 4.01548 1.93544C4.15219 1.262 4.1839 0.70459 3.93227 0.663147C3.68063 0.621704 3.536 1.00712 3.46467 1.19983C3.39334 1.39254 3.3121 1.61426 3.24473 1.82147C3.2804 1.42362 3.37155 0.356471 2.96735 0.443501C2.71572 0.497376 2.6642 0.845496 2.61466 1.06514C2.53937 1.4029 2.48984 1.74895 2.44229 2.10121C2.32143 1.38011 2.13716 0.806123 1.86176 0.874503C1.61805 0.934595 1.64578 1.38011 1.64777 1.56867C1.64777 1.79868 1.66164 2.03076 1.67551 2.26284C1.57248 1.99553 1.46549 1.72823 1.34264 1.47128C1.25348 1.28272 1.09893 0.90559 0.841356 0.969826C0.462919 1.061 0.819566 2.29185 1.19206 3.31342C0.827491 3.33414 0.926565 3.89569 0.938453 4.163C0.938453 4.2521 0.93845 4.34327 0.948357 4.43237C0.946347 4.9554 0.983444 5.47779 1.05931 5.99477C1.07622 6.09887 1.12792 6.19331 1.20522 6.26124C1.28251 6.32918 1.38038 6.36619 1.48134 6.36568C1.92912 6.36568 2.31746 6.28072 2.75336 6.46307C3.01094 6.57082 3.2903 6.8775 3.59345 6.78425C3.8966 6.69101 3.99171 6.45271 4.1205 6.17504ZM5.40639 1.77589C5.60452 1.59975 5.37469 2.09914 5.34497 2.15716C5.31525 2.21518 5.26373 2.3105 5.22014 2.3851C5.05965 2.66483 4.88529 2.93629 4.71093 3.21395L4.40581 3.69262C4.32061 3.69262 4.23342 3.69262 4.14624 3.69262C4.23937 3.4854 4.33448 3.24711 4.42364 3.0171C4.70749 2.56753 5.03699 2.15137 5.40639 1.77589ZM3.69053 3.22638C3.94415 2.6379 4.17794 1.9831 4.54251 1.45263C4.69111 1.24542 4.5762 1.77382 4.56035 1.83805C4.5445 1.90229 4.51081 2.0059 4.48506 2.08878C4.38401 2.39753 4.26909 2.71042 4.15418 3.0026C4.067 3.23675 3.97981 3.47297 3.88867 3.7092C3.7774 3.72073 3.66564 3.72626 3.55382 3.72577H3.52411C3.56374 3.60352 3.60534 3.4709 3.64893 3.32999L3.69053 3.22638ZM3.86886 1.38425C3.85499 1.47128 3.83914 1.55624 3.82131 1.64327C3.75593 1.96238 3.67667 2.27734 3.59742 2.59231C3.50429 2.96737 3.41117 3.34242 3.31012 3.71748L3.05453 3.69883C3.09812 3.43153 3.12981 3.16008 3.15755 2.88862V2.86998C3.34182 2.24833 3.49834 1.57074 3.80149 1.00505C3.93226 0.777114 3.87877 1.32416 3.86886 1.3884V1.38425ZM2.58297 2.75394C2.67015 2.11572 2.71968 1.42363 2.92375 0.814416C3.03075 0.495306 3.04461 1.11487 3.04461 1.15424C3.04461 1.24127 3.04461 1.32831 3.04461 1.41534C3.03074 1.72201 3.005 2.03698 2.97924 2.33329C2.93961 2.78087 2.90395 3.23053 2.8564 3.67811L2.61863 3.6491C2.60476 3.44189 2.58494 3.20152 2.56116 2.96323C2.56711 2.89899 2.57504 2.82854 2.58297 2.75809V2.75394ZM2.09357 1.57696C2.11536 1.67021 2.13122 1.76553 2.14707 1.86084C2.20057 2.17374 2.24217 2.48249 2.2818 2.8016C2.31746 3.07098 2.35313 3.34243 2.38682 3.61595L2.08168 3.56414L2.01234 3.54757C2.00045 3.4336 1.98857 3.31756 1.97866 3.20359C1.92516 2.55916 1.82411 1.86706 1.89543 1.22055C1.92317 0.938742 2.09357 1.58525 2.09357 1.5811V1.57696ZM1.02167 1.93751C0.99789 1.85463 0.976091 1.76967 0.956278 1.68471C0.936465 1.59975 0.853246 1.07758 0.991941 1.2993C1.32084 1.82562 1.52096 2.46798 1.73891 3.0544C1.7508 3.19116 1.76269 3.32999 1.77656 3.46883C1.67155 3.42739 1.57842 3.3818 1.4635 3.35071L1.30896 2.86998C1.20791 2.56537 1.10686 2.25455 1.02167 1.94166V1.93751ZM2.6226 6.16261C2.36151 6.08378 2.08783 6.06122 1.81816 6.0963C1.69217 6.12113 1.56372 6.12948 1.43576 6.12117C1.22376 6.09216 1.23763 5.70674 1.23763 5.54926C1.23763 5.39178 1.21187 5.18456 1.20196 5.00221C1.20196 4.87581 1.20197 4.74941 1.19206 4.62301C1.19206 4.4158 1.19205 4.21894 1.17422 4.01587C1.17422 3.90812 1.10487 3.51856 1.27329 3.55585C1.49322 3.60351 1.69532 3.72577 1.91723 3.7755C2.20987 3.83826 2.50552 3.88461 2.8029 3.91434C3.1419 3.95088 3.4825 3.96887 3.82329 3.96821C4.04917 3.96821 4.7565 3.79208 4.68121 4.17543C4.58214 4.68103 4.30872 5.19285 4.10861 5.66115C4.0036 5.90981 3.88867 6.15225 3.76583 6.39055C3.5558 6.79047 2.88612 6.24549 2.6226 6.16675V6.16261Z" fill="#F2C05C"/>
</svg>
