<svg width="2" height="1" viewBox="0 0 2 1" fill="none" xmlns="http://www.w3.org/2000/svg">
<path d="M0.900304 0.514744C0.900304 0.514744 1.14005 0.483665 1.13015 0.479521C1.22525 0.456727 1.28667 0.415283 1.13015 0.37384C1.05789 0.353038 0.984432 0.33711 0.910221 0.326172H0.513951H0.238541H0.147395H0.111732C0.106454 0.335193 0.102451 0.344967 0.0998442 0.355185C0.0998442 0.355185 0.0998442 0.373835 0.0998442 0.382124C0.0921928 0.397252 0.0862171 0.413237 0.0820188 0.429779C0.0800823 0.437242 0.0800823 0.445119 0.0820188 0.452582V0.473298L0.0978609 0.502311C0.0978609 0.502311 0.307883 0.502311 0.506018 0.502311L0.900304 0.514744Z" fill="#ECE721"/>
</svg>
