<svg width="9" height="8" viewBox="0 0 9 8" fill="none" xmlns="http://www.w3.org/2000/svg">
<path d="M0.0993802 2.01996C0.0458838 2.24997 0.158823 2.42196 0.249965 2.6271C0.402528 2.97315 0.56301 3.31919 0.725481 3.66317C0.722977 3.67499 0.724354 3.68734 0.729387 3.69825C0.734419 3.70915 0.742816 3.71796 0.753223 3.72326C0.816626 3.85588 0.878047 3.99057 0.951357 4.12318C1.22478 4.6951 1.50614 5.26287 1.78353 5.83063C1.92618 6.12073 2.06686 6.41083 2.20555 6.70093C2.28877 6.87499 2.38784 7.11536 2.58994 7.1568C2.81041 7.20143 3.03857 7.17692 3.24576 7.08635C3.52909 6.93716 3.6559 6.53102 3.77676 6.25749C3.78066 6.24873 3.78267 6.23918 3.78267 6.22952C3.78267 6.21985 3.78066 6.2103 3.77676 6.20154C3.78697 6.20064 3.79676 6.1969 3.80512 6.1907C3.81348 6.18451 3.82011 6.17609 3.82431 6.16632C4.12548 5.58405 4.40683 4.97898 4.67233 4.37184C4.98935 5.03493 5.35985 5.67522 5.7264 6.31344C5.72972 6.32353 5.73514 6.33273 5.74225 6.34038C5.82745 6.48957 5.91463 6.64084 5.99784 6.79003C5.99821 6.80087 6.00112 6.81145 6.0063 6.82084C6.01148 6.83023 6.01878 6.83815 6.02757 6.84391C6.02752 6.85531 6.03156 6.86632 6.0389 6.87476C6.04624 6.8832 6.05634 6.88846 6.0672 6.88949C6.32504 6.91992 6.58442 6.93376 6.84388 6.93094H6.85974C6.86995 6.93198 6.88025 6.93023 6.88962 6.92587C6.89899 6.92151 6.90713 6.9147 6.91324 6.90608C7.00438 6.77346 7.08164 6.63048 7.16288 6.49165C7.23227 6.38077 7.2945 6.26516 7.34912 6.1456C7.35876 6.14192 7.36741 6.13585 7.37431 6.12791C7.38122 6.11997 7.38617 6.11039 7.38875 6.10001C7.92174 4.4423 8.40123 2.74936 8.93223 1.08336C8.93549 1.06988 8.93581 1.0558 8.9332 1.04217C8.93058 1.02853 8.92509 1.01568 8.91712 1.00455C8.90914 0.99343 8.89888 0.984309 8.8871 0.977866C8.87532 0.971423 8.86229 0.967818 8.84901 0.967315C8.38141 0.927944 7.91382 0.892719 7.44424 0.88443C7.42774 0.877293 7.40921 0.877293 7.39272 0.88443H7.36895C7.35353 0.885497 7.33912 0.892799 7.32876 0.90479C7.3184 0.916781 7.31291 0.932518 7.31346 0.948666C7.09042 1.17453 6.90138 1.43443 6.75275 1.7195C6.64603 1.99429 6.55862 2.27685 6.49121 2.56494C6.46941 2.63953 6.44365 2.71413 6.41987 2.7908C6.22174 2.16916 6.0236 1.54751 5.82547 0.925873C5.81967 0.906895 5.80834 0.890294 5.79306 0.878401C5.77778 0.866507 5.75932 0.859921 5.74027 0.859566C5.29843 0.847133 4.85659 0.838843 4.41673 0.822266C4.39684 0.82245 4.37756 0.829436 4.36182 0.842157C4.34608 0.854877 4.33474 0.872634 4.32955 0.892718C4.32955 0.925872 4.31569 0.959028 4.30974 0.992183C4.20671 1.10822 4.11161 1.23462 4.01254 1.35273C3.77291 1.62382 3.59002 1.94424 3.47559 2.29349C3.42011 2.46755 3.37653 2.64368 3.33492 2.81981C3.31511 2.9027 3.19028 3.21973 3.22 3.28397C3.14867 3.12856 3.07536 2.97315 3.00601 2.81981C2.79203 2.34322 2.5939 1.85005 2.35614 1.38589C2.11838 0.921729 1.72805 0.898936 1.2664 0.946595C1.06826 0.967317 0.854277 0.878212 0.671993 1.00254C0.519624 1.13633 0.406326 1.31226 0.345065 1.51022C0.246978 1.67105 0.164667 1.84183 0.0993802 2.01996ZM0.297515 2.38466C0.285529 2.35082 0.275598 2.31621 0.26779 2.28105L0.719543 1.52058V1.504C0.735394 1.54752 0.751245 1.58896 0.769077 1.6304C0.609248 1.87768 0.449411 2.1291 0.289582 2.38466H0.297515ZM0.345065 2.5007L0.822565 1.74851C0.84436 1.80032 0.864177 1.85419 0.887953 1.90599C0.881802 1.90968 0.876411 1.91462 0.872099 1.9205L0.384695 2.57944C0.356956 2.55457 0.356958 2.52764 0.337144 2.5007H0.345065ZM0.446116 2.70792V2.68719L0.943436 2.01375L1.01675 2.18159C1.00953 2.18151 1.00238 2.18314 0.99586 2.18637C0.989338 2.1896 0.983609 2.19435 0.979099 2.20024L0.507537 2.82188C0.473854 2.77629 0.456015 2.74107 0.438183 2.70377L0.446116 2.70792ZM0.547167 2.91513L1.0425 2.26862C1.06628 2.32042 1.08807 2.37016 1.10986 2.42196L0.614526 3.06432C0.586787 3.01252 0.555084 2.96486 0.539234 2.9172L0.547167 2.91513ZM0.666043 3.16171L1.16138 2.52142C1.18516 2.5753 1.21091 2.62917 1.23667 2.68512C1.06429 2.89233 0.893893 3.08297 0.723497 3.28397C0.69774 3.2446 0.677935 3.20523 0.658122 3.16378L0.666043 3.16171ZM0.842386 3.53263L0.773031 3.3855L1.28224 2.78873L1.36744 2.97107L0.842386 3.53263ZM0.887953 3.63416C1.06429 3.44767 1.23866 3.25911 1.41301 3.07261C1.45066 3.15343 1.48632 3.23424 1.52199 3.31505C1.51495 3.31124 1.50713 3.30925 1.4992 3.30925C1.49127 3.30925 1.48346 3.31124 1.47642 3.31505L0.971166 3.80201L0.887953 3.63416ZM1.01675 3.91183L1.54774 3.40001C1.54858 3.39661 1.54858 3.39305 1.54774 3.38965C1.57548 3.44767 1.60124 3.50776 1.62897 3.56578C1.61962 3.55732 1.60766 3.55267 1.5953 3.55267C1.58293 3.55267 1.57097 3.55732 1.56162 3.56578L1.0742 4.04859L1.01675 3.91183ZM1.1277 4.1522L1.64285 3.64245C1.64985 3.63345 1.65461 3.62276 1.65672 3.61137L1.73399 3.7875L1.71022 3.79993L1.19903 4.30761L1.1277 4.1522ZM1.24459 4.40707C1.42291 4.23301 1.59925 4.05688 1.77559 3.88075C1.79144 3.92012 1.80928 3.95741 1.82513 3.99471L1.30998 4.54798L1.24459 4.40707ZM1.35753 4.64951L1.87071 4.09625L1.94203 4.25788L1.42094 4.78835C1.39122 4.74483 1.36942 4.6951 1.34763 4.65158L1.35753 4.64951ZM1.4665 4.88988L1.98561 4.35941C2.00741 4.405 2.02723 4.45059 2.04705 4.49617C2.03677 4.49845 2.02721 4.50344 2.01931 4.51067L1.54378 5.05772L1.4665 4.88988ZM1.59133 5.15926C1.75776 4.97069 1.92222 4.78005 2.08865 4.58942C2.11243 4.64744 2.13818 4.70339 2.16196 4.75933L1.66068 5.28566C1.62502 5.25043 1.60322 5.20692 1.58341 5.16133L1.59133 5.15926ZM1.70031 5.39341L2.20754 4.8588L2.27093 5.00592C2.26056 5.00648 2.25074 5.01088 2.2432 5.01835L1.7439 5.52395C1.73003 5.47837 1.71021 5.43693 1.69238 5.39548L1.70031 5.39341ZM1.80333 5.61513L2.31254 5.09709L2.41359 5.3271C2.40433 5.31761 2.39189 5.31229 2.37892 5.31229C2.36596 5.31229 2.35351 5.31761 2.34425 5.3271L1.87863 5.77261C1.84494 5.73117 1.81919 5.67108 1.79541 5.6172L1.80333 5.61513ZM1.92419 5.87207L2.41558 5.39962C2.42062 5.39588 2.4247 5.39091 2.42746 5.38512C2.43023 5.37934 2.43158 5.37293 2.43142 5.36647L2.51464 5.55504C2.50681 5.55031 2.49793 5.54782 2.48888 5.54782C2.47984 5.54782 2.47096 5.55031 2.46313 5.55504L1.9876 5.99226L1.92419 5.87207ZM2.03515 6.10208L2.53445 5.63999C2.53555 5.63523 2.53555 5.63025 2.53445 5.62549C2.55427 5.66693 2.57211 5.71044 2.59192 5.75396L2.09855 6.23677L2.03515 6.10208ZM2.15007 6.3383L2.64541 5.85135C2.66126 5.88865 2.67711 5.92595 2.69494 5.96325C2.68709 5.96164 2.67899 5.96212 2.67137 5.96466C2.66375 5.96719 2.65687 5.9717 2.65136 5.97775L2.21149 6.46471C2.18375 6.42326 2.16196 6.38182 2.14017 6.34038L2.15007 6.3383ZM2.26103 6.56417L2.72467 6.05235C2.72467 6.05235 2.72467 6.05235 2.72467 6.04199L2.77618 6.15803L2.3383 6.71336C2.30264 6.66363 2.27886 6.6139 2.2531 6.56002L2.26103 6.56417ZM2.63154 6.58282C2.56417 6.69057 2.49482 6.79003 2.4334 6.90814C2.41557 6.87292 2.39972 6.83769 2.38188 6.80454C2.39143 6.80212 2.39987 6.79625 2.40567 6.78796L2.82967 6.25956C2.75529 6.36394 2.6865 6.47255 2.62362 6.58489L2.63154 6.58282ZM2.66126 6.99724L2.53644 6.97445C2.59984 6.87913 2.66126 6.78174 2.72268 6.68435C2.81142 6.56121 2.88965 6.43016 2.95648 6.29272H3.15461L2.66126 6.99724ZM3.28935 6.89157C3.22878 6.9489 3.15506 6.98888 3.07536 7.00761L3.50333 6.38597C3.54098 6.33002 3.4538 6.27821 3.41615 6.33209L2.96243 6.99932C2.95813 7.01063 2.95813 7.02324 2.96243 7.03455C2.9015 7.03621 2.84053 7.03274 2.78014 7.02418L3.26954 6.33624C3.2721 6.32817 3.2721 6.31944 3.26954 6.31137C3.3888 6.31326 3.50802 6.30564 3.62618 6.28857C3.5475 6.50932 3.43064 6.71302 3.28142 6.88949L3.28935 6.89157ZM4.99727 3.69426C4.94575 3.7875 4.89424 3.88074 4.84471 3.97399C4.89424 3.85588 4.94576 3.73777 4.99331 3.61966C4.99331 3.63831 5.01113 3.65696 5.02104 3.67353C5.01482 3.6742 5.00879 3.6762 5.00334 3.67941C4.99788 3.68262 4.99312 3.68696 4.98934 3.69218L4.99727 3.69426ZM4.81895 4.3822C4.8031 4.35941 4.78923 4.33454 4.77536 4.31175L5.07057 3.77507L5.132 3.8994L4.81895 4.3822ZM4.94773 4.58942L4.87641 4.47545L5.1855 4.003L5.26674 4.1667C5.25659 4.16349 5.24572 4.16377 5.23573 4.1675C5.22574 4.17123 5.21716 4.17821 5.21125 4.18742L4.94773 4.58942ZM4.99727 4.67231C5.00409 4.67117 5.01062 4.66856 5.01642 4.66463C5.02222 4.6607 5.02717 4.65556 5.03096 4.64951L5.29843 4.23508L5.36976 4.37599C5.36222 4.37818 5.35582 4.38339 5.35193 4.39049C5.25287 4.51689 5.15379 4.64537 5.0567 4.77384C5.03095 4.74276 5.00916 4.7096 4.98934 4.67438L4.99727 4.67231ZM5.1954 5.00384L5.11814 4.86916L5.42326 4.47131L5.50647 4.63708C5.49519 4.63105 5.48222 4.6294 5.46988 4.63244C5.45754 4.63547 5.44665 4.64299 5.43911 4.65365L5.1954 5.00384ZM5.25088 5.10331L5.52827 4.70546V4.69096L5.59762 4.82979C5.59194 4.8297 5.58632 4.83097 5.58117 4.83348C5.57603 4.83599 5.57148 4.83969 5.56789 4.84429L5.29051 5.18412C5.26872 5.15925 5.25287 5.13232 5.239 5.10953L5.25088 5.10331ZM5.34995 5.28151L5.64517 4.91889L5.70064 5.02457L5.40939 5.39133L5.34995 5.28151ZM5.54809 5.64414L5.81556 5.3126C5.85717 5.26287 5.78585 5.18827 5.74424 5.24007L5.49459 5.54468L5.46487 5.48872L5.75414 5.12196C5.8116 5.23178 5.86708 5.33954 5.92652 5.44936C5.91806 5.44574 5.90873 5.44499 5.89984 5.44722C5.89095 5.44945 5.88295 5.45455 5.87698 5.46179L5.61743 5.77261C5.58176 5.73117 5.55997 5.68972 5.5362 5.64621L5.54809 5.64414ZM5.66895 5.87207L5.94831 5.53639C5.95413 5.53002 5.95825 5.52216 5.96021 5.5136L6.02559 5.63378L5.70659 5.95703L5.66895 5.87207ZM5.76801 6.05235C5.87104 5.94252 5.96615 5.83478 6.07909 5.72703L6.15239 5.85342L5.83142 6.17461C5.79972 6.1456 5.77594 6.09379 5.75613 6.05442L5.76801 6.05235ZM5.88293 6.26993L6.20391 5.94667L6.26335 6.05028L5.95426 6.40047L5.88293 6.26993ZM6.08107 6.63669C6.05729 6.59111 6.03352 6.54345 6.00776 6.49786L6.301 6.1456L6.31288 6.16839L6.32675 6.18497C6.32565 6.19183 6.32565 6.19883 6.32675 6.20569C6.24156 6.35281 6.1524 6.49164 6.0672 6.63877L6.08107 6.63669ZM6.59423 6.22226L6.25741 6.74652H6.15239C6.2804 6.57851 6.39882 6.40276 6.50705 6.22019C6.53806 6.22215 6.56917 6.22215 6.60018 6.22019L6.59423 6.22226ZM6.38025 6.74445L6.68141 6.27614C6.6848 6.27097 6.68719 6.26516 6.68843 6.25902C6.68966 6.25289 6.68972 6.24657 6.68862 6.24041C6.68751 6.23425 6.68526 6.22838 6.68198 6.22313C6.6787 6.21788 6.67447 6.21337 6.66952 6.20983C6.74481 6.20983 6.82209 6.19118 6.89738 6.17875H6.95088L6.55263 6.76724L6.38025 6.74445ZM7.05391 6.40047C6.98852 6.52066 6.91917 6.64084 6.85577 6.7631H6.6933C6.81614 6.57868 6.93898 6.39218 7.06381 6.20776C7.06662 6.20161 7.06809 6.19489 7.06809 6.18807C7.06809 6.18126 7.06662 6.17453 7.06381 6.16839C7.11191 6.16192 7.15956 6.15223 7.20647 6.13938C7.13713 6.22641 7.09353 6.32173 7.04003 6.41083L7.05391 6.40047ZM6.67746 3.2446L6.57046 3.31713C6.56055 3.27775 6.54867 3.23838 6.53876 3.19901L6.80425 3.00423C6.78444 3.0954 6.76661 3.18451 6.7468 3.27361C6.74513 3.26615 6.74176 3.25921 6.73698 3.2534C6.7322 3.24758 6.72615 3.24306 6.71935 3.24022C6.71254 3.23737 6.70518 3.23628 6.69788 3.23704C6.69059 3.23781 6.68359 3.2404 6.67746 3.2446ZM6.72896 3.33577C6.70519 3.4456 6.6834 3.55542 6.65962 3.66317C6.63782 3.5865 6.61602 3.50776 6.59225 3.42902L6.72896 3.33577ZM6.8003 2.87783L6.50705 3.08505C6.50705 3.0664 6.50705 3.04775 6.49318 3.03117C6.4923 3.02152 6.4923 3.0118 6.49318 3.00216L6.85379 2.72449L6.82407 2.86125C6.8156 2.86184 6.80741 2.86469 6.8003 2.86954V2.87783ZM6.55263 2.83846C6.56254 2.80945 6.57046 2.78044 6.57839 2.74935H6.59423L6.92513 2.45304L6.8954 2.58359L6.55263 2.83846ZM6.62594 2.57322C6.63783 2.53385 6.64971 2.49448 6.65962 2.45511L6.98852 2.17123L6.96474 2.26862L6.62594 2.57322ZM6.94692 2.0697L6.71312 2.27691C6.73491 2.20024 6.75869 2.12564 6.78246 2.05105L7.07966 1.80861C7.05589 1.89564 7.0341 1.98474 7.01231 2.07177C7.00409 2.06262 6.99318 2.05663 6.98132 2.05476C6.96946 2.05288 6.95735 2.05522 6.94692 2.06141V2.0697ZM7.20846 1.33823C7.17874 1.43562 7.15495 1.53301 7.12721 1.6304L6.85379 1.85627C6.9518 1.66684 7.07085 1.49018 7.20846 1.32994V1.33823ZM4.15124 1.39625L4.24039 1.29057C4.21859 1.39625 4.19482 1.49778 4.17105 1.60553C4.16681 1.59954 4.16128 1.59466 4.15491 1.5913C4.14855 1.58794 4.14152 1.58619 4.13439 1.58619C4.12726 1.58619 4.12022 1.58794 4.11386 1.5913C4.10749 1.59466 4.10197 1.59954 4.09774 1.60553L3.77874 1.9951C3.87612 1.77351 4.0014 1.56653 4.15124 1.37967V1.39625ZM3.63608 2.32457C3.80846 2.11735 3.97886 1.91014 4.15124 1.70293C4.13142 1.78581 4.11358 1.8687 4.09377 1.95158C4.0895 1.94668 4.0843 1.94277 4.0785 1.94009C4.0727 1.93741 4.06643 1.93603 4.06009 1.93603C4.05375 1.93603 4.04749 1.93741 4.04169 1.94009C4.03589 1.94277 4.03068 1.94668 4.02641 1.95158L3.58853 2.4634L3.63608 2.32457ZM3.53503 3.7875L3.45578 3.85173C3.45578 3.82894 3.43795 3.80407 3.42804 3.77921C3.49739 3.71497 3.56475 3.64866 3.62618 3.57199C3.6876 3.49533 3.6024 3.45181 3.55485 3.4974L3.38049 3.66732L3.34681 3.58858L3.70741 3.29019C3.75892 3.24874 3.68561 3.17414 3.63608 3.21559L3.3052 3.49118C3.29939 3.48072 3.29473 3.46959 3.29133 3.45803L3.31709 3.3565L3.83422 2.90684C3.75298 3.19901 3.66977 3.48911 3.58061 3.77714C3.57225 3.77274 3.56296 3.77062 3.55361 3.77098C3.54425 3.77134 3.53514 3.77417 3.52711 3.77921L3.53503 3.7875ZM3.55683 3.90354L3.52116 4.01958C3.52116 3.99678 3.50334 3.97607 3.49541 3.95327L3.55683 3.90354ZM3.82629 2.7908L3.37652 3.18244C3.39039 3.12649 3.40624 3.07054 3.42209 3.01459C3.42962 3.01553 3.43726 3.01471 3.44445 3.0122C3.45164 3.0097 3.45822 3.00556 3.4637 3.00009L3.95508 2.50277C3.9313 2.59602 3.90752 2.68926 3.88177 2.78458C3.87367 2.77873 3.86416 2.77543 3.85433 2.77507C3.8445 2.7747 3.83477 2.77728 3.82629 2.78251V2.7908ZM3.93328 2.37637C3.77874 2.53385 3.6242 2.69133 3.46767 2.84675C3.4855 2.7908 3.50136 2.73278 3.51919 2.67476C3.526 2.67545 3.53286 2.67429 3.53911 2.67138C3.54536 2.66848 3.55078 2.66393 3.55485 2.65819L4.06603 2.06141C4.04225 2.16501 4.01452 2.26862 3.98877 2.36808C3.98058 2.36229 3.97091 2.3592 3.96102 2.3592C3.95114 2.3592 3.94147 2.36229 3.93328 2.36808V2.37637ZM1.21686 1.12065C1.48435 1.09164 1.7756 0.985966 2.0094 1.20561C2.14225 1.365 2.24509 1.54919 2.31254 1.74851C2.68702 2.56701 3.00998 3.44974 3.46965 4.22265C3.47642 4.23221 3.48574 4.23946 3.49644 4.24347C3.50714 4.24749 3.51875 4.24809 3.52978 4.24521C3.54081 4.24232 3.55077 4.23608 3.55841 4.22727C3.56604 4.21846 3.57101 4.20747 3.57268 4.19571C3.78763 3.67368 3.97094 3.13801 4.12151 2.59188C4.19879 2.31006 4.26813 2.02411 4.33154 1.73815C4.36522 1.58481 4.38503 1.4149 4.4306 1.26778C4.50193 1.02534 4.48806 1.04813 4.72979 1.02741C4.93981 1.00669 5.45497 0.967316 5.62536 1.09786C5.79576 1.22841 5.88095 1.73815 5.95426 1.96816C6.07314 2.33286 6.18608 2.7017 6.30496 3.0664C6.36105 3.31299 6.43864 3.55367 6.53678 3.78542C6.61207 3.92633 6.66556 3.99264 6.73491 3.82273C6.80348 3.63653 6.85911 3.44539 6.90135 3.25082C6.95287 3.07054 7.49574 1.02948 7.44819 1.02326C7.86626 1.07921 8.28433 1.11651 8.70437 1.14552C8.23281 2.76593 7.7137 4.37184 7.2461 5.99433C7.11296 5.98515 6.97927 5.99774 6.84983 6.03163C6.72897 6.05235 6.61009 6.071 6.49121 6.10208C6.48092 6.09401 6.46841 6.08965 6.45555 6.08965C6.44269 6.08965 6.43016 6.09401 6.41987 6.10208C6.00577 5.2235 5.50053 4.37599 5.03293 3.53263C5.02883 3.52578 5.02314 3.52013 5.01639 3.51621C5.00963 3.5123 5.00203 3.51024 4.9943 3.51024C4.98658 3.51024 4.97897 3.5123 4.97221 3.51621C4.96545 3.52013 4.95976 3.52578 4.95567 3.53263C4.95 3.52955 4.94378 3.52776 4.9374 3.52736C4.93103 3.52696 4.92465 3.52796 4.91867 3.5303C4.91269 3.53265 4.90725 3.53628 4.9027 3.54096C4.89815 3.54565 4.8946 3.55128 4.89226 3.55749C4.46627 4.38635 4.05217 5.24836 3.70345 6.11452C3.70274 6.12348 3.70274 6.13249 3.70345 6.14145C3.70345 6.08965 3.14075 6.18289 3.09716 6.17668C2.95847 6.1601 2.87128 6.02334 2.79599 5.89901C2.64382 5.60009 2.51142 5.29062 2.39972 4.97276C2.20159 4.52104 2.00345 4.06931 1.80532 3.61758C1.62898 3.21351 1.46255 2.8053 1.28819 2.40124C1.20101 2.19402 1.11382 1.98681 1.0207 1.79617C0.965222 1.67599 0.792845 1.45634 0.810677 1.32165C0.830491 1.08336 1.06628 1.12687 1.21686 1.11237V1.12065ZM0.471875 1.54959C0.519427 1.45427 0.570938 1.36102 0.616509 1.26156C0.642267 1.32994 0.67 1.39625 0.697739 1.46877C0.691914 1.46447 0.685332 1.46142 0.678366 1.45982C0.671399 1.45822 0.664194 1.45809 0.657178 1.45944C0.650163 1.46079 0.643478 1.4636 0.637515 1.46769C0.631552 1.47179 0.626435 1.47709 0.622459 1.48328L0.249965 2.10492C0.287484 1.90352 0.362916 1.71193 0.471875 1.5413V1.54959Z" fill="#EF5023"/>
</svg>
