<svg width="2" height="3" viewBox="0 0 2 3" fill="none" xmlns="http://www.w3.org/2000/svg">
<path d="M1.52318 1.0649C1.50931 1.04004 1.49346 1.02139 1.47959 0.998596C1.46075 0.97727 1.43945 0.958476 1.41618 0.942647C1.39015 0.926399 1.36217 0.913857 1.33297 0.90535C1.28028 0.891576 1.22517 0.891576 1.17248 0.90535L1.10908 0.932286C1.0887 0.940829 1.0694 0.951965 1.05162 0.965441C0.984373 1.01 0.922507 1.06288 0.867359 1.12292C0.841601 1.154 0.815843 1.18509 0.792066 1.21824C0.76306 1.25501 0.73966 1.29625 0.722712 1.3405C0.701526 1.40175 0.685614 1.46485 0.675162 1.52906C0.637516 1.54564 0.597889 1.54357 0.576094 1.56843C0.568549 1.57571 0.562808 1.58478 0.559357 1.59489C0.555906 1.605 0.554853 1.61583 0.556286 1.62645C0.558872 1.65188 0.56775 1.67616 0.582044 1.69691C0.582044 1.69691 0.591944 1.71141 0.599869 1.71555C0.623427 1.72696 0.647975 1.73598 0.673178 1.74249V1.75493L0.687049 1.81295L0.698937 1.8461C0.698937 1.86682 0.72469 1.89583 0.744504 1.92898C0.794091 2.00435 0.862672 2.06388 0.942639 2.10097C1.01895 2.13173 1.10082 2.14447 1.18239 2.13827C1.21321 2.13585 1.24374 2.13029 1.27353 2.1217C1.33128 2.10554 1.38661 2.08114 1.43798 2.04917C1.46539 2.03255 1.48905 2.00993 1.50733 1.98286C1.50733 1.96836 1.50733 1.96214 1.4578 1.96628C1.3924 1.97949 1.32619 1.9878 1.25966 1.99115C1.15295 1.99678 1.04795 1.9614 0.964443 1.89169C0.930763 1.85623 0.905636 1.81291 0.891134 1.76529V1.74042C0.94144 1.73072 0.991081 1.71757 1.03973 1.70105C1.18915 1.64679 1.3247 1.55748 1.436 1.43996C1.46691 1.4038 1.49291 1.36336 1.51327 1.31978C1.53942 1.26613 1.54844 1.20512 1.53903 1.14572C1.53704 1.11818 1.53173 1.09103 1.52318 1.0649ZM1.28542 1.29076C1.19829 1.38043 1.0925 1.44781 0.97633 1.48762L0.906976 1.51041C0.91309 1.48361 0.921035 1.45729 0.930751 1.43167C0.9411 1.40828 0.953715 1.38606 0.968397 1.36536C0.987246 1.33973 1.00777 1.3155 1.02982 1.29284C1.07001 1.24593 1.11598 1.20482 1.16653 1.17058C1.20038 1.14475 1.24157 1.13161 1.28344 1.13328H1.29731C1.29731 1.13328 1.29731 1.13328 1.31316 1.14779C1.32221 1.15898 1.32956 1.17156 1.33495 1.18509C1.33387 1.20527 1.32893 1.22502 1.32042 1.24317C1.31191 1.26132 1.30001 1.27751 1.28542 1.29076Z" fill="#848936"/>
</svg>
