<svg width="4" height="5" viewBox="0 0 4 5" fill="none" xmlns="http://www.w3.org/2000/svg">
<path d="M1.50363 4.32931C2.7182 4.74374 3.93475 3.59992 3.87135 2.30276C3.8646 2.05991 3.81172 1.82089 3.71579 1.59962C3.61987 1.37834 3.48281 1.17924 3.31261 1.01389L3.26504 0.968301L3.19967 0.910282H3.1858L3.10258 0.843972L3.07088 0.823252L3.02531 0.790097C2.93169 0.726574 2.83441 0.669136 2.73404 0.618109C2.55224 0.523723 2.35552 0.464743 2.15351 0.44405H2.12181C1.3055 0.340443 0.592215 0.989023 0.215759 1.68733C-0.386571 2.77314 0.477297 3.98534 1.50363 4.32931ZM1.6344 0.736223C1.94363 0.660903 2.26759 0.687688 2.56167 0.812891C2.8622 0.922971 3.12406 1.12516 3.31314 1.39313C3.50221 1.66109 3.60974 1.9824 3.6217 2.31519C3.64204 2.73224 3.51748 3.14292 3.27099 3.47145C3.1968 3.55421 3.11054 3.62415 3.0154 3.67866C2.74757 3.80099 2.45094 3.83706 2.16341 3.78227C1.90433 3.76355 1.65331 3.68023 1.43132 3.53927C1.20933 3.39832 1.02283 3.20383 0.887426 2.97206C0.667497 2.53691 0.756661 1.99401 0.940927 1.563C1.09043 1.2222 1.33223 0.934744 1.63638 0.736223H1.6344ZM1.32531 0.852262L1.36097 0.83361C1.15388 1.015 0.986912 1.24124 0.871584 1.4967C0.747822 1.73551 0.678749 2.00111 0.669809 2.27259C0.66087 2.54407 0.712307 2.81401 0.820067 3.06116C1.07566 3.57713 1.67799 3.84029 2.20701 3.89002C2.44136 3.92141 2.67936 3.90237 2.90642 3.83407C2.71833 3.97543 2.50237 4.07095 2.27437 4.11362C2.04637 4.15629 1.81212 4.14503 1.58883 4.08066C0.717038 3.82578 0.0215783 2.86431 0.368314 1.92148C0.5492 1.4531 0.890362 1.07194 1.32531 0.852262Z" fill="#EC1E24"/>
</svg>
