<svg width="4" height="5" viewBox="0 0 4 5" fill="none" xmlns="http://www.w3.org/2000/svg">
<path d="M0.339765 0.752448L0.391282 0.804251L0.438833 0.860203L0.5379 0.976242L0.736035 1.2104C0.866804 1.36788 0.995591 1.52743 1.1323 1.68491C1.38988 2.00402 1.64152 2.32521 1.89513 2.64639C2.14874 2.96757 2.40434 3.29082 2.66191 3.60993L3.05818 4.08653L3.23651 4.29374C3.23651 4.29374 3.33954 4.40357 3.43464 4.50096C3.52975 4.59835 3.63278 4.70816 3.63278 4.69573C3.8111 4.85736 3.94582 4.94025 3.72193 4.61906C3.59512 4.42635 3.40095 4.16526 3.40095 4.16526L3.25433 3.98914C3.12158 3.82958 2.98883 3.67003 2.85806 3.5084C2.59851 3.18515 2.33895 2.85775 2.08138 2.53035L1.29874 1.56266C1.16797 1.39896 1.03721 1.23733 0.902473 1.07571L0.704339 0.83948L0.603288 0.719299L0.551771 0.659205L0.494316 0.599111C0.415122 0.527552 0.344591 0.446138 0.284294 0.356674H0.270423C0.228958 0.340093 0.183096 0.340093 0.141631 0.356674C0.126696 0.367342 0.114784 0.382007 0.107117 0.399138C0.0994493 0.416268 0.0963138 0.435238 0.0980467 0.454065C0.0967123 0.460902 0.0967123 0.467945 0.0980467 0.474781C0.166777 0.5779 0.248027 0.671237 0.339765 0.752448Z" fill="#F16722"/>
</svg>
