<svg width="5" height="5" viewBox="0 0 5 5" fill="none" xmlns="http://www.w3.org/2000/svg">
<path d="M1.95868 0.377571C1.88513 0.480333 1.82701 0.594231 1.78631 0.715331C1.60006 1.12976 1.39994 1.54419 1.1919 1.95862L1.11463 2.10367L0.991783 2.3689C0.930362 2.49945 0.87092 2.62584 0.878845 2.61755C0.789685 2.82477 0.756001 2.98018 0.952154 2.7108C0.955961 2.72781 0.962669 2.74395 0.971963 2.75846C0.971963 2.75846 0.971963 2.75846 0.971963 2.76882C1.07103 2.81441 1.1701 2.86414 1.27115 2.91594C1.79819 3.18947 2.31335 3.50236 2.84038 3.79246L2.98304 3.8712C2.98304 3.8712 3.1138 3.93336 3.24259 3.98931C3.37138 4.04526 3.49818 4.09707 3.48828 4.09085C3.70623 4.16752 3.85483 4.18617 3.54178 3.98724C3.36147 3.86499 3.09994 3.69714 3.09994 3.69714L2.93549 3.60597C2.41241 3.31587 1.89726 3.00505 1.35041 2.72531C1.24936 2.67351 1.15227 2.6217 1.0433 2.57404H1.02943C1.14435 2.41034 1.25728 2.23007 1.25728 2.23007L1.34842 2.05808C1.56439 1.64365 1.77045 1.22922 1.95472 0.814796C1.98748 0.715289 2.03351 0.621114 2.09143 0.535055C2.14691 0.584787 2.20436 0.630374 2.26182 0.678034C2.7812 1.05153 3.33633 1.3675 3.91824 1.62086L4.06486 1.68924L4.3264 1.79491C4.45518 1.84465 4.58001 1.89852 4.57208 1.89023C4.63647 1.91528 4.70275 1.93469 4.77022 1.94826L4.63152 2.23421L4.16591 3.19568L4.09457 3.34488C4.09457 3.34488 3.86869 3.88985 3.88256 3.86913C3.80133 4.09292 3.77558 4.2504 3.97768 3.93129C4.1025 3.7448 4.26101 3.46713 4.26101 3.46713L4.3462 3.291L4.81182 2.32953L4.96438 2.01456C4.96538 2.00839 4.96538 2.00208 4.96438 1.99591C4.93466 1.85708 4.83956 1.88402 4.79399 1.91095C4.74435 1.86282 4.68987 1.82044 4.63152 1.78456C4.45122 1.65816 4.17779 1.50689 4.17779 1.50689L4.00739 1.42607C3.43828 1.17997 2.89568 0.871574 2.38863 0.506042C2.30145 0.435589 2.21625 0.367209 2.137 0.298828C2.137 0.298828 2.12314 0.298828 2.12115 0.298828C2.02803 0.298828 1.99632 0.340274 1.99038 0.385861H1.9666C1.96449 0.382597 1.9618 0.379783 1.95868 0.377571Z" fill="#AC1F23"/>
</svg>
