<svg width="8" height="6" viewBox="0 0 8 6" fill="none" xmlns="http://www.w3.org/2000/svg">
<path d="M1.50828 2.83723C1.4948 2.86062 1.48415 2.88568 1.47658 2.91182C1.42903 3.02924 1.37157 3.15565 1.30421 3.29103C1.23775 3.42232 1.18653 3.56145 1.15164 3.70546C1.14173 3.75726 1.12786 3.81113 1.11201 3.86501C1.0948 3.9224 1.08286 3.98138 1.07635 4.04114C1.07809 4.07184 1.07046 4.10231 1.05456 4.12817C1.03829 4.15419 1.02873 4.18418 1.02681 4.2152C0.995168 4.29146 0.982885 4.37497 0.991152 4.45764C1.00005 4.54512 1.00005 4.63333 0.991152 4.7208C0.986348 4.75099 0.986348 4.7818 0.991152 4.81198C0.99711 4.83716 0.99711 4.86347 0.991152 4.88865C0.995294 4.96633 1.01204 5.04271 1.04069 5.11451L1.13579 5.32172C1.21674 5.44484 1.33917 5.53143 1.47857 5.56417C1.65042 5.58702 1.82456 5.54752 1.97192 5.45227C2.02542 5.41497 2.08684 5.37353 2.1542 5.32172C2.22099 5.27085 2.28039 5.21013 2.33054 5.14145C2.34142 5.12111 2.35474 5.10231 2.37017 5.0855C2.38934 5.06701 2.40541 5.0453 2.41772 5.02126L2.61586 4.75189C2.68787 4.65546 2.75404 4.55442 2.81399 4.44935C2.8312 4.43572 2.84653 4.41969 2.85956 4.40169C2.87913 4.38082 2.89344 4.35519 2.90117 4.3271C2.89789 4.37055 2.89789 4.4142 2.90117 4.45764C2.90117 4.48666 2.90118 4.52188 2.91504 4.55918C2.9309 4.64621 2.94674 4.71666 2.95863 4.76639C2.9742 4.82969 2.99821 4.89037 3.02995 4.94667C3.06715 5.01388 3.11785 5.07186 3.17856 5.11658C3.27918 5.17991 3.39642 5.2082 3.5134 5.19739C3.63629 5.18719 3.7561 5.152 3.86609 5.09379C3.98465 5.02916 4.09402 4.94756 4.19103 4.85135C4.28646 4.75763 4.37031 4.65182 4.44067 4.53638C4.44697 4.52722 4.4543 4.51888 4.46248 4.51152C4.46248 4.51152 4.46248 4.50116 4.47436 4.48873C4.50416 4.44785 4.53129 4.40493 4.55559 4.36025C4.55559 4.42449 4.57343 4.48872 4.58532 4.54881C4.59721 4.60891 4.60117 4.64413 4.61108 4.68558C4.62328 4.73008 4.63988 4.77314 4.66061 4.81405C4.69158 4.866 4.73538 4.90825 4.78741 4.93631C4.87529 4.98627 4.97488 5.00925 5.07471 5.00261C5.20439 5.00166 5.32867 4.94818 5.42144 4.85342C5.47494 4.80783 5.52843 4.7581 5.58193 4.70837C5.63547 4.66218 5.68338 4.60929 5.72459 4.55089C5.72658 4.54414 5.72658 4.53692 5.72459 4.53017C5.72303 4.52696 5.72221 4.52341 5.72221 4.51981C5.72221 4.5162 5.72303 4.51266 5.72459 4.50945L5.84744 4.34989L5.87121 4.28773C5.90039 4.25973 5.92572 4.22765 5.9465 4.1924C5.96832 4.15811 5.98752 4.12209 6.00396 4.08466L6.13473 3.84222C6.16842 3.78213 6.19616 3.7241 6.21993 3.67023C6.24371 3.61635 6.27342 3.5604 6.30116 3.50031C6.3289 3.44022 6.37052 3.36148 6.42005 3.25994C6.43828 3.23061 6.45482 3.20017 6.46958 3.16877C6.47966 3.138 6.49224 3.10818 6.50722 3.07967C6.54486 3.003 6.57459 2.93876 6.59638 2.88903C6.61708 2.84081 6.64024 2.79377 6.66573 2.74813C6.68951 2.70669 6.71328 2.66109 6.73508 2.61343C6.75687 2.56578 6.78659 2.50361 6.81829 2.42694C6.84999 2.35027 6.90746 2.23631 6.93718 2.17622C6.9669 2.11612 6.99463 2.06224 7.01841 2.01044C7.04218 1.95864 7.07389 1.90683 7.10955 1.84881C7.14522 1.79079 7.18881 1.71206 7.24428 1.60845C7.28423 1.54224 7.31933 1.47298 7.34929 1.40124C7.3592 1.37223 7.36515 1.35357 7.36911 1.34529C7.37888 1.32768 7.39015 1.31104 7.40279 1.29556L7.53554 1.10077C7.54686 1.08439 7.55556 1.0662 7.5613 1.0469C7.5613 1.03446 7.58112 1.02203 7.60886 1.01167C7.6366 1.00131 7.65245 0.986803 7.65641 0.97437C7.66228 0.939491 7.67366 0.905881 7.69009 0.874912C7.7047 0.845044 7.71663 0.813827 7.72575 0.781663C7.71386 0.781663 7.7099 0.769233 7.71386 0.758872C7.71566 0.752749 7.71547 0.746177 7.71332 0.740179C7.71117 0.734182 7.70718 0.729096 7.70198 0.725717C7.70497 0.720754 7.70656 0.715004 7.70656 0.709137C7.70656 0.70327 7.70497 0.697525 7.70198 0.692562C7.69902 0.687207 7.69746 0.681134 7.69746 0.674951C7.69746 0.668767 7.69902 0.662688 7.70198 0.657333C7.71507 0.629415 7.72313 0.59921 7.72575 0.568232C7.72575 0.530934 7.72575 0.495705 7.72575 0.462551C7.72767 0.450895 7.72767 0.438984 7.72575 0.427328C7.69801 0.427328 7.69009 0.410748 7.70198 0.398315C7.70658 0.393837 7.7102 0.388372 7.71259 0.382291C7.71499 0.376211 7.7161 0.369663 7.71585 0.363093H7.68217H7.65443H7.5831C7.55852 0.364482 7.53467 0.372318 7.51375 0.385883C7.48997 0.400388 7.48006 0.385885 7.486 0.348586C7.49195 0.311287 7.45828 0.276062 7.41072 0.317505C7.40682 0.323285 7.40125 0.327612 7.39483 0.329849C7.38842 0.332086 7.38148 0.332115 7.37505 0.329937C7.35711 0.328534 7.33934 0.334475 7.32551 0.346512C7.31618 0.353187 7.30812 0.361624 7.30174 0.371383C7.29859 0.375476 7.29469 0.378864 7.29026 0.381355C7.28584 0.383846 7.28098 0.385385 7.27598 0.385883C7.25584 0.388118 7.23735 0.398538 7.22448 0.414896C7.21144 0.430959 7.19683 0.445542 7.18088 0.458409C7.09478 0.5323 7.01936 0.618845 6.95699 0.715353C6.8916 0.812743 6.83217 0.908067 6.77471 0.999241C6.71725 1.09042 6.68356 1.14636 6.67366 1.16501C6.66375 1.18366 6.6578 1.19195 6.66177 1.19195C6.66573 1.19195 6.66177 1.19195 6.66177 1.21681C6.63613 1.27492 6.60769 1.33163 6.57657 1.38673L6.45571 1.61259C6.40816 1.70377 6.36457 1.7908 6.32692 1.87161C6.28927 1.95242 6.24371 2.03945 6.19616 2.12441C6.15117 2.24954 6.09821 2.37139 6.03764 2.48911L5.9782 2.61343C5.96475 2.63786 5.95348 2.66352 5.94452 2.6901C5.94452 2.71082 5.92471 2.73569 5.90886 2.7647C5.89301 2.79371 5.87517 2.8393 5.85139 2.89939C5.82762 2.95948 5.79592 3.0175 5.78602 3.04237L5.76224 3.09831L5.73847 3.15633C5.73847 3.1812 5.70676 3.22679 5.67308 3.29931C5.63939 3.37184 5.62354 3.40707 5.59778 3.45887C5.57203 3.51068 5.54626 3.56662 5.51654 3.6205C5.50402 3.64616 5.49014 3.67106 5.47494 3.69509L5.43135 3.76348C5.41398 3.79298 5.39811 3.82341 5.3838 3.85465C5.36827 3.88484 5.34895 3.91272 5.32634 3.93754C5.32061 3.95133 5.31091 3.96291 5.2986 3.97069C5.29284 3.97507 5.28591 3.97743 5.27879 3.97743C5.27167 3.97743 5.26473 3.97507 5.25897 3.97069C5.24947 3.94763 5.24346 3.92316 5.24115 3.89816C5.24636 3.81415 5.25561 3.73047 5.26887 3.64744C5.28208 3.56455 5.29398 3.48374 5.30455 3.40499L5.38181 2.78335C5.3937 2.71083 5.40758 2.6383 5.42541 2.57614C5.44324 2.51397 5.4571 2.4373 5.46899 2.36892C5.48088 2.30054 5.50664 2.18657 5.52051 2.0954C5.53438 2.00423 5.55024 1.91098 5.56411 1.81359C5.57813 1.7258 5.58738 1.63725 5.59184 1.54836C5.59775 1.45798 5.59775 1.36729 5.59184 1.27691C5.58127 1.24513 5.57334 1.21612 5.56806 1.18987C5.54178 1.14183 5.50757 1.09903 5.46701 1.06348C5.44225 1.04831 5.41643 1.03514 5.38975 1.02411C5.3612 1.00153 5.32646 0.989175 5.29068 0.988877C5.25372 0.98676 5.21668 0.98676 5.17972 0.988877C5.13226 0.996547 5.08695 1.01493 5.04696 1.04275C5.00528 1.0701 4.96555 1.10057 4.92809 1.13393C4.91232 1.15445 4.90146 1.1786 4.89639 1.20438C4.87732 1.25009 4.86142 1.29718 4.84883 1.34529C4.8356 1.39162 4.83222 1.44042 4.83893 1.48826C4.84056 1.49219 4.8414 1.49642 4.8414 1.5007C4.8414 1.50497 4.84056 1.50921 4.83893 1.51313C4.83348 1.52162 4.82883 1.53064 4.82505 1.54007C4.81119 1.63124 4.7993 1.71827 4.78939 1.79908C4.77948 1.8799 4.7676 1.97107 4.75968 2.06639C4.75175 2.16171 4.7359 2.26324 4.72797 2.36685C4.72005 2.47046 4.71014 2.55542 4.70023 2.65074C4.68042 2.6984 4.64674 2.78128 4.59919 2.90147C4.55164 3.02165 4.49616 3.15427 4.43473 3.29517C4.37331 3.43608 4.31189 3.57491 4.2366 3.7096C4.1883 3.81376 4.13405 3.91479 4.07413 4.01213C4.0268 4.09629 3.97172 4.17541 3.90967 4.24836C3.86073 4.3099 3.80168 4.36182 3.73531 4.40169C3.71125 4.41687 3.68607 4.43004 3.66002 4.44106C3.63349 4.45427 3.60412 4.45999 3.57482 4.45764C3.54528 4.45104 3.51877 4.43409 3.49968 4.4096C3.48058 4.38512 3.47005 4.35455 3.46982 4.32295C3.4461 4.19957 3.43745 4.07355 3.44406 3.94789C3.44406 3.8505 3.46189 3.74068 3.47576 3.63915C3.50944 3.45265 3.54312 3.29725 3.57681 3.17499C3.61049 3.05273 3.64813 2.9139 3.68578 2.76056C3.71352 2.65074 3.7472 2.53677 3.78286 2.41658C3.81853 2.2964 3.86213 2.18036 3.90374 2.06224C3.91562 2.02771 3.93147 1.9842 3.95129 1.9317C3.9711 1.87921 3.98893 1.82534 4.00479 1.77008C4.02145 1.71493 4.03533 1.6589 4.04639 1.60223C4.05694 1.55542 4.06029 1.50716 4.05629 1.45926C4.07443 1.42736 4.08337 1.39066 4.08205 1.35358C4.08778 1.33581 4.08916 1.31682 4.08604 1.29835C4.08292 1.27989 4.07542 1.26254 4.06422 1.24789C4.03831 1.21868 4.01631 1.18592 3.99884 1.1505C3.9976 1.14836 3.99586 1.14658 3.99378 1.14535C3.9917 1.14412 3.98934 1.14347 3.98695 1.14347C3.98456 1.14347 3.9822 1.14412 3.98012 1.14535C3.97803 1.14658 3.97629 1.14836 3.97506 1.1505C3.96515 1.1505 3.95723 1.15051 3.94732 1.12771C3.94022 1.12881 3.9334 1.1314 3.92727 1.13531C3.92114 1.13923 3.91583 1.1444 3.91166 1.1505C3.91166 1.16294 3.89382 1.1505 3.8859 1.136C3.87797 1.12149 3.85618 1.09041 3.84033 1.09248H3.77693C3.74995 1.09449 3.72365 1.10225 3.69965 1.11528L3.57284 1.18366C3.54932 1.1975 3.52877 1.21621 3.51241 1.23866C3.49606 1.26111 3.48426 1.28682 3.47774 1.3142L3.41038 1.52142C3.3806 1.48439 3.35281 1.44565 3.32716 1.40538C3.30398 1.36797 3.27278 1.33675 3.23602 1.3142C3.18936 1.28896 3.13794 1.27481 3.08544 1.27276C3.0023 1.26971 2.91912 1.27737 2.83777 1.29556C2.8194 1.29861 2.80185 1.30567 2.78625 1.31628L2.74068 1.34321C2.61706 1.39375 2.50148 1.46361 2.3979 1.55043C2.29385 1.63784 2.19888 1.73647 2.11457 1.84467C2.02621 1.95701 1.94418 2.07463 1.86889 2.19694C1.7936 2.32127 1.72029 2.44352 1.65094 2.56578C1.65094 2.58236 1.63113 2.60929 1.6133 2.64245C1.59547 2.6756 1.57763 2.70876 1.5598 2.74605C1.54197 2.78335 1.52413 2.80408 1.50828 2.83723ZM1.75001 4.13439C1.77187 3.97979 1.81948 3.83041 1.89068 3.69302C1.90653 3.6578 1.9204 3.62878 1.93031 3.60392L1.95805 3.53761C1.95805 3.51689 1.9739 3.49617 1.98183 3.4713C1.99315 3.43771 2.00707 3.40514 2.02344 3.37391C2.09477 3.22472 2.17204 3.06931 2.25724 2.90354C2.32919 2.75877 2.41201 2.62019 2.5049 2.48911C2.53139 2.43623 2.56186 2.38565 2.59604 2.33784C2.62899 2.29915 2.66406 2.26248 2.70106 2.22802C2.71493 2.20315 2.71889 2.19072 2.71294 2.19279L2.75851 2.17829C2.77289 2.16512 2.78437 2.14887 2.79219 2.13063C2.80606 2.10783 2.81598 2.0954 2.82786 2.09333L2.8774 2.05603C2.89276 2.04545 2.90732 2.03368 2.92098 2.02081C2.94122 2.01274 2.95901 1.99915 2.9725 1.98143C2.99231 1.96693 2.99825 1.96486 2.99429 1.98143C2.99033 1.99801 2.99429 1.98143 3.01807 1.98143C3.02356 1.97947 3.02838 1.97587 3.03194 1.97108C3.06166 1.9545 3.08742 1.97108 3.1112 2.02288C3.13373 2.07279 3.15357 2.12398 3.17063 2.17622L3.14686 2.2964C3.16073 2.31712 3.14686 2.33991 3.131 2.36892C3.10986 2.39585 3.09554 2.42793 3.08939 2.46217C3.0877 2.48818 3.07797 2.51291 3.06166 2.53262C3.05351 2.54326 3.04769 2.55564 3.04461 2.56889C3.04153 2.58214 3.04126 2.59593 3.04382 2.60929C3.03907 2.6193 3.03509 2.62969 3.03194 2.64037C3.03194 2.64037 3.03194 2.65695 3.03194 2.67974C2.98711 2.8526 2.92048 3.01845 2.8338 3.17292C2.77634 3.30968 2.72483 3.42986 2.67728 3.53347C2.6285 3.64005 2.57427 3.74381 2.51481 3.84429C2.48305 3.91145 2.44523 3.97529 2.40187 4.03493C2.35652 4.09306 2.31545 4.15471 2.27903 4.21934C2.12845 4.45764 2.01155 4.59026 1.92437 4.61512C1.90724 4.62335 1.88852 4.62734 1.86967 4.62679C1.85083 4.62624 1.83236 4.62116 1.81569 4.61194C1.79902 4.60273 1.7846 4.58962 1.77356 4.57365C1.76251 4.55767 1.75513 4.53925 1.75198 4.51981C1.72497 4.39263 1.72702 4.26058 1.75793 4.13439H1.75001Z" fill="#B94E9C"/>
</svg>
