<svg width="2" height="3" viewBox="0 0 2 3" fill="none" xmlns="http://www.w3.org/2000/svg">
<path d="M0.0942659 1.78477C0.0833895 1.82706 0.0747892 1.86995 0.0685075 1.91324C0.0588829 1.96525 0.0588829 2.01871 0.0685075 2.07072C0.0783257 2.11592 0.103715 2.15576 0.139833 2.18262C0.177286 2.21005 0.223467 2.22119 0.268626 2.2137H0.316176L0.343918 2.20334L0.36571 2.18884L0.419198 2.14947C0.492106 2.08943 0.548226 2.00998 0.58167 1.91946C0.613492 1.83093 0.624375 1.73567 0.613378 1.64179C0.603212 1.54488 0.579854 1.44999 0.544024 1.35998C0.549259 1.34985 0.555225 1.34016 0.561861 1.33097C0.561861 1.33097 0.581677 1.29989 0.613378 1.25637C0.651191 1.2039 0.695115 1.15656 0.744142 1.11547C0.785482 1.08016 0.834466 1.05597 0.886805 1.04501C0.924451 1.04501 0.948223 1.04501 0.94426 1.04501C1.03738 1.06366 1.11069 1.14862 1.14239 1.15069C1.1741 1.15276 1.16023 1.13826 1.14239 1.09889C1.1317 1.07115 1.11701 1.04529 1.09881 1.02222C1.07033 0.980947 1.0321 0.948103 0.987856 0.926901C0.916248 0.89054 0.834126 0.883878 0.758013 0.908253C0.686649 0.929312 0.619521 0.963713 0.559878 1.00979C0.517057 1.04248 0.476658 1.0785 0.439019 1.11754L0.427131 1.12997C0.366961 1.02704 0.300791 0.928083 0.228996 0.833656C0.22311 0.832427 0.217045 0.832427 0.211159 0.833656C0.183669 0.823026 0.153452 0.823026 0.125962 0.833656C0.123768 0.832687 0.121415 0.832188 0.119033 0.832188C0.116651 0.832188 0.114286 0.832687 0.112091 0.833656H0.0982204L0.0744452 0.850233C0.0625571 0.850233 0.0605845 0.866809 0.0586031 0.875098C0.0577265 0.884746 0.0577265 0.894462 0.0586031 0.904111C0.0567208 0.921322 0.0567208 0.938702 0.0586031 0.955914C0.0575519 0.958174 0.0570068 0.960651 0.0570068 0.963164C0.0570068 0.965677 0.0575519 0.968158 0.0586031 0.970418C0.132003 1.06796 0.198237 1.17117 0.256738 1.27917C0.266503 1.29648 0.275111 1.31448 0.282496 1.33304L0.27258 1.34962C0.195952 1.48629 0.13605 1.63248 0.0942659 1.78477ZM0.292401 1.94225C0.29732 1.9108 0.30393 1.87967 0.312209 1.84901C0.335074 1.77089 0.363553 1.69469 0.397406 1.62107V1.65422C0.406263 1.71011 0.400641 1.76745 0.381128 1.82029C0.361615 1.87313 0.328924 1.91954 0.286451 1.95468L0.292401 1.94225Z" fill="#848936"/>
</svg>
