<svg width="8" height="11" viewBox="0 0 8 11" fill="none" xmlns="http://www.w3.org/2000/svg">
<path d="M2.39176 10.4878L2.64142 10.407C2.69973 10.3863 2.75931 10.3697 2.81974 10.3572C2.92984 10.3409 3.03851 10.3152 3.14468 10.2806C3.2376 10.2483 3.33308 10.2247 3.42999 10.2101L3.80644 10.1127L4.18489 10.0174L4.54945 9.94902L5.07649 9.8392L5.60353 9.72937C5.72458 9.70765 5.84432 9.67859 5.96215 9.64234C6.04872 9.61101 6.13749 9.58677 6.22766 9.56982C6.28079 9.56011 6.33435 9.55319 6.38814 9.5491L6.58628 9.52838C6.70892 9.50994 6.83059 9.48504 6.95084 9.45378L6.99642 9.42685C7.0133 9.40851 7.02733 9.38753 7.03802 9.36467C7.04916 9.34456 7.06669 9.32917 7.08755 9.32117C7.0618 9.29008 7.05387 9.26314 7.06576 9.2362C7.07482 9.20796 7.07482 9.17741 7.06576 9.14917C7.06576 9.14917 7.08162 9.14917 7.0836 9.12016C7.08937 9.10171 7.09881 9.08476 7.11133 9.07043C7.11133 9.07043 7.09945 9.05799 7.08162 9.05385C7.07423 9.05386 7.06702 9.05149 7.06099 9.04703C7.05495 9.04258 7.0504 9.03627 7.04794 9.02899C7.05331 9.01884 7.05614 9.00744 7.05614 8.99584C7.05614 8.98424 7.05331 8.97282 7.04794 8.96268C7.03742 8.94242 7.03326 8.91924 7.03605 8.89638C7.03605 8.87151 7.03604 8.86321 7.02415 8.87358C7.01226 8.88394 7.02416 8.87358 7.01029 8.85078C6.99642 8.82799 6.97858 8.81349 6.93103 8.80106C6.93399 8.79495 6.93553 8.7882 6.93553 8.78136C6.93553 8.77452 6.93399 8.76778 6.93103 8.76168C6.92113 8.74925 6.92113 8.73889 6.93103 8.7306L6.88348 8.70781C6.87189 8.70024 6.86123 8.69119 6.85177 8.68087C6.80818 8.68087 6.78639 8.68087 6.78243 8.68087C6.76717 8.65692 6.74381 8.63989 6.71704 8.63321C6.68964 8.63188 6.66243 8.62772 6.63581 8.62078C6.61996 8.63114 6.59223 8.62078 6.55062 8.6042L6.46344 8.61871C6.45484 8.61631 6.44581 8.61619 6.43716 8.61836C6.42851 8.62054 6.42052 8.62492 6.4139 8.63114C6.39805 8.64357 6.37427 8.63114 6.33663 8.59799C6.33663 8.57727 6.3188 8.57934 6.29898 8.59799C6.24939 8.5922 6.19919 8.59858 6.15236 8.61663C6.10085 8.63459 6.05528 8.65324 6.01565 8.67258L5.64316 8.76376L5.12206 8.89223C4.93978 8.93782 4.76542 8.97925 4.59898 9.01655C4.43255 9.05385 4.31169 9.07873 4.23442 9.09116C4.21296 9.093 4.19207 9.09934 4.173 9.1098C4.18291 9.08079 4.19281 9.05385 4.19876 9.02899C4.20524 9.00136 4.21386 8.97435 4.22452 8.94818C4.24048 8.83502 4.2471 8.72062 4.24433 8.60627C4.24313 8.49517 4.25176 8.38419 4.27008 8.27474C4.28792 8.2105 4.30971 8.12553 4.33349 8.01985C4.35726 7.91418 4.38302 7.81265 4.40481 7.69039C4.42661 7.56813 4.4484 7.46867 4.46425 7.36299C4.4801 7.25731 4.49397 7.17443 4.5019 7.11019C4.53213 7.03104 4.54824 6.94676 4.54945 6.86153C4.55148 6.77893 4.56279 6.69687 4.58314 6.61702C4.60287 6.54013 4.61743 6.46189 4.62672 6.38287C4.66833 6.17566 4.70994 5.96844 4.75353 5.76123C4.79712 5.55401 4.83675 5.3468 4.87836 5.13959L5.07649 3.859C5.10073 3.76761 5.11599 3.67388 5.12206 3.57926C5.12534 3.48753 5.14136 3.39679 5.16961 3.30988C5.19302 3.19084 5.20956 3.07044 5.21914 2.94933C5.23548 2.82809 5.22114 2.70448 5.17754 2.59085C5.17087 2.56798 5.16225 2.54579 5.15179 2.52454C5.14254 2.5052 5.11083 2.49277 5.05667 2.48724C5.05667 2.48724 5.04281 2.48724 5.04083 2.48724V2.46859C5.03658 2.46734 5.03271 2.46497 5.02958 2.46171C5.02646 2.45844 5.02419 2.45439 5.02299 2.44994L5.70854 2.24273C5.85715 2.20543 5.98791 2.17228 6.10481 2.13912C6.15525 2.13307 6.20501 2.12197 6.25341 2.10597C6.2955 2.09782 6.33716 2.08745 6.37824 2.07489L6.69128 2.01065L6.88942 1.96713L7.08755 1.92776C7.15888 1.91326 7.25994 1.88839 7.39269 1.85317C7.46182 1.83737 7.52851 1.81157 7.59082 1.7765C7.64712 1.74284 7.70611 1.71442 7.76716 1.69154L7.78698 1.66874C7.81603 1.6483 7.83999 1.62091 7.85687 1.58883C7.87376 1.55675 7.88308 1.52093 7.88406 1.48433C7.88406 1.42631 7.86424 1.34549 7.84443 1.23981C7.84617 1.23807 7.84755 1.23598 7.84849 1.23367C7.84944 1.23135 7.84993 1.22886 7.84993 1.22634C7.84993 1.22383 7.84944 1.22134 7.84849 1.21902C7.84755 1.21671 7.84617 1.21462 7.84443 1.21288C7.83937 1.20596 7.83537 1.19827 7.83254 1.19008C7.80069 1.14648 7.76558 1.1056 7.72754 1.06782C7.68955 1.03449 7.64839 1.00533 7.6047 0.980797C7.57011 0.963989 7.53638 0.945311 7.50364 0.924845C7.4881 0.917395 7.47121 0.913538 7.45411 0.913538C7.43701 0.913538 7.42012 0.917395 7.40458 0.924845C7.36891 0.924845 7.34712 0.924846 7.33325 0.906196C7.23845 0.875018 7.13678 0.875018 7.04199 0.906196C6.95299 0.937766 6.86237 0.964055 6.77054 0.984939L6.35248 1.10305L5.50644 1.35171L5.20726 1.42009L4.8843 1.5009C4.70598 1.55685 4.52765 1.60658 4.34933 1.64803C4.17101 1.68947 3.98675 1.73712 3.79654 1.78686L2.71472 2.09354C2.67036 2.09993 2.62661 2.11033 2.58396 2.12462L2.45319 2.1557C2.42442 2.16938 2.3946 2.18048 2.36403 2.18885H2.33827H2.32044C2.29292 2.20115 2.2644 2.21086 2.23524 2.21787C2.17778 2.23444 2.15202 2.24066 2.15995 2.23651C2.16788 2.23237 2.15995 2.23651 2.11239 2.2593C2.06901 2.26552 2.02501 2.26552 1.98162 2.2593C1.96193 2.25521 1.94155 2.25649 1.92246 2.26302C1.90338 2.26956 1.88622 2.28112 1.87265 2.2966C1.78702 2.32445 1.69859 2.34184 1.60914 2.3484C1.51975 2.35721 1.43184 2.37811 1.3476 2.41057H1.29608C1.2442 2.41984 1.19563 2.44345 1.15541 2.47895C1.12017 2.51453 1.07358 2.5352 1.02464 2.53697C0.976288 2.5482 0.930079 2.56781 0.887922 2.59499C0.870787 2.60736 0.857637 2.62488 0.850209 2.64523C0.842782 2.66557 0.841426 2.68779 0.846315 2.70896C0.830639 2.75617 0.80642 2.79979 0.774984 2.83743C0.753189 2.85815 0.761115 2.90581 0.800742 2.98248C0.836767 3.03336 0.861171 3.0922 0.872074 3.15447C0.872074 3.1897 0.909719 3.24564 0.983029 3.32231C1.00284 3.32231 1.03256 3.34925 1.07021 3.37412C1.10785 3.39898 1.13559 3.41763 1.15541 3.42799L1.32184 3.457C1.38443 3.46346 1.44748 3.46346 1.51007 3.457C1.67631 3.4298 1.841 3.39314 2.00342 3.34718C2.16212 3.30519 2.31826 3.2533 2.47102 3.19177C2.52253 3.15654 2.55225 3.14204 2.56018 3.1524C2.56811 3.16276 2.60971 3.1524 2.69095 3.12546C2.71993 3.11777 2.74839 3.10808 2.77615 3.09645L2.79992 3.08194C2.81168 3.07937 2.82382 3.07937 2.83558 3.08194C2.86923 3.07567 2.90235 3.06666 2.93465 3.05501L3.34875 2.94933C3.49339 2.91203 3.63407 2.86851 3.77078 2.82085C3.79251 2.81842 3.81444 2.81842 3.83617 2.82085C3.87039 2.81848 3.90362 2.80784 3.93325 2.78977V2.81257H3.98675C3.98675 2.86023 3.98675 2.90788 3.97288 2.95761C3.9685 3.00709 3.95433 3.05508 3.93127 3.09853C3.88375 3.27671 3.848 3.45811 3.82428 3.64143C3.80151 3.82559 3.76575 4.00775 3.71729 4.1864C3.7054 4.24442 3.69549 4.31694 3.6836 4.40811C3.67171 4.49929 3.65983 4.59461 3.64794 4.69614C3.63605 4.79768 3.6202 4.90336 3.60435 4.98417C3.59319 5.06034 3.57528 5.13525 3.55085 5.20796C3.50509 5.36351 3.4726 5.52301 3.45377 5.68456C3.43341 5.84924 3.40095 6.01204 3.35669 6.17151C3.32846 6.29319 3.31121 6.41737 3.30517 6.54242C3.29964 6.67012 3.27695 6.79637 3.2378 6.91747C3.21997 7.01694 3.20808 7.11018 3.20016 7.20136C3.19174 7.29907 3.17108 7.39522 3.13873 7.48731C3.13873 7.55569 3.11694 7.6448 3.09515 7.75048C3.07335 7.85616 3.05353 7.95769 3.02976 8.07373C3.00598 8.18977 2.98419 8.28095 2.96834 8.39078C2.95249 8.5006 2.93664 8.5752 2.92673 8.63736C2.91453 8.6854 2.90787 8.73478 2.90692 8.78447C2.90692 8.85286 2.90692 8.92953 2.90692 9.01034C2.90692 9.09116 2.90692 9.17404 2.90692 9.25071C2.90692 9.32738 2.90691 9.39162 2.91682 9.43928C2.90501 9.43727 2.89297 9.43727 2.88116 9.43928C2.8687 9.44152 2.85597 9.44152 2.84351 9.43928C2.80341 9.46063 2.75961 9.47332 2.71472 9.47657C2.6698 9.48028 2.62533 9.48861 2.58197 9.50144C2.54136 9.52679 2.49616 9.54301 2.44922 9.5491C2.38186 9.5636 2.31647 9.57603 2.25109 9.58639C2.18571 9.59675 2.11834 9.60918 2.05296 9.62369C2.0065 9.63228 1.96079 9.64476 1.91624 9.661C1.86235 9.67536 1.80729 9.68437 1.75179 9.68793C1.69581 9.69108 1.64111 9.70662 1.5913 9.73352C1.50016 9.75424 1.40307 9.77289 1.29608 9.78947L1.01076 9.83505C0.930675 9.87763 0.844243 9.90566 0.755169 9.91794C0.711132 9.91913 0.668962 9.93677 0.636293 9.96767C0.615429 9.98301 0.598166 10.0031 0.58581 10.0264C0.573454 10.0498 0.566324 10.0757 0.564961 10.1024C0.559842 10.1177 0.549173 10.1304 0.535242 10.1376C0.519392 10.1376 0.513446 10.1542 0.515428 10.1604C0.511759 10.1983 0.511759 10.2365 0.515428 10.2743C0.517177 10.3162 0.513174 10.358 0.50354 10.3987C0.51856 10.4813 0.557258 10.5572 0.614495 10.6163L0.767063 10.7986C0.811037 10.8338 0.862866 10.8566 0.917641 10.8649C0.953305 10.8649 0.996898 10.8649 1.05039 10.8649H1.11578L1.52393 10.7592C1.5548 10.7513 1.58523 10.7416 1.61508 10.7302C1.66046 10.7112 1.70675 10.6946 1.75377 10.6805L1.89643 10.639C1.92221 10.6292 1.94872 10.6216 1.97568 10.6163C2.04283 10.6031 2.10904 10.5851 2.17381 10.5624L2.39176 10.4878Z" fill="#334C9F"/>
</svg>
