<svg width="20" height="7" viewBox="0 0 20 7" fill="none" xmlns="http://www.w3.org/2000/svg">
<path d="M18.9729 1.79803C18.9692 1.78958 18.9672 1.7804 18.9672 1.7711C18.9672 1.76179 18.9692 1.7526 18.9729 1.74416C18.9871 1.72451 19.0045 1.70766 19.0244 1.69442C19.0294 1.69197 19.0337 1.68836 19.0371 1.68387C19.0406 1.67937 19.0429 1.67411 19.0441 1.66849C19.0452 1.66288 19.0451 1.65706 19.0438 1.6515C19.0424 1.64593 19.0399 1.64076 19.0363 1.6364C19.0224 1.60946 19.0145 1.59704 19.0086 1.59704V1.55766C18.9914 1.55345 18.9748 1.54719 18.959 1.53901C18.9471 1.52538 18.9371 1.51004 18.9293 1.49343C18.9112 1.50408 18.8919 1.51242 18.8718 1.51829H18.8203C18.8178 1.51596 18.8158 1.51309 18.8144 1.50987C18.813 1.50666 18.8123 1.50317 18.8123 1.49965C18.8123 1.49612 18.813 1.49263 18.8144 1.48941C18.8158 1.4862 18.8178 1.48332 18.8203 1.48099C18.8203 1.46649 18.8203 1.45406 18.8065 1.44577C18.7893 1.4564 18.775 1.47136 18.7648 1.48928L18.7391 1.53073C18.7299 1.5401 18.7243 1.5526 18.7232 1.56595C18.7232 1.57631 18.7232 1.58045 18.6975 1.57838C18.6717 1.57631 18.6757 1.56595 18.6717 1.57838C18.6656 1.5858 18.659 1.59273 18.6519 1.5991C18.642 1.57273 18.6399 1.54384 18.646 1.51622C18.6563 1.49515 18.6604 1.47136 18.6579 1.44784C18.6172 1.47061 18.5792 1.49844 18.5449 1.53073C18.5188 1.56807 18.4956 1.60757 18.4756 1.64884C18.4518 1.70893 18.4221 1.77731 18.3844 1.85605L18.2715 2.09227C18.2338 2.17309 18.1962 2.25183 18.1586 2.32435C18.1209 2.39688 18.0892 2.46526 18.0654 2.51913L17.7405 3.0724C17.7167 3.1097 17.687 3.1615 17.6434 3.22781C17.5998 3.29412 17.5582 3.36664 17.5087 3.43502C17.4591 3.5034 17.4096 3.57593 17.3601 3.64224C17.3257 3.68887 17.2858 3.73066 17.2412 3.76656C17.2059 3.80363 17.16 3.82765 17.1104 3.83495C17.0971 3.8352 17.084 3.83167 17.0725 3.82473C17.061 3.8178 17.0515 3.80772 17.045 3.79557C17.0303 3.76403 17.0235 3.7291 17.0252 3.69404C17.022 3.65613 17.022 3.61798 17.0252 3.58007C17.0499 3.3352 17.0957 3.09316 17.1619 2.85689C17.2194 2.64968 17.2848 2.4549 17.3601 2.24976C17.3819 2.17102 17.4056 2.09227 17.4334 2.01975L17.5344 1.75866C17.5701 1.66542 17.6077 1.55145 17.6434 1.43126C17.6813 1.30117 17.6961 1.16492 17.687 1.02927L17.6731 0.92359C17.6537 0.845299 17.6147 0.773802 17.5602 0.716376C17.509 0.660382 17.4533 0.609077 17.3938 0.563033C17.3517 0.529729 17.2998 0.512872 17.2471 0.515378C17.1818 0.515378 17.1263 0.515378 17.0827 0.515378C17.044 0.507895 17.0044 0.507895 16.9658 0.515378L16.8667 0.554743C16.8309 0.566896 16.7968 0.584339 16.7657 0.606547C16.7439 0.623124 16.6844 0.670786 16.5893 0.751599C16.5444 0.790683 16.502 0.832917 16.4625 0.878003C16.413 0.936023 16.3595 1.00025 16.306 1.07278C16.2525 1.1453 16.197 1.21991 16.1435 1.29865C16.09 1.37739 16.0445 1.45405 16.0068 1.52658L15.985 1.56802C15.9731 1.58874 15.9632 1.61154 15.9494 1.63433C15.9388 1.65651 15.9269 1.67796 15.9137 1.69857C15.9018 1.71722 15.8959 1.7255 15.8899 1.72758C15.8884 1.71867 15.8884 1.70955 15.8899 1.70064C15.8888 1.68132 15.8888 1.66194 15.8899 1.64262C15.8899 1.61982 15.8899 1.59082 15.9038 1.55766C15.9177 1.52451 15.9038 1.51829 15.9177 1.4582C15.9315 1.39811 15.9414 1.33387 15.9573 1.25099C15.9731 1.1681 15.983 1.11422 15.9949 1.05413C16.002 1.0221 16.0066 0.989535 16.0088 0.956739C16.0017 0.869911 15.963 0.789241 15.9007 0.731395C15.8384 0.673549 15.7572 0.642947 15.6739 0.645918H15.567C15.5332 0.64652 15.5 0.655022 15.4699 0.670789C15.4185 0.700464 15.3741 0.741691 15.3398 0.791501C15.3056 0.841311 15.2823 0.898458 15.2717 0.958813C15.2693 1.01069 15.2613 1.06212 15.248 1.11215C15.2341 1.15359 15.2202 1.21162 15.2024 1.28414C15.1962 1.35992 15.1863 1.43531 15.1727 1.51C15.1588 1.58667 15.1429 1.6592 15.1251 1.72965C15.0934 1.88299 15.0677 2.0156 15.0498 2.12336C15.032 2.23111 15.0161 2.33057 15.0023 2.43418C15.0023 2.4694 15.0023 2.51085 14.9864 2.54815C14.9468 2.6041 14.9111 2.6559 14.8834 2.70148L14.7962 2.8341C14.7672 2.87825 14.7326 2.918 14.6932 2.95221C14.6464 2.99523 14.5967 3.0347 14.5446 3.07033L14.3663 3.1615C14.3261 3.18338 14.2843 3.20208 14.2414 3.21745C14.2038 3.23195 14.182 3.2361 14.1761 3.23195C14.1798 3.21459 14.1858 3.19786 14.1939 3.18222L14.2315 3.09934C14.2414 3.0715 14.2534 3.04448 14.2672 3.01852L14.293 2.97293C14.4068 2.69777 14.4816 2.40666 14.5149 2.10885C14.5347 1.86226 14.5426 1.68199 14.5406 1.57217C14.5242 1.46006 14.5004 1.34928 14.4693 1.24063C14.4347 1.12831 14.3818 1.02314 14.3128 0.929806C14.2779 0.879114 14.2325 0.837316 14.18 0.807545C14.1268 0.778441 14.0718 0.752836 14.0156 0.730876C13.9861 0.718305 13.9556 0.708597 13.9244 0.70187C13.8912 0.688644 13.8546 0.688644 13.8214 0.70187C13.7547 0.698859 13.688 0.705838 13.6233 0.722592C13.6131 0.738398 13.5975 0.749519 13.5797 0.753673H13.5242C13.4917 0.7567 13.4603 0.76809 13.433 0.786828C13.4093 0.805477 13.3835 0.81998 13.3597 0.836558L13.2547 0.909084C13.2241 0.928523 13.1961 0.952223 13.1715 0.979536L12.7198 1.42712C12.7126 1.4441 12.7047 1.4607 12.696 1.47685C12.6839 1.49386 12.6692 1.50858 12.6524 1.52036C12.6243 1.54031 12.6034 1.56948 12.593 1.60325C12.5798 1.64027 12.5596 1.6741 12.5335 1.70271C12.5265 1.72649 12.5126 1.74746 12.4939 1.7628C12.4711 1.78473 12.4505 1.80904 12.4325 1.83533C12.3493 1.97347 12.272 2.11645 12.2006 2.26426C12.1749 2.31606 12.159 2.37202 12.1353 2.42589L12.1016 2.47147C12.1016 2.47147 12.1016 2.47147 12.1154 2.47147C12.1143 2.47833 12.1143 2.48534 12.1154 2.4922C12.1154 2.4922 12.1016 2.4922 12.0976 2.4922C12.0929 2.50031 12.0904 2.50963 12.0904 2.51913C12.0904 2.52864 12.0929 2.53796 12.0976 2.54607C12.0976 2.56472 12.0818 2.58337 12.0758 2.60202C12.0724 2.60667 12.0684 2.61084 12.0639 2.61445C12.0481 2.65382 12.0322 2.68698 12.0184 2.71392C12.0165 2.71928 12.0165 2.72513 12.0184 2.73049C12.0063 2.75263 11.9969 2.77631 11.9906 2.80095C11.9437 2.87513 11.9008 2.95191 11.8618 3.03095C11.8103 3.13042 11.7588 3.23817 11.7073 3.33763C11.6558 3.4371 11.6003 3.54485 11.5468 3.63395C11.5078 3.70564 11.4649 3.77483 11.418 3.84116C11.3467 3.94684 11.2595 4.06703 11.1545 4.20379C11.0689 4.32293 10.9713 4.43201 10.8632 4.52911C10.8236 4.55191 10.8018 4.56848 10.7979 4.58092C10.7939 4.59335 10.7741 4.612 10.7345 4.64101C10.7156 4.65503 10.6935 4.66342 10.6704 4.66524C10.6474 4.66707 10.6243 4.66227 10.6037 4.65137C10.5871 4.63697 10.5744 4.61834 10.5668 4.59728C10.5591 4.57622 10.5568 4.55345 10.5601 4.53118C10.5666 4.35873 10.5952 4.18797 10.6453 4.02351C10.6968 3.8536 10.7562 3.67746 10.8196 3.49926C10.883 3.32106 10.9445 3.13663 11.0019 2.94807C11.0596 2.76033 11.0968 2.5664 11.1129 2.36994C11.11 2.3251 11.11 2.2801 11.1129 2.23525C11.117 2.19068 11.108 2.14586 11.0871 2.10678L11.0257 2.03218C11.0049 2.00905 10.9869 1.9833 10.9722 1.95551C10.9659 1.94475 10.9567 1.9361 10.9458 1.9306C10.935 1.92509 10.9228 1.92295 10.9108 1.92443L10.8375 1.90992C10.8135 1.90269 10.789 1.89783 10.7642 1.89542C10.7386 1.90687 10.7121 1.91588 10.6849 1.92236L10.6096 1.93272L10.572 1.94308C10.556 1.94923 10.5412 1.95836 10.5284 1.97002C10.5145 1.99903 10.5066 2.01768 10.5026 2.0239L10.463 2.07984C10.4458 2.10139 10.4324 2.12594 10.4234 2.15237C10.37 2.252 10.3242 2.35594 10.2867 2.46319C10.2326 2.61625 10.1876 2.77264 10.1519 2.93149L10.0608 3.26303C10.041 3.3252 10.0311 3.36871 10.0251 3.3915C10.0192 3.4143 10.0251 3.40601 10.0251 3.41223C10.0191 3.42935 10.0118 3.44598 10.0033 3.46196L9.93993 3.5635C9.92011 3.59251 9.90229 3.62359 9.88446 3.65467C9.78539 3.78936 9.68631 3.93855 9.57734 4.09811C9.47942 4.24598 9.36938 4.38465 9.24844 4.51253C9.20643 4.56442 9.16073 4.61291 9.11173 4.65759C9.06219 4.70317 9.01464 4.7529 8.96709 4.80263C8.96878 4.80108 8.97012 4.79917 8.97105 4.79702C8.97197 4.79488 8.97245 4.79255 8.97245 4.7902C8.97245 4.78785 8.97197 4.78553 8.97105 4.78338C8.97012 4.78124 8.96878 4.77932 8.96709 4.77777C8.96779 4.73605 8.97176 4.69448 8.97898 4.65344C8.97898 4.60578 8.99284 4.56641 8.99879 4.53118C9.01969 4.34394 9.01969 4.1548 8.99879 3.96756C8.9821 3.77147 8.95564 3.57643 8.91953 3.38322L8.83235 2.96879L8.77291 2.72427C8.75508 2.65797 8.73527 2.57715 8.71347 2.48598C8.71347 2.48598 8.71347 2.47147 8.71347 2.45904C8.70924 2.44479 8.70593 2.43025 8.70357 2.41553V2.35751C8.68286 2.30638 8.67219 2.25141 8.67219 2.19588C8.67219 2.14035 8.68286 2.08539 8.70357 2.03425C8.73074 1.98047 8.76119 1.92856 8.79471 1.87884C8.81376 1.83978 8.818 1.79464 8.8066 1.75245C8.79273 1.71515 8.77886 1.6965 8.76102 1.69235C8.75162 1.66468 8.74434 1.63627 8.73923 1.60739C8.73923 1.56802 8.71546 1.54523 8.69366 1.54316L8.6362 1.51829L8.57676 1.49343C8.57676 1.47685 8.57676 1.47063 8.56289 1.47477C8.54902 1.47892 8.551 1.47478 8.54902 1.46442C8.54264 1.47149 8.53497 1.47716 8.52646 1.48107C8.51795 1.48499 8.50878 1.48707 8.49948 1.48721C8.48222 1.48988 8.46549 1.49548 8.44995 1.50379L8.34296 1.51622C8.34296 1.55559 8.32117 1.56802 8.29343 1.55559C8.26569 1.54316 8.2756 1.55559 8.24588 1.59081C8.21063 1.6307 8.1673 1.66185 8.11907 1.68199L8.08142 1.72758C8.07077 1.73785 8.06262 1.75065 8.05765 1.76488C8.01735 1.81384 7.9846 1.86906 7.96056 1.92857C7.91515 2.04907 7.8545 2.16267 7.78025 2.26633C7.70653 2.37218 7.64407 2.48614 7.59401 2.60617C7.54249 2.69182 7.49098 2.78506 7.43947 2.8859C7.38993 2.98744 7.33841 3.08276 7.2869 3.17393C7.23538 3.26511 7.21557 3.31069 7.17594 3.38115C7.13568 3.455 7.09931 3.53109 7.06697 3.60908V3.62566C7.06193 3.6294 7.05785 3.63438 7.05509 3.64016C7.05232 3.64595 7.05095 3.65235 7.05112 3.65881C7.05112 3.67125 7.05112 3.67954 7.05112 3.67954C6.9935 3.78431 6.94125 3.89221 6.8946 4.00279C6.86325 4.07703 6.83613 4.15314 6.81337 4.23073V4.25145C6.746 4.34884 6.67665 4.44415 6.61523 4.5519C6.51783 4.70018 6.40773 4.83889 6.28632 4.96633C6.24381 5.01773 6.19814 5.06619 6.14961 5.11139C6.09964 5.15707 6.05203 5.20548 6.00696 5.25643C6.00696 5.25643 5.99507 5.25643 6.00696 5.25643C6.01884 5.25643 6.00696 5.24193 6.00696 5.23157C6.00766 5.19054 6.01164 5.14965 6.01884 5.10931C6.01884 5.06165 6.03271 5.02021 6.03865 4.98498C6.06288 4.79815 6.0662 4.609 6.04856 4.42136C6.03072 4.22658 6.00299 4.0318 5.96733 3.83702L5.88015 3.42259C5.85637 3.3252 5.83656 3.24439 5.82071 3.17601C5.80486 3.10763 5.78305 3.03095 5.76126 2.93978V2.91077C5.75658 2.89665 5.75326 2.88207 5.75135 2.86725V2.80923C5.71083 2.70565 5.71083 2.58956 5.75135 2.48598C5.77853 2.43219 5.80898 2.38028 5.8425 2.33057C5.86174 2.29157 5.86599 2.24635 5.85439 2.20417C5.84052 2.16895 5.82664 2.14822 5.81079 2.14408C5.79948 2.11764 5.79149 2.08978 5.78702 2.06119C5.78702 2.01975 5.76523 1.99903 5.74343 1.99488C5.72297 1.98928 5.70307 1.98165 5.684 1.97209C5.66527 1.96121 5.6453 1.95285 5.62456 1.94722C5.62456 1.93064 5.62456 1.92443 5.61069 1.92857C5.59682 1.93272 5.5988 1.92857 5.59682 1.91614C5.58428 1.93005 5.56743 1.93886 5.54926 1.94101C5.53129 1.9419 5.51372 1.94685 5.49775 1.95551L5.41651 1.94308C5.41651 1.98245 5.39669 1.99488 5.36697 1.98245C5.33725 1.97002 5.34914 1.98245 5.31942 2.01975C5.28349 2.05829 5.24031 2.08863 5.19261 2.10885C5.18108 2.12558 5.16851 2.14151 5.15497 2.15651C5.14428 2.16592 5.13609 2.17805 5.13119 2.19174C5.09089 2.2407 5.05814 2.29592 5.03411 2.35543C4.98916 2.47575 4.92921 2.58932 4.85579 2.69319C4.78115 2.79879 4.71801 2.91277 4.66756 3.03303C4.61605 3.11799 4.56453 3.21123 4.515 3.31277C4.46546 3.4143 4.41197 3.51998 4.36046 3.60287L4.2495 3.81008C4.20885 3.88371 4.17245 3.95983 4.14052 4.03802V4.05459C4.13535 4.05769 4.13113 4.06225 4.12833 4.06775C4.12552 4.07325 4.12426 4.07946 4.12468 4.08567C4.12468 4.10018 4.12468 4.1064 4.12468 4.1064C4.05731 4.23487 4.00579 4.34055 3.96814 4.42965C3.93711 4.50402 3.91 4.58012 3.88691 4.65759C3.87112 4.70787 3.86178 4.76014 3.85917 4.813C3.8235 4.89174 3.78784 4.97255 3.7502 5.04922C3.7019 5.15338 3.64764 5.25441 3.58773 5.35175C3.5404 5.43591 3.48532 5.51503 3.42327 5.58798C3.3733 5.64901 3.31446 5.70146 3.24891 5.74339L3.17362 5.78276C3.14674 5.79479 3.11764 5.80045 3.08842 5.79934C3.05904 5.79239 3.03273 5.77535 3.0137 5.75094C2.99466 5.72652 2.984 5.69614 2.98342 5.66464C2.95982 5.54125 2.95117 5.41524 2.95766 5.28959C2.95766 5.19012 2.97548 5.08237 2.98935 4.98084C3.02238 4.79158 3.05606 4.63617 3.0904 4.51461C3.12475 4.39304 3.16042 4.2549 3.19741 4.10018C3.22713 3.99036 3.25883 3.87639 3.29647 3.75828C3.33412 3.64017 3.37374 3.51998 3.41733 3.40187C3.42922 3.36871 3.44507 3.3252 3.4629 3.27132C3.48073 3.21745 3.50253 3.16564 3.51838 3.1097C3.53423 3.05375 3.5481 2.9978 3.55998 2.94185C3.56724 2.8945 3.56724 2.84623 3.55998 2.79888C3.57807 2.76771 3.58702 2.73169 3.58574 2.69527C3.59166 2.67753 3.59313 2.6585 3.59001 2.63999C3.58689 2.62149 3.57928 2.60414 3.56792 2.58959C3.54248 2.55922 3.52053 2.52584 3.50253 2.49013C3.50104 2.48836 3.49921 2.48695 3.49716 2.48598C3.49511 2.48501 3.49289 2.48451 3.49064 2.48451C3.48839 2.48451 3.48617 2.48501 3.48412 2.48598C3.48207 2.48695 3.48024 2.48836 3.47875 2.49013C3.47875 2.49013 3.46092 2.49013 3.45101 2.46941C3.44384 2.47026 3.43693 2.47273 3.43077 2.47667C3.42461 2.48061 3.41935 2.48591 3.41535 2.4922C3.41535 2.50463 3.39752 2.4922 3.38959 2.47976C3.38167 2.46733 3.35987 2.43418 3.34402 2.43625H3.27864C3.2526 2.43994 3.22723 2.44762 3.20334 2.45904L3.07653 2.52743C3.05302 2.54127 3.03246 2.55998 3.0161 2.58243C2.99975 2.60488 2.98795 2.63059 2.98143 2.65797L2.91406 2.86519C2.88366 2.82868 2.85585 2.78989 2.83085 2.74915C2.80748 2.71118 2.77549 2.67986 2.73773 2.65797C2.69154 2.63338 2.6409 2.61926 2.58913 2.61653C2.50599 2.61347 2.42281 2.62113 2.34146 2.63932C2.32257 2.64274 2.30443 2.64976 2.28796 2.66004L2.24437 2.68698C2.12074 2.73751 2.00517 2.80738 1.9016 2.89419C1.79801 2.98215 1.70309 3.08072 1.61826 3.18844C1.5299 3.30078 1.44787 3.41839 1.37258 3.5407C1.29729 3.66503 1.22397 3.78936 1.15462 3.90954C1.15462 3.92819 1.13482 3.95306 1.11699 3.98621C1.09916 4.01937 1.08132 4.05252 1.06349 4.08982L1.00801 4.19343C0.995799 4.21722 0.985853 4.2422 0.978293 4.26802C0.930741 4.38683 0.873283 4.51322 0.805917 4.64722C0.740104 4.77906 0.688275 4.91803 0.651366 5.06165C0.642338 5.11568 0.629759 5.16899 0.61372 5.22121C0.59651 5.2786 0.58457 5.33758 0.578057 5.39734C0.579795 5.42803 0.572166 5.45851 0.556265 5.48437C0.540918 5.51085 0.531436 5.54059 0.528523 5.5714C0.495968 5.64738 0.483647 5.73114 0.492861 5.81384C0.501763 5.90131 0.501763 5.98953 0.492861 6.077C0.488057 6.10719 0.488057 6.13799 0.492861 6.16818C0.4989 6.19334 0.4989 6.21968 0.492861 6.24485C0.497003 6.32253 0.513754 6.3989 0.542394 6.47071C0.568152 6.52873 0.599849 6.59504 0.637495 6.67792C0.717108 6.80151 0.839142 6.88831 0.978293 6.92036C1.15082 6.94439 1.32597 6.90483 1.47363 6.80847C1.52713 6.77324 1.58855 6.72973 1.65591 6.67792C1.7227 6.62705 1.7821 6.56633 1.83225 6.49765C1.84235 6.47679 1.85575 6.45787 1.87188 6.4417C1.89048 6.42267 1.90648 6.40105 1.91943 6.37746L2.11757 6.10808C2.19003 6.012 2.25622 5.91093 2.3157 5.80555C2.33291 5.79192 2.34824 5.77589 2.36127 5.75789C2.37976 5.73697 2.39393 5.71228 2.40288 5.68537C2.39962 5.72812 2.39962 5.77108 2.40288 5.81384C2.40288 5.84285 2.40288 5.87808 2.41675 5.91538C2.4326 6.00241 2.44647 6.07286 2.46034 6.12259C2.47591 6.18589 2.49991 6.24657 2.53166 6.30287C2.56886 6.37008 2.61956 6.42806 2.68026 6.47278C2.78089 6.53611 2.89813 6.5644 3.01511 6.55359C3.13796 6.54313 3.25771 6.50795 3.3678 6.44999C3.48672 6.38598 3.59617 6.30433 3.69274 6.20755C3.78816 6.11383 3.87202 6.00802 3.94238 5.89258C3.94868 5.88342 3.95601 5.87508 3.96419 5.86772C3.96994 5.86212 3.97406 5.85494 3.97607 5.84699C4.02685 5.7782 4.07256 5.70547 4.11279 5.62942C4.12666 5.66257 4.13854 5.6978 4.1524 5.72888C4.19304 5.82842 4.2493 5.92018 4.31884 6.00034C4.38431 6.08188 4.46191 6.15185 4.54867 6.20755C4.62887 6.24398 4.71168 6.27378 4.79634 6.29665C4.88109 6.31998 4.96712 6.33797 5.05393 6.35052C5.16837 6.35092 5.28256 6.33912 5.39471 6.3153C5.50031 6.2916 5.60373 6.25832 5.7038 6.21583C5.7471 6.19822 5.78887 6.17673 5.82863 6.1516C5.86796 6.12755 5.90903 6.10677 5.95147 6.08944C5.99306 6.06936 6.03229 6.04433 6.06838 6.01484L6.16744 5.92573C6.16744 5.9133 6.18528 5.90501 6.1932 5.90501C6.20555 5.90033 6.21697 5.8933 6.22688 5.88429C6.23301 5.87928 6.2381 5.87303 6.24184 5.86591C6.24559 5.85878 6.24791 5.85094 6.24867 5.84285C6.24867 5.82835 6.26254 5.81384 6.28632 5.79934C6.38737 5.71231 6.48445 5.62735 6.57956 5.54032C6.679 5.45052 6.77236 5.35358 6.85893 5.25022C6.92234 5.17769 6.97781 5.10931 7.02933 5.043C7.06103 5.1321 7.09471 5.21913 7.12839 5.30202C7.17099 5.40094 7.22777 5.49248 7.2968 5.57347C7.36181 5.65549 7.4395 5.72553 7.52665 5.78068C7.60651 5.81619 7.6886 5.84596 7.77233 5.86979C7.85159 5.89051 7.93876 5.90916 8.02991 5.92366C8.14501 5.92416 8.25987 5.91236 8.37269 5.88844C8.47797 5.86348 8.58129 5.83023 8.68178 5.78897C8.72406 5.77049 8.76511 5.74903 8.80462 5.72474C8.84415 5.70109 8.8852 5.68032 8.92746 5.66258C8.97036 5.64304 9.01039 5.61723 9.04634 5.58591L9.1454 5.4968C9.15531 5.48437 9.16324 5.47815 9.17116 5.47815C9.18305 5.47279 9.19383 5.46505 9.20287 5.45536C9.20936 5.45055 9.21483 5.44438 9.21892 5.43725C9.22301 5.43012 9.22564 5.42217 9.22665 5.41392C9.22665 5.40148 9.24052 5.38698 9.26429 5.37247L9.55753 5.11345C9.6565 5.02311 9.74981 4.92622 9.83689 4.82335L9.87256 4.78192C9.87494 4.87529 9.88556 4.96824 9.90427 5.05958C9.93384 5.19445 10.0031 5.31621 10.1024 5.4077C10.1622 5.45509 10.2309 5.48865 10.304 5.50615C10.3771 5.52366 10.4529 5.52471 10.5264 5.50923C10.6433 5.49633 10.7572 5.4627 10.8632 5.40977C10.9729 5.35635 11.0766 5.29033 11.1723 5.21292C11.2699 5.13348 11.3625 5.04766 11.4497 4.95597C11.5395 4.86204 11.6228 4.77086 11.6994 4.68245C11.7449 4.61407 11.7766 4.56434 11.7965 4.53118L11.846 4.44208C11.846 4.48767 11.846 4.53119 11.8618 4.5747C11.8563 4.63122 11.8689 4.68806 11.8975 4.73633C11.9009 4.7616 11.9082 4.78611 11.9193 4.80885L11.9569 4.87931C11.9728 4.92075 11.9906 4.96012 12.0085 4.99949C12.0283 5.04111 12.0622 5.07358 12.1036 5.09066C12.1361 5.12182 12.172 5.14894 12.2106 5.17148L12.3314 5.24193C12.3928 5.25539 12.4551 5.26438 12.5177 5.26886C12.5836 5.2756 12.6499 5.2756 12.7158 5.26886C12.7847 5.26005 12.8517 5.23903 12.9139 5.2067L13.0942 5.10517C13.1886 5.05367 13.277 4.99111 13.3578 4.91868C13.4289 4.85515 13.4951 4.78586 13.5559 4.71146C13.6124 4.65902 13.6606 4.59746 13.6986 4.52911C13.7305 4.47046 13.7655 4.41373 13.8036 4.3592L13.8412 4.2846C13.8425 4.27706 13.8425 4.26934 13.8412 4.26181C13.8399 4.25496 13.8399 4.24793 13.8412 4.24108C13.8536 4.21429 13.8682 4.18864 13.8848 4.16442C13.8982 4.13969 13.9102 4.11408 13.9205 4.08775C13.9205 4.08775 13.9205 4.07324 13.9205 4.07117C13.9205 4.06909 13.9205 4.07117 13.9205 4.05667L13.968 4.00071C13.9858 3.96963 14.0215 3.95513 14.077 3.95098C14.119 3.95341 14.1606 3.94179 14.1959 3.91783C14.3064 3.88843 14.4144 3.84962 14.5188 3.80179C14.6377 3.74792 14.717 3.71062 14.7625 3.68783C14.8081 3.66503 14.8259 3.65467 14.8576 3.63809L14.8041 3.93026C14.7903 3.9945 14.7784 4.05459 14.7665 4.11469C14.7565 4.17497 14.7506 4.2359 14.7487 4.29704C14.7477 4.32069 14.7423 4.34391 14.7328 4.36541C14.7328 4.38406 14.7328 4.3965 14.7328 4.40686C14.7425 4.44399 14.7471 4.48235 14.7467 4.52082C14.7464 4.54556 14.7526 4.56991 14.7645 4.59128C14.7742 4.61779 14.7883 4.64234 14.8061 4.6638C14.8358 4.6866 14.8477 4.70525 14.8438 4.71561C14.8438 4.72614 14.846 4.73654 14.8501 4.74617C14.8542 4.75579 14.8601 4.76443 14.8675 4.77155C14.8961 4.80331 14.9315 4.82742 14.9708 4.84185C15.0101 4.85628 15.0522 4.86059 15.0934 4.85444C15.1815 4.84199 15.2667 4.81323 15.3451 4.76948C15.3807 4.75291 15.3946 4.73219 15.3886 4.70525C15.3827 4.67831 15.3886 4.64929 15.4283 4.61614C15.4679 4.58299 15.46 4.57884 15.4718 4.57677C15.4837 4.5747 15.4897 4.5519 15.4937 4.50632C15.4976 4.46073 15.4937 4.42758 15.4937 4.41722C15.4937 4.40686 15.5135 4.37992 15.5194 4.3364C15.5215 4.27253 15.5275 4.20886 15.5372 4.14577C15.5457 4.08373 15.5638 4.02355 15.5907 3.96756C15.5907 3.92819 15.5907 3.89503 15.5907 3.87017C15.5907 3.8453 15.5907 3.82251 15.5907 3.80593C15.5949 3.7856 15.6002 3.76555 15.6066 3.74585C15.6066 3.72305 15.6264 3.69196 15.6423 3.65674C15.6491 3.63578 15.6544 3.61431 15.6581 3.5925L15.6759 3.52412C15.6952 3.47149 15.7079 3.41646 15.7136 3.36042C15.721 3.29879 15.7391 3.2391 15.7671 3.18429C15.8005 3.07307 15.8395 2.96379 15.884 2.85689C15.9322 2.73752 15.9885 2.62187 16.0524 2.51084C16.0702 2.48183 16.096 2.43625 16.1297 2.37616C16.1633 2.31606 16.201 2.25183 16.2406 2.18967C16.2802 2.1275 16.3199 2.06534 16.3575 2.00939L16.4407 1.8892C16.535 1.75096 16.6418 1.62258 16.7597 1.50586C16.835 1.44162 16.8826 1.41883 16.9024 1.43126C16.9222 1.44369 16.9242 1.48928 16.9024 1.55973C16.88 1.63976 16.8522 1.71802 16.8192 1.79389C16.7295 1.97582 16.654 2.165 16.5933 2.35958C16.5304 2.56881 16.4801 2.78197 16.4427 2.9978C16.417 3.12834 16.3952 3.25267 16.3753 3.36871C16.357 3.48725 16.3477 3.60712 16.3476 3.7272C16.3428 3.78926 16.3428 3.85163 16.3476 3.91369C16.3557 3.9749 16.3689 4.03523 16.3872 4.09396C16.4068 4.16508 16.432 4.23439 16.4625 4.30118C16.4947 4.36513 16.5463 4.41613 16.6091 4.44623L16.7043 4.50632C16.7538 4.54265 16.8122 4.56349 16.8727 4.56641C16.9329 4.56905 16.9933 4.56558 17.053 4.55605C17.0897 4.55046 17.126 4.54285 17.1619 4.53326L17.2927 4.49803C17.3356 4.48627 17.3774 4.47031 17.4175 4.45037C17.45 4.43481 17.4806 4.41534 17.5087 4.39235L17.6553 4.25352C17.7038 4.21124 17.7495 4.16554 17.792 4.11675C17.8022 4.10438 17.8115 4.09122 17.8198 4.07738C17.8273 4.06231 17.839 4.05001 17.8534 4.04216L17.9049 4.00486C17.9208 3.9945 17.9267 3.97378 17.9287 3.94063C17.9307 3.90747 17.9466 3.91576 17.9703 3.90126C18.0536 3.79558 18.1288 3.69404 18.2002 3.57593C18.2715 3.45782 18.3369 3.35213 18.3983 3.22988C18.4419 3.15321 18.4875 3.07032 18.537 2.98537C18.5892 2.89942 18.6349 2.80936 18.6737 2.71599L18.6955 2.67247C18.7037 2.65495 18.711 2.63697 18.7173 2.6186C18.7339 2.57024 18.7538 2.52316 18.7767 2.4777L18.8679 2.28913L18.959 2.09642C18.9819 2.04665 19.0017 1.99544 19.0185 1.94308C19.0185 1.93065 19.0185 1.91614 19.0284 1.89957C19.0298 1.8923 19.0293 1.88475 19.0269 1.87779C19.0244 1.87082 19.0201 1.86472 19.0145 1.8602C19.0049 1.83668 18.9907 1.81551 18.9729 1.79803ZM2.59705 3.69818C2.57554 3.72513 2.56059 3.75713 2.55347 3.79143C2.55385 3.8175 2.54463 3.84273 2.52771 3.86188C2.51951 3.87291 2.51367 3.88564 2.5106 3.89923C2.50752 3.91281 2.50727 3.92693 2.50987 3.94063C2.50441 3.95029 2.5004 3.96077 2.49798 3.97171C2.49798 3.97171 2.49798 3.98621 2.49798 4.009C2.45231 4.18221 2.38573 4.34864 2.29985 4.50425C2.24239 4.63894 2.19088 4.75912 2.14333 4.86273C2.09455 4.96931 2.04031 5.07307 1.98085 5.17355C1.94956 5.24098 1.91172 5.30486 1.86792 5.36419C1.82298 5.42312 1.7813 5.48469 1.74309 5.5486C1.59449 5.7869 1.4756 5.91952 1.3904 5.94646C1.37309 5.95426 1.35432 5.95786 1.33549 5.95699C1.31666 5.95612 1.29825 5.95081 1.28166 5.94144C1.26508 5.93207 1.25073 5.91889 1.23971 5.90289C1.22869 5.88689 1.22128 5.86849 1.21803 5.84907C1.19113 5.72773 1.19113 5.60156 1.21803 5.48023C1.23989 5.32563 1.2875 5.17625 1.35871 5.03886C1.37456 5.00363 1.38843 4.97462 1.39834 4.94976L1.42608 4.88345C1.42608 4.86273 1.44193 4.842 1.44986 4.81714C1.46068 4.78334 1.47461 4.75073 1.49146 4.71975C1.56278 4.57055 1.64006 4.41515 1.72525 4.24937C1.79721 4.1046 1.88002 3.96603 1.97292 3.83495C1.9994 3.78207 2.02989 3.73148 2.06407 3.68368C2.08784 3.65674 2.12153 3.61944 2.16909 3.57385C2.18295 3.55106 2.18692 3.53656 2.18097 3.53863L2.22654 3.52412C2.24097 3.51184 2.2525 3.49624 2.26022 3.47854C2.27409 3.45367 2.28399 3.44124 2.29588 3.43917L2.34542 3.40187C2.36122 3.39196 2.37586 3.38014 2.38901 3.36664C2.40925 3.35858 2.42704 3.34498 2.44053 3.32727C2.45836 3.31276 2.46628 3.31069 2.46232 3.32727C2.45836 3.34385 2.46232 3.32727 2.48411 3.32727H2.49402C2.49692 3.32673 2.49967 3.32552 2.50207 3.32373C2.50447 3.32193 2.50646 3.31961 2.50789 3.31691C2.53761 3.30241 2.56337 3.31691 2.58516 3.36871C2.60885 3.41835 2.62937 3.46958 2.64658 3.52205L2.62281 3.64224C2.62677 3.64638 2.62281 3.66917 2.59705 3.69818ZM5.37094 4.97048C5.37142 5.0311 5.36204 5.09136 5.3432 5.14868C5.33654 5.22201 5.3142 5.29283 5.27782 5.3559L5.1946 5.48437C5.16596 5.50803 5.1362 5.53016 5.10543 5.55068C5.07678 5.57159 5.04446 5.58637 5.01033 5.59419C4.98408 5.60856 4.95476 5.61569 4.92514 5.61491C4.8915 5.6086 4.85838 5.59959 4.82607 5.58798C4.7872 5.56992 4.75368 5.5413 4.72898 5.50509C4.69514 5.46507 4.6677 5.41959 4.64774 5.3704C4.62839 5.32936 4.61567 5.28525 4.6101 5.23986C4.59821 5.17769 4.59227 5.13211 4.5883 5.10517C4.57779 5.06611 4.57377 5.02546 4.57642 4.98498C4.57833 4.95047 4.57833 4.91588 4.57642 4.88137C4.58011 4.86317 4.58474 4.84519 4.59029 4.8275C4.59549 4.80573 4.59549 4.78296 4.59029 4.76119C4.59292 4.73312 4.6003 4.70575 4.61208 4.68038C4.62334 4.65542 4.63327 4.62982 4.6418 4.60371C4.68156 4.55414 4.71062 4.49618 4.727 4.43379C4.74062 4.37602 4.76126 4.32031 4.78842 4.26802C4.81037 4.21623 4.83621 4.16634 4.8657 4.11883C4.89403 4.07031 4.91603 4.01804 4.93109 3.96342C4.93475 3.94026 4.94682 3.91948 4.96477 3.9054C4.98253 3.88911 4.99615 3.86846 5.00439 3.8453L5.08364 3.63809C5.10949 3.56727 5.13926 3.49808 5.1728 3.43088C5.17222 3.42619 5.17283 3.42142 5.17457 3.41706C5.17631 3.41269 5.17912 3.40888 5.18271 3.40601C5.19102 3.39428 5.19831 3.3818 5.2045 3.36871C5.20914 3.40448 5.21644 3.43981 5.2263 3.4744C5.23544 3.49686 5.24144 3.52059 5.24413 3.54485L5.29565 3.81422C5.3136 3.87283 5.32555 3.93326 5.33131 3.9945C5.33131 4.05873 5.34319 4.12298 5.3531 4.18721C5.36527 4.28622 5.37255 4.38581 5.37491 4.48559C5.37491 4.58506 5.37491 4.69281 5.37491 4.78398C5.36404 4.84552 5.3627 4.9085 5.37094 4.97048ZM8.34296 4.54155C8.34375 4.60304 8.33367 4.66416 8.31324 4.72182C8.3058 4.79468 8.28423 4.86519 8.24984 4.92904C8.22012 4.97048 8.19436 5.01399 8.16662 5.05543C8.1377 5.08029 8.10726 5.10313 8.07548 5.12382C8.04814 5.14536 8.01616 5.15959 7.98235 5.16526C7.95642 5.18049 7.92686 5.18768 7.89716 5.18598C7.86327 5.18094 7.83004 5.1719 7.79809 5.15904C7.75814 5.14297 7.72366 5.11484 7.69902 5.07823C7.66629 5.03735 7.63898 4.99204 7.61779 4.94354C7.59925 4.9016 7.5872 4.85683 7.58212 4.81092C7.57023 4.74876 7.56429 4.70525 7.56033 4.67831C7.54981 4.63925 7.54579 4.5986 7.54844 4.55812C7.54844 4.52082 7.54844 4.48767 7.54844 4.45245C7.54844 4.41722 7.54844 4.41929 7.56033 4.40064C7.56561 4.37889 7.56561 4.35609 7.56033 4.33433C7.56294 4.30559 7.57031 4.27754 7.58212 4.25145C7.59401 4.2252 7.60392 4.20033 7.61184 4.17685C7.6512 4.127 7.68021 4.06913 7.69704 4.00693C7.71095 3.94859 7.73158 3.89223 7.75846 3.83909C7.78044 3.78798 7.80628 3.73878 7.83574 3.69197C7.86407 3.64345 7.88607 3.59118 7.90112 3.53656C7.90248 3.52465 7.90616 3.51317 7.91196 3.50283C7.91776 3.49249 7.92554 3.48351 7.9348 3.47646C7.95298 3.46056 7.96667 3.43979 7.97443 3.41638L8.05368 3.20916C8.07988 3.13849 8.10964 3.06932 8.14284 3.00195C8.14091 2.99774 8.1399 2.99314 8.1399 2.98848C8.1399 2.98381 8.14091 2.97921 8.14284 2.97501C8.15206 2.96395 8.15943 2.95133 8.16464 2.93771C8.16906 2.97351 8.17636 3.00886 8.18644 3.04339C8.18644 3.07032 8.2003 3.09519 8.20426 3.11591L8.25578 3.38322C8.27353 3.44259 8.28548 3.50368 8.29144 3.56557C8.29144 3.62981 8.30334 3.69197 8.31127 3.75828C8.32509 3.85644 8.33303 3.9554 8.33504 4.05459C8.33504 4.15613 8.33504 4.26181 8.33504 4.35298C8.33141 4.41643 8.33742 4.48007 8.35287 4.54155H8.34296ZM13.2745 3.87639C13.2666 3.89846 13.2559 3.91936 13.2428 3.93855C13.2428 3.95099 13.225 3.96135 13.2171 3.97171L13.1854 4.00486C13.1668 4.02573 13.1496 4.04787 13.1339 4.07117C13.1204 4.09486 13.1091 4.11984 13.1002 4.14577C13.1008 4.15197 13.1008 4.15821 13.1002 4.16442L13.0823 4.17892C13.0614 4.19861 13.0427 4.22088 13.0269 4.24523L12.9516 4.33433C12.9278 4.36334 12.906 4.39235 12.8842 4.42343C12.8667 4.44193 12.8474 4.45858 12.8268 4.47316C12.8093 4.48522 12.795 4.5016 12.7851 4.52082C12.7761 4.5314 12.7652 4.53997 12.7529 4.54602C12.7406 4.55207 12.7274 4.55548 12.7138 4.55605C12.6801 4.55605 12.6583 4.57263 12.6504 4.59128C12.6425 4.60993 12.6247 4.60785 12.6167 4.60371C12.6001 4.59755 12.5819 4.59755 12.5652 4.60371L12.5097 4.53533C12.5042 4.49713 12.4949 4.45963 12.482 4.42343C12.4697 4.38718 12.4611 4.34967 12.4562 4.31154C12.4562 4.21 12.4562 4.11469 12.4562 4.02351C12.4497 3.92599 12.4584 3.828 12.482 3.73341C12.482 3.69404 12.482 3.66296 12.482 3.64016C12.482 3.61737 12.482 3.59872 12.4919 3.58422C12.4948 3.57196 12.4948 3.55917 12.4919 3.54692C12.4919 3.54692 12.4919 3.5179 12.4919 3.49511C12.5007 3.43699 12.5174 3.38048 12.5414 3.32727C12.5613 3.27483 12.5865 3.22481 12.6167 3.17807C12.6156 3.16983 12.6156 3.16145 12.6167 3.15321C12.6187 3.14788 12.6187 3.14197 12.6167 3.13664C12.6425 3.20087 12.6623 3.25267 12.6782 3.29826C12.6941 3.34058 12.7133 3.38146 12.7356 3.42052C12.758 3.45897 12.7838 3.49505 12.8129 3.52827C12.8516 3.57224 12.894 3.61247 12.9397 3.64845C12.9898 3.69018 13.0469 3.72179 13.1081 3.7417C13.1669 3.75972 13.2245 3.78187 13.2805 3.80801C13.2805 3.80801 13.2805 3.82873 13.2805 3.83702C13.2844 3.84263 13.2868 3.84923 13.2875 3.85614C13.2882 3.86306 13.2872 3.87005 13.2844 3.87639H13.2745ZM13.8432 2.17516C13.8234 2.27462 13.7976 2.38237 13.7679 2.50049C13.7382 2.6186 13.7045 2.73878 13.6668 2.85689C13.6364 2.95975 13.5959 3.05904 13.546 3.15321C13.5307 3.17089 13.5198 3.19225 13.5143 3.21538C13.5077 3.24089 13.4977 3.2653 13.4846 3.2879C13.4039 3.27724 13.3278 3.24244 13.2656 3.18767C13.2034 3.13289 13.1577 3.06048 13.1339 2.97915C13.114 2.91077 13.1002 2.85482 13.0922 2.81545C13.0854 2.78329 13.0801 2.75079 13.0764 2.71806C13.0745 2.69462 13.0745 2.67105 13.0764 2.64761C13.0752 2.61997 13.0698 2.59271 13.0606 2.5668C13.0717 2.52858 13.0764 2.4886 13.0744 2.44868C13.0737 2.4068 13.0832 2.36542 13.1022 2.3285C13.1085 2.28532 13.1191 2.24295 13.1339 2.2021L13.1715 2.06741C13.1972 1.98539 13.2368 1.90889 13.2884 1.84155C13.3643 1.72937 13.4506 1.62526 13.546 1.53073C13.5707 1.50254 13.6018 1.48131 13.6364 1.469C13.6711 1.45669 13.7081 1.45369 13.7441 1.46027C13.7765 1.46572 13.8062 1.48235 13.8284 1.50752C13.8507 1.53268 13.8643 1.56493 13.867 1.5991C13.867 1.63847 13.867 1.66748 13.8788 1.69028C13.8907 1.71307 13.8788 1.7338 13.8788 1.75659C13.8788 1.77938 13.8788 1.80425 13.8788 1.83533V1.95551C13.8741 2.02917 13.8655 2.10249 13.8531 2.17516H13.8432Z" fill="#B94E9C"/>
</svg>
