<svg width="9" height="5" viewBox="0 0 9 5" fill="none" xmlns="http://www.w3.org/2000/svg">
<path d="M0.866855 1.78817C0.865345 1.79287 0.865345 1.79797 0.866855 1.80268C0.880725 1.91043 0.894595 2.02025 0.904501 2.128C0.93224 2.4181 0.950069 2.7082 0.950069 2.9983V3.16407C0.950069 3.16407 0.950069 3.30291 0.950069 3.4376C0.950069 3.57229 0.950069 3.7049 0.950069 3.69454C0.939199 3.7694 0.939199 3.84554 0.950069 3.9204C0.950069 3.9204 0.967899 3.9204 0.985731 3.89346C1.00356 3.86653 0.985731 3.89346 0.985731 3.89346C1.04669 3.91096 1.10902 3.92275 1.17198 3.92869C1.37011 3.95978 1.66732 3.98257 1.66732 3.98257H6.0025H6.31953C6.31953 3.98257 6.33339 3.98257 6.33537 3.98257L6.35916 3.9577C6.35916 3.97013 6.35916 3.98464 6.35916 3.99915C6.35916 4.07167 6.35916 4.16906 6.35916 4.26645C6.35916 4.36384 6.34726 4.45916 6.33934 4.53376C6.33141 4.60835 6.32745 4.65808 6.32745 4.65808V4.78034C6.32867 4.81927 6.33264 4.85806 6.33934 4.89638C6.35717 4.99584 6.3968 5.05801 6.44435 4.89638C6.47044 4.82866 6.49292 4.75948 6.51171 4.68917L6.52162 4.57106C6.56421 4.54316 6.60523 4.51272 6.64447 4.47988C6.8109 4.35348 7.04074 4.16491 7.04074 4.16491L7.1715 4.04266C7.38153 3.83544 7.59551 3.64688 7.80356 3.44381C7.90857 3.34228 8.00169 3.23659 8.11463 3.13506L8.27313 2.95686C8.29691 2.92992 8.32465 2.90298 8.34843 2.8719L8.41975 2.78487C8.48088 2.70242 8.54707 2.62421 8.61789 2.55072C8.61854 2.54591 8.61854 2.54103 8.61789 2.53621C8.65554 2.56389 8.69457 2.58948 8.73479 2.61288C8.77124 2.63715 8.80894 2.65929 8.84773 2.67919H8.82395H8.8081C8.76144 2.71772 8.71772 2.75998 8.67732 2.80559L8.65157 2.8346L8.62582 2.86154L8.56835 2.91541C8.29096 3.17236 8.00169 3.42309 7.71439 3.67382L7.28048 4.04887L7.06452 4.23951L6.91195 4.37628L6.71381 4.57313C6.62069 4.67052 6.53351 4.78034 6.54144 4.76377C6.39878 4.93575 6.32745 5.0663 6.6088 4.8508C6.77721 4.72854 7.00507 4.54619 7.00507 4.54619L7.1517 4.41565L7.36964 4.22293L7.80949 3.83959C8.10273 3.58472 8.4039 3.33192 8.68327 3.06254L8.7447 3.00659C8.75623 2.99736 8.76684 2.98695 8.77639 2.97551L8.80413 2.94443C8.83482 2.90735 8.86938 2.87399 8.90717 2.84496C8.90717 2.84496 8.90717 2.8346 8.90717 2.83253C8.90717 2.77865 8.91905 2.73928 8.90717 2.7082C8.96264 2.7227 8.95075 2.68126 8.80017 2.53C8.64958 2.37873 8.43957 2.17359 8.43957 2.17359L8.30088 2.05755C8.05321 1.85034 7.80752 1.64312 7.56777 1.43591C7.44691 1.32816 7.32605 1.22869 7.20717 1.11058L6.85053 0.774895C6.77278 0.711161 6.6993 0.641927 6.6306 0.567681H6.61673C6.59444 0.563827 6.57154 0.567451 6.55134 0.578039V0.549033C6.55246 0.539398 6.55246 0.529654 6.55134 0.52002C6.54191 0.541537 6.52993 0.561729 6.51568 0.580113C6.50129 0.57106 6.48491 0.566061 6.46813 0.565607C6.42256 0.555246 6.40076 0.536598 6.38887 0.540742C6.38679 0.592162 6.38149 0.643382 6.37302 0.694079C6.37302 0.752099 6.36311 0.810122 6.36113 0.86607V0.924089C6.36113 0.977965 6.36113 1.03184 6.36113 1.08572L6.38095 1.36546C6.38095 1.50222 6.39679 1.63483 6.39877 1.6224H6.07978H1.67723C1.67723 1.6224 1.14226 1.65348 1.16406 1.6597C1.02933 1.6742 0.924313 1.697 0.952052 1.72186C0.934206 1.72607 0.917399 1.73414 0.902724 1.74557C0.888048 1.75699 0.875832 1.7715 0.866855 1.78817ZM8.28899 2.2917L8.3187 2.31657L8.47325 2.42847C8.39796 2.50513 8.33852 2.58387 8.27512 2.65847L8.20973 2.74135L8.1384 2.81802L7.9898 2.97551C7.89074 3.07911 7.79167 3.18272 7.68468 3.28011C7.48654 3.48733 7.26462 3.67796 7.0546 3.87689L6.94167 3.98257L6.7574 4.18979C6.66626 4.29132 6.57908 4.397 6.58899 4.38457C6.59889 4.37213 6.55729 4.42394 6.5454 4.44259C6.5454 4.38871 6.5454 4.33069 6.55729 4.2706C6.56918 4.2105 6.55729 4.17735 6.55729 4.13383L6.62267 4.07581C6.77919 3.93698 6.99714 3.73599 6.99714 3.73599L7.12197 3.60544C7.29435 3.42309 7.47069 3.24282 7.64307 3.05632C7.72826 2.96515 7.81544 2.86776 7.89667 2.77451L7.96206 2.69992L8.0215 2.62117L8.13444 2.4699C8.18106 2.40606 8.23276 2.34644 8.28899 2.2917ZM8.1384 2.1653L8.09877 2.20467C8.05915 2.24819 8.02349 2.29378 7.9898 2.33729C7.90857 2.44297 7.84318 2.5445 7.76194 2.63153C7.68071 2.71856 7.59552 2.81803 7.51032 2.91127C7.33992 3.09362 7.16358 3.2739 6.98922 3.45832L6.88619 3.5785L6.71183 3.78572C6.64248 3.87275 6.5771 3.95978 6.56125 3.99293V3.98257C6.56125 3.90176 6.54936 3.84788 6.54936 3.84581C6.52693 3.8354 6.50255 3.83044 6.47803 3.8313L6.54738 3.77121C6.70786 3.63445 6.91789 3.42102 6.91789 3.42102L7.03677 3.28425C7.17349 3.1247 7.3102 2.96308 7.43304 2.80145L7.63118 2.55694L7.73223 2.43261L7.78375 2.3663L7.82931 2.29792C7.87863 2.21485 7.93571 2.13711 7.99971 2.06584L8.1384 2.1653ZM7.756 1.84205L7.84912 1.92286C7.78276 1.9991 7.72246 2.08087 7.66883 2.16737L7.62721 2.23161C7.61333 2.25203 7.59811 2.27142 7.58165 2.28963L7.48456 2.40981L7.28643 2.65433C7.15169 2.81388 7.01696 2.97551 6.89016 3.13299L6.78911 3.25111L6.62267 3.46868C6.54143 3.57643 6.46021 3.67589 6.47011 3.67589C6.43808 3.71933 6.40895 3.76503 6.38293 3.81265C6.37259 3.79991 6.36059 3.78875 6.34727 3.7795H6.33537H6.17093L6.21056 3.7422C6.3651 3.59715 6.56521 3.37336 6.56521 3.37336L6.67617 3.23038C6.9912 2.81595 7.30029 2.41603 7.62325 2.02232L7.756 1.84205ZM7.544 1.65763C7.56579 1.67835 7.58759 1.69493 7.60939 1.71357L7.46871 1.88349C7.14377 2.28134 6.8327 2.69163 6.51965 3.0957L6.42255 3.22002L6.26801 3.44381C6.19074 3.55571 6.11545 3.66346 6.12338 3.65103C6.09762 3.69247 6.07185 3.73184 6.05402 3.76499H5.69738C5.75156 3.72761 5.80142 3.68381 5.84598 3.63445C6.00053 3.49147 6.20461 3.27597 6.20461 3.27597L6.32151 3.13713C6.67023 2.72271 7.02687 2.30828 7.34983 1.86691C7.40927 1.7861 7.46078 1.70736 7.51229 1.62447L7.544 1.65763ZM7.14773 1.295L7.15962 1.30744L6.96148 1.5706C6.60286 2.0244 6.26206 2.47819 5.90344 2.92163L5.80635 3.04182C5.80635 3.04182 5.72512 3.15371 5.64388 3.26146C5.56265 3.36922 5.48339 3.46868 5.4933 3.46868C5.36451 3.64895 5.29517 3.78571 5.56662 3.54949C5.72711 3.41273 5.93316 3.19515 5.93316 3.19515L6.05007 3.05425C6.40869 2.60874 6.75542 2.14872 7.10413 1.70528L7.30227 1.45042C7.30295 1.44491 7.30295 1.43934 7.30227 1.43383L7.37756 1.50222C7.32605 1.58718 7.26859 1.67213 7.21113 1.75087C6.89016 2.18809 6.53945 2.5963 6.19073 3.0128L6.08968 3.13299L5.9292 3.35471C5.84994 3.46454 5.77267 3.57436 5.78258 3.56193C5.73508 3.62262 5.70062 3.69329 5.68153 3.76914H4.96033C5.10893 3.62616 5.30111 3.43552 5.30111 3.43552L6.0778 2.56108C6.21847 2.39738 6.36114 2.23161 6.49587 2.06169C6.56522 1.97466 6.63258 1.88764 6.69401 1.79853C6.72769 1.75502 6.7574 1.70943 6.78911 1.66385L6.81288 1.63069V1.61826V1.60583L6.82279 1.58718L6.86241 1.51672C6.91591 1.42347 6.96941 1.32816 7.02687 1.2432C7.02687 1.2432 7.02687 1.23077 7.02687 1.22869C7.02821 1.2163 7.02821 1.20379 7.02687 1.1914L7.14773 1.295ZM6.54144 1.10851C6.54144 1.04634 6.54144 0.986256 6.54144 0.926164V0.872286C6.54144 0.826699 6.54144 0.783181 6.54144 0.739666C6.59493 0.795614 6.64645 0.845345 6.70391 0.895076L6.61871 1.03184L6.52162 1.1914L6.54144 1.10851ZM6.4919 1.62862C6.4919 1.5851 6.50577 1.53745 6.50973 1.48979C6.5564 1.46147 6.59965 1.42738 6.63852 1.38825L6.68806 1.31158L6.79109 1.14374L6.86241 1.02977L6.94167 1.10436C6.92679 1.107 6.91218 1.11117 6.89808 1.1168H6.88619C6.82081 1.21419 6.76731 1.3095 6.71183 1.4069L6.6722 1.47735V1.496L6.65041 1.52915C6.61871 1.57059 6.59096 1.61619 6.55926 1.65763L6.47803 1.7633C6.48449 1.71869 6.48846 1.67372 6.48992 1.62862H6.4919ZM6.21451 1.83583H6.38293H6.3968C6.3985 1.84472 6.40186 1.85318 6.40671 1.86069L6.34132 1.94773C6.21055 2.11143 6.07384 2.27305 5.94505 2.43261L5.17232 3.30291C5.17232 3.30291 5.08713 3.41273 5.00589 3.52256C4.92466 3.63238 4.84937 3.7422 4.85729 3.72977L4.82163 3.78779H4.46696C4.51391 3.75643 4.55832 3.72109 4.59972 3.68211C4.76219 3.54742 4.97221 3.33399 4.97221 3.33399L5.09109 3.19515L6.00053 2.10314L6.21451 1.83583ZM5.80834 1.82547H5.96486L5.85985 1.94773L4.95041 3.03974L4.84936 3.15786L4.68293 3.37543C4.6017 3.48111 4.52046 3.58264 4.53036 3.58264C4.48436 3.63882 4.44632 3.70163 4.41743 3.76914H3.88841C3.93508 3.73868 3.98006 3.70547 4.02314 3.66968C4.18759 3.5412 4.41941 3.3485 4.41941 3.3485L4.55019 3.22209C4.73445 3.04182 4.92069 2.85947 5.10099 2.6709C5.19214 2.57766 5.2813 2.48027 5.36848 2.38288C5.45566 2.28549 5.54085 2.17566 5.62011 2.07413C5.69936 1.97259 5.73107 1.90421 5.80042 1.82754L5.80834 1.82547ZM5.55473 1.82547L5.4616 1.94358C5.38235 2.04719 5.30507 2.15079 5.22185 2.24197C5.13864 2.33314 5.0475 2.43261 4.95834 2.52586C4.78002 2.71028 4.59575 2.89055 4.41149 3.0729L4.30053 3.18065L4.11825 3.38786C4.02909 3.4894 3.94389 3.59508 3.9538 3.58264C3.90536 3.63738 3.86526 3.69958 3.83491 3.76707H3.50204C3.54799 3.73646 3.59231 3.70325 3.6348 3.6676C3.80124 3.53913 4.03107 3.34021 4.03107 3.34021L4.15787 3.20966C4.49272 2.86361 4.82162 2.51757 5.16242 2.17359C5.2421 2.09236 5.31441 2.00357 5.37839 1.90836C5.37911 1.90216 5.37911 1.8959 5.37839 1.88971C5.37531 1.86844 5.36999 1.84759 5.36253 1.82754L5.55473 1.82547ZM5.18619 1.82547C5.13393 1.89849 5.07701 1.96772 5.0158 2.03269C4.68095 2.36837 4.34808 2.72064 4.01324 3.06876L3.90625 3.18065C3.90625 3.18065 3.54762 3.59508 3.56545 3.58472C3.51812 3.63992 3.47874 3.70205 3.44856 3.76914H3.12163C3.12594 3.76326 3.13133 3.75832 3.13748 3.75463C3.29995 3.62409 3.53375 3.43138 3.53375 3.43138L3.66253 3.30498C4.04948 2.94207 4.41599 2.556 4.76021 2.14873C4.82956 2.0617 4.89692 1.97466 4.95834 1.88556C4.95921 1.87938 4.95921 1.87309 4.95834 1.86691C4.95953 1.85451 4.95953 1.84202 4.95834 1.82961L5.18619 1.82547ZM4.57396 1.82547H4.74832C4.69879 1.88971 4.65123 1.95394 4.59972 2.01611C4.26209 2.42172 3.90079 2.80511 3.5179 3.16407L3.40694 3.2739L3.22665 3.48111C3.13749 3.58265 3.05427 3.68832 3.06219 3.68832C3.03643 3.72355 3.01265 3.75463 2.99482 3.78364H2.67384C2.83037 3.66553 3.00472 3.52048 3.00472 3.52048L3.12163 3.37129C3.33562 3.16545 3.54696 2.95824 3.75566 2.74964L4.06674 2.43053C4.17179 2.32132 4.26912 2.20428 4.35799 2.08034C4.43328 1.99538 4.49668 1.92079 4.56603 1.83376L4.57396 1.82547ZM4.2926 1.82547H4.31044L4.20939 1.95809C4.12376 2.07531 4.03112 2.18675 3.93201 2.2917L3.62292 2.60874C3.41488 2.81595 3.20484 3.02317 2.99284 3.23038L2.88188 3.33813C2.88188 3.33813 2.50741 3.7422 2.52723 3.72977L2.49553 3.76707H2.09926L2.21219 3.6904C2.38258 3.57229 2.60846 3.38994 2.60846 3.38994L2.7432 3.26975C3.17909 2.88019 3.61895 2.4927 4.03503 2.07206C4.1341 1.99332 4.21137 1.92079 4.28468 1.83376L4.2926 1.82547ZM3.87058 1.84826V1.81718H4.03107L3.93398 1.91871C3.52384 2.33314 3.08596 2.71649 2.65007 3.10605L2.53318 3.20966L2.33504 3.40444C2.24192 3.50183 2.15077 3.59715 2.16068 3.59093C2.11447 3.64095 2.07331 3.6958 2.03784 3.75463H1.79611C1.9566 3.62616 2.1686 3.44588 2.1686 3.44588L2.29937 3.32156C2.7313 2.90713 3.18504 2.51135 3.62292 2.09277L3.85671 1.86484L3.87058 1.84826ZM3.41685 1.88556C3.41771 1.88077 3.41771 1.87585 3.41685 1.87106C3.41777 1.85242 3.41777 1.83374 3.41685 1.81511H3.62885L3.49611 1.94565C3.06417 2.36008 2.61045 2.75379 2.17257 3.17236L2.05963 3.28219C2.05963 3.28219 1.9665 3.38372 1.87734 3.4894C1.81884 3.55518 1.76394 3.62436 1.71289 3.69661L1.65939 3.76914C1.53655 3.76914 1.16604 3.80022 1.18585 3.80436H1.1482C1.20843 3.77681 1.26504 3.74129 1.31663 3.69868C1.489 3.5785 1.71289 3.39201 1.71289 3.39201L1.84762 3.27182C1.9566 3.17443 2.06557 3.07912 2.17652 2.98587L2.34494 2.84496C2.40042 2.79523 2.4559 2.74964 2.51335 2.70406C2.74863 2.52459 2.9742 2.33158 3.189 2.12593C3.22665 2.08449 3.26626 2.04512 3.30193 2.00161C3.33553 1.96352 3.37127 1.92754 3.40893 1.89385L3.41685 1.88556ZM2.22804 1.85655C2.22894 1.84206 2.22894 1.82753 2.22804 1.81304H2.38853C2.33701 1.86277 2.2855 1.9125 2.23201 1.96016C2.04576 2.128 1.85357 2.28963 1.65939 2.45126L1.54052 2.55072L1.34238 2.73929C1.2453 2.83253 1.14424 2.92578 1.16207 2.91956L1.14028 2.95686C1.14028 2.87397 1.14028 2.79316 1.14028 2.71027L1.16406 2.69784C1.34436 2.59216 1.59005 2.42847 1.59005 2.42847L1.7327 2.31657C1.8179 2.24819 1.90112 2.17981 1.98434 2.10935C2.06755 2.0389 2.14879 1.9643 2.22804 1.88763C2.22801 1.87985 2.22666 1.87214 2.22407 1.86484L2.22804 1.85655ZM1.81196 1.93322L1.90508 1.82961C1.90508 1.82961 1.90508 1.82962 1.90508 1.81926C1.90508 1.8089 1.90508 1.81926 1.90508 1.81926H2.00415L1.8615 1.9498C1.78026 2.01818 1.69903 2.08656 1.61581 2.15702L1.49494 2.25233L1.2968 2.43261L1.1383 2.57559C1.1383 2.5445 1.1383 2.5155 1.1383 2.48649C1.21755 2.45333 1.29879 2.40774 1.29879 2.40774C1.29879 2.40774 1.46127 2.28341 1.61581 2.14458C1.67723 2.07205 1.75252 1.99953 1.808 1.94151L1.81196 1.93322ZM1.35427 1.7861L1.33643 1.80268L1.32653 1.78195L1.35427 1.7861ZM1.2453 2.15079L1.41173 1.99746C1.45135 1.96016 1.49296 1.92494 1.52665 1.898L1.58212 1.85448L1.56429 1.81304H1.63959H1.65939C1.60986 1.86277 1.54844 1.92286 1.48503 1.98088C1.33842 2.11143 1.18189 2.23161 1.18189 2.23161L1.11452 2.30414C1.11452 2.26891 1.11453 2.23575 1.10462 2.2026H1.12244C1.16365 2.19331 1.20359 2.1787 1.24133 2.15908L1.2453 2.15079ZM1.12443 1.99746C1.12443 1.99746 1.1066 2.02232 1.08877 2.05133V1.99746L1.14227 1.98502L1.12443 1.99746ZM1.10065 1.75295L1.05905 1.79024C1.06014 1.78269 1.06014 1.77501 1.05905 1.76745V1.75295V1.74259L1.10065 1.75295ZM1.05112 3.69868C1.08189 3.58738 1.10442 3.47377 1.11849 3.35885C1.13236 3.25525 1.14028 3.17651 1.14028 3.17651V3.06668L1.22746 3.00866C1.40182 2.89677 1.64157 2.72478 1.64157 2.72478L1.78025 2.60874C1.97839 2.44711 2.17653 2.28342 2.35882 2.11143C2.44005 2.0389 2.5193 1.9643 2.59855 1.88763C2.59924 1.88213 2.59924 1.87656 2.59855 1.87106C2.60155 1.85185 2.60155 1.83225 2.59855 1.81304H2.79669L2.67186 1.927C2.39249 2.17566 2.10917 2.41603 1.82583 2.66054L1.70893 2.76208L1.51079 2.95686C1.41569 3.05218 1.32454 3.14957 1.33445 3.14335C1.18981 3.31327 1.11651 3.44174 1.39984 3.23038C1.57023 3.11227 1.80601 2.93199 1.80601 2.93199L1.94074 2.81388C2.22209 2.57144 2.50939 2.33107 2.78876 2.08034C2.87198 2.00782 2.94926 1.93115 3.02653 1.87313C3.0262 1.8683 3.0262 1.86346 3.02653 1.85863C3.02742 1.84483 3.02742 1.83098 3.02653 1.81718H3.19494L3.15729 1.86069C3.12361 1.90007 3.08795 1.93737 3.0503 1.97467C2.84159 2.17626 2.62195 2.36514 2.3925 2.54036C2.33504 2.58594 2.2756 2.63361 2.2221 2.68127L2.05368 2.82217C1.94074 2.91749 1.82979 3.01488 1.71883 3.11434L1.60392 3.21795L1.40579 3.4148C1.31465 3.51426 1.22349 3.61166 1.2334 3.60544C1.14424 3.70697 1.08282 3.79608 1.11452 3.80022C1.07379 3.80496 1.03341 3.81257 0.993664 3.82301C1.01426 3.78579 1.03215 3.747 1.04716 3.70697L1.05112 3.69868Z" fill="#4582C3"/>
</svg>
