<svg width="2" height="1" viewBox="0 0 2 1" fill="none" xmlns="http://www.w3.org/2000/svg">
<path d="M1.34023 0.58357L1.36202 0.556631C1.3805 0.529982 1.39519 0.500666 1.40562 0.469601C1.41629 0.439868 1.4197 0.407816 1.41552 0.376356C1.41377 0.359955 1.40976 0.343902 1.40363 0.328694C1.40438 0.322502 1.40438 0.316238 1.40363 0.310046C1.4115 0.305255 1.41773 0.298011 1.42146 0.289326C1.41127 0.248931 1.39151 0.211872 1.364 0.181574C1.32162 0.130399 1.26423 0.0953307 1.20079 0.0818369C1.13736 0.0683431 1.07143 0.0771825 1.0133 0.106977C0.957095 0.138561 0.910436 0.185926 0.878571 0.243739C0.846695 0.30366 0.837501 0.373917 0.852813 0.440591C0.866868 0.506089 0.900949 0.565012 0.949897 0.608434C0.99908 0.652605 1.06142 0.677511 1.12624 0.678886C1.19076 0.682658 1.2547 0.664484 1.30852 0.627083C1.31992 0.613261 1.33051 0.598731 1.34023 0.58357ZM1.21144 0.593931C1.18686 0.604108 1.1606 0.609038 1.13417 0.608434C1.08248 0.61024 1.03165 0.594221 0.989526 0.562847C0.949406 0.528645 0.92035 0.482335 0.906313 0.43023C0.892156 0.37863 0.896379 0.32341 0.918201 0.27482C0.944531 0.227647 0.982067 0.188388 1.02717 0.160851C1.07327 0.136633 1.12579 0.129189 1.17639 0.139698C1.22699 0.150208 1.2728 0.178068 1.30655 0.218871C1.32784 0.2395 1.34297 0.266127 1.35013 0.295542C1.35936 0.303101 1.37027 0.30809 1.38184 0.310046C1.38054 0.317583 1.38054 0.325302 1.38184 0.332839C1.38284 0.343866 1.38284 0.354967 1.38184 0.365994C1.37727 0.399278 1.36576 0.431106 1.34815 0.45924C1.33931 0.474507 1.32938 0.489055 1.31844 0.502756L1.3006 0.523476V0.533837L1.28673 0.548344C1.26495 0.568869 1.2393 0.584398 1.21144 0.593931Z" fill="#5450A1"/>
</svg>
