<svg width="10" height="13" viewBox="0 0 10 13" fill="none" xmlns="http://www.w3.org/2000/svg">
<path d="M2.72074 3.81987C1.52803 5.3267 0.908011 7.24029 0.979139 9.195C1.03388 10.3781 1.37474 11.5274 1.96981 12.5353C1.97849 12.5504 1.99239 12.5614 2.00863 12.566C2.02487 12.5706 2.04219 12.5685 2.05699 12.5602L2.59988 12.2473C2.61208 12.2534 2.62578 12.2553 2.63911 12.253C2.65244 12.2506 2.66473 12.2439 2.67429 12.2339C2.68385 12.2239 2.69022 12.2111 2.6925 12.1971C2.69479 12.1832 2.69289 12.1688 2.68706 12.1561C2.68171 12.1483 2.67707 12.1399 2.67319 12.1312C2.2359 11.3036 1.96184 10.3927 1.86723 9.45231C1.77261 8.51195 1.85937 7.56129 2.12237 6.65663C2.3818 5.79781 2.80059 5.00089 3.35475 4.31147C3.90891 3.62205 4.58759 3.05364 5.35197 2.63875C6.20491 2.16931 7.14541 1.8999 8.10802 1.84926L8.15557 2.17666C8.15864 2.18763 8.16436 2.19759 8.17219 2.20557C8.18002 2.21354 8.18968 2.21927 8.20025 2.22219C8.21081 2.22511 8.22193 2.22512 8.2325 2.22222C8.24307 2.21933 8.25275 2.21363 8.26059 2.20567C8.4785 1.96251 8.74321 1.77041 9.03728 1.64205C9.08285 1.62133 9.10663 1.5488 9.05115 1.51979L7.98518 0.964459C7.97565 0.958697 7.96484 0.955634 7.95382 0.955568C7.94281 0.955501 7.93198 0.958433 7.92238 0.964079C7.91278 0.969725 7.90475 0.977891 7.89909 0.987768C7.89343 0.997644 7.89032 1.00889 7.89008 1.0204C7.89008 1.12608 7.89008 1.22762 7.90395 1.3333C5.94242 1.60061 4.05815 2.19324 2.72074 3.81987ZM4.70209 2.36937C5.70465 1.83683 6.81817 1.61718 7.92178 1.46591H7.93763C7.94656 1.47453 7.95772 1.48018 7.96971 1.48216C7.98171 1.48414 7.994 1.48235 8.00503 1.47703C8.01605 1.47171 8.02533 1.46309 8.03167 1.45226C8.03801 1.44143 8.04113 1.42887 8.04065 1.41618L8.02877 1.13644L8.88273 1.58403C8.6546 1.69873 8.4453 1.8505 8.26258 2.03368L8.23285 1.82647C8.23221 1.81561 8.22817 1.80527 8.22137 1.79703C8.21457 1.7888 8.20538 1.78313 8.1952 1.78088C8.19554 1.77254 8.19414 1.76421 8.19112 1.75649C8.18809 1.74876 8.1835 1.7418 8.17767 1.7361C8.17184 1.73039 8.1649 1.72607 8.15733 1.72343C8.14975 1.72079 8.14172 1.71989 8.13378 1.72079C6.39661 1.81887 4.75901 2.5997 3.54894 3.9069C2.92134 4.59649 2.43533 5.41312 2.12082 6.30652C1.80631 7.19992 1.66996 8.15118 1.72016 9.10175C1.77289 10.1638 2.05323 11.1998 2.54044 12.1333L2.34231 12.2493C1.75486 11.2128 1.44488 10.0301 1.44488 8.82512C1.44488 7.62019 1.75486 6.43746 2.34231 5.40091C2.3466 5.39343 2.34944 5.38514 2.35066 5.3765C2.35189 5.36787 2.35149 5.35907 2.34947 5.3506C2.34744 5.34214 2.34384 5.33417 2.33887 5.32716C2.33391 5.32015 2.32766 5.31423 2.3205 5.30974C2.31335 5.30525 2.30542 5.30227 2.29716 5.30099C2.28891 5.2997 2.2805 5.30013 2.27241 5.30225C2.26431 5.30437 2.25669 5.30813 2.24999 5.31332C2.24328 5.31852 2.23762 5.32505 2.23332 5.33253C1.63516 6.38938 1.31957 7.59493 1.31957 8.82305C1.31957 10.0512 1.63516 11.2567 2.23332 12.3136L2.06293 12.411C1.03857 10.6434 0.874122 8.57958 1.45664 6.60897C1.9817 4.80206 3.0536 3.23553 4.7001 2.36315L4.70209 2.36937Z" fill="#004E50"/>
</svg>
