<svg width="2" height="2" viewBox="0 0 2 2" fill="none" xmlns="http://www.w3.org/2000/svg">
<path d="M0.96874 0.667917C0.935729 0.607477 0.887841 0.557394 0.830049 0.522871C0.827018 0.52045 0.823323 0.519109 0.81951 0.519045C0.815697 0.518982 0.811965 0.520199 0.808862 0.522517C0.805759 0.524835 0.803444 0.528133 0.802265 0.531927C0.801086 0.53572 0.801101 0.53981 0.802308 0.543594C0.815877 0.614952 0.837149 0.684468 0.865712 0.750808C0.89147 0.819189 0.942984 0.931085 1.02026 0.94559C1.03074 0.948333 1.04173 0.948226 1.05216 0.94528C1.0626 0.942333 1.07215 0.93664 1.07989 0.92875C1.08763 0.92086 1.09331 0.911034 1.0964 0.900198C1.09949 0.889363 1.09988 0.877883 1.09753 0.866847C1.08729 0.828398 1.06665 0.793858 1.03809 0.767382C1.01431 0.738372 0.992516 0.701072 0.96874 0.667917Z" fill="black" stroke="#5EBC6D" stroke-width="0.973512" stroke-miterlimit="10"/>
</svg>
