<svg width="1" height="1" viewBox="0 0 1 1" fill="none" xmlns="http://www.w3.org/2000/svg">
<path d="M0.205156 0.608944C0.185342 0.608944 0.169491 0.608954 0.161566 0.619315C0.160175 0.626146 0.160175 0.633201 0.161566 0.640031C0.166522 0.651443 0.173214 0.661945 0.181381 0.671119C0.196306 0.690601 0.212885 0.708622 0.230914 0.724984L0.203172 0.776787C0.194118 0.798284 0.190045 0.821717 0.191285 0.845171C0.201041 0.850613 0.21193 0.853455 0.222987 0.853455C0.234045 0.853455 0.244933 0.850613 0.254689 0.845171C0.265941 0.837801 0.279072 0.834189 0.292336 0.834813C0.292336 0.834813 0.292336 0.834814 0.292336 0.822381C0.29156 0.81758 0.29156 0.812675 0.292336 0.807874C0.310678 0.81921 0.329894 0.828917 0.34979 0.836887C0.375548 0.836887 0.405268 0.836883 0.39338 0.793368C0.388225 0.770944 0.38023 0.749342 0.369605 0.729132L0.353757 0.712551L0.391403 0.671119L0.427066 0.652464C0.434249 0.643691 0.440248 0.633927 0.444897 0.623451C0.456785 0.596513 0.462731 0.563361 0.409234 0.573721C0.384166 0.578393 0.360041 0.587504 0.337903 0.60066C0.323161 0.614959 0.309268 0.630177 0.296296 0.646241L0.262617 0.608944H0.205156Z" fill="#BF2026"/>
</svg>
