<svg width="3" height="2" viewBox="0 0 3 2" fill="none" xmlns="http://www.w3.org/2000/svg">
<path d="M1.88642 0.943194H1.87453L1.79726 0.994998C1.77299 1.00974 1.7498 1.02636 1.72791 1.04473C1.56148 1.16698 1.46439 1.2706 1.7715 1.14005L1.90425 1.0841L1.93793 1.06959H1.95775L1.98548 1.05509L2.10041 0.997072L2.04294 0.870662L2.03106 0.841661V0.827155V0.80229L2.00927 0.750487L1.96568 0.665528L1.93992 0.622009L1.9102 0.576421C1.87976 0.529106 1.84455 0.485346 1.80518 0.445882C1.7621 0.402195 1.71083 0.368325 1.6546 0.346417C1.63966 0.341331 1.62444 0.33718 1.60903 0.333984H1.55355H1.51987H1.49807L1.45647 0.346417L1.31579 0.404436C1.22465 0.447951 1.13945 0.493537 1.05227 0.54534C1.00868 0.572278 0.967074 0.597145 0.923484 0.630299C0.899434 0.64752 0.876892 0.666942 0.856119 0.688325C0.83261 0.71391 0.813205 0.743295 0.798659 0.775351C0.75506 0.885354 0.740686 1.00563 0.757052 1.12347C0.771186 1.24256 0.817978 1.35483 0.891782 1.44672C0.933844 1.49467 0.986106 1.53158 1.04434 1.55448C1.10807 1.58038 1.17876 1.58038 1.24248 1.55448C1.35938 1.50475 1.43071 1.43636 1.50996 1.4032V1.39077C1.52017 1.37323 1.52654 1.35354 1.52859 1.33311C1.53065 1.31269 1.52834 1.29204 1.52185 1.27266C1.51303 1.25952 1.50151 1.24861 1.48815 1.24072C1.47478 1.23284 1.45989 1.22818 1.44458 1.22708C1.44458 1.22708 1.44458 1.22708 1.43071 1.22708C1.32372 1.27681 1.24248 1.34933 1.17115 1.37626C1.14695 1.3862 1.12006 1.3862 1.09586 1.37626C1.06561 1.3623 1.03807 1.34264 1.01462 1.31825C0.967025 1.25922 0.936148 1.18745 0.925468 1.11104C0.913323 1.03027 0.920815 0.947601 0.94726 0.870662C0.957283 0.839949 0.977728 0.81415 1.00472 0.798142C1.03951 0.770902 1.0759 0.74599 1.11369 0.723548C1.19295 0.675889 1.27418 0.632373 1.35542 0.593002C1.39594 0.572405 1.43763 0.554411 1.48024 0.539124L1.53572 0.518402H1.56346C1.63293 0.54356 1.69226 0.592473 1.73187 0.657238C1.75163 0.68418 1.76951 0.712567 1.78537 0.74219C1.80122 0.764984 1.81311 0.791931 1.82698 0.816797L1.85868 0.872736L1.87453 0.899675L1.88444 0.916255C1.88444 0.916255 1.88444 0.916255 1.89434 0.916255L1.88642 0.943194Z" fill="#ED222B"/>
</svg>
