<svg width="3" height="6" viewBox="0 0 3 6" fill="none" xmlns="http://www.w3.org/2000/svg">
<path d="M0.500584 1.79988C0.492644 1.85691 0.492644 1.91484 0.500584 1.97187C0.50598 2.02841 0.520027 2.08368 0.542191 2.13556C0.553637 2.15483 0.56842 2.1717 0.585781 2.1853C0.643452 2.22732 0.714704 2.24372 0.783915 2.23088C0.825463 2.21575 0.861016 2.18659 0.884966 2.148L0.902798 2.11277C0.896644 2.18129 0.904215 2.2504 0.925025 2.31569C0.945835 2.38098 0.979429 2.44102 1.02366 2.49197C1.02366 2.50233 1.03357 2.49197 1.03753 2.49197C1.06162 2.48489 1.08611 2.47935 1.11084 2.4754C1.16841 2.46412 1.22668 2.45719 1.2852 2.45468C1.35251 2.45219 1.41968 2.46272 1.48333 2.48576C1.54558 2.51008 1.59989 2.5525 1.63986 2.60801C1.72161 2.75654 1.76274 2.92571 1.75874 3.09704C1.76151 3.18627 1.75821 3.2756 1.74884 3.36435C1.74884 3.36435 1.74884 3.49903 1.74884 3.6358C1.74884 3.77256 1.73497 3.90932 1.74884 3.89896C1.73774 3.9864 1.75445 4.07523 1.79639 4.15176C1.83403 4.18491 1.90338 4.15176 1.99452 3.9777C2.0604 3.87098 2.11489 3.75702 2.15699 3.63787C2.18033 3.57488 2.20017 3.51054 2.21643 3.44516V3.35398C2.21643 3.29596 2.21643 3.21308 2.21643 3.11154C2.21651 2.99118 2.20522 2.87111 2.18275 2.75306C2.15259 2.60523 2.09614 2.46465 2.01631 2.33863C1.92304 2.1988 1.79195 2.09129 1.63986 2.02989C1.51689 1.98257 1.38646 1.96007 1.25548 1.96358C1.14267 1.9668 1.03047 1.98208 0.920629 2.00916C0.926272 1.99318 0.933584 1.97789 0.942427 1.96358C0.942427 1.95114 0.942427 1.95114 0.942427 1.947C0.935845 1.93733 0.932372 1.92572 0.932517 1.91385C0.932517 1.90349 0.932517 1.89105 0.932517 1.87862C0.939835 1.84421 0.952556 1.8113 0.970163 1.78123C1.02731 1.69844 1.09932 1.62806 1.18217 1.57402C1.25877 1.51911 1.34207 1.47521 1.42984 1.44347C1.45047 1.43498 1.47166 1.42805 1.49324 1.42275C1.51339 1.417 1.53392 1.41284 1.55466 1.41032C1.57246 1.40861 1.59036 1.40861 1.60816 1.41032C1.62401 1.41032 1.63194 1.41032 1.65571 1.41032C1.82949 1.4339 1.98959 1.5213 2.10746 1.6569C2.22696 1.81079 2.30677 1.99413 2.33927 2.18944C2.379 2.4065 2.39562 2.6275 2.38881 2.84838C2.38881 2.97271 2.37692 3.09704 2.36305 3.22344C2.36305 3.22344 2.35116 3.55913 2.30361 3.89067C2.25606 4.22221 2.19266 4.54546 2.20653 4.51231C2.16016 4.69531 2.14209 4.88489 2.15303 5.07386C2.1768 5.13395 2.28182 5.03242 2.4542 4.60763C2.56532 4.34233 2.65737 4.06874 2.7296 3.78913C2.79697 3.53426 2.82867 3.33741 2.82867 3.33741C2.84848 3.17992 2.85839 3.0183 2.86433 2.8546C2.87174 2.59477 2.85181 2.33488 2.80489 2.07962C2.77796 1.94522 2.73813 1.81401 2.68601 1.68798C2.65824 1.62238 2.62647 1.5587 2.59091 1.49735C2.55265 1.43559 2.51027 1.37674 2.4641 1.32122C2.36912 1.20747 2.25409 1.1139 2.12529 1.04562L2.0282 0.995887L1.92913 0.960661C1.86426 0.939337 1.79806 0.92272 1.731 0.910929C1.69089 0.905341 1.65025 0.905341 1.61014 0.910929C1.57129 0.90648 1.53209 0.90648 1.49324 0.910929C1.45634 0.915123 1.41987 0.922751 1.38426 0.933723C1.34977 0.940936 1.31596 0.951339 1.28322 0.964807C1.1544 1.01024 1.03234 1.07442 0.920629 1.15544C0.782465 1.25013 0.664433 1.37357 0.573893 1.51807C0.532086 1.60609 0.507181 1.70184 0.500584 1.79988Z" fill="#E87624"/>
</svg>
