<svg width="5" height="6" viewBox="0 0 5 6" fill="none" xmlns="http://www.w3.org/2000/svg">
<path d="M3.68776 4.53866C3.7146 4.51752 3.7431 4.49882 3.77296 4.48272C3.78881 4.48272 3.81853 4.48271 3.84825 4.50136C3.87797 4.52001 3.90769 4.53866 3.93741 4.55939L3.98298 4.59253L4.00874 4.60912L4.03053 4.62155C4.04636 4.63244 4.06291 4.64214 4.08007 4.65056C4.1018 4.66523 4.12763 4.67179 4.15337 4.6692C4.17766 4.66462 4.20028 4.65316 4.21876 4.63605L4.26236 4.59461L4.33962 4.51379C4.39448 4.45814 4.44241 4.39549 4.48228 4.32731C4.49458 4.3072 4.50268 4.2846 4.50606 4.261C4.50877 4.23457 4.50394 4.20789 4.49219 4.18433C4.4712 4.14973 4.44733 4.11714 4.42086 4.08693C4.37925 4.02684 4.31783 3.96882 4.30792 3.91494C4.29802 3.86106 4.34359 3.80097 4.38322 3.73467C4.39546 3.716 4.40544 3.69582 4.41293 3.67458L4.42482 3.64143L4.48822 3.65592C4.52736 3.66517 4.5671 3.67141 4.60711 3.67458H4.67447H4.74184H4.75967H4.79731C4.82515 3.66332 4.84878 3.64298 4.86468 3.61656C4.88496 3.57048 4.89897 3.52166 4.9063 3.47151C4.9063 3.44665 4.90629 3.42385 4.9162 3.4052L4.93007 3.33889C4.93998 3.2933 4.94988 3.24772 4.9578 3.19799C4.96181 3.17121 4.96181 3.14395 4.9578 3.11717C4.94887 3.08593 4.92908 3.05932 4.90233 3.04258C4.86317 3.01685 4.82128 2.99599 4.7775 2.98042C4.7359 2.96177 4.69231 2.94726 4.65863 2.92861C4.64353 2.92125 4.63049 2.90995 4.62078 2.89579C4.61106 2.88164 4.60498 2.86511 4.60314 2.8478C4.60314 2.8105 4.60314 2.76076 4.60314 2.71725C4.59912 2.70024 4.59912 2.68246 4.60314 2.66545C4.61195 2.6507 4.62423 2.63858 4.63881 2.63022C4.71013 2.57842 4.78543 2.52454 4.85478 2.46652L4.88252 2.4458L4.91223 2.42093L4.93601 2.39814V2.36291V2.32354L4.90035 2.18886C4.89428 2.16634 4.88701 2.1442 4.87855 2.12255L4.86468 2.05831C4.85508 2.01075 4.84114 1.96427 4.82307 1.91948L4.80326 1.88425C4.79439 1.86956 4.78212 1.85745 4.7676 1.84902C4.74256 1.83757 4.71565 1.83123 4.68834 1.83037C4.64079 1.83037 4.59522 1.83037 4.55163 1.83037H4.48625H4.41888C4.40455 1.83397 4.38961 1.83397 4.37528 1.83037C4.36148 1.8193 4.34944 1.80601 4.33962 1.791C4.31383 1.75586 4.29002 1.7192 4.2683 1.68118C4.25863 1.66439 4.2513 1.64625 4.2465 1.6273C4.24164 1.61112 4.24164 1.59376 4.2465 1.57757C4.25983 1.53679 4.2778 1.49784 4.3 1.46153C4.3218 1.42423 4.34755 1.38693 4.36935 1.34135C4.39114 1.29576 4.38916 1.29784 4.39709 1.2709C4.40121 1.2532 4.40121 1.23472 4.39709 1.21702C4.39171 1.20115 4.38366 1.1864 4.37331 1.1735C4.33567 1.13206 4.30198 1.11135 4.27226 1.07819C4.21084 1.01603 4.14942 0.947636 4.07413 0.885472L4.03648 0.854397L4.01666 0.837816L3.97901 0.812952L3.96317 0.831607L3.94732 0.848175L3.91364 0.879262L3.77296 1.00151L3.68181 1.08025C3.68094 1.08713 3.68094 1.09411 3.68181 1.10098C3.66806 1.08791 3.65275 1.07676 3.63625 1.06782L3.53124 1.01188C3.51353 1.00293 3.4969 0.99179 3.48171 0.97872C3.47427 0.974374 3.46757 0.96877 3.46189 0.96214V0.951782C3.46189 0.951782 3.46189 0.941419 3.46189 0.937275C3.45416 0.888567 3.45416 0.838869 3.46189 0.790161C3.47002 0.732453 3.47002 0.673804 3.46189 0.616096C3.46023 0.598486 3.45482 0.581493 3.44604 0.566366C3.44192 0.557955 3.43657 0.550269 3.43019 0.543576C3.42456 0.536311 3.41787 0.530012 3.41037 0.524921C3.38423 0.506811 3.35435 0.495453 3.32319 0.491772C3.29746 0.49002 3.27166 0.49002 3.24593 0.491772C3.22237 0.487511 3.19917 0.481269 3.17657 0.473118C3.12667 0.453488 3.07574 0.436885 3.02402 0.423388C2.99351 0.41486 2.96139 0.41486 2.93089 0.423388C2.8995 0.43398 2.8719 0.454201 2.85164 0.481414C2.81693 0.527343 2.79011 0.579225 2.77238 0.634751C2.75455 0.686554 2.73869 0.738352 2.71888 0.783939H2.6852H2.60594H2.52868H2.50886H2.48508H2.4514C2.4514 0.783939 2.4514 0.783939 2.43753 0.783939L2.42168 0.765297C2.40755 0.74422 2.39496 0.722052 2.38403 0.698987L2.35035 0.626454V0.609886L2.33054 0.57465C2.31594 0.549232 2.29866 0.525608 2.27903 0.504205C2.26587 0.489896 2.24954 0.479213 2.23148 0.473118C2.21386 0.469008 2.19559 0.469008 2.17798 0.473118L2.13241 0.487624L2.09673 0.502131C2.07496 0.51078 2.05239 0.517036 2.02937 0.520785C1.97632 0.52974 1.924 0.542902 1.87285 0.560157C1.84725 0.568329 1.82211 0.578005 1.79756 0.589157L1.77576 0.599515H1.76585C1.76044 0.602588 1.75571 0.606838 1.75198 0.61196C1.74396 0.621334 1.7385 0.632776 1.73614 0.645109C1.73543 0.654073 1.73543 0.663084 1.73614 0.672048C1.73096 0.728557 1.73096 0.785456 1.73614 0.841965C1.73614 0.854398 1.73614 0.866829 1.73614 0.879262V0.920707C1.73614 0.947645 1.73614 0.974582 1.73614 0.997375C1.736 1.01753 1.72975 1.03711 1.7183 1.05331C1.70367 1.07122 1.68704 1.08723 1.66877 1.10098C1.6286 1.13136 1.58619 1.15839 1.54196 1.1818L1.50828 1.19837H1.49242L1.4746 1.18593L1.44289 1.16522L1.31807 1.0699L1.25466 1.02224L1.20909 0.987017C1.20909 0.987017 1.20909 0.987017 1.19324 0.987017H1.17938L1.15164 1.00773L1.08823 1.05954L1.02681 1.11341C0.943317 1.18355 0.869907 1.2659 0.808857 1.35793V1.37657V1.39315L0.791032 1.42424L0.820757 1.45325L0.832645 1.46774C0.840971 1.47649 0.848284 1.48623 0.854437 1.49676C0.884157 1.5382 0.911896 1.58379 0.941616 1.62938C0.965355 1.66536 0.992572 1.69869 1.02285 1.72883H1.0387L1.01691 1.76613C1.00754 1.79019 0.996953 1.81371 0.9852 1.83659C0.985976 1.84139 0.985976 1.8463 0.9852 1.8511V1.86974L0.969358 1.89875L0.951521 1.93605C0.947578 1.9503 0.940054 1.96318 0.929729 1.97335H0.905954C0.862076 1.98184 0.817072 1.98184 0.773195 1.97335C0.725282 1.9695 0.677646 1.96258 0.630543 1.95263L0.537414 1.93397V1.95263L0.523555 1.98578C0.524813 1.99332 0.524813 2.00104 0.523555 2.00858V2.02722C0.493835 2.13083 0.479962 2.23444 0.446279 2.32561C0.446279 2.35048 0.430431 2.37534 0.424487 2.40228C0.423391 2.41676 0.423391 2.43132 0.424487 2.4458C0.423321 2.45404 0.423321 2.46242 0.424487 2.47066C0.425947 2.48289 0.429291 2.49478 0.434392 2.50589C0.441191 2.51676 0.450804 2.52539 0.462121 2.53075H0.483925C0.495843 2.53675 0.50852 2.54094 0.521572 2.54318H0.555251L0.590914 2.55562L0.729611 2.60121L0.793015 2.63022L0.818774 2.64679C0.818774 2.64679 0.830663 2.6613 0.832645 2.6613V2.68203C0.832645 2.69446 0.832645 2.70689 0.832645 2.71932L0.822728 2.79392C0.822728 2.84779 0.822728 2.90581 0.822728 2.94518C0.818589 2.96449 0.809711 2.98235 0.79697 2.99698L0.747436 3.04258C0.70979 3.07159 0.668185 3.09646 0.626577 3.12339L0.563172 3.16069C0.538925 3.17444 0.51632 3.19113 0.495813 3.21042C0.483125 3.22246 0.473029 3.23719 0.466197 3.25362C0.459365 3.27006 0.455951 3.28783 0.456184 3.30574C0.458795 3.33559 0.465462 3.36489 0.475992 3.39277C0.497787 3.46115 0.517608 3.52953 0.545347 3.59998C0.545347 3.61863 0.561199 3.63521 0.571105 3.65386L0.588931 3.6808C0.595082 3.69009 0.602411 3.69845 0.610723 3.70566C0.621171 3.71499 0.633307 3.72203 0.646397 3.72638C0.658146 3.72908 0.670312 3.72908 0.68206 3.72638H0.737532C0.810842 3.72638 0.878205 3.7098 0.945571 3.7098H0.995105H1.02483C1.03613 3.72017 1.04612 3.73202 1.05455 3.74504L1.08228 3.78854C1.10012 3.81755 1.11795 3.84864 1.1338 3.87972L1.15559 3.92739C1.15559 3.92739 1.15559 3.94396 1.15559 3.93982C1.15646 3.946 1.15646 3.95228 1.15559 3.95846C1.1307 4.02105 1.09358 4.07751 1.04662 4.12423C1.02237 4.15583 1.00114 4.18984 0.983217 4.22576C0.973574 4.24573 0.968176 4.26765 0.967375 4.29001C0.96538 4.30236 0.96538 4.31496 0.967375 4.32731C0.966245 4.33833 0.966245 4.34944 0.967375 4.36046C0.985061 4.39794 1.00924 4.43166 1.0387 4.45991C1.06502 4.48646 1.0928 4.51138 1.12191 4.53452L1.20711 4.60083L1.24872 4.63398C1.26438 4.64742 1.28171 4.65857 1.30024 4.66713C1.3215 4.67889 1.34579 4.68325 1.36958 4.67956C1.39225 4.67641 1.41393 4.66791 1.43299 4.6547C1.46469 4.63398 1.49045 4.61326 1.52017 4.59668C1.58555 4.56146 1.64102 4.50758 1.68858 4.52001C1.7025 4.52235 1.71592 4.52727 1.72821 4.53452L1.77774 4.55731C1.81142 4.57389 1.84511 4.58425 1.8669 4.59876C1.8887 4.61326 1.9105 4.69821 1.90852 4.77074C1.90852 4.80803 1.90852 4.84534 1.90852 4.88471C1.90904 4.92789 1.92067 4.97011 1.94219 5.00696C1.95607 5.02879 1.97617 5.04546 1.99965 5.05462C2.0177 5.06115 2.03627 5.066 2.05513 5.06912L2.1542 5.09814L2.35234 5.15616L2.40979 5.1686H2.44347H2.47319H2.48707V5.15616L2.5049 5.12093L2.74266 4.75624H2.84767C2.8664 4.75812 2.88495 4.76158 2.90314 4.7666H2.92692C2.97109 4.82459 3.00959 4.88706 3.04184 4.95308L3.07355 5.00281C3.08398 5.02048 3.09591 5.03714 3.10921 5.05256C3.11977 5.06478 3.13356 5.07343 3.14884 5.07742C3.16189 5.08046 3.17541 5.08046 3.18846 5.07742H3.24593C3.28216 5.06848 3.31787 5.0574 3.35291 5.04426L3.4599 5.01319L3.56492 4.97174L3.61842 4.94273H3.63031L3.65408 4.92822H3.66597C3.66597 4.92822 3.66597 4.91786 3.66597 4.91371V4.88471L3.64418 4.6547C3.64418 4.61325 3.63228 4.57596 3.63228 4.54695C3.63284 4.5355 3.63704 4.52457 3.64418 4.51587C3.65334 4.50463 3.66401 4.49485 3.67587 4.48685L3.68776 4.53866ZM3.2697 3.47772C3.2027 3.55943 3.11864 3.62396 3.02402 3.66629C2.92858 3.70757 2.8277 3.73342 2.72483 3.74296C2.67402 3.7461 2.62307 3.7461 2.57226 3.74296C2.52222 3.73958 2.47252 3.73196 2.42366 3.72017C2.32872 3.69344 2.23935 3.64847 2.16014 3.58755C2.00756 3.47227 1.89548 3.30772 1.84114 3.11925C1.81716 3.03161 1.8045 2.94102 1.8035 2.84987C1.79943 2.80715 1.79943 2.76412 1.8035 2.7214C1.80257 2.71106 1.80257 2.70065 1.8035 2.69031V2.67995L1.81539 2.64266C1.81823 2.63253 1.82222 2.62278 1.82727 2.61364C1.82727 2.59707 1.84114 2.59085 1.84114 2.58878C1.84114 2.58671 1.84114 2.58878 1.84114 2.58878C1.84078 2.5803 1.83863 2.572 1.83487 2.56448C1.8311 2.55696 1.82581 2.5504 1.81935 2.54526L1.84907 2.49345C1.8555 2.48452 1.86083 2.47477 1.86492 2.46444L1.88077 2.43958C1.88971 2.42193 1.90033 2.40527 1.91247 2.38985L1.93823 2.35462V2.34012L1.95607 2.3194C1.96146 2.31014 1.96813 2.30176 1.97587 2.29454L2.0155 2.25102C2.04126 2.2303 2.06504 2.20543 2.09476 2.18471C2.1559 2.13969 2.22254 2.10344 2.2929 2.07695C2.44727 2.01108 2.61667 1.9938 2.7803 2.02722C2.96248 2.07158 3.12715 2.17361 3.25186 2.3194C3.38241 2.47592 3.45299 2.67741 3.45 2.88509C3.45726 3.09884 3.39278 3.3085 3.26772 3.47772H3.2697ZM4.2148 1.93191L3.45198 2.28624L3.37272 2.32354C3.31102 2.24284 3.23746 2.17289 3.15478 2.11632C3.07445 2.06046 2.9871 2.01652 2.89522 1.98578C2.80813 1.95383 2.71597 1.93977 2.62378 1.94435C2.5384 1.94684 2.45374 1.96147 2.37214 1.98785C2.29656 2.00986 2.22399 2.04189 2.15618 2.08318C2.0945 2.12007 2.03728 2.1646 1.98578 2.2158L1.95012 2.25309V2.26552L1.93229 2.29039C1.92565 2.29957 1.91969 2.30928 1.91445 2.3194C1.90455 2.33598 1.89266 2.36084 1.88077 2.38364L1.85501 2.45201C1.85501 2.46859 1.85501 2.47896 1.85501 2.47689C1.84904 2.49444 1.84441 2.51244 1.84114 2.53075C1.84012 2.53553 1.84012 2.54048 1.84114 2.54526H1.82727C1.8042 2.57948 1.78802 2.61825 1.77972 2.65922C1.77972 2.65922 1.77972 2.65923 1.77972 2.6758C1.77076 2.72216 1.76678 2.76942 1.76784 2.81671C1.76843 2.91307 1.77973 3.00903 1.80151 3.10266C1.80151 3.12753 1.81539 3.15033 1.82332 3.1752C1.83136 3.19918 1.84061 3.22269 1.85105 3.24564C1.87236 3.29232 1.89686 3.33734 1.92436 3.38034C1.97774 3.46917 2.04467 3.54827 2.12249 3.61449C2.16408 3.64729 2.20778 3.67706 2.25327 3.70359C2.29979 3.73045 2.34895 3.75199 2.39989 3.76783H2.43555C2.42168 3.80513 2.41178 3.84036 2.40187 3.87558C2.34837 4.04757 2.29091 4.22163 2.23543 4.39362L2.15222 4.6547C2.13835 4.69614 2.12448 4.73965 2.11259 4.78317L2.08881 4.86191C2.08881 4.86191 2.04127 5.06913 2.04523 5.05669V5.0712L1.98381 5.05256C1.96759 5.05014 1.95164 5.04597 1.93624 5.04012C1.92648 5.03701 1.91806 5.03041 1.91247 5.02147C1.8992 4.99448 1.89176 4.96477 1.89068 4.93444C1.89068 4.89922 1.89068 4.86399 1.89068 4.82669C1.89348 4.78806 1.89348 4.74927 1.89068 4.71065C1.8877 4.68819 1.881 4.66646 1.87087 4.64641C1.85873 4.6258 1.84252 4.60814 1.82332 4.59461C1.79108 4.575 1.75726 4.55836 1.72227 4.54488L1.67669 4.52415C1.65817 4.51327 1.6381 4.50558 1.61725 4.50136C1.57344 4.49593 1.5292 4.50695 1.49242 4.53245L1.40326 4.58839C1.37161 4.60623 1.34117 4.62632 1.31213 4.64849C1.28241 4.66506 1.27052 4.66714 1.24674 4.64849C1.2331 4.64096 1.21987 4.63266 1.20711 4.62362L1.16551 4.58839L1.08228 4.52415C1.02832 4.48667 0.982983 4.43714 0.949537 4.37911C0.927743 4.3356 0.965386 4.27343 1.00898 4.21955L1.07635 4.13253C1.10215 4.1005 1.12107 4.06304 1.13182 4.0227C1.13289 4.01029 1.13289 3.99781 1.13182 3.9854V3.96261V3.94603L1.10804 3.89422C1.09117 3.86078 1.07265 3.82828 1.05257 3.79684C1.04315 3.78015 1.03255 3.76421 1.02086 3.74917C1.00957 3.73102 0.996277 3.71433 0.981246 3.69944C0.960956 3.68577 0.937879 3.67725 0.913875 3.67458H0.85642C0.78311 3.67458 0.71178 3.68702 0.644414 3.69323H0.59488C0.57903 3.69323 0.577047 3.69323 0.569122 3.69323L0.555251 3.67873C0.550615 3.67301 0.546627 3.66675 0.543363 3.66007C0.534534 3.64575 0.527229 3.63047 0.521572 3.61449C0.497795 3.55025 0.475993 3.47773 0.452217 3.40728C0.445192 3.38651 0.440535 3.36495 0.438346 3.34304C0.438026 3.33566 0.439281 3.32829 0.442023 3.32148C0.444764 3.31467 0.448927 3.30859 0.4542 3.30367C0.471387 3.28864 0.489979 3.27545 0.509684 3.2643L0.573089 3.22493C0.617112 3.19958 0.659465 3.17119 0.699886 3.13996C0.749753 3.10799 0.786478 3.05777 0.80292 2.99906C0.80292 2.93689 0.80292 2.89131 0.80292 2.84365V2.7649C0.80292 2.75247 0.80292 2.73797 0.80292 2.72553C0.806113 2.70703 0.806113 2.68809 0.80292 2.66959C0.794252 2.65371 0.782833 2.63965 0.76924 2.62815C0.757147 2.61913 0.744578 2.61083 0.731594 2.60328L0.660256 2.5722C0.612704 2.55355 0.565159 2.53905 0.519588 2.52454L0.485909 2.51211L0.446279 2.50175H0.414571H0.402683V2.48932C0.401742 2.47829 0.401742 2.46719 0.402683 2.45616C0.407457 2.43215 0.414091 2.4086 0.422504 2.38571C0.456187 2.28625 0.472029 2.1785 0.499768 2.08732L0.511655 2.05416L0.561189 2.06452C0.610895 2.0753 0.661184 2.08292 0.711773 2.08732C0.765551 2.09321 0.819901 2.089 0.872262 2.07489C0.88718 2.07057 0.901266 2.06355 0.913875 2.05416C0.92875 2.03937 0.940844 2.0218 0.949537 2.00236L0.967375 1.95056C0.9711 1.93575 0.975734 1.92123 0.981246 1.90705C0.987425 1.8908 0.992708 1.87418 0.997088 1.85731C0.997088 1.82622 1.00898 1.80551 1.00898 1.80965C1.00898 1.7765 1.02285 1.75164 1.02483 1.73713C1.02881 1.72647 1.02881 1.71463 1.02483 1.70397C0.998581 1.67785 0.975315 1.64865 0.955487 1.61694C0.925767 1.57343 0.900009 1.52784 0.868308 1.48432C0.860837 1.47237 0.852204 1.46127 0.842549 1.45117C0.839022 1.44474 0.834306 1.4391 0.828678 1.43459L0.81679 1.42216V1.40766C0.872035 1.32213 0.938764 1.24537 1.01493 1.17972C1.05257 1.14657 1.09219 1.11341 1.1338 1.08233H1.14569L1.20711 1.12792C1.24872 1.159 1.28835 1.19215 1.33194 1.22323L1.39732 1.26883L1.42507 1.28747H1.43497H1.4528L1.49044 1.2709C1.53901 1.24779 1.58544 1.22004 1.62914 1.18801C1.65123 1.17131 1.6724 1.15332 1.69254 1.13413C1.7166 1.11095 1.73321 1.08055 1.74009 1.0471C1.74293 1.01748 1.74293 0.987631 1.74009 0.958004V0.877188C1.74009 0.82124 1.7282 0.769434 1.72622 0.719703C1.72622 0.70727 1.72622 0.694843 1.72622 0.686554C1.72622 0.678266 1.72622 0.686555 1.72622 0.674122L1.75 0.661689L1.78369 0.647183C1.83019 0.630208 1.87788 0.617044 1.92634 0.607812L2.00362 0.591231L2.04325 0.576725L2.07891 0.562218C2.12448 0.545641 2.14033 0.549788 2.17005 0.591231L2.20967 0.655467C2.2162 0.665448 2.22216 0.675832 2.22751 0.686554L2.24336 0.721777L2.27903 0.794297C2.29334 0.822345 2.31134 0.848164 2.33251 0.870978C2.34846 0.884126 2.36776 0.892053 2.388 0.893768C2.40444 0.895935 2.42109 0.895935 2.43753 0.893768H2.46726H2.5049C2.55483 0.88662 2.6051 0.88247 2.65548 0.881336H2.70501V0.862681C2.71888 0.833671 2.72086 0.827457 2.72878 0.812952C2.73671 0.798447 2.74662 0.761149 2.75454 0.736284C2.77057 0.687986 2.78977 0.640906 2.81201 0.595379C2.8338 0.551865 2.86352 0.516635 2.89522 0.514563C2.94147 0.51701 2.98701 0.52752 3.02995 0.54565C3.07895 0.566953 3.13015 0.582244 3.18252 0.591231H3.25583C3.27549 0.592845 3.29419 0.600807 3.30933 0.614022C3.33112 0.632671 3.3331 0.682404 3.32716 0.732135C3.32121 0.781867 3.31329 0.835746 3.30933 0.891694C3.30449 0.921875 3.30449 0.952688 3.30933 0.982869C3.30933 0.982869 3.30933 0.999445 3.30933 1.00773V1.02224L3.32122 1.04088C3.33077 1.05232 3.34138 1.06274 3.35291 1.07197L3.37669 1.0844C3.39732 1.0962 3.41929 1.10525 3.44208 1.11134C3.47129 1.12208 3.50106 1.13107 3.53124 1.13828C3.56889 1.14864 3.59662 1.16107 3.60455 1.16107C3.61247 1.16107 3.60455 1.16107 3.60455 1.16107H3.63426L3.72541 1.08233L3.86609 0.960078L3.90175 0.928991L3.91958 0.941423L3.95327 0.970436C4.01667 1.02638 4.07611 1.09269 4.13952 1.15692C4.16924 1.19008 4.20886 1.2191 4.23462 1.24603L4.2465 1.2626C4.2465 1.2626 4.2465 1.2626 4.2465 1.27504C4.24119 1.29348 4.23456 1.31149 4.22668 1.32891C4.193 1.40351 4.13357 1.47604 4.09989 1.56929C4.09875 1.58238 4.09875 1.59556 4.09989 1.60866C4.09688 1.62299 4.09688 1.63783 4.09989 1.65217C4.10265 1.67889 4.11003 1.70487 4.12168 1.72883C4.14353 1.77102 4.16871 1.81123 4.19697 1.84902C4.21073 1.86954 4.22596 1.88894 4.24254 1.90705L4.2683 1.92362L4.2148 1.93191ZM3.33904 4.66713L4.52785 2.84572L3.33904 4.66713ZM3.53718 4.55939C3.7155 4.28586 3.89184 4.01855 4.06026 3.76368C3.89184 4.01855 3.7155 4.28586 3.53718 4.55939Z" fill="#ECC01B"/>
</svg>
