<svg width="2" height="1" viewBox="0 0 2 1" fill="none" xmlns="http://www.w3.org/2000/svg">
<path d="M0.874358 0.409137C0.87271 0.384301 0.87271 0.359379 0.874358 0.334543C0.874358 0.309677 0.874358 0.30553 0.874358 0.30553C0.848601 0.280664 0.826799 0.253736 0.805004 0.237159C0.789187 0.223785 0.769824 0.215817 0.749533 0.214355C0.733834 0.240502 0.722451 0.269228 0.715853 0.29932C0.711746 0.341344 0.711746 0.383694 0.715853 0.425718C0.669338 0.428291 0.62336 0.437351 0.57914 0.452657C0.567251 0.502388 0.598954 0.52311 0.616786 0.543831C0.632897 0.556617 0.644129 0.574979 0.648482 0.595635H0.680178H0.723774C0.723774 0.624645 0.723774 0.64329 0.723774 0.64329C0.73508 0.677914 0.748314 0.711827 0.763403 0.744836C0.785198 0.784206 0.822836 0.819433 0.854538 0.744836C0.869505 0.709778 0.880164 0.672869 0.886246 0.635006C0.886246 0.635006 0.886246 0.616363 0.886246 0.589425H0.985313C1.02238 0.579489 1.05878 0.567019 1.09429 0.552115C1.13986 0.52725 1.16363 0.487887 1.09429 0.456805C1.06056 0.440735 1.02538 0.428241 0.989268 0.419508L0.874358 0.409137Z" fill="#D62027"/>
</svg>
