<svg width="4" height="4" viewBox="0 0 4 4" fill="none" xmlns="http://www.w3.org/2000/svg">
<path d="M1.25149 2.7936L1.28319 2.82883L1.29905 2.84748L1.33471 2.88478C1.50599 3.04321 1.70913 3.15935 1.92911 3.22461C2.15336 3.28991 2.39041 3.28991 2.61466 3.22461C2.84166 3.15672 3.0426 3.01613 3.18925 2.82262C3.32901 2.62775 3.41656 2.39743 3.44286 2.15539C3.47266 1.91703 3.4503 1.67471 3.37748 1.44671C3.34176 1.33194 3.2918 1.22256 3.22888 1.12139L3.2051 1.08409L3.17538 1.04264L3.11395 0.976339C3.07296 0.934722 3.02998 0.8953 2.98517 0.858225C2.89623 0.785964 2.80216 0.72085 2.70381 0.663444C2.60322 0.602894 2.49525 0.556887 2.38284 0.526682C2.32643 0.51259 2.26838 0.50701 2.21046 0.510107C2.14226 0.513073 2.07686 0.539266 2.02421 0.584701C2.02325 0.590877 2.02325 0.597174 2.02421 0.60335C2.02347 0.613696 2.02347 0.624091 2.02421 0.634437C1.90466 0.620198 1.78358 0.633633 1.66956 0.673802C1.53663 0.721305 1.41405 0.795973 1.30895 0.893455C1.09455 1.08357 0.950222 1.34589 0.900792 1.63528C0.877254 1.78306 0.888818 1.93464 0.934472 2.07665L0.974101 2.18025C0.987971 2.21548 1.00778 2.24449 1.02363 2.27764C1.03162 2.29604 1.0416 2.31342 1.05336 2.32945C1.06954 2.40687 1.09276 2.48251 1.1227 2.55531C1.14573 2.60998 1.1729 2.66265 1.20394 2.71279C1.21187 2.7418 1.2297 2.76874 1.25149 2.7936ZM2.94356 2.83298L2.89601 2.84955C2.92701 2.83197 2.95622 2.81114 2.98319 2.78739L2.94356 2.83298ZM3.12783 1.30373L3.13971 1.32653L3.12584 1.3141C3.12772 1.31103 3.12843 1.30733 3.12783 1.30373ZM2.25604 0.698673C2.25604 0.698673 2.25604 0.69867 2.25604 0.709031L2.2382 0.698673H2.25604ZM1.10289 2.05592C1.05891 1.94311 1.04521 1.81987 1.06326 1.69951C1.10085 1.44888 1.22147 1.22005 1.40405 1.05301C1.48849 0.968981 1.5904 0.906545 1.70177 0.870595C1.81315 0.834644 1.93098 0.826156 2.04602 0.845793C2.13051 0.865774 2.21012 0.903878 2.27981 0.957691H2.29369C2.35114 0.957691 2.38284 0.930751 2.39472 0.903813C2.39751 0.89155 2.39751 0.878779 2.39472 0.866516C2.4561 0.896775 2.51507 0.932109 2.57107 0.972191L2.59683 0.990839C2.58307 0.988237 2.56897 0.988237 2.55521 0.990839C2.53342 0.990839 2.57107 1.0385 2.69589 1.14211C2.72958 1.17526 2.77118 1.20842 2.80685 1.24571L2.86035 1.29959L2.9079 1.35346C2.93314 1.3804 2.95694 1.40877 2.97922 1.43842L3.00498 1.47365C3.02323 1.49481 3.04043 1.51695 3.0565 1.53996L3.08027 1.57312L3.09216 1.59177V1.60627L3.10207 1.62699C3.16784 1.72672 3.20615 1.84345 3.21279 1.96441C3.21943 2.08537 3.19414 2.20591 3.13971 2.31287C3.08063 2.4222 3.00271 2.51916 2.90988 2.59882L2.84053 2.66099L2.76525 2.70865L2.7276 2.73144L2.68599 2.74802C2.65964 2.76151 2.6325 2.77328 2.60475 2.78325C2.3703 2.85779 2.11997 2.85779 1.88553 2.78325C1.76758 2.74608 1.65445 2.69389 1.5487 2.62784L1.68936 2.37089L1.79438 2.1761L1.83797 2.09737L1.85977 2.05592V2.04556H1.83995L1.75674 2.01863C1.73098 2.00827 1.69532 2.00205 1.67154 1.98961C1.62999 1.97862 1.59261 1.95472 1.56431 1.92106C1.53601 1.8874 1.51813 1.84555 1.51303 1.80105C1.51637 1.70169 1.55609 1.60747 1.62399 1.53789C1.69138 1.46023 1.77988 1.406 1.8776 1.38248C1.92253 1.37239 1.96907 1.37311 2.01369 1.3846C2.05832 1.39609 2.09985 1.41804 2.13517 1.44879C2.20253 1.50681 2.2699 1.62077 2.24811 1.66843C2.23242 1.71118 2.20649 1.749 2.17281 1.77826C2.12521 1.82312 2.08084 1.8716 2.04007 1.9233L2.01034 1.97304L1.9945 2.01241C1.98567 2.03137 1.97965 2.05163 1.97666 2.0725C1.97482 2.09179 1.97482 2.11122 1.97666 2.13052C1.97564 2.14984 1.97564 2.16922 1.97666 2.18854C1.98223 2.22112 1.99086 2.25305 2.00242 2.28386C2.02581 2.34559 2.05643 2.40406 2.09357 2.45792C2.13836 2.52665 2.18803 2.59176 2.24217 2.6527C2.28255 2.70872 2.32985 2.75888 2.38284 2.80189C2.40463 2.80189 2.40464 2.75009 2.32538 2.59468C2.28179 2.50351 2.22235 2.3999 2.19065 2.31908C2.17876 2.28661 2.16883 2.2534 2.16093 2.21962C2.16006 2.20721 2.16006 2.19474 2.16093 2.18232C2.15901 2.16026 2.15901 2.13807 2.16093 2.11602V2.08908C2.16007 2.08498 2.16007 2.08074 2.16093 2.07665V2.05592C2.18916 2.01119 2.22317 1.97075 2.26198 1.93574C2.31598 1.88772 2.36157 1.83022 2.39671 1.76582C2.40449 1.74483 2.41112 1.72338 2.41653 1.70159C2.42037 1.67828 2.42037 1.65445 2.41653 1.63114C2.41858 1.60909 2.41858 1.58688 2.41653 1.56483C2.41653 1.5441 2.40265 1.52545 2.39671 1.50473C2.38064 1.47039 2.3614 1.43777 2.33925 1.40734C2.31952 1.37681 2.29623 1.34896 2.26991 1.32446C2.21738 1.27105 2.15358 1.2313 2.08366 1.20842C2.01336 1.18473 1.93876 1.17835 1.86571 1.18977C1.72707 1.21574 1.6004 1.28853 1.5051 1.39698C1.39908 1.50122 1.33646 1.64484 1.33074 1.79691C1.33181 1.88167 1.36047 1.96353 1.41198 2.02898C1.46137 2.08729 1.52311 2.13271 1.59228 2.1616L1.52096 2.29008L1.39019 2.53044C1.3684 2.5118 1.3466 2.49315 1.32679 2.47243L1.26338 2.40404C1.18859 2.30012 1.13406 2.18184 1.10289 2.05592Z" fill="#5E0F42"/>
</svg>
