<svg width="10" height="7" viewBox="0 0 10 7" fill="none" xmlns="http://www.w3.org/2000/svg">
<path d="M5.55744 3.85051C5.87445 4.5136 6.24695 5.15389 6.6135 5.79211C6.6153 5.80239 6.62016 5.81181 6.62737 5.81905C6.71257 5.96824 6.79974 6.11744 6.88296 6.2687C6.88364 6.27918 6.88669 6.28934 6.89186 6.29835C6.89703 6.30735 6.90416 6.31495 6.91269 6.32051C6.91259 6.33214 6.91657 6.3434 6.92387 6.35218C6.93117 6.36096 6.94129 6.36664 6.95232 6.36816C7.21016 6.3985 7.46954 6.41234 7.729 6.40961H7.74485C7.75507 6.41064 7.76535 6.40889 7.77472 6.40454C7.7841 6.40018 7.79224 6.39336 7.79834 6.38474C7.89147 6.25213 7.96676 6.10915 8.04799 5.97031C8.1173 5.85938 8.17952 5.74378 8.23424 5.62426C8.24381 5.62007 8.25244 5.61386 8.2596 5.60601C8.26676 5.59817 8.27229 5.58886 8.27585 5.57868C8.80686 3.92096 9.28634 2.22802 9.81932 0.55995C9.82227 0.546442 9.8223 0.532419 9.81942 0.518897C9.81653 0.505375 9.81079 0.492695 9.80263 0.48178C9.79447 0.470865 9.78409 0.461988 9.77224 0.455796C9.76039 0.449604 9.74737 0.446254 9.73412 0.445985C9.26653 0.406614 8.79893 0.369315 8.32935 0.361026C8.31286 0.353889 8.29433 0.353889 8.27784 0.361026H8.26198C8.25409 0.361007 8.24629 0.362686 8.23904 0.365962C8.2318 0.369238 8.22528 0.374037 8.21989 0.380064C8.2145 0.38609 8.21035 0.393216 8.20771 0.400992C8.20507 0.408768 8.20398 0.417029 8.20453 0.425262C7.98059 0.649795 7.79201 0.909954 7.64579 1.1961C7.53754 1.46979 7.44945 1.75173 7.38227 2.03946C7.36047 2.11613 7.33472 2.19073 7.31094 2.26532C7.1128 1.64368 6.91467 1.02204 6.71654 0.400397C6.71074 0.38142 6.69941 0.364816 6.68413 0.352923C6.66884 0.341029 6.65038 0.334443 6.63134 0.334087C6.19148 0.334087 5.74964 0.315439 5.3078 0.298861C5.28825 0.298303 5.26911 0.304793 5.2536 0.317244C5.23808 0.329696 5.22713 0.34735 5.22259 0.367242C5.22259 0.400397 5.20674 0.433549 5.2008 0.468775C5.09777 0.584815 5.00267 0.711218 4.90558 0.827258C4.66505 1.0988 4.48148 1.41994 4.36666 1.77008C4.31118 1.94207 4.26759 2.12027 4.22598 2.29641C4.20617 2.37929 4.08134 2.69633 4.11106 2.7585C4.03973 2.60516 3.96642 2.44974 3.89707 2.29433C3.68308 1.81774 3.48496 1.32664 3.24719 0.862484C3.00943 0.398324 2.61911 0.37553 2.15745 0.421117C1.95932 0.441838 1.74533 0.352737 1.56305 0.477066C1.41061 0.611642 1.29734 0.78825 1.23612 0.986811C1.14338 1.15 1.06576 1.32208 1.00431 1.5007C0.952791 1.72864 1.06375 1.9027 1.15489 2.10577C1.30745 2.45389 1.46795 2.79786 1.63042 3.14184C1.62791 3.15366 1.62928 3.16602 1.63431 3.17692C1.63935 3.18782 1.64774 3.19663 1.65815 3.20193L1.85628 3.60393C2.12971 4.17377 2.41106 4.74153 2.68845 5.31137C2.83111 5.60147 2.97245 5.89157 3.11246 6.18167C3.19568 6.35573 3.29276 6.5961 3.49486 6.63754C3.71533 6.68217 3.9435 6.65765 4.15069 6.56709C4.43402 6.41582 4.56083 6.01175 4.68367 5.73823C4.69061 5.72029 4.69061 5.70023 4.68367 5.68228C4.69378 5.68202 4.70361 5.67877 4.71203 5.67291C4.72045 5.66704 4.7271 5.65879 4.73122 5.64913C5.01059 5.06271 5.28996 4.45765 5.55744 3.85051ZM5.8804 3.17499C5.82889 3.26824 5.77936 3.36148 5.72784 3.45266C5.77738 3.33455 5.82889 3.21851 5.87645 3.1004C5.87645 3.11697 5.89427 3.13563 5.90418 3.15428C5.89565 3.15883 5.88873 3.16608 5.88437 3.17499H5.8804ZM5.70209 3.86294C5.68624 3.84015 5.67434 3.81529 5.65849 3.79249L5.95371 3.25373C5.9755 3.29518 5.99532 3.3387 6.01513 3.38014C5.9121 3.54176 5.8071 3.6951 5.70209 3.86294ZM5.83087 4.07016L5.75954 3.95412L6.06863 3.48167L6.14987 3.64537C6.13951 3.64236 6.12849 3.64295 6.11848 3.64706C6.10847 3.65117 6.10002 3.65858 6.09439 3.66816L5.83087 4.07016ZM5.8804 4.15304C5.89381 4.14976 5.90573 4.1417 5.91409 4.13025L6.18157 3.71582L6.25289 3.85673L6.23507 3.87123L5.93985 4.25665C5.92202 4.2235 5.9022 4.19034 5.88437 4.15719L5.8804 4.15304ZM6.07853 4.48459C6.05278 4.439 6.029 4.39341 6.00324 4.3499L6.30639 3.95204L6.38961 4.11575C6.37854 4.11027 6.36601 4.10892 6.35411 4.11194C6.34221 4.11496 6.33166 4.12215 6.32422 4.13232L6.07853 4.48459ZM6.13402 4.58198L6.4114 4.1862V4.17169L6.48075 4.30845C6.46944 4.31062 6.45905 4.31642 6.45103 4.32503L6.17365 4.66486L6.13402 4.58198ZM6.23309 4.76018L6.53029 4.39963L6.58576 4.50323L6.29451 4.87208L6.23309 4.76018ZM6.43122 5.12281L6.70068 4.79333C6.74229 4.74153 6.66898 4.66694 6.62737 4.71874L6.3797 5.02542C6.36797 5.0068 6.35739 4.98742 6.34801 4.9674L6.63728 4.60063L6.80965 4.92803C6.80104 4.92429 6.79147 4.92368 6.78249 4.92631C6.77351 4.92894 6.76563 4.93465 6.76012 4.94253L6.50056 5.25335C6.47877 5.21398 6.45103 5.17047 6.42725 5.12695L6.43122 5.12281ZM6.55406 5.35074C6.64719 5.23884 6.74031 5.12902 6.83146 5.01713C6.83651 5.01021 6.84052 5.00252 6.84334 4.99433L6.9107 5.11244L6.59963 5.4357C6.57982 5.41083 6.56397 5.3839 6.5501 5.35281L6.55406 5.35074ZM6.65115 5.53101L6.96222 5.20776C6.986 5.2492 7.01175 5.29065 7.03553 5.33417L6.71654 5.65328L6.65115 5.53101ZM6.76607 5.74859L7.08705 5.42741L7.14648 5.52895L6.83739 5.88121L6.76607 5.74859ZM6.9642 6.11536L6.88891 5.9786L7.19998 5.62426L7.21187 5.64499C7.21552 5.65199 7.22103 5.65775 7.22773 5.66156C7.22569 5.66901 7.22569 5.67691 7.22773 5.68436C7.13262 5.82734 7.04345 5.97446 6.96024 6.11951L6.9642 6.11536ZM7.47539 5.7113L7.13856 6.23555H7.03355C7.16154 6.06825 7.27997 5.8932 7.38821 5.7113H7.48133H7.47539ZM7.26141 6.23347L7.56256 5.76517C7.56623 5.7601 7.56884 5.7543 7.57023 5.74811C7.57162 5.74193 7.57177 5.73551 7.57065 5.72927C7.56953 5.72303 7.56717 5.7171 7.56374 5.71186C7.5603 5.70662 7.55584 5.7022 7.55067 5.69886L7.78052 5.66778H7.83203C7.70325 5.85841 7.57644 6.05112 7.44765 6.24383L7.26141 6.23347ZM7.93506 5.8895C7.86967 6.00968 7.80231 6.12779 7.73692 6.25212H7.72503H7.56256C7.68541 6.06563 7.81024 5.88121 7.93309 5.69679C7.93638 5.69043 7.9381 5.6833 7.9381 5.67607C7.9381 5.66883 7.93638 5.66171 7.93309 5.65534C7.98136 5.65008 8.02909 5.64037 8.07574 5.62634C8.02818 5.70922 7.98064 5.80454 7.9311 5.89364L7.93506 5.8895ZM7.57248 2.71498L7.46746 2.78543C7.45557 2.74606 7.44369 2.70876 7.43378 2.66939L7.69928 2.47461C7.68144 2.56371 7.66164 2.65281 7.6438 2.74399C7.64161 2.73616 7.63761 2.72902 7.63215 2.72319C7.62669 2.71736 7.61993 2.71303 7.61249 2.71057C7.60506 2.70811 7.59715 2.70761 7.58948 2.7091C7.58181 2.71059 7.57461 2.71403 7.56851 2.71912L7.57248 2.71498ZM7.624 2.80615C7.60022 2.91597 7.57842 3.0258 7.55464 3.13355L7.48925 2.8994C7.53482 2.86625 7.57644 2.83724 7.62003 2.8103L7.624 2.80615ZM7.6973 2.34821L7.40207 2.55542C7.40207 2.53885 7.40208 2.52019 7.38821 2.50155C7.38735 2.49259 7.38735 2.48356 7.38821 2.47461L7.74881 2.19694C7.74881 2.24253 7.72901 2.28812 7.72108 2.3337C7.71545 2.33455 7.71005 2.33665 7.70526 2.33987C7.70048 2.34309 7.69641 2.34734 7.69334 2.35235L7.6973 2.34821ZM7.44964 2.30884L7.47341 2.21974H7.48925L7.82015 1.92135L7.79042 2.05396L7.44964 2.30884ZM7.52096 2.04153C7.53285 2.00423 7.54473 1.96279 7.55464 1.92342C7.6656 1.83018 7.77458 1.73485 7.88355 1.63953C7.88355 1.67269 7.86769 1.70584 7.86175 1.73692L7.52096 2.04153ZM7.84392 1.54008L7.60814 1.74729C7.62994 1.67062 7.65371 1.59602 7.67748 1.51935L7.97469 1.27691C7.95091 1.36601 7.92912 1.45304 7.90733 1.54215C7.89773 1.53397 7.88564 1.52968 7.87327 1.53006C7.8609 1.53044 7.84907 1.53547 7.83996 1.54422L7.84392 1.54008ZM8.10348 0.80861C8.07376 0.903928 8.04998 1.00339 8.02224 1.10078L7.74881 1.32457C7.84688 1.14068 7.96453 0.968978 8.09951 0.812752L8.10348 0.80861ZM5.04626 0.864555L5.13739 0.760948L5.06607 1.07591C5.06212 1.0695 5.05669 1.06422 5.05029 1.06057C5.04388 1.05691 5.03671 1.055 5.02941 1.055C5.02212 1.055 5.01495 1.05691 5.00854 1.06057C5.00214 1.06422 4.99671 1.0695 4.99276 1.07591C4.88775 1.20646 4.78076 1.33493 4.67377 1.46548C4.77165 1.25086 4.89551 1.05029 5.04229 0.8687L5.04626 0.864555ZM4.53309 1.79288L5.04626 1.17123C5.02645 1.25412 5.00861 1.33908 4.98879 1.42196C4.9847 1.41676 4.97956 1.41256 4.97374 1.40968C4.96791 1.40681 4.96156 1.40531 4.95511 1.40531C4.94867 1.40531 4.94231 1.40681 4.93649 1.40968C4.93067 1.41256 4.92552 1.41676 4.92143 1.42196L4.48355 1.93378C4.49742 1.89027 4.51129 1.84261 4.52912 1.79702L4.53309 1.79288ZM4.43005 3.25788L4.35081 3.32212C4.35081 3.29725 4.33297 3.27446 4.32505 3.24959L4.52318 3.05274C4.57272 3.00715 4.49941 2.93255 4.45186 2.97814L4.2775 3.14805C4.2775 3.12111 4.25569 3.09625 4.2438 3.06932L4.60441 2.77093C4.65593 2.72741 4.58262 2.65488 4.53309 2.69633L4.2022 2.96985C4.19677 2.95991 4.19213 2.94951 4.18833 2.93877C4.18833 2.90562 4.20617 2.87246 4.21608 2.83931C4.38647 2.68804 4.55884 2.53885 4.73122 2.38965C4.65197 2.67975 4.56678 2.96985 4.47761 3.25995C4.46975 3.25508 4.4607 3.25268 4.45157 3.25305C4.44243 3.25342 4.43358 3.25654 4.4261 3.26202L4.43005 3.25788ZM4.45186 3.37185L4.41619 3.48996C4.41619 3.46717 4.39836 3.44437 4.39043 3.42365L4.45186 3.37185ZM4.72132 2.26118L4.26759 2.65903C4.28344 2.60308 4.29731 2.54713 4.31316 2.48911C4.32053 2.49101 4.32825 2.49086 4.33554 2.48868C4.34284 2.4865 4.34947 2.48236 4.35477 2.47668L4.84614 1.97729C4.82237 2.07261 4.79859 2.16586 4.77283 2.25911C4.76399 2.25446 4.75406 2.25258 4.74422 2.25368C4.73438 2.25479 4.72505 2.25883 4.71735 2.26532L4.72132 2.26118ZM4.82831 1.84675L4.36468 2.31713C4.38053 2.25911 4.39638 2.20108 4.41421 2.14514C4.42096 2.14531 4.42766 2.14391 4.43383 2.14105C4.43999 2.13818 4.44547 2.13392 4.44987 2.12856L4.96106 1.53178C4.93729 1.63332 4.91153 1.739 4.88577 1.83639C4.87551 1.83098 4.86377 1.82948 4.85256 1.83212C4.84136 1.83477 4.83139 1.84141 4.82435 1.8509L4.82831 1.84675ZM1.14499 1.5753C1.18399 1.37887 1.25938 1.19233 1.3669 1.02618C1.41445 0.930863 1.46596 0.835545 1.51153 0.738154C1.53729 0.806535 1.56702 0.872844 1.59277 0.945369C1.58722 0.940803 1.58079 0.937535 1.57392 0.935782C1.56705 0.934029 1.55991 0.933832 1.55296 0.935206C1.54602 0.93658 1.53944 0.939492 1.53366 0.943747C1.52788 0.948001 1.52303 0.953502 1.51945 0.959875L1.14499 1.5753ZM1.18659 1.86333C1.17394 1.82882 1.16336 1.79352 1.15489 1.75765L1.60663 0.999246C1.60745 0.993754 1.60745 0.988161 1.60663 0.982669L1.65617 1.10907L1.18659 1.86333ZM1.23415 1.97937L1.70967 1.22718L1.77505 1.38466C1.76889 1.38741 1.76345 1.39168 1.7592 1.3971L1.27178 2.05811C1.25395 2.03739 1.24207 2.01045 1.23018 1.98351L1.23415 1.97937ZM1.33519 2.18658L1.3233 2.16379L1.82062 1.49241L1.89393 1.66026C1.88709 1.6591 1.88007 1.66005 1.87373 1.66299C1.8674 1.66594 1.86203 1.67075 1.85827 1.67684L1.38671 2.29848L1.33519 2.18658ZM1.43624 2.3938L1.92959 1.74729C1.95337 1.79909 1.97517 1.8509 1.99696 1.9027L1.50163 2.54507L1.43624 2.3938ZM1.55314 2.64246L2.04848 2.00009C2.07226 2.05604 2.09802 2.10991 2.12377 2.16379L1.61258 2.76264L1.55314 2.64246ZM1.72949 3.01336L1.66013 2.86417L2.17132 2.26739L2.25454 2.45182L1.72949 3.01336ZM1.77505 3.1149L2.3001 2.55128C2.33775 2.63209 2.37342 2.7129 2.40909 2.79372C2.40111 2.79147 2.39271 2.79144 2.38472 2.79362C2.37673 2.7958 2.36942 2.80012 2.36351 2.80615L1.85827 3.29311L1.77505 3.1149ZM1.90383 3.39257L2.43485 2.88075C2.43541 2.87663 2.43541 2.87244 2.43485 2.86832C2.46258 2.92841 2.49032 2.98643 2.51608 3.04652C2.51166 3.04188 2.50641 3.0382 2.50063 3.03569C2.49485 3.03318 2.48865 3.03189 2.4824 3.03189C2.47614 3.03189 2.46994 3.03318 2.46416 3.03569C2.45838 3.0382 2.45312 3.04188 2.4487 3.04652L1.9613 3.52933L1.90383 3.39257ZM2.01479 3.63086L2.52995 3.12112C2.53797 3.11368 2.54294 3.10329 2.54382 3.09211L2.62109 3.26824C2.61216 3.26982 2.60387 3.27415 2.59731 3.28067L2.08613 3.78628L2.01479 3.63086ZM2.11981 3.90231L2.65081 3.37599L2.70034 3.48789C2.52994 3.67438 2.35757 3.8588 2.18519 4.04322L2.11981 3.90231ZM2.23274 4.14476L2.74591 3.59149L2.81724 3.75312C2.64289 3.92925 2.46853 4.10538 2.29615 4.28359C2.28228 4.22764 2.26048 4.17998 2.24067 4.13439L2.23274 4.14476ZM2.34172 4.38305L2.86281 3.85465L2.92225 3.99142C2.91725 3.99191 2.91239 3.99345 2.90797 3.99594C2.90354 3.99843 2.89964 4.00183 2.89649 4.00592L2.41899 4.55297L2.34172 4.38305ZM2.46654 4.6545L2.96386 4.08466L3.03915 4.25251L2.53787 4.77883C2.51607 4.73117 2.49626 4.68765 2.47446 4.64414L2.46654 4.6545ZM2.57551 4.88866L3.08274 4.35404C3.10453 4.4017 3.12633 4.45143 3.14614 4.49909C3.13601 4.5018 3.12655 4.50675 3.1184 4.5136L2.631 5.01091C2.62109 4.95911 2.60128 4.91766 2.58345 4.87829L2.57551 4.88866ZM2.67855 5.11037L3.18776 4.59234L3.28881 4.82235C3.27932 4.81332 3.26695 4.80831 3.25412 4.80831C3.2413 4.80831 3.22894 4.81332 3.21945 4.82235L2.75384 5.26993L2.67855 5.11037ZM2.80139 5.36732L3.29078 4.89487C3.29559 4.89091 3.29951 4.88588 3.30225 4.88014C3.30499 4.87441 3.30649 4.86812 3.30663 4.86172L3.38984 5.05028C3.38123 5.04654 3.37176 5.04552 3.3626 5.04736C3.35344 5.0492 3.34501 5.05382 3.33834 5.06064L2.86281 5.49787L2.80139 5.36732ZM2.91036 5.59526L3.40967 5.13524C3.41432 5.13074 3.41774 5.12501 3.41957 5.11866C3.43938 5.16218 3.45721 5.20569 3.47702 5.24713L2.98367 5.72787L2.91036 5.59526ZM3.02528 5.83148L3.52062 5.3466L3.57015 5.4585C3.56232 5.45645 3.55409 5.45672 3.54639 5.45929C3.53869 5.46185 3.53183 5.46659 3.52656 5.473L3.08869 5.95788C3.07482 5.90608 3.05302 5.86463 3.0332 5.82112L3.02528 5.83148ZM3.13624 6.05734L3.59987 5.5476V5.53724C3.61572 5.57661 3.63157 5.6139 3.6494 5.6512L3.20558 6.20653L3.13624 6.05734ZM3.50675 6.07599C3.43938 6.18374 3.37202 6.28321 3.30861 6.40339L3.2571 6.29771C3.26617 6.29532 3.27442 6.29029 3.28087 6.2832L3.70488 5.75481C3.6338 5.8548 3.56767 5.95855 3.50675 6.06563V6.07599ZM3.53647 6.49042L3.42155 6.46763C3.48694 6.37231 3.54638 6.27492 3.6078 6.17753C3.69611 6.05408 3.77432 5.92307 3.8416 5.78589H4.03973C3.8733 6.01175 3.70488 6.24591 3.5444 6.47798L3.53647 6.49042ZM4.16654 6.38267C4.10586 6.44139 4.03131 6.48216 3.95057 6.50078L4.37855 5.86877C4.41817 5.81283 4.32901 5.76102 4.29137 5.81697C4.14078 6.03869 3.99019 6.26248 3.83763 6.4842C3.83545 6.48943 3.83433 6.49508 3.83433 6.50078C3.83433 6.50649 3.83545 6.51213 3.83763 6.51736C3.77669 6.52005 3.71565 6.51658 3.65535 6.507C3.8198 6.27906 3.98227 6.04906 4.14474 5.82112C4.14711 5.81231 4.14711 5.80299 4.14474 5.79418C4.26404 5.79815 4.38344 5.79051 4.50139 5.77138C4.42765 5.9899 4.31691 6.19275 4.17446 6.37024L4.16654 6.38267ZM5.84474 3.00508C5.83313 3.00003 5.82011 2.99979 5.80834 3.00441C5.79656 3.00903 5.78691 3.01816 5.78133 3.02995C5.35534 3.8588 4.94322 4.72289 4.59252 5.58904C4.59158 5.59799 4.59158 5.60702 4.59252 5.61597C4.59252 5.56417 4.02982 5.65742 3.98425 5.6512C3.84555 5.63463 3.75838 5.49786 3.68309 5.37146C3.53174 5.07213 3.39936 4.76271 3.28682 4.44521C3.08869 3.99349 2.89055 3.54176 2.69242 3.09003C2.51608 2.68804 2.34965 2.27983 2.17529 1.87576C2.09009 1.66855 2.00093 1.46133 1.90978 1.26862C1.85431 1.14844 1.67995 0.930864 1.69778 0.794103C1.72552 0.576528 1.9613 0.622115 2.11189 0.605537C2.38135 0.576527 2.67063 0.47292 2.90442 0.692567C3.03798 0.851412 3.14091 1.03576 3.20756 1.23547C3.58204 2.05397 3.905 2.9367 4.36468 3.70753C4.37068 3.71813 4.37974 3.72646 4.39057 3.7313C4.40139 3.73615 4.41341 3.73727 4.42489 3.7345C4.43636 3.73173 4.44669 3.72522 4.45438 3.7159C4.46208 3.70658 4.46674 3.69494 4.4677 3.68267C4.68203 3.16038 4.86533 2.62475 5.01654 2.07883C5.09381 1.79702 5.16514 1.51107 5.22854 1.22304C5.26024 1.07177 5.28005 0.901855 5.32562 0.752661C5.39893 0.512292 5.38309 0.535085 5.62679 0.512292C5.83682 0.493642 6.34999 0.454273 6.52038 0.584818C6.69078 0.715363 6.77597 1.22511 6.84928 1.45304C6.96816 1.81981 7.08111 2.18865 7.20197 2.55335C7.25732 2.79922 7.33426 3.03923 7.4318 3.27031C7.50709 3.41329 7.56257 3.47753 7.62993 3.30969C7.69851 3.12278 7.75414 2.93096 7.79637 2.7357C7.84987 2.55542 8.39077 0.516437 8.34321 0.510221C8.76128 0.566169 9.18133 0.601394 9.60138 0.632476C9.12783 2.25289 8.6107 3.8588 8.14112 5.47921C8.00459 5.46965 7.86748 5.48294 7.73495 5.51858C7.61409 5.5393 7.4952 5.55796 7.3783 5.58697C7.36784 5.5784 7.35493 5.57374 7.34164 5.57374C7.32836 5.57374 7.31545 5.5784 7.30499 5.58697C6.89089 4.70631 6.38763 3.86087 5.91805 3.01544C5.91555 3.00912 5.91179 3.00343 5.907 2.99877C5.90222 2.99411 5.89654 2.99057 5.89034 2.98841C5.88414 2.98625 5.87756 2.98551 5.87106 2.98624C5.86456 2.98697 5.85829 2.98915 5.85267 2.99264L5.84474 3.00508Z" fill="#EF5023"/>
</svg>
