<svg width="10" height="8" viewBox="0 0 10 8" fill="none" xmlns="http://www.w3.org/2000/svg">
<path d="M4.54403 2.85443C4.4093 2.88137 4.4311 2.98084 4.45686 3.03057L4.75009 3.19634L5.17608 3.44085C5.18292 3.45642 5.19157 3.47103 5.20184 3.48437C5.20184 3.48437 5.2157 3.48437 5.21769 3.46572L5.69123 3.73924C5.73086 3.83248 5.76257 3.87393 5.76059 3.78068L6.05976 3.95889L5.98843 4.10601C5.81606 4.47485 5.64962 4.84576 5.48319 5.21667L5.38214 5.44254C4.27059 4.75914 3.1258 4.13666 1.95243 3.57761L1.64334 3.44085H1.6255C1.60807 3.4448 1.59157 3.45233 1.57695 3.463C1.56232 3.47367 1.54987 3.48727 1.54031 3.50302L1.49474 3.51545L1.3917 3.76618C1.33821 3.89258 1.28472 4.01484 1.22726 4.13916L1.15592 4.28628C1.15592 4.28628 1.10243 4.42305 1.04298 4.55152C0.983544 4.67999 0.922133 4.80639 0.930059 4.7981C0.891662 4.86799 0.865491 4.94447 0.852783 5.02397C0.852783 5.0509 0.908258 5.02397 1.02318 4.86441C1.09397 4.76993 1.1601 4.67172 1.22131 4.57017C1.27877 4.47692 1.3184 4.40647 1.3184 4.40647L1.40162 4.23034C1.46106 4.10601 1.51653 3.97961 1.57003 3.85321L1.63542 3.69572L1.86922 3.79726C3.03764 4.35725 4.17776 4.97972 5.28506 5.66218L5.00766 6.28383L4.90266 6.55528C4.84916 6.68997 4.79765 6.82051 4.80557 6.81015C4.72434 7.03394 4.69858 7.1935 4.90266 6.87024C5.0255 6.68168 5.17807 6.39987 5.17807 6.39987L5.39205 5.92535L5.4614 5.76994C5.96268 6.06418 6.46594 6.35428 6.97911 6.6278L7.43878 6.83087L7.87666 7.04845L8.17782 7.18936L8.44333 7.28882C8.57409 7.3344 8.70487 7.37792 8.69496 7.3717C8.91489 7.43801 9.06547 7.45045 8.74251 7.26602C8.64939 7.208 8.53248 7.14791 8.44134 7.09611L8.28284 7.00701L8.06488 6.90754C7.76966 6.76456 7.47048 6.61745 7.18516 6.46411C6.64029 6.17608 6.10732 5.86733 5.57434 5.55651L5.67142 5.33479C5.83984 4.95766 6.01023 4.58053 6.18458 4.20754L6.24799 4.07285L6.42433 4.17646L7.00685 4.52873C7.00685 4.54531 7.02468 4.54944 7.03062 4.54323L7.8727 5.05091C7.8727 5.05091 8.37794 5.31407 8.36011 5.29749C8.55825 5.39488 8.71675 5.43011 8.42153 5.2001C8.25114 5.06127 7.99554 4.88099 7.99554 4.88099L7.5002 4.5826C7.50355 4.52809 7.50355 4.47341 7.5002 4.4189C7.5002 4.23448 7.4903 3.97132 7.4903 3.97132L7.43878 3.51545L7.37339 2.93318C7.33377 2.54569 7.2981 2.1582 7.27433 1.76863C7.27433 1.72098 7.27433 1.67332 7.27433 1.62566L7.5953 1.78314L7.61512 2.05459C7.64484 2.42343 7.6805 2.79227 7.71815 3.15904L7.77165 3.71023L7.79542 3.98582L7.80929 4.16817C7.80929 4.16817 7.82515 4.28836 7.841 4.4044C7.85685 4.52044 7.86873 4.63647 7.87071 4.62611C7.89845 4.81675 7.94205 4.94108 7.96186 4.62611C7.97771 4.44169 7.97375 4.17646 7.97375 4.17646L7.96186 4.0024L7.9361 3.72266L7.8826 3.16111C7.84694 2.78606 7.80929 2.41307 7.77957 2.04008L7.76768 1.86809L8.10056 2.03594C8.10056 2.06702 8.11244 2.09603 8.1164 2.12504C8.18971 2.53947 8.24717 2.9539 8.29472 3.38076L8.3086 3.51545L8.34426 3.75168C8.36209 3.86772 8.37992 3.98168 8.37992 3.97132C8.37992 4.00448 8.39181 4.03556 8.39776 4.0625C8.4037 4.08943 8.36408 4.14745 8.34822 4.19304C8.29473 4.32565 8.23925 4.45413 8.24717 4.44584C8.15999 4.66341 8.12631 4.82297 8.34227 4.50593C8.47106 4.32151 8.62362 4.03763 8.62362 4.03763L8.70486 3.8615C8.85743 3.5196 9.00603 3.17769 9.17444 2.84822C9.21143 2.77362 9.25105 2.69903 9.29332 2.62443C9.5608 2.74669 9.7312 2.78191 9.33295 2.46073C9.13146 2.29915 8.9218 2.14905 8.70486 2.01107L8.46313 1.8826C7.74787 1.50961 7.01873 1.17393 6.31139 0.807159C6.16874 0.732561 6.02607 0.657963 5.8854 0.579222C5.87693 0.577108 5.86812 0.577108 5.85965 0.579222C5.83315 0.582507 5.80755 0.591363 5.7844 0.60525C5.76124 0.619137 5.74101 0.637772 5.72491 0.660038H5.71501L5.68925 0.670396C5.68925 0.670396 5.68925 0.670396 5.67736 0.670396L5.64962 0.7077C5.63867 0.71941 5.62934 0.732662 5.62189 0.747071L5.57434 0.823739C5.54264 0.875543 5.51489 0.925272 5.48518 0.977076C5.28704 1.33348 5.12061 1.7044 4.95219 2.06702L4.88087 2.21829C4.88087 2.21829 4.82737 2.35298 4.76991 2.48559C4.71245 2.61821 4.65697 2.74461 4.66489 2.73425C4.64508 2.77984 4.62923 2.82128 4.61536 2.85858L4.58564 2.842L4.54403 2.85443ZM8.903 2.42757L9.10113 2.52911C9.06151 2.59956 9.02386 2.66863 8.9882 2.73632C8.95055 2.80885 8.91687 2.88138 8.88121 2.9539V2.94354L8.84158 2.64722C8.82771 2.53947 8.8178 2.44001 8.81384 2.38406L8.903 2.42757ZM8.33237 2.14577L8.53051 2.25559L8.68504 2.32811C8.67889 2.3318 8.67351 2.33673 8.6692 2.34262H8.65731C8.66204 2.44816 8.67262 2.55332 8.68901 2.65758L8.72864 2.9539C8.74443 3.01011 8.76294 3.06543 8.78411 3.11967C8.78796 3.12906 8.7926 3.13808 8.79798 3.14661C8.70486 3.35382 8.61372 3.56104 8.52456 3.75168L8.47701 3.85528C8.47701 3.68537 8.47701 3.49887 8.47701 3.49887L8.46115 3.33932C8.41558 2.92489 8.3601 2.51046 8.28877 2.11054L8.33237 2.14577ZM5.22957 3.23157C5.22957 3.14868 5.22957 3.07201 5.21769 3.00985V2.85443L5.19193 2.69488C5.18202 2.64101 5.17212 2.58713 5.16023 2.53326C5.14093 2.43862 5.11645 2.34522 5.08692 2.25352L5.12457 2.1727C5.16221 2.08981 5.19986 2.009 5.23949 1.92611C5.29488 2.32487 5.38034 2.71843 5.49508 3.10309L5.53074 3.23364L5.60207 3.44085L5.22957 3.23157ZM7.10592 1.53448L7.1178 1.77278C7.14158 2.1582 7.17724 2.54154 7.21687 2.92489L7.28028 3.49887L7.33376 3.97132C7.33376 3.97132 7.41699 4.44584 7.41897 4.42512C7.42719 4.46807 7.43845 4.51032 7.45265 4.55152L7.04251 4.30493C7.04251 4.12466 7.01675 3.90294 7.01675 3.90294L6.94344 3.4222C6.91174 3.21499 6.88401 3.00777 6.85825 2.80056C6.80298 2.39227 6.7811 1.97981 6.79286 1.56764C6.79286 1.50547 6.79286 1.44331 6.80673 1.38321L7.10592 1.53448ZM6.65021 1.30862C6.65021 1.39358 6.63237 1.47853 6.6284 1.56349C6.61537 1.97912 6.63725 2.39514 6.69379 2.80677C6.71757 3.01399 6.7453 3.2212 6.77701 3.41806L6.8523 3.90915C6.8523 3.90915 6.89193 4.09979 6.92364 4.23241L6.62643 4.05421C6.62911 4.0135 6.62911 3.97265 6.62643 3.93195C6.62643 3.74546 6.58879 3.48437 6.58879 3.48437L6.50754 3.01606C6.47386 2.81921 6.44217 2.62235 6.41443 2.4255C6.35588 2.0332 6.32278 1.63721 6.31536 1.24024V1.13663L6.65021 1.30862ZM6.14892 1.05374C6.14892 1.11591 6.14892 1.17807 6.14892 1.24024C6.156 1.63929 6.1891 2.03737 6.24799 2.43172C6.27375 2.6265 6.30545 2.82335 6.33914 3.01814L6.42235 3.49473C6.42235 3.49473 6.53529 3.96303 6.53529 3.94231C6.54042 3.96486 6.54703 3.98702 6.5551 4.00862L6.33715 3.88015C6.31932 3.79933 6.2797 3.77446 6.24205 3.77239C6.24205 3.75581 6.24205 3.73924 6.24205 3.72059C6.24205 3.5341 6.19846 3.27301 6.19846 3.27301L6.10534 2.81506C6.06571 2.62443 6.02806 2.43379 5.9924 2.24315C5.91795 1.86316 5.86305 1.47926 5.82794 1.09311L5.81606 0.885901L6.14892 1.05374ZM5.6417 1.09726L5.65755 1.06825C5.65755 1.08068 5.65755 1.09104 5.65755 1.10347C5.69073 1.48974 5.74498 1.87372 5.82002 2.25352C5.85569 2.44208 5.89333 2.63065 5.93098 2.81921L6.0241 3.28337C6.0241 3.28337 6.0558 3.39941 6.08552 3.51337C6.11524 3.62734 6.14298 3.73924 6.14298 3.72059C6.14298 3.70194 6.14299 3.75374 6.15685 3.76825L5.74076 3.52166C5.71501 3.36211 5.68133 3.19841 5.68133 3.19841L5.63971 3.04714C5.52591 2.66798 5.44111 2.27996 5.38611 1.88675C5.38611 1.84116 5.38611 1.79557 5.38611 1.74999V1.6526V1.62151V1.60908C5.45744 1.4433 5.54264 1.26303 5.63576 1.09726H5.6417ZM4.74019 2.81092C4.82041 2.69964 4.89514 2.58414 4.96408 2.46487C4.96408 2.5001 4.98191 2.53533 4.98984 2.57055C4.99776 2.60578 5.01163 2.67416 5.01955 2.72596L5.04136 2.85858C5.04136 2.85858 5.06711 2.97669 5.09089 3.09273C5.09089 3.11552 5.09088 3.13832 5.10475 3.15904L4.86303 3.0202L4.66489 2.90831L4.74019 2.81092Z" fill="#F58A41"/>
</svg>
