<svg width="77" height="78" viewBox="0 0 77 78" fill="none" xmlns="http://www.w3.org/2000/svg">
<path d="M3.83458 0.665039H65.1878C66.2048 0.665039 67.1801 1.03221 67.8992 1.68577C68.6184 2.33934 69.0224 3.22576 69.0224 4.15004V18.09C69.0224 19.0143 68.6184 19.9007 67.8992 20.5543C67.1801 21.2079 66.2048 21.575 65.1878 21.575H3.83458C2.81758 21.575 1.84224 21.2079 1.12312 20.5543C0.403999 19.9007 0 19.0143 0 18.09V4.15004C0 3.22576 0.403999 2.33934 1.12312 1.68577C1.84224 1.03221 2.81758 0.665039 3.83458 0.665039ZM3.83458 28.545H65.1878C66.2048 28.545 67.1801 28.9122 67.8992 29.5658C68.6184 30.2193 69.0224 31.1058 69.0224 32.03V34.365L59.4359 30.4966L34.5112 40.5334V49.455H3.83458C2.81758 49.455 1.84224 49.0879 1.12312 48.4343C0.403999 47.7807 0 46.8943 0 45.97V32.03C0 31.1058 0.403999 30.2193 1.12312 29.5658C1.84224 28.9122 2.81758 28.545 3.83458 28.545ZM3.83458 56.425H34.5112C34.7413 64.2663 38.3458 71.759 43.9442 77.335H3.83458C2.81758 77.335 1.84224 76.9679 1.12312 76.3143C0.403999 75.6607 0 74.7743 0 73.85V59.91C0 58.9858 0.403999 58.0993 1.12312 57.4458C1.84224 56.7922 2.81758 56.425 3.83458 56.425ZM23.0075 14.605H26.842V7.63504H23.0075V14.605ZM23.0075 42.485H26.842V35.515H23.0075V42.485ZM23.0075 70.365H26.842V63.395H23.0075V70.365ZM7.66915 7.63504V14.605H15.3383V7.63504H7.66915ZM7.66915 35.515V42.485H15.3383V35.515H7.66915ZM7.66915 63.395V70.365H15.3383V63.395H7.66915ZM59.4359 39L76.6915 45.97V56.425C76.6915 66.1133 69.3291 75.1395 59.4359 77.335C49.5427 75.1395 42.1803 66.1133 42.1803 56.425V45.97L59.4359 39ZM59.4359 45.7609L49.8495 49.6641V58.9342C49.8495 64.3011 53.9525 69.3195 59.4359 70.5741V45.7609Z" fill="#F8F8F8"/>
</svg>
