<svg width="3" height="1" viewBox="0 0 3 1" fill="none" xmlns="http://www.w3.org/2000/svg">
<path d="M0.87188 0.95876C0.957078 0.931822 1.04426 0.911099 1.13144 0.89245C1.34152 0.846247 1.55492 0.818523 1.76942 0.809566H1.89822C1.89822 0.809566 2.00917 0.799207 2.12013 0.799207C2.23108 0.799207 2.33807 0.799207 2.33015 0.799207C2.39118 0.809432 2.45338 0.809432 2.51441 0.799207C2.52432 0.799207 2.51442 0.782625 2.49262 0.76812C2.44711 0.742569 2.39844 0.723742 2.34799 0.712175C2.25626 0.68608 2.16291 0.666693 2.06861 0.654155L1.91803 0.639648H1.76349C1.53984 0.650319 1.31729 0.678721 1.09776 0.724607C1.00661 0.745328 0.915474 0.768121 0.826313 0.795059C0.826313 0.795059 0.826313 0.795063 0.826313 0.805424C0.760929 0.902814 0.826309 0.946327 0.87188 0.95876C0.867917 0.95876 0.867917 0.960832 0.87188 0.95876Z" fill="#5EBA47"/>
</svg>
