<svg width="1" height="2" viewBox="0 0 1 2" fill="none" xmlns="http://www.w3.org/2000/svg">
<path d="M0.703656 0.711426H0.693751C0.622782 0.724183 0.557926 0.761369 0.509487 0.817094C0.434353 0.911543 0.386881 1.02667 0.372774 1.14864C0.356953 1.26391 0.352969 1.38061 0.360886 1.49676C0.360886 1.52577 0.360886 1.55686 0.360886 1.58794C0.360886 1.58794 0.374752 1.66876 0.394566 1.7475C0.407327 1.79649 0.423894 1.84431 0.4441 1.89047C0.457546 1.93336 0.482268 1.97141 0.515431 2.00029C0.531282 2.00029 0.51543 1.97336 0.50156 1.87389C0.491654 1.81587 0.481748 1.74542 0.477785 1.6874V1.59001C0.477785 1.55479 0.477782 1.52163 0.467875 1.48848C0.460904 1.38128 0.464889 1.2736 0.479762 1.16729C0.49029 1.06708 0.528118 0.972153 0.58874 0.893775C0.621064 0.856667 0.664287 0.831872 0.711583 0.823317C0.719787 0.814287 0.725993 0.803477 0.729759 0.791661C0.733525 0.779844 0.734763 0.767305 0.733381 0.754933C0.731476 0.745963 0.727857 0.737494 0.722751 0.730017C0.717645 0.722541 0.711151 0.716219 0.703656 0.711426Z" fill="black"/>
</svg>
