<svg width="7" height="7" viewBox="0 0 7 7" fill="none" xmlns="http://www.w3.org/2000/svg">
<path d="M3.68547 6.64239L3.73699 6.60716C4.01575 6.42109 4.28068 6.21329 4.52953 5.98552C4.65516 5.86853 4.76932 5.73872 4.87032 5.59803C4.97531 5.45472 5.0527 5.29145 5.09818 5.11729C5.11803 5.02769 5.12603 4.93565 5.12195 4.84377V4.77953H5.1695C5.34219 4.77327 5.51195 4.73099 5.66881 4.6552C5.75133 4.61762 5.82579 4.56307 5.88776 4.4948C5.94974 4.42654 5.99795 4.34595 6.02956 4.25781C6.06116 4.16966 6.07551 4.07578 6.07174 3.98173C6.06797 3.88767 6.04616 3.79537 6.00761 3.7103C5.97215 3.62466 5.92176 3.54666 5.85901 3.4803C5.79536 3.41298 5.71915 3.36008 5.63511 3.32489C5.46575 3.25832 5.27835 3.26277 5.11205 3.33732C5.07195 3.35484 5.0329 3.37491 4.99514 3.39741L4.93769 3.43264L4.88617 3.47201C4.85035 3.49666 4.81655 3.52438 4.78512 3.55489L4.76134 3.57769L4.73559 3.56526L4.70586 3.54868C4.68407 3.54868 4.66425 3.53003 4.64246 3.52382C4.60033 3.5096 4.5573 3.49852 4.51368 3.49066C4.42725 3.47346 4.33991 3.4617 4.25214 3.45543C4.18609 3.45543 4.12005 3.45129 4.054 3.443C3.98862 3.48859 4.01834 3.53624 4.054 3.55697L4.25214 3.5694C4.40485 3.56575 4.55644 3.5976 4.69596 3.66265L4.74351 3.69373L4.76728 3.7103H4.77917L4.84852 3.64607C4.87592 3.61769 4.90577 3.59203 4.93769 3.5694C4.96766 3.5447 4.99946 3.52252 5.03279 3.50309L5.08431 3.47201L5.13582 3.44921C5.20367 3.41786 5.27593 3.39827 5.3498 3.3912C5.42299 3.38796 5.49614 3.39849 5.56577 3.42228C5.63413 3.4487 5.69726 3.48803 5.75202 3.53832C5.80501 3.59186 5.84919 3.65416 5.88278 3.72273C5.95024 3.861 5.96579 4.02067 5.92638 4.17032C5.88122 4.31818 5.78328 4.44212 5.65295 4.51637C5.51699 4.5924 5.36697 4.63692 5.21309 4.64691C5.19327 4.64691 5.17346 4.64691 5.15563 4.64691H5.07836H5.01892C4.9991 4.64691 4.96939 4.64691 4.98325 4.66763L5.00109 4.78367C5.01207 4.86269 5.01207 4.94295 5.00109 5.02197C4.9719 5.1799 4.91113 5.3296 4.82277 5.46126C4.73286 5.59686 4.62923 5.72191 4.51368 5.83425C4.27705 6.05952 4.02251 6.26332 3.75283 6.44346L3.65178 6.51184L3.61415 6.53878L3.43979 6.37922C3.31893 6.2694 3.19806 6.1575 3.08512 6.03939L3.00191 5.95029L2.96426 5.90885L2.94642 5.88812L2.90878 5.84668L2.86718 5.8011C2.82755 5.75965 2.77405 5.69749 2.73838 5.65397L2.81169 5.63118L2.86123 5.61667H2.8751H2.89294L2.9286 5.60009L3.04352 5.53793L3.11683 5.49856C3.21391 5.44468 3.31496 5.38667 3.40214 5.32658C3.7786 5.08414 4.12533 4.80439 4.47603 4.53708L4.57708 4.45835C4.62889 4.50072 4.68464 4.5375 4.74351 4.56817H4.75539V4.53916L4.77125 4.48322L4.78512 4.42519V4.3879C4.7901 4.34315 4.7901 4.29795 4.78512 4.2532C4.78512 4.24284 4.78512 4.23041 4.78512 4.22005C4.78512 4.20969 4.78512 4.18275 4.77522 4.1641C4.76675 4.12687 4.75616 4.0902 4.74351 4.05428V4.0377C4.69168 4.06472 4.64313 4.0981 4.59887 4.13716L4.57708 4.15997L4.55924 4.18276C4.54843 4.1961 4.53912 4.21069 4.5315 4.22626C4.49432 4.22822 4.45728 4.23239 4.42055 4.23871C4.29431 4.26571 4.17136 4.30741 4.054 4.36303L3.96881 4.4024L3.82614 4.477C3.75481 4.51222 3.68349 4.54123 3.69141 4.54123C3.66981 4.54975 3.64865 4.55944 3.62801 4.57025C3.66775 4.51393 3.70415 4.45511 3.73699 4.39412C3.79142 4.29105 3.82829 4.17885 3.84596 4.06257C3.86225 3.94418 3.85138 3.82343 3.81425 3.7103C3.81425 3.68129 3.79246 3.65436 3.78058 3.62742L3.7667 3.59841L3.84001 3.56111C3.88757 3.53418 3.93314 3.5031 3.98069 3.47201C4.02608 3.43854 4.06972 3.40257 4.11146 3.36426C4.19256 3.28616 4.25965 3.19352 4.30959 3.09073C4.36195 2.98303 4.38782 2.86339 4.38488 2.74262C4.38008 2.62339 4.34983 2.50679 4.29635 2.40138C4.24287 2.29596 4.16751 2.20441 4.07579 2.13341C4.05063 2.11288 4.02416 2.09418 3.99655 2.07745C4.03067 2.0676 4.06384 2.05441 4.09561 2.03808C4.15873 2.00831 4.21745 1.96923 4.26997 1.92204L4.32941 1.86818L4.34922 1.84124L4.38687 1.7915L4.40272 1.76457L4.43838 1.70034C4.50582 1.55789 4.52536 1.39581 4.49386 1.24031C4.45715 1.08785 4.37617 0.95102 4.26204 0.848675C4.23546 0.821405 4.20625 0.797104 4.17486 0.776156C4.14412 0.755152 4.11238 0.735781 4.07976 0.71813C4.01379 0.682238 3.94297 0.657086 3.86974 0.643535C3.72162 0.628828 3.57244 0.656025 3.43781 0.722278L3.33874 0.767872C3.3212 0.77549 3.30458 0.785217 3.28921 0.796872C3.27233 0.806219 3.2564 0.817334 3.24165 0.830033C3.1851 0.877523 3.1321 0.929479 3.08314 0.985444C2.99797 1.09151 2.90381 1.18929 2.80179 1.27761C2.77787 1.29475 2.75094 1.30672 2.72254 1.31283C2.69597 1.32315 2.66759 1.32739 2.63932 1.32527C2.57207 1.32133 2.50553 1.3088 2.44118 1.28797C2.31123 1.24394 2.17891 1.20797 2.04491 1.18023C1.96967 1.16486 1.89231 1.16486 1.81707 1.18023C1.74814 1.19963 1.68164 1.22744 1.61893 1.2631C1.49415 1.33179 1.37603 1.413 1.26624 1.50555C1.15529 1.59466 1.05028 1.68996 0.943284 1.77906L0.782796 1.91168C0.752411 1.93548 0.72392 1.96182 0.697599 1.99043L0.675807 2.01944C0.669335 2.03201 0.664024 2.04519 0.659953 2.05881C0.654202 2.08471 0.654202 2.11165 0.659953 2.13755C0.676453 2.2122 0.699668 2.28505 0.729295 2.35513C0.752853 2.42565 0.779977 2.49482 0.810537 2.56234C0.872279 2.6946 0.945215 2.82082 1.02848 2.93947C1.06613 2.99335 1.10576 3.04515 1.14539 3.09488L1.09982 3.13839L1.05028 3.18813L1.01659 3.22128V3.23164L1.02848 3.25237L1.2385 3.60877C1.45645 3.9859 1.66847 4.36718 1.89236 4.74016C2.00331 4.92666 2.11823 5.11315 2.23909 5.2955L2.33023 5.43225L2.40552 5.54208L2.52044 5.47577C2.61356 5.42189 2.70471 5.36595 2.79585 5.30585C2.81424 5.29154 2.83342 5.2784 2.85331 5.26648L2.88303 5.31829L2.85132 5.34108C2.81295 5.37499 2.77898 5.414 2.75027 5.45712C2.73036 5.49018 2.71439 5.52567 2.70272 5.5628L2.6849 5.61667L2.67103 5.60217C2.58781 5.49856 2.52044 5.43641 2.61554 5.6374C2.65593 5.71776 2.7023 5.79467 2.75424 5.86741L2.78198 5.90678L2.81963 5.95029L2.83944 5.97309L2.89095 6.0311C3.00785 6.15543 3.12872 6.27355 3.25354 6.38752L3.43781 6.55742L3.5547 6.6631L3.56659 6.67347C3.56659 6.67347 3.56659 6.67347 3.57847 6.67347L3.60423 6.65482L3.68547 6.64239ZM3.12475 1.98628C3.14853 2.01322 3.1406 2.00493 3.12475 1.98628C3.12213 1.97086 3.11675 1.9561 3.1089 1.94277V1.93034C3.10616 1.90623 3.09875 1.88296 3.0871 1.86196C3.07953 1.84861 3.06919 1.83721 3.05685 1.8286C3.0445 1.82 3.03047 1.8144 3.01578 1.81223C2.97646 1.81424 2.93926 1.83147 2.91143 1.86058C2.88359 1.88969 2.86712 1.92859 2.86519 1.96971C2.86571 1.99621 2.87325 2.02203 2.88699 2.0443L2.82556 2.0816C2.79386 2.05259 2.77009 2.02979 2.80576 2.06502H2.7899L2.72848 2.11476L2.59375 2.22043C2.43524 2.32611 2.27871 2.42765 2.11822 2.52504L2.09445 2.53748C2.0786 2.50225 2.09445 2.51261 2.09445 2.53748C2.09445 2.53748 2.09445 2.53747 2.09445 2.55612H2.07067C1.81969 2.62492 1.58407 2.74461 1.3772 2.90838L1.29002 2.97884C1.25237 2.93118 1.21473 2.88145 1.17907 2.82964C1.10341 2.71916 1.03712 2.60198 0.98093 2.47945C0.95121 2.41729 0.929412 2.35512 0.903655 2.28882C0.877897 2.22251 0.852151 2.15413 0.840262 2.09818C0.828374 2.04223 0.840262 2.06296 0.840262 2.04638C0.858511 2.02266 0.879843 2.00173 0.903655 1.98422C0.953189 1.94277 1.01066 1.89926 1.06217 1.85367L1.3772 1.58636C1.47153 1.51034 1.57159 1.44244 1.67639 1.38329C1.73202 1.35083 1.79038 1.32377 1.85074 1.30247C1.90821 1.28292 1.96904 1.27656 2.02907 1.28383C2.1592 1.3025 2.28728 1.33441 2.41147 1.37914C2.47618 1.40109 2.54242 1.41772 2.6096 1.42887H2.66706C2.68616 1.43091 2.70541 1.43091 2.72451 1.42887C2.76379 1.42294 2.80233 1.41252 2.83944 1.3978C2.90643 1.36232 2.96683 1.3146 3.01776 1.25689C3.0673 1.20509 3.11286 1.15121 3.15843 1.09941C3.23726 0.995019 3.33659 0.909516 3.44969 0.848675C3.56385 0.788058 3.68851 0.752114 3.81624 0.742994C3.94057 0.751903 4.06002 0.797134 4.16099 0.87354C4.25991 0.951182 4.33833 1.05387 4.38885 1.17193C4.43046 1.29245 4.43046 1.4244 4.38885 1.54492C4.38885 1.57601 4.36508 1.605 4.35517 1.63609L4.3314 1.67546L4.31951 1.69826C4.31951 1.71277 4.29969 1.72726 4.28978 1.74177L4.26204 1.78321C4.24095 1.81136 4.21847 1.83834 4.19468 1.86403C4.14119 1.92205 4.07975 1.96763 4.0857 1.96556C4.05281 1.99002 4.02229 2.01779 3.99456 2.04845C3.93234 2.01021 3.86577 1.98028 3.79643 1.95935C3.68695 1.92699 3.57215 1.91921 3.4596 1.93655C3.33378 1.95416 3.21329 2.00088 3.10691 2.07332C3.11538 2.04494 3.12136 2.0158 3.12475 1.98628ZM2.79387 2.41936L2.75622 2.47739L2.74037 2.50225C2.72997 2.51738 2.7207 2.5333 2.71263 2.54991L2.65914 2.64729L2.59969 2.61414C2.57789 2.60378 2.55611 2.59757 2.53431 2.58928L2.52441 2.57477H2.54025H2.56007L2.59969 2.55819C2.62514 2.54644 2.64967 2.53258 2.67301 2.51675C2.71595 2.48805 2.75639 2.45547 2.79387 2.41936ZM2.53431 2.58928L2.5026 2.57685C2.47727 2.56935 2.45145 2.5638 2.42534 2.56027H2.39363H2.34807L2.44912 2.49396L2.47091 2.47739C2.45109 2.46703 2.5145 2.56234 2.53431 2.58928ZM2.96624 2.13133L3.00587 2.14376H3.03163C3.01028 2.16059 2.98978 2.17858 2.97021 2.19764L2.9286 2.14376L2.96624 2.13133ZM2.83944 2.21007H2.85331L2.89294 2.18521L2.86718 2.208L2.8434 2.22873L2.81368 2.25359C2.82369 2.24081 2.83232 2.22691 2.83944 2.21215V2.21007ZM1.91217 4.29672C1.92253 4.26001 1.94242 4.22701 1.96962 4.2014C1.99765 4.16656 2.02885 4.13465 2.06275 4.10609L2.16974 4.01905L2.22918 3.97762L2.14398 4.06049L2.07067 4.13095L2.03303 4.16618L2.0152 4.18276H2.00528V4.19519C1.98804 4.21616 1.97216 4.23831 1.95773 4.2615C1.94438 4.28198 1.93246 4.30345 1.92207 4.32573C1.91761 4.31654 1.91429 4.30679 1.91217 4.29672ZM2.70471 3.67508L2.81566 3.61707L2.7265 3.70409L2.70471 3.67508ZM2.05878 4.34024L2.0152 4.36096L2.02709 4.34645C2.03898 4.33402 2.04888 4.32159 2.06077 4.31123L2.07662 4.33402L2.05878 4.34024ZM1.98548 4.48943L1.96962 4.46042V4.45006C1.99184 4.44172 2.01223 4.42881 2.02959 4.41208C2.04695 4.39535 2.06092 4.37515 2.07067 4.35267C2.12417 4.42934 2.07068 4.34024 2.08851 4.37546L2.14795 4.33609L2.24503 4.26771C2.17259 4.34248 2.09512 4.41173 2.01322 4.47492L1.98548 4.49565L1.96567 4.50808L1.98548 4.48943ZM2.461 5.37009L2.36986 5.23541C2.25098 5.05513 2.13804 4.8707 2.02709 4.68421C2.0152 4.66556 2.0033 4.64691 1.9934 4.62826L2.03104 4.60339L2.07067 4.57646L2.1004 4.55574C2.25308 4.43698 2.39502 4.30381 2.52441 4.15789C2.63338 4.03978 2.73641 3.91752 2.83944 3.79527V3.77248V3.79527L2.85331 3.77869L2.83944 3.845L2.82161 3.92995L2.83745 3.89058L2.86916 3.81183L2.91076 3.70617L2.99002 3.61084L3.00191 3.59634C3.03955 3.63571 3.00191 3.60877 2.97813 3.57562H3.01181C3.03013 3.573 3.04809 3.56813 3.06531 3.56111L3.11286 3.54038V3.48652V3.45751C3.11384 3.45064 3.11384 3.44365 3.11286 3.43678V3.42435V3.3912C3.11286 3.37462 3.11286 3.3912 3.11286 3.3912L3.0871 3.37254L3.06333 3.33111V3.32074L2.96029 3.28966V3.30417C2.95256 3.3125 2.9465 3.32235 2.94247 3.33317C2.93021 3.35403 2.92023 3.37628 2.91274 3.39948C2.9041 3.42683 2.90073 3.45572 2.90284 3.48445L2.86123 3.50309C2.69022 3.5881 2.52416 3.68359 2.36391 3.78904C2.28267 3.84085 2.20541 3.89679 2.12814 3.95481C2.08851 3.98382 2.05086 4.01283 2.01322 4.04599C1.97534 4.07871 1.9402 4.11476 1.9082 4.15374C1.86782 4.19728 1.83853 4.25071 1.823 4.30915V4.28429C1.68233 4.03978 1.54363 3.79319 1.40098 3.54868L1.21869 3.23786L1.28012 3.17776C1.32371 3.13839 1.36928 3.09902 1.41485 3.06379C1.50566 2.98652 1.60242 2.91721 1.70413 2.85658C1.80346 2.79825 1.90838 2.75102 2.01717 2.71568C2.06076 2.70117 2.10436 2.69081 2.14795 2.68045H2.18163H2.26484H2.30645H2.46892H2.52441L2.5779 2.69081L2.62348 2.70532L2.66309 2.71775C2.70182 2.73751 2.74327 2.7508 2.78594 2.75712C2.78594 2.75712 2.78594 2.73847 2.75226 2.70532L2.80179 2.61C2.80986 2.59405 2.81914 2.57882 2.82953 2.56441L2.8434 2.54369L2.88699 2.47739C2.91671 2.43595 2.9504 2.39657 2.9821 2.35513C3.11451 2.19883 3.2943 2.09494 3.49129 2.06089C3.58796 2.04745 3.68621 2.05378 3.78058 2.07953C3.87888 2.10537 3.97164 2.15036 4.054 2.21215C4.132 2.27273 4.19624 2.35058 4.24214 2.44013C4.28803 2.52968 4.31445 2.62872 4.31951 2.73018C4.32138 2.83019 4.2996 2.92913 4.2561 3.01821C4.20916 3.1088 4.14746 3.19014 4.07381 3.25858C4.03617 3.2938 3.99456 3.32282 3.95494 3.35597C3.91531 3.38913 3.86974 3.41191 3.82417 3.43678L3.75482 3.47201L3.69141 3.50516L3.65575 3.52382H3.63792C3.63727 3.53001 3.63727 3.53626 3.63792 3.54246C3.6617 3.59012 3.6934 3.64607 3.69736 3.6585C3.70132 3.67093 3.71718 3.70616 3.7251 3.72896C3.75444 3.82619 3.76342 3.92887 3.75146 4.03005C3.73949 4.13123 3.70685 4.22855 3.65575 4.31538C3.55148 4.50096 3.41743 4.66638 3.25948 4.8044C3.10335 4.94749 2.93637 5.07707 2.76018 5.19189C2.673 5.25198 2.58186 5.30793 2.49072 5.35973L2.46892 5.37424L2.461 5.37009ZM3.34468 4.91215C3.44436 4.82099 3.53649 4.72117 3.62009 4.61377C3.65734 4.61513 3.69461 4.61164 3.73104 4.60339C3.76524 4.59856 3.79903 4.59095 3.83209 4.5806C3.73699 4.6407 3.67953 4.69042 3.8103 4.6552C3.64981 4.74016 3.48931 4.8272 3.33081 4.92459L3.34468 4.91215ZM4.26402 4.49773C4.28186 4.52674 4.27789 4.51845 4.26402 4.49773V4.48735L4.2343 4.4397C4.30167 4.41232 4.37132 4.39151 4.44235 4.37754H4.46018L4.47008 4.39204L4.38488 4.45628L4.26204 4.55159L4.26402 4.49773ZM4.68209 4.32573C4.68003 4.34778 4.68003 4.36999 4.68209 4.39204L4.65039 4.36924L4.63454 4.35475C4.64421 4.3462 4.65286 4.33646 4.66029 4.32573C4.66029 4.32573 4.68407 4.31123 4.68407 4.3133L4.68209 4.32573ZM2.992 5.4364L2.96228 5.45298L3.0237 5.40739L3.16041 5.31621C3.20995 5.28306 3.25156 5.24783 3.29713 5.21675L3.45365 5.10279C3.61792 5.0031 3.77669 4.89379 3.92918 4.77539L4.11344 4.6552L4.23035 4.5806C3.93909 4.80647 3.6498 5.03233 3.34468 5.22919C3.25155 5.2872 3.15843 5.34522 3.06333 5.39703L2.992 5.4364Z" fill="#B4D234"/>
</svg>
