<svg width="1" height="2" viewBox="0 0 1 2" fill="none" xmlns="http://www.w3.org/2000/svg">
<path d="M0.154555 1.4309C0.169967 1.44249 0.186584 1.45223 0.204089 1.45991C0.236569 1.47141 0.271143 1.47496 0.30514 1.47027C0.343211 1.46556 0.380139 1.45363 0.414111 1.43505C0.497328 1.38531 0.52507 1.33351 0.392319 1.3418C0.356663 1.34265 0.321129 1.33704 0.287302 1.32522C0.263526 1.32522 0.267492 1.3045 0.26551 1.30657C0.263617 1.29561 0.263617 1.28438 0.26551 1.27342C0.268257 1.20468 0.287317 1.13774 0.320982 1.07864C0.337715 1.04376 0.358332 1.01107 0.382403 0.981247H0.392319C0.423329 0.983328 0.454428 0.983328 0.485437 0.981247C0.497023 0.979777 0.508045 0.975185 0.517423 0.96792C0.526801 0.960655 0.534217 0.950967 0.538937 0.939805C0.536407 0.918836 0.530366 0.898494 0.5211 0.879711C0.512916 0.856524 0.498795 0.83614 0.480273 0.82079C0.461751 0.80544 0.439549 0.795715 0.416095 0.792681C0.384762 0.789476 0.353317 0.797514 0.326932 0.815475C0.310442 0.823392 0.295618 0.834663 0.283336 0.84863L0.261544 0.867279L0.249656 0.881785C0.217709 0.920713 0.189816 0.963085 0.166443 1.00819C0.119479 1.09292 0.0923184 1.18806 0.0871841 1.28585C0.0865713 1.32798 0.0968437 1.3695 0.116909 1.40604C0.128525 1.41578 0.141153 1.42412 0.154555 1.4309Z" fill="black"/>
</svg>
