<svg width="2" height="3" viewBox="0 0 2 3" fill="none" xmlns="http://www.w3.org/2000/svg">
<path d="M0.542942 1.18674C0.571892 1.12508 0.611523 1.06958 0.659834 1.02305C0.685498 0.996408 0.719017 0.979616 0.754947 0.975387C0.770664 0.976201 0.786037 0.9805 0.800043 0.988002C0.814049 0.995505 0.826361 1.00604 0.836177 1.0189H0.850048C0.915433 1.0189 0.961002 1.0189 0.984778 0.983674C0.99633 0.968 1.004 0.949585 1.00711 0.930065C1.01023 0.910545 1.00868 0.890525 1.00262 0.87178C1.00404 0.865653 1.00404 0.859258 1.00262 0.853131C0.971546 0.817387 0.933586 0.788933 0.891238 0.769646C0.848889 0.750359 0.803105 0.740675 0.756919 0.741234C0.66921 0.746108 0.585865 0.782736 0.52115 0.844841C0.451568 0.911251 0.394444 0.990662 0.352728 1.07899C0.311143 1.16418 0.283043 1.25585 0.269515 1.35044C0.243593 1.54164 0.275452 1.73653 0.360649 1.90785C0.392979 1.97211 0.433661 2.03138 0.48152 2.08398L0.505296 2.1047C0.59266 2.19221 0.709272 2.24055 0.83024 2.23939C0.91947 2.23438 1.00424 2.19701 1.06997 2.13371C1.11753 2.08813 1.13734 2.0529 1.1314 2.05704C1.19044 1.98273 1.22145 1.88839 1.21858 1.79181C1.21858 1.77731 1.19877 1.79181 1.17301 1.8146C1.14725 1.8374 1.1096 1.90163 1.04422 1.96794C1.00533 2.0057 0.958497 2.03339 0.907503 2.04875C0.863519 2.05798 0.817894 2.05292 0.776739 2.03425C0.744304 2.02017 0.71472 1.99978 0.689559 1.97416L0.665784 1.94929V1.93893C0.625174 1.89786 0.591063 1.8503 0.564734 1.79803C0.500836 1.67085 0.47724 1.52572 0.497362 1.3836C0.503212 1.31599 0.518576 1.24966 0.542942 1.18674Z" fill="#848936"/>
</svg>
