<svg width="2" height="1" viewBox="0 0 2 1" fill="none" xmlns="http://www.w3.org/2000/svg">
<path d="M1.01665 0.445107C1.01863 0.425823 1.01863 0.406366 1.01665 0.387081H0.935409C0.93459 0.354858 0.925708 0.323434 0.909651 0.295919C0.876327 0.254707 0.829885 0.227467 0.778881 0.219238H0.766993L0.751145 0.235819L0.72142 0.26898C0.709109 0.283266 0.697853 0.298499 0.687741 0.314561C0.665415 0.348221 0.649905 0.386295 0.642167 0.426452C0.63222 0.468853 0.633216 0.513259 0.645052 0.555126C0.656888 0.596994 0.679138 0.634826 0.709533 0.664754C0.743063 0.695812 0.78567 0.714073 0.830398 0.716557C0.865333 0.718976 0.900081 0.709526 0.929465 0.689618V0.728989C0.935296 0.773258 0.951643 0.815297 0.977016 0.851251C0.992867 0.851251 0.990887 0.826376 0.990887 0.724841C0.991368 0.677014 0.994674 0.629263 1.00079 0.581863C1.0127 0.537385 1.01805 0.491272 1.01665 0.445107ZM0.870021 0.594295C0.857058 0.607584 0.839631 0.615037 0.821479 0.615037C0.803327 0.615037 0.7859 0.607584 0.772937 0.594295C0.756284 0.578372 0.744146 0.557971 0.737855 0.535308C0.731564 0.512645 0.731363 0.488598 0.737274 0.465824C0.742401 0.439432 0.753247 0.414626 0.768977 0.393304C0.776235 0.381084 0.784173 0.369325 0.792752 0.358081L0.806623 0.368439C0.813667 0.389034 0.817022 0.410808 0.816527 0.432675C0.815591 0.436059 0.815591 0.439649 0.816527 0.443033C0.846247 0.474115 0.870027 0.472049 0.887859 0.461688V0.505195C0.888885 0.534636 0.882744 0.563875 0.870021 0.59016V0.594295Z" fill="black"/>
</svg>
