<svg width="6" height="6" viewBox="0 0 6 6" fill="none" xmlns="http://www.w3.org/2000/svg">
<path d="M4.73747 3.69108C4.53934 3.32362 4.3412 2.95892 4.14307 2.59699L4.56707 2.01886C5.02873 1.38478 4.86428 1.30604 4.29167 1.44902C4.05391 1.50911 3.81813 1.57128 3.58234 1.63551C3.46743 1.44695 3.35251 1.25838 3.23561 1.07189C2.68678 0.195374 2.49855 0.311417 2.31825 1.19829C2.26277 1.47596 2.20927 1.7557 2.15776 2.02715L1.51184 2.21364C0.790629 2.42086 0.802517 2.74204 1.36324 3.01763C1.5475 3.10674 1.73375 3.19377 1.92 3.27665C1.82687 3.6372 1.74762 4.0019 1.67629 4.36867C1.45438 5.49177 1.82885 5.52285 2.35193 4.89084C2.64121 4.54272 2.92454 4.18908 3.20193 3.82991C3.52489 3.96874 3.84389 4.1138 4.15496 4.27335C4.9257 4.67949 5.29027 4.71886 4.73747 3.69108Z" fill="url(#paint0_linear_134_486)"/>
<defs>
<linearGradient id="paint0_linear_134_486" x1="2.97606" y1="5.31356" x2="2.97606" y2="0.47097" gradientUnits="userSpaceOnUse">
<stop stop-color="#A71F63"/>
<stop offset="1" stop-color="#A31E23"/>
</linearGradient>
</defs>
</svg>
