<svg width="4" height="4" viewBox="0 0 4 4" fill="none" xmlns="http://www.w3.org/2000/svg">
<path d="M0.657538 3.17465C0.825686 3.3813 1.04507 3.53546 1.29157 3.62016C1.54003 3.703 1.80579 3.7109 2.05835 3.64295C2.18368 3.6101 2.30381 3.55845 2.41499 3.48961C2.52703 3.4222 2.63083 3.34079 2.72408 3.24717C2.8168 3.15153 2.89617 3.04271 2.95986 2.92392C3.02326 2.80377 3.06745 2.67358 3.09064 2.5385C3.1357 2.26428 3.08806 1.98221 2.95591 1.74073C2.89222 1.62397 2.81647 1.51488 2.73003 1.4154C2.64331 1.31743 2.54702 1.22923 2.44273 1.15224C2.41698 1.13152 2.38924 1.11494 2.3615 1.09629L2.32781 1.07557L2.28621 1.05277C2.25925 1.03732 2.23145 1.02348 2.20299 1.01133L2.12374 0.984397L2.04053 0.9616L1.94343 0.947093C1.85904 0.939022 1.77395 0.946031 1.69181 0.967816C1.6465 0.981723 1.60318 1.00194 1.56301 1.02791L1.45404 1.01548C1.41708 1.01341 1.38005 1.01341 1.34309 1.01548H1.2876L1.23412 1.02584C1.19728 1.03043 1.16083 1.03806 1.12513 1.04863L1.02013 1.08593C0.95037 1.11469 0.883912 1.15153 0.821993 1.19575C0.761467 1.2398 0.70508 1.28975 0.653583 1.34495C0.604796 1.40294 0.561027 1.46535 0.522807 1.53144C0.449882 1.66339 0.400222 1.80798 0.37619 1.9583C0.37619 2.00389 0.376188 2.04947 0.362319 2.09299V2.10543C0.340566 2.29615 0.356609 2.48951 0.409446 2.67347C0.462283 2.85743 0.550779 3.02803 0.669425 3.17465H0.657538ZM1.15486 3.35493C1.09175 3.32002 1.03146 3.27983 0.97456 3.23474H0.990403C1.04397 3.27542 1.10451 3.30497 1.16873 3.32177C1.16289 3.33222 1.15823 3.34335 1.15486 3.35493ZM2.09006 3.43988C2.09006 3.43988 2.09006 3.42745 2.09006 3.42123C2.1452 3.41018 2.19949 3.39494 2.25252 3.37564C2.19787 3.40111 2.1416 3.42258 2.08411 3.43988H2.09006ZM1.7453 1.06728H1.72549H1.7453ZM0.536678 2.10335V2.00389C0.539557 1.97089 0.545535 1.93827 0.554516 1.9065C0.554516 1.87334 0.568384 1.84226 0.578291 1.81118C0.598765 1.74942 0.624623 1.68977 0.655554 1.63297C0.669256 1.60361 0.685857 1.57583 0.705088 1.55009L0.762555 1.47342C0.782368 1.44855 0.806136 1.42783 0.827931 1.40504L0.861622 1.37189L0.901252 1.34495C0.950623 1.30725 1.00377 1.27529 1.05976 1.24963C1.11775 1.22732 1.17738 1.20999 1.23807 1.19783C1.26819 1.19222 1.29865 1.18875 1.32922 1.18746H1.42233L1.51348 1.19783C1.54433 1.20322 1.57478 1.21084 1.60463 1.22062C1.62608 1.2256 1.64724 1.23183 1.66803 1.23927L1.73142 1.26828C1.77284 1.28668 1.81263 1.30887 1.85031 1.33459H1.86418C1.98306 1.31387 1.97712 1.23098 1.95335 1.18539C1.95335 1.18539 1.95335 1.18539 1.95335 1.17503L1.93353 1.1626C1.9725 1.17658 2.00975 1.19535 2.04448 1.21854L2.11384 1.2662L2.2129 1.37603C2.27895 1.45142 2.34049 1.531 2.39717 1.61432C2.44868 1.69099 2.48038 1.74902 2.48038 1.74902L2.52396 1.82154L2.54577 1.85884L2.57945 1.92514C2.6411 2.03836 2.67883 2.16408 2.69011 2.29383C2.70139 2.42358 2.68596 2.55435 2.64483 2.67733C2.5914 2.79666 2.51343 2.90217 2.4165 2.98635C2.31958 3.07052 2.20608 3.13128 2.08411 3.16429C1.96143 3.20373 1.83401 3.22466 1.70568 3.22645C1.64227 3.22645 1.57689 3.22645 1.50754 3.22645C1.44406 3.21753 1.38119 3.20437 1.31931 3.18708C1.19484 3.15548 1.07584 3.10374 0.966627 3.03374L0.946819 3.01923H0.97456C0.988917 2.97751 1.00822 2.93783 1.03202 2.90113C1.05579 2.85968 1.08354 2.81824 1.11127 2.7768L1.32327 2.47219C1.35101 2.43075 1.38667 2.37273 1.41441 2.323L1.43621 2.28363V2.27327H1.4164L1.33912 2.23804C1.31336 2.23804 1.27968 2.21732 1.25591 2.20488L1.22223 2.18624C1.20133 2.17342 1.18144 2.15887 1.16278 2.14272C1.12943 2.11612 1.10576 2.07842 1.09567 2.03585C1.08559 1.99327 1.0897 1.94838 1.10731 1.90857C1.14607 1.81589 1.21682 1.74189 1.30544 1.70136C1.34906 1.68089 1.39633 1.67031 1.44414 1.67031C1.49195 1.67031 1.5392 1.68089 1.58282 1.70136C1.60501 1.71173 1.62623 1.72421 1.64623 1.73865C1.66569 1.75243 1.68306 1.76919 1.69774 1.78838C1.72912 1.81855 1.75177 1.85732 1.76313 1.90028C1.76427 1.94243 1.75091 1.9836 1.72549 2.01632C1.68753 2.07573 1.65816 2.14067 1.63831 2.20903C1.6332 2.2295 1.62923 2.25025 1.62642 2.27119C1.62542 2.28014 1.62542 2.28918 1.62642 2.29813V2.31264C1.62537 2.33196 1.62537 2.35134 1.62642 2.37066C1.6329 2.40505 1.64151 2.43896 1.65218 2.47219C1.66236 2.50059 1.67427 2.52827 1.68784 2.55508C1.71657 2.61059 1.74901 2.66391 1.78492 2.71463C1.83048 2.78155 1.87942 2.84589 1.93154 2.90734C1.97311 2.9645 2.0233 3.01419 2.08014 3.05446C2.10392 3.05446 2.09599 3.00473 2.01674 2.84725C1.97315 2.75815 1.91569 2.65247 1.88003 2.56958C1.85863 2.52347 1.84075 2.47566 1.82654 2.42661C1.8181 2.40231 1.81147 2.37737 1.80672 2.35201V2.31678V2.29399C1.80569 2.28921 1.80569 2.28426 1.80672 2.27949C1.81523 2.22985 1.83345 2.18259 1.86022 2.14065C1.90303 2.07931 1.93152 2.00835 1.94343 1.93343C1.94544 1.88635 1.93661 1.83944 1.91767 1.79667C1.90185 1.76044 1.88189 1.72635 1.85823 1.69514C1.81202 1.63541 1.75474 1.58607 1.68982 1.55009C1.6246 1.51449 1.55285 1.49386 1.47939 1.48957C1.40593 1.48528 1.33244 1.49744 1.26383 1.52522C1.12589 1.57836 1.01299 1.6853 0.948802 1.82361C0.911613 1.89848 0.899781 1.98431 0.915255 2.06711C0.930729 2.14991 0.972594 2.22477 1.034 2.27949C1.06072 2.30537 1.08994 2.32828 1.12118 2.34786C1.13616 2.35843 1.15208 2.36745 1.16873 2.3748H1.18062L0.968611 2.68148C0.93889 2.725 0.911153 2.76851 0.883414 2.81617C0.858059 2.85691 0.836177 2.89989 0.818026 2.94464C0.770777 2.88474 0.73023 2.81939 0.697167 2.74986C0.622723 2.64652 0.571891 2.52673 0.548566 2.39967L0.532712 2.30228V2.20281C0.532368 2.17237 0.533695 2.14193 0.536678 2.11164V2.10335Z" fill="#5E0F42"/>
</svg>
