<svg width="16" height="14" viewBox="0 0 16 14" fill="none" xmlns="http://www.w3.org/2000/svg">
<path d="M15.6652 7.74555C15.6425 7.52843 15.5549 7.32434 15.4147 7.16246C15.2745 7.00058 15.0889 6.88918 14.8846 6.84416C14.8448 6.6659 14.7623 6.50117 14.6448 6.3655C15.7326 4.97302 15.8733 3.71937 15.0629 2.63564C14.8834 2.39257 14.6664 2.18248 14.4209 2.014C14.3833 1.95598 14.3436 1.89797 14.3001 1.83995C14.0386 1.48718 13.7002 1.20506 13.3131 1.01723C12.9259 0.829392 12.5014 0.741307 12.075 0.760359C11.0269 0.760359 9.77268 1.21001 8.24308 2.13212C8.02395 2.25853 7.86103 2.46985 7.78935 2.72061C7.69724 2.60227 7.58084 2.50711 7.4488 2.44219C7.31675 2.37727 7.17245 2.34424 7.02654 2.34555C6.772 2.34056 6.52596 2.44139 6.34245 2.62593C6.15894 2.81047 6.05296 3.06363 6.04775 3.32982V3.47072C5.89623 3.38938 5.72866 3.34609 5.55835 3.34431C5.4693 3.34407 5.38063 3.35663 5.29483 3.38162L4.28038 3.66964C3.19262 3.97632 2.06524 4.29129 0.97748 4.68914C0.774771 4.75976 0.60014 4.8986 0.480861 5.08399C0.361583 5.26938 0.304377 5.49087 0.318184 5.71386C0.331991 5.93684 0.416025 6.14876 0.557169 6.31651C0.698314 6.48427 0.888614 6.59841 1.09834 6.6411C1.13845 6.87098 1.25484 7.0787 1.427 7.22767C1.59915 7.37663 1.81604 7.45729 2.03948 7.45545C2.11134 7.45505 2.183 7.44742 2.25347 7.43266C2.46349 7.38707 2.68342 7.33734 2.92317 7.27932C2.28963 8.47893 1.77891 9.74511 1.39951 11.0568C1.35547 11.2253 1.34918 11.4021 1.38114 11.5736C1.4131 11.745 1.48244 11.9064 1.58377 12.0452C1.7304 12.2442 1.93369 12.3894 2.16431 12.4597C2.2015 12.5983 2.26335 12.7283 2.3466 12.843C2.45028 12.9851 2.58357 13.1006 2.73636 13.1806C2.88915 13.2607 3.0574 13.3033 3.22829 13.3051C3.42066 13.3039 3.60931 13.2496 3.77514 13.1476C4.60429 12.6478 5.46868 12.2148 6.3608 11.8525C6.46137 11.9167 6.57208 11.9616 6.68773 11.9851C6.73406 12.2278 6.86366 12.4443 7.05211 12.5938C7.24055 12.7434 7.4748 12.8157 7.7107 12.7971C7.9466 12.7785 8.16784 12.6703 8.3327 12.4928C8.49756 12.3154 8.59465 12.081 8.60567 11.8339C8.61954 11.5459 8.63143 11.2537 8.64332 10.9636L8.92071 10.8579L10.0778 10.4269C10.1393 10.5399 10.2218 10.6388 10.3205 10.7178C10.4192 10.7968 10.5321 10.8543 10.6524 10.8869C10.7158 10.9988 10.7792 11.1107 10.8406 11.2247C10.9243 11.3766 11.0451 11.5026 11.1906 11.5896C11.3361 11.6766 11.5012 11.7216 11.6688 11.7199C11.8353 11.7212 11.9996 11.68 12.1474 11.5999C12.2952 11.5197 12.422 11.403 12.5168 11.2599C12.5315 11.238 12.5447 11.2152 12.5565 11.1915L12.6338 11.3449C12.7127 11.5032 12.8321 11.6354 12.9787 11.7269C13.1253 11.8184 13.2933 11.8655 13.4639 11.8629C13.6285 11.8628 13.7906 11.8218 13.937 11.7432C14.0835 11.6647 14.2099 11.5509 14.306 11.4112C14.3897 11.2842 14.4424 11.1378 14.4597 10.9847C14.4769 10.8316 14.4582 10.6764 14.4051 10.5326C14.2367 10.0705 14.0623 9.60218 13.886 9.13802C14.2545 9.0282 14.6012 8.93081 14.9381 8.84171C15.1697 8.78964 15.3737 8.6474 15.5087 8.44385C15.6437 8.24029 15.6997 7.99066 15.6652 7.74555ZM14.0445 7.45337C13.4818 7.60257 12.921 7.76557 12.3623 7.94239C12.6265 8.60962 12.8775 9.27409 13.1152 9.93579C13.2757 10.3834 12.5941 10.6714 12.3841 10.257C12.0512 9.60012 11.7402 8.92667 11.439 8.24493L10.6762 8.5081C10.9185 8.9213 11.1311 9.3528 11.3122 9.79904C11.4885 10.2445 10.803 10.5201 10.5831 10.1202C10.3413 9.67885 10.0877 9.2437 9.83212 8.81062C9.21196 9.03649 8.59378 9.26857 7.97759 9.49858L7.3376 9.73895C7.32175 10.1534 7.30789 10.5844 7.2861 11.005C7.2861 11.1149 7.24434 11.2203 7.17003 11.2981C7.09571 11.3758 6.99492 11.4195 6.88983 11.4195C6.78473 11.4195 6.68393 11.3758 6.60962 11.2981C6.5353 11.2203 6.49356 11.1149 6.49356 11.005C6.49356 10.6942 6.4777 10.3834 6.47374 10.0684C5.18054 10.5399 3.93001 11.1307 2.73692 11.8339C2.64645 11.8869 2.54308 11.911 2.43964 11.9031C2.33621 11.8952 2.23727 11.8556 2.15514 11.7894C2.07301 11.7232 2.01132 11.6331 1.97772 11.5305C1.94412 11.4279 1.94011 11.3172 1.96617 11.2122C2.52689 9.07793 3.63248 7.14877 4.64099 5.20303C3.55521 5.50142 2.46151 5.80602 1.36978 6.04432C1.27246 6.06271 1.17209 6.04239 1.08837 5.98733C1.00466 5.93227 0.943643 5.84648 0.917329 5.74678C0.891014 5.64708 0.901301 5.54069 0.946159 5.44851C0.991017 5.35634 1.0672 5.28503 1.15976 5.24861C2.55859 4.73886 4.01291 4.36382 5.44146 3.95146C5.76046 3.85821 6.1706 4.20012 6.03587 4.5731C5.27899 6.52092 4.14169 8.28223 3.40066 10.23C4.40287 9.73647 5.42932 9.29863 6.47572 8.91838C6.48563 7.05345 6.56686 5.20096 6.62432 3.35054C6.6281 3.26294 6.65745 3.17867 6.70843 3.10906C6.75941 3.03945 6.82956 2.98784 6.90943 2.9612C6.98931 2.93456 7.07506 2.93415 7.15516 2.96005C7.23526 2.98594 7.30585 3.03689 7.35742 3.10602C7.37857 3.1286 7.39718 3.15362 7.41289 3.18062C8.03107 4.24155 8.68294 5.2797 9.31895 6.3282C9.57851 6.75713 9.86184 7.18607 10.1392 7.62329C10.4444 7.52797 10.7475 7.43472 11.0526 7.34562C10.4582 5.95728 9.9094 4.55031 9.3249 3.17441C9.1862 3.24486 9.05544 3.31116 8.92863 3.36918C8.47094 3.57639 8.07467 2.92367 8.53236 2.65015C9.94902 1.79643 12.5624 0.474399 13.8543 2.20671C15.1084 3.89136 13.0142 5.77908 11.9086 6.7302L11.8808 6.74885C11.9264 6.85868 11.972 6.95606 12.0156 7.07417C12.61 6.91254 13.2242 6.76335 13.8325 6.63487C14.3318 6.52298 14.5517 7.31868 14.0365 7.45337H14.0445ZM9.3249 4.78238H9.37047L9.45566 4.98959L9.3249 4.78238Z" fill="#47B549"/>
</svg>
