<svg width="12" height="12" viewBox="0 0 12 12" fill="none" xmlns="http://www.w3.org/2000/svg">
<path d="M9.84436 5.4548C10.5092 4.58587 11.1264 3.6782 11.693 2.73615C10.7716 3.13607 10.0425 3.34121 8.93493 3.87168C9.03796 3.46761 9.18854 2.56831 9.13306 2.58074C8.44355 2.77552 8.21174 2.92264 7.54798 3.14436C7.56978 2.3155 7.56384 1.74774 7.52421 1.7809C6.9298 2.30515 6.76733 2.40253 6.27793 2.79624C6.17887 2.48334 5.73505 0.790407 5.72514 0.829777C5.63004 1.24421 5.25754 2.23054 5.14262 2.63875C4.94449 2.29063 4.30253 1.27528 4.29857 1.3188C4.24309 2.06477 4.07666 2.95373 4.08063 3.10085C3.08004 2.91228 1.66139 2.43983 0.680625 2.20568C0.619203 2.19118 2.97107 4.95127 3.28412 5.22272C3.18901 5.24137 2.24986 5.45066 1.19578 5.61436C1.14427 5.61436 2.84228 6.44321 3.00277 6.49087C2.74363 6.75607 2.52332 7.0598 2.34893 7.39224C2.63624 7.48072 2.93323 7.53018 3.2326 7.53937C3.14333 7.98844 3.07719 8.4422 3.03447 8.89869C3.4706 8.67256 3.89044 8.41355 4.29065 8.12372C4.27876 8.63968 4.29065 9.15978 4.30254 9.6716C4.74009 9.39564 5.14796 9.07121 5.51909 8.70391C5.69146 9.32556 5.96686 10.8382 5.98271 10.8175C6.37382 10.2992 6.7357 9.7574 7.06652 9.19501C7.47864 10.1503 8.83982 11.9883 8.83388 11.9282C8.70311 10.4217 8.52874 9.69647 8.38212 8.58995C8.84378 8.62517 9.93352 8.79716 9.90578 8.74536C9.53131 8.10921 9.40055 7.83983 9.21034 7.50207C9.70369 7.34874 10.201 7.13944 10.6726 6.96538C10.7221 6.94673 10.1871 6.55096 9.7235 6.29816C10.1615 6.07887 10.5817 5.82244 10.9797 5.53147C10.7023 5.52111 10.1099 5.42786 9.84436 5.4548ZM5.4537 5.6848C5.44657 5.69802 5.44059 5.7119 5.43586 5.72625C5.39227 5.85886 5.4002 6.06816 5.35265 6.21113C5.35265 6.21113 5.32887 6.27744 5.32491 6.2878C5.30707 6.33339 5.1664 6.36654 5.12677 6.34996C5.08714 6.33339 4.99204 6.27329 5.00194 6.22978L5.08319 5.85679C5.04158 5.84229 4.9544 5.90859 4.90883 5.91481L4.47888 5.9604C4.45708 5.9604 4.40358 6.29609 4.17969 6.21734C4.07468 6.17797 4.07071 6.13031 4.08855 6.07437C4.08855 6.05157 4.10836 6.02464 4.11629 5.9977C4.14997 5.89616 4.08656 5.84436 4.10043 5.80292C4.1143 5.76147 4.17176 5.7449 4.20148 5.72004C4.28272 5.59985 4.68691 4.59072 4.83155 4.47675C4.83155 4.47675 4.83155 4.47674 4.83155 4.46431C4.91873 4.33584 5.0713 4.11412 5.20405 4.06853C5.29912 4.04469 5.39825 4.04469 5.49333 4.06853C5.63797 4.27575 5.54682 4.62387 5.52899 4.84974C5.49927 5.15434 5.50125 5.34705 5.4537 5.67444V5.6848ZM6.36511 5.93554C6.2918 5.98941 6.16699 6.02878 6.13925 6.12617C6.07981 6.30437 6.37305 6.51159 6.33738 6.59655C6.33738 6.61313 6.30172 6.62763 6.28587 6.63592C6.16721 6.60539 6.05974 6.53911 5.97678 6.44529C5.94309 6.40384 5.88959 6.32302 5.88365 6.32095C5.8777 6.31888 5.81826 6.44528 5.79845 6.47221C5.75706 6.46471 5.71606 6.45504 5.67561 6.44321C5.63598 6.42871 5.50918 6.37069 5.54088 6.2733L5.97678 4.94505C5.93517 4.91189 5.83412 4.81865 5.85393 4.75649C5.87375 4.69432 5.93319 4.68397 5.96489 4.66946C6.30115 4.54757 6.66685 4.54757 7.00311 4.66946C7.09777 4.71197 7.18163 4.77701 7.24801 4.85939C7.3144 4.94177 7.36149 5.03921 7.38551 5.14398C7.35695 5.23706 7.30779 5.32179 7.24204 5.39128C7.17628 5.46077 7.09577 5.51305 7.00707 5.5439C6.82939 5.62912 6.65671 5.7253 6.48994 5.83193L6.36511 5.93554ZM7.4509 7.21819C7.35721 7.24242 7.25928 7.24242 7.16559 7.21819C6.72771 7.06071 6.79308 6.72087 6.92187 6.33131C6.99318 6.11083 7.08684 5.89896 7.20125 5.69931C7.32409 5.46308 7.70055 4.90775 7.99379 5.0155C8.00568 5.0155 8.10474 5.07145 8.21768 5.13775C8.3643 5.22271 8.3009 5.51074 8.25533 5.64751C8.22756 5.7156 8.19372 5.78082 8.15428 5.84229C8.11465 5.96247 7.86896 6.0495 7.74215 5.9977C7.69856 5.98112 7.7164 5.98112 7.70649 5.95833C7.83249 5.81186 7.92947 5.64072 7.9918 5.4548C8.00567 5.41335 8.06709 5.22065 8.01558 5.202C7.96406 5.18335 7.79961 5.36777 7.69064 5.49832C7.63042 5.57377 7.57609 5.65414 7.52816 5.73868C7.4504 5.83795 7.39307 5.95293 7.35975 6.07644C7.35975 6.09302 7.34589 6.10752 7.33995 6.12409C7.334 6.14067 7.28644 6.21528 7.27059 6.26294C7.25474 6.3106 7.20521 6.39141 7.30032 6.42663C7.43505 6.47429 7.58166 6.47222 7.71441 6.51988C7.77583 6.54267 7.9819 6.69601 7.95614 6.77682C7.82012 6.95764 7.6476 7.10482 7.4509 7.20783V7.21819ZM8.24344 7.50207C8.2157 7.58289 8.06907 7.60568 7.99774 7.58082C7.97748 7.57486 7.95855 7.56474 7.94206 7.55106C7.92558 7.53737 7.91185 7.52039 7.90171 7.5011C7.89157 7.48181 7.8852 7.4606 7.88298 7.43871C7.88076 7.41682 7.88272 7.39469 7.88877 7.3736C7.92047 7.28864 7.99577 7.22647 8.0671 7.25134C8.13842 7.27621 8.28306 7.40054 8.25334 7.49172L8.24344 7.50207ZM8.76255 5.9604L8.43166 6.82241C8.39599 6.85349 8.38808 6.91152 8.34251 6.92395C8.22957 6.96332 8.1939 6.89287 8.11663 6.92395C8.11362 6.92577 8.1102 6.92672 8.10673 6.92672C8.10325 6.92672 8.09982 6.92577 8.09681 6.92395C8.09896 6.84653 8.10825 6.76949 8.12455 6.69393C8.14238 6.61726 8.21173 6.39348 8.22164 6.36654C8.23154 6.33961 8.32864 6.07851 8.36827 5.98112C8.43959 5.79462 8.68132 5.0901 8.76453 5.12119C8.78435 5.12119 8.89727 5.19371 8.90322 5.19578C8.94072 5.2333 8.97337 5.27579 9.00032 5.32218V5.35119C8.9378 5.55611 8.86165 5.75622 8.77246 5.95004L8.76255 5.9604Z" fill="#F05C22"/>
</svg>
