<svg width="6" height="4" viewBox="0 0 6 4" fill="none" xmlns="http://www.w3.org/2000/svg">
<path d="M5.20095 2.91648C4.94337 2.71963 4.55701 2.47097 4.55701 2.47097L3.89921 2.11456C3.63569 1.97366 3.37217 1.83482 3.10667 1.70014C2.57567 1.42868 2.03475 1.17381 1.48592 0.939657L1.02428 0.749023H0.998517C0.800382 0.815332 0.857833 0.956239 0.903404 1.02255C0.903404 1.03291 0.903408 1.03498 0.919258 1.03705C1.07182 1.09714 1.22241 1.15931 1.37299 1.22355C1.90598 1.44941 2.43103 1.69807 2.95807 1.96123C3.21763 2.09177 3.4752 2.22853 3.73277 2.36529L4.39257 2.7217L4.76902 2.89783C4.95526 2.98693 5.13755 3.07189 5.12368 3.05946C5.42683 3.19415 5.64675 3.23973 5.20095 2.91648Z" fill="#092544"/>
</svg>
