<svg width="7" height="10" viewBox="0 0 7 10" fill="none" xmlns="http://www.w3.org/2000/svg">
<path d="M4.66959 8.49728C5.08171 7.89843 5.23032 7.11516 5.28579 6.39199C5.3306 5.85816 5.31664 5.32071 5.24419 4.79022C5.21831 3.91721 5.01001 3.06072 4.63393 2.28086C4.31493 1.59291 3.56994 0.68117 2.75165 1.14947C2.74902 1.14947 2.7465 1.15057 2.74465 1.15251C2.74279 1.15445 2.74174 1.15708 2.74174 1.15983C2.74174 1.16258 2.74279 1.16522 2.74465 1.16716C2.7465 1.1691 2.74902 1.1702 2.75165 1.1702C2.94386 1.13653 3.14075 1.14628 3.32905 1.19882C3.51736 1.25136 3.69274 1.34546 3.84337 1.47479C4.0357 1.64999 4.19555 1.86072 4.31493 2.09644C4.11449 1.92082 3.87065 1.80804 3.61155 1.77112C2.71004 1.63435 2.11762 2.27257 1.75107 3.09728C1.48582 3.57832 1.31916 4.1118 1.26168 4.66382C1.14081 5.77449 1.121 7.06336 1.59256 8.08907C1.98883 8.93865 2.89034 9.25983 3.72053 9.01532C3.28668 9.21859 2.80006 9.26331 2.33896 9.14228C1.87786 9.02126 1.46911 8.74152 1.17846 8.34809C1.17846 8.33773 1.1527 8.34809 1.15666 8.36259C1.43405 9.07334 2.10969 9.42146 2.81505 9.45876C3.17646 9.4739 3.5357 9.39378 3.85976 9.22578C4.18382 9.05777 4.4623 8.80726 4.66959 8.49728ZM4.81819 6.31739C4.77262 6.97012 4.65176 7.69329 4.22379 8.18232C4.02143 8.28769 3.79617 8.33568 3.57053 8.3215C3.34488 8.30732 3.12673 8.23146 2.93789 8.1015C2.23848 7.65185 2.14535 6.70488 2.15526 5.92783C2.17111 4.65968 2.41085 3.09314 3.36388 2.21248C4.93905 1.93067 4.88358 5.38907 4.81819 6.31739ZM1.79862 7.43842C1.54699 6.63858 1.61237 5.63773 1.67974 4.8068C1.69387 4.63873 1.71902 4.47187 1.75503 4.30741C1.77286 4.2266 1.79466 4.14578 1.81645 4.06497C1.97518 3.5086 2.25453 2.99804 2.63277 2.57303C2.78306 2.4416 2.95492 2.3398 3.13999 2.27257C2.71598 2.67457 2.46435 3.30864 2.30783 3.8474C2.08679 4.65506 1.99113 5.4946 2.0245 6.33397C2.05025 7.21877 2.36925 8.09322 3.2133 8.42269C3.42565 8.50315 3.65419 8.52527 3.87705 8.48692C2.98148 9.05055 2.08988 8.35638 1.79862 7.43842Z" fill="black" stroke="#5EBC6D" stroke-width="0.973512" stroke-miterlimit="10"/>
</svg>
