<svg width="2" height="1" viewBox="0 0 2 1" fill="none" xmlns="http://www.w3.org/2000/svg">
<path d="M1.32345 0.165905C1.27909 0.172303 1.23534 0.182695 1.19269 0.19698L1.13127 0.234277C1.09362 0.259142 1.04409 0.290225 0.994552 0.325451C0.94642 0.357866 0.900109 0.393152 0.855855 0.431132L0.794434 0.487084C0.819542 0.541853 0.861362 0.586321 0.91331 0.613482C0.91331 0.613482 0.933125 0.592765 0.964827 0.565827C1.00258 0.532845 1.04228 0.502393 1.0837 0.474652L1.21448 0.389687L1.2759 0.350316L1.32742 0.296451C1.34418 0.281386 1.35884 0.26395 1.371 0.244647C1.41261 0.201132 1.41855 0.147256 1.32345 0.165905Z" fill="#ECE721"/>
</svg>
