<svg width="8" height="9" viewBox="0 0 8 9" fill="none" xmlns="http://www.w3.org/2000/svg">
<path d="M3.22372 8.60567C3.25396 8.56252 3.27491 8.51304 3.28514 8.46062C3.2908 8.41326 3.3035 8.36712 3.32279 8.32386C3.34482 8.24199 3.35877 8.15798 3.3644 8.07313C3.37141 7.98695 3.38871 7.90202 3.4159 7.82033C3.43753 7.75256 3.45475 7.68333 3.46742 7.61312C3.47931 7.54059 3.49319 7.47221 3.51102 7.4059C3.52544 7.36265 3.5367 7.31832 3.5447 7.27328C3.5535 7.22591 3.56815 7.17994 3.58828 7.13652C3.58828 7.09715 3.60611 7.06399 3.61404 7.03913C3.62196 7.01426 3.6299 6.98733 3.63584 6.96453C3.64481 6.93884 3.65209 6.91253 3.65763 6.88579C3.66834 6.84662 3.68226 6.80848 3.69925 6.77182C3.71318 6.69586 3.73238 6.62107 3.7567 6.54803C3.7785 6.47758 3.80623 6.39262 3.83595 6.29523C3.91253 6.28487 3.98689 6.26105 4.05589 6.22478C4.10833 6.19441 4.16524 6.1734 4.2243 6.16262C4.29563 6.13568 4.35705 6.11288 4.40856 6.09009C4.46008 6.0673 4.51358 6.04657 4.56311 6.02378C4.61265 6.00099 4.66415 5.97197 4.71567 5.94296L4.89796 5.83314C5.00495 5.7689 5.0961 5.70882 5.18526 5.65494C5.27442 5.60106 5.34376 5.54719 5.41311 5.49331C5.48245 5.43944 5.54982 5.38349 5.61124 5.32754C5.67266 5.2716 5.73805 5.20736 5.80938 5.1369C6.00265 4.95969 6.17975 4.76407 6.33839 4.55256C6.41223 4.42973 6.49365 4.31206 6.58211 4.2003C6.6713 4.08587 6.75023 3.9631 6.81789 3.83353C6.94336 3.5969 7.05069 3.35023 7.13886 3.09584C7.22624 2.8382 7.2828 2.57024 7.30727 2.29807C7.30727 2.20689 7.32511 2.13023 7.33303 2.06599C7.33972 1.98972 7.33504 1.91282 7.31916 1.83805C7.28506 1.68035 7.24071 1.52528 7.18641 1.3739C7.12117 1.21357 7.02071 1.07159 6.89318 0.959468C6.82746 0.886908 6.75361 0.822904 6.67324 0.768834C6.59221 0.715855 6.50497 0.674063 6.41368 0.644504C6.41368 0.634144 6.41368 0.625856 6.39981 0.625856C6.38916 0.621944 6.37914 0.61635 6.3701 0.609275C6.30766 0.57759 6.24077 0.556604 6.17197 0.547113L5.97383 0.516033L5.50029 0.493236C5.42674 0.492506 5.35324 0.497355 5.28036 0.507742L5.06835 0.538823C5.00183 0.542251 4.93563 0.550559 4.87022 0.563688L4.69189 0.600985L4.5116 0.650721L4.31346 0.723247L3.64575 1.00298C3.4316 1.09246 3.22595 1.20277 3.03152 1.33245L2.98596 1.37182L2.93048 1.41327C2.9155 1.43071 2.8973 1.44481 2.87698 1.45471C2.84756 1.47083 2.81911 1.48882 2.79179 1.50858L2.70857 1.56868C2.68644 1.58603 2.66646 1.60622 2.64912 1.62877C2.61594 1.64845 2.58416 1.67061 2.55402 1.69508C2.50647 1.73237 2.451 1.78211 2.38561 1.84013L2.18748 2.02662C2.12011 2.09293 2.05671 2.15509 2.00123 2.21311L1.86452 2.35609C1.83083 2.39546 1.81498 2.41618 1.82092 2.4224C1.71293 2.52713 1.61776 2.64546 1.53759 2.77467C1.46428 2.89278 1.38899 3.0254 1.30578 3.17044L1.25029 3.26162C1.24176 3.27684 1.23448 3.29278 1.2285 3.30927C1.2285 3.32378 1.2285 3.34036 1.21661 3.35901C1.20443 3.38887 1.19053 3.41793 1.175 3.44604C1.15915 3.47712 1.14727 3.49577 1.1433 3.50613L1.13142 3.52892C1.12921 3.53705 1.12921 3.54566 1.13142 3.55379C1.12894 3.5757 1.12219 3.59686 1.1116 3.61595C1.07395 3.73199 1.04225 3.84596 1.01451 3.95578C0.984887 4.06975 0.964998 4.18626 0.955074 4.30391C0.955074 4.39922 0.955074 4.4904 0.955074 4.57536C0.953377 4.66227 0.960681 4.74911 0.976866 4.83437C1.00786 4.95348 1.05383 5.06775 1.11358 5.1742C1.17881 5.27297 1.27049 5.34938 1.3771 5.39385C1.4008 5.41441 1.42853 5.42927 1.45833 5.43737C1.4881 5.44445 1.51591 5.45863 1.53957 5.47881C1.58911 5.49331 1.63468 5.50575 1.67629 5.51404L1.81102 5.54097C1.92552 5.5562 2.04172 5.54918 2.15379 5.52025C2.24889 5.49331 2.35193 5.45601 2.47081 5.4125C2.60078 5.33331 2.72348 5.24175 2.83735 5.13898C2.88001 5.09992 2.91373 5.05134 2.93602 4.99682C2.95831 4.94231 2.96861 4.88324 2.96615 4.82401C2.96615 4.77428 2.97604 4.73284 2.98199 4.70175C2.98793 4.67067 2.98199 4.63544 2.93642 4.59607C2.89537 4.52927 2.8422 4.47155 2.7799 4.42616C2.7566 4.41155 2.73116 4.40105 2.70461 4.39508L2.62337 4.38264C2.59634 4.38518 2.56916 4.38518 2.54214 4.38264H2.45496C2.43618 4.3865 2.41811 4.3935 2.40146 4.40336C2.38164 4.4158 2.35391 4.43031 2.32023 4.4531C2.29197 4.45903 2.26627 4.47428 2.24692 4.49661C2.23114 4.50477 2.21752 4.51686 2.20729 4.53184C2.19659 4.54502 2.18667 4.55886 2.17756 4.57328C2.15379 4.60436 2.13992 4.61887 2.13398 4.6168C2.10224 4.62324 2.07154 4.63441 2.04283 4.64995C2.02036 4.658 1.99596 4.658 1.97349 4.64995L1.9081 4.63959C1.85797 4.63533 1.81092 4.61256 1.77535 4.57536C1.75764 4.56055 1.74419 4.5409 1.7365 4.51859C1.72881 4.49628 1.72716 4.47218 1.73176 4.44895C1.72559 4.38488 1.72559 4.32032 1.73176 4.25624C1.73641 4.21248 1.74572 4.16939 1.7595 4.12777C1.80248 3.95714 1.85609 3.78962 1.91999 3.62631C1.98106 3.47197 2.06984 3.33129 2.18153 3.21188C2.1891 3.18899 2.19978 3.16736 2.21324 3.14765C2.21903 3.13739 2.2272 3.12884 2.23701 3.12278C2.2466 3.11824 2.25533 3.11193 2.26277 3.10414C2.27684 3.08636 2.28759 3.06597 2.29447 3.04404C2.40146 2.92386 2.4926 2.8161 2.59365 2.71871C2.6947 2.62132 2.79179 2.5115 2.90473 2.41618C3.19067 2.15027 3.51328 1.93093 3.86171 1.76553C4.19798 1.61286 4.54269 1.48139 4.89399 1.37182C4.90382 1.37369 4.91389 1.37369 4.92372 1.37182H4.96334H5.01882H5.04458H5.07627H5.13374C5.2447 1.36146 5.34376 1.35318 5.4349 1.34903C5.52198 1.3428 5.60936 1.3428 5.69644 1.34903C5.78501 1.3564 5.87228 1.37591 5.95599 1.40705C6.05363 1.44419 6.14836 1.48923 6.23932 1.54174C6.35377 1.63179 6.43327 1.76204 6.46322 1.90851C6.48705 2.05563 6.49634 2.20492 6.49096 2.35402C6.48596 2.53582 6.45867 2.71619 6.40973 2.8907C6.35683 3.06054 6.29055 3.22549 6.21159 3.38388C6.1414 3.52664 6.06334 3.66501 5.9778 3.7983C5.89656 3.93299 5.80937 4.06561 5.72021 4.19408C5.67133 4.26986 5.61415 4.33941 5.54982 4.4013C5.47453 4.48004 5.41509 4.54635 5.36952 4.60851C5.26237 4.73123 5.14126 4.83979 5.00892 4.93176C4.87551 5.02229 4.74655 5.1198 4.62255 5.22394C4.55207 5.28107 4.47482 5.32843 4.39272 5.36484L4.14505 5.47673L4.08362 5.5016L4.09749 5.42493C4.10699 5.37373 4.11956 5.32321 4.13513 5.27367C4.149 5.22394 4.16485 5.16799 4.18467 5.10375C4.22033 4.98149 4.25996 4.85302 4.29959 4.71626C4.33965 4.58691 4.37338 4.4555 4.40064 4.32255C4.43216 4.23992 4.45927 4.15552 4.48187 4.06975L4.54924 3.81902C4.5798 3.71553 4.60168 3.60945 4.61463 3.50198C4.6293 3.39141 4.62392 3.27894 4.59877 3.17044C4.57252 3.08432 4.51771 3.01083 4.44422 2.96323C4.36525 2.90696 4.2723 2.87599 4.17675 2.87412H4.1074L4.05192 2.90728L3.94493 2.96945C3.90875 2.99179 3.87602 3.01973 3.84785 3.05233C3.81253 3.10187 3.78263 3.15539 3.75869 3.21188C3.73325 3.26977 3.71974 3.33261 3.71906 3.39631C3.70289 3.43736 3.68964 3.47961 3.67943 3.52271C3.66886 3.56691 3.66094 3.60836 3.65565 3.64703C3.64008 3.70615 3.61953 3.7637 3.59423 3.81902C3.57257 3.86659 3.55915 3.91781 3.5546 3.97029C3.51696 4.12984 3.48724 4.28526 3.46347 4.43238C3.44021 4.58357 3.401 4.73159 3.34656 4.87374C3.3109 5.00222 3.27524 5.12447 3.23957 5.24259C3.20391 5.3607 3.1722 5.48503 3.14248 5.61143C3.11276 5.73783 3.08898 5.81864 3.06917 5.90982C3.04936 6.00099 3.02559 6.09216 3.00181 6.18955C2.97803 6.28694 2.97209 6.31595 2.96416 6.36154C2.95624 6.40713 2.94831 6.45064 2.9384 6.49415L2.90868 6.62677C2.8769 6.71862 2.85173 6.81281 2.83339 6.90858C2.83339 6.93552 2.81952 6.96246 2.8116 6.98733C2.80569 7.01445 2.79706 7.04085 2.78584 7.06607C2.78584 7.09301 2.76404 7.13238 2.75017 7.18211C2.70658 7.33959 2.663 7.49085 2.61544 7.64005C2.56789 7.78924 2.52034 7.93844 2.47081 8.08971C2.43648 8.2022 2.41975 8.31975 2.42128 8.43782C2.42007 8.51592 2.43998 8.59278 2.47873 8.65954C2.51927 8.72195 2.57111 8.77545 2.6313 8.81703C2.65306 8.83599 2.67789 8.85072 2.70461 8.86054C2.72942 8.86598 2.75459 8.86944 2.7799 8.8709C2.81184 8.8632 2.84504 8.8632 2.87698 8.8709C2.89878 8.8709 2.9285 8.8709 2.96813 8.84189C3.01557 8.82239 3.06077 8.79737 3.10286 8.76729C3.15119 8.72056 3.192 8.66599 3.22372 8.60567Z" fill="#B94E9C"/>
</svg>
