<svg width="3" height="1" viewBox="0 0 3 1" fill="none" xmlns="http://www.w3.org/2000/svg">
<path d="M2.63071 0.324355L2.68618 0.301564L2.74365 0.276693L2.79912 0.249761C2.79912 0.249761 2.79912 0.249757 2.79912 0.239396C2.84072 0.14615 2.77534 0.119215 2.73968 0.112999L2.68816 0.137863L2.63466 0.160654L2.58316 0.181377L2.52767 0.202099C2.24071 0.298286 1.93756 0.330056 1.63805 0.295342L1.52908 0.280842H1.46766L1.33688 0.262193C1.24178 0.245616 1.15064 0.220745 1.15857 0.22489L1.07139 0.208315C1.15659 0.162728 1.2398 0.127499 1.23188 0.127499C1.28208 0.107748 1.32994 0.0820237 1.37453 0.0508307C1.37453 0.0363257 1.34282 0.0197486 1.21206 0.0508307C1.13087 0.0675575 1.0508 0.0897072 0.97232 0.117141L0.807865 0.185519L0.756348 0.206241L0.865319 0.287058L0.900982 0.316064V0.332645L0.992129 0.390665C1.06148 0.450757 1.13281 0.51085 1.21008 0.566798L1.28141 0.612385C1.4419 0.369945 1.32698 0.546071 1.36264 0.490124L1.34481 0.475623L1.31311 0.448685L1.17639 0.343003L1.07139 0.268409L1.0377 0.24147C1.06499 0.258829 1.09348 0.274066 1.1229 0.287058C1.19773 0.324433 1.27523 0.355607 1.35472 0.3803C1.39629 0.394639 1.43863 0.406404 1.48153 0.415529L1.54889 0.427962H1.61626C1.93643 0.465626 2.2606 0.431721 2.5673 0.328497L2.63071 0.324355Z" fill="#0A1624"/>
</svg>
