<svg width="8" height="11" viewBox="0 0 8 11" fill="none" xmlns="http://www.w3.org/2000/svg">
<path d="M4.21533 10.0113C4.26288 10.0237 4.31043 10.0403 4.356 10.0506L4.41941 9.9118L4.48479 9.77089C4.5264 9.67557 4.56998 9.58233 4.61357 9.48701C4.95635 8.72239 5.29318 7.90804 5.64189 7.06468C5.81823 6.63989 5.97872 6.20267 6.13921 5.75923L6.38094 5.092C6.46415 4.86821 6.54341 4.64856 6.64049 4.43305C6.85319 3.99487 7.03722 3.54211 7.19131 3.07788L7.20518 3.03436L7.22499 2.95769L7.23688 2.91418V2.89139C7.23688 2.89139 7.23688 2.87481 7.23688 2.87066L7.15961 2.82922L6.9793 2.72975L6.66824 2.55984L6.04015 2.21587C5.20204 1.7745 4.3461 1.358 3.47827 1.0078L3.3891 0.972581L3.30787 0.939426L3.26824 0.922852H3.24645C3.24645 0.922852 3.24645 0.935282 3.23654 0.939426L3.13747 1.18187C3.0919 1.29169 3.04633 1.40152 2.99878 1.51134C2.90565 1.73099 2.81253 1.94649 2.71545 2.16199C2.51731 2.59299 2.32908 3.01571 2.13887 3.43429C1.75449 4.26314 1.38596 5.07956 1.06895 5.86698C0.993655 6.07419 0.912417 6.25861 0.84307 6.45339C0.807405 6.55078 0.773723 6.64818 0.738058 6.7435C0.702394 6.83881 0.672674 6.9362 0.638991 7.03152C0.573607 7.22009 0.51813 7.41072 0.460671 7.59514C0.442839 7.65316 0.426988 7.71119 0.411137 7.76713C0.365566 7.93083 0.335849 8.04272 0.333868 8.04687C0.331887 8.05101 0.333868 8.06138 0.333868 8.06345C0.383402 8.18156 0.462653 8.14012 0.498317 8.10696C0.533981 8.07381 0.498317 8.10696 0.498317 8.10696C0.498317 8.10696 0.53002 7.99299 0.573609 7.83344L0.601345 7.7319C0.658804 7.55163 0.712306 7.36721 0.773727 7.18071C0.835149 6.99422 0.900533 6.80566 0.971862 6.61709C1.04319 6.42853 1.11452 6.23582 1.19179 6.04311C1.49692 5.26813 1.85752 4.47242 2.23596 3.64978C2.4222 3.23536 2.6144 2.82093 2.80659 2.39407C2.90169 2.18685 3.00472 1.96721 3.08992 1.74963C3.13549 1.64188 3.18304 1.54242 3.22861 1.42431C3.27418 1.30619 3.29598 1.25853 3.33164 1.17565L3.56545 1.2689L3.88246 1.40358C4.09446 1.49476 4.30448 1.59008 4.51451 1.68747C4.93455 1.88363 5.35064 2.09084 5.76276 2.30911C6.17686 2.51632 6.587 2.74633 6.99516 2.97012L7.01497 2.98255C7.0011 3.0385 6.98327 3.09446 6.96544 3.1504C6.92977 3.2623 6.88816 3.37212 6.84656 3.48194C6.75938 3.70159 6.66229 3.91502 6.5652 4.13052C6.51567 4.23827 6.46812 4.3481 6.42057 4.45585C6.37302 4.5636 6.32744 4.6755 6.28781 4.78739C6.20658 5.00704 6.12534 5.22668 6.04609 5.44426C5.88758 5.88148 5.73502 6.31249 5.56858 6.72899C5.23176 7.55785 4.89493 8.36391 4.56602 9.11403C4.48281 9.30259 4.40157 9.48701 4.31835 9.66936L4.24109 9.83928L4.15192 9.81234L4.02115 9.76675C3.68693 9.63896 3.36011 9.49089 3.04237 9.32331C2.73328 9.16582 2.4341 9.01041 2.14086 8.88194C1.84762 8.75347 1.56428 8.65193 1.29878 8.55247L1.06102 8.46337L0.993654 8.43851L0.753913 8.36391L0.530019 8.29139C0.331885 8.23337 0.197153 8.21679 0.486429 8.3867C0.654844 8.49031 0.908457 8.60842 0.908457 8.60842L0.977806 8.63329L1.05706 8.66229L1.29482 8.7514L1.7327 8.91717C2.04368 9.03906 2.34853 9.17738 2.6461 9.3316C2.96113 9.49115 3.28805 9.66521 3.63677 9.81855C3.82601 9.89409 4.01917 9.95843 4.21533 10.0113Z" fill="#056E38"/>
</svg>
