<svg width="2" height="3" viewBox="0 0 2 3" fill="none" xmlns="http://www.w3.org/2000/svg">
<path d="M1.40371 0.631452C1.26683 0.563581 1.11062 0.551752 0.965826 0.598297C0.895346 0.619781 0.8305 0.657838 0.776241 0.709555C0.721982 0.761272 0.679758 0.82528 0.652782 0.896685C0.627365 0.967863 0.616865 1.04392 0.621992 1.11971C0.62712 1.1955 0.647748 1.26925 0.682495 1.33598C0.698345 1.36706 0.718163 1.39607 0.735995 1.42508C0.754481 1.45539 0.776442 1.48323 0.801383 1.50797C0.84358 1.55175 0.887884 1.59324 0.93413 1.6323C1.01576 1.70043 1.09016 1.77754 1.15604 1.8623C1.18185 1.89638 1.20012 1.93601 1.20954 1.97834C1.20954 1.97834 1.20954 1.97834 1.20954 1.99285C1.21258 2.00438 1.21258 2.01655 1.20954 2.02808C1.19616 2.07768 1.16762 2.12134 1.1283 2.1524C1.05743 2.20562 0.980154 2.24882 0.898467 2.28088C0.818109 2.30652 0.741451 2.34347 0.670607 2.3907C0.654756 2.41557 0.716184 2.43836 0.924225 2.40728C1.06877 2.39591 1.20676 2.33962 1.32049 2.24565C1.36111 2.19938 1.38975 2.14304 1.40371 2.08195C1.41106 2.06128 1.41572 2.03968 1.41758 2.01771V1.99285C1.41267 1.89695 1.37945 1.80501 1.32248 1.72969C1.24578 1.6308 1.15945 1.54052 1.06489 1.46031C1.02308 1.42563 0.983386 1.38826 0.946017 1.34841C0.928781 1.33306 0.914051 1.31486 0.902421 1.29454C0.890533 1.27381 0.876665 1.25517 0.866759 1.23445C0.846534 1.19696 0.834139 1.15542 0.830382 1.11256C0.826626 1.0697 0.831596 1.02649 0.844967 0.985789C0.860238 0.946673 0.883907 0.911753 0.91414 0.883728C0.944373 0.855703 0.980361 0.835319 1.01933 0.824159C1.11212 0.795365 1.21188 0.804247 1.29869 0.849027C1.30379 0.851108 1.30945 0.851108 1.31455 0.849027C1.37993 0.828306 1.41758 0.795151 1.42748 0.757852C1.43076 0.739009 1.43016 0.719653 1.42572 0.701072C1.42128 0.682491 1.4131 0.665113 1.40172 0.6501L1.40371 0.631452Z" fill="#848936"/>
</svg>
