<svg width="3" height="4" viewBox="0 0 3 4" fill="none" xmlns="http://www.w3.org/2000/svg">
<path d="M2.33322 0.846819L2.13508 0.958717C2.00432 1.03746 1.87949 1.10584 1.75269 1.16593L1.63578 1.22602L1.54266 1.27161L1.34453 1.35864C1.21772 1.41459 1.08893 1.46639 0.960147 1.51612C0.791732 1.58036 0.621335 1.64045 0.450939 1.69432C0.442939 1.6996 0.436174 1.70668 0.43113 1.71505C0.306305 1.90776 0.431122 1.99893 0.522264 2.02379C0.52989 2.02702 0.538414 2.02702 0.546039 2.02379C0.722379 1.96785 0.898726 1.90776 1.07308 1.84145C1.20584 1.78965 1.3366 1.73577 1.46935 1.67775L1.66749 1.58865L1.76457 1.54099L1.8458 1.49954V1.52856C1.82005 1.61766 1.79429 1.70883 1.77249 1.80001C1.74105 1.96214 1.71921 2.12615 1.70711 2.2911C1.692 2.44542 1.692 2.60094 1.70711 2.75526C1.70805 2.89179 1.74214 3.02584 1.80617 3.14482C1.82401 3.15933 1.83987 3.14482 1.85175 3.08266C1.86364 3.0205 1.87157 2.92103 1.8894 2.76977C1.91663 2.58198 1.95367 2.3959 2.00035 2.21236C2.04394 2.04866 2.08158 1.9264 2.08158 1.9264C2.10338 1.8373 2.12715 1.74613 2.15291 1.65703L2.17075 1.59487C2.18264 1.55757 2.19254 1.52441 2.20443 1.48918L2.27576 1.28197L2.42634 0.853035L2.44417 0.799164C2.4447 0.791576 2.4447 0.783955 2.44417 0.776367L2.4204 0.7888L2.33322 0.846819Z" fill="#5EBA47"/>
</svg>
