<svg width="3" height="2" viewBox="0 0 3 2" fill="none" xmlns="http://www.w3.org/2000/svg">
<path d="M1.82867 1.609C1.8405 1.60819 1.8518 1.60357 1.86102 1.59578C1.87025 1.58799 1.87695 1.57741 1.88019 1.56548L1.84848 1.38106H1.87424C1.91585 1.36862 1.95944 1.3562 2.00303 1.33962C2.09403 1.30882 2.17729 1.25713 2.24674 1.18835C2.3173 1.11561 2.36558 1.02257 2.38543 0.921047C2.40284 0.82098 2.39394 0.717846 2.35967 0.622658C2.32722 0.529382 2.27585 0.444553 2.20909 0.373999C2.14722 0.301169 2.07425 0.239552 1.99313 0.19165C1.91197 0.143656 1.82349 0.110713 1.73159 0.094265C1.63923 0.0766513 1.54457 0.0766513 1.45221 0.094265C1.35972 0.11412 1.27166 0.15208 1.19266 0.206156C1.15271 0.232389 1.11552 0.262949 1.0817 0.297331C1.04749 0.330736 1.01571 0.366756 0.986601 0.405086C0.925089 0.483226 0.88412 0.576785 0.867725 0.676536C0.853083 0.778995 0.868266 0.883693 0.911309 0.976999C0.998945 1.15429 1.14987 1.2883 1.33135 1.34998C1.37065 1.36059 1.40908 1.37445 1.44628 1.39143L1.48986 1.41007L1.53147 1.42872C1.56017 1.44349 1.58795 1.4601 1.61468 1.47845C1.67413 1.51575 1.72762 1.56549 1.72366 1.55927C1.75537 1.58259 1.791 1.59946 1.82867 1.609ZM1.63054 1.35619C1.60357 1.33403 1.57509 1.31395 1.54534 1.2961L1.49581 1.27124L1.47005 1.26088H1.45618L1.42645 1.25052C1.34622 1.22724 1.27 1.19087 1.20059 1.14277C1.13339 1.09433 1.07612 1.03233 1.03217 0.960418C0.990497 0.890302 0.969801 0.808766 0.97273 0.726265C0.975979 0.643585 1.00214 0.563677 1.04802 0.496261C1.09663 0.425768 1.15468 0.362954 1.2204 0.309763C1.28774 0.260017 1.36283 0.222866 1.44231 0.199946C1.6038 0.158299 1.77428 0.17966 1.92179 0.260034C1.99521 0.301518 2.06205 0.354643 2.11993 0.417518C2.17804 0.476553 2.22449 0.546959 2.25664 0.624733C2.27203 0.66323 2.28268 0.703618 2.28835 0.74492C2.29332 0.785506 2.29332 0.826583 2.28835 0.867169C2.28066 0.907127 2.2687 0.946052 2.25269 0.983209C2.23366 1.01919 2.20961 1.05202 2.18135 1.08061C2.12663 1.14058 2.05856 1.18543 1.98321 1.21115L1.8584 1.25258H1.82272L1.75338 1.28367H1.73753V1.31889L1.74743 1.37899L1.76527 1.47431C1.72731 1.43015 1.68478 1.39053 1.63846 1.35619H1.63054Z" fill="#FDBB11"/>
</svg>
