<svg width="1" height="1" viewBox="0 0 1 1" fill="none" xmlns="http://www.w3.org/2000/svg">
<path d="M0.397262 0.584347H0.373486H0.331874C0.304152 0.590368 0.278422 0.603851 0.257223 0.623478C0.236023 0.643106 0.220091 0.668191 0.211014 0.696239C0.197565 0.738617 0.197565 0.784406 0.211014 0.826784C0.219458 0.860538 0.237408 0.890856 0.262531 0.913811C0.271156 0.922544 0.281231 0.929573 0.292256 0.93454H0.302161C0.31263 0.936664 0.323387 0.936664 0.333857 0.93454H0.37547H0.419054C0.443304 0.920663 0.463252 0.899801 0.47652 0.87444H0.508217C0.51833 0.864092 0.525818 0.851275 0.530009 0.837143C0.542367 0.805681 0.547132 0.771526 0.543879 0.737684C0.541332 0.713774 0.534236 0.690638 0.523007 0.669641C0.511777 0.648645 0.496651 0.630207 0.478504 0.615422C0.460138 0.599529 0.439372 0.586928 0.41707 0.578125L0.397262 0.584347ZM0.359616 0.795697V0.783265C0.356725 0.775252 0.356725 0.766413 0.359616 0.7584H0.373486C0.374137 0.763211 0.374137 0.768096 0.373486 0.772907C0.375157 0.777584 0.375157 0.782736 0.373486 0.787413L0.389341 0.803994C0.383397 0.814355 0.373486 0.814347 0.373486 0.795697H0.359616Z" fill="black"/>
</svg>
