<svg width="9" height="8" viewBox="0 0 9 8" fill="none" xmlns="http://www.w3.org/2000/svg">
<path d="M4.75541 6.99611C5.18045 7.04418 5.60999 7.02462 6.02942 6.9381L6.3603 6.85313C6.41974 6.83655 6.47522 6.81169 6.53466 6.79304L6.68723 6.72466C6.73961 6.70257 6.79058 6.67696 6.8398 6.64799L7.00821 6.55267L7.0934 6.50501L7.17068 6.45114H7.18058C7.10547 6.56271 7.0392 6.68053 6.98245 6.8034C6.90914 6.9296 6.86316 7.07106 6.84772 7.21783C6.86357 7.26963 6.94282 7.19297 7.1469 6.92566C7.27537 6.76384 7.4116 6.60891 7.55506 6.46149C7.61846 6.39518 7.67791 6.34338 7.71951 6.30608L7.76905 6.26465L7.80075 6.23356C7.84235 6.19626 7.89387 6.15897 7.93944 6.1196L8.00878 6.06365L8.09795 6.00563L8.47242 5.76733L8.67056 5.64714H8.49223H8.09596H7.89783C7.83443 5.64714 7.76904 5.64714 7.7096 5.63471H7.62045H7.57487H7.5293L7.44014 5.62228C7.24757 5.59561 7.05693 5.55547 6.86951 5.5021C6.85965 5.50066 6.84965 5.50066 6.8398 5.5021C6.6159 5.60778 6.68525 5.77148 6.7546 5.84815C6.7546 5.86058 6.76648 5.86058 6.77639 5.86265C6.97936 5.92086 7.18591 5.96448 7.39457 5.9932L7.51146 6.00769C7.45797 6.03256 7.3906 6.06779 7.31333 6.11545L7.03198 6.23979L6.96066 6.27293L6.88933 6.29987L6.75262 6.3496C6.68256 6.37769 6.61112 6.40189 6.53863 6.42212L6.45343 6.44493L6.29294 6.50501C6.2652 6.50501 6.23747 6.51951 6.20973 6.5278L6.0849 6.56096C5.69966 6.65612 5.30284 6.68965 4.90798 6.66042C4.11091 6.58642 3.34899 6.28305 2.70669 5.78391C2.38508 5.53728 2.09655 5.24665 1.84878 4.91982C1.60434 4.59337 1.40861 4.23009 1.26825 3.84232C1.12819 3.45762 1.05439 3.05002 1.05029 2.6384C1.04652 2.2279 1.11364 1.82005 1.24843 1.43449L1.35938 1.15682C1.39703 1.06564 1.44854 0.978619 1.49411 0.889516C1.49511 0.87849 1.49511 0.867382 1.49411 0.856355C1.44458 0.603554 1.28013 0.630501 1.19295 0.684377C1.18892 0.686044 1.18525 0.688555 1.18218 0.691763C1.17911 0.69497 1.17671 0.6988 1.17512 0.703019C1.12558 0.800409 1.07011 0.893663 1.0285 0.995198L0.905656 1.30187C0.758327 1.72349 0.682556 2.16878 0.681763 2.61767C0.685168 3.0665 0.761551 3.51146 0.907639 3.93349C1.05324 4.35271 1.26047 4.74561 1.52185 5.09803C2.04192 5.80435 2.72982 6.35588 3.51707 6.69772C3.9145 6.85718 4.33133 6.95762 4.75541 6.99611Z" fill="#4B8FCC"/>
</svg>
