<svg width="2" height="3" viewBox="0 0 2 3" fill="none" xmlns="http://www.w3.org/2000/svg">
<path d="M0.843228 2.25556C0.9205 2.09186 1.0057 1.84113 1.0057 1.84113L1.04335 1.70851C1.06316 1.70851 1.07307 1.70851 1.07109 1.70851C1.13231 1.71237 1.19364 1.7032 1.25138 1.68157C1.26922 1.66706 1.22563 1.64427 1.08298 1.61733H1.06712C1.08693 1.54274 1.10676 1.46814 1.12459 1.39354C1.14242 1.31894 1.16421 1.2112 1.18204 1.11795C1.18322 1.1132 1.18322 1.1082 1.18204 1.10345C1.17763 1.08796 1.16917 1.07405 1.15763 1.0633C1.14608 1.05256 1.13191 1.04538 1.11669 1.04259C1.10147 1.03979 1.0858 1.04149 1.07145 1.04748C1.0571 1.05347 1.04462 1.06352 1.03542 1.07651C1.01759 1.16768 0.999753 1.25678 0.977958 1.34588C0.956163 1.43499 0.940317 1.49716 0.920503 1.57175L0.833323 1.54895C0.791478 1.53686 0.75097 1.52019 0.712464 1.49922C0.680414 1.48888 0.652092 1.46867 0.631222 1.44121C0.618131 1.42973 0.60736 1.41564 0.599526 1.39976C0.594336 1.38221 0.594336 1.36343 0.599526 1.34588L0.631222 1.25678C0.637401 1.23983 0.642696 1.22254 0.647076 1.20498L0.658964 1.15732C0.692992 1.04 0.738819 0.926781 0.795677 0.819565C0.835304 0.734607 0.874933 0.649645 0.908615 0.556399C0.908615 0.556399 0.908615 0.543964 0.908615 0.541892C0.87097 0.429996 0.797656 0.467295 0.767935 0.490089C0.736845 0.573698 0.701124 0.655339 0.660947 0.7346C0.599891 0.853301 0.550758 0.978306 0.514329 1.1076L0.502442 1.1511C0.499392 1.16519 0.49542 1.17903 0.490554 1.19255L0.458846 1.28165C0.44237 1.32379 0.436812 1.36974 0.442725 1.41485C0.448639 1.45996 0.465824 1.50264 0.492537 1.53859C0.525462 1.58726 0.570758 1.62531 0.623301 1.64842C0.648417 1.6593 0.674242 1.6683 0.700576 1.67536C0.753389 1.68834 0.807022 1.69734 0.861065 1.7023H0.882857L0.863048 1.77274L0.811531 2.00069C0.785774 2.11258 0.76002 2.22241 0.765964 2.2079C0.724356 2.40683 0.722365 2.53322 0.843228 2.25556Z" fill="#3770B7"/>
</svg>
