<svg width="2" height="2" viewBox="0 0 2 2" fill="none" xmlns="http://www.w3.org/2000/svg">
<path d="M0.938721 1.48609C0.944866 1.54563 0.958183 1.60411 0.97835 1.66015C0.997446 1.71955 1.02852 1.77397 1.06948 1.81971C1.11605 1.86073 1.16993 1.89172 1.228 1.91088L1.30131 1.9316C1.30131 1.9316 1.3132 1.9316 1.31122 1.9316H1.3548C1.37065 1.94818 1.38056 1.95854 1.36669 1.9316H1.40433C1.46644 1.93754 1.52901 1.92759 1.58663 1.90259C1.70034 1.84766 1.79015 1.75002 1.83825 1.62907C1.86361 1.56288 1.879 1.49298 1.88383 1.42185C1.89572 1.4405 1.90562 1.44879 1.88383 1.42185V1.40321C1.88488 1.35798 1.88089 1.31278 1.87194 1.26852C1.84813 1.15299 1.78288 1.0514 1.68965 0.984632C1.6307 0.942977 1.56244 0.917993 1.49151 0.912109C1.49151 0.912109 1.47765 0.912109 1.47567 0.912109H1.41622C1.33199 0.923326 1.25169 0.95606 1.18242 1.00743L1.16261 1.024C1.14874 1.024 1.14676 1.024 1.14676 1.03644V1.04887C1.1346 1.06182 1.12334 1.07567 1.11308 1.09031C1.09921 1.10896 1.09327 1.12347 1.11308 1.09031L1.13884 1.06752H1.15073C1.22998 1.19392 1.30131 1.32861 1.3766 1.46123C1.41227 1.52753 1.45189 1.59384 1.4935 1.65601C1.5351 1.71817 1.53511 1.72025 1.5569 1.75133L1.57869 1.78034C1.57869 1.78034 1.61832 1.82385 1.61832 1.82178C1.61832 1.81971 1.64804 1.84664 1.61832 1.82178L1.58861 1.77412L1.57275 1.75547L1.50737 1.66015C1.46576 1.59592 1.42614 1.52961 1.38849 1.4633C1.3132 1.32861 1.24186 1.19185 1.15865 1.0613C1.16499 1.05399 1.17234 1.04771 1.18045 1.04266C1.1956 1.03177 1.21149 1.02208 1.228 1.01365L1.24781 1.04058C1.3231 1.15455 1.39641 1.27059 1.46774 1.38663L1.57077 1.56483L1.63814 1.68295C1.64777 1.69949 1.65835 1.71541 1.66984 1.7306C1.68371 1.75133 1.69361 1.76169 1.67974 1.7306L1.65795 1.6788L1.59455 1.56691L1.48756 1.38663C1.41623 1.26644 1.34094 1.14833 1.26366 1.03229L1.24384 1.00536C1.2812 0.984321 1.32123 0.968971 1.36273 0.959768C1.39961 0.95559 1.43681 0.95559 1.47369 0.959768L1.48359 0.974274L1.652 1.26023L1.73523 1.40321L1.7907 1.50267L1.81844 1.5524C1.83231 1.57105 1.8442 1.58348 1.83033 1.5524C1.81646 1.52132 1.80854 1.50267 1.80854 1.50267L1.75702 1.40528L1.67381 1.26023L1.49945 0.970129L1.56482 0.984632L1.58663 1.01157C1.63814 1.07995 1.68569 1.15248 1.73324 1.21879L1.80259 1.32861L1.85014 1.40942L1.86401 1.43014C1.86375 1.49596 1.85235 1.5612 1.83033 1.62285C1.79036 1.74306 1.70916 1.84347 1.60247 1.90466C1.52529 1.94264 1.43864 1.95424 1.3548 1.93782L1.33896 1.90881L1.19234 1.68087L1.10119 1.54204C1.0659 1.50078 1.03408 1.45641 1.00609 1.40942C1.00081 1.4004 0.996811 1.39063 0.994204 1.38041C0.984298 1.38041 0.976365 1.38041 0.974384 1.38041C0.976906 1.39359 0.981601 1.40621 0.988254 1.41771C1.01658 1.46446 1.04838 1.5088 1.08336 1.55033L1.17252 1.68709L1.32112 1.9171L1.33301 1.93367H1.29338L1.26762 1.89431L1.13884 1.74925C1.08856 1.69354 1.04407 1.63242 1.00609 1.56691L0.990238 1.53582C0.97835 1.53582 0.974384 1.53582 0.974384 1.53582L0.990238 1.56691C1.02885 1.63261 1.07329 1.69435 1.12298 1.75133L1.25178 1.89638L1.27159 1.9171H1.25376C1.1968 1.90109 1.14309 1.87442 1.09524 1.83836C1.05337 1.79701 1.02146 1.74589 1.00213 1.68916C0.980942 1.63462 0.966295 1.57755 0.958529 1.51925C0.951578 1.46353 0.951578 1.40711 0.958529 1.3514C0.963143 1.31793 0.971799 1.28521 0.984288 1.25401C1.04967 1.36176 1.12298 1.46123 1.19431 1.56691L1.30725 1.72853L1.38056 1.84043L1.41425 1.88602C1.4301 1.90466 1.44199 1.91503 1.41425 1.88602C1.4072 1.86899 1.39927 1.85239 1.39047 1.83628L1.32112 1.73268L1.20423 1.56691C1.12894 1.45916 1.05364 1.34933 0.984288 1.23743C0.987035 1.22727 0.991031 1.21752 0.996175 1.20842C1.00728 1.18591 1.02204 1.16559 1.03977 1.14833L1.05364 1.13383C1.06124 1.12677 1.06996 1.12117 1.0794 1.11725C1.0794 1.10275 1.0794 1.10067 1.0794 1.10067L1.05166 1.11932C1.03311 1.13762 1.01711 1.15855 1.00411 1.18149C0.998313 1.1905 0.99365 1.20025 0.990238 1.2105V1.19807C0.988544 1.19743 0.986731 1.1972 0.984941 1.1974C0.983151 1.1976 0.981436 1.19822 0.97991 1.19922C0.978384 1.20021 0.977093 1.20156 0.976137 1.20316C0.975181 1.20475 0.974577 1.20655 0.974384 1.20842L0.988254 1.23329C0.974477 1.26576 0.964493 1.29985 0.958529 1.33482C0.94653 1.38431 0.939889 1.43505 0.938721 1.48609ZM1.82636 1.30374L1.75702 1.19185C1.70748 1.11725 1.65795 1.04473 1.60643 0.974274L1.64805 0.992923C1.69494 1.01895 1.73664 1.05411 1.77089 1.09653C1.80581 1.14121 1.83206 1.19259 1.84816 1.2478C1.85989 1.28887 1.86654 1.33135 1.86797 1.3742L1.82636 1.30374Z" fill="#534098"/>
</svg>
