<svg width="3" height="2" viewBox="0 0 3 2" fill="none" xmlns="http://www.w3.org/2000/svg">
<path d="M0.332346 1.92464C0.419526 1.87076 0.530481 1.7858 0.530481 1.7858L0.611711 1.71949L0.857396 1.51228C1.02185 1.38173 1.1863 1.25326 1.35472 1.12686C1.52313 1.00046 1.68956 0.874062 1.85996 0.749733L2.11556 0.567384C2.20076 0.509364 2.28398 0.43477 2.36719 0.382966C2.40602 0.356725 2.44893 0.337786 2.49399 0.327015C2.53362 0.279355 2.50589 0.246201 2.47815 0.23584C2.42197 0.247934 2.36829 0.270388 2.31963 0.30215C2.22651 0.362242 2.15321 0.428553 2.06801 0.486573L1.81637 0.668917C1.64994 0.789101 1.48351 0.913435 1.31905 1.03776C1.1546 1.16209 0.990154 1.29056 0.827684 1.41904L0.585953 1.61589L0.484914 1.6967C0.484914 1.6967 0.286779 1.88112 0.298667 1.87698C0.231301 1.95779 0.187708 2.01996 0.332346 1.92464Z" fill="#52BC88"/>
</svg>
