<svg width="8" height="14" viewBox="0 0 8 14" fill="none" xmlns="http://www.w3.org/2000/svg">
<path d="M0.510645 4.94163C0.509544 4.94569 0.509544 4.95 0.510645 4.95406C0.489536 4.95935 0.470858 4.97218 0.457834 4.99034C0.444811 5.0085 0.438261 5.03085 0.43932 5.05352C0.43932 5.05352 0.43932 5.05352 0.43932 5.06596L0.587921 5.32912L4.70912 12.6852C4.70912 12.6852 4.98453 13.1142 4.97858 13.0996C5.09548 13.2675 5.19455 13.3607 5.06576 13.0541C4.99443 12.8696 4.86763 12.6189 4.86763 12.6189L0.734539 5.24002L0.641421 5.07424L0.853415 4.94577L2.20074 4.11691L2.24036 4.1853C2.24036 4.1853 2.28989 4.21638 2.29188 4.21223C2.30972 4.21672 2.32854 4.21384 2.34441 4.20419C2.36028 4.19455 2.37197 4.17887 2.37707 4.16043C2.38562 4.14005 2.39098 4.11836 2.39293 4.09619L2.3533 4.02367L3.75016 3.1658L3.78977 3.23418C3.78977 3.23418 3.83931 3.26319 3.84327 3.25905C3.85929 3.26506 3.8768 3.26506 3.89281 3.25905C3.89281 3.28391 3.90272 3.31085 3.90866 3.33986V3.36058V3.41446V3.42896H3.89876L3.91065 3.45176C3.91089 3.57424 3.88517 3.69525 3.83535 3.80609C3.76927 3.94261 3.68814 4.07057 3.59362 4.18737L3.5223 4.28061C3.49883 4.31177 3.47369 4.34152 3.447 4.36972C3.38999 4.43517 3.33705 4.50439 3.2885 4.57693C3.22963 4.66079 3.19585 4.76102 3.19142 4.86496C3.19506 4.92776 3.21721 4.98784 3.25482 5.03694C3.27319 5.05784 3.29306 5.07724 3.31426 5.09497C3.33598 5.11067 3.35846 5.1252 3.38162 5.13848C3.47367 5.17843 3.57476 5.18994 3.67288 5.17163C3.76176 5.15684 3.84881 5.13182 3.93244 5.09704C4.09248 5.03001 4.24861 4.95321 4.40003 4.86703C4.54665 4.79036 4.70715 4.71784 4.86367 4.64738C5.18267 4.50648 5.50761 4.38215 5.85435 4.25575C5.93756 4.22259 6.0188 4.18737 6.09805 4.16457C6.17125 4.1385 6.24914 4.13001 6.32591 4.13971C6.35531 4.14225 6.38351 4.15302 6.40756 4.17088C6.43162 4.18875 6.45064 4.21305 6.46262 4.24124C6.46262 4.24124 6.46262 4.25367 6.46262 4.25989L6.47451 4.28061C6.47646 4.29435 6.47646 4.30832 6.47451 4.32206C6.46568 4.35957 6.45236 4.39577 6.43488 4.42981C6.34406 4.58556 6.2304 4.72541 6.09805 4.84424C5.9653 4.97064 5.82264 5.08668 5.678 5.20272C5.53337 5.31876 5.41647 5.40993 5.28173 5.50939L5.26786 5.48453C5.21736 5.50662 5.17002 5.53591 5.12718 5.57156L5.15294 5.61507L5.02416 5.71661C4.9474 5.77633 4.87458 5.84141 4.80621 5.91139C4.78802 5.92972 4.77082 5.94909 4.75469 5.96941C4.73664 5.98874 4.72008 6.00952 4.70516 6.03157C4.67028 6.08109 4.64534 6.13748 4.63185 6.19734C4.63076 6.21459 4.63076 6.2319 4.63185 6.24915V6.3051C4.6385 6.33908 4.65128 6.37142 4.66949 6.40041C4.70312 6.45435 4.75046 6.49741 4.80621 6.52474C4.84202 6.54142 4.87592 6.56228 4.90726 6.58691C4.91693 6.5954 4.9249 6.60581 4.93068 6.61755C4.93646 6.62929 4.93994 6.64212 4.94094 6.65529C4.94285 6.72988 4.9205 6.80293 4.87754 6.8625C4.77291 7.01211 4.65481 7.15089 4.52486 7.27693L4.47532 7.33081L4.42777 7.3909L4.34456 7.50487V7.49243C4.2939 7.51547 4.24601 7.54468 4.2019 7.57946L4.24945 7.66235C4.23558 7.68514 4.21974 7.70793 4.20785 7.73073C4.15546 7.81967 4.11731 7.91696 4.09491 8.01876C4.08801 8.07309 4.08801 8.12813 4.09491 8.18246C4.09577 8.23822 4.10513 8.29348 4.12264 8.34615C4.14064 8.40162 4.16969 8.45247 4.20785 8.49535C4.24013 8.53205 4.27453 8.56665 4.31087 8.59896C4.33974 8.62476 4.36568 8.65396 4.38814 8.68599C4.39724 8.7012 4.40519 8.71714 4.41192 8.73365C4.41873 8.74713 4.42278 8.76195 4.42381 8.77716C4.43236 8.85881 4.42835 8.94136 4.41192 9.02167C4.39805 9.1087 4.38021 9.19988 4.37031 9.29934C4.36535 9.35102 4.36535 9.40308 4.37031 9.45475C4.37031 9.47962 4.37031 9.50241 4.37031 9.52728L4.38814 9.60394C4.41551 9.71011 4.47535 9.804 4.55854 9.87125C4.63928 9.93441 4.73405 9.97506 4.83395 9.98936C4.92543 10.0007 5.01788 10.0007 5.10936 9.98936C5.26694 9.97199 5.42275 9.94009 5.57497 9.89404H5.58686H5.61658C5.77905 9.84639 5.93558 9.79251 6.08814 9.74485L6.20108 9.7117C6.23826 9.70122 6.27596 9.69292 6.31402 9.68683C6.39063 9.67025 6.4679 9.65575 6.54584 9.64332C6.69401 9.61953 6.84372 9.60775 6.99362 9.60809C7.13086 9.60137 7.26742 9.63207 7.38989 9.69719C7.43829 9.72727 7.47709 9.77166 7.50142 9.82475C7.52574 9.87785 7.53451 9.93728 7.52661 9.99558C7.50236 10.1245 7.44865 10.2453 7.37007 10.3478C7.20448 10.5569 7.02717 10.7555 6.83907 10.9425C6.79382 10.9934 6.75273 11.0482 6.71623 11.1062C6.67536 11.1695 6.6452 11.2396 6.62707 11.3135C6.6189 11.3559 6.6189 11.3995 6.62707 11.4419C6.6328 11.4904 6.65369 11.5356 6.6865 11.5704C6.69497 11.5816 6.70499 11.5914 6.71623 11.5994L6.74792 11.6181C6.76698 11.6271 6.78692 11.6341 6.80738 11.6388C6.84037 11.6406 6.87344 11.6406 6.90644 11.6388H6.95201H7.0174H7.04909H7.08476H7.16005L7.23931 11.6181C7.28488 11.6056 7.3463 11.587 7.40376 11.5663C7.52066 11.5269 7.62963 11.4896 7.61972 11.4896C7.68436 11.4735 7.74642 11.4476 7.80399 11.4129C7.81984 11.3963 7.76832 11.3736 7.60585 11.3901C7.50877 11.3901 7.39385 11.4191 7.30667 11.4336C7.21949 11.4482 7.15609 11.4523 7.15609 11.4523H7.09071H7.01145H6.98569C6.93231 11.4574 6.87858 11.4574 6.8252 11.4523C6.80687 11.451 6.78883 11.4468 6.77171 11.4399C6.78954 11.4212 6.77171 11.4399 6.77171 11.4399C6.771 11.4344 6.771 11.4288 6.77171 11.4233C6.76525 11.3805 6.77293 11.3366 6.7935 11.299C6.81837 11.2451 6.84893 11.1944 6.88464 11.1477C6.9203 11.1 6.96588 11.0524 7.01145 11.0026C7.10457 10.9052 7.20959 10.7954 7.30073 10.696C7.40486 10.5842 7.49659 10.4604 7.57416 10.3271C7.61546 10.2532 7.64679 10.1738 7.66727 10.0909C7.66823 10.0723 7.66823 10.0536 7.66727 10.035C7.68298 10.0381 7.69925 10.0355 7.71334 10.0276C7.72742 10.0197 7.73844 10.0069 7.74455 9.99144C7.7531 9.97105 7.75845 9.94936 7.7604 9.9272L7.67521 9.77386L7.64152 9.79251C7.62821 9.7564 7.61162 9.7217 7.59198 9.6889L7.5484 9.63503C7.55034 9.61569 7.54967 9.59615 7.54641 9.57701L7.46122 9.42574C7.41334 9.44686 7.36809 9.474 7.32649 9.50655C7.29732 9.49567 7.26754 9.48667 7.23732 9.47962C7.07377 9.44459 6.90601 9.4362 6.74 9.45475C6.57497 9.4686 6.41089 9.49282 6.24863 9.52728C6.08301 9.56421 5.91959 9.61126 5.75923 9.66818C5.69187 9.69098 5.6245 9.7117 5.5611 9.73034L5.52148 9.65989C5.47042 9.6821 5.42243 9.71137 5.37882 9.74692L5.39269 9.77386L5.28966 9.79873C5.13275 9.83834 4.97023 9.84748 4.81017 9.82566C4.73643 9.81703 4.66713 9.78441 4.61204 9.73242C4.56156 9.6801 4.52767 9.61283 4.51495 9.53971C4.51289 9.51974 4.51289 9.49959 4.51495 9.47962C4.51495 9.45889 4.51495 9.43817 4.51495 9.41745C4.51115 9.37611 4.51115 9.33447 4.51495 9.29312C4.52684 9.20817 4.54467 9.11492 4.55854 9.01753C4.56261 8.96651 4.56261 8.91521 4.55854 8.86419C4.56142 8.83664 4.56142 8.80885 4.55854 8.78131C4.56041 8.76687 4.56041 8.75223 4.55854 8.73779C4.55576 8.72138 4.55111 8.70538 4.54467 8.69013C4.49834 8.59261 4.43041 8.50807 4.34653 8.44355C4.2894 8.39795 4.25113 8.33123 4.23954 8.25705C4.22624 8.17648 4.23306 8.09368 4.25935 8.01668C4.32588 7.84767 4.41897 7.69149 4.53476 7.5546L4.57638 7.49658L4.61798 7.44685C4.64571 7.41369 4.6794 7.38054 4.71111 7.34531C4.77649 7.279 4.84386 7.20855 4.90924 7.1381C4.97881 7.05943 5.03629 6.96996 5.07963 6.87286C5.10366 6.8174 5.11713 6.75758 5.11926 6.69673C5.11984 6.6265 5.09825 6.55804 5.05784 6.50195C5.01902 6.45663 4.97184 6.41998 4.91914 6.3942C4.88581 6.37954 4.85503 6.35924 4.82801 6.33411C4.81983 6.32342 4.81315 6.31155 4.80819 6.29888C4.80662 6.28719 4.80662 6.27534 4.80819 6.26365C4.8132 6.23178 4.82468 6.20139 4.84187 6.17455C4.89091 6.10195 4.94962 6.03706 5.01623 5.98184C5.08359 5.91968 5.15691 5.86166 5.23022 5.80571L5.28372 5.76427C5.2994 5.76505 5.31489 5.76039 5.32779 5.75103C5.34068 5.74166 5.35026 5.7281 5.35504 5.71246L5.39863 5.67516L5.45213 5.63165L5.67602 5.45966C5.8266 5.34362 5.97718 5.22551 6.11984 5.09704C6.26486 4.97311 6.39762 4.83427 6.51611 4.68261C6.56261 4.61888 6.60123 4.54925 6.63103 4.47539C6.64552 4.47504 6.65952 4.46981 6.67094 4.46048C6.68236 4.45115 6.6906 4.43821 6.69444 4.42359C6.70319 4.40256 6.70855 4.38015 6.71029 4.35728L6.65679 4.26196C6.65336 4.24077 6.64805 4.21996 6.64094 4.1998C6.61626 4.13834 6.57494 4.08576 6.52206 4.04853H6.50224C6.50311 4.03612 6.50311 4.02365 6.50224 4.01123C6.50224 4.01123 6.41704 3.86204 6.41704 3.85997C6.36654 3.88207 6.31921 3.91135 6.27638 3.947L6.30015 3.98637C6.26782 3.98418 6.23538 3.98418 6.20305 3.98637C6.10672 4.00243 6.01237 4.02953 5.92171 4.06718L5.7949 4.11899L5.67008 4.16665L5.41646 4.26196C5.24805 4.3262 5.08161 4.39458 4.91716 4.46918L4.73686 4.54999L4.67743 4.44431C4.62637 4.46652 4.57838 4.49579 4.53476 4.53134C4.53476 4.53134 4.56052 4.57693 4.5843 4.6163L4.44363 4.68261C4.28314 4.76342 4.1385 4.85045 3.98594 4.91676C3.9129 4.95014 3.83735 4.97717 3.76006 4.99757C3.69187 5.01805 3.62039 5.02369 3.55004 5.01415C3.53521 5.01125 3.52063 5.00709 3.50644 5.00172C3.49294 4.99691 3.48023 4.98992 3.4688 4.981C3.44666 4.96675 3.42775 4.94766 3.41333 4.92505C3.4081 4.90188 3.4081 4.87776 3.41333 4.8546C3.42044 4.82301 3.43108 4.79241 3.44502 4.76342C3.48149 4.69665 3.52467 4.63413 3.57381 4.57693L3.65306 4.48576C3.68278 4.45467 3.70656 4.41945 3.73232 4.38836C3.83711 4.26018 3.92937 4.12134 4.00773 3.97394C4.06406 3.86621 4.10226 3.74915 4.12067 3.62789C4.13082 3.62414 4.13992 3.61783 4.14718 3.60952C4.15443 3.6012 4.15962 3.59114 4.16227 3.58023C4.17082 3.55985 4.17617 3.53816 4.17812 3.51599L4.13057 3.42689C4.13057 3.40203 4.13057 3.37716 4.13057 3.35437V3.32328C4.11778 3.22285 4.09452 3.12419 4.06122 3.02904L5.35504 2.23541L5.39269 2.30379C5.40957 2.31416 5.42752 2.3225 5.44619 2.32866C5.46379 2.33377 5.48261 2.33142 5.49857 2.32211C5.51452 2.3128 5.52631 2.29728 5.53139 2.27892C5.53995 2.25782 5.54529 2.23545 5.54723 2.21262L5.50761 2.14216L6.86086 1.31331C6.86086 1.31331 7.27298 1.02321 7.25713 1.0315C7.41762 0.907167 7.50679 0.805632 7.21355 0.940321C7.03721 1.01699 6.79549 1.14754 6.79549 1.14754L0.821719 4.81523L0.510645 4.94163Z" fill="#016287"/>
</svg>
