<svg width="3" height="2" viewBox="0 0 3 2" fill="none" xmlns="http://www.w3.org/2000/svg">
<path d="M2.56619 1.27707C2.45523 1.16931 2.31653 1.04291 2.2036 0.943448L2.05896 0.823267L2.0015 0.777679L2.14218 0.626411H2.19765C2.19765 0.626411 2.45919 0.533164 2.44731 0.52902C2.55034 0.477216 2.60977 0.400545 2.42551 0.365319L2.33238 0.348744C2.32955 0.327704 2.32238 0.307557 2.31139 0.289688C2.3004 0.271818 2.28584 0.256647 2.2687 0.245226C2.25157 0.233805 2.23227 0.2264 2.21214 0.223523C2.19201 0.220646 2.17152 0.222363 2.15208 0.228557C2.14019 0.228557 2.13821 0.228557 2.13425 0.228557L2.00943 0.352886L1.8113 0.388116C1.7895 0.294869 1.76968 0.232703 1.76968 0.230631H1.75581C1.71075 0.223144 1.66466 0.226533 1.62105 0.24054C1.57743 0.254547 1.53746 0.278804 1.50418 0.311447C1.50418 0.311447 1.50418 0.311445 1.50418 0.321806C1.50418 0.332166 1.52003 0.373608 1.53985 0.450277L1.47446 0.464784C1.42097 0.437846 1.36747 0.410909 1.31199 0.388116C1.15628 0.320639 0.99326 0.273321 0.826565 0.247212C0.817454 0.249021 0.808728 0.252528 0.800806 0.25757C0.713627 0.311445 0.699753 0.369465 0.70966 0.419197C0.719428 0.46394 0.743128 0.504023 0.777031 0.533162C0.777031 0.533162 0.777027 0.533162 0.790896 0.533162C0.933335 0.554247 1.07254 0.594652 1.205 0.653349L1.2585 0.678214C1.27023 0.719408 1.28903 0.758024 1.31397 0.792179L1.43087 0.763173L1.55966 0.837767L1.31794 1.15895C1.19905 1.31851 1.08216 1.47392 1.09603 1.46148C1.02342 1.54583 0.96632 1.64348 0.92761 1.74951C0.92761 1.78888 1.00489 1.74951 1.20302 1.58166C1.3219 1.48013 1.45663 1.34959 1.56363 1.24598L1.66467 1.14445C1.67656 1.23355 1.6825 1.29157 1.6825 1.29157L1.72213 1.43869C1.73172 1.48626 1.74565 1.53275 1.76374 1.57752C1.80535 1.69563 1.87469 1.77231 1.91828 1.56716C1.94143 1.47061 1.95668 1.37217 1.96386 1.27292C1.96386 1.27292 1.96386 1.1921 1.94008 1.0657L2.15208 1.19832C2.31653 1.304 2.47901 1.40553 2.46712 1.39517C2.55823 1.45874 2.66066 1.50244 2.76828 1.52365C2.80593 1.52365 2.7564 1.45527 2.56619 1.27707Z" fill="#98E565"/>
</svg>
