<svg width="5" height="4" viewBox="0 0 5 4" fill="none" xmlns="http://www.w3.org/2000/svg">
<path d="M3.30834 2.89303C3.20044 3.01442 3.1085 3.15031 3.03493 3.2971C2.95677 3.4276 2.91491 3.57827 2.91406 3.73225C2.92396 3.75504 2.94774 3.74676 2.99133 3.69703C3.03492 3.64729 3.09634 3.55405 3.19937 3.42558C3.26528 3.34623 3.33539 3.27082 3.40939 3.19971C3.48104 3.1335 3.55647 3.07192 3.63527 3.0153L3.68877 2.98213L3.71254 2.96555L3.76406 2.93448L3.85916 2.87853L3.88294 2.86402H3.9087L3.96021 2.84123L4.04938 2.80393L4.08702 2.78735H4.10286V2.76041V2.66303V2.59879V2.5615L4.08899 2.44959V2.42888C4.09021 2.42554 4.09021 2.42185 4.08899 2.41852H4.06918L3.98597 2.40609C3.93513 2.39952 3.8848 2.38913 3.83539 2.375L3.69075 2.34185H3.65706H3.6313L3.60159 2.33148C3.43703 2.27475 3.28043 2.19532 3.13597 2.09526C2.98042 1.98816 2.84088 1.85758 2.72187 1.70776H2.69413C2.57723 1.68704 2.49599 1.70777 2.46627 1.76371C2.4492 1.789 2.43725 1.81766 2.43111 1.84795C2.42498 1.87823 2.4248 1.9095 2.43061 1.93985C2.42719 1.94848 2.42719 1.95816 2.43061 1.96678C2.5727 2.1439 2.73893 2.2982 2.92396 2.42473C3.081 2.53326 3.24998 2.62162 3.42723 2.68789L3.52035 2.72104C3.52215 2.71995 3.52421 2.71939 3.5263 2.71939C3.52838 2.71939 3.53043 2.71995 3.53223 2.72104L3.49657 2.7542L3.4728 2.77492L3.36779 2.76249H3.27665L3.16569 2.74798L3.01907 2.72726L2.87047 2.68997C2.77657 2.66702 2.68449 2.63654 2.59506 2.59879C2.55674 2.58483 2.51963 2.5675 2.48411 2.54699L2.39891 2.50554C2.38 2.49652 2.36206 2.4854 2.34541 2.47238L2.3256 2.45995L2.18889 2.38536L2.06208 2.29418C1.87396 2.14782 1.70884 1.97164 1.57269 1.77201C1.43749 1.56463 1.32327 1.3431 1.23189 1.111C1.15835 0.92204 1.0968 0.728211 1.04763 0.530788C1.04763 0.530788 1.0298 0.510069 1.02782 0.507997C0.829685 0.356731 0.722682 0.508002 0.694943 0.60332C0.693011 0.607523 0.692017 0.612126 0.692017 0.61679C0.692017 0.621453 0.693011 0.626056 0.694943 0.630259C0.74748 0.841917 0.813677 1.04961 0.893078 1.2519C0.995316 1.51056 1.12351 1.75714 1.27549 1.98751C1.43382 2.225 1.62707 2.43481 1.84809 2.60915L1.97886 2.7024C2.02444 2.73348 2.07198 2.75627 2.11953 2.7832L2.16313 2.80393C2.2011 2.824 2.24093 2.83997 2.282 2.85159L2.45043 2.90754C2.51383 2.92412 2.5812 2.93448 2.64856 2.94899C2.71383 2.96272 2.78014 2.97034 2.8467 2.97178C2.90812 2.97178 2.96557 2.97178 3.01312 2.97178C3.06155 2.97107 3.10988 2.96692 3.15777 2.95934C3.21127 2.95934 3.26277 2.94899 3.30834 2.93655V2.89303Z" fill="#6150A0"/>
</svg>
