<svg width="2" height="3" viewBox="0 0 2 3" fill="none" xmlns="http://www.w3.org/2000/svg">
<path d="M0.670664 0.823379C0.73258 0.863661 0.781037 0.923025 0.809361 0.993296C0.885358 1.13489 0.913296 1.29922 0.88862 1.45953C0.882444 1.49982 0.872484 1.53939 0.858894 1.57764C0.842448 1.65044 0.815733 1.72028 0.779636 1.78486C0.745938 1.84475 0.707506 1.90159 0.664726 1.95477C0.621232 1.99912 0.582677 2.04847 0.549805 2.10189C0.549805 2.11432 0.549803 2.11639 0.585467 2.10189C0.634381 2.08256 0.680415 2.05604 0.722181 2.02314C0.799081 1.96154 0.865983 1.88737 0.920316 1.8035C0.950487 1.75787 0.976368 1.7093 0.997591 1.65846C1.01695 1.60401 1.03153 1.54783 1.04118 1.49062C1.0714 1.29198 1.03722 1.08846 0.944091 0.91248C0.899908 0.808261 0.823972 0.722282 0.728131 0.667969H0.70831C0.640944 0.682474 0.635003 0.723922 0.636984 0.750859C0.641821 0.774422 0.649127 0.797346 0.658776 0.819231C0.658776 0.819231 0.668683 0.821307 0.670664 0.823379Z" fill="#D62027"/>
</svg>
