<svg width="5" height="5" viewBox="0 0 5 5" fill="none" xmlns="http://www.w3.org/2000/svg">
<path d="M4.72822 3.56104H4.74011C4.74011 3.56104 4.74011 3.56104 4.75002 3.56104L4.76587 3.55068C4.77595 3.5426 4.78466 3.53278 4.79163 3.52167C4.79234 3.52004 4.79271 3.51828 4.79271 3.51649C4.79271 3.5147 4.79234 3.51294 4.79163 3.51131C4.79163 3.41185 4.79163 3.30409 4.79163 3.20256L4.81343 2.64101V2.48974C4.81343 2.48974 4.81343 2.3592 4.81343 2.22865C4.81343 2.14162 4.81343 2.05874 4.81343 2.02144C4.81343 2.0318 4.81343 2.02144 4.81343 2.00279C4.81343 1.98414 4.81343 1.99243 4.81343 2.00279C4.81445 1.93134 4.80023 1.86056 4.77181 1.79558C4.76428 1.78494 4.75565 1.7752 4.74606 1.76656H4.73417C4.73417 1.76656 4.73417 1.76656 4.72228 1.76656H4.67473H4.62916C4.59745 1.76656 4.56972 1.76656 4.54 1.76656H4.45678C4.3746 1.7691 4.2926 1.77602 4.21109 1.78729H3.02228C2.92992 1.78104 2.83726 1.78104 2.7449 1.78729C2.66788 1.78959 2.5914 1.80141 2.51704 1.82251C2.51612 1.80387 2.51612 1.7852 2.51704 1.76656C2.51704 1.7044 2.51704 1.62151 2.52893 1.53863L2.5428 1.30862V1.20294C2.5428 1.20294 2.5428 1.15321 2.53091 1.10348V1.09312C2.53186 1.0814 2.53186 1.06962 2.53091 1.0579C2.52913 1.03325 2.52091 1.00959 2.50713 0.989512C2.50751 0.984685 2.50751 0.979832 2.50713 0.975005V0.964647H2.49723C2.48732 0.950142 2.47742 0.941853 2.46751 0.943925H2.4576C2.42293 0.931452 2.38527 0.931452 2.35061 0.943925H2.33674H2.32089H2.309L2.28721 0.962573L2.2773 0.975005L2.26343 0.991586C2.23681 1.00789 2.21162 1.02661 2.18814 1.04753C2.14039 1.08921 2.09475 1.13348 2.05143 1.18015L2.0118 1.22366L1.89688 1.31484L1.77205 1.43088C1.61157 1.58422 1.45108 1.73756 1.29455 1.89297L1.05877 2.12712L1.02905 2.1582L1.01518 2.1727L0.953757 2.23072L0.832898 2.34677L0.614948 2.56434C0.615255 2.56986 0.615255 2.57539 0.614948 2.58091C0.609266 2.60683 0.609266 2.63375 0.614948 2.65966C0.618477 2.66739 0.62345 2.67431 0.629575 2.68001C0.6357 2.6857 0.642852 2.69005 0.650611 2.69281C0.674995 2.70606 0.703111 2.70974 0.729864 2.70317L0.739774 2.77984L0.763549 2.79434C0.607023 2.69074 0.50597 2.65759 0.721937 2.88967L0.735808 2.9021C0.864595 3.04922 1.04688 3.24193 1.04688 3.24193L1.17171 3.3559C1.46296 3.62735 1.75422 3.90295 2.05737 4.16611L2.17228 4.26764C2.21389 4.30079 2.25154 4.33395 2.30107 4.36711H2.31891H2.34863C2.37176 4.37602 2.39643 4.3797 2.42102 4.37792C2.44561 4.37613 2.46956 4.36892 2.49129 4.35674V4.05628V3.71231C2.49129 3.71231 2.49128 3.67501 2.47741 3.63357L2.7766 3.66257C3.18872 3.69573 3.60084 3.71438 4.01098 3.73096H4.15363C4.15363 3.73096 4.65888 3.73095 4.63907 3.71438C4.81937 3.63978 4.94419 3.61077 4.72822 3.56104ZM2.03557 3.84492L2.0752 3.87393L2.03557 3.84492ZM2.3407 1.6671L2.31693 1.64431L2.34268 1.62359C2.3407 1.63809 2.3407 1.65259 2.3407 1.6671ZM4.61925 3.36626V3.40355C4.61925 3.40355 4.61925 3.3849 4.61925 3.37662C4.61925 3.36833 4.62321 3.36833 4.6252 3.36626H4.61925ZM4.60736 3.54239C4.60736 3.53203 4.60736 3.52167 4.60736 3.51338H4.61925V3.54032L4.60736 3.54239ZM4.69256 2.13541V2.11676H4.70445L4.69256 2.13541Z" fill="#111121"/>
</svg>
