<svg width="3" height="3" viewBox="0 0 3 3" fill="none" xmlns="http://www.w3.org/2000/svg">
<path d="M1.5727 1.27667C1.54903 1.25221 1.52388 1.22937 1.4974 1.20829C1.47181 1.19118 1.44369 1.17858 1.41418 1.171C1.41163 1.17027 1.40893 1.17022 1.40635 1.17086C1.40377 1.1715 1.40138 1.17281 1.39941 1.17466C1.39744 1.17652 1.39595 1.17886 1.39507 1.18148C1.39418 1.1841 1.39394 1.18691 1.39437 1.18964C1.39437 1.21658 1.39437 1.24559 1.4122 1.27253C1.42804 1.31083 1.4459 1.34819 1.4657 1.38443C1.4974 1.44452 1.54297 1.53154 1.61232 1.54812C1.62392 1.55134 1.63613 1.55135 1.64773 1.54816C1.65934 1.54497 1.66996 1.53867 1.67854 1.5299C1.68713 1.52113 1.69339 1.51018 1.69672 1.49812C1.70004 1.48606 1.70032 1.4733 1.69752 1.46109C1.68959 1.39271 1.6143 1.32433 1.5727 1.27667Z" fill="black" stroke="#5EBC6D" stroke-width="0.973512" stroke-miterlimit="10"/>
</svg>
