<svg width="5" height="18" viewBox="0 0 5 18" fill="none" xmlns="http://www.w3.org/2000/svg">
<path d="M3.34058 16.6659C4.88999 13.508 5.15352 9.50461 4.27974 6.09801C3.9449 4.7967 3.59221 4.85472 3.56447 6.17053C3.56447 6.41505 3.54664 6.66164 3.52287 6.90615C3.42974 7.87177 3.26331 7.90285 3.10282 6.98903C2.77194 5.0951 2.23895 3.20945 1.31961 1.61597C0.455742 0.109522 0.0515472 0.0369975 0.527071 1.69057C1.42264 4.85058 1.71588 8.67368 1.63068 12.0036C1.597 13.2676 1.84269 13.2117 2.447 12.0948C2.90271 11.2556 3.12462 11.5084 3.0414 12.5672C2.9463 13.7629 2.81553 14.944 2.61937 16.123C2.35784 17.702 2.65702 18.0584 3.34058 16.6659Z" fill="#7C7C7D"/>
</svg>
