<svg width="1" height="2" viewBox="0 0 1 2" fill="none" xmlns="http://www.w3.org/2000/svg">
<path d="M0.723306 1.702C0.726984 1.71547 0.73563 1.72685 0.747335 1.73365C0.759039 1.74045 0.772844 1.74211 0.785719 1.73826C0.798593 1.73442 0.809485 1.72538 0.815988 1.71314C0.82249 1.7009 0.82408 1.68645 0.820402 1.67299C0.735204 1.37046 0.648015 1.06793 0.562817 0.765394C0.557344 0.754362 0.548395 0.745648 0.537482 0.740728C0.526569 0.735809 0.51437 0.734987 0.502944 0.738401C0.491517 0.741815 0.481571 0.749256 0.474791 0.759462C0.46801 0.769669 0.464806 0.782013 0.465733 0.794404C0.550931 1.09694 0.636126 1.39947 0.723306 1.702Z" fill="#EF5023"/>
</svg>
