<svg width="2" height="2" viewBox="0 0 2 2" fill="none" xmlns="http://www.w3.org/2000/svg">
<path d="M1.08166 0.832734L1.09157 0.780931C1.07805 0.769653 1.06244 0.761437 1.04573 0.7568C1.02901 0.752162 1.01157 0.751217 0.994481 0.754005C0.994481 0.754005 0.994482 0.778864 0.982593 0.812018C0.974564 0.852329 0.969264 0.893188 0.966739 0.93428C0.965759 0.944615 0.965759 0.955019 0.966739 0.965354H0.895414H0.84984C0.84484 1.00125 0.851839 1.03784 0.869655 1.06896H0.909285H0.968723C0.968723 1.09383 0.968723 1.10833 0.968723 1.10833C0.978305 1.14228 0.991604 1.17497 1.00835 1.20573C1.03213 1.2451 1.06184 1.2596 1.06581 1.19122C1.06977 1.12284 1.07572 1.09797 1.07572 1.09797C1.07572 1.09797 1.07572 1.08347 1.07572 1.06068H1.12525L1.1629 1.04617L1.19856 1.02959C1.23026 1.01094 1.24413 0.981933 1.19856 0.967428C1.17534 0.958561 1.15149 0.951637 1.12723 0.946712H1.08364C1.07924 0.908894 1.07858 0.870694 1.08166 0.832734Z" fill="#BF2026"/>
</svg>
