<svg width="11" height="18" viewBox="0 0 11 18" fill="none" xmlns="http://www.w3.org/2000/svg">
<path d="M1.10289 3.11997L1.06723 2.51076L1.04939 2.20615V2.12948C1.0484 2.11707 1.0484 2.1046 1.04939 2.09219V1.76271L1.02166 1.18873C1.02166 0.904847 1.02166 0.627178 1.02166 0.649972C1.02166 0.18374 0.954291 -0.137438 0.803709 0.614749C0.777951 0.724573 0.754176 0.848901 0.7304 0.971158C0.720493 1.03332 0.706629 1.09341 0.698704 1.1535C0.690778 1.21359 0.686812 1.27162 0.682849 1.32549C0.663036 1.54514 0.64917 1.70469 0.64917 1.70469V2.09425C0.64917 2.09425 0.64917 2.13155 0.64917 2.15435V2.23309L0.684833 2.87131C0.684833 2.97699 0.68483 3.07852 0.706625 3.19042L0.746254 3.50746L0.82353 4.1291C0.859194 4.33631 0.900793 4.54353 0.938439 4.75074C1.0058 5.16517 1.12072 5.5796 1.22177 5.99402C1.26734 6.20124 1.33471 6.40845 1.39811 6.60323L1.58634 7.2083C1.65767 7.40515 1.73296 7.60201 1.80627 7.80093L1.91921 8.09725L1.97469 8.24437L2.03808 8.38942L2.2917 8.96755L2.4205 9.25557L2.56116 9.53531C3.30725 11.043 4.23552 12.4442 5.32316 13.7045L5.42223 13.8246L5.52923 13.9386L5.74123 14.1645L6.16722 14.6183L6.61897 15.0451C6.77154 15.184 6.91816 15.3332 7.07666 15.4596C7.38575 15.731 7.70871 15.99 8.04752 16.2325C8.38521 16.4783 8.74174 16.6945 9.11348 16.879C9.31162 16.9805 9.53948 17.0675 9.72573 17.1525C9.73686 17.1546 9.74827 17.1546 9.75941 17.1525C9.76748 17.1684 9.77676 17.1837 9.78715 17.1981C9.78715 17.2126 9.80894 17.2312 9.81291 17.2375H9.67619C9.47806 17.2375 9.27992 17.2105 9.08179 17.1857L8.7727 17.1442C8.7727 17.1442 8.49729 17.1194 8.22386 17.0883C7.95043 17.0572 7.68296 17.0282 7.70673 17.0365C7.253 17.0075 6.9558 17.051 7.65323 17.2623C7.85137 17.3328 8.10894 17.4074 8.30906 17.4695C8.50917 17.5317 8.66174 17.5566 8.66174 17.5566C8.78657 17.5773 8.90941 17.5939 9.03424 17.6104C9.23237 17.6353 9.44437 17.654 9.65439 17.6643H9.7911H9.91394H10.0427C10.2131 17.6643 10.3835 17.6519 10.5559 17.6415H10.6193C10.6193 17.6415 10.6411 17.6415 10.647 17.6415L10.6233 17.6146L10.5302 17.5068L10.332 17.2831C10.2706 17.2085 10.2032 17.1339 10.1517 17.0593L10.1042 16.9847C10.0923 16.966 10.0804 16.9494 10.0705 16.9308C9.90222 16.6243 9.7692 16.2981 9.67421 15.9589C9.6009 15.7393 9.52363 15.5155 9.42852 15.2938C9.41921 15.2848 9.40927 15.2764 9.3988 15.2689C9.14915 15.1425 9.07782 15.3394 9.06197 15.4409C9.06197 15.4575 9.06197 15.4596 9.06197 15.4679C9.14915 15.6751 9.22048 15.8823 9.29379 16.0895C9.35125 16.2615 9.40871 16.4376 9.47806 16.6137C9.40673 16.5827 9.33738 16.5516 9.26803 16.5164C8.9227 16.3438 8.59138 16.1422 8.27736 15.9134C7.95836 15.6875 7.64927 15.4388 7.35009 15.1798C7.19753 15.0534 7.05685 14.9104 6.91221 14.7758L6.47829 14.3613C6.33564 14.2225 6.20288 14.0733 6.06617 13.9283C5.92946 13.7832 5.79076 13.6402 5.66 13.489C4.60826 12.2821 3.70745 10.9404 2.97923 9.49594L2.84252 9.22449C2.79695 9.13539 2.74939 9.04629 2.71175 8.95097L2.46606 8.39563L2.3452 8.11797C2.30558 8.02472 2.27188 7.9294 2.23622 7.83409L2.02224 7.26425C1.94497 7.07568 1.89346 6.87883 1.82411 6.68612L1.64182 6.10592L1.49321 5.51329C1.44764 5.31643 1.38821 5.12165 1.35651 4.92066C1.28518 4.51866 1.19206 4.12288 1.15838 3.71674L1.10289 3.11997Z" fill="#004E50"/>
</svg>
