<svg width="1" height="1" viewBox="0 0 1 1" fill="none" xmlns="http://www.w3.org/2000/svg">
<path d="M0.792456 0.742216C0.769216 0.723322 0.743947 0.707331 0.717163 0.694561C0.698185 0.68686 0.678077 0.682654 0.657725 0.682129H0.620079C0.606973 0.68538 0.594767 0.691757 0.584417 0.700771C0.568133 0.714873 0.554672 0.732207 0.544811 0.751765C0.534951 0.771323 0.528883 0.792718 0.526956 0.814736C0.525194 0.844408 0.525194 0.874177 0.526956 0.903849V0.953579V0.978444H0.544787C0.555052 0.986399 0.566411 0.992679 0.578473 0.997086H0.588377H0.618096C0.63219 0.998047 0.646325 0.995968 0.659618 0.990977C0.672911 0.985987 0.68508 0.978202 0.695372 0.968085C0.711222 0.949436 0.719148 0.937001 0.727074 0.92664L0.736978 0.914208C0.748866 0.893486 0.764716 0.878973 0.766697 0.86654C0.768678 0.854107 0.750849 0.841674 0.701315 0.86654C0.651782 0.891406 0.639894 0.903845 0.63395 0.899701C0.631968 0.877647 0.631968 0.855445 0.63395 0.833391C0.63395 0.81267 0.645836 0.791946 0.649798 0.791946C0.653761 0.791946 0.649801 0.791946 0.67754 0.791946C0.695989 0.799796 0.713318 0.810259 0.729051 0.823033L0.766697 0.856182L0.782551 0.870688C0.79987 0.86541 0.81548 0.855286 0.827701 0.84141C0.839922 0.827533 0.848285 0.81043 0.851894 0.791946C0.833612 0.773459 0.813714 0.756811 0.792456 0.742216Z" fill="black"/>
</svg>
