<svg width="2" height="3" viewBox="0 0 2 3" fill="none" xmlns="http://www.w3.org/2000/svg">
<path d="M0.789777 0.961426H0.744197H0.696647H0.653063L0.613434 0.973858C0.586088 0.983172 0.559565 0.994958 0.534175 1.00908C0.499487 1.02966 0.46695 1.05396 0.437091 1.08161C0.434832 1.08159 0.432601 1.08208 0.430536 1.08304C0.428472 1.084 0.42662 1.08541 0.425119 1.08717C0.423618 1.08894 0.422498 1.09102 0.421829 1.09328C0.42116 1.09553 0.420954 1.09791 0.421237 1.10026C0.411016 1.1126 0.40175 1.12576 0.393507 1.13963C0.393507 1.13963 0.393507 1.13963 0.393507 1.12927C0.382325 1.11994 0.368125 1.11548 0.353878 1.11684C0.31034 1.15294 0.276257 1.19999 0.25481 1.2536C0.232355 1.3126 0.218331 1.37474 0.213198 1.43802C0.208313 1.50183 0.212317 1.56604 0.225085 1.62865C0.240267 1.68924 0.26083 1.7482 0.286507 1.80479C0.316199 1.86517 0.362409 1.91495 0.419253 1.94776C0.526249 2.00752 0.646857 2.03547 0.767973 2.02858C0.79882 2.02782 0.829452 2.02294 0.859119 2.01407C0.889161 2.00347 0.91832 1.9903 0.946299 1.9747C0.999927 1.94237 1.04704 1.89944 1.085 1.8483C1.1617 1.74921 1.20673 1.62745 1.21378 1.50018C1.21844 1.43616 1.21309 1.37177 1.19793 1.30954C1.18266 1.2469 1.15498 1.18831 1.11669 1.13756C1.07723 1.08567 1.02768 1.04313 0.97132 1.01277C0.914962 0.982407 0.853086 0.964908 0.789777 0.961426ZM1.01762 1.16864C1.05971 1.21734 1.08905 1.27658 1.10282 1.34062C1.05527 1.25981 1.00376 1.18314 0.950265 1.10648C0.975455 1.12691 0.998081 1.15058 1.01762 1.17693V1.16864ZM0.458883 1.87524C0.421528 1.8539 0.389065 1.82431 0.363746 1.78852C0.338426 1.75274 0.32086 1.71162 0.312265 1.66802C0.362164 1.74121 0.417132 1.81046 0.47672 1.87524L0.496529 1.89803L0.458883 1.87524ZM0.559934 1.91668C0.549645 1.90075 0.538398 1.88553 0.526254 1.8711L0.504462 1.84416C0.438642 1.77613 0.378945 1.70191 0.326136 1.62244L0.296411 1.57063C0.293349 1.54102 0.293349 1.51115 0.296411 1.48153C0.298983 1.4875 0.302325 1.49308 0.306327 1.49811C0.330103 1.53541 0.359814 1.56856 0.383591 1.60172L0.454928 1.70947L0.583709 1.91668L0.599563 1.9374L0.559934 1.91668ZM0.758068 1.94155C0.713349 1.94767 0.668058 1.94767 0.623338 1.94155L0.59758 1.89389L0.468787 1.69703L0.395478 1.58514C0.369721 1.54784 0.34001 1.51676 0.318215 1.47946C0.3071 1.46522 0.298388 1.4491 0.292456 1.4318C0.292456 1.40486 0.292448 1.38 0.308298 1.35513C0.361795 1.43802 0.417278 1.51883 0.474737 1.59964L0.569838 1.73433L0.639192 1.83794L0.700614 1.91875C0.726371 1.95191 0.746178 1.97056 0.718439 1.91875C0.6907 1.86695 0.672872 1.83172 0.672872 1.83172L0.603529 1.73019L0.506433 1.59136C0.44303 1.50225 0.379628 1.41315 0.322169 1.31991C0.330224 1.3013 0.339495 1.2833 0.349911 1.26603L0.371703 1.3054C0.432422 1.41195 0.498562 1.51501 0.569838 1.61415L0.754102 1.87317L0.815523 1.95191L0.758068 1.94155ZM0.829394 1.92497V1.91254C0.811562 1.87524 0.781844 1.82551 0.781844 1.82551L0.599563 1.56649C0.528094 1.4675 0.461947 1.36442 0.401428 1.25774L0.373686 1.20801C0.378459 1.20197 0.383769 1.19642 0.389541 1.19143C0.390502 1.18525 0.390502 1.17896 0.389541 1.17278L0.433124 1.14377L0.445012 1.16449C0.514359 1.27225 0.5738 1.38828 0.643147 1.50018C0.674848 1.5582 0.70655 1.61415 0.742214 1.66802C0.777878 1.7219 0.775899 1.72397 0.793731 1.75091L0.821473 1.79028C0.821473 1.79028 0.888842 1.87109 0.886861 1.86488L0.91459 1.88974C0.890655 1.90754 0.864708 1.92215 0.837327 1.93326L0.829394 1.92497ZM1.01169 1.77785C0.984301 1.81722 0.950817 1.85154 0.912619 1.87938C0.90766 1.86778 0.901685 1.85668 0.894782 1.84623L0.845248 1.76541L0.821473 1.73226L0.767973 1.64937C0.73429 1.5955 0.702588 1.53748 0.668905 1.48153C0.605502 1.36756 0.54408 1.24945 0.47077 1.13756L0.4569 1.11684L0.514366 1.08575L0.546063 1.13341C0.611447 1.22666 0.670886 1.32405 0.730327 1.42144L0.81949 1.57063L0.882894 1.68253L0.938378 1.76749C0.962154 1.80271 0.981961 1.82136 0.956203 1.76749C0.944492 1.73641 0.931263 1.70598 0.916574 1.67631L0.853169 1.56649L0.764018 1.41522C0.704578 1.31576 0.641172 1.20801 0.575788 1.11891L0.550029 1.08161L0.577771 1.07125C0.593755 1.06508 0.610382 1.0609 0.627305 1.05881C0.635987 1.07965 0.647314 1.09917 0.660984 1.11684C0.716462 1.19558 0.765991 1.28053 0.817506 1.36549L0.888844 1.49189L0.946299 1.59343C0.946299 1.59343 0.999799 1.6846 0.999799 1.68046C1.02159 1.71568 1.0414 1.73433 1.01762 1.6701C0.993848 1.60586 0.979978 1.57892 0.979978 1.57892L0.924507 1.47946L0.849215 1.34892C0.799681 1.26396 0.748168 1.17693 0.690709 1.09404C0.68004 1.07911 0.670749 1.06315 0.662968 1.04638H0.724389H0.752131V1.05881L0.888844 1.28675L0.956203 1.40279L1.00772 1.49604L1.06122 1.58099C1.06183 1.5865 1.06183 1.59206 1.06122 1.59757C1.05924 1.66266 1.0451 1.72672 1.01961 1.78614L1.01169 1.77785ZM1.09887 1.57063C1.08857 1.54094 1.07666 1.51188 1.06319 1.4836L1.01169 1.39036L0.944316 1.27432L0.811569 1.05467C0.831312 1.05869 0.850573 1.06494 0.869023 1.07332L0.880911 1.08782C0.948277 1.18314 1.01168 1.28053 1.07905 1.38L1.0949 1.40486L1.11471 1.43387C1.11781 1.47894 1.11515 1.52423 1.10679 1.56856L1.09887 1.57063Z" fill="#534098"/>
</svg>
