<svg width="1" height="1" viewBox="0 0 1 1" fill="none" xmlns="http://www.w3.org/2000/svg">
<path d="M0.56301 0.440967C0.56385 0.447152 0.56385 0.453424 0.56301 0.459609C0.56301 0.459609 0.56301 0.459609 0.56301 0.472041L0.547156 0.49277C0.523086 0.524682 0.49729 0.555124 0.469887 0.583945L0.450072 0.604661C0.450072 0.604661 0.459976 0.604661 0.46592 0.604661H0.664055C0.708211 0.60315 0.750952 0.588005 0.786897 0.561142C0.786897 0.546637 0.763126 0.550786 0.668021 0.540426C0.655985 0.539249 0.644412 0.534979 0.634336 0.527993H0.646223L0.666038 0.496906C0.671475 0.486964 0.676115 0.476575 0.679909 0.465832C0.693835 0.426077 0.699901 0.383773 0.69774 0.341496C0.696558 0.300071 0.684195 0.259843 0.662078 0.225456C0.637122 0.186125 0.600075 0.156892 0.557066 0.142578L0.497622 0.159146L0.473847 0.165369L0.454032 0.198517C0.448776 0.209815 0.446045 0.222226 0.446045 0.23479C0.446045 0.247354 0.448776 0.259752 0.454032 0.27105C0.454032 0.27105 0.454036 0.283482 0.463943 0.283482C0.474529 0.290689 0.486982 0.294304 0.499606 0.29384H0.51942C0.52869 0.291966 0.537073 0.28685 0.543196 0.279334C0.544453 0.276401 0.5451 0.273227 0.5451 0.270013C0.5451 0.266799 0.544453 0.263624 0.543196 0.260692C0.551886 0.266636 0.559303 0.274394 0.564987 0.283482C0.575599 0.300899 0.58174 0.320874 0.582819 0.341496C0.583203 0.364709 0.579856 0.387828 0.572915 0.40988C0.570698 0.420585 0.567379 0.431012 0.56301 0.440967Z" fill="#BF2026"/>
</svg>
