<svg width="22" height="9" viewBox="0 0 22 9" fill="none" xmlns="http://www.w3.org/2000/svg">
<path d="M1.7633 8.0011H1.92577H2.06843C2.13964 8.00081 2.21066 7.99318 2.28044 7.97831C2.35107 7.96507 2.42266 7.95813 2.49442 7.95759C2.5867 7.95246 2.67828 7.93789 2.76785 7.91408L3.02344 7.84155L3.32461 7.76903C3.3366 7.76887 3.3484 7.76579 3.35906 7.76003C3.36972 7.75428 3.37895 7.746 3.38603 7.73587C3.43952 7.70686 3.48708 7.682 3.53661 7.66128L3.68917 7.59497C3.71097 7.58253 3.73276 7.56596 3.75654 7.54938L3.8239 7.50379C3.8663 7.46064 3.91792 7.42868 3.97449 7.41054C4.02911 7.39318 4.08064 7.36659 4.12705 7.33181L4.22414 7.26342C4.26167 7.23865 4.30072 7.2165 4.34104 7.19711C4.36614 7.16839 4.39479 7.14331 4.42623 7.12252L4.5253 7.06035L4.62834 6.96503C4.67192 6.92774 4.71947 6.89044 4.769 6.85521L4.92949 6.74125L5.0464 6.62106L5.49418 6.20663L5.56353 6.12582C5.61741 6.06759 5.66708 6.00526 5.71213 5.93933C5.78742 5.83986 5.86469 5.73211 5.94592 5.61193L6.1718 5.27831C6.21806 5.21365 6.25789 5.14422 6.29068 5.0711C6.29068 5.04831 6.30654 5.02551 6.31248 5.00272C6.32055 4.97743 6.33118 4.95312 6.34418 4.93019C6.36993 4.9074 6.38183 4.88461 6.37589 4.86389C6.37308 4.84674 6.37308 4.82923 6.37589 4.81208C6.40853 4.78345 6.43839 4.75152 6.46504 4.71676C6.53835 4.56135 6.60769 4.42045 6.67704 4.29197C6.74639 4.1635 6.81574 4.02881 6.87518 3.87754L6.89895 3.8361C6.90851 3.82278 6.9216 3.81269 6.9366 3.80709C6.97923 3.79784 7.02101 3.78467 7.06142 3.76772C7.11294 3.747 7.16643 3.72213 7.22191 3.6952L7.38438 3.61645C7.43788 3.58951 7.48147 3.56672 7.51713 3.55222C7.62809 3.48798 7.68555 3.46726 7.69149 3.49212C7.69743 3.51699 7.69149 3.56051 7.64592 3.6206C7.60035 3.68069 7.56271 3.747 7.50921 3.82782C7.47024 3.87394 7.43998 3.92738 7.42005 3.98529L7.32098 4.21323C7.28939 4.29025 7.25299 4.36501 7.21201 4.43703C7.18423 4.51946 7.15249 4.60037 7.11691 4.67946C7.08097 4.76176 7.05372 4.84792 7.03567 4.93641C7.02074 4.99493 7.00222 5.05238 6.98019 5.1084C6.94837 5.18176 6.92317 5.25807 6.9049 5.33633C6.88905 5.41093 6.87518 5.4876 6.86329 5.56634C6.83547 5.69268 6.82944 5.8232 6.84546 5.95176C6.86224 6.08798 6.90394 6.21954 6.96831 6.33925C7.07895 6.45433 7.21508 6.53904 7.36458 6.58583C7.56348 6.62356 7.76834 6.60642 7.95898 6.5361C8.00455 6.51123 8.04021 6.49466 8.06398 6.4843L8.12541 6.45115L8.18089 6.42006L8.2641 6.37033C8.31124 6.3441 8.35689 6.31504 8.40082 6.2833C8.43846 6.25429 8.48007 6.22114 8.52366 6.18176C8.56467 6.16454 8.60131 6.13758 8.63066 6.10302C8.65757 6.07225 8.68744 6.04448 8.71981 6.02014C8.77529 5.96419 8.82087 5.91446 8.86446 5.86473C8.87372 5.9153 8.8863 5.96515 8.9021 6.01392C8.92579 6.07551 8.95855 6.13284 8.99919 6.18384C9.01578 6.19744 9.02874 6.21528 9.03683 6.23564C9.04701 6.25768 9.06038 6.27795 9.07646 6.29574C9.12505 6.34563 9.17739 6.39136 9.23298 6.43249C9.28886 6.47335 9.34861 6.50807 9.4113 6.5361C9.48072 6.56935 9.55399 6.59304 9.62925 6.60656C9.70974 6.62085 9.79134 6.62709 9.87296 6.62521C9.95846 6.62516 10.0439 6.61893 10.1286 6.60656C10.2455 6.59412 10.3267 6.58376 10.3703 6.57547C10.5131 6.54809 10.6531 6.50646 10.7883 6.45115C10.7883 6.48845 10.7725 6.52574 10.7606 6.56719C10.7438 6.62022 10.7331 6.67518 10.7289 6.73088C10.7317 6.74471 10.7313 6.75903 10.7279 6.77269C10.7244 6.78636 10.718 6.799 10.7091 6.80962C10.6924 6.83389 10.6828 6.86266 10.6813 6.89251C10.6484 6.96177 10.6393 7.04083 10.6556 7.1163C10.6731 7.19502 10.6798 7.27597 10.6754 7.35667C10.6703 7.38474 10.6703 7.41356 10.6754 7.44163C10.6799 7.45279 10.6822 7.46476 10.6822 7.47685C10.6822 7.48895 10.6799 7.50093 10.6754 7.51208C10.6861 7.58699 10.714 7.65807 10.7566 7.7193C10.7923 7.7711 10.8379 7.83119 10.8874 7.89957C11.0098 8.01612 11.1646 8.08872 11.3293 8.10679C11.5352 8.11655 11.74 8.07014 11.9237 7.9721C11.9871 7.93618 12.0584 7.89266 12.1376 7.84155C12.2114 7.79309 12.2782 7.73377 12.3358 7.66542C12.3477 7.64533 12.3624 7.62718 12.3794 7.61154C12.4018 7.59505 12.4207 7.57389 12.4348 7.54938L12.6548 7.29036C12.7314 7.19927 12.8022 7.10306 12.8668 7.00233C12.886 6.98829 12.904 6.97234 12.9203 6.95468C12.9391 6.9348 12.9545 6.91167 12.9658 6.88629C12.9645 6.92536 12.9685 6.96443 12.9777 7.00233C12.9777 7.02927 12.9936 7.06243 13.0035 7.09558C13.0292 7.17432 13.053 7.23856 13.0728 7.28622C13.0994 7.34512 13.1341 7.39959 13.1759 7.44785C13.2314 7.51025 13.2989 7.55968 13.374 7.59289C13.5073 7.64505 13.6506 7.66351 13.7921 7.64677C13.9399 7.63194 14.0844 7.59204 14.22 7.52866C14.3576 7.46538 14.4867 7.3839 14.6044 7.28622C14.7112 7.19808 14.8064 7.09567 14.8877 6.98161C14.8945 6.9728 14.9025 6.96512 14.9115 6.95882C14.9181 6.95278 14.923 6.94487 14.9254 6.93603C14.9472 6.91323 14.9611 6.88629 14.9809 6.8635C14.9992 6.94349 15.0286 7.02027 15.0681 7.09144C15.103 7.16425 15.1523 7.22851 15.2127 7.28C15.284 7.34334 15.369 7.38745 15.4604 7.40847C15.4963 7.40869 15.5319 7.41571 15.5654 7.42919C15.6251 7.4457 15.6879 7.4457 15.7477 7.42919C15.8243 7.41676 15.8903 7.40433 15.9458 7.39189C16.1509 7.33949 16.3432 7.24279 16.5105 7.10801C16.6895 6.96649 16.8578 6.81061 17.0137 6.64178C17.1285 6.51503 17.2369 6.38225 17.3387 6.24393C17.3387 6.27294 17.3506 6.30402 17.3605 6.33096C17.3857 6.39129 17.4176 6.44832 17.4556 6.50088C17.4733 6.51374 17.4871 6.53175 17.4952 6.55268C17.5047 6.57514 17.5181 6.59553 17.5348 6.61277C17.5832 6.66376 17.6363 6.70957 17.6933 6.74953C17.7483 6.7908 17.8074 6.82555 17.8697 6.85314C17.9391 6.88639 18.0124 6.91008 18.0876 6.92359C18.1681 6.93789 18.2497 6.94413 18.3313 6.94224C18.4168 6.94113 18.5021 6.9349 18.5869 6.92359L18.8267 6.89458C19.1175 6.8364 19.3956 6.7226 19.6469 6.5589C19.9082 6.38964 20.1519 6.19242 20.3741 5.97041C20.5943 5.75021 20.7964 5.51107 20.9784 5.25552C21.1414 5.02792 21.2916 4.79061 21.4282 4.54477C21.4792 4.46153 21.5161 4.3697 21.5371 4.27332C21.5371 4.25675 21.5372 4.25053 21.5213 4.2526C21.5055 4.25467 21.5015 4.2526 21.4995 4.2526L21.6065 3.90241H21.5768H21.5451C21.5496 3.89653 21.552 3.88922 21.552 3.88169C21.552 3.87415 21.5496 3.86685 21.5451 3.86097L21.5173 3.82988L21.4936 3.81953C21.4936 3.81953 21.4817 3.81952 21.4817 3.80502C21.4727 3.78635 21.4572 3.77203 21.4383 3.76508C21.4195 3.75812 21.3988 3.75907 21.3806 3.76772C21.3522 3.77637 21.3259 3.7912 21.3034 3.81123C21.2875 3.81123 21.2776 3.7988 21.2697 3.80088C21.2444 3.80821 21.2177 3.80821 21.1924 3.80088C21.1873 3.79684 21.181 3.79466 21.1746 3.79466C21.1681 3.79466 21.1619 3.79684 21.1567 3.80088C21.1489 3.80878 21.1434 3.81884 21.1409 3.82988C21.139 3.84154 21.139 3.85345 21.1409 3.86511C21.1409 3.87962 21.1409 3.88376 21.1409 3.87754C21.113 3.87538 21.0855 3.88425 21.0636 3.90241C21.046 3.92286 21.0295 3.9443 21.0141 3.96665L20.9606 4.06196C20.9368 4.10133 20.913 4.1407 20.8873 4.18008L20.812 4.29611C20.7955 4.32569 20.7763 4.35346 20.7545 4.37901C20.6911 4.46811 20.6198 4.57171 20.5386 4.69397C20.4573 4.81623 20.3701 4.93848 20.273 5.06488C20.176 5.19128 20.0749 5.31561 19.9719 5.43579C19.8756 5.55267 19.7688 5.65954 19.6529 5.7549C19.4309 5.93583 19.1919 6.09274 18.9396 6.22321C18.8865 6.24378 18.8313 6.25769 18.7751 6.26465L18.6166 6.29159C18.5599 6.29562 18.503 6.29562 18.4463 6.29159C18.4216 6.29192 18.3972 6.28608 18.3751 6.27454C18.3531 6.263 18.334 6.24611 18.3194 6.22528C18.2782 6.17069 18.2479 6.10797 18.2303 6.04086C18.2018 5.9238 18.1951 5.8021 18.2105 5.68238C18.2211 5.55348 18.2457 5.42626 18.2838 5.30318H18.3036C18.341 5.30901 18.3768 5.32313 18.4086 5.34462C18.4424 5.36661 18.4818 5.37745 18.5215 5.37571C18.5374 5.37571 18.5433 5.39021 18.5414 5.39228C18.5394 5.39435 18.5414 5.39228 18.5572 5.39228C18.567 5.39016 18.5771 5.39016 18.5869 5.39228H18.6067C18.7052 5.38658 18.8029 5.36991 18.898 5.34255C18.9688 5.31801 19.0356 5.28237 19.0961 5.23687C19.3426 5.05113 19.5497 4.81409 19.7044 4.54063C19.8365 4.28383 19.9339 4.00906 19.9937 3.72421C19.9916 3.71244 19.9926 3.70031 19.9964 3.68904C20.0002 3.67777 20.0068 3.66775 20.0155 3.65997C20.018 3.59548 20.014 3.53088 20.0036 3.46726C19.9941 3.40724 19.9725 3.35003 19.9402 3.29942C19.892 3.1852 19.8072 3.09214 19.7004 3.03626C19.6575 3.00267 19.607 2.98125 19.5538 2.97409C19.4808 2.93876 19.3999 2.92514 19.32 2.93472C19.2341 2.9383 19.1486 2.94938 19.0644 2.96787C18.8258 3.05147 18.6021 3.17613 18.4027 3.33671C18.219 3.48796 18.0563 3.66509 17.9192 3.86304C17.7818 4.05608 17.6655 4.26459 17.5725 4.48468C17.513 4.62766 17.4675 4.77686 17.4199 4.92191C17.3506 5.02551 17.2872 5.12912 17.2218 5.21615C17.1227 5.38192 17.0236 5.53733 16.9266 5.68445C16.8282 5.83361 16.721 5.97618 16.6056 6.11131C16.4741 6.26155 16.3309 6.40016 16.1776 6.52574L16.0845 6.56719C16.0512 6.57961 16.0166 6.58795 15.9815 6.59205C15.9492 6.5955 15.9168 6.58667 15.8903 6.56719C15.8591 6.5387 15.8382 6.49997 15.8309 6.45736C15.8143 6.41951 15.8017 6.37991 15.7932 6.33925C15.7913 6.30507 15.7947 6.27079 15.8031 6.23771C15.8001 6.1232 15.8081 6.00866 15.8269 5.89581C15.8428 5.79842 15.8626 5.6886 15.8824 5.56012C15.9022 5.43165 15.92 5.35291 15.9299 5.29281C15.9398 5.23272 15.9557 5.16849 15.9715 5.1084C15.9874 5.04831 16.0112 4.96956 16.0409 4.87632C16.0706 4.78307 16.1083 4.64631 16.1598 4.46189L16.2014 4.37486L16.2133 4.34585C16.2133 4.34585 16.2133 4.33134 16.2133 4.31684C16.2133 4.30233 16.2252 4.27332 16.239 4.22566C16.2529 4.178 16.2767 4.12206 16.3222 4.01845L16.4609 3.67447C16.5085 3.55429 16.5521 3.43825 16.5937 3.32843C16.6353 3.21861 16.6611 3.14815 16.671 3.12121C16.6809 3.09428 16.7145 3.04661 16.7423 3.04661C16.7903 3.04321 16.8377 3.03275 16.883 3.01553C16.9924 2.97152 17.106 2.93958 17.2218 2.92022C17.3003 2.91151 17.3775 2.89272 17.4516 2.86426C17.4928 2.84872 17.5353 2.83693 17.5784 2.82904L17.7884 2.77931L18.0104 2.72958C18.0817 2.713 18.1332 2.6985 18.1649 2.68814H18.2025C18.215 2.68619 18.2271 2.68198 18.2382 2.67571C18.2481 2.65913 18.2858 2.64669 18.3531 2.6384C18.4002 2.63481 18.4467 2.62578 18.4918 2.61146L18.6127 2.58038C18.6486 2.57286 18.6821 2.55573 18.7098 2.53065C18.6979 2.51615 18.7098 2.50164 18.7375 2.48299C18.7568 2.47082 18.7774 2.46108 18.7989 2.45398C18.8286 2.45398 18.8366 2.43326 18.8207 2.42083C18.8168 2.41891 18.8134 2.41614 18.8106 2.4127C18.8079 2.40926 18.8059 2.40523 18.8047 2.4009C18.8036 2.39657 18.8034 2.39203 18.8041 2.3876C18.8048 2.38317 18.8064 2.37896 18.8088 2.37524C18.8386 2.37524 18.8564 2.35452 18.8584 2.34416C18.862 2.33765 18.8672 2.33228 18.8735 2.32863C18.8797 2.32498 18.8869 2.32319 18.894 2.32344C18.8802 2.29381 18.8581 2.26925 18.8306 2.25299C18.8045 2.23537 18.7806 2.21449 18.7593 2.19082C18.7722 2.17701 18.7888 2.16763 18.8069 2.16389C18.8287 2.16389 18.8326 2.14316 18.8187 2.1183L18.7355 2.06235C18.7304 2.0537 18.7235 2.0464 18.7152 2.04101C18.707 2.03562 18.6976 2.03229 18.688 2.03127C18.6819 2.02586 18.6742 2.0229 18.6662 2.0229C18.6582 2.0229 18.6505 2.02586 18.6444 2.03127C18.6418 2.03471 18.6385 2.0375 18.6347 2.03942C18.6309 2.04133 18.6268 2.04233 18.6226 2.04233C18.6184 2.04233 18.6143 2.04133 18.6105 2.03942C18.6067 2.0375 18.6034 2.03471 18.6008 2.03127C18.5825 2.02705 18.5636 2.02705 18.5453 2.03127C18.5276 2.03425 18.5095 2.03425 18.4918 2.03127C18.4627 2.02257 18.4318 2.02257 18.4027 2.03127C18.3767 2.03867 18.3494 2.03867 18.3234 2.03127C18.2874 2.02662 18.2509 2.03015 18.2164 2.04162C18.1807 2.04162 18.1391 2.06027 18.0936 2.06856C18.0383 2.07713 17.9844 2.09315 17.9331 2.11622C17.8808 2.1408 17.8239 2.15283 17.7666 2.15145H17.729L17.6596 2.17424L17.5507 2.21362L17.4358 2.25299L17.3525 2.27371L17.1088 2.33173C17.0514 2.34209 16.9701 2.36488 16.8651 2.39596L16.8196 2.4084C16.8008 2.41451 16.7816 2.41868 16.7621 2.42083C16.7583 2.39752 16.7583 2.37369 16.7621 2.35038C16.7621 2.3186 16.768 2.28545 16.7799 2.25091L16.8037 2.15145C16.8085 2.1297 16.8144 2.10825 16.8215 2.08721C16.8215 2.05199 16.8215 2.01676 16.8097 1.9836C16.8045 1.95292 16.7915 1.92427 16.772 1.90072L16.7086 1.83027C16.6854 1.80502 16.6579 1.78463 16.6274 1.77017C16.5897 1.74945 16.556 1.73495 16.5303 1.72252C16.4909 1.70951 16.4504 1.70049 16.4094 1.69558H16.2985C16.2756 1.69679 16.2533 1.70316 16.2331 1.71423C16.215 1.72576 16.1989 1.74048 16.1855 1.75774C16.1629 1.78131 16.1384 1.8028 16.1122 1.82198C16.1018 1.82447 16.0919 1.82928 16.0834 1.83607C16.0748 1.84286 16.0678 1.85147 16.0627 1.86135C16.0523 1.89602 16.0347 1.92786 16.0112 1.9546C16.0002 1.96621 15.9918 1.98023 15.9867 1.99564C15.9815 2.01105 15.9798 2.02747 15.9815 2.0437C15.9907 2.06447 15.9954 2.0871 15.9954 2.11001C15.9954 2.13291 15.9907 2.15554 15.9815 2.17632C15.961 2.21677 15.9489 2.26123 15.9458 2.30686C15.9412 2.34393 15.9319 2.38017 15.918 2.41461C15.9055 2.45009 15.8969 2.48693 15.8923 2.52444C15.8923 2.55137 15.8784 2.57831 15.8705 2.60732C15.8669 2.62185 15.859 2.63483 15.848 2.64448C15.837 2.65413 15.8234 2.65997 15.8091 2.6612C15.7883 2.66214 15.7681 2.66779 15.7496 2.67777C15.7307 2.68626 15.7107 2.69185 15.6902 2.69435C15.634 2.7023 15.5784 2.71406 15.5238 2.72958L15.3712 2.77724L15.074 2.84355C14.9769 2.86634 14.8461 2.89535 14.6777 2.92436L14.5688 2.94716C14.5259 2.95614 14.4846 2.9715 14.4459 2.99274C14.4129 3.00123 14.3818 3.01675 14.3548 3.03833C14.3263 3.05481 14.3034 3.08015 14.2894 3.11085C14.2735 3.15436 14.2537 3.2041 14.228 3.26004C14.2248 3.27785 14.2248 3.29612 14.228 3.31392H14.2399C14.2571 3.33693 14.2705 3.36286 14.2795 3.39059C14.2842 3.40359 14.2917 3.41533 14.3013 3.425C14.3109 3.43466 14.3224 3.44202 14.335 3.44654L14.4182 3.51906C14.4459 3.54323 14.4795 3.559 14.5153 3.56465C14.5592 3.57185 14.6036 3.57532 14.648 3.57501C14.69 3.57332 14.7318 3.56777 14.7728 3.55843C14.8249 3.54727 14.876 3.53133 14.9254 3.51078L15.1473 3.42582C15.1775 3.4202 15.2072 3.41258 15.2365 3.40302L15.391 3.36365C15.4465 3.34915 15.502 3.33464 15.5535 3.31806C15.605 3.30149 15.6407 3.29113 15.6585 3.28284C15.6547 3.29707 15.6547 3.31212 15.6585 3.32635C15.6602 3.3295 15.6612 3.33308 15.6612 3.33671C15.6612 3.34035 15.6602 3.34393 15.6585 3.34708L15.2384 4.46603C15.1988 4.5945 15.1731 4.67325 15.1612 4.72091C15.153 4.74918 15.1431 4.77687 15.1315 4.80379C15.1247 4.81837 15.1194 4.83365 15.1156 4.84938C15.1156 4.86388 15.0938 4.91569 15.07 5.00272C15.0463 5.08975 15.0443 5.12497 15.0363 5.15813C15.0284 5.19128 15.0225 5.22443 15.0185 5.25344C15.0115 5.28619 15.0069 5.31944 15.0047 5.35291L14.969 5.43372C14.9195 5.54769 14.862 5.67202 14.7986 5.80671C14.7352 5.9414 14.6678 6.06987 14.6004 6.19627C14.5484 6.29756 14.4881 6.39393 14.4202 6.4843C14.3673 6.56687 14.3062 6.64328 14.2379 6.71223C14.1797 6.7731 14.1129 6.82414 14.0397 6.8635L13.9506 6.90494C13.9169 6.91775 13.8814 6.92475 13.8456 6.92566C13.8131 6.92531 13.7818 6.91372 13.7563 6.89273C13.7309 6.87173 13.7128 6.84251 13.7049 6.80962C13.6664 6.6993 13.6456 6.58307 13.6435 6.46565C13.6435 6.37654 13.6435 6.28123 13.6573 6.18176C13.6787 6.0355 13.7092 5.89084 13.7485 5.74869C13.7802 5.63679 13.8139 5.50418 13.8475 5.35498C13.8733 5.25345 13.905 5.14776 13.9427 5.0338C13.9803 4.91983 14.0199 4.81208 14.0635 4.70226C14.0754 4.6691 14.0912 4.62766 14.1111 4.57793C14.1309 4.5282 14.1487 4.47846 14.1665 4.42666C14.1821 4.37501 14.1947 4.32242 14.2042 4.26918C14.2142 4.22629 14.2142 4.18152 14.2042 4.13864C14.2233 4.11033 14.2318 4.07566 14.228 4.04125C14.233 4.02409 14.2329 4.00572 14.2275 3.98866C14.2222 3.97159 14.212 3.95667 14.1982 3.94592C14.1649 3.92197 14.1355 3.89259 14.1111 3.8589C14.1067 3.85482 14.1011 3.85257 14.0952 3.85257C14.0894 3.85257 14.0837 3.85482 14.0794 3.8589C14.0675 3.8589 14.0556 3.8589 14.0437 3.84025C14.0273 3.84313 14.0121 3.85106 14.0001 3.86304C14.0001 3.87547 13.9803 3.86304 13.9684 3.85268C13.9565 3.84232 13.9268 3.81331 13.907 3.81538H13.8297C13.7976 3.8198 13.7663 3.82886 13.7366 3.84232L13.586 3.9107C13.5601 3.92176 13.537 3.93892 13.5184 3.96084C13.4998 3.98276 13.4864 4.00885 13.479 4.0371L13.4116 4.23395C13.3715 4.20324 13.3338 4.16929 13.2987 4.13242C13.265 4.09701 13.2235 4.07069 13.1778 4.05575C13.1179 4.03464 13.0548 4.02482 12.9916 4.02674C12.889 4.02972 12.7869 4.0422 12.6865 4.06404C12.6642 4.06653 12.6427 4.07357 12.6231 4.08476L12.5696 4.11377C12.4256 4.16266 12.2889 4.23241 12.1634 4.32098C12.0451 4.40568 11.935 4.50214 11.8345 4.60901C11.7354 4.71483 11.6433 4.82768 11.5591 4.94677L11.3926 5.19128C11.3247 5.2648 11.2526 5.334 11.1767 5.3985C10.9542 5.57876 10.7153 5.73563 10.4634 5.8668C10.4103 5.88737 10.3551 5.90128 10.299 5.90824L10.1404 5.93518C10.0837 5.93921 10.0268 5.93921 9.97004 5.93518C9.94538 5.93551 9.92101 5.92967 9.89894 5.91813C9.87688 5.9066 9.85779 5.8897 9.84324 5.86887C9.80155 5.81379 9.7712 5.7503 9.75408 5.68238C9.72549 5.56603 9.71875 5.44499 9.73426 5.32597C9.74606 5.19725 9.77063 5.07017 9.80757 4.94677H9.82739C9.86482 4.9526 9.90061 4.96673 9.93239 4.98821C9.96676 5.01061 10.0069 5.02146 10.0473 5.0193C10.0612 5.0193 10.0671 5.0338 10.0652 5.03587C10.0632 5.03794 10.0651 5.03587 10.081 5.03587H10.1305C10.2292 5.03072 10.327 5.01333 10.4218 4.98407C10.4928 4.96113 10.5598 4.92613 10.6199 4.88046C10.8664 4.69472 11.0735 4.45768 11.2282 4.18422C11.3604 3.92742 11.4577 3.65265 11.5175 3.3678C11.5154 3.35603 11.5164 3.34391 11.5202 3.33264C11.524 3.32137 11.5306 3.31134 11.5393 3.30356C11.5447 3.23945 11.5447 3.17496 11.5393 3.11085C11.5284 3.05089 11.5062 2.99381 11.4739 2.94301C11.4257 2.82879 11.3409 2.73573 11.2341 2.67985C11.1912 2.64626 11.1407 2.62485 11.0875 2.61769C11.0136 2.58587 10.9327 2.57584 10.8537 2.58867C10.7678 2.59225 10.6823 2.60334 10.5981 2.62183C10.3595 2.70542 10.1358 2.83008 9.93636 2.99067C9.75326 3.14172 9.59062 3.31809 9.45291 3.51492C9.31548 3.71162 9.1992 3.92357 9.10618 4.14692C9.03683 4.31062 8.98531 4.47846 8.93182 4.64631C8.91597 4.67117 8.89813 4.70019 8.88228 4.72091C8.85462 4.78581 8.81863 4.84646 8.77529 4.90118L8.61084 5.12083C8.5514 5.1975 8.48799 5.27003 8.42459 5.34255C8.36119 5.41507 8.30572 5.47517 8.25817 5.52283C8.2081 5.58756 8.1461 5.64111 8.07587 5.68031C8.01157 5.7209 7.94017 5.74767 7.86585 5.75905C7.8409 5.76497 7.81486 5.76345 7.79069 5.75466C7.76652 5.74587 7.74519 5.73016 7.72914 5.70932C7.69744 5.66787 7.70338 5.58706 7.74499 5.46688C7.75553 5.38554 7.77209 5.30517 7.79452 5.22651C7.81434 5.16227 7.83415 5.10218 7.85198 5.0483C7.86981 4.99443 7.88963 4.94055 7.90945 4.89082C7.92926 4.84109 7.95303 4.78721 7.97681 4.72505L8.01643 4.62973L8.04219 4.56135C8.05064 4.53828 8.05791 4.51477 8.06398 4.4909C8.07306 4.45872 8.085 4.4275 8.09965 4.39765C8.15388 4.26554 8.22023 4.13924 8.29778 4.02052C8.37501 3.91068 8.43705 3.79 8.48206 3.66204C8.52961 3.56051 8.5732 3.45483 8.61282 3.34708C8.65404 3.24222 8.66706 3.12757 8.65047 3.01553L8.62868 2.93472C8.61776 2.88453 8.59829 2.83679 8.57121 2.79381C8.54977 2.75832 8.52142 2.72796 8.488 2.70471C8.45439 2.68177 8.41765 2.66431 8.37902 2.65291C8.3394 2.64048 8.29779 2.62597 8.25222 2.60732C8.14982 2.59009 8.04486 2.603 7.94908 2.64462C7.81038 2.69021 7.66771 2.74408 7.51713 2.81039C7.36655 2.8767 7.23182 2.94094 7.11096 3.00518C7.03408 3.05038 6.95393 3.08918 6.87122 3.12121C6.85229 3.12344 6.83323 3.11827 6.81772 3.10671V3.09635C6.84983 2.98942 6.84421 2.87399 6.80187 2.77102C6.75862 2.68896 6.68814 2.6263 6.60373 2.59489C6.49123 2.56047 6.37294 2.55199 6.257 2.57002C6.10952 2.58812 5.96496 2.62643 5.82705 2.68399C5.81414 2.70585 5.79349 2.7215 5.76959 2.72751L5.70619 2.7503C5.65309 2.79422 5.59677 2.83371 5.53777 2.86841C5.48247 2.90337 5.4335 2.94826 5.39313 3.00103C5.37134 3.04454 5.3535 3.07977 5.33963 3.10257C5.32576 3.12536 5.31388 3.14401 5.30595 3.16059C5.29442 3.18084 5.28511 3.20239 5.27821 3.22482C5.26632 3.24969 5.25443 3.28284 5.23858 3.32635C5.2216 3.38753 5.21556 3.45145 5.22076 3.51492C5.22268 3.57496 5.23758 3.63375 5.26434 3.6869C5.28164 3.72876 5.31066 3.76416 5.34757 3.78844C5.38288 3.81676 5.416 3.84793 5.44663 3.88169C5.5221 3.9166 5.60231 3.93897 5.68438 3.948C5.77476 3.97194 5.86942 3.97194 5.95979 3.948C5.95979 3.948 5.97764 3.948 6.00537 3.948C6.02423 3.93748 6.04545 3.93246 6.0668 3.93349C6.0668 3.93349 6.0668 3.94593 6.0668 3.97079C6.0668 3.99566 6.045 4.02467 6.02915 4.05782C6.0133 4.09097 5.99943 4.13449 5.97962 4.18837C5.9673 4.21523 5.9567 4.24291 5.94791 4.27125L5.90432 4.39144L5.86271 4.49711C5.8573 4.51655 5.84857 4.5348 5.83695 4.55099C5.85478 4.56964 5.85677 4.58621 5.83695 4.60072L5.80327 4.64217C5.79867 4.64956 5.79621 4.6582 5.79621 4.66703C5.79621 4.67586 5.79867 4.6845 5.80327 4.69189L5.78148 4.70433C5.74419 4.73702 5.71267 4.77629 5.68835 4.82037C5.66252 4.86702 5.62738 4.90731 5.58532 4.93848C5.55765 4.95573 5.5361 4.98191 5.5239 5.01308C5.50872 5.04693 5.48554 5.07617 5.45654 5.09803C5.42311 5.12787 5.39136 5.1597 5.36144 5.19336C5.32181 5.23894 5.27623 5.2866 5.23066 5.33426L5.09791 5.47516L5.00478 5.57255C4.94732 5.63265 4.88987 5.69688 4.83439 5.76526C4.78317 5.83023 4.72612 5.88991 4.664 5.94347L4.43812 6.12996C4.36481 6.19005 4.28754 6.24808 4.20828 6.30195C4.12903 6.35583 4.0478 6.43664 3.96656 6.50917C3.88532 6.58169 3.79815 6.63349 3.70304 6.69358C3.64721 6.72243 3.59356 6.75568 3.54255 6.79305C3.49698 6.82828 3.44745 6.8635 3.39593 6.89872L3.05712 7.08315C3.03459 7.09254 3.01274 7.10362 2.99174 7.1163H2.97391H2.95013C2.92459 7.1213 2.89943 7.12823 2.87484 7.13703L2.55981 7.22405C2.46648 7.25601 2.36584 7.25601 2.27251 7.22405C2.22603 7.21162 2.18089 7.19426 2.13778 7.17225C2.09755 7.1471 2.05973 7.11796 2.02484 7.08522C1.97355 7.03861 1.93292 6.98054 1.90596 6.9153C1.87822 6.849 1.85048 6.7889 1.82076 6.73088C1.81748 6.69401 1.80948 6.65778 1.79699 6.62313C1.78491 6.58798 1.78018 6.55053 1.78312 6.51331C1.78312 6.44078 1.78312 6.37655 1.76727 6.31853C1.75142 6.26051 1.75736 6.19834 1.7534 6.1341C1.74856 6.06512 1.74856 5.99587 1.7534 5.92689C1.7534 5.85022 1.77321 5.76112 1.79302 5.65959C1.81373 5.53775 1.84152 5.41734 1.87624 5.29903C1.91287 5.17736 1.95859 5.05888 2.01295 4.9447C2.08825 4.75199 2.1675 4.56757 2.25468 4.39144C2.34186 4.21531 2.43498 4.0371 2.53207 3.85682C2.59943 3.73249 2.66482 3.61439 2.7302 3.50456C2.7986 3.39134 2.87546 3.28394 2.96004 3.18338L3.23148 2.81246C3.32436 2.68635 3.42638 2.56789 3.53661 2.45813C3.5772 2.41796 3.61372 2.37352 3.64558 2.32551C3.67731 2.27865 3.7146 2.23617 3.75654 2.19911C3.81127 2.17205 3.86041 2.13403 3.90118 2.08721C3.93867 2.04394 3.98052 2.00504 4.026 1.97117L4.16272 1.86757C4.21203 1.83057 4.26695 1.80255 4.32518 1.78468C4.35288 1.76812 4.3845 1.76012 4.41638 1.76162C4.44825 1.76313 4.47907 1.77407 4.50523 1.79318C4.53138 1.81229 4.55181 1.83877 4.56413 1.86954C4.57646 1.90032 4.58017 1.93413 4.57484 1.96703C4.56723 2.031 4.54984 2.09327 4.52332 2.15145C4.49695 2.20347 4.47825 2.25936 4.46785 2.31722C4.43813 2.41047 4.41237 2.483 4.39057 2.53894C4.36878 2.59489 4.33708 2.66742 4.29349 2.74616C4.27169 2.79174 4.25386 2.8394 4.23603 2.88706C4.21819 2.93472 4.20432 2.98652 4.19045 3.03418C4.17658 3.08184 4.12111 3.15644 4.08743 3.21446C4.05772 3.26917 4.03317 3.32677 4.01412 3.38645L3.91901 3.64547C3.88362 3.72582 3.87457 3.81613 3.89325 3.90241C3.90711 3.92534 3.91716 3.95057 3.92297 3.97701C3.93288 4.01431 3.94873 4.0371 3.97053 4.04331C4.002 4.04769 4.03087 4.0639 4.05176 4.0889C4.07418 4.11633 4.101 4.13948 4.13102 4.15729C4.15097 4.16664 4.17255 4.17158 4.19442 4.17179H4.28358L4.43415 4.15521C4.50152 4.15521 4.55899 4.14278 4.60258 4.13656L4.80071 4.04125C4.83773 4.02477 4.86938 3.99742 4.89185 3.9625C4.91287 3.92664 4.93674 3.89268 4.96318 3.86097C4.98082 3.82984 4.99227 3.7953 4.99686 3.75943C5.00167 3.72302 5.00895 3.68701 5.01865 3.65168C5.03826 3.61967 5.04731 3.58182 5.04441 3.54393C5.03975 3.50464 5.04452 3.46476 5.05828 3.42789C5.06934 3.39602 5.07861 3.3635 5.08603 3.3305C5.09822 3.29127 5.11346 3.25316 5.13159 3.21653C5.14374 3.11908 5.17331 3.02488 5.21877 2.93886C5.21636 2.9356 5.21506 2.93159 5.21506 2.92747C5.21506 2.92335 5.21636 2.91933 5.21877 2.91607L5.28218 2.76273C5.3031 2.71457 5.31775 2.66369 5.32576 2.61146C5.33963 2.58453 5.35746 2.55344 5.37728 2.52236C5.39906 2.48997 5.41207 2.45203 5.41492 2.41254C5.41798 2.34492 5.43206 2.27835 5.45654 2.21569C5.47938 2.15184 5.49662 2.08595 5.50805 2.01883C5.53764 1.93171 5.55758 1.84133 5.56749 1.74946C5.57564 1.656 5.57097 1.5618 5.55362 1.46972C5.53487 1.42929 5.51833 1.38778 5.50409 1.34539C5.49022 1.30187 5.47635 1.26043 5.46644 1.22106C5.46145 1.19112 5.44758 1.16357 5.42681 1.14232C5.39602 1.11669 5.36811 1.08749 5.3436 1.05529C5.31808 1.02123 5.28135 0.998329 5.24056 0.991053C5.19414 0.976749 5.14956 0.956568 5.10782 0.93096C5.06018 0.909724 5.00902 0.898459 4.95723 0.897804L4.80467 0.887446C4.72044 0.876711 4.63529 0.876711 4.55106 0.887446C4.4686 0.891684 4.38685 0.905581 4.30735 0.928885L4.10922 0.980689C4.03655 1.00196 3.96511 1.02756 3.89523 1.05736C3.81994 1.09466 3.74465 1.1361 3.66936 1.18169C3.59407 1.22727 3.51481 1.27701 3.42962 1.33296L3.29885 1.43864L3.16808 1.54431C3.12251 1.57747 3.07892 1.61269 3.03533 1.64999C2.99761 1.68229 2.96369 1.71916 2.93428 1.75982L2.59745 2.10793L2.49244 2.25506C2.45677 2.30686 2.41715 2.35659 2.37752 2.40425C2.33135 2.45228 2.28833 2.50352 2.24873 2.55759C2.21104 2.60776 2.1785 2.66193 2.15164 2.71922L1.80888 3.16059C1.76463 3.22705 1.72427 3.29625 1.68801 3.3678C1.65071 3.44006 1.60833 3.50932 1.56121 3.57501C1.52356 3.63718 1.48988 3.70141 1.4562 3.76565C1.42251 3.82988 1.38883 3.89619 1.35515 3.97286L1.18871 4.32305C1.16803 4.37466 1.14488 4.42514 1.11936 4.47432C1.09226 4.5248 1.06907 4.57745 1.05002 4.6318C1.03446 4.73795 0.996566 4.83916 0.939061 4.92812C0.929647 4.99178 0.916416 5.05476 0.899438 5.11669C0.881606 5.17885 0.867734 5.24516 0.853865 5.3239C0.787401 5.47583 0.749722 5.63979 0.74291 5.80671C0.726919 5.88937 0.716984 5.97319 0.713191 6.05744C0.710975 6.13771 0.701019 6.21755 0.683472 6.29574C0.689989 6.33334 0.693301 6.37148 0.693376 6.4097C0.703494 6.4482 0.708819 6.4879 0.709224 6.52781C0.709224 6.56511 0.709224 6.60034 0.709224 6.63142C0.708615 6.67755 0.713949 6.72355 0.725078 6.76818C0.737037 6.80982 0.742389 6.85321 0.740926 6.89666C0.748641 6.97542 0.76391 7.05317 0.7865 7.12873C0.811861 7.20677 0.843686 7.28234 0.881606 7.3546C0.906038 7.40145 0.934557 7.44585 0.966803 7.48722L1.06983 7.60947C1.10818 7.64085 1.14397 7.6755 1.17683 7.71308C1.21437 7.753 1.25963 7.78408 1.30957 7.80426C1.33691 7.82019 1.36221 7.83969 1.38486 7.86227C1.46453 7.90281 1.5474 7.93608 1.63253 7.96173C1.67412 7.98127 1.71815 7.99452 1.7633 8.0011ZM18.4185 4.56342C18.4185 4.55157 18.421 4.53985 18.4258 4.52911C18.4306 4.51837 18.4375 4.50886 18.4463 4.50126C18.4772 4.45286 18.505 4.40232 18.5295 4.34999C18.5453 4.31684 18.5612 4.28368 18.579 4.2526C18.5968 4.22152 18.6226 4.18008 18.6563 4.12827C18.7107 4.0461 18.7696 3.96723 18.8326 3.89205C18.8644 3.84775 18.9002 3.8068 18.9396 3.7698C18.9733 3.74079 19.0189 3.70349 19.0803 3.6579C19.1095 3.64013 19.1418 3.62884 19.1754 3.62474C19.1865 3.62541 19.1974 3.62852 19.2073 3.63387C19.2172 3.63923 19.2259 3.64671 19.2328 3.65582C19.2468 3.67175 19.257 3.69093 19.2626 3.71178C19.2663 3.72952 19.2663 3.7479 19.2626 3.76565C19.2464 3.79551 19.2369 3.82881 19.2348 3.86304C19.2301 3.90308 19.218 3.94178 19.1992 3.97701C19.1267 4.13042 19.0466 4.27981 18.9594 4.42459C18.8593 4.58567 18.7149 4.71135 18.5453 4.78514H18.5156C18.5064 4.78339 18.497 4.78339 18.4879 4.78514C18.4821 4.78756 18.4757 4.78756 18.47 4.78514C18.4614 4.77691 18.4513 4.77057 18.4403 4.76649L18.4205 4.73541C18.4193 4.72301 18.4193 4.71051 18.4205 4.69811C18.4205 4.68153 18.4205 4.67946 18.4205 4.69811C18.4151 4.69125 18.4113 4.68324 18.4092 4.67464C18.4072 4.66604 18.407 4.65707 18.4086 4.64838C18.4115 4.63473 18.4115 4.62058 18.4086 4.60694C18.4143 4.59315 18.4177 4.57842 18.4185 4.56342ZM11.569 6.76197C11.5853 6.61446 11.6334 6.47276 11.7097 6.34754L11.7533 6.26465L11.781 6.20249L11.8048 6.14033C11.8163 6.10745 11.8316 6.07614 11.8503 6.04708C11.9256 5.90617 12.0088 5.75905 12.1 5.60157C12.1807 5.46161 12.2729 5.32919 12.3754 5.20579C12.4045 5.15477 12.4384 5.10688 12.4764 5.06281C12.5147 5.0238 12.555 4.98713 12.5973 4.95299C12.6112 4.93226 12.6151 4.91983 12.6092 4.92191C12.6033 4.92398 12.6211 4.9219 12.6647 4.90532C12.6795 4.89236 12.6922 4.87697 12.7023 4.85974C12.7162 4.83694 12.7281 4.82451 12.742 4.82244L12.8014 4.78721C12.8193 4.77598 12.8365 4.76352 12.8529 4.74991C12.8757 4.74262 12.8963 4.72902 12.9123 4.71054C12.9341 4.69604 12.9441 4.69397 12.9401 4.71054C12.9361 4.72712 12.9401 4.71054 12.9678 4.71054H12.9777C12.9802 4.71168 12.9829 4.71228 12.9857 4.71228C12.9884 4.71228 12.9911 4.71168 12.9936 4.71054C13.0292 4.69397 13.0629 4.70848 13.0946 4.75406C13.1262 4.79715 13.1553 4.84212 13.1818 4.88875L13.16 5.00272C13.1798 5.01929 13.1739 5.04209 13.1481 5.06903C13.124 5.09269 13.108 5.124 13.1026 5.15813C13.1029 5.17063 13.1006 5.18306 13.0958 5.19453C13.091 5.20599 13.0838 5.2162 13.0748 5.22444C13.0658 5.23363 13.0594 5.24538 13.0566 5.25825C13.0538 5.27112 13.0546 5.28456 13.059 5.29696C13.0537 5.30597 13.0497 5.31574 13.0471 5.32597V5.3612C13.0058 5.52689 12.9389 5.68439 12.8489 5.82743C12.7895 5.95383 12.734 6.0678 12.6845 6.16519C12.6319 6.26719 12.573 6.36548 12.5081 6.45943C12.4735 6.52563 12.4309 6.58692 12.3813 6.64178C12.3322 6.69806 12.2865 6.75759 12.2446 6.81999C12.1466 6.98588 12.0058 7.11947 11.8384 7.2054C11.7315 7.23441 11.6581 7.2054 11.6185 7.12873C11.5651 7.01511 11.5477 6.88662 11.569 6.76197ZM9.93438 4.30026C9.95561 4.25932 9.97097 4.21534 9.97996 4.16972C9.97932 4.15729 9.97932 4.14484 9.97996 4.13242C10.002 4.09647 10.0219 4.05909 10.0394 4.02052C10.0552 3.98737 10.0711 3.95421 10.0889 3.92313C10.1068 3.89205 10.1325 3.85061 10.1662 3.7988C10.2207 3.71663 10.2795 3.63776 10.3425 3.56258C10.3743 3.51828 10.4101 3.47733 10.4495 3.44032C10.4832 3.41131 10.5288 3.37402 10.5902 3.32843C10.6201 3.31111 10.6532 3.30053 10.6873 3.29735C10.6984 3.29801 10.7093 3.30112 10.7192 3.30647C10.7291 3.31183 10.7378 3.31931 10.7448 3.32843C10.7599 3.3435 10.7702 3.36301 10.7745 3.38437C10.7783 3.40211 10.7783 3.42052 10.7745 3.43825C10.7592 3.4685 10.7498 3.50159 10.7467 3.53564C10.742 3.57568 10.7299 3.61438 10.7111 3.64961C10.6393 3.80344 10.5593 3.95287 10.4713 4.09719C10.3706 4.25776 10.2265 4.38329 10.0572 4.45774H10.0275C10.019 4.45563 10.0102 4.45563 10.0017 4.45774C9.99529 4.45982 9.98838 4.45982 9.98193 4.45774C9.96608 4.44531 9.95618 4.4391 9.9542 4.44117C9.95222 4.44324 9.9542 4.44117 9.9542 4.44117L9.93636 4.41009C9.93411 4.39776 9.93411 4.3851 9.93636 4.37278C9.93636 4.35621 9.93636 4.35413 9.93636 4.37278C9.93111 4.36585 9.92733 4.35783 9.92528 4.34926C9.92323 4.34068 9.92296 4.33175 9.92447 4.32305C9.92447 4.32305 9.93042 4.31062 9.93438 4.30026ZM6.07075 3.40924C6.04536 3.41566 6.01887 3.41566 5.99347 3.40924C5.98361 3.40708 5.97445 3.40233 5.96682 3.39545C5.9592 3.38856 5.95337 3.37976 5.94989 3.36987C5.93872 3.33988 5.93872 3.30661 5.94989 3.27662C5.96376 3.22275 5.96772 3.19581 5.96376 3.19581C5.97621 3.17734 5.99013 3.16001 6.00537 3.14401C6.03708 3.08598 6.06481 3.06319 6.09057 3.07148C6.11286 3.08026 6.13619 3.08584 6.15991 3.08806C6.1936 3.08806 6.2035 3.12122 6.19161 3.18752C6.17759 3.25804 6.15838 3.32732 6.13415 3.39474L6.07075 3.40924Z" fill="#334C9F"/>
</svg>
