<svg width="2" height="2" viewBox="0 0 2 2" fill="none" xmlns="http://www.w3.org/2000/svg">
<path d="M1.20744 0.734759C1.19031 0.732945 1.17305 0.732945 1.15592 0.734759C1.13712 0.739583 1.11909 0.747266 1.10242 0.757556C1.08117 0.772954 1.06244 0.791845 1.04695 0.813502C1.02117 0.852202 1.00298 0.895869 0.993451 0.941973C0.986937 0.967729 0.982955 0.994114 0.981563 1.02072C0.978965 1.04689 0.978965 1.07328 0.981563 1.09946C0.987472 1.12725 0.996104 1.15433 1.00732 1.18027C1.02367 1.22014 1.05321 1.25251 1.09053 1.27144C1.11449 1.28387 1.14112 1.28958 1.16781 1.28802C1.18845 1.28651 1.20863 1.28088 1.22725 1.27144C1.25151 1.25962 1.27364 1.2435 1.29264 1.22379C1.31597 1.2004 1.33539 1.17308 1.35009 1.14297L1.36595 1.10982C1.37677 1.06799 1.38013 1.02444 1.37585 0.981344C1.37233 0.937708 1.35569 0.896358 1.3283 0.863231C1.29065 0.819716 1.24508 0.817645 1.22923 0.83215C1.23243 0.798062 1.22477 0.763824 1.20744 0.734759ZM1.19357 0.985493C1.19766 0.970231 1.20365 0.955595 1.21139 0.941973C1.21013 0.924731 1.21013 0.907412 1.21139 0.89017C1.21252 0.884707 1.21252 0.879059 1.21139 0.873595C1.21254 0.890151 1.21254 0.906769 1.21139 0.923325C1.20889 0.94496 1.20287 0.96599 1.19357 0.985493Z" fill="black"/>
</svg>
