<svg width="6" height="10" viewBox="0 0 6 10" fill="none" xmlns="http://www.w3.org/2000/svg">
<path d="M1.9573 8.91272C2.02443 8.86943 2.08011 8.80923 2.11923 8.73762C2.15835 8.66601 2.17968 8.58528 2.18126 8.50282C2.18283 8.42036 2.16461 8.3388 2.12825 8.26561C2.0919 8.19242 2.03857 8.12993 1.97316 8.08386C1.89811 8.02085 1.80578 7.98455 1.70963 7.98026C1.67595 7.69016 1.61453 7.40835 1.56302 7.12861C1.52735 6.9359 1.48376 6.74941 1.45206 6.56084C1.43489 6.46553 1.41904 6.37021 1.40451 6.27489L1.38272 6.11948L1.35696 5.98065C1.40603 5.95942 1.45256 5.93229 1.49564 5.89983C1.56879 5.84093 1.62782 5.76501 1.66803 5.67811C2.08015 5.67811 2.48831 5.62009 2.8925 5.59108C3.00148 5.58072 3.11243 5.57657 3.2214 5.57035C3.33038 5.56414 3.44134 5.57035 3.55031 5.55792L3.88318 5.54756H3.98225H4.02385C4.04118 5.62072 4.06926 5.69062 4.10707 5.75478C4.14409 5.81202 4.19247 5.86026 4.24892 5.89618C4.30538 5.93209 4.36858 5.95485 4.4342 5.96292C4.49983 5.97098 4.56635 5.96415 4.62923 5.94289C4.69211 5.92164 4.74986 5.88646 4.79856 5.83974C4.88832 5.77263 4.95386 5.67586 4.98464 5.56504C5.01541 5.45422 5.00963 5.3358 4.96822 5.22884C4.9268 5.12188 4.85217 5.0326 4.75634 4.9754C4.66051 4.91819 4.54906 4.89638 4.43994 4.91349L3.71872 1.80528C3.7681 1.78559 3.81474 1.75911 3.85742 1.72653C3.92412 1.68289 3.97936 1.62256 4.01817 1.55099C4.05699 1.47942 4.07813 1.39886 4.0797 1.3166C4.08128 1.23433 4.06323 1.15295 4.02718 1.07981C3.99114 1.00667 3.93824 0.944073 3.87326 0.897678C3.81859 0.854952 3.75619 0.8243 3.68983 0.807591C3.62348 0.790882 3.55456 0.788466 3.48728 0.800483C3.42001 0.812501 3.35577 0.83871 3.29848 0.877506C3.2412 0.916301 3.19206 0.966867 3.15404 1.02615C3.09615 1.1158 3.06655 1.22218 3.06939 1.33032C3.07223 1.43846 3.10737 1.54296 3.16989 1.62915C3.21037 1.70629 3.27329 1.76796 3.34952 1.80521C3.42575 1.84247 3.51134 1.85338 3.5939 1.83636L4.31511 4.94458C4.22579 4.98551 4.1485 5.05059 4.09122 5.13314C4.03385 5.21082 4.00314 5.30643 4.00404 5.40459H3.9862H3.91289L3.58003 5.41702C3.46709 5.41702 3.35415 5.41703 3.24121 5.42739L2.90439 5.4481C2.50812 5.47712 2.11185 5.52684 1.71558 5.53721C1.72469 5.44843 1.71114 5.35872 1.67634 5.27719C1.64154 5.19566 1.58672 5.12523 1.51745 5.07305C1.46288 5.03003 1.40047 4.99914 1.33407 4.98227C1.26767 4.96539 1.19867 4.96289 1.13131 4.97492C1.06395 4.98695 0.999663 5.01326 0.942381 5.05223C0.885099 5.0912 0.836041 5.142 0.798218 5.20152C0.740325 5.29117 0.710723 5.39753 0.713566 5.50568C0.716409 5.61382 0.751551 5.71831 0.814066 5.80451C0.855263 5.88445 0.920428 5.94803 0.99954 5.98547C1.07865 6.0229 1.16733 6.03213 1.25194 6.01172C1.25194 6.07389 1.25194 6.11948 1.25194 6.11948L1.27176 6.26038C1.28629 6.35846 1.30214 6.45586 1.31931 6.55256C1.35102 6.74734 1.39461 6.94419 1.43225 7.13276C1.48377 7.42078 1.54717 7.70467 1.57887 7.98855C1.44826 8.01704 1.33285 8.09628 1.25591 8.21027C1.19802 8.29993 1.16841 8.40629 1.17126 8.51443C1.1741 8.62257 1.20924 8.72707 1.27176 8.81326C1.43027 9.09922 1.73539 9.08056 1.9573 8.91272Z" fill="#B52025"/>
</svg>
