<svg width="10" height="7" viewBox="0 0 10 7" fill="none" xmlns="http://www.w3.org/2000/svg">
<path d="M3.16274 0.649536C2.91904 0.172944 2.53465 0.162581 2.07102 0.21024C1.87288 0.230961 1.66088 0.14186 1.47661 0.266189C1.32303 0.399242 1.20894 0.575359 1.14772 0.773863C1.0548 0.937383 0.9778 1.11024 0.917873 1.28983C0.864377 1.51776 0.977314 1.68975 1.06647 1.89489C1.22102 2.24301 1.37953 2.58699 1.542 2.93096C1.53965 2.94302 1.54131 2.95556 1.54672 2.9665C1.55213 2.97743 1.56094 2.9861 1.57172 2.99106C1.63512 3.12575 1.69654 3.25836 1.76985 3.39098C2.0446 3.96289 2.32265 4.53203 2.604 5.09842C2.74468 5.38852 2.88734 5.67862 3.02603 5.9708C3.10925 6.14278 3.20633 6.38522 3.40843 6.42666C3.62956 6.47121 3.85833 6.44671 4.06624 6.35621C4.34759 6.20495 4.47638 5.79881 4.59724 5.52736C4.60114 5.51859 4.60316 5.50904 4.60316 5.49938C4.60316 5.48971 4.60114 5.48017 4.59724 5.47141C4.60744 5.47048 4.61727 5.46698 4.6259 5.4612C4.63452 5.45543 4.64169 5.44755 4.64677 5.43825C4.94794 4.85391 5.22929 4.25091 5.49479 3.64171C5.80983 4.30479 6.18232 4.94508 6.54887 5.58537C6.5515 5.59472 6.55625 5.60325 6.56273 5.61024C6.64991 5.75943 6.73512 5.9107 6.82032 6.0599C6.8205 6.07077 6.82332 6.08142 6.82852 6.09085C6.83371 6.10027 6.84112 6.10816 6.85003 6.11377C6.84949 6.11966 6.8501 6.12559 6.85182 6.13122C6.85354 6.13685 6.85635 6.14205 6.86005 6.14651C6.86376 6.15097 6.86829 6.15459 6.87338 6.15716C6.87847 6.15972 6.88401 6.16118 6.88966 6.16143C7.14688 6.19113 7.4056 6.20428 7.66436 6.2008H7.6822C7.69232 6.20167 7.70248 6.19962 7.71156 6.19487C7.72064 6.19012 7.72831 6.18285 7.73371 6.17386C7.82402 6.04053 7.90736 5.90218 7.98337 5.75943C8.05414 5.64907 8.11704 5.53341 8.17158 5.41339C8.18122 5.40971 8.18987 5.40364 8.19677 5.3957C8.20368 5.38776 8.20863 5.37819 8.21121 5.3678C8.7442 3.71009 9.22369 2.01715 9.75469 0.351147C9.75803 0.337607 9.75835 0.323443 9.75562 0.309752C9.7529 0.296062 9.74719 0.28321 9.73896 0.272193C9.73072 0.261176 9.72017 0.252287 9.70812 0.246215C9.69607 0.240144 9.68287 0.237052 9.66949 0.237179C9.2019 0.195736 8.7343 0.160509 8.2667 0.15222C8.24954 0.144962 8.23035 0.144962 8.2132 0.15222H8.17753C8.16194 0.153275 8.14732 0.160506 8.13665 0.17244C8.12597 0.184375 8.12005 0.200117 8.12008 0.216459C7.89704 0.441828 7.70858 0.701828 7.56134 0.987293C7.45402 1.26185 7.3666 1.54446 7.2998 1.83273L7.22649 2.03787C7.02836 1.41623 6.83022 0.794585 6.63209 0.172943C6.62694 0.153963 6.61605 0.137241 6.60104 0.125285C6.58604 0.113329 6.56774 0.106782 6.54887 0.106633C6.10703 0.106633 5.66519 0.0859131 5.22335 0.0693359C5.20389 0.0702815 5.18519 0.0775874 5.16991 0.0902262C5.15463 0.102865 5.14351 0.120199 5.13814 0.139788C5.13814 0.172942 5.12427 0.206099 5.11635 0.239253C5.01332 0.355293 4.91822 0.481692 4.82113 0.599804C4.58171 0.871423 4.39827 1.19164 4.28221 1.54056C4.22673 1.71462 4.18512 1.89075 4.14153 2.06895C4.12172 2.15184 3.99887 2.4668 4.02661 2.53104C3.95528 2.37563 3.88395 2.22229 3.8146 2.06688C3.59665 1.60687 3.40051 1.1137 3.16274 0.649536ZM1.06054 1.3665C1.0997 1.16982 1.17434 0.982756 1.28046 0.815308C1.32802 0.722062 1.38151 0.626742 1.42708 0.529352C1.45086 0.59566 1.48058 0.661969 1.50634 0.736566C1.50091 0.731908 1.49459 0.728512 1.48781 0.726603C1.48103 0.724693 1.47393 0.724314 1.467 0.72549C1.46007 0.726665 1.45345 0.72937 1.44759 0.733423C1.44173 0.737476 1.43678 0.742784 1.43303 0.748998L1.06054 1.3665ZM1.10214 1.65245C1.09015 1.61861 1.08023 1.584 1.07242 1.54884C1.22301 1.29604 1.37358 1.04324 1.52218 0.79044C1.52352 0.785004 1.52352 0.779299 1.52218 0.773863C1.54001 0.815305 1.55587 0.856748 1.5737 0.900263L1.10214 1.65245ZM1.1497 1.76849L1.62522 1.01631L1.6906 1.17586C1.68507 1.17875 1.68031 1.18302 1.67673 1.18829L1.18932 1.8493C1.17545 1.83066 1.16159 1.79543 1.1497 1.76849ZM1.25074 1.97571L1.23885 1.95291C1.40528 1.72912 1.57172 1.50533 1.73617 1.27947C1.76193 1.33749 1.78571 1.39343 1.81146 1.44938C1.80434 1.44831 1.79708 1.44929 1.79045 1.45221C1.78381 1.45513 1.77806 1.45988 1.77382 1.46596L1.30226 2.0876C1.28442 2.03787 1.26857 2.00886 1.24282 1.97363L1.25074 1.97571ZM1.35179 2.18292L1.84514 1.53641C1.86694 1.58822 1.88874 1.64002 1.91251 1.68975C1.74806 1.89697 1.58163 2.11869 1.41718 2.33212L1.35179 2.18292ZM1.47068 2.42951L1.96403 1.78921C1.98979 1.84309 2.01357 1.89904 2.03932 1.95291L1.52813 2.55176C1.50832 2.51239 1.48851 2.47302 1.47068 2.43158V2.42951ZM1.64504 2.80042C1.62324 2.75276 1.59946 2.70303 1.57767 2.6533L2.08687 2.05652L2.17009 2.23887C1.99177 2.43158 1.81939 2.61807 1.63909 2.80249L1.64504 2.80042ZM1.69259 2.90196L2.21565 2.3404L2.32661 2.58284C2.31865 2.58038 2.3102 2.58024 2.30217 2.58243C2.29414 2.58462 2.28683 2.58906 2.28104 2.59528L1.7758 3.08223L1.69259 2.90196ZM1.82137 3.17962L2.35237 2.6678C2.35321 2.6644 2.35321 2.66084 2.35237 2.65744L2.43163 2.83357C2.42259 2.82527 2.41097 2.82068 2.39894 2.82068C2.38691 2.82068 2.37528 2.82527 2.36624 2.83357L1.87685 3.31845C1.86496 3.28115 1.83722 3.22935 1.82137 3.18169V3.17962ZM1.93232 3.41999L2.4455 2.91024C2.4497 2.90631 2.4531 2.90153 2.45549 2.89619C2.45787 2.89085 2.45919 2.88505 2.45937 2.87916L2.53861 3.05529L2.51484 3.06772L2.00366 3.5754L1.93232 3.41999ZM2.04923 3.67486L2.58023 3.15061C2.59608 3.18791 2.61193 3.22521 2.62976 3.26251C2.45738 3.44693 2.28501 3.63135 2.11461 3.81784L2.04923 3.67486ZM2.16018 3.91937L2.67533 3.36611C2.6991 3.41792 2.72289 3.47179 2.74468 3.52567C2.5723 3.70387 2.39795 3.88 2.22359 4.05613L2.16018 3.91937ZM2.27114 4.15767L2.79025 3.62721L2.84969 3.76396C2.83955 3.76626 2.83046 3.77211 2.82393 3.78054L2.34841 4.32552L2.27114 4.15767ZM2.39596 4.42912L2.8913 3.85928L2.96659 4.02713H2.95669L2.45738 4.55552L2.39596 4.42912ZM2.50295 4.6612L3.01018 4.12659L3.07556 4.27371C3.06488 4.27463 3.05494 4.27982 3.04782 4.28821L2.56042 4.78346C2.5406 4.74616 2.52276 4.70472 2.50295 4.66328V4.6612ZM2.60797 4.88292L3.11519 4.36489C3.14888 4.44156 3.18255 4.51822 3.21821 4.59489C3.20862 4.58527 3.19585 4.57989 3.18255 4.57989C3.16926 4.57989 3.15648 4.58527 3.14689 4.59489L2.68128 5.04247C2.6575 4.99067 2.62976 4.93887 2.60797 4.88499V4.88292ZM2.72883 5.13987L3.2202 4.66949C3.2247 4.66493 3.22826 4.65945 3.23065 4.65339C3.23303 4.64732 3.2342 4.64082 3.23407 4.63426L3.31728 4.8249C3.30952 4.81996 3.30062 4.81735 3.29154 4.81735C3.28245 4.81735 3.27354 4.81996 3.26578 4.8249L2.79223 5.2642L2.72883 5.13987ZM2.8378 5.36987L3.33909 4.90779V4.89328C3.35692 4.9368 3.37673 4.97824 3.39456 5.02175L2.9012 5.50456L2.8378 5.36987ZM2.95272 5.6061L3.45004 5.12122L3.49759 5.23104C3.49005 5.2294 3.48223 5.22987 3.47492 5.23242C3.46761 5.23497 3.46107 5.2395 3.45598 5.24555L3.02603 5.73457C2.99631 5.69105 2.97452 5.64961 2.95272 5.60817V5.6061ZM3.06566 5.83196L3.52732 5.32014L3.57685 5.43411L3.13897 5.97494L3.06566 5.83196ZM3.43419 5.85061C3.3688 5.95836 3.29946 6.05782 3.23605 6.17594L3.18255 6.07233C3.18748 6.07171 3.1922 6.06988 3.19633 6.067C3.20046 6.06412 3.20388 6.06027 3.20633 6.05575L3.63034 5.52736C3.55937 5.632 3.49389 5.7406 3.43419 5.85268V5.85061ZM3.46391 6.26504L3.34899 6.24225C3.41438 6.14693 3.4758 6.04954 3.54713 5.95215C3.63403 5.82842 3.71217 5.69822 3.78092 5.56258H3.97906L3.46391 6.26504ZM4.09398 6.15936C4.03291 6.21709 3.95845 6.2571 3.87801 6.2754C4.02265 6.06819 4.1653 5.86097 4.30796 5.65376C4.3456 5.59781 4.25843 5.54601 4.22079 5.59988L3.76705 6.26711C3.76275 6.27842 3.76275 6.29102 3.76705 6.30233C3.70639 6.30749 3.64543 6.30749 3.58477 6.30233L4.07219 5.61439C4.07374 5.60618 4.07374 5.59773 4.07219 5.58952C4.19083 5.59355 4.30957 5.58592 4.42684 5.56673C4.35076 5.78292 4.238 5.98298 4.09398 6.15729V6.15936ZM5.79992 2.96204L5.64537 3.23971C5.69688 3.1216 5.74642 3.00349 5.79595 2.88538C5.79595 2.90402 5.81378 2.92268 5.82171 2.93925C5.81213 2.94397 5.80443 2.95203 5.79992 2.96204ZM5.61962 3.64792L5.57602 3.57747L5.87124 3.04079L5.93465 3.16719L5.61962 3.64792ZM5.7484 3.85514C5.7266 3.81576 5.70283 3.77847 5.67906 3.7391L5.99805 3.28115L6.07928 3.44486C6.06882 3.4418 6.05773 3.44215 6.04746 3.44585C6.0372 3.44956 6.02826 3.45644 6.02183 3.46558L5.7484 3.85514ZM5.79992 3.93595C5.8063 3.93504 5.81242 3.93272 5.81789 3.92915C5.82335 3.92558 5.82803 3.92083 5.83161 3.91523L6.10109 3.5008C6.12486 3.54846 6.14863 3.59405 6.17043 3.64171C6.1636 3.64521 6.15753 3.65015 6.1526 3.65621L5.85935 4.03956C5.8435 4.01055 5.82171 3.97739 5.79992 3.94217V3.93595ZM5.99805 4.2675C5.97229 4.22398 5.94852 4.17839 5.92276 4.1328L6.22788 3.73495C6.25562 3.7909 6.28337 3.84478 6.30912 3.90072C6.29814 3.89483 6.28549 3.89327 6.27349 3.89631C6.26149 3.89935 6.25093 3.9068 6.24374 3.9173C6.15854 4.04163 6.07532 4.15767 5.99805 4.27371V4.2675ZM6.05353 4.36695L6.33092 3.96911C6.33228 3.96508 6.33228 3.9607 6.33092 3.95667C6.35469 4.00226 6.37848 4.04785 6.40027 4.09344C6.38941 4.09528 6.37956 4.10117 6.37253 4.11001L6.09315 4.44777C6.08126 4.42705 6.06542 4.40011 6.04957 4.37317L6.05353 4.36695ZM6.1526 4.54516L6.4498 4.18461L6.50329 4.29029L6.21204 4.65913C6.19619 4.6239 6.17043 4.5866 6.14864 4.55138L6.1526 4.54516ZM6.35074 4.90779L6.61821 4.57832C6.65982 4.52651 6.5885 4.45191 6.54491 4.50372L6.29724 4.8104C6.28786 4.79037 6.27726 4.77099 6.26553 4.75238L6.55679 4.3856C6.61227 4.49543 6.66973 4.60525 6.72719 4.71301C6.71857 4.70927 6.70901 4.70866 6.70003 4.71129C6.69104 4.71392 6.68316 4.71964 6.67765 4.72751L6.42008 5.03833C6.39432 5.00103 6.37055 4.95752 6.34875 4.914L6.35074 4.90779ZM6.4716 5.13572L6.75096 4.80003C6.75699 4.79408 6.76054 4.7859 6.76087 4.77724C6.78266 4.81868 6.80644 4.85805 6.82824 4.89742L6.51716 5.22068C6.50131 5.19788 6.48546 5.16888 6.46961 5.14608L6.4716 5.13572ZM6.56868 5.316L6.88174 4.99067L6.95306 5.11707L6.63407 5.43825L6.56868 5.316ZM6.68557 5.52321L7.00656 5.19996C7.02638 5.23519 7.0442 5.27041 7.06402 5.30357L6.75493 5.65376C6.73115 5.62682 6.70738 5.5833 6.6836 5.53979L6.68557 5.52321ZM6.88371 5.88998C6.85795 5.84439 6.83418 5.79674 6.8104 5.75115L7.12147 5.39888C7.12469 5.40623 7.12868 5.41318 7.13336 5.41961C7.13689 5.42604 7.1416 5.43167 7.14723 5.43618C7.14561 5.44368 7.14561 5.45147 7.14723 5.45898C7.05411 5.61232 6.96495 5.76773 6.87975 5.90656L6.88371 5.88998ZM7.3949 5.48592L7.06005 6.00809H6.95505C7.08258 5.84092 7.20035 5.66585 7.30772 5.48384H7.40283C7.40283 5.48384 7.38499 5.49835 7.38499 5.50249L7.3949 5.48592ZM7.18686 6.0226L7.49001 5.55429C7.49356 5.54927 7.49603 5.5435 7.49726 5.53738C7.49848 5.53127 7.49844 5.52495 7.49712 5.51886C7.49581 5.51276 7.49325 5.50704 7.48963 5.50207C7.486 5.4971 7.48141 5.493 7.47614 5.49006L7.70597 5.45898H7.75749L7.37509 6.03503L7.18686 6.0226ZM7.86249 5.68069C7.79513 5.7988 7.72776 5.91899 7.66436 6.04332H7.49992C7.62474 5.8589 7.74758 5.67448 7.87043 5.48798C7.87355 5.48194 7.87518 5.47517 7.87518 5.4683C7.87518 5.46143 7.87355 5.45466 7.87043 5.44861C7.91865 5.44296 7.96635 5.43326 8.01308 5.41961C7.94769 5.4942 7.90212 5.58952 7.85259 5.68069H7.86249ZM7.49793 2.5041L7.39292 2.57663C7.38103 2.53726 7.37112 2.49789 7.35924 2.45851L7.62474 2.26581C7.60691 2.35491 7.58709 2.44401 7.56926 2.53311C7.56822 2.52379 7.56468 2.51495 7.55904 2.50764C7.5534 2.50033 7.54589 2.49484 7.53739 2.4918C7.52889 2.48877 7.51974 2.48831 7.51101 2.49049C7.50227 2.49266 7.49431 2.49739 7.48803 2.5041H7.49793ZM7.54945 2.59528C7.52766 2.7051 7.50387 2.81492 7.48208 2.92475C7.46028 2.846 7.43651 2.76726 7.41472 2.69059L7.54945 2.59528ZM7.62276 2.13734L7.32951 2.34455C7.32951 2.3259 7.32952 2.30725 7.31367 2.29067C7.31455 2.28102 7.31455 2.27131 7.31367 2.26166L7.67625 1.98399L7.64653 2.12075C7.63404 2.12286 7.62237 2.12861 7.61285 2.13734H7.62276ZM7.37509 2.10003C7.37509 2.06895 7.39292 2.03994 7.40085 2.00886H7.41472L7.7456 1.71254C7.7456 1.75606 7.72579 1.79958 7.71786 1.84516C7.59304 1.9239 7.47812 2.01093 7.36519 2.10003H7.37509ZM7.4484 1.83273C7.45831 1.79336 7.47019 1.75399 7.48208 1.71462L7.81099 1.43073L7.78721 1.52812L7.4484 1.83273ZM7.76938 1.3292L7.5336 1.53641C7.55539 1.46182 7.58115 1.38515 7.60492 1.31055L7.90212 1.06811C7.87835 1.15514 7.85656 1.24424 7.83476 1.33334C7.83022 1.32767 7.82461 1.32304 7.81828 1.31973C7.81195 1.31643 7.80504 1.31452 7.79798 1.31414C7.79091 1.31375 7.78385 1.31488 7.77723 1.31747C7.7706 1.32007 7.76456 1.32406 7.75947 1.3292H7.76938ZM8.03092 0.599804C8.0012 0.695122 7.97543 0.794586 7.94967 0.891976L7.67428 1.11577C7.77112 0.93081 7.88742 0.757747 8.02101 0.599804H8.03092ZM4.97171 0.655752L5.06286 0.552145C5.04107 0.655752 5.0153 0.759358 4.99351 0.865037C4.98905 0.859391 4.98345 0.854846 4.97711 0.851726C4.97077 0.848606 4.96386 0.846986 4.95685 0.846986C4.94985 0.846986 4.94293 0.848606 4.9366 0.851726C4.93026 0.854846 4.92466 0.859391 4.9202 0.865037L4.6012 1.2546C4.696 1.03944 4.81723 0.838126 4.96181 0.655752H4.97171ZM4.45854 1.58407L4.97171 0.962428C4.95388 1.04531 4.93604 1.1282 4.91623 1.21108C4.91196 1.20618 4.90676 1.20227 4.90096 1.19959C4.89516 1.19691 4.88889 1.19553 4.88255 1.19553C4.87621 1.19553 4.86995 1.19691 4.86415 1.19959C4.85835 1.20227 4.85314 1.20618 4.84887 1.21108L4.40901 1.72291C4.41297 1.67525 4.4308 1.62344 4.44864 1.58407H4.45854ZM4.35552 3.047L4.27824 3.11124C4.27824 3.08844 4.26041 3.06358 4.2505 3.04079L4.44864 2.83357C4.49619 2.78798 4.42486 2.71339 4.37731 2.76105L4.20295 2.92889C4.19106 2.90402 4.17918 2.87709 4.16927 2.85222L4.52988 2.55176C4.57941 2.51032 4.50807 2.43572 4.45656 2.47924L4.12568 2.75276C4.12188 2.74202 4.11724 2.73162 4.1118 2.72167C4.1118 2.68852 4.13162 2.65537 4.13955 2.62222L4.65668 2.17256C4.57544 2.46473 4.49223 2.75483 4.40307 3.04493C4.3943 3.03952 4.38422 3.03684 4.37405 3.03721C4.36387 3.03757 4.354 3.04097 4.3456 3.047H4.35552ZM4.37731 3.16304C4.36542 3.20241 4.35552 3.24178 4.34363 3.27908C4.34363 3.25836 4.3258 3.23557 4.31787 3.21278L4.37731 3.16304ZM4.64677 2.05238L4.1871 2.4523C4.20295 2.39428 4.21881 2.33833 4.23268 2.28238C4.24022 2.28402 4.24804 2.28355 4.25535 2.281C4.26266 2.27845 4.26919 2.27392 4.27428 2.26787L4.76763 1.77056C4.74385 1.86381 4.7181 1.95913 4.69234 2.05238C4.68415 2.04659 4.6745 2.04349 4.66461 2.04349C4.65472 2.04349 4.64506 2.04659 4.63687 2.05238H4.64677ZM4.75574 1.63795C4.59922 1.79336 4.44468 1.95084 4.29013 2.10832C4.30598 2.0503 4.32381 1.99228 4.33966 1.93426C4.34679 1.93534 4.35405 1.93436 4.36068 1.93144C4.36731 1.92852 4.37307 1.92377 4.37731 1.91769L4.8885 1.32091L4.80924 1.62344C4.80418 1.62 4.79852 1.61764 4.79258 1.6165C4.78664 1.61537 4.78054 1.61547 4.77464 1.61682C4.76874 1.61817 4.76315 1.62073 4.75821 1.62436C4.75327 1.62799 4.74906 1.63261 4.74584 1.63795H4.75574ZM4.29805 3.48215C4.30459 3.49246 4.31401 3.5004 4.32503 3.50489C4.33605 3.50939 4.34813 3.51022 4.35962 3.50728C4.3711 3.50433 4.38143 3.49775 4.38921 3.48843C4.39699 3.47911 4.40183 3.46751 4.40307 3.45521C4.61675 2.93288 4.79938 2.39725 4.94992 1.85138C5.02918 1.5675 5.09853 1.28154 5.16193 0.995583C5.19561 0.844317 5.21542 0.672328 5.25901 0.525206C5.33232 0.284838 5.31646 0.307631 5.56017 0.284837C5.77019 0.266188 6.28336 0.224748 6.45376 0.355292C6.62416 0.485837 6.71133 0.997656 6.78464 1.22559C6.90154 1.59236 7.01646 1.95913 7.13534 2.3259C7.19101 2.57168 7.26795 2.81166 7.36519 3.04286C7.44246 3.18377 7.49595 3.25007 7.57521 3.08016C7.6434 2.89401 7.69836 2.70285 7.73965 2.50824C7.79315 2.32797 8.33406 0.286912 8.28849 0.280695C8.70457 0.336643 9.12462 0.373941 9.54467 0.402951C9.07311 2.02544 8.55399 3.63135 8.08639 5.25176C7.94919 5.24108 7.81125 5.25439 7.67823 5.29113C7.55935 5.31186 7.43849 5.32843 7.32159 5.35951C7.31144 5.35111 7.29887 5.34654 7.28593 5.34654C7.27298 5.34654 7.26042 5.35111 7.25027 5.35951C6.83418 4.47885 6.33092 3.63342 5.86332 2.78798C5.85948 2.7811 5.85399 2.7754 5.84738 2.77144C5.84078 2.76747 5.83329 2.76538 5.82568 2.76538C5.81806 2.76538 5.81057 2.76747 5.80397 2.77144C5.79736 2.7754 5.79187 2.7811 5.78803 2.78798C5.77642 2.78294 5.7634 2.7827 5.75163 2.78732C5.73985 2.79194 5.7302 2.80106 5.72462 2.81285C5.29665 3.64171 4.88453 4.50372 4.53582 5.36987C4.53421 5.37877 4.53421 5.38791 4.53582 5.39681C4.53582 5.34708 3.97311 5.43826 3.92952 5.43411C3.79083 5.41546 3.70366 5.2787 3.62638 5.15437C3.47418 4.85547 3.34178 4.54599 3.23011 4.22812L2.63571 2.87294C2.45739 2.46888 2.29095 2.06274 2.11857 1.6566C2.03139 1.44938 1.94223 1.24217 1.85109 1.05153C1.79561 0.931348 1.62324 0.713771 1.63909 0.57701C1.66881 0.369796 1.90261 0.405021 2.05319 0.388444C2.32266 0.359434 2.61392 0.25583 2.84573 0.475477C2.98027 0.633157 3.08393 0.816901 3.15086 1.01631C3.5075 1.83066 3.83046 2.71132 4.28815 3.48837L4.29805 3.48215Z" fill="#EF5023"/>
</svg>
