<svg width="12" height="12" viewBox="0 0 12 12" fill="none" xmlns="http://www.w3.org/2000/svg">
<path d="M3.06951 10.5275C3.07193 10.5536 3.07725 10.5793 3.08536 10.6042C3.09323 10.6324 3.10674 10.6585 3.12499 10.6808C3.15954 10.7197 3.20135 10.7507 3.24784 10.772C3.32709 10.8114 3.40238 10.859 3.48163 10.9046C3.63618 10.9979 3.79072 11.0911 3.94923 11.1761L4.07009 11.2403L4.12359 11.2652H4.13746C4.13746 11.2652 4.13746 11.2652 4.14935 11.2652L4.17114 11.2403L4.22266 11.1802C4.2821 11.1118 4.3455 11.0435 4.40494 10.973C4.43466 10.9378 4.46043 10.9005 4.49015 10.8632C4.51953 10.822 4.54665 10.7791 4.57138 10.7347C4.59308 10.6947 4.61689 10.6559 4.6427 10.6187V10.6021C4.65261 10.5897 4.66054 10.5772 4.67044 10.5669C4.6884 10.5448 4.70905 10.5253 4.73186 10.5088C4.73263 10.5013 4.73263 10.4936 4.73186 10.486C4.75681 10.5079 4.78582 10.5242 4.81706 10.5337C4.86263 10.5544 4.92009 10.571 4.96368 10.5855L5.04294 10.6083H5.07662H5.11625H5.12813C5.15109 10.6123 5.17365 10.6186 5.1955 10.627C5.23934 10.6385 5.28002 10.6605 5.31438 10.6912C5.38101 10.7752 5.42906 10.8735 5.45506 10.9792C5.49271 11.0932 5.52044 11.2134 5.56205 11.3418L5.59573 11.4372C5.60692 11.4755 5.62584 11.5108 5.65121 11.5408C5.66913 11.5568 5.69005 11.5688 5.71263 11.576L5.76613 11.5884L5.86916 11.5988C5.93515 11.6026 6.0013 11.6026 6.06729 11.5988H6.26543C6.41154 11.5961 6.55699 11.5774 6.69934 11.5428L6.75482 11.5263H6.79049C6.80634 11.5263 6.8321 11.5263 6.82813 11.4931L6.84794 11.3584C6.85785 11.2838 6.86973 11.2051 6.88162 11.1284C6.89351 11.0518 6.9054 10.9771 6.91333 10.8922C6.91333 10.8404 6.91333 10.7886 6.92918 10.7409L7.03221 10.5855L7.10156 10.5544L7.31357 10.457C7.38119 10.4264 7.45154 10.4028 7.52359 10.3866C7.55627 10.385 7.58889 10.3911 7.61905 10.4043C7.64922 10.4176 7.67617 10.4377 7.69795 10.4633C7.81088 10.5627 7.89608 10.6974 8.01893 10.8114L8.10214 10.8963C8.13205 10.9287 8.16605 10.9565 8.20319 10.9792C8.22553 10.9926 8.25077 10.9997 8.2765 10.9999C8.30068 11.0011 8.32485 10.9976 8.34782 10.9896C8.38699 10.9753 8.4248 10.9573 8.46076 10.9357C8.53407 10.8984 8.59549 10.8528 8.6589 10.8134C8.7223 10.7741 8.78967 10.7306 8.85703 10.685C8.92027 10.6401 8.98112 10.5917 9.03931 10.5399C9.10433 10.4881 9.15719 10.4215 9.19386 10.3451C9.21191 10.3022 9.21741 10.2546 9.20971 10.2084C9.20288 10.1666 9.19019 10.1261 9.17206 10.0882C9.14036 10.0177 9.10668 9.95558 9.07894 9.88099C9.0512 9.80639 9.0195 9.7463 8.99176 9.67377C8.96326 9.61602 8.94768 9.55225 8.94619 9.48728C8.94619 9.36916 9.04724 9.28007 9.14433 9.18475C9.19235 9.139 9.23799 9.09057 9.28104 9.0397L9.31076 9.00033C9.31076 8.98375 9.33057 8.96717 9.3385 8.9506C9.36281 8.96949 9.38948 8.98482 9.41776 8.99618C9.50494 9.03969 9.63372 9.0915 9.63372 9.0915L9.71298 9.11637H9.73675C9.76251 9.11637 9.78629 9.13088 9.81204 9.13502C9.8378 9.13916 9.91308 9.15781 9.9646 9.1661C10.0186 9.17236 10.0731 9.17236 10.1271 9.1661C10.1553 9.16287 10.1832 9.15663 10.2103 9.14745C10.2398 9.13651 10.2672 9.12038 10.2915 9.09979C10.3311 9.05899 10.3645 9.01219 10.3906 8.96096C10.4155 8.91246 10.438 8.86265 10.458 8.81175C10.4798 8.7641 10.4956 8.7123 10.5174 8.66879L10.5867 8.52787C10.6355 8.43308 10.6791 8.33554 10.7175 8.23571C10.7274 8.21084 10.7354 8.1839 10.7433 8.15696C10.7486 8.12404 10.7486 8.09043 10.7433 8.05751C10.7281 7.99688 10.6965 7.94217 10.6521 7.90002C10.5773 7.82395 10.4964 7.75463 10.4104 7.69281L10.2876 7.60163C10.249 7.57361 10.2132 7.54168 10.1806 7.50631C10.1519 7.47287 10.1321 7.43214 10.1231 7.3882C10.1154 7.34157 10.1154 7.29392 10.1231 7.24729C10.1231 7.19963 10.1469 7.14991 10.1608 7.0981C10.1723 7.04884 10.1869 7.00039 10.2043 6.95305C10.2181 6.91247 10.2456 6.87856 10.2816 6.85773C10.3212 6.83701 10.3708 6.81836 10.4164 6.79971L10.6997 6.68575C10.7948 6.64638 10.8978 6.60285 10.981 6.55934L11.0623 6.51791H11.0781V6.42466C11.0781 6.37078 11.0781 6.31897 11.0781 6.2651C11.0781 6.15735 11.0781 6.05789 11.0643 5.94392C11.0504 5.82995 11.0643 5.7367 11.0643 5.62895C11.0635 5.5741 11.0588 5.51939 11.0504 5.46525C11.043 5.404 11.0212 5.34562 10.987 5.29534C10.9658 5.27155 10.9401 5.25251 10.9117 5.23939L10.8344 5.20831C10.7849 5.19173 10.7334 5.1793 10.6838 5.16687L10.5333 5.13785C10.4817 5.13785 10.4382 5.11713 10.3847 5.10884L10.2341 5.08398C10.1934 5.08237 10.1547 5.06544 10.1251 5.03632C10.0977 4.99795 10.0763 4.95529 10.0617 4.90992L10.0062 4.76487C9.9765 4.6896 9.95843 4.60986 9.95271 4.52864L10.2479 4.08107L10.3113 4.01476C10.3484 3.97586 10.3828 3.93431 10.4144 3.89042C10.4324 3.86891 10.449 3.84607 10.4639 3.82205C10.4818 3.79349 10.4927 3.76075 10.4956 3.72673C10.4983 3.69202 10.4906 3.6573 10.4738 3.62727C10.462 3.60121 10.4481 3.57625 10.4322 3.55267C10.4025 3.50709 10.3708 3.4677 10.343 3.42419C10.2341 3.2522 10.1449 3.06364 10.024 2.88544C9.98593 2.82424 9.94354 2.76607 9.89724 2.71138L9.8794 2.69065L9.84771 2.65336C9.82591 2.6057 9.7942 2.65336 9.76646 2.66994C9.73872 2.68652 9.70901 2.70309 9.67731 2.71967C9.55843 2.7839 9.4336 2.84399 9.31076 2.90615L9.11262 3.00355L9.01554 3.05535C9.01402 3.06217 9.01402 3.06925 9.01554 3.07607C9.00432 3.05973 8.99172 3.04447 8.97789 3.03049C8.94206 2.9905 8.90367 2.95312 8.86297 2.9186L8.79958 2.86679L8.75201 2.83156H8.74013L8.71437 2.81084L8.6688 2.77147C8.61147 2.72719 8.57192 2.66219 8.55785 2.58912C8.5534 2.5118 8.56629 2.43445 8.59549 2.36325C8.62125 2.28451 8.65295 2.20785 8.68466 2.12704C8.71891 2.04454 8.74159 1.9573 8.75201 1.86802C8.75689 1.81759 8.74838 1.76672 8.72741 1.72102C8.70643 1.67532 8.67381 1.63657 8.63314 1.609C8.56056 1.56324 8.48351 1.52572 8.40331 1.4971C8.25951 1.42439 8.12109 1.34059 7.9892 1.24638C7.95276 1.22266 7.91429 1.20254 7.87428 1.18628L7.81087 1.16556C7.78648 1.1635 7.76196 1.1635 7.73757 1.16556C7.64576 1.17779 7.56095 1.22324 7.49783 1.29403C7.386 1.42164 7.28645 1.56046 7.20063 1.70846C7.17685 1.74369 7.15505 1.77684 7.12929 1.80792C7.12446 1.8164 7.11846 1.82409 7.11146 1.83072H7.07382L6.83209 1.7872L6.71123 1.76855C6.66934 1.76021 6.62698 1.75468 6.58442 1.75198C6.53687 1.75198 6.5012 1.75198 6.48535 1.75198C6.47209 1.7461 6.46099 1.73593 6.45366 1.72297C6.44289 1.71037 6.43479 1.69554 6.42988 1.67945C6.40108 1.60389 6.37983 1.52543 6.36648 1.4453L6.34072 1.3189V1.30439C6.34072 1.30439 6.34072 1.28575 6.34072 1.28368V1.25466L6.32091 1.19458C6.30068 1.10605 6.26581 1.02189 6.21788 0.945916C6.18655 0.903581 6.1414 0.874806 6.09107 0.865099C6.04584 0.856816 5.99958 0.856816 5.95435 0.865099L5.89491 0.875457H5.83746H5.76018C5.67836 0.870252 5.59632 0.870252 5.5145 0.875457C5.43128 0.875457 5.35005 0.875461 5.26683 0.892038L5.20343 0.902396C5.17783 0.908493 5.15316 0.918258 5.13012 0.931409C5.12266 0.936552 5.11597 0.942844 5.1103 0.950064L5.09644 0.968706C5.08973 0.980007 5.08377 0.991773 5.0786 1.00393C5.0786 1.02672 5.06275 1.04745 5.05681 1.07024C5.03702 1.15493 5.0218 1.24071 5.01123 1.32718L4.9934 1.45152C4.9934 1.48882 4.97557 1.53233 4.96765 1.57377C4.95801 1.63843 4.94344 1.70219 4.92406 1.76441C4.90542 1.81869 4.86889 1.86424 4.82103 1.89289C4.76691 1.92362 4.71059 1.94994 4.65261 1.97163C4.59316 1.99649 4.53175 2.01514 4.47231 2.03379C4.41169 2.05021 4.35015 2.06266 4.28804 2.07109H4.25634L4.24248 2.05658L4.17709 1.98406C4.09189 1.8846 4.01066 1.77684 3.92942 1.67737L3.80459 1.5199L3.77092 1.48053C3.74912 1.45981 3.73326 1.41421 3.69958 1.44322L3.59457 1.49089C3.47569 1.54477 3.3568 1.60071 3.24189 1.66494C3.12469 1.72487 3.01209 1.79414 2.90507 1.87216C2.85071 1.91273 2.79845 1.95631 2.74853 2.0027L2.67721 2.07524L2.62172 2.1374L2.63559 2.16019L2.65542 2.19335C2.71805 2.30788 2.76791 2.42955 2.80402 2.55597C2.82581 2.61814 2.84958 2.68444 2.87534 2.74661C2.88074 2.76301 2.88736 2.77894 2.89515 2.79426L2.90507 2.81705C2.90507 2.83363 2.92092 2.84814 2.92686 2.86265C2.94235 2.89382 2.96023 2.92362 2.98035 2.95175L2.95856 2.97246C2.91243 3.02419 2.86943 3.07887 2.82978 3.13617L2.80995 3.16517L2.78618 3.19626L2.77231 3.21284V3.2232L2.7525 3.25014C2.69504 3.3268 2.65145 3.41176 2.59003 3.44284C2.55531 3.45979 2.51738 3.46829 2.47907 3.46771C2.43773 3.46601 2.39663 3.46046 2.35623 3.45113C2.18653 3.40754 2.0218 3.34502 1.86486 3.26464L1.71823 3.19005H1.70437C1.70437 3.19005 1.70437 3.19005 1.70437 3.20248L1.68455 3.23148L1.65681 3.27293L1.61916 3.33303C1.57161 3.41384 1.52802 3.49879 1.48642 3.58167C1.44481 3.66456 1.4032 3.74538 1.36159 3.82412C1.31998 3.90286 1.26451 3.9816 1.22092 4.06656C1.19719 4.10945 1.17728 4.15453 1.16147 4.20124C1.15293 4.23309 1.15293 4.26679 1.16147 4.29864C1.16403 4.30988 1.16875 4.32046 1.17534 4.32973L1.19318 4.34629L1.22289 4.37323C1.26185 4.40038 1.30221 4.42528 1.34376 4.44783L1.37149 4.46233L1.39725 4.48099C1.41567 4.49462 1.43486 4.50708 1.45472 4.51829L1.68257 4.66334C1.75417 4.71011 1.82062 4.76501 1.8807 4.82703C1.90508 4.84995 1.92175 4.88046 1.92825 4.91406C1.92058 4.95579 1.90931 4.99672 1.89457 5.03632C1.86485 5.12335 1.82721 5.20624 1.79749 5.30156C1.78007 5.38823 1.7528 5.47239 1.71626 5.55228C1.69418 5.58609 1.66588 5.61498 1.63303 5.63725C1.59828 5.66084 1.56185 5.68162 1.52406 5.69941C1.35873 5.76563 1.19007 5.82236 1.01882 5.86933C0.972937 5.88253 0.928461 5.90058 0.886073 5.9232C0.836101 5.94815 0.796118 5.99069 0.773135 6.04338C0.757213 6.09412 0.750487 6.14754 0.753314 6.20086C0.753314 6.25059 0.753324 6.29618 0.763231 6.34177L0.785023 6.62151C0.791377 6.71829 0.807311 6.81413 0.832573 6.90747C0.839408 6.93258 0.848706 6.95688 0.860315 6.97999C0.873329 7.0048 0.889306 7.02778 0.907865 7.04837C0.928937 7.06945 0.954882 7.08444 0.983158 7.09188L1.0525 7.11054C1.14166 7.13333 1.23281 7.14369 1.31999 7.15819C1.40717 7.1727 1.49435 7.18512 1.57756 7.20585C1.61888 7.21523 1.65932 7.2284 1.69842 7.24522C1.71645 7.25075 1.73327 7.2599 1.74795 7.27216C1.75445 7.27532 1.75995 7.28035 1.76381 7.28666C1.76888 7.29395 1.77351 7.30156 1.77768 7.30945C1.81465 7.3912 1.84577 7.4757 1.8708 7.56226C1.89746 7.64928 1.91929 7.73783 1.93619 7.82749C1.93774 7.84679 1.93774 7.86621 1.93619 7.88551C1.93619 7.88551 1.93619 7.88552 1.93619 7.90417C1.93409 7.91424 1.93076 7.92398 1.92628 7.93317C1.90742 7.96989 1.88337 8.00343 1.85494 8.03264C1.79263 8.09324 1.72643 8.14931 1.65681 8.20048C1.57991 8.25446 1.50882 8.31698 1.4448 8.38697C1.41086 8.42502 1.38279 8.46836 1.36159 8.51544C1.3404 8.56697 1.33354 8.62372 1.34178 8.67915C1.36328 8.77643 1.40229 8.86855 1.4567 8.9506C1.50636 9.02997 1.56061 9.10609 1.61916 9.17853C1.67662 9.25313 1.73409 9.3215 1.7856 9.3961C1.81492 9.43617 1.84812 9.47298 1.88467 9.50593C1.92532 9.54355 1.97706 9.56548 2.03129 9.56809C2.08231 9.5682 2.13283 9.55763 2.17989 9.537L2.30471 9.4935C2.34434 9.47899 2.38793 9.4707 2.43351 9.45413L2.5603 9.41268C2.63281 9.37897 2.7147 9.37454 2.79015 9.40025C2.8259 9.41839 2.85921 9.44138 2.88921 9.46863C2.92488 9.50179 2.96054 9.5308 2.99818 9.55981C3.06918 9.60316 3.13115 9.66094 3.18047 9.72972C3.20569 9.80838 3.20569 9.8935 3.18047 9.97216C3.16263 10.0592 3.13688 10.1504 3.11509 10.2415C3.08541 10.3337 3.07002 10.4302 3.06951 10.5275ZM6.78255 11.3895L6.74689 11.4455L6.78255 11.3895ZM7.5533 5.28291C7.67909 5.48556 7.76715 5.71124 7.81286 5.94807C7.85846 6.19025 7.85846 6.43941 7.81286 6.6816C7.80231 6.74335 7.78775 6.80427 7.76927 6.86395C7.7537 6.92455 7.7345 6.98406 7.71181 7.04215C7.66915 7.16003 7.61539 7.27317 7.55132 7.37991C7.42549 7.59732 7.26145 7.78786 7.06787 7.94147C6.87514 8.09541 6.65048 8.19975 6.41204 8.24606C6.29386 8.2696 6.17372 8.28071 6.05342 8.27923C5.93271 8.28064 5.8121 8.27163 5.69281 8.25229C5.57456 8.23593 5.45789 8.20889 5.34411 8.17147C5.23116 8.13529 5.1217 8.08811 5.01718 8.03057C4.91553 7.97398 4.82103 7.90437 4.73583 7.82335C4.48041 7.58731 4.28674 7.28706 4.17312 6.95098C4.13749 6.84295 4.11032 6.73208 4.09189 6.61944C4.09189 6.5925 4.08198 6.56349 4.07802 6.53655C4.07607 6.50896 4.07607 6.48126 4.07802 6.45367C4.07802 6.39979 4.07802 6.34384 4.07802 6.28996C4.08148 6.07464 4.11212 5.86074 4.16916 5.65381C4.1951 5.55751 4.23239 5.46494 4.28012 5.37823L4.32767 5.3057C4.34684 5.281 4.36735 5.25748 4.38909 5.23525L4.41682 5.21039C4.41682 5.16894 4.41683 5.15029 4.39305 5.142L4.43268 5.09641L4.48618 5.04047C4.50599 5.01975 4.52383 4.99487 4.5377 4.97829L4.59317 4.92028L4.61496 4.89127C4.62177 4.87944 4.63049 4.86893 4.64072 4.86019L4.73385 4.76694C4.79595 4.71356 4.86222 4.66574 4.93198 4.62397C5.08024 4.5301 5.24123 4.46024 5.40948 4.41675C5.59289 4.36933 5.78129 4.34635 5.97021 4.34837C6.17208 4.35091 6.37245 4.38514 6.56461 4.4499C6.97062 4.61031 7.31702 4.90217 7.5533 5.28291ZM5.53431 8.3186L5.51648 8.34139V8.31652L5.53431 8.3186ZM3.26963 9.82504C3.27106 9.77043 3.25949 9.71631 3.23595 9.66755C3.21043 9.62193 3.1768 9.58185 3.13688 9.54945C3.09924 9.51837 3.06159 9.4935 3.02791 9.46656C2.99423 9.43962 2.95856 9.4106 2.92488 9.38159C2.88876 9.34629 2.84724 9.31757 2.80203 9.29664C2.75358 9.27667 2.70133 9.26886 2.64947 9.27385C2.60224 9.27859 2.5557 9.28902 2.51077 9.30492L2.38199 9.34844L2.2532 9.38574C2.17589 9.42056 2.09467 9.44494 2.01148 9.45827C1.94807 9.45827 1.88665 9.38989 1.83513 9.32151C1.78362 9.25313 1.72022 9.17438 1.66474 9.10186C1.60864 9.0318 1.55637 8.95847 1.50821 8.88221C1.46089 8.81142 1.42663 8.73201 1.40717 8.64806C1.40181 8.61014 1.4066 8.57141 1.42103 8.53617C1.43768 8.499 1.45974 8.46475 1.48642 8.43464C1.54656 8.36965 1.61296 8.31131 1.68455 8.26057C1.76103 8.20738 1.83327 8.14779 1.90052 8.08237C1.9361 8.04589 1.96615 8.00396 1.98967 7.95803C1.98967 7.94767 1.98968 7.93524 2.00354 7.92281C2.00932 7.9076 2.01268 7.8915 2.01346 7.87516C2.0168 7.84833 2.0168 7.82116 2.01346 7.79434C1.99573 7.7004 1.97256 7.60767 1.94411 7.51667C1.91805 7.42424 1.88492 7.33416 1.84504 7.24729C1.83874 7.23493 1.83145 7.22315 1.82325 7.21207C1.81406 7.19895 1.80264 7.18772 1.78957 7.17892C1.76886 7.1633 1.74619 7.15074 1.7222 7.14161C1.6787 7.12269 1.63359 7.10813 1.58747 7.0981C1.49922 7.07652 1.40994 7.05992 1.31999 7.04837C1.23083 7.03387 1.14563 7.0235 1.06043 7.00278C1.02407 6.99898 0.989258 6.98542 0.959382 6.96341C0.935288 6.93361 0.9171 6.8991 0.905882 6.86188C0.882856 6.77522 0.868258 6.68637 0.862298 6.59665L0.840494 6.31898C0.825343 6.23406 0.825343 6.14695 0.840494 6.06203C0.866252 5.99987 0.945506 5.96878 1.03863 5.94392C1.21241 5.89428 1.38369 5.8355 1.5518 5.76779C1.64432 5.73279 1.72493 5.67008 1.78362 5.5875C1.80932 5.54326 1.82806 5.49499 1.8391 5.44453L1.87675 5.30984C1.9025 5.22696 1.94014 5.13993 1.96986 5.05083C1.98827 5.0042 2.00157 4.95554 2.00949 4.90577C2.01148 4.89622 2.01148 4.88632 2.00949 4.87676C2.01063 4.86852 2.01063 4.86014 2.00949 4.8519C2.00561 4.83721 1.99959 4.82323 1.99166 4.81045C1.97808 4.78784 1.96285 4.76636 1.94609 4.74622C1.8797 4.67802 1.80589 4.61821 1.72616 4.56801C1.65087 4.51621 1.57359 4.47062 1.4983 4.42296L1.44283 4.38566L1.41311 4.36495L1.38141 4.34837C1.34376 4.32557 1.30413 4.30278 1.27243 4.27998L1.25063 4.26134C1.24928 4.24826 1.24928 4.23506 1.25063 4.22197C1.2628 4.18041 1.28012 4.1407 1.30215 4.10386C1.34376 4.02304 1.3933 3.94637 1.44085 3.86556C1.4884 3.78474 1.52803 3.69979 1.56766 3.61691C1.60728 3.53402 1.65087 3.45113 1.69842 3.37446C1.70892 3.35488 1.72084 3.33618 1.73408 3.31852V3.30194L1.82918 3.34959C1.99216 3.43411 2.16361 3.49944 2.34038 3.54438C2.38681 3.55391 2.43382 3.56014 2.48106 3.56303C2.53306 3.56247 2.58437 3.55046 2.63164 3.5278C2.67732 3.50154 2.71663 3.46469 2.74655 3.42005L2.82581 3.30815L2.84562 3.28328L2.8575 3.26878L2.88128 3.23563L2.90704 3.19211C2.92685 3.15896 2.95063 3.1113 2.96846 3.07607L3.00215 3.01598C3.01404 2.99319 3.02791 2.97247 3.03781 2.95589C3.04423 2.94959 3.04917 2.94182 3.05227 2.93319C3.05536 2.92457 3.05651 2.91532 3.05564 2.90615C3.05564 2.90615 3.02394 2.85436 3.00809 2.82535C2.99224 2.79634 2.99422 2.79841 2.98828 2.7839V2.76525L2.97044 2.71967C2.94469 2.65958 2.9229 2.59741 2.9011 2.53317C2.86233 2.40117 2.80984 2.27402 2.74458 2.15398V2.14361H2.75647C2.77628 2.11874 2.80203 2.09803 2.82383 2.07524C2.84562 2.05244 2.91893 1.99027 2.97044 1.9509C3.07461 1.87386 3.18386 1.80461 3.29737 1.74369C3.41031 1.68152 3.52721 1.62764 3.64411 1.57377L3.7194 1.54062L3.74911 1.57792L3.87195 1.73333C3.95517 1.83693 4.03641 1.94054 4.12359 2.04415L4.19096 2.11874L4.21077 2.13947L4.22861 2.15811H4.24049H4.30587C4.37125 2.15811 4.43664 2.13324 4.504 2.11667C4.5711 2.09897 4.63724 2.07753 4.70214 2.05243C4.76556 2.02748 4.82716 1.9977 4.88642 1.96333C4.95107 1.92398 5.00075 1.8625 5.02708 1.78928C5.047 1.7213 5.06288 1.65209 5.07463 1.58206C5.07463 1.54269 5.09247 1.50539 5.10039 1.4598L5.11823 1.33548C5.12676 1.25513 5.14066 1.1755 5.15983 1.09718C5.16592 1.06335 5.17803 1.03103 5.1955 1.00187H5.2173C5.23485 0.996521 5.25273 0.992356 5.2708 0.989423C5.34774 0.979633 5.42511 0.974108 5.50261 0.972855C5.57981 0.967694 5.65723 0.967694 5.73443 0.972855C5.81663 0.984192 5.89989 0.984192 5.98209 0.972855C6.01454 0.961344 6.04893 0.957059 6.08305 0.96027C6.11717 0.963482 6.15027 0.974113 6.18023 0.991497C6.22772 1.04577 6.26055 1.11228 6.27533 1.1842L6.31298 1.30232V1.32926V1.3562L6.32486 1.4163C6.33955 1.49956 6.35874 1.58187 6.38233 1.66287C6.39449 1.7081 6.41392 1.75086 6.43979 1.78928L6.45167 1.80585L6.46356 1.81828L6.49724 1.84316C6.52107 1.85612 6.54766 1.86253 6.57452 1.8618C6.61205 1.85749 6.64992 1.85749 6.68745 1.8618L6.80436 1.88045C6.88163 1.89289 6.96088 1.90325 7.03617 1.91775L7.09363 1.93018L7.15505 1.94469H7.18279C7.18279 1.94469 7.2026 1.94469 7.20657 1.94469L7.24223 1.90324L7.28186 1.85144C7.37696 1.71468 7.45622 1.5717 7.55528 1.44944C7.60014 1.38884 7.65604 1.33813 7.71974 1.30024C7.74986 1.28206 7.78403 1.27248 7.81881 1.27248C7.85359 1.27248 7.88775 1.28206 7.91787 1.30024C8.05385 1.3769 8.18611 1.46059 8.31414 1.55098C8.38665 1.58913 8.46144 1.62235 8.53804 1.65044C8.60427 1.67219 8.66196 1.71582 8.70248 1.77477C8.72805 1.84126 8.72805 1.9155 8.70248 1.98199C8.68069 2.05866 8.65097 2.13325 8.62125 2.20992C8.58856 2.28784 8.56141 2.36819 8.54002 2.45029C8.51368 2.54119 8.51929 2.63894 8.55586 2.72588V2.74038L8.52218 2.78183L7.08571 4.49549L7.02032 4.58459L6.99853 4.62189C6.91649 4.56459 6.83114 4.51269 6.74294 4.46648C6.55478 4.37839 6.35389 4.32376 6.14853 4.30485C5.95569 4.28593 5.76133 4.29221 5.56997 4.3235C5.39321 4.35509 5.22086 4.40939 5.05681 4.48514C4.90815 4.55388 4.77049 4.64613 4.64865 4.75865L4.56543 4.84361C4.56032 4.84791 4.55568 4.85278 4.55157 4.85812L4.52779 4.88919L4.504 4.92443C4.49212 4.94515 4.47032 4.97209 4.45447 5.0011C4.43862 5.03011 4.38712 5.10677 4.39108 5.10263C4.37573 5.12648 4.36496 5.15322 4.35937 5.18137L4.32569 5.21039L4.25436 5.29119L4.22266 5.34092C4.16765 5.43153 4.12372 5.52899 4.09189 5.63102C4.03036 5.84159 3.99505 6.05959 3.98688 6.2796C3.98688 6.33555 3.98688 6.39357 3.98688 6.44952C3.98813 6.50787 3.99343 6.56603 4.00273 6.62357C4.02005 6.73994 4.04521 6.8549 4.07802 6.96756C4.14764 7.19873 4.25415 7.41591 4.39305 7.60992C4.4652 7.70824 4.544 7.80104 4.62883 7.88759C4.716 7.97506 4.81162 8.05284 4.91414 8.11967C5.09529 8.22982 5.29186 8.30953 5.49666 8.35589C5.49363 8.35679 5.49082 8.35836 5.48843 8.36051C5.48603 8.36266 5.4841 8.36533 5.48279 8.36833V8.44499V8.67085V8.73923V8.9651V9.03347V9.25934V9.28421V9.51008V9.57845V9.80432V9.8727V10.0986V10.1669V10.3928V10.4612V10.6871V10.7554V10.9813V10.9917C5.45829 10.9083 5.42715 10.8272 5.38967 10.7492C5.36349 10.6952 5.32629 10.6478 5.2807 10.6104C5.23649 10.5798 5.18755 10.5573 5.13605 10.5441L5.05879 10.5233H5.04095H5.00529L4.76554 10.4881C4.73196 10.4842 4.69807 10.4842 4.66449 10.4881C4.6677 10.4795 4.6677 10.4698 4.66449 10.4612C4.65958 10.4554 4.65344 10.4509 4.64656 10.448C4.63968 10.4451 4.63226 10.4439 4.62488 10.4446C4.59421 10.4657 4.5668 10.4915 4.54363 10.5213C4.532 10.5342 4.5214 10.548 4.51194 10.5627L4.49807 10.5814C4.47231 10.6207 4.44853 10.6622 4.42476 10.7016C4.40306 10.7403 4.37925 10.7776 4.35343 10.8134L4.27021 10.9212C4.21275 10.9896 4.15133 11.0559 4.08991 11.1284L4.05226 11.174L3.93339 11.1118C3.77686 11.0269 3.62231 10.9336 3.46776 10.8425C3.39049 10.7969 3.31322 10.7492 3.23198 10.7057C3.19657 10.6901 3.16431 10.6676 3.13688 10.6394C3.12625 10.6259 3.11818 10.6104 3.11311 10.5938C3.10706 10.575 3.10308 10.5555 3.10122 10.5358C3.09842 10.4475 3.10912 10.3594 3.13292 10.2747C3.15273 10.1856 3.17849 10.0965 3.19632 10.0012C3.22822 9.94618 3.25288 9.88693 3.26963 9.82504Z" fill="#EDC01B"/>
</svg>
