<svg width="14" height="10" viewBox="0 0 14 10" fill="none" xmlns="http://www.w3.org/2000/svg">
<path d="M1.94433 2.48944C2.25414 2.32549 2.58978 2.22159 2.93501 2.18277C3.27277 2.14216 3.61456 2.15825 3.94747 2.23042C4.26903 2.29967 4.57629 2.42806 4.85493 2.60963C5.03772 2.72467 5.20898 2.85866 5.36613 3.00955L5.85353 2.41484C6.06751 2.15583 6.28349 1.89888 6.5054 1.64401C6.61636 1.51761 6.72928 1.39328 6.84222 1.26895L7.00469 1.09489C7.00469 1.09489 7.25831 0.856595 7.45644 0.709473L7.47824 0.692895H7.43662H7.42275C7.3752 0.659741 7.30585 0.574786 7.42275 0.475323H7.43861H12.392C12.392 0.475323 12.7308 0.498115 12.9666 0.535414H12.9824C12.9813 0.520241 12.9813 0.505 12.9824 0.489826C13.0046 0.408113 13.0446 0.332913 13.0993 0.27018C13.1617 0.200076 13.2423 0.15041 13.3311 0.127202C13.4257 0.100174 13.5267 0.112812 13.6125 0.162428C13.6198 0.165114 13.626 0.170206 13.6303 0.176934C13.6407 0.192805 13.6479 0.210762 13.6513 0.229667C13.6547 0.248573 13.6543 0.268015 13.6501 0.286758C13.6886 0.309324 13.7245 0.336439 13.7571 0.367571C13.7551 0.363427 13.7631 0.369643 13.775 0.384148C13.7947 0.405959 13.8126 0.429532 13.8285 0.4546C13.8524 0.494078 13.8699 0.537515 13.88 0.583072C13.8928 0.640316 13.8928 0.699887 13.88 0.757131C13.8538 0.86218 13.7927 0.954026 13.7076 1.01615C13.6796 1.036 13.6505 1.054 13.6204 1.07003L13.5848 1.08453C13.5005 1.10942 13.4114 1.10942 13.3272 1.08453C13.2463 1.06237 13.1729 1.01718 13.1152 0.953987C13.0618 0.893909 13.02 0.823528 12.9923 0.746773C12.982 0.715982 12.9753 0.683962 12.9725 0.651453H12.9547C12.9844 0.655597 12.3603 0.694969 12.3603 0.694969H7.62684C7.60306 0.730196 7.57334 0.769566 7.53966 0.811009C7.53966 0.803222 7.45397 0.905162 7.35981 1.01718L7.34152 1.03894L7.14339 1.28139L7.0681 1.36012L6.96309 1.47616C6.85214 1.59635 6.74316 1.71861 6.63616 1.84293C6.4202 2.08952 6.20819 2.34232 6.00015 2.59512L5.52265 3.17946L5.57218 3.23956C5.7631 3.48061 5.90653 3.75878 5.99421 4.05805C6.07499 4.33579 6.1255 4.62218 6.14479 4.91177C6.16815 5.17673 6.16349 5.44358 6.13092 5.70748C6.11545 5.8305 6.09228 5.95232 6.06157 6.07217C6.04572 6.13019 6.02987 6.18821 6.01203 6.24416V6.26281C6.00015 6.27732 6.00015 6.29182 6.00015 6.30218L5.98628 6.33534C5.9549 6.40713 5.91847 6.47639 5.8773 6.54255C5.86297 6.5681 5.84493 6.59117 5.82382 6.61093V6.62543C5.83555 6.6226 5.84774 6.6226 5.85948 6.62543L5.96647 6.72075C6.29537 6.99842 6.63815 7.27194 6.97498 7.54961L7.22858 7.75682L7.48814 7.96404C7.5773 8.02828 7.66448 8.09458 7.75166 8.16089L7.82696 8.22306C7.88183 8.27472 7.93407 8.32936 7.98348 8.38675C8.00109 8.40722 8.01762 8.42866 8.03301 8.45099C8.02793 8.47996 8.01857 8.50792 8.00527 8.53388C7.98943 8.56883 7.97157 8.60273 7.95178 8.63541L7.88838 8.74109L7.84875 8.79911L7.71995 8.97939C7.7259 9.01461 7.71996 9.01461 7.70807 8.99596L7.57135 9.1866L7.52975 9.24669L7.49409 9.2985H7.47824H7.44456C7.45644 9.32129 7.41087 9.30471 7.35341 9.2757L7.25633 9.21768L7.15528 9.15345L7.05422 9.07678L6.94922 8.99182L6.80062 8.87371C6.62824 8.73073 6.45784 8.59604 6.28348 8.45928C5.94467 8.18369 5.58209 7.93503 5.25319 7.63042C5.22086 7.60075 5.19041 7.56891 5.16204 7.5351C5.16006 7.53718 5.11845 7.57033 5.05505 7.61592L4.954 7.68844C4.83492 7.77025 4.71192 7.84564 4.58547 7.91431C4.32141 8.06645 4.0358 8.17348 3.73943 8.23134C3.58553 8.25834 3.42987 8.27289 3.27382 8.27486H3.03606H2.91322L2.79433 8.25621C2.46896 8.19347 2.15569 8.07515 1.86706 7.90602C1.71769 7.82202 1.57579 7.72424 1.44305 7.61385C1.30785 7.50283 1.18432 7.3771 1.07452 7.23879C0.834294 6.97104 0.648285 6.65528 0.527665 6.31047C0.471486 6.13461 0.431679 5.9535 0.408789 5.76964C0.3877 5.58538 0.37843 5.39986 0.381047 5.21431C0.376789 4.84035 0.433066 4.46833 0.547486 4.114C0.669988 3.76116 0.860123 3.43821 1.10623 3.16496C1.22953 3.03079 1.36197 2.90614 1.5025 2.79197C1.63913 2.67506 1.78723 2.57365 1.94433 2.48944Z" fill="#223D78"/>
</svg>
