<svg width="8" height="8" viewBox="0 0 8 8" fill="none" xmlns="http://www.w3.org/2000/svg">
<path d="M7.54084 0.587358C7.62009 1.79127 7.54084 2.95581 7.03758 4.05819C6.56006 5.03825 5.84554 5.87052 4.96509 6.47224C3.60588 7.43371 1.61067 8.12995 0.0117188 7.40677C0.671508 7.844 1.52547 7.86472 2.27441 7.75697C3.29018 7.59202 4.25691 7.18817 5.1018 6.57584C6.93059 5.28283 8.18874 2.90194 7.5765 0.566636C7.57388 0.56169 7.56948 0.558041 7.56428 0.556486C7.55907 0.554932 7.55349 0.555598 7.54876 0.558345C7.54403 0.561093 7.54055 0.565698 7.53906 0.571138C7.53758 0.576579 7.53821 0.582412 7.54084 0.587358Z" fill="#A4852F"/>
</svg>
