<svg width="5" height="4" viewBox="0 0 5 4" fill="none" xmlns="http://www.w3.org/2000/svg">
<path d="M3.3245 0.85714C3.22181 0.873581 3.12137 0.902797 3.02531 0.94417C2.8569 1.00426 2.65877 1.09544 2.50224 1.16796L2.3259 1.25292C2.34571 1.17003 2.38534 1.01048 2.42497 0.852995C2.48045 0.622987 2.53791 0.399198 2.528 0.417847C2.61122 0.0407176 2.62112 -0.222444 2.35958 0.34325C2.19711 0.676865 2.01086 1.17211 2.01086 1.17211L1.94746 1.37932L1.76319 1.29022C1.72951 1.20526 1.69583 1.1203 1.67008 1.03534C1.6153 0.871663 1.58263 0.700793 1.57299 0.527671C1.56926 0.518873 1.56461 0.510531 1.55912 0.502803C1.48779 0.424061 1.42439 0.395053 1.36099 0.407486C1.33553 0.414973 1.31192 0.428101 1.29175 0.445978C1.27158 0.463855 1.25532 0.486063 1.24408 0.511093C1.24119 0.519106 1.24119 0.527945 1.24408 0.535958C1.25281 0.717466 1.28343 0.897093 1.33523 1.07057C1.26681 1.03341 1.20064 0.991892 1.13709 0.946241C1.12997 0.94411 1.12242 0.94411 1.1153 0.946241C1.06973 0.946241 1.04992 0.987685 1.01623 0.983541C0.988426 0.985645 0.961697 0.995678 0.938958 1.01255C0.923956 1.02028 0.911529 1.03255 0.903296 1.04778C0.903296 1.04778 0.903296 1.06228 0.903296 1.07057C0.902333 1.0816 0.902333 1.0927 0.903296 1.10373C0.908433 1.13824 0.918442 1.17176 0.933009 1.20319C0.935584 1.21249 0.941195 1.22055 0.948863 1.22598C1.0311 1.28357 1.11643 1.33615 1.20445 1.38346C1.28767 1.42905 1.37089 1.47257 1.4541 1.51401L1.52148 1.54716C1.53931 1.59275 1.5611 1.63834 1.58091 1.68185L1.44618 1.75438C1.29317 1.83805 1.13337 1.90739 0.968671 1.96159L0.950846 1.98024C0.928904 2.00899 0.913562 2.04262 0.906004 2.07854C0.898447 2.11447 0.898871 2.15173 0.90725 2.18745C0.92111 2.2115 0.939496 2.23235 0.961294 2.24873C0.983093 2.26512 1.00785 2.2767 1.03406 2.28277C1.03811 2.28466 1.0425 2.28563 1.04694 2.28563C1.05138 2.28563 1.05576 2.28466 1.05982 2.28277C1.2426 2.22161 1.42021 2.14468 1.59082 2.05277L1.72753 1.98024L1.74537 2.01754L1.67206 2.25376C1.6146 2.43404 1.55714 2.61432 1.4977 2.79252C1.49551 2.80205 1.49551 2.81199 1.4977 2.82153C1.57497 3.04118 1.72159 2.98108 1.78895 2.92514C1.79636 2.92132 1.80205 2.91463 1.80481 2.90649C1.8583 2.74279 1.9118 2.57702 1.96331 2.41332C2.07625 2.62053 2.17333 2.82775 2.16145 2.79666C2.21127 2.91628 2.27807 3.02736 2.35958 3.12613C2.37741 3.13857 2.39129 3.12613 2.39129 3.05775C2.39339 3.01565 2.39339 2.97346 2.39129 2.93135C2.38138 2.87955 2.36751 2.81324 2.34769 2.73657C2.29765 2.54416 2.23611 2.35522 2.16343 2.17088C2.13767 2.1025 2.11192 2.0424 2.09409 1.99267L2.14559 1.82276L2.57951 2.02997L2.81926 2.13772C2.81926 2.13772 3.69104 2.46305 3.65736 2.44026C3.77454 2.48946 3.89962 2.51478 4.02589 2.51485C4.0675 2.49828 4.00014 2.42575 3.74059 2.26827C3.43546 2.07556 2.98766 1.83934 2.98766 1.83934L2.7083 1.71294L2.40515 1.57617L2.74198 1.34824C2.93021 1.21976 3.11645 1.10165 3.09862 1.10787C3.20817 1.04481 3.30776 0.964425 3.39385 0.869573C3.40178 0.8675 3.38196 0.85714 3.3245 0.85714Z" fill="#7DCDF9"/>
</svg>
